<svg width="301" height="192" viewBox="0 0 301 192" fill="none" xmlns="http://www.w3.org/2000/svg">
<path d="M81.084 191.367C104.738 191.367 124.88 182.158 139.092 165.498C153.291 148.855 161.498 124.864 161.498 95.3974H159.184C159.184 124.447 151.095 147.863 137.332 163.997C123.582 180.114 104.096 189.053 81.084 189.053V191.367ZM161.498 95.3974C161.498 65.9299 153.291 42.2432 139.085 25.9054C124.867 9.55313 104.725 0.662567 81.084 0.662567V2.97658C104.109 2.97658 123.595 11.6164 137.339 27.4238C151.096 43.2457 159.184 66.3479 159.184 95.3974H161.498ZM81.084 0.662567C57.443 0.662567 37.3611 9.55359 23.2045 25.9074C9.06133 42.2457 0.916708 65.9321 0.916708 95.3974H3.23072C3.23072 66.3458 11.2585 43.2431 24.9541 27.4219C38.6364 11.616 58.0596 2.97658 81.084 2.97658V0.662567ZM0.916708 95.3974C0.916708 124.862 9.06089 148.852 23.1975 165.496C37.3482 182.157 57.4298 191.367 81.084 191.367V189.053C58.0728 189.053 38.6493 180.115 24.9612 163.999C11.259 147.866 3.23072 124.45 3.23072 95.3974H0.916708ZM81.084 164.115C66.4201 164.115 54.3552 157.464 45.917 145.59C37.4543 133.682 32.6127 116.471 32.6127 95.3974H30.2987C30.2987 116.792 35.2099 134.518 44.0307 146.931C52.876 159.377 65.6253 166.429 81.084 166.429V164.115ZM32.6127 95.3974C32.6127 74.1989 37.4549 57.3045 45.9079 45.742C54.3343 34.2159 66.3962 27.9142 81.084 27.9142V25.6002C65.6492 25.6002 52.8969 32.2612 44.0398 44.3764C35.2093 56.4552 30.2987 73.881 30.2987 95.3974H32.6127ZM81.084 27.9142C95.773 27.9142 107.898 34.217 116.386 45.7452C124.9 57.3082 129.802 74.2018 129.802 95.3974H132.116C132.116 73.878 127.143 56.4516 118.249 44.3732C109.331 32.2601 96.5177 25.6002 81.084 25.6002V27.9142ZM129.802 95.3974C129.802 116.468 124.9 133.678 116.377 145.587C107.877 157.463 95.7492 164.115 81.084 164.115V166.429C96.5415 166.429 109.351 159.378 118.259 146.934C127.142 134.522 132.116 116.795 132.116 95.3974H129.802ZM195.379 187H194.222V188.157H195.379V187ZM299.08 187V188.157H300.237V187H299.08ZM299.08 163.544H300.237V162.387H299.08V163.544ZM263.525 163.544H262.368V164.701H263.525V163.544ZM263.525 10.2144H264.682V9.05742H263.525V10.2144ZM242.044 10.2144V9.05742H241.715L241.435 9.23065L242.044 10.2144ZM202.539 24.0412L202.341 22.9013L201.382 23.0681V24.0412H202.539ZM202.539 42.0655H201.382V43.2225H202.539V42.0655ZM235.131 42.0655H236.288V40.9084H235.131V42.0655ZM235.131 163.544V164.701H236.288V163.544H235.131ZM195.379 163.544V162.387H194.222V163.544H195.379ZM195.379 188.157H299.08V185.843H195.379V188.157ZM300.237 187V163.544H297.923V187H300.237ZM299.08 162.387H263.525V164.701H299.08V162.387ZM264.682 163.544V10.2144H262.368V163.544H264.682ZM263.525 9.05742H242.044V11.3714H263.525V9.05742ZM241.435 9.23065C231.22 15.5546 219.27 19.9572 202.341 22.9013L202.737 25.1811C219.882 22.1994 232.129 17.7134 242.653 11.1982L241.435 9.23065ZM201.382 24.0412V42.0655H203.696V24.0412H201.382ZM202.539 43.2225H235.131V40.9084H202.539V43.2225ZM233.974 42.0655V163.544H236.288V42.0655H233.974ZM235.131 162.387H195.379V164.701H235.131V162.387ZM194.222 163.544V187H196.536V163.544H194.222Z" fill="#A0CD95"/>
</svg>
