<svg width="304" height="192" viewBox="0 0 304 192" fill="none" xmlns="http://www.w3.org/2000/svg">
<path d="M81.084 191.367C104.738 191.367 124.88 182.158 139.092 165.498C153.291 148.855 161.498 124.864 161.498 95.3974H159.184C159.184 124.447 151.095 147.863 137.332 163.997C123.582 180.114 104.096 189.053 81.084 189.053V191.367ZM161.498 95.3974C161.498 65.9299 153.291 42.2432 139.085 25.9054C124.867 9.55313 104.725 0.662567 81.084 0.662567V2.97658C104.109 2.97658 123.595 11.6164 137.339 27.4238C151.096 43.2457 159.184 66.3479 159.184 95.3974H161.498ZM81.084 0.662567C57.443 0.662567 37.3611 9.55359 23.2045 25.9074C9.06133 42.2457 0.916708 65.9321 0.916708 95.3974H3.23072C3.23072 66.3458 11.2585 43.2431 24.9541 27.4219C38.6364 11.616 58.0596 2.97658 81.084 2.97658V0.662567ZM0.916708 95.3974C0.916708 124.862 9.06089 148.852 23.1975 165.496C37.3482 182.157 57.4298 191.367 81.084 191.367V189.053C58.0728 189.053 38.6493 180.115 24.9612 163.999C11.259 147.866 3.23072 124.45 3.23072 95.3974H0.916708ZM81.084 164.115C66.4201 164.115 54.3552 157.464 45.917 145.59C37.4543 133.682 32.6127 116.471 32.6127 95.3974H30.2987C30.2987 116.792 35.2099 134.518 44.0307 146.931C52.876 159.377 65.6253 166.429 81.084 166.429V164.115ZM32.6127 95.3974C32.6127 74.1989 37.4549 57.3045 45.9079 45.742C54.3343 34.2159 66.3962 27.9142 81.084 27.9142V25.6002C65.6492 25.6002 52.8969 32.2612 44.0398 44.3764C35.2093 56.4552 30.2987 73.881 30.2987 95.3974H32.6127ZM81.084 27.9142C95.773 27.9142 107.898 34.217 116.386 45.7452C124.9 57.3082 129.802 74.2018 129.802 95.3974H132.116C132.116 73.878 127.143 56.4516 118.249 44.3732C109.331 32.2601 96.5177 25.6002 81.084 25.6002V27.9142ZM129.802 95.3974C129.802 116.468 124.9 133.678 116.377 145.587C107.877 157.463 95.7492 164.115 81.084 164.115V166.429C96.5415 166.429 109.351 159.378 118.259 146.934C127.142 134.522 132.116 116.795 132.116 95.3974H129.802ZM185.009 187H183.852V188.157H185.009V187ZM302.29 187V188.157H303.447V187H302.29ZM302.29 162.803H303.447V161.646H302.29V162.803ZM226.489 164.531L225.653 163.732L223.463 166.022L226.614 165.682L226.489 164.531ZM183.527 33.9175L182.679 33.1312L181.916 33.9545L182.716 34.742L183.527 33.9175ZM199.576 49.7196L198.765 50.544L199.643 51.4091L200.451 50.4773L199.576 49.7196ZM185.009 170.457L184.199 169.631L183.852 169.971V170.457H185.009ZM185.009 188.157H302.29V185.843H185.009V188.157ZM303.447 187V162.803H301.133V187H303.447ZM302.29 161.646H256.118V163.96H302.29V161.646ZM256.118 161.646C247.179 161.646 235.532 162.39 226.365 163.381L226.614 165.682C235.718 164.698 247.28 163.96 256.118 163.96V161.646ZM227.325 165.331C246.206 145.587 263.056 127.503 275.181 110.292C287.302 93.0859 294.805 76.6131 294.805 60.0897H292.491C292.491 75.9111 285.303 91.9066 273.289 108.959C261.279 126.007 244.549 143.971 225.653 163.732L227.325 165.331ZM294.805 60.0897C294.805 43.7756 289.34 30.1284 279.55 20.5595C269.761 10.9929 255.75 5.60071 238.835 5.60071V7.91472C255.252 7.91472 268.647 13.1396 277.932 22.2144C287.215 31.2871 292.491 44.3058 292.491 60.0897H294.805ZM238.835 5.60071C214.698 5.60071 198.363 16.2019 182.679 33.1312L184.376 34.7038C199.802 18.0537 215.565 7.91472 238.835 7.91472V5.60071ZM182.716 34.742L198.765 50.544L200.388 48.8951L184.339 33.0931L182.716 34.742ZM200.451 50.4773C210.017 39.4398 221.574 30.6302 235.378 30.6302V28.3162C220.54 28.3162 208.395 37.7778 198.702 48.9618L200.451 50.4773ZM235.378 30.6302C245.375 30.6302 252.753 33.7537 257.642 39.0824C262.546 44.4268 265.084 52.1394 265.084 61.5711H267.398C267.398 51.7441 264.752 43.4078 259.347 37.5179C253.928 31.6123 245.875 28.3162 235.378 28.3162V30.6302ZM265.084 61.5711C265.084 74.9835 257.65 89.5318 243.701 107.053C229.772 124.548 209.519 144.805 184.199 169.631L185.819 171.283C211.115 146.481 231.477 126.122 245.511 108.494C259.524 90.8929 267.398 75.8123 267.398 61.5711H265.084ZM183.852 170.457V187H186.166V170.457H183.852Z" fill="#A0CD95"/>
</svg>
