<svg width="303" height="192" viewBox="0 0 303 192" fill="none" xmlns="http://www.w3.org/2000/svg">
<path d="M81.084 191.367C104.738 191.367 124.88 182.158 139.092 165.498C153.291 148.855 161.498 124.864 161.498 95.3974H159.184C159.184 124.447 151.095 147.863 137.332 163.997C123.582 180.114 104.096 189.053 81.084 189.053V191.367ZM161.498 95.3974C161.498 65.9299 153.291 42.2432 139.085 25.9054C124.867 9.55313 104.725 0.662567 81.084 0.662567V2.97658C104.109 2.97658 123.595 11.6164 137.339 27.4238C151.096 43.2457 159.184 66.3479 159.184 95.3974H161.498ZM81.084 0.662567C57.443 0.662567 37.3611 9.55359 23.2045 25.9074C9.06133 42.2457 0.916708 65.9321 0.916708 95.3974H3.23072C3.23072 66.3458 11.2585 43.2431 24.9541 27.4219C38.6364 11.616 58.0596 2.97658 81.084 2.97658V0.662567ZM0.916708 95.3974C0.916708 124.862 9.06089 148.852 23.1975 165.496C37.3482 182.157 57.4298 191.367 81.084 191.367V189.053C58.0728 189.053 38.6493 180.115 24.9612 163.999C11.259 147.866 3.23072 124.45 3.23072 95.3974H0.916708ZM81.084 164.115C66.4201 164.115 54.3552 157.464 45.917 145.59C37.4543 133.682 32.6127 116.471 32.6127 95.3974H30.2987C30.2987 116.792 35.2099 134.518 44.0307 146.931C52.876 159.377 65.6253 166.429 81.084 166.429V164.115ZM32.6127 95.3974C32.6127 74.1989 37.4549 57.3045 45.9079 45.742C54.3343 34.2159 66.3962 27.9142 81.084 27.9142V25.6002C65.6492 25.6002 52.8969 32.2612 44.0398 44.3764C35.2093 56.4552 30.2987 73.881 30.2987 95.3974H32.6127ZM81.084 27.9142C95.773 27.9142 107.898 34.217 116.386 45.7452C124.9 57.3082 129.802 74.2018 129.802 95.3974H132.116C132.116 73.878 127.143 56.4516 118.249 44.3732C109.331 32.2601 96.5177 25.6002 81.084 25.6002V27.9142ZM129.802 95.3974C129.802 116.468 124.9 133.678 116.377 145.587C107.877 157.463 95.7492 164.115 81.084 164.115V166.429C96.5415 166.429 109.351 159.378 118.259 146.934C127.142 134.522 132.116 116.795 132.116 95.3974H129.802ZM263.525 95.1505H262.368V96.0565L263.248 96.2737L263.525 95.1505ZM263.525 93.916L263.122 92.8315L262.368 93.1118V93.916H263.525ZM187.231 28.9794L186.451 28.1252L185.635 28.8709L186.342 29.7201L187.231 28.9794ZM202.045 46.7567L201.157 47.4974L201.968 48.4707L202.864 47.5748L202.045 46.7567ZM218.588 85.0273V83.8703H217.431V85.0273H218.588ZM218.588 106.014H217.431V107.171H218.588V106.014ZM194.885 147.001L195.713 146.192L194.773 145.231L193.963 146.303L194.885 147.001ZM181.058 165.272L180.136 164.574L179.562 165.332L180.194 166.042L181.058 165.272ZM240.316 191.367C257.187 191.367 272.64 186.619 283.901 177.755C295.187 168.872 302.212 155.888 302.212 139.594H299.898C299.898 155.151 293.22 167.475 282.47 175.937C271.694 184.418 256.777 189.053 240.316 189.053V191.367ZM302.212 139.594C302.212 114.979 285.165 99.305 263.803 94.0273L263.248 96.2737C283.86 101.366 299.898 116.309 299.898 139.594H302.212ZM264.682 95.1505V93.916H262.368V95.1505H264.682ZM263.929 95.0005C273.703 91.3663 281.738 86.0744 287.333 79.0179C292.937 71.9482 296.04 63.1723 296.04 52.6825H293.726C293.726 62.6859 290.778 70.9466 285.519 77.5803C280.25 84.2271 272.606 89.3053 263.122 92.8315L263.929 95.0005ZM296.04 52.6825C296.04 37.7796 290.152 25.9594 280.049 17.8904C269.977 9.84496 255.81 5.60071 239.328 5.60071V7.91472C255.439 7.91472 269.049 12.0653 278.605 19.6985C288.132 27.3081 293.726 38.4502 293.726 52.6825H296.04ZM239.328 5.60071C217.965 5.60071 200.91 14.9126 186.451 28.1252L188.011 29.8335C202.194 16.874 218.717 7.91472 239.328 7.91472V5.60071ZM186.342 29.7201L201.157 47.4974L202.934 46.016L188.12 28.2387L186.342 29.7201ZM202.864 47.5748C213.11 37.328 224.685 30.6302 238.341 30.6302V28.3162C223.849 28.3162 211.721 35.4452 201.227 45.9386L202.864 47.5748ZM238.341 30.6302C246.774 30.6302 253.444 32.9777 257.994 37.1187C262.53 41.2477 265.084 47.2745 265.084 54.9046H267.398C267.398 46.7327 264.645 40.0438 259.551 35.4075C254.471 30.7834 247.191 28.3162 238.341 28.3162V30.6302ZM265.084 54.9046C265.084 63.1231 262.246 70.2735 255.16 75.4185C248.008 80.6124 236.382 83.8703 218.588 83.8703V86.1843C236.596 86.1843 248.797 82.8992 256.52 77.2909C264.311 71.6337 267.398 63.7227 267.398 54.9046H265.084ZM217.431 85.0273V106.014H219.745V85.0273H217.431ZM218.588 107.171C239.009 107.171 252.182 110.317 260.227 115.71C268.169 121.034 271.257 128.652 271.257 138.112H273.571C273.571 128.067 270.239 119.636 261.515 113.788C252.894 108.008 239.154 104.857 218.588 104.857V107.171ZM271.257 138.112C271.257 146.668 267.883 153.557 262.081 158.329C256.255 163.12 247.894 165.844 237.847 165.844V168.158C248.293 168.158 257.216 165.326 263.55 160.117C269.908 154.889 273.571 147.334 273.571 138.112H271.257ZM237.847 165.844C219.511 165.844 206.211 156.935 195.713 146.192L194.058 147.81C204.794 158.795 218.653 168.158 237.847 168.158V165.844ZM193.963 146.303L180.136 164.574L181.981 165.97L195.808 147.699L193.963 146.303ZM180.194 166.042C192.495 179.849 211.32 191.367 240.316 191.367V189.053C212.03 189.053 193.818 177.855 181.922 164.503L180.194 166.042Z" fill="#A0CD95"/>
</svg>
