<svg width="1440" height="302" viewBox="0 0 1440 302" fill="none" xmlns="http://www.w3.org/2000/svg">
<path d="M987.723 16.9353C987.723 16.9353 980.122 4.35049 974.525 2.39335C972.982 1.80464 971.312 1.62877 969.681 1.8832C968.049 2.13762 966.512 2.81352 965.221 3.84404C965.221 3.84404 957.189 -0.222416 964.886 -7.40385C972.583 -14.5853 975.93 -15.8212 977.316 -11.4493C978.701 -7.07737 996.045 11.4115 996.045 11.4115L987.723 16.9353Z" fill="#804F21"/>
<path d="M998.997 11.7508L987.116 19.6401L986.082 17.934C986.082 17.934 984.188 14.8108 981.679 11.5448C977.47 6.0604 974.992 4.59659 973.892 4.21446C972.673 3.73249 971.35 3.57596 970.052 3.76019C968.754 3.94443 967.527 4.46311 966.49 5.26528L965.518 6.1642L964.344 5.55478C964.173 5.48167 960.251 3.45063 959.685 -0.488551C959.29 -3.22988 960.594 -6.02834 963.563 -8.80376C969.766 -14.5891 973.076 -16.4788 975.787 -15.7684C977.35 -15.3592 978.475 -14.1011 979.135 -12.0239C979.619 -10.4959 985.013 -3.13997 997.429 10.0948L998.997 11.7508ZM988.272 14.2626L993.067 11.0736C988.286 5.90713 976.717 -6.85748 975.458 -10.8594C975.196 -11.7237 974.905 -12.0188 974.796 -12.0462C974.291 -12.1801 972.444 -11.8512 966.168 -5.98338C964.783 -4.67968 963.217 -2.82112 963.465 -1.02128C963.695 0.00792938 964.297 0.915894 965.156 1.52821C966.641 0.63178 968.309 0.0823994 970.036 -0.0787895C971.763 -0.239979 973.504 -0.00881577 975.129 0.597344C980.108 2.3154 985.894 10.5409 988.272 14.2626Z" fill="#231916"/>
<path d="M1025.99 149.696C1025.99 149.696 1065.44 128.75 1053.77 69.5012C1042.1 10.2521 995.786 -1.6113 987.369 7.81564C978.952 17.2426 991.202 39.3365 996.995 49.3788C1002.79 59.4211 1011.68 80.2734 1011.32 102.904C1010.96 125.534 1002.06 156.945 1025.99 149.696Z" fill="#FCD13F"/>
<path d="M1051.76 121.928C1050.13 125.751 1048.15 129.416 1045.85 132.876C1037.27 145.781 1027.29 151.162 1026.89 151.394L1026.72 151.482L1026.54 151.532C1020.43 153.386 1015.88 153.009 1012.64 150.38C1006.03 145.023 1007.2 131.715 1008.44 117.615C1008.88 112.65 1009.33 107.521 1009.41 102.859C1009.74 82.6358 1002.36 62.4538 995.348 50.305C987.174 36.135 977.306 16.1848 985.964 6.4753C989.285 2.75721 996.694 1.91169 1005.3 4.27226C1015.56 7.07631 1025.82 13.7903 1034.19 23.1765C1044.79 35.0537 1052.02 50.4934 1055.65 69.0609C1058.36 82.8226 1058.56 95.6982 1056.23 107.331C1055.25 112.339 1053.75 117.231 1051.76 121.928ZM1025.25 147.92C1028.65 146.048 1036.45 140.162 1042.77 130.581C1047.55 123.269 1050.86 115.093 1052.5 106.513C1054.7 95.4466 1054.49 83.0822 1051.89 69.8736C1048.36 51.9768 1041.44 37.1465 1031.3 25.7908C1020.66 13.8663 1009.8 9.54651 1004.27 8.03112C996.2 5.84636 990.693 6.97419 988.801 9.09172C981.004 17.823 994.289 40.8524 998.659 48.4152C1005.92 60.9995 1013.56 81.9649 1013.26 102.962C1013.18 107.752 1012.73 112.955 1012.28 117.98C1011.19 130.443 1010.06 143.333 1015.09 147.417C1017.19 149.137 1020.54 149.312 1025.25 147.92Z" fill="#231916"/>
<path d="M1009.43 144.284C1009.43 144.284 1023.13 139.606 1025.92 145.958C1028.72 152.311 1016.14 157.002 1013.97 154.872C1011.8 152.742 1005.89 153.306 1009.43 144.284Z" fill="#6A3907"/>
<path d="M1027.71 150.293C1026.9 151.984 1025.63 153.413 1024.05 154.417C1022.25 155.642 1020.24 156.518 1018.12 157.001C1016.37 157.387 1013.99 157.56 1012.61 156.206C1012.15 155.846 1011.63 155.55 1011.09 155.328C1007.81 153.74 1004.56 151.396 1007.64 143.555L1007.96 142.726L1008.8 142.452C1011.28 141.648 1013.85 141.101 1016.45 140.819C1023.83 140.09 1026.63 142.786 1027.69 145.176C1028.05 145.979 1028.24 146.85 1028.25 147.732C1028.25 148.614 1028.07 149.487 1027.71 150.293ZM1015.23 153.42C1016.25 153.773 1020.66 152.739 1023.13 150.269C1024.93 148.467 1024.38 147.206 1024.17 146.729C1022.7 143.404 1015.11 144.57 1010.9 145.823C1010.2 147.857 1010.06 149.368 1010.48 150.233C1010.84 150.974 1011.73 151.4 1012.77 151.898C1013.66 152.275 1014.49 152.789 1015.23 153.42Z" fill="#231916"/>
<path d="M1019.99 139.913C1019.99 139.913 1042.03 101.938 1040.16 80.0816C1034.81 17.7552 988.118 12.465 988.118 12.465C988.118 12.465 995.422 29.7329 1014.36 74.0468C1027.4 104.56 1019.99 139.913 1019.99 139.913Z" fill="#F9BF3E"/>
<path d="M1024.73 57.1594C1021.87 58.6529 1018.86 59.8485 1015.76 60.7273L1014.71 57.0022C1017.55 56.1954 1020.31 55.0974 1022.93 53.7256L1024.73 57.1594Z" fill="#231916"/>
<path d="M1038.28 59.9019C1037.19 60.9236 1036.17 62.0132 1035.22 63.1642C1032.95 65.8124 1030.6 68.5506 1025.31 70.9335C1019.33 73.6489 1016.23 72.4359 1012.63 71.0288C1012.25 70.8688 1011.85 70.7288 1011.44 70.5735L1012.81 66.9463C1013.22 67.1245 1013.64 67.2661 1014.04 67.4222C1017.29 68.6915 1019.21 69.4461 1023.71 67.4103C1028.2 65.3745 1030.19 63.0555 1032.29 60.6287C1033.35 59.3581 1034.48 58.1541 1035.69 57.0235L1038.28 59.9019Z" fill="#231916"/>
<path d="M1006.37 56.1926C1006.77 56.6304 1007.3 56.9381 1007.88 57.0766C1008.46 57.2151 1009.07 57.1784 1009.63 56.9711C1010.19 56.7637 1010.68 56.395 1011.03 55.9116C1011.38 55.4281 1011.58 54.8516 1011.6 54.2548C1011.63 53.658 1011.47 53.0677 1011.16 52.5584C1010.85 52.0492 1010.39 51.6438 1009.85 51.3935C1009.31 51.1432 1008.7 51.0592 1008.11 51.1521C1007.52 51.245 1006.97 51.5107 1006.54 51.9156C1005.95 52.4608 1005.6 53.2176 1005.57 54.0197C1005.54 54.8217 1005.82 55.6033 1006.37 56.1926Z" fill="#231916"/>
<path d="M1023.3 48.1321C1023.71 48.5713 1024.23 48.8804 1024.82 49.0202C1025.4 49.1601 1026.01 49.1245 1026.57 48.9179C1027.13 48.7113 1027.62 48.3431 1027.97 47.8597C1028.32 47.3763 1028.52 46.7995 1028.54 46.2022C1028.57 45.605 1028.41 45.0141 1028.1 44.5044C1027.79 43.9946 1027.33 43.5889 1026.79 43.3385C1026.25 43.088 1025.64 43.0042 1025.05 43.0975C1024.46 43.1908 1023.91 43.4571 1023.47 43.8627C1022.88 44.4064 1022.54 45.1616 1022.5 45.9623C1022.47 46.7629 1022.76 47.5434 1023.3 48.1321Z" fill="#231916"/>
<path d="M1068.34 80.1C1063.47 77.2533 1057.79 75.3115 1057.3 76.497C1056.59 77.9191 1051.79 87.414 1052.48 89.8071C1052.9 91.3136 1053.4 92.7952 1053.99 94.2445C1054.53 95.6596 1053.96 98.0553 1053.96 98.0553L1047.74 114.282C1055.56 122.807 1064.57 116.302 1064.57 116.302C1064.57 116.302 1065.71 105.412 1067.08 101.573C1068.45 97.7349 1069.18 97.2146 1070.37 95.8836C1071.56 94.5527 1073.24 91.1198 1074.1 89.1992C1074.96 87.2787 1073.21 82.9467 1068.34 80.1Z" fill="#FCD13F"/>
<path d="M1066.41 117.359L1065.71 117.864C1063.81 119.127 1061.67 119.982 1059.42 120.377C1056.01 120.971 1050.95 120.617 1046.31 115.567L1045.51 114.693L1052.1 97.4838C1052.31 96.6447 1052.34 95.7703 1052.18 94.9199L1052.02 94.4821C1051.48 93.1293 1051.02 91.7491 1050.62 90.3474C1050.38 89.451 1049.74 87.3204 1055.49 75.8003L1055.55 75.6721C1055.69 75.3716 1055.9 75.1039 1056.15 74.8856C1056.4 74.6673 1056.69 74.5029 1057.01 74.4027C1059.7 73.5054 1066.22 76.6574 1069.29 78.4503C1075 81.7854 1077.16 86.9785 1075.9 89.912L1075.88 89.9654C1075.34 91.2158 1073.39 95.3936 1071.83 97.1507L1071.47 97.5417C1070.58 98.5245 1070.03 99.114 1068.91 102.211C1067.83 105.171 1066.79 113.535 1066.48 116.512L1066.41 117.359ZM1049.98 113.81C1055.23 118.69 1060.85 116.267 1062.79 115.172C1063.1 112.394 1064.1 104.269 1065.33 100.9C1066.64 97.2725 1067.45 96.2769 1068.66 94.9497L1068.98 94.5892C1069.87 93.5911 1071.38 90.6819 1072.4 88.4003C1072.69 87.7003 1071.71 84.317 1067.37 81.7644C1063.52 79.4868 1060.05 78.3192 1058.64 78.1067C1054.26 86.9801 1054.3 89.1022 1054.33 89.3143C1054.68 90.6008 1055.11 91.8661 1055.61 93.104L1055.78 93.5495C1056.5 95.4275 1055.94 98.0071 1055.83 98.5009L1055.78 98.6185L1049.98 113.81Z" fill="#231916"/>
<path d="M1069.61 75.7625C1069.03 74.7178 1068.14 73.8754 1067.06 73.3473C1065.02 72.4723 1064.17 74.7125 1064.17 74.7125L1060.57 84.4582C1060.57 84.4582 1059.2 86.9721 1061.21 87.8907C1063.23 88.8092 1064.29 87.3997 1064.68 86.7126C1065.07 86.0255 1069.61 75.7625 1069.61 75.7625Z" fill="#FCD13F"/>
<path d="M1071.73 75.6982L1071.37 76.5424C1070.29 78.9759 1066.76 86.9558 1066.36 87.6696C1065.07 89.9644 1062.74 90.7417 1060.4 89.6494C1059.93 89.4431 1059.51 89.1404 1059.17 88.7609C1058.82 88.3814 1058.56 87.9336 1058.4 87.4466C1058.07 86.1835 1058.22 84.8417 1058.83 83.6852L1062.38 74.0562C1062.81 72.9336 1063.65 72.0193 1064.74 71.5049C1065.23 71.2955 1065.77 71.1938 1066.31 71.2065C1066.85 71.2192 1067.38 71.346 1067.86 71.5786C1069.34 72.282 1070.56 73.4328 1071.34 74.8675L1071.73 75.6982ZM1062.03 86.1807C1062.41 86.3407 1062.64 86.4389 1062.99 85.79C1063.27 85.2762 1065.7 79.8435 1067.42 75.9765C1067.11 75.6106 1066.73 75.3133 1066.29 75.1037C1066.26 75.0861 1066.23 75.0715 1066.19 75.0603C1066.1 75.1583 1066.03 75.268 1065.96 75.3864L1062.33 85.2465L1062.27 85.3801C1062.14 85.6285 1062.06 85.9006 1062.03 86.1807Z" fill="#231916"/>
<path d="M1063.18 73.2772C1063.05 72.812 1062.81 72.3875 1062.47 72.0469C1062.13 71.7063 1061.71 71.4618 1061.24 71.3384C1059.14 70.6152 1057.46 72.7822 1057.46 72.7822L1055.52 83.1248C1055.52 83.1248 1054.35 85.7461 1056.43 86.5204C1058.5 87.2946 1059.46 85.7746 1059.78 85.0548C1060.11 84.335 1063.18 73.2772 1063.18 73.2772Z" fill="#FCD13F"/>
<path d="M1061.52 85.8233C1060.43 88.2134 1058.19 89.1881 1055.75 88.279C1055.26 88.1111 1054.82 87.8431 1054.45 87.4923C1054.07 87.1414 1053.77 86.7157 1053.57 86.2427C1053.15 85.0431 1053.18 83.7294 1053.66 82.5511L1055.67 71.9338L1055.96 71.5649C1056.9 70.3684 1059.22 68.5825 1061.9 69.5081C1062.7 69.7408 1063.42 70.1858 1063.98 70.7955C1064.54 71.4052 1064.93 72.1567 1065.1 72.9697L1065.16 73.3749L1065.05 73.7771C1063.87 77.9275 1061.9 84.931 1061.52 85.8233ZM1057.08 84.716C1057.46 84.876 1057.7 84.9345 1058 84.281C1058.31 83.6276 1059.77 78.3254 1061.13 73.4461C1060.99 73.3121 1060.81 73.2138 1060.62 73.1589C1060.13 72.9853 1059.56 73.3887 1059.23 73.6896L1057.35 83.6979L1057.26 83.9063C1057.15 84.1629 1057.09 84.4376 1057.08 84.716Z" fill="#231916"/>
<path d="M1054.02 80.8606C1053.67 80.5345 1053.24 80.3088 1052.77 80.2068C1052.3 80.1048 1051.81 80.1303 1051.35 80.2806C1049.19 80.8158 1048.91 83.1548 1048.91 83.1548L1052.02 90.173C1052.02 90.173 1052.46 93.0081 1054.62 92.5485C1056.78 92.0889 1056.75 90.2996 1056.64 89.4961C1056.54 88.6927 1054.02 80.8606 1054.02 80.8606Z" fill="#FCD13F"/>
<path d="M1058.25 91.8893C1057.96 92.5378 1057.52 93.1057 1056.96 93.5438C1056.4 93.9818 1055.74 94.2768 1055.04 94.4032C1054.54 94.5238 1054.02 94.5392 1053.52 94.4483C1053.01 94.3574 1052.53 94.1623 1052.11 93.8753C1051.1 93.1061 1050.42 91.9968 1050.18 90.7568L1046.95 83.4464L1047 82.9221C1047.13 81.8697 1047.56 80.8786 1048.26 80.0763C1048.95 79.274 1049.87 78.6973 1050.89 78.4207C1051.68 78.182 1052.53 78.1639 1053.33 78.3682C1054.13 78.5725 1054.87 78.9916 1055.45 79.5805L1055.72 79.887L1055.85 80.27C1056.8 83.2565 1058.42 88.3799 1058.54 89.1955C1058.7 90.1031 1058.6 91.0361 1058.25 91.8893ZM1054.22 90.6535C1054.62 90.5646 1054.85 90.5064 1054.75 89.7809C1054.63 89.1843 1053.51 85.5439 1052.41 82.1103C1052.21 82.0806 1052.01 82.0928 1051.81 82.1459C1051.61 82.2031 1051.42 82.3094 1051.27 82.4557C1051.12 82.6019 1051 82.7835 1050.93 82.9844L1053.87 89.6328L1053.91 89.883C1053.96 90.1533 1054.06 90.4121 1054.21 90.6466L1054.22 90.6535Z" fill="#231916"/>
<path d="M1071.88 83.1486C1072.74 81.8076 1073.5 80.4075 1074.16 78.959C1074.07 78.3465 1073.84 77.7631 1073.49 77.2571C1073.13 76.7512 1072.66 76.3375 1072.11 76.0504C1069.84 74.6941 1068.91 77.2076 1068.91 77.2076C1068.91 77.2076 1065.7 83.7855 1064.95 85.4312C1064.2 87.077 1062.78 89.8771 1065.22 90.6015C1065.87 90.8126 1066.58 90.763 1067.19 90.4632C1067.81 90.1633 1068.28 89.6365 1068.52 88.9933L1073.18 80.8735" fill="#FCD13F"/>
<path d="M1076.11 79.3321L1075.93 79.7541C1075.24 81.2798 1074.44 82.7544 1073.54 84.1666L1070.26 89.8763C1069.83 90.9346 1069.01 91.7905 1067.98 92.2717C1066.94 92.7528 1065.76 92.8235 1064.68 92.4692C1064.15 92.3357 1063.67 92.0881 1063.25 91.7443C1062.84 91.4004 1062.5 90.9688 1062.27 90.4804C1061.42 88.6071 1062.39 86.4849 1063.09 84.9407L1063.21 84.6681C1063.93 83.0789 1066.81 77.1819 1067.16 76.4552C1067.39 75.8865 1067.73 75.3697 1068.16 74.9362C1068.59 74.5027 1069.11 74.1616 1069.68 73.9335C1070.25 73.7452 1070.85 73.6886 1071.45 73.7681C1072.04 73.8476 1072.61 74.061 1073.11 74.3923C1073.94 74.8393 1074.64 75.4802 1075.16 76.2594C1075.68 77.0387 1076 77.9329 1076.09 78.8643L1076.11 79.3321ZM1071.52 79.9883C1071.78 79.515 1071.99 79.0829 1072.15 78.7562C1071.93 78.3076 1071.58 77.9371 1071.15 77.6964C1071.07 77.6541 1071 77.6211 1070.92 77.5982C1070.83 77.6965 1070.75 77.808 1070.7 77.9287L1070.65 78.0356L1070.63 78.089C1070.6 78.1585 1067.42 84.654 1066.69 86.2593L1066.57 86.5425C1066.21 87.2602 1065.94 88.0208 1065.76 88.8064C1065.85 88.8478 1065.95 88.8687 1066.06 88.8677C1066.16 88.8666 1066.26 88.8437 1066.35 88.8003C1066.44 88.757 1066.52 88.6944 1066.58 88.6168C1066.65 88.5391 1066.7 88.4484 1066.72 88.3508L1066.79 88.1851L1066.84 88.0783L1071.49 79.9563L1071.52 79.9883Z" fill="#231916"/>
<path d="M1076.47 87.7093C1077.23 87.2352 1077.86 86.5738 1078.29 85.7886C1078.72 85.0034 1078.94 84.1207 1078.93 83.2251C1078.85 82.6122 1078.62 82.0285 1078.26 81.5223C1077.9 81.0162 1077.43 80.6021 1076.88 80.3142C1074.62 78.9655 1073.67 81.5057 1073.67 81.5057C1073.67 81.5057 1070.46 88.0761 1069.71 89.7295C1068.97 91.3829 1067.55 94.17 1069.98 94.8997C1070.63 95.1119 1071.34 95.0634 1071.95 94.7645C1072.57 94.4655 1073.04 93.9394 1073.28 93.2968L1078.93 83.2251" fill="#FCD13F"/>
<path d="M1080.3 86.0022C1079.77 87.2314 1078.92 88.2974 1077.84 89.0908L1075.02 94.1278C1074.59 95.187 1073.77 96.0439 1072.73 96.5252C1071.7 97.0065 1070.52 97.0764 1069.43 96.7208C1068.91 96.5862 1068.42 96.338 1068 95.9939C1067.59 95.6498 1067.25 95.2182 1067.02 94.7297C1066.18 92.8586 1067.14 90.7418 1067.85 89.1922L1067.96 88.9197C1068.68 87.3304 1071.56 81.4388 1071.92 80.7121C1072.14 80.1424 1072.48 79.6246 1072.91 79.1901C1073.35 78.7557 1073.86 78.4137 1074.43 78.185C1075 77.9966 1075.61 77.9404 1076.2 78.0208C1076.8 78.1013 1077.37 78.3161 1077.87 78.6491C1078.68 79.0971 1079.37 79.7328 1079.89 80.5032C1080.4 81.2737 1080.73 82.1564 1080.83 83.0777C1080.89 84.0811 1080.7 85.0827 1080.3 86.0022ZM1071.54 92.4474L1071.58 92.3512L1076.87 82.9551C1076.65 82.5343 1076.31 82.1871 1075.89 81.9563C1075.82 81.9141 1075.74 81.8811 1075.66 81.8581C1075.57 81.9572 1075.5 82.0685 1075.44 82.1887L1075.4 82.2955L1075.37 82.349C1075.35 82.4185 1072.16 88.914 1071.44 90.5193L1071.32 90.8078C1070.95 91.5226 1070.68 92.2818 1070.51 93.0664C1070.72 93.1555 1071.18 93.271 1071.47 92.6161L1071.54 92.4474Z" fill="#231916"/>
<path d="M472.04 240.718L472.093 239.219L472.011 239.216L471.928 239.222C415.341 243.468 358.494 239.481 302.24 227.318C285.81 223.749 269.244 219.248 255.642 206.163C242.037 193.076 232.073 168.977 235.557 146.181C238.334 128.23 247.566 116.934 259.29 109.772C271.077 102.57 285.439 99.521 298.408 98.2718L298.411 98.2716L562.947 72.3165L562.948 72.3164C586.623 69.9761 647.063 71.6031 707.921 74.5287C768.735 77.4522 829.761 81.6608 854.517 84.4488C919.558 91.8345 984.765 90.7657 1049.82 89.6993C1064.87 89.4527 1079.91 89.2062 1094.93 89.0644L1094.93 89.0644C1111.95 88.8945 1131.75 92.543 1147.45 102.291C1163.08 111.993 1174.69 127.756 1175.5 152.082C1176.28 175.567 1166.37 192.198 1152.22 203.593C1138 215.033 1119.47 221.212 1103.15 223.57C996.789 238.851 839.054 242.768 707.842 242.86C642.25 242.905 583.311 241.995 540.77 241.074C519.499 240.613 502.329 240.149 490.477 239.801C484.551 239.626 479.954 239.481 476.839 239.379C475.282 239.328 474.095 239.288 473.298 239.261C472.995 239.251 472.748 239.242 472.559 239.235L472.396 239.23L472.169 239.222L472.112 239.22L472.098 239.219C472.095 239.219 472.093 239.219 472.04 240.718Z" fill="white" stroke="black" stroke-width="3"/>
<path d="M425.28 128.289C424.24 126.649 422.12 124.169 420.36 122.289L416.8 124.369C418.44 126.369 420.6 129.129 421.56 130.849L425.28 128.289ZM429.36 142.449C429.08 145.929 428.28 148.809 425.52 150.569C426.36 151.169 427.36 152.529 427.8 153.329C426.4 152.609 425.24 151.529 424.36 149.929C425.12 147.729 425.68 145.249 426.04 142.449H429.36ZM439.2 137.169V136.609C439.88 137.369 440.6 138.289 440.96 138.809C442.24 137.089 443.32 135.009 444.24 132.649H446.52C446.32 134.889 446 136.929 445.56 138.849C445 138.009 444.44 137.209 443.92 136.449L441.28 139.249C442.2 140.569 443.2 142.009 444.16 143.449C442.92 146.409 441.16 148.809 438.76 150.609C439.04 149.409 439.2 147.729 439.36 145.209C439.4 144.729 439.44 143.889 439.44 143.889H432.96C433.04 143.409 433.08 142.969 433.12 142.449H440.48V139.289H435.68C435.36 138.609 435 137.849 434.52 137.169H439.2ZM430.48 132.409H435.76V134.289H430.48V132.409ZM430.48 127.809H435.76V129.689H430.48V127.809ZM435.44 147.049C435.28 149.049 435.08 149.929 434.8 150.289C434.56 150.569 434.32 150.609 433.92 150.569C433.52 150.609 432.88 150.569 431.96 150.489C432.4 151.329 432.76 152.609 432.8 153.529C434 153.609 435.2 153.569 435.92 153.489C436.76 153.369 437.44 153.129 438 152.449C438.24 152.169 438.44 151.849 438.6 151.289C439.44 152.049 440.64 153.369 441.04 154.049C443.4 152.209 445.16 150.049 446.56 147.409C447.84 149.529 448.88 151.529 449.64 153.089L452.52 149.969C451.56 148.049 450.08 145.529 448.44 143.009C449.4 139.969 450.08 136.529 450.52 132.649H452.4V128.649H445.48C445.96 126.769 446.36 124.889 446.68 122.889L442.8 122.289C442.16 126.689 441.04 131.049 439.2 134.209V124.969H434.88C435.32 124.169 435.72 123.329 436.12 122.489L431.32 122.049C431.2 122.889 430.96 123.929 430.68 124.969H427.2V137.169H431.28L430.24 137.569C430.6 138.089 430.96 138.689 431.28 139.289H425.96V141.849L424.12 141.089L423.44 141.209H420.96C422.92 138.489 425.2 134.729 426.6 132.529L423.72 131.369L423.32 131.529H415.8V135.329H420.48C419.2 137.449 417.68 139.689 417 140.409C416.28 141.169 415.68 141.529 415.04 141.689C415.48 142.529 416.28 144.529 416.52 145.489C416.88 145.169 418.04 144.889 419 144.889H421.52C420.4 150.249 418.24 154.209 415.04 156.569C416 157.169 417.52 158.769 418.16 159.689C419.96 158.289 421.48 156.409 422.72 153.929C425.8 158.129 430.44 158.929 437.8 158.929C442.48 158.929 447.52 158.809 451.68 158.569C451.92 157.249 452.52 155.129 453.2 154.169C448.68 154.609 442.16 154.849 437.88 154.849C433.64 154.809 430.32 154.609 427.8 153.329C430.32 151.809 431.6 149.649 432.36 147.049H435.44ZM473.72 128.769H466.76L469.92 127.689C469.48 126.289 468.56 124.049 467.76 122.369L463.76 123.529C464.44 125.169 465.28 127.249 465.64 128.769H459.56V132.529H473.72V128.769ZM472.6 139.689H460.6V143.289H472.6V139.689ZM468.52 149.089V153.689H464.64V149.089H468.52ZM472.64 145.329H460.6V159.009H464.64V157.409H472.64V145.329ZM460.64 137.849H472.64V134.249H460.64V137.849ZM479.96 150.489C480 149.849 480.04 149.209 480.08 148.569H490.32V150.489H479.96ZM490.32 143.609V145.489H480.08V143.609H490.32ZM494.72 140.129H475.8V147.249C475.8 150.369 475.56 154.129 473.2 156.929C474.12 157.449 475.88 159.089 476.56 159.929C478.08 158.169 479 155.889 479.48 153.569H490.32V155.249C490.32 155.689 490.16 155.849 489.64 155.849C489.16 155.849 487.48 155.849 486 155.809C486.52 156.849 487.08 158.449 487.24 159.569C489.76 159.609 491.64 159.529 492.96 158.929C494.36 158.329 494.72 157.289 494.72 155.289V140.129ZM487.4 135.089V133.329H495.32V130.169H487.4V128.569H496.12V125.169H487.4V122.249H482.8V125.169H474.52V128.569H482.8V130.169H475.52V133.329H482.8V135.089H473.92V138.489H496.64V135.089H487.4ZM534.32 129.489C533.88 130.609 533.44 131.649 533.04 132.489L537.08 133.329C538.08 131.529 539.28 128.609 540.24 126.089L536.84 125.369L536.16 125.489H523.64C523.92 124.769 524.2 124.049 524.44 123.329L520.08 122.249C518.96 125.689 516.84 129.089 514.32 131.209C515.36 131.889 517.04 133.409 517.8 134.209C519.12 132.929 520.4 131.329 521.52 129.489H534.32ZM531.4 135.289C533.16 137.689 535.16 140.969 536 143.089L540 140.929C539.08 138.849 537.08 135.769 535.2 133.449L531.4 135.289ZM527.48 150.529C526.48 148.569 524.16 145.849 522.16 143.969L518.52 146.009C520.48 148.049 522.68 150.929 523.56 152.809L527.48 150.529ZM520 133.529C518.96 135.969 517.04 138.529 515.04 140.129C516 140.809 517.76 142.169 518.56 142.969C520.64 140.969 522.96 137.809 524.28 134.769L520 133.529ZM530.32 130.529H525.8V145.449H530.32V130.529ZM508.8 145.609H513.36V128.729C514.6 127.049 515.64 125.289 516.56 123.489L512.36 122.089C510.24 126.249 506.68 130.369 503.08 132.969C503.96 133.849 505.4 135.849 505.96 136.809C506.88 136.009 507.84 135.129 508.8 134.169V145.609ZM507.92 158.009C509.2 155.489 510.56 151.729 511.48 148.889L507.24 147.129C506.4 150.009 504.88 153.529 503.44 155.889L507.92 158.009ZM519.68 154.569C517.36 154.569 516.96 154.449 516.96 153.169V147.289H512.12V153.289C512.12 157.569 513.6 158.889 519.28 158.889H527C531.52 158.889 532.88 157.529 533.48 151.929C532.2 151.689 530.16 150.969 529.12 150.249C528.92 154.049 528.56 154.569 526.64 154.569H519.68ZM531.8 147.929C533.56 150.929 535.24 154.849 535.76 157.329L540.28 155.529C539.68 152.929 537.8 149.169 535.96 146.289L531.8 147.929ZM547.64 137.969V143.129H584.44V137.969H547.64ZM622 128.489V135.009H615.96V128.489H622ZM623.04 151.569C626.84 151.569 628.08 149.929 628.6 144.689C627.32 144.409 625.48 143.649 624.44 142.889C624.28 146.529 623.96 147.329 622.64 147.329H617.8C616.16 147.329 615.96 147.049 615.96 145.289V139.249H626.64V124.289H611.36V145.289C611.36 150.289 612.68 151.569 617.08 151.569H623.04ZM604.16 146.649H609.84V142.529H604.16V138.209H610.2V134.089H603.28V130.329H609.2V126.249H603.28V122.329H598.84V126.249H592.88V130.329H598.84V134.089H591.8V138.209H599.8V150.649C598.76 149.489 597.96 148.009 597.32 146.049C597.4 144.369 597.48 142.649 597.52 140.889L593.16 140.569C593.08 147.409 592.68 154.049 590.72 158.089C591.76 158.529 593.84 159.569 594.68 160.129C595.56 158.169 596.16 155.809 596.56 153.129C599.68 157.609 604.44 158.569 611.88 158.569H627.32C627.6 157.169 628.4 154.969 629.12 153.889C625.52 154.049 614.92 154.049 611.88 154.009C608.8 154.009 606.28 153.849 604.16 153.249V146.649ZM645.48 129.409C645.52 127.249 645.52 125.049 645.52 122.809H640.84C640.84 125.089 640.84 127.289 640.8 129.409H636.12V134.049H640.76C640.48 143.409 639.4 151.049 634.92 156.129C636.12 156.849 637.68 158.449 638.4 159.609C643.56 153.689 644.96 144.729 645.36 134.049H649.4C649.16 147.409 648.84 152.369 648.08 153.449C647.68 154.009 647.32 154.169 646.72 154.169C645.96 154.169 644.52 154.129 642.92 154.009C643.76 155.369 644.2 157.449 644.28 158.769C646.16 158.849 647.96 158.849 649.12 158.609C650.44 158.329 651.28 157.929 652.2 156.569C653.44 154.729 653.72 148.609 654.08 131.569C654.12 130.969 654.12 129.409 654.12 129.409H645.48ZM660.92 151.409V131.369H666.08V151.409H660.92ZM656.32 126.809V158.769H660.92V156.009H666.08V158.489H670.84V126.809H656.32ZM687.24 124.489V129.329H696.36C696.48 130.689 696.64 132.129 696.92 133.649L694.48 133.209C692.28 143.729 687.52 151.449 679.2 155.649C680.44 156.569 682.68 158.529 683.56 159.529C690.52 155.369 695.32 148.729 698.32 139.769C700.52 146.929 704.76 154.489 713.04 159.489C713.88 158.249 715.84 156.169 716.88 155.329C702.16 146.649 701.08 132.049 701.08 124.489H687.24ZM741.32 132.129C740.48 130.529 739.52 128.729 738.56 127.289L735.04 129.209L735.4 129.809H732.16V122.289H727.8V129.809H723.48V134.209H727.8V140.889C725.96 141.489 724.32 142.049 722.96 142.489L724.16 146.969L727.8 145.609V154.569C727.8 155.089 727.6 155.249 727.12 155.249C726.64 155.289 725.28 155.289 723.84 155.209C724.4 156.489 724.92 158.449 725.04 159.609C727.64 159.649 729.36 159.489 730.56 158.729C731.76 157.969 732.16 156.769 732.16 154.569V143.929C733.48 143.449 734.8 142.969 736.08 142.449L735.2 138.249L732.16 139.369V134.209H735.48V129.969C736.88 132.369 738.32 135.409 738.96 137.409L741.32 135.969V140.049V141.249L741.24 141.089C738.48 142.969 735.64 144.849 733.76 145.969L736.2 149.969C737.64 148.849 739.28 147.569 740.84 146.289C740.08 150.249 738.12 153.609 733.4 156.129C734.4 156.849 736.04 158.449 736.76 159.449C744.64 155.089 745.68 148.089 745.68 140.089V122.689H741.32V132.129ZM753.68 154.969C752.84 154.969 752.72 154.689 752.72 152.849V143.769C754.8 145.809 756.88 148.129 758 149.729L761.04 146.369C759.56 144.449 756.48 141.489 753.88 139.329L752.72 140.449V135.969L755.28 137.409C756.76 135.289 758.56 131.929 760.2 128.969L755.96 126.809C755.24 129.089 753.92 132.049 752.72 134.369V122.689H748.24V152.809C748.24 157.809 749.24 159.209 752.84 159.209H756.32C759.44 159.209 760.56 157.089 761 151.649C759.76 151.369 758.04 150.569 757 149.769C756.88 153.809 756.72 154.969 755.92 154.969H753.68ZM804.36 129.529C803.76 127.649 801.96 124.889 800.4 122.809L796.8 124.689C798.32 126.809 799.92 129.769 800.56 131.609L804.36 129.529ZM784.32 128.849H782.2V126.249H784.32V128.849ZM787.88 123.289H778.84V131.849H787.88V123.289ZM773.88 128.849H771.8V126.249H773.88V128.849ZM777.36 123.289H768.4V131.849H777.36V123.289ZM772.72 142.209H776.04V144.369H772.72V142.209ZM772.72 136.849H776.04V138.929H772.72V136.849ZM783.44 138.929H780.04V136.849H783.44V138.929ZM783.44 144.369H780.04V142.209H783.44V144.369ZM788.56 154.009V149.849H780.28V147.849H787.52V133.369H768.8V147.849H775.76V149.849H767.24V154.009H775.76V159.609H780.28V154.009H788.56ZM800.24 137.449C799.48 139.889 798.4 142.329 797.08 144.609C796.76 142.449 796.44 140.009 796.2 137.369L804.88 136.289L804.4 131.929L795.88 132.969C795.68 129.689 795.52 126.129 795.48 122.489H791C791.08 126.409 791.24 130.089 791.44 133.489L787.96 133.929L788.44 138.329L791.76 137.929C792.16 142.449 792.72 146.409 793.48 149.649C791.16 152.289 788.44 154.489 785.44 155.889C786.68 156.769 788.08 158.129 788.88 159.209C791.04 157.969 793.08 156.329 794.96 154.409C796.32 157.689 798.16 159.529 800.56 159.649C802.28 159.689 804.32 158.129 805.32 151.169C804.56 150.729 802.64 149.529 801.88 148.489C801.68 152.089 801.24 153.969 800.6 153.969C799.76 153.889 799 152.609 798.32 150.369C800.68 147.049 802.6 143.289 803.84 139.449L800.24 137.449ZM838.68 145.049H835.68V139.969H838.68V145.049ZM821.92 139.969H824.64V145.049H821.92V139.969ZM831.72 139.969V145.049H828.6V139.969H831.72ZM847 139.969V135.729H843.08V132.129H838.68V135.729H835.68V132.129H831.72V135.729H828.6V132.129H824.64V135.729H821.92V132.129H817.68V135.729H813.4V139.969H817.68V145.049H812.2V149.289H847.88V145.049H843.08V139.969H847ZM846.76 130.649V126.449H821.6C822.32 125.329 822.96 124.249 823.48 123.129L819.36 121.769C817.52 125.489 814.36 129.009 811.08 131.249C811.92 132.129 813.28 134.209 813.8 135.089C815.4 133.889 816.96 132.329 818.48 130.649H846.76ZM816.48 159.769C817.96 157.569 819.8 154.089 820.92 151.289L816.32 150.089C815.2 152.809 813.28 156.009 811.84 157.889L816.48 159.769ZM823.08 151.689C823.56 154.169 823.84 157.449 823.84 159.369L828.52 158.689C828.48 156.769 828.04 153.609 827.52 151.209L823.08 151.689ZM831.2 151.609C832.12 154.089 833.04 157.289 833.28 159.209L838.04 158.289C837.68 156.289 836.68 153.209 835.68 150.889L831.2 151.609ZM839.32 151.529C840.96 154.129 842.88 157.609 843.68 159.689L848.36 157.649C847.4 155.489 845.36 152.169 843.68 149.769L839.32 151.529ZM890.56 127.889H876.52C876.72 126.129 876.84 124.329 876.96 122.369H871.88C871.8 124.369 871.72 126.169 871.52 127.889H857.44V159.609H862.2V132.529H870.52C869.4 135.809 867.16 138.369 862.8 140.209C863.84 141.009 865.12 142.649 865.64 143.769C869.4 142.129 871.88 140.009 873.56 137.409C876.56 139.329 879.88 141.769 881.64 143.449L884.88 139.809C882.8 137.969 878.6 135.249 875.36 133.409C875.44 133.129 875.52 132.849 875.6 132.529H885.84V154.169C885.84 154.849 885.64 155.009 885 155.049C884.44 155.049 882.84 155.049 881.16 154.969L884.48 151.849C882.56 149.929 878.68 147.009 875.76 145.009C876.24 143.649 876.56 142.249 876.84 140.889H871.92C871.12 144.889 869.64 149.209 862.84 151.729C863.84 152.569 865.08 154.209 865.6 155.329C869.56 153.649 872.08 151.489 873.76 149.049C876.24 151.009 879.04 153.289 880.6 154.969L880.2 154.929C880.84 156.249 881.48 158.329 881.64 159.689C884.8 159.689 887.08 159.609 888.56 158.809C890.12 158.049 890.56 156.689 890.56 154.289V127.889ZM917.2 128.849H908.8L911.4 127.409C910.76 125.929 909.56 123.729 908.48 122.089L904.76 123.809C905.64 125.329 906.72 127.329 907.36 128.849H900.36V132.609H917.2V128.849ZM915.52 138.009V134.409H902.12V138.009H915.52ZM915.48 139.769H902.12V143.369H915.48V139.769ZM911.48 149.089V153.569H906.28V149.089H911.48ZM915.6 145.289H902.28V159.089H906.28V157.409H915.6V145.289ZM936.4 135.529H929V122.969H924.04V135.529H917.04V140.209H924.04V159.609H929V140.209H936.4V135.529ZM943.88 158.529H980.2V155.409H943.88V158.529ZM971.16 148.169H964.04V146.769H971.16V148.169ZM971.16 151.849H964.04V150.369H971.16V151.849ZM953.08 150.369H959.68V151.849H953.08V150.369ZM953.08 146.769H959.68V148.169H953.08V146.769ZM948.4 144.489V154.129H976V144.489H948.4ZM964.16 131.009H971.2V132.449H964.16V131.009ZM964.16 127.129H971.2V128.449H964.16V127.129ZM964.16 140.249V138.849H977.52V136.329H964.16V134.929H975.96V131.009H979.96V128.449H975.96V124.609H964.16V122.249H959.36V124.609H948.2V127.129H959.36V128.449H944.04V131.009H959.36V132.449H948V134.929H959.36V136.329H946.76V138.849H959.36V140.249H943.92V143.169H980.24V140.249H964.16ZM1003.96 145.849H1008.04L1009.12 132.169L1009.32 126.209H1002.68L1002.88 132.169L1003.96 145.849ZM1006 156.489C1008 156.489 1009.52 155.049 1009.52 152.969C1009.52 150.849 1008 149.409 1006 149.409C1004 149.409 1002.48 150.849 1002.48 152.969C1002.48 155.049 1003.96 156.489 1006 156.489Z" fill="black"/>
<path d="M601.224 192.619C601.004 191.849 600.498 190.639 600.058 189.737L598.342 190.243C598.738 191.189 599.222 192.443 599.398 193.235L601.224 192.619ZM603.468 193.301H595.878V194.929H603.468V193.301ZM602.852 196.161H596.406V197.745H602.852V196.161ZM601.07 203.795V206.985H598.21V203.795H601.07ZM602.83 202.167H596.472V209.559H598.21V208.635H602.83V202.167ZM596.428 200.715H602.874V199.131H596.428V200.715ZM606.614 205.027C606.658 204.565 606.68 204.081 606.68 203.663H612.862V205.027H606.614ZM612.862 200.913V202.255H606.68V200.913H612.862ZM614.776 199.351H604.832V203.311C604.832 205.027 604.7 207.183 603.402 208.767C603.798 208.987 604.546 209.713 604.832 210.087C605.712 209.075 606.196 207.755 606.416 206.413H612.862V207.865C612.862 208.107 612.774 208.195 612.488 208.195C612.224 208.217 611.322 208.217 610.398 208.173C610.64 208.635 610.882 209.339 610.97 209.823C612.334 209.845 613.324 209.823 613.94 209.537C614.578 209.273 614.776 208.789 614.776 207.887V199.351ZM610.662 196.689V195.457H615.282V194.005H610.662V192.883H615.7V191.387H610.662V189.693H608.682V191.387H603.952V192.883H608.682V194.005H604.48V195.457H608.682V196.689H603.666V198.229H615.942V196.689H610.662ZM626.744 196.205C627.118 195.391 627.536 194.049 627.954 192.971L626.832 192.553C626.656 193.521 626.238 194.995 625.93 195.897L626.744 196.205ZM622.476 192.861C622.806 193.895 623.07 195.237 623.114 196.117L624.104 195.809C624.038 194.973 623.73 193.631 623.4 192.619L622.476 192.861ZM622.3 191.849H624.434V196.909H622.3V191.849ZM627.998 196.909H625.754V191.849H627.998V196.909ZM629.978 202.607H626.018V201.177H629.67V199.571H626.018V198.339H629.604V190.419H620.738V198.339H624.214V199.571H620.672V201.177H624.214V202.607H620.276V204.213H629.978V202.607ZM621.266 209.581C621.904 208.525 622.344 206.831 622.586 205.467L621.222 204.961C620.98 206.281 620.474 207.953 619.814 208.987L621.266 209.581ZM623.224 205.489C623.444 206.677 623.554 208.261 623.488 209.295L624.852 209.119C624.874 208.107 624.764 206.523 624.522 205.335L623.224 205.489ZM625.446 205.467C625.864 206.589 626.238 208.063 626.326 209.053L627.646 208.745C627.536 207.799 627.118 206.347 626.7 205.225L625.446 205.467ZM627.646 205.423C628.284 206.501 628.856 207.953 629.076 208.899L630.418 208.393C630.176 207.447 629.582 206.017 628.922 204.961L627.646 205.423ZM637.392 207.029H632.508V201.859H637.392V207.029ZM640.142 196.227V194.335H635.676V189.693H633.696V200.011H630.66V209.845H632.508V208.899H637.392V209.757H639.328V200.011H635.676V196.227H640.142ZM661.746 191.805V193.059H659.084V191.805H661.746ZM662.362 197.129C662.978 197.129 663.594 197.107 663.924 196.997C663.88 196.623 663.814 196.007 663.77 195.567C663.418 195.655 662.736 195.699 662.318 195.699H659.656C659.172 195.699 659.084 195.479 659.084 194.885V194.401H663.484V190.485H657.456V194.841C657.456 196.491 657.874 197.129 659.568 197.129H662.362ZM654.728 191.783V193.037H652.154V191.783H654.728ZM652.154 195.787V194.379H656.466V190.463H650.548V194.841C650.548 195.655 650.218 196.007 649.932 196.139C650.152 196.513 650.504 197.283 650.614 197.701C650.988 197.503 651.692 197.349 656.356 196.557C656.378 196.205 656.466 195.567 656.576 195.105L652.154 195.787ZM655.476 200.407H658.446V202.145H655.476V200.407ZM664.056 203.685V202.145H660.338V200.407H663.286V198.867H660.338V197.481H658.446V198.867H655.476V197.481H653.606V198.867H650.724V200.407H653.606V202.145H649.866V203.685H664.056ZM663.66 206.149C662.626 205.379 660.866 204.389 659.304 203.685L657.962 204.587C659.436 205.313 660.954 206.303 661.834 207.029L663.66 206.149ZM654.31 203.707C653.364 204.543 651.758 205.335 650.218 205.885C650.702 206.149 651.406 206.765 651.78 207.117C653.232 206.457 655.014 205.401 656.136 204.345L654.31 203.707ZM649.052 193.059C648.458 192.201 647.226 190.815 646.214 189.759L644.696 190.705C645.664 191.783 646.896 193.279 647.512 194.203L649.052 193.059ZM648.81 200.055L648.48 200.099H646.742C647.754 198.603 649.008 196.381 649.756 195.149L648.458 194.643L648.194 194.753H644.366V196.403H647.094C646.368 197.701 645.466 199.219 645.092 199.637C644.74 200.077 644.41 200.209 644.08 200.319C644.3 200.671 644.652 201.573 644.762 202.035C644.938 201.859 645.554 201.705 646.038 201.705H647.776C647.116 204.895 645.796 207.205 643.926 208.525C644.344 208.811 644.982 209.493 645.268 209.911C646.28 209.119 647.182 208.085 647.908 206.721C649.624 209.097 652.286 209.537 656.554 209.537C659.018 209.537 661.79 209.471 663.946 209.339C664.056 208.789 664.298 207.865 664.606 207.425C662.274 207.645 658.908 207.755 656.576 207.755C652.66 207.755 649.998 207.403 648.678 205.027C649.162 203.685 649.558 202.145 649.8 200.407L648.81 200.055ZM688.168 193.345V191.255H668.742V193.345H676.904V209.823H679.082V198.757C681.458 200.077 684.208 201.793 685.616 202.981L687.112 201.111C685.418 199.791 681.964 197.833 679.456 196.623L679.082 197.063V193.345H688.168ZM712.258 195.325V193.323H703.216L704.69 192.685C704.382 191.805 703.7 190.485 703.128 189.495L701.126 190.243C701.632 191.189 702.226 192.443 702.512 193.323H693.096V195.325H698.86C698.64 200.165 698.134 205.489 692.678 208.283C693.228 208.701 693.866 209.405 694.174 209.955C698.244 207.755 699.85 204.213 700.554 200.429H707.968C707.616 204.917 707.22 206.941 706.604 207.469C706.318 207.689 706.032 207.733 705.548 207.733C704.932 207.733 703.436 207.711 701.874 207.579C702.292 208.151 702.578 208.987 702.6 209.581C704.074 209.669 705.504 209.691 706.318 209.625C707.242 209.537 707.814 209.361 708.408 208.745C709.288 207.865 709.706 205.445 710.124 199.373C710.19 199.087 710.212 198.449 710.212 198.449H700.862C700.994 197.415 701.06 196.359 701.126 195.325H712.258ZM734.808 195.259C734.588 196.601 734.346 198.031 734.082 198.977L735.732 199.439C736.194 197.987 736.678 195.677 737.008 193.697L735.622 193.323L735.314 193.389H730.166C730.452 192.289 730.694 191.145 730.892 189.979L728.89 189.649C728.428 192.883 727.504 195.985 726.03 197.943C726.492 198.163 727.416 198.713 727.768 199.043C728.472 198.009 729.088 196.733 729.594 195.259H734.808ZM727.46 193.895C726.8 192.839 725.414 191.211 724.336 190.045L722.796 190.947C723.874 192.179 725.238 193.873 725.854 194.929L727.46 193.895ZM719.848 190.111C719.1 191.761 717.89 193.499 716.614 194.621C717.032 194.907 717.802 195.545 718.11 195.875C719.43 194.621 720.838 192.575 721.74 190.661L719.848 190.111ZM724.072 206.545H720.486V202.673H724.072V206.545ZM719.518 200.825C720.552 199.703 721.454 198.361 722.224 196.931C723.39 198.185 724.622 199.637 725.502 200.825H719.518ZM725.986 201.463L726.228 201.837L727.614 200.473C726.668 199.065 724.666 196.887 723.016 195.149C723.126 194.907 723.236 194.643 723.324 194.379L721.586 193.851C720.574 196.733 718.66 199.373 716.46 200.935C716.944 201.309 717.516 201.947 717.824 202.409C718.066 202.233 718.33 202.013 718.572 201.771V209.581H720.486V208.371H725.986V201.463ZM730.87 195.677C730.562 201.705 729.44 205.951 726.14 208.349C726.58 208.679 727.284 209.449 727.548 209.867C729.594 208.349 730.87 206.171 731.64 203.399C732.476 206.039 733.664 208.019 735.622 209.889C735.908 209.295 736.502 208.657 737.008 208.261C734.434 206.039 733.224 203.421 732.476 199.087C732.586 198.075 732.696 197.019 732.762 195.897L730.87 195.677ZM747.898 197.151C747.59 197.987 747.084 199.131 746.6 200.011H744.004L745.06 199.659C744.906 198.999 744.488 197.943 744.026 197.151H747.898ZM746.952 201.749H750.252V200.011H748.382C748.8 199.263 749.262 198.339 749.68 197.525L748.25 197.151H750.67V195.413H746.952V193.521H750.142V191.805H746.952V189.737H745.06V191.805H741.76V193.521H745.06V195.413H741.122V197.151H743.85L742.486 197.569C742.882 198.317 743.278 199.307 743.432 200.011H741.584V201.749H745.06V203.861H741.122V205.599H745.06V209.779H746.952V205.599H750.692V203.861H746.952V201.749ZM753.266 199.857C753.882 201.947 754.74 203.883 755.818 205.533C755.092 206.545 754.234 207.425 753.266 208.151V199.857ZM758.414 199.747C758.084 201.177 757.578 202.563 756.874 203.839C756.082 202.607 755.422 201.221 754.938 199.747H758.414ZM759.36 198.009L759.008 198.097H753.266V192.465H758.194V194.797C758.194 195.039 758.106 195.105 757.754 195.127C757.446 195.149 756.28 195.149 755.026 195.105C755.29 195.589 755.554 196.337 755.642 196.865C757.292 196.865 758.414 196.865 759.14 196.557C759.888 196.293 760.086 195.765 760.086 194.819V190.661H751.396V209.823H753.266V208.943C753.596 209.251 753.904 209.581 754.102 209.889C755.202 209.141 756.17 208.217 756.984 207.139C757.886 208.195 758.898 209.075 760.02 209.713C760.328 209.207 760.922 208.437 761.384 208.085C760.152 207.469 759.074 206.567 758.106 205.489C759.338 203.421 760.152 201.023 760.614 198.471L759.36 198.009ZM773.352 207.139V202.211H781.668V207.139H773.352ZM778.104 193.653C777.224 195.369 775.992 196.931 774.54 198.295C773.572 197.261 772.032 196.007 770.712 195.039C771.196 194.599 771.636 194.115 772.054 193.653H778.104ZM783.78 200.341H775.332C777.708 198.229 779.688 195.589 780.898 192.465L779.512 191.717L779.138 191.827H773.528C773.946 191.233 774.342 190.639 774.694 190.023L772.384 189.583C771.108 191.959 768.644 194.687 765.036 196.645C765.52 196.975 766.18 197.723 766.488 198.229C767.456 197.657 768.358 197.019 769.194 196.381C770.492 197.371 771.988 198.669 772.89 199.703C770.514 201.529 767.742 202.915 764.992 203.729C765.388 204.169 765.916 205.005 766.158 205.555C767.918 204.983 769.656 204.191 771.306 203.245V209.845H773.352V208.987H781.668V209.889H783.78V200.341ZM809.058 195.325V193.323H800.016L801.49 192.685C801.182 191.805 800.5 190.485 799.928 189.495L797.926 190.243C798.432 191.189 799.026 192.443 799.312 193.323H789.896V195.325H795.66C795.44 200.165 794.934 205.489 789.478 208.283C790.028 208.701 790.666 209.405 790.974 209.955C795.044 207.755 796.65 204.213 797.354 200.429H804.768C804.416 204.917 804.02 206.941 803.404 207.469C803.118 207.689 802.832 207.733 802.348 207.733C801.732 207.733 800.236 207.711 798.674 207.579C799.092 208.151 799.378 208.987 799.4 209.581C800.874 209.669 802.304 209.691 803.118 209.625C804.042 209.537 804.614 209.361 805.208 208.745C806.088 207.865 806.506 205.445 806.924 199.373C806.99 199.087 807.012 198.449 807.012 198.449H797.662C797.794 197.415 797.86 196.359 797.926 195.325H809.058ZM820.41 200.495H824.26V198.515H814.712V200.495H818.364V206.391C816.692 206.699 815.174 206.985 813.986 207.183L814.58 209.251C817.396 208.635 821.334 207.777 824.986 206.941L824.832 205.093C823.358 205.401 821.862 205.709 820.41 205.973V200.495ZM828.242 190.903C829.32 191.673 830.596 192.817 831.212 193.587L832.642 192.311C832.004 191.563 830.662 190.485 829.584 189.781L828.242 190.903ZM833.412 195.589V193.587H827.098C827.054 192.355 827.032 191.057 827.054 189.781H824.854C824.854 191.057 824.898 192.333 824.942 193.587H813.92V195.589H825.074C825.624 203.509 827.362 209.911 830.992 209.911C832.818 209.911 833.544 208.833 833.896 204.873C833.324 204.675 832.554 204.191 832.092 203.707C831.96 206.567 831.696 207.755 831.168 207.755C829.254 207.755 827.714 202.519 827.23 195.589H833.412Z" fill="#36563C"/>
<line x1="843.747" y1="210.835" x2="851.301" y2="191.404" stroke="#36563C" stroke-width="2" stroke-linecap="round"/>
<line x1="577.332" y1="191.606" x2="586.244" y2="210.452" stroke="#36563C" stroke-width="2" stroke-linecap="round"/>
<path d="M1290.58 60.0451C1290.65 64.2852 1287.87 68.3878 1288.68 72.5132C1289.31 75.6632 1291.87 78.0759 1292.89 81.1146C1293.82 83.9291 1293.33 87.0078 1292.59 89.8764C1290.68 96.9947 1287.28 103.626 1282.6 109.327C1277.92 115.027 1272.09 119.665 1265.48 122.929C1263.71 123.626 1262.07 124.592 1260.6 125.791C1258.32 127.984 1257.55 131.368 1255.4 133.686C1252.37 136.951 1247.36 137.334 1243.03 138.54C1237.01 140.239 1231.73 143.903 1228.03 148.947C1225.08 152.969 1222.97 158.004 1218.52 160.254C1215.12 161.976 1211.07 161.644 1207.37 162.58C1199.42 164.608 1193.35 172.407 1185.11 172.591C1178.3 172.731 1172.56 167.463 1165.88 166.009C1160.76 164.88 1154.12 165.351 1151.78 160.66C1150.06 157.189 1152.04 152.916 1151.05 149.173C1150.12 145.66 1146.63 142.74 1147.2 139.179C1147.77 135.618 1151.98 133.629 1152.93 130.137C1153.19 128.491 1153.24 126.82 1153.08 125.163C1153.19 118.627 1158.39 113.532 1163.24 109.186C1171.59 101.744 1180.15 94.1168 1190.54 89.975C1196.61 87.5265 1203.3 86.2973 1208.62 82.4725C1217.97 75.7455 1221.69 62.0472 1232.55 58.1831C1235.37 57.1506 1238.49 56.9426 1241.19 55.6132C1243.66 54.404 1245.61 52.3725 1247.74 50.6259C1253.3 46.1269 1260.16 43.527 1267.31 43.2076C1270.86 42.8917 1274.43 43.3026 1277.81 44.4151C1278.9 44.9007 1279.86 45.6349 1280.61 46.5588C1281.83 47.7427 1283.12 48.8532 1284.47 49.8841C1287.71 52.437 1290.53 55.8214 1290.58 60.0451Z" fill="#8CC457"/>
<path d="M1289.09 50.5939C1291.56 53.1171 1293.01 56.4605 1293.17 59.9883C1293.11 62.1401 1292.73 64.2711 1292.04 66.3099C1291.42 68.3384 1290.88 70.3006 1291.19 72.0282C1291.59 73.4291 1292.23 74.7515 1293.07 75.9398C1294 77.3011 1294.75 78.7719 1295.31 80.3188C1296.51 83.9173 1295.81 87.6745 1295.06 90.5348C1293.07 98.0173 1289.51 104.99 1284.6 110.985C1279.7 116.979 1273.57 121.856 1266.62 125.285L1265.96 125.609C1264.64 126.041 1263.44 126.764 1262.44 127.724C1261.44 128.685 1260.67 129.858 1260.18 131.157C1259.44 132.732 1258.48 134.198 1257.34 135.515C1254.44 138.637 1250.33 139.558 1246.71 140.38C1245.68 140.612 1244.71 140.824 1243.77 141.085C1238.3 142.615 1233.51 145.934 1230.15 150.511C1229.42 151.513 1228.74 152.581 1228.02 153.709C1225.86 157.117 1223.61 160.606 1219.71 162.597C1217.29 163.683 1214.68 164.32 1212.03 164.476C1210.68 164.595 1209.33 164.802 1208.01 165.095C1204.94 165.871 1202.09 167.686 1199.09 169.603C1194.89 172.283 1190.56 175.027 1185.19 175.154C1180.61 175.239 1176.65 173.321 1172.83 171.464C1170.49 170.193 1168 169.204 1165.42 168.518C1164.31 168.267 1163.07 168.095 1161.77 167.919C1157.18 167.298 1151.97 166.587 1149.59 161.799C1148.31 159.232 1148.53 156.53 1148.73 154.164C1148.94 152.713 1148.91 151.238 1148.64 149.797C1148.25 148.63 1147.7 147.521 1147.02 146.497C1145.73 144.321 1144.27 141.861 1144.72 138.788C1145.11 136.127 1146.8 134.285 1148.28 132.658C1149.25 131.756 1150.01 130.657 1150.53 129.436C1150.69 128.582 1150.72 127.708 1150.62 126.845C1150.6 126.263 1150.57 125.68 1150.57 125.116C1150.65 117.628 1156.31 111.979 1161.6 107.25C1169.64 100.088 1178.75 91.9669 1189.66 87.5563C1191.64 86.7666 1193.67 86.0973 1195.65 85.4484C1199.87 84.0717 1203.87 82.7525 1207.19 80.3677C1210.81 77.7643 1213.6 73.8667 1216.53 69.7803C1220.59 64.0955 1224.79 58.2064 1231.74 55.7211C1233.03 55.2828 1234.34 54.9197 1235.67 54.6338C1237.2 54.3474 1238.69 53.8873 1240.12 53.2622C1241.7 52.3813 1243.16 51.2984 1244.47 50.041C1245.02 49.5468 1245.58 49.0526 1246.12 48.5658C1252.12 43.722 1259.51 40.9193 1267.21 40.5666C1271.13 40.2021 1275.08 40.664 1278.81 41.9227C1280.26 42.5463 1281.54 43.5001 1282.56 44.7081C1283.34 45.5053 1284.18 46.2426 1285.07 46.914L1286.2 47.825C1287.23 48.6744 1288.2 49.5999 1289.09 50.5939ZM1154.82 160.33C1156.17 161.851 1158.83 162.324 1162.54 162.832C1163.88 163.017 1165.28 163.207 1166.61 163.502C1169.58 164.275 1172.45 165.396 1175.16 166.842C1178.58 168.503 1181.82 170.083 1185.16 170.022C1189.06 169.944 1192.62 167.675 1196.38 165.276C1199.6 163.23 1202.94 161.105 1206.81 160.116C1208.34 159.759 1209.9 159.501 1211.47 159.345C1213.52 159.233 1215.53 158.771 1217.42 157.98C1220.07 156.647 1221.82 153.868 1223.68 150.921C1224.42 149.771 1225.18 148.582 1225.97 147.403C1230.02 141.89 1235.8 137.891 1242.39 136.048C1243.44 135.747 1244.52 135.51 1245.56 135.279C1248.73 134.556 1251.74 133.879 1253.56 131.935C1254.36 130.932 1255.04 129.832 1255.57 128.66C1256.31 126.87 1257.42 125.253 1258.82 123.91C1260.22 122.566 1261.88 121.525 1263.7 120.852L1264.32 120.55C1270.6 117.449 1276.14 113.041 1280.58 107.623C1285.02 102.204 1288.24 95.9006 1290.04 89.1362C1290.61 86.9559 1291.16 84.1549 1290.38 81.8359C1289.93 80.6766 1289.35 79.5726 1288.65 78.5449C1287.46 76.8435 1286.6 74.9385 1286.09 72.9239C1285.51 70.0038 1286.3 67.24 1287.02 64.8093C1287.55 63.2562 1287.86 61.6365 1287.94 59.9977C1287.9 57.2577 1286.27 54.5679 1282.9 51.7724L1281.86 50.9211C1280.78 50.1031 1279.76 49.2036 1278.82 48.2306C1278.32 47.5961 1277.68 47.0826 1276.95 46.7279C1273.91 45.7317 1270.7 45.3787 1267.51 45.6911C1260.92 45.9825 1254.59 48.3757 1249.45 52.5203C1248.94 52.9777 1248.43 53.435 1247.91 53.8923C1244.95 56.9474 1241.08 58.9627 1236.88 59.6368C1235.74 59.8746 1234.62 60.1751 1233.52 60.537C1228.06 62.4397 1224.54 67.473 1220.77 72.7432C1217.7 76.9624 1214.6 81.3841 1210.23 84.5179C1206.26 87.3759 1201.71 88.8673 1197.3 90.3198C1195.32 90.9762 1193.44 91.5835 1191.64 92.2974C1181.55 96.3227 1173.19 103.804 1165.11 111.034C1160.42 115.209 1155.86 119.744 1155.8 125.122C1155.79 125.592 1155.82 126.057 1155.86 126.553C1156 127.963 1155.91 129.386 1155.59 130.766C1154.9 132.794 1153.73 134.623 1152.17 136.096C1151.05 137.334 1150.07 138.409 1149.95 139.555C1149.83 140.701 1150.6 142.236 1151.58 143.884C1152.51 145.316 1153.24 146.87 1153.75 148.502C1154.17 150.5 1154.25 152.555 1153.97 154.579C1153.8 156.538 1153.67 158.226 1154.3 159.501C1154.43 159.8 1154.61 160.079 1154.82 160.33Z" fill="#231916"/>
<path d="M1314.03 58.5735C1316.54 61.3054 1318.68 64.3515 1320.41 67.6357C1327.85 81.175 1331.97 97.6556 1344.65 106.502C1348.57 109.243 1353.25 111.156 1356.19 114.939C1359.48 119.103 1360.13 124.765 1363.02 129.267C1365.2 132.599 1368.51 135.031 1370.95 138.174C1372.85 140.615 1374.21 143.431 1374.94 146.436C1375.67 149.441 1375.75 152.568 1375.19 155.611C1374.23 160.679 1371.43 165.589 1372.21 170.685C1372.76 174.231 1374.94 177.25 1376.78 180.312C1384.05 192.452 1385.98 208.966 1377.59 220.368C1376.68 221.721 1375.49 222.865 1374.11 223.725C1371.58 225.166 1368.46 224.974 1365.57 224.676C1355.4 223.613 1344.14 225.258 1335.09 220.563C1326.03 215.868 1319.19 204.56 1315.87 194.903C1315.51 193.402 1314.78 192.014 1313.76 190.86C1312.48 189.682 1310.65 189.436 1308.96 189.011C1300.6 186.89 1294.72 179.347 1291.04 171.536C1289.48 168.216 1288.17 164.642 1288.34 160.964C1288.45 158.311 1289.34 155.757 1289.66 153.124C1289.95 150.309 1289.68 147.466 1288.85 144.761C1288.03 142.056 1286.68 139.542 1284.87 137.366C1282.64 134.611 1279.77 132.291 1278.3 129.069C1276.17 124.43 1277.38 118.976 1279.1 114.17C1280.82 109.364 1283.05 104.516 1282.83 99.4126C1282.63 94.5528 1280.25 90.0951 1278.91 85.4216C1276.69 77.1676 1277.7 68.3722 1281.75 60.8312C1283.68 57.0535 1286.33 53.6864 1289.55 50.9175C1290.07 50.3965 1290.69 49.9933 1291.38 49.7358C1292.07 49.4783 1292.8 49.3725 1293.53 49.4254C1295.65 49.5974 1297.75 49.934 1299.81 50.4322C1305.22 51.7477 1310.15 54.5703 1314.03 58.5735Z" fill="#8CC457"/>
<path d="M1316.68 57.6645C1318.99 60.3452 1320.99 63.2771 1322.65 66.4055C1324.78 70.2918 1326.66 74.4232 1328.47 78.4169C1333.17 88.694 1337.58 98.4677 1346.08 104.441C1347.22 105.235 1348.42 105.97 1349.69 106.733C1352.68 108.518 1355.8 110.421 1358.16 113.387C1360 115.933 1361.42 118.754 1362.37 121.746C1363.08 123.881 1364.02 125.933 1365.17 127.867C1366.38 129.558 1367.77 131.117 1369.31 132.519C1370.63 133.783 1371.87 135.126 1373.02 136.541C1375.14 139.271 1376.66 142.419 1377.47 145.78C1378.29 149.14 1378.39 152.636 1377.75 156.038C1377.37 157.874 1376.88 159.685 1376.28 161.462C1375.29 164.56 1374.37 167.473 1374.77 170.218C1375.14 172.656 1376.56 174.949 1378.06 177.379L1379 178.915C1386.19 190.942 1389.2 208.858 1379.68 221.812C1378.55 223.454 1377.08 224.843 1375.39 225.892C1372.19 227.703 1368.54 227.543 1365.3 227.155C1362.34 226.831 1359.35 226.779 1356.17 226.709C1348.59 226.53 1340.78 226.33 1333.93 222.812C1323.94 217.632 1316.83 205.438 1313.47 195.708L1313.32 195.252C1313.1 194.323 1312.68 193.454 1312.09 192.703C1311.26 192.159 1310.32 191.81 1309.34 191.684L1308.41 191.459C1298.34 188.911 1292.19 179.792 1288.79 172.593C1287.32 169.458 1285.64 165.267 1285.84 160.799C1285.96 159.127 1286.22 157.467 1286.62 155.838C1286.85 154.769 1287.07 153.761 1287.2 152.756C1287.67 147.767 1286.15 142.797 1282.96 138.936C1282.27 138.159 1281.56 137.358 1280.8 136.515C1278.88 134.649 1277.27 132.484 1276.04 130.102C1273.37 124.286 1275.17 117.697 1276.77 113.253C1277.05 112.453 1277.35 111.654 1277.62 110.877C1279.08 106.951 1280.48 103.248 1280.35 99.5465C1280.06 96.546 1279.3 93.6093 1278.12 90.837C1277.56 89.3306 1276.99 87.7525 1276.52 86.1494C1274.13 77.2566 1275.22 67.7793 1279.57 59.6481C1281.68 55.5883 1284.55 51.9736 1288.03 49.0035C1288.81 48.2619 1289.73 47.6917 1290.75 47.33C1291.76 46.9683 1292.83 46.8232 1293.9 46.9042C1296.15 47.0915 1298.38 47.454 1300.57 47.9883C1306.41 49.4569 1311.71 52.5265 1315.89 56.8512L1316.68 57.6645ZM1336.73 102.931C1331.01 96.5187 1327.35 88.4423 1323.77 80.5589C1322.01 76.6461 1320.17 72.6038 1318.13 68.8949C1316.52 65.8034 1314.51 62.9383 1312.16 60.3737C1308.64 56.756 1304.18 54.1937 1299.28 52.9754C1297.35 52.5003 1295.39 52.1818 1293.41 52.023C1292.79 51.9718 1292.32 52.0942 1291.28 52.9611C1288.31 55.499 1285.86 58.5864 1284.07 62.053C1280.34 69.0068 1279.39 77.1166 1281.43 84.7326C1281.83 86.1676 1282.35 87.5858 1282.9 89.0839C1284.3 92.3423 1285.18 95.8022 1285.5 99.336C1285.7 104.109 1284.06 108.488 1282.47 112.721C1282.18 113.497 1281.89 114.273 1281.6 115.072C1280.33 118.648 1278.82 123.921 1280.7 128.037C1281.72 129.91 1283.02 131.616 1284.56 133.096C1285.3 133.922 1286.14 134.872 1286.95 135.781C1288.98 138.221 1290.5 141.042 1291.42 144.078C1292.34 147.114 1292.64 150.304 1292.31 153.462C1292.15 154.685 1291.91 155.855 1291.67 157.003C1291.33 158.351 1291.11 159.724 1291 161.107C1290.85 164.441 1292.24 167.862 1293.43 170.503C1296.36 176.702 1301.5 184.556 1309.66 186.58L1310.48 186.783C1312.35 187.062 1314.11 187.84 1315.57 189.033C1316.82 190.346 1317.72 191.958 1318.17 193.715L1318.31 194.139C1321.33 202.908 1327.63 213.864 1336.28 218.347C1342.09 221.36 1349 221.524 1356.3 221.703C1359.45 221.771 1362.74 221.895 1365.84 222.181C1368.36 222.442 1370.98 222.613 1372.85 221.558C1373.91 220.872 1374.83 219.973 1375.53 218.917C1383.64 207.876 1380.89 192.273 1374.57 181.716L1373.68 180.245C1371.96 177.489 1370.18 174.658 1369.67 171.161C1369.11 167.207 1370.21 163.558 1371.32 160.036C1371.86 158.449 1372.31 156.832 1372.66 155.193C1373.16 152.513 1373.08 149.761 1372.44 147.115C1371.8 144.469 1370.6 141.99 1368.93 139.84C1367.9 138.591 1366.8 137.402 1365.63 136.279C1361.8 132.908 1359 128.527 1357.54 123.637C1356.76 121.151 1355.61 118.8 1354.12 116.665C1352.34 114.438 1349.77 112.88 1347.02 111.234C1345.73 110.446 1344.38 109.641 1343.13 108.77C1340.78 107.073 1338.64 105.109 1336.74 102.916L1336.73 102.931Z" fill="#231916"/>
<path d="M1334.77 198.422C1334.77 198.422 1303.39 131.834 1301.24 95.9844C1299.08 60.1351 1305.85 -7.26408 1305.85 -7.26408L1313.5 -7.01078C1313.5 -7.01078 1309.38 80.2928 1310.85 100.876C1314.05 145.728 1342.05 193.131 1334.77 198.422Z" fill="#8CC457"/>
<path d="M1316.19 -9.54145L1316.07 -6.94362C1316.02 -6.06786 1311.97 80.4472 1313.42 100.66C1315.14 124.639 1324.2 149.762 1330.8 168.095C1337.5 186.675 1341.19 196.91 1336.28 200.469L1333.76 202.295L1332.44 199.482C1331.15 196.75 1300.83 132.041 1298.71 96.1313C1296.62 60.4585 1303.25 -6.8466 1303.31 -7.52554L1303.57 -9.92765L1316.19 -9.54145ZM1329.87 180.979C1328.63 177.308 1327.23 173.431 1325.91 169.865C1319.19 151.244 1310 125.736 1308.23 101.049C1306.89 82.3012 1310.07 10.3761 1310.76 -4.53815L1308.14 -4.63197C1306.97 7.69769 1301.9 64.3664 1303.77 95.7985C1305.27 120.039 1320.53 159.094 1329.87 181.034L1329.87 180.979Z" fill="#231916"/>
<path d="M1178.22 142.037C1178.22 142.037 1241.19 103.713 1262.85 75.0345C1284.5 46.3561 1321.51 -11.1853 1321.51 -11.1853L1314.99 -15.1717C1314.99 -15.1717 1264.75 57.4825 1252.13 73.8385C1224.66 109.483 1175.07 133.612 1178.22 142.037Z" fill="#8CC457"/>
<path d="M1325.11 -12.0086L1323.68 -9.79896C1323.31 -9.21594 1286.35 48.1082 1264.91 76.5792C1243.24 105.375 1182.14 142.667 1179.56 144.239L1176.9 145.853L1175.8 142.951C1173.7 137.262 1182.42 130.782 1198.27 118.971C1213.94 107.307 1235.39 91.3338 1250.09 72.2793C1262.48 56.185 1312.4 -15.8596 1312.86 -16.6258L1314.25 -18.634L1325.11 -12.0086ZM1191.95 130.192C1211.88 117.043 1246.26 92.821 1260.83 73.4531C1279.75 48.3226 1310.93 0.453541 1317.95 -10.3985L1315.75 -11.7312C1307.55 0.112998 1265.54 60.6892 1254.21 75.3841C1239.04 95.032 1217.3 111.232 1201.39 123.07C1198.3 125.382 1194.98 127.845 1191.92 130.221L1191.95 130.192Z" fill="#231916"/>
<path d="M1271.17 44.3917C1271.19 48.7312 1269.71 52.9388 1268.13 56.9994C1264.62 66.0577 1259.37 75.8491 1250.03 78.3478C1241.41 80.6757 1231.11 76.1767 1223.87 81.4073C1218.2 85.5023 1216.76 94.2702 1210.35 97.1002C1205.16 99.4024 1199.15 96.7082 1193.5 97.5176C1183.75 98.9888 1177.64 110.685 1167.81 111.281C1163.89 111.522 1160.15 109.906 1156.57 108.322L1144.66 103.057C1142.32 102.006 1139.78 100.913 1137.25 101.57C1135.82 102.077 1134.44 102.732 1133.14 103.526C1128.92 105.609 1123.86 105.259 1119.4 103.798C1105.6 99.2972 1096.41 83.7526 1099.12 69.4789C1100.32 63.1766 1103.5 57.4101 1107.18 52.1585C1109.91 48.2417 1113.12 44.4306 1117.46 42.4089C1126.38 38.2701 1137.61 42.7828 1146.38 38.3215C1152.78 35.0675 1156.22 27.8177 1162.22 23.882C1165.93 21.4595 1170.4 20.4511 1174.79 21.0408C1178.77 21.5805 1182.45 23.4207 1186.31 24.542C1190.18 25.6634 1194.65 26.0107 1197.97 23.7354C1202.88 20.421 1203.82 12.5897 1209.37 10.4642C1216.31 7.74346 1222.78 16.3005 1230.23 16.5423C1237.67 16.7841 1244.73 8.06766 1251.94 10.7989C1254.25 11.8609 1256.2 13.5681 1257.55 15.7145C1260.34 19.5287 1262.52 23.7448 1264.03 28.2183C1264.62 29.9775 1264.89 31.8993 1266.17 33.3288C1267.43 34.5083 1268.54 35.8414 1269.47 37.2971C1270.6 39.4884 1271.18 41.9229 1271.17 44.3917Z" fill="#BFDDAF"/>
<path d="M1257.96 12.1524C1258.58 12.8465 1259.12 13.56 1259.6 14.2148C1262.54 18.2358 1264.84 22.6843 1266.43 27.4051C1266.59 27.8693 1266.72 28.3472 1266.86 28.8261C1267.05 29.8255 1267.45 30.7731 1268.03 31.607C1268.31 31.921 1268.59 32.2349 1268.86 32.5406C1269.96 33.5856 1270.89 34.7828 1271.65 36.0953C1273 38.6399 1273.7 41.4792 1273.7 44.3627C1273.72 49.2045 1272.13 53.7196 1270.49 57.9257C1267.19 66.3608 1261.56 77.9033 1250.62 80.8607C1246.66 81.9305 1242.56 81.7139 1238.6 81.5052C1233.57 81.2354 1228.81 80.9815 1225.3 83.5203C1223.16 85.0701 1221.64 87.5649 1220.04 90.2045C1217.83 93.8451 1215.56 97.6074 1211.3 99.4763C1207.63 101.096 1203.89 100.68 1200.27 100.279C1198.13 99.9433 1195.96 99.8836 1193.81 100.101C1189.8 100.713 1186.32 103.489 1182.64 106.442C1178.31 109.915 1173.79 113.527 1167.88 113.898C1163.26 114.177 1158.96 112.223 1155.45 110.714L1143.54 105.45C1141.33 104.454 1139.41 103.709 1137.79 104.112C1137.01 104.355 1136.26 104.7 1135.57 105.139C1135.12 105.396 1134.67 105.652 1134.2 105.877C1129.85 108.015 1124.28 108.163 1118.52 106.283C1103.42 101.355 1093.56 84.6503 1096.52 69.0414C1097.63 63.2048 1100.32 57.3794 1105 50.7092C1107.74 46.785 1111.24 42.4647 1116.32 40.0854C1121.4 37.7061 1126.55 37.8645 1131.69 37.9207C1136.84 37.977 1141.27 38.0246 1145.16 36.0406C1148.22 34.4723 1150.57 31.8201 1153.08 28.9891C1155.3 26.2376 1157.88 23.8003 1160.76 21.7442C1165 18.9883 1170.08 17.8379 1175.09 18.5009C1177.82 18.9638 1180.48 19.72 1183.04 20.756C1184.4 21.2489 1185.68 21.7134 1186.98 22.0933C1189.78 22.9033 1193.72 23.503 1196.48 21.6198C1198.22 20.4397 1199.47 18.314 1200.75 16.0955C1202.5 13.0565 1204.54 9.5946 1208.37 8.08625C1213.43 6.10533 1218.05 8.65069 1222.14 10.8909C1225 12.4256 1227.64 13.9091 1230.29 14.0121C1232.93 14.115 1235.91 12.6361 1238.93 11.0816C1243.08 8.95546 1247.78 6.54665 1252.82 8.43261C1254.81 9.23846 1256.57 10.5148 1257.96 12.1524ZM1264.19 35.045C1263.07 33.6529 1262.29 32.0149 1261.92 30.2642L1261.57 29.0912C1260.16 24.8575 1258.1 20.8654 1255.48 17.2524C1254.41 15.5269 1252.87 14.1379 1251.05 13.2433C1248.14 12.153 1244.98 13.7703 1241.31 15.649C1238 17.3521 1234.25 19.2733 1230.15 19.143C1226.3 19.0188 1222.96 17.1898 1219.72 15.4215C1216.17 13.4707 1213.12 11.7913 1210.31 12.8955C1208.12 13.7675 1206.8 16.0229 1205.27 18.6899C1203.75 21.3569 1202.14 24.059 1199.42 25.897C1195.92 28.2563 1191.13 28.6519 1185.59 27.0513C1184.13 26.623 1182.71 26.1109 1181.34 25.6097C1179.11 24.7067 1176.79 24.0389 1174.43 23.6174C1170.65 23.1232 1166.82 23.991 1163.63 26.0649C1161.14 27.8816 1158.91 30.0181 1156.98 32.4191C1154.26 35.4814 1151.45 38.6644 1147.55 40.6475C1142.52 43.2106 1137 43.1486 1131.68 43.09C1126.9 43.0385 1122.39 42.9948 1118.54 44.7772C1114.69 46.5597 1111.61 50.331 1109.29 53.6592C1105.04 59.7104 1102.62 64.8921 1101.66 69.9917C1099.2 82.9229 1107.66 97.2567 1120.2 101.38C1122.79 102.226 1127.77 103.332 1131.97 101.263C1132.35 101.073 1132.72 100.866 1133.09 100.652C1134.18 99.983 1135.36 99.4664 1136.59 99.1168C1140.06 98.254 1143.44 99.7563 1145.68 100.746L1157.59 106.01C1160.71 107.395 1164.25 108.969 1167.62 108.752C1171.87 108.522 1175.56 105.555 1179.45 102.433C1183.51 99.1875 1187.69 95.8315 1193.08 95.0152C1195.69 94.7284 1198.32 94.7852 1200.91 95.1844C1203.98 95.5311 1206.86 95.812 1209.28 94.796C1212.04 93.5714 1213.81 90.6592 1215.7 87.5895C1217.6 84.5197 1219.36 81.5442 1222.35 79.3837C1227.34 75.7831 1233.24 76.1017 1239 76.405C1242.73 76.6086 1246.24 76.7916 1249.4 75.9433C1258.09 73.5959 1262.92 63.4982 1265.8 56.1143C1267.27 52.3768 1268.68 48.3856 1268.66 44.4617C1268.67 42.4215 1268.18 40.4111 1267.23 38.6066C1266.69 37.7066 1266.03 36.885 1265.26 36.1649C1264.95 35.8179 1264.64 35.4626 1264.32 35.1073L1264.19 35.045Z" fill="#231916"/>
<path d="M1310.68 -3.32697C1310.68 -3.32697 1257.79 58.4763 1200.68 69.4934C1142.22 80.7792 1122.77 76.4367 1121.73 71.8353C1121.73 71.8353 1195.98 68.6701 1227.23 52.3895C1258.47 36.109 1306.93 -6.77924 1306.93 -6.77924L1310.68 -3.32697Z" fill="#8CC457"/>
<path d="M1314.25 -3.54L1312.63 -1.65463C1302.18 10.0616 1290.85 20.9571 1278.73 30.935C1259.92 46.4846 1231.2 66.2348 1201.16 72.0316C1151.95 81.5354 1121.32 81.6895 1119.21 72.415L1118.54 69.4031L1121.62 69.2641C1122.36 69.2276 1195.66 65.9303 1226.04 50.1105C1256.66 34.1708 1304.71 -8.25407 1305.23 -8.71138L1306.97 -10.2677L1314.25 -3.54ZM1133.47 73.7175C1135.64 73.9346 1138.27 74.0993 1141.54 74.0887C1155.55 74.1454 1175.83 71.6944 1200.18 66.9867C1250.2 57.3249 1297.71 7.18863 1307.02 -3.10252L1306.86 -3.276C1297.78 4.65816 1256.59 40.0356 1228.43 54.7569C1215.23 61.6108 1193.21 67.0621 1163.09 70.8539C1151.59 72.2341 1141.03 73.1496 1133.47 73.7175Z" fill="#231916"/>
<path d="M1323.13 43.8541C1325.69 42.7522 1328.13 41.1329 1330.89 40.7877C1337.33 39.9913 1342.21 46.0267 1346.66 50.7193C1347.83 52.0479 1349.2 53.1845 1350.72 54.0874C1353.08 55.3747 1355.85 55.6336 1358.47 56.2839C1362.52 57.1994 1366.2 59.3447 1368.99 62.4271C1370.36 63.9744 1371.37 65.8069 1371.95 67.793C1372.53 69.7791 1372.66 71.8695 1372.33 73.9139C1371.95 75.7433 1371.18 77.6139 1371.4 79.5331C1371.88 82.8396 1375.35 84.6756 1378.32 86.1934C1385.41 89.8355 1392.62 95.579 1393.17 103.55C1393.42 106.961 1392.43 110.56 1393.72 113.724C1395.32 117.675 1399.86 119.47 1402.78 122.578C1405.13 125.096 1406.38 128.423 1407.48 131.725C1409.35 137.472 1410.79 144.245 1407.48 149.369C1404.3 154.327 1397.83 155.953 1391.95 156.326C1381.09 157.005 1369.38 154.325 1362.03 146.306C1360.19 144.248 1358.58 141.89 1356.24 140.416C1352.98 138.418 1348.93 138.455 1345.22 137.523C1341.47 136.532 1338.07 134.525 1335.39 131.722C1332.72 128.919 1330.87 125.43 1330.05 121.64C1329.36 118.165 1329.46 114.302 1327.28 111.512C1324.39 107.857 1318.52 107.461 1315.97 103.582C1313.32 99.5405 1315.6 94.1079 1314.78 89.3386C1313.46 81.6224 1304.32 77.2911 1302.28 69.6914C1301.11 65.3653 1302.49 60.8066 1303.84 56.5451C1304.58 53.6637 1305.8 50.9286 1307.46 48.4579C1308.32 47.2729 1309.43 46.293 1310.71 45.5894C1311.99 44.8858 1313.41 44.4763 1314.87 44.3904C1316.08 44.3805 1317.23 44.9005 1318.45 44.9384C1320.07 44.9287 1321.67 44.5582 1323.13 43.8541Z" fill="#BFDDAF"/>
<path d="M1370.7 60.469L1370.93 60.717C1372.56 62.5553 1373.75 64.735 1374.43 67.0972C1375.11 69.4593 1375.25 71.9442 1374.85 74.3704C1374.72 74.975 1374.57 75.5704 1374.44 76.2145C1374.13 77.14 1373.99 78.1177 1374.04 79.0943C1374.28 81.03 1376.72 82.3687 1379.59 83.8416C1386.61 87.4324 1395.12 93.7205 1395.83 103.301C1395.91 104.63 1395.9 105.964 1395.8 107.292C1395.53 109.101 1395.66 110.946 1396.16 112.702C1396.92 114.549 1398.68 115.865 1400.74 117.402C1402.16 118.403 1403.5 119.532 1404.72 120.774C1407.49 123.716 1408.88 127.513 1410.01 130.888C1411.97 136.875 1413.71 144.529 1409.72 150.72C1406.62 155.565 1400.69 158.328 1392.23 158.899C1378.93 159.73 1367.28 155.783 1360.26 148.026C1359.74 147.439 1359.22 146.853 1358.7 146.266C1357.6 144.577 1356.09 143.189 1354.32 142.228C1352.55 141.267 1350.57 140.764 1348.55 140.764C1347.3 140.56 1346 140.353 1344.7 140.028C1340.48 138.925 1336.65 136.671 1333.63 133.516C1330.62 130.362 1328.55 126.431 1327.64 122.162C1327.44 121.17 1327.34 120.16 1327.18 119.234C1326.85 116.861 1326.55 114.624 1325.36 113.121C1324.06 111.789 1322.48 110.755 1320.74 110.09C1318.35 108.927 1315.61 107.665 1313.92 105.004C1311.81 101.801 1312.1 98.1221 1312.33 94.8876C1312.54 93.1967 1312.54 91.4872 1312.34 89.7964C1311.77 86.5084 1309.29 83.7553 1306.65 80.8442C1303.91 77.7705 1301.07 74.5811 1299.9 70.3801C1298.5 65.1935 1300.15 59.9682 1301.49 55.784C1302.3 52.6298 1303.66 49.6388 1305.49 46.9418C1306.58 45.4416 1308 44.2054 1309.63 43.3245C1311.26 42.4435 1313.07 41.9402 1314.93 41.8518C1315.76 41.8658 1316.59 41.9786 1317.39 42.1878C1317.79 42.2968 1318.2 42.3671 1318.6 42.3977C1319.84 42.3957 1321.06 42.1221 1322.18 41.5963C1322.88 41.2987 1323.57 40.9533 1324.27 40.6004C1326.25 39.4739 1328.41 38.7043 1330.66 38.3269C1337.81 37.4379 1343.13 43.1524 1347.39 47.7405L1348.58 49.0708C1349.57 50.2004 1350.72 51.1709 1352 51.9481C1353.55 52.6688 1355.18 53.1608 1356.87 53.4085C1357.64 53.5697 1358.4 53.7226 1359.15 53.9142C1363.57 54.896 1367.59 57.1788 1370.7 60.469ZM1370.95 84.1755C1369.84 82.9745 1369.11 81.4693 1368.86 79.8522C1368.71 78.1756 1368.9 76.4838 1369.45 74.8878C1369.57 74.3926 1369.7 73.9058 1369.8 73.4171C1370.05 71.746 1369.93 70.0405 1369.44 68.4232C1368.96 66.8059 1368.12 65.3168 1366.99 64.0631C1364.54 61.3884 1361.33 59.5305 1357.79 58.7404C1357.1 58.568 1356.44 58.46 1355.71 58.2933C1353.54 57.9339 1351.43 57.2539 1349.46 56.2756C1347.7 55.2455 1346.12 53.9459 1344.77 52.4242L1343.56 51.0691C1339.72 46.9445 1335.75 42.6871 1331.21 43.2458C1329.55 43.5794 1327.95 44.1804 1326.49 45.0255C1325.72 45.3978 1324.95 45.7857 1324.16 46.1176C1322.35 46.9482 1320.37 47.3667 1318.38 47.343C1317.64 47.3039 1316.91 47.1943 1316.2 47.0157C1315.78 46.901 1315.35 46.8267 1314.92 46.7939C1313.86 46.8786 1312.82 47.195 1311.89 47.721C1310.96 48.247 1310.16 48.9699 1309.54 49.8389C1308.07 52.0812 1306.98 54.5517 1306.33 57.1489C1304.89 61.6646 1303.87 65.3882 1304.86 68.8336C1305.68 71.8846 1308 74.4643 1310.47 77.1771C1313.45 80.5235 1316.58 83.9413 1317.44 88.7519C1317.73 90.8597 1317.75 92.9962 1317.49 95.1094C1317.28 97.8748 1317.1 100.273 1318.24 102.016C1319.18 103.443 1321.04 104.34 1323 105.291C1325.46 106.265 1327.66 107.797 1329.42 109.766C1331.48 112.378 1331.91 115.555 1332.29 118.37C1332.41 119.287 1332.53 120.157 1332.7 120.974C1333.43 124.284 1335.06 127.328 1337.4 129.779C1339.74 132.229 1342.7 133.991 1345.98 134.875C1347.04 135.14 1348.19 135.322 1349.38 135.516C1352.01 135.616 1354.58 136.325 1356.88 137.589C1359.18 138.852 1361.16 140.635 1362.66 142.795C1363.13 143.333 1363.61 143.861 1364.08 144.398C1370.05 150.942 1380.23 154.305 1391.95 153.572C1396.6 153.279 1402.73 152.042 1405.47 147.796C1408.21 143.55 1406.79 137.248 1405.19 132.348C1404.23 129.423 1403.11 126.378 1401.05 124.175C1400.03 123.157 1398.92 122.231 1397.74 121.406C1395.42 119.666 1392.78 117.688 1391.48 114.531C1390.65 112.082 1390.39 109.476 1390.72 106.91C1390.79 105.808 1390.8 104.703 1390.74 103.6C1390.25 96.3863 1383.12 91.3379 1377.27 88.3389C1374.94 87.3556 1372.8 85.953 1370.97 84.2003L1370.95 84.1755Z" fill="#231916"/>
<path d="M1372.75 127.52C1371.76 130.767 1314.72 83.2311 1313.77 35.8393C1312.82 -11.5524 1322.42 -2.1826 1322.42 -2.1826C1322.42 -2.1826 1315.53 40.4107 1331.39 69.2469C1350.83 104.562 1373.71 124.272 1372.75 127.52Z" fill="#8CC457"/>
<path d="M1325.18 -3.08509L1324.97 -1.77112C1324.9 -1.35154 1318.41 40.3073 1333.67 67.9876C1345.73 89.8534 1359.18 105.796 1367.23 115.314C1373.79 123.076 1376 125.688 1375.23 128.241C1375.03 128.901 1374.59 129.464 1374 129.827C1373.42 130.189 1372.72 130.325 1372.04 130.21C1365.59 129.342 1312.15 82.5679 1311.21 35.8826C1310.55 2.30659 1315.11 -3.58526 1318.6 -5.10573C1319.54 -5.49535 1320.58 -5.60213 1321.58 -5.41299C1322.58 -5.22384 1323.51 -4.74688 1324.24 -4.04054L1325.18 -3.08509ZM1359.77 114.506C1348.15 100.866 1337.89 86.1225 1329.14 70.4844C1320.69 55.1388 1318.62 36.0674 1318.38 22.7795C1318.25 15.6514 1318.57 8.52115 1319.35 1.43252C1317.96 4.56278 1315.9 13.0753 1316.35 35.7815C1316.98 67.2687 1343.15 98.619 1359.77 114.506Z" fill="#231916"/>
<path d="M173.599 35.4721C175.938 38.394 176.223 42.7563 179.019 45.1956C181.158 47.0552 184.253 47.3502 186.605 48.9207C188.779 50.3787 190.099 52.7933 191.135 55.1948C193.656 61.191 194.868 67.6584 194.69 74.1638C194.512 80.6691 192.949 87.0622 190.104 92.9147C189.252 94.3544 188.627 95.9173 188.251 97.5479C187.849 100.31 189.142 103.088 188.895 105.868C188.546 109.785 185.263 112.759 182.894 115.943C179.614 120.386 177.912 125.798 178.057 131.32C178.175 135.721 179.429 140.373 177.539 144.352C176.102 147.39 173.095 149.351 171.024 152.002C166.577 157.717 166.559 166.443 160.91 171.029C156.235 174.811 149.387 174.238 143.937 176.841C139.755 178.822 135.382 182.74 131.214 180.733C128.132 179.246 127.204 175.192 124.489 173.116C121.939 171.17 117.922 171.023 116.393 168.231C114.864 165.44 116.726 161.774 115.505 158.82C114.792 157.535 113.921 156.344 112.913 155.275C109.458 150.653 110.331 144.285 111.358 138.634C113.158 128.925 115.002 118.975 120.007 110.467C122.92 105.473 126.918 100.999 128.563 95.4515C131.442 85.7039 126.633 74.1327 132.115 65.5642C133.525 63.3174 135.583 61.4893 136.752 59.0982C137.821 56.9177 138.08 54.4476 138.619 52.079C140.068 45.9298 143.445 40.4061 148.256 36.3183C150.561 34.1782 153.277 32.5311 156.237 31.4776C157.26 31.2272 158.326 31.2204 159.351 31.4575C160.84 31.6247 162.339 31.7031 163.838 31.6921C167.479 31.72 171.279 32.5537 173.599 35.4721Z" fill="#8FBE80"/>
<path d="M167.449 29.6841C170.535 30.1095 173.356 31.6562 175.376 34.03C176.498 35.5636 177.383 37.2577 178.002 39.0553C178.672 40.8018 179.357 42.4616 180.506 43.5007C181.545 44.26 182.704 44.8382 183.935 45.2111C185.316 45.6605 186.636 46.2796 187.865 47.0543C190.65 48.9142 192.19 51.9168 193.215 54.3165C195.878 60.6095 197.163 67.4018 196.985 74.2362C196.806 81.0705 195.168 87.7881 192.18 93.9367L191.893 94.5204C191.207 95.5344 190.759 96.6898 190.581 97.9009C190.403 99.1121 190.5 100.348 190.864 101.516C191.195 103.018 191.321 104.558 191.238 106.094C190.9 109.843 188.531 112.709 186.453 115.239C185.863 115.956 185.301 116.628 184.786 117.319C181.801 121.343 180.251 126.254 180.383 131.263C180.419 132.355 180.52 133.469 180.63 134.643C180.967 138.189 181.283 141.841 179.641 145.339C178.536 147.409 177.065 149.261 175.3 150.805C174.421 151.619 173.596 152.49 172.83 153.412C171.111 155.612 170.103 158.421 169.048 161.38C167.564 165.524 166.031 169.779 162.356 172.77C159.203 175.311 155.409 176.111 151.738 176.883C149.416 177.264 147.147 177.92 144.978 178.835C144.065 179.263 143.108 179.812 142.107 180.393C138.567 182.444 134.55 184.765 130.301 182.713C128.021 181.614 126.713 179.61 125.568 177.855C124.93 176.729 124.11 175.716 123.143 174.857C122.238 174.256 121.258 173.776 120.228 173.431C118.155 172.609 115.803 171.685 114.457 169.296C113.291 167.229 113.469 165.032 113.619 163.099C113.808 161.945 113.749 160.763 113.447 159.634C113.096 158.951 112.646 158.325 112.113 157.774C111.778 157.383 111.443 156.993 111.138 156.598C107.147 151.329 108.038 144.328 109.17 138.168C110.902 128.825 112.865 118.231 118.086 109.255C119.042 107.631 120.098 106.065 121.125 104.544C123.326 101.299 125.397 98.219 126.426 94.757C127.543 90.9828 127.383 86.753 127.211 82.3219C126.973 76.1566 126.715 69.7787 130.216 64.2868C130.878 63.284 131.597 62.3206 132.371 61.4015C133.283 60.3738 134.076 59.2452 134.733 58.0374C135.36 56.5671 135.793 55.0214 136.022 53.4392C136.142 52.7945 136.261 52.1499 136.379 51.5148C137.944 44.8902 141.582 38.9386 146.76 34.5284C149.299 32.1527 152.306 30.3367 155.587 29.1974C156.935 28.8488 158.346 28.8204 159.706 29.1147C160.683 29.2478 161.668 29.3073 162.653 29.2929L163.93 29.3205C165.11 29.3538 166.287 29.4753 167.449 29.6841ZM133.151 178.862C134.918 179.19 137.031 178.079 139.891 176.429C140.925 175.834 142.004 175.208 143.093 174.694C145.583 173.626 148.19 172.856 150.86 172.401C154.148 171.707 157.259 171.059 159.56 169.206C162.235 167.045 163.492 163.535 164.815 159.829C165.959 156.657 167.134 153.372 169.3 150.588C170.177 149.509 171.123 148.487 172.132 147.53C173.5 146.344 174.655 144.932 175.548 143.356C176.671 140.996 176.392 138.108 176.095 135.047C175.99 133.843 175.872 132.607 175.785 131.357C175.629 125.32 177.498 119.404 181.095 114.555C181.667 113.775 182.293 113.025 182.894 112.301C184.717 110.08 186.447 107.983 186.662 105.644C186.682 104.508 186.558 103.375 186.293 102.271C185.846 100.619 185.743 98.8923 185.992 97.1985C186.241 95.5047 186.837 93.8803 187.74 92.427L188.011 91.8799C190.713 86.3208 192.195 80.2474 192.359 74.0681C192.522 67.8887 191.363 61.7468 188.958 56.0555C188.174 54.2281 187.042 51.9778 185.247 50.7792C184.306 50.2139 183.304 49.7577 182.26 49.4194C180.511 48.8757 178.875 48.016 177.435 46.8828C175.449 45.161 174.505 42.8063 173.689 40.7241C173.219 39.3531 172.56 38.055 171.731 36.8677C170.224 34.9759 167.625 33.9866 163.764 33.8582L162.578 33.8274C161.383 33.8407 160.188 33.7623 159.005 33.5931C158.31 33.4233 157.586 33.4115 156.885 33.5584C154.228 34.5066 151.796 35.9981 149.745 37.9381C145.305 41.707 142.185 46.8 140.841 52.4713C140.731 53.0679 140.62 53.6645 140.51 54.2611C140.095 57.9957 138.484 61.4961 135.918 64.2389C135.256 65.0183 134.637 65.8339 134.064 66.682C131.284 70.9639 131.552 76.3783 131.774 82.0928C131.914 86.6971 132.145 91.4576 130.795 96.0048C129.57 100.147 127.202 103.65 124.913 107.047C123.884 108.578 122.902 110.019 122.033 111.49C117.173 119.756 115.387 129.497 113.662 138.911C112.652 144.358 111.927 149.986 114.792 153.772C115.038 154.106 115.308 154.415 115.606 154.739C116.467 155.645 117.173 156.688 117.697 157.824C118.313 159.61 118.484 161.521 118.195 163.39C118.081 164.862 117.984 166.138 118.519 167.003C119.054 167.869 120.423 168.521 121.997 169.141C123.422 169.635 124.772 170.324 126.009 171.188C127.384 172.353 128.547 173.747 129.448 175.309C130.389 176.768 131.211 178.015 132.342 178.563C132.597 178.699 132.869 178.799 133.151 178.862Z" fill="#231916"/>
<path d="M189.155 21.7638C192.384 22.3115 195.528 23.2756 198.509 24.6323C211.026 30.048 222.81 39.3188 236.439 38.6303C240.661 38.4176 244.956 37.2232 249.054 38.2713C253.605 39.3936 257.121 42.9914 261.567 44.5719C264.891 45.7158 268.515 45.6211 271.921 46.4912C274.564 47.1682 277.034 48.3976 279.169 50.0987C281.304 51.7997 283.056 53.9341 284.308 56.3616C286.378 60.4179 287.082 65.3558 290.387 68.4864C292.685 70.6642 295.842 71.5878 298.78 72.7295C310.418 77.2655 320.696 87.7403 321.014 100.23C321.111 101.667 320.901 103.107 320.4 104.456C319.413 106.831 317.139 108.38 314.959 109.738C307.292 114.498 300.327 121.736 291.472 123.359C282.617 124.983 271.729 120.795 264.19 115.854C263.124 115.005 261.866 114.43 260.526 114.18C259.001 114.046 257.587 114.869 256.181 115.484C249.199 118.529 241.021 116.446 234.231 112.988C231.344 111.517 228.495 109.735 226.623 107.079C225.269 105.166 224.505 102.904 223.309 100.891C221.986 98.7724 220.256 96.9387 218.219 95.4966C216.182 94.0545 213.879 93.0328 211.444 92.491C208.397 91.7769 205.14 91.7107 202.369 90.2614C198.374 88.1772 196.27 83.7164 194.868 79.4355C193.466 75.1546 192.398 70.5675 189.49 67.1221C186.72 63.8418 182.646 62.0217 179.182 59.4884C173.169 54.932 169.12 48.2471 167.863 40.7987C167.167 37.1182 167.193 33.3369 167.939 29.6654C168.019 29.0217 168.237 28.4026 168.577 27.8508C168.918 27.2989 169.374 26.8273 169.913 26.4681C171.481 25.4444 173.126 24.5447 174.833 23.7771C179.322 21.7649 184.288 21.0668 189.155 21.7638Z" fill="#8FBE80"/>
<path d="M190.511 19.6964C193.575 20.3149 196.56 21.2754 199.409 22.5599C202.995 24.1203 206.544 25.9825 209.964 27.791C218.804 32.4154 227.161 36.851 236.322 36.4191C237.546 36.3573 238.784 36.2184 240.084 36.0614C243.133 35.691 246.34 35.3299 249.591 36.1216C252.249 36.9037 254.766 38.1027 257.049 39.674C258.699 40.7791 260.463 41.7033 262.311 42.4307C264.073 42.9527 265.886 43.2887 267.718 43.4331C269.32 43.6032 270.909 43.8712 272.478 44.2357C275.433 44.9922 278.196 46.3668 280.583 48.2691C282.97 50.1714 284.928 52.5583 286.328 55.273C287.053 56.761 287.689 58.2913 288.23 59.8557C289.222 62.5476 290.153 65.0792 291.915 66.7792C293.495 68.2764 295.725 69.1078 298.085 69.9931L299.57 70.557C311.096 75.0524 322.88 85.9256 323.252 100.108C323.349 101.867 323.08 103.627 322.463 105.277C321.212 108.27 318.582 110.131 316.112 111.614C313.87 112.99 311.759 114.569 309.502 116.241C304.115 120.219 298.559 124.305 291.879 125.555C282.108 127.347 270.553 122.687 262.951 117.715L262.597 117.48C261.939 116.952 261.176 116.573 260.359 116.368C259.488 116.436 258.643 116.701 257.89 117.145L257.121 117.49C248.721 121.158 239.497 118.125 233.232 114.943C230.509 113.552 227.067 111.541 224.794 108.313C223.971 107.083 223.254 105.785 222.652 104.432C222.238 103.559 221.843 102.74 221.39 101.969C219.023 98.2317 215.271 95.589 210.959 94.6207C210.056 94.4534 209.124 94.2807 208.145 94.0991C205.793 93.8385 203.5 93.1982 201.353 92.2031C196.343 89.5924 194.037 84.0194 192.745 80.0574C192.509 79.3468 192.285 78.6284 192.055 77.9389C190.951 74.4099 189.92 71.0736 187.833 68.5569C186.001 66.6261 183.886 64.9857 181.561 63.6919C180.359 62.9415 179.105 62.1517 177.915 61.2841C171.433 56.377 167.065 49.1783 165.7 41.1544C164.976 37.1808 165.027 33.1039 165.849 29.1487C165.989 28.2114 166.325 27.314 166.834 26.515C167.344 25.716 168.015 25.0333 168.805 24.5111C170.474 23.4258 172.225 22.4725 174.043 21.6601C178.908 19.5275 184.27 18.7978 189.525 19.5533L190.511 19.6964ZM228.983 40.4234C221.529 39.0418 214.606 35.3896 207.845 31.8272C204.498 30.0523 201.031 28.2253 197.6 26.7433C194.807 25.4565 191.856 24.5448 188.824 24.0316C184.414 23.4105 179.918 24.0352 175.842 25.8354C174.241 26.5464 172.7 27.3858 171.234 28.3454C170.77 28.6476 170.509 28.9873 170.253 30.1541C169.556 33.5291 169.519 37.0068 170.143 40.3952C171.3 47.265 175.028 53.4332 180.566 57.645C181.623 58.4282 182.754 59.1354 183.946 59.884C186.686 61.3988 189.17 63.3372 191.307 65.6277C194.028 68.8492 195.255 72.7891 196.436 76.601C196.654 77.2984 196.873 77.9958 197.097 78.7143C198.147 81.8947 199.947 86.3887 203.488 88.2395C205.213 88.9947 207.042 89.4816 208.914 89.6832C209.874 89.8612 210.979 90.066 212.035 90.2618C214.768 90.8677 217.353 92.0142 219.637 93.634C221.922 95.2538 223.86 97.3144 225.338 99.6948C225.89 100.633 226.349 101.584 226.803 102.514C227.299 103.635 227.887 104.712 228.56 105.736C230.26 108.142 233.077 109.778 235.339 110.974C240.732 113.715 248.568 116.412 255.353 113.41L256.035 113.108C257.491 112.292 259.138 111.882 260.805 111.922C262.388 112.162 263.884 112.802 265.15 113.783L265.477 114.003C272.325 118.487 282.648 122.719 291.102 121.171C296.79 120.125 301.693 116.506 306.883 112.68C309.117 111.024 311.478 109.332 313.799 107.851C315.697 106.67 317.616 105.374 318.347 103.628C318.719 102.573 318.87 101.452 318.788 100.336C318.476 88.2446 308.117 78.8496 297.999 74.9039L296.579 74.3621C293.893 73.3665 291.12 72.3548 288.867 70.1955C286.342 67.7369 285.136 64.597 284.004 61.5406C283.524 60.1405 282.962 58.7701 282.32 57.4364C281.216 55.2997 279.674 53.421 277.794 51.9234C275.915 50.4258 273.74 49.3431 271.413 48.7461C270.017 48.4337 268.603 48.2016 267.18 48.0511C262.686 47.7701 258.362 46.2306 254.701 43.6079C252.814 42.2948 250.737 41.2789 248.543 40.5953C246.1 40.003 243.46 40.3099 240.655 40.6461C239.326 40.7977 237.954 40.9615 236.61 41.0309C234.053 41.1191 231.495 40.9088 228.987 40.4041L228.983 40.4234Z" fill="#231916"/>
<path d="M279.27 108.089C279.27 108.089 221.368 78.6149 200.472 54.7759C179.576 30.9369 147.837 -19.7349 147.837 -19.7349L153.311 -23.6968C153.311 -23.6968 197.664 39.4255 209.825 52.9862C236.318 82.5406 281.489 100.459 279.27 108.089Z" fill="#6C9373"/>
<path d="M153.818 -26.917L155.139 -25.0398C155.577 -24.4012 199.553 38.1334 211.501 51.4458C225.672 67.2403 245.576 79.8676 260.102 89.0794C274.824 98.4171 282.931 103.563 281.432 108.699L280.665 111.334L278.224 110.085C275.845 108.878 219.693 80.146 198.788 56.2456C178.036 32.4928 146.251 -18.0382 145.928 -18.5459L144.803 -20.3569L153.818 -26.917ZM266.42 98.5712C263.571 96.6796 260.494 94.7357 257.643 92.9632C242.885 83.6088 222.679 70.7863 208.088 54.5257C197.016 42.1718 160.326 -9.71607 152.736 -20.4888L150.856 -19.1354C156.716 -9.90765 183.832 32.3628 202.141 53.2739C216.295 69.3739 248.065 88.361 266.453 98.6072L266.42 98.5712Z" fill="#231916"/>
<path d="M139.582 153.44C139.582 153.44 162.773 92.6463 162.363 60.9297C161.953 29.2131 156.641 -30.9422 156.641 -30.9422L149.935 -30.1946C149.935 -30.1946 154.192 47.6606 154.24 65.8935C154.358 105.618 132.824 149.271 139.582 153.44Z" fill="#6C9373"/>
<path d="M158.708 -33.4653L158.905 -31.1495C158.961 -30.5419 164.187 29.438 164.635 60.893C165.098 92.6991 142.655 151.761 141.707 154.252L140.724 156.817L138.386 155.388C133.844 152.556 136.421 143.319 141.087 126.508C145.706 109.896 152.028 87.1512 151.972 65.9109C151.907 47.9835 147.758 -29.2744 147.665 -30.0581L147.547 -32.2099L158.708 -33.4653ZM142.748 137.754C149.536 117.802 160.417 82.3064 160.1 60.9183C159.702 33.1553 155.556 -17.0996 154.583 -28.4671L152.329 -28.2081C153.016 -15.5102 156.48 49.4681 156.523 65.8489C156.576 87.7553 150.175 110.814 145.479 127.68C144.572 130.966 143.594 134.477 142.741 137.792L142.748 137.754Z" fill="#231916"/>
<path d="M151.59 35.0556C153.952 38.0712 155.197 41.8055 156.292 45.492C158.743 53.7096 160.379 63.3785 155.214 70.1747C150.463 76.4601 140.841 78.8966 138.625 86.4581C136.88 92.3853 140.62 99.2792 137.684 104.717C135.306 109.133 129.657 110.504 126.154 114.125C120.148 120.427 122.216 131.888 115.679 137.623C113.079 139.908 109.595 140.805 106.241 141.637L95.0875 144.406C92.8818 144.943 90.5238 145.551 89.1119 147.379C88.3859 148.508 87.7802 149.71 87.3046 150.966C85.4897 154.7 81.7685 157.196 77.8635 158.592C65.8056 162.916 50.9878 157.044 45.157 145.622C42.585 140.577 41.6821 134.836 41.4088 129.181C41.1956 124.971 41.3746 120.576 43.3023 116.822C47.2851 109.11 57.5649 106.179 61.266 98.325C63.9674 92.5952 62.4485 85.675 64.5025 79.6858C65.7844 75.9855 68.3508 72.8689 71.7337 70.904C74.8056 69.1245 78.3638 68.4205 81.6664 67.1118C84.969 65.803 88.273 63.6286 89.357 60.2464C90.9939 55.2747 87.411 49.3056 90.1295 44.8231C93.5026 39.1679 102.642 41.6385 107.967 37.7785C113.293 33.9185 113.497 24.0233 120.008 22.0251C122.191 21.5179 124.474 21.6543 126.582 22.4176C130.585 23.5732 134.39 25.3322 137.865 27.6343C139.226 28.5436 140.455 29.7369 142.117 30.0449C143.635 30.1853 145.129 30.5157 146.565 31.0285C148.541 31.9437 150.265 33.3256 151.59 35.0556Z" fill="#BFDDAF"/>
<path d="M124.937 19.7142C125.744 19.8638 126.511 20.0657 127.2 20.2631C131.423 21.4794 135.434 23.3374 139.094 25.7723C139.458 26.0089 139.806 26.2725 140.166 26.5283C140.84 27.1224 141.631 27.5675 142.488 27.8344C142.853 27.9021 143.217 27.9697 143.573 28.0356C144.901 28.1732 146.202 28.5015 147.436 29.0104C149.755 30.0538 151.782 31.6532 153.338 33.6677C155.973 37.0325 157.307 41.0419 158.436 44.8642C160.701 52.5299 163.015 63.6285 156.986 71.6079C154.801 74.4974 151.825 76.5634 148.952 78.5588C145.292 81.0953 141.838 83.4907 140.76 87.1626C140.107 89.4004 140.397 91.9623 140.71 94.6678C141.141 98.4004 141.588 102.256 139.628 105.864C137.948 108.976 135.113 110.71 132.368 112.391C130.697 113.311 129.152 114.443 127.77 115.758C125.301 118.356 124.374 122.176 123.405 126.226C122.263 130.991 121.065 135.954 117.146 139.408C114.074 142.103 110.021 143.064 106.754 143.912L95.6003 146.681C93.5205 147.182 91.7745 147.704 90.8649 148.859C90.4515 149.451 90.1182 150.096 89.8738 150.775C89.6957 151.2 89.5175 151.625 89.3124 152.035C87.4377 155.878 83.6313 158.994 78.5976 160.798C65.4013 165.528 49.4833 159.213 43.105 146.724C40.7222 142.053 39.4505 136.532 39.1026 129.351C38.8912 125.132 38.9961 120.224 41.2539 115.816C43.5117 111.407 47.1864 108.734 50.8046 105.991C54.4228 103.247 57.544 100.88 59.1841 97.3919C60.4684 94.6441 60.6688 91.526 60.8893 88.1928C60.9497 85.0724 61.4338 81.9745 62.328 78.9842C63.7958 74.7675 66.7202 71.2145 70.573 68.9671C72.7234 67.8165 74.9915 66.9021 77.3377 66.2398C78.5529 65.8479 79.6937 65.4822 80.8086 65.0419C83.2002 64.0918 86.2693 62.3815 87.1772 59.5738C87.7526 57.8093 87.4776 55.6482 87.167 53.411C86.7416 50.3462 86.2907 46.8289 88.1523 43.7003C90.6038 39.5863 95.2098 38.8575 99.2745 38.2076C102.094 37.7349 104.741 37.3397 106.642 35.9802C108.543 34.6207 109.817 31.9805 111.087 29.2597C112.831 25.5321 114.806 21.3098 119.339 19.9007C121.163 19.3864 123.084 19.3224 124.937 19.7142ZM141.668 32.3106C140.131 31.9469 138.703 31.2252 137.498 30.2041L136.621 29.5737C133.342 27.3877 129.749 25.7149 125.966 24.6128C124.285 23.9895 122.462 23.8517 120.705 24.2149C118.091 25.0242 116.76 27.863 115.215 31.1597C113.829 34.1374 112.25 37.5075 109.323 39.6323C106.568 41.6298 103.251 42.1595 100.035 42.6781C96.504 43.2378 93.464 43.7195 92.1063 46.0058C91.0484 47.8003 91.3501 50.0857 91.7262 52.7731C92.1024 55.4604 92.4468 58.2116 91.5382 60.9694C90.3759 64.5062 87.252 67.3709 82.5221 69.2511C81.2681 69.7453 79.9995 70.1571 78.7747 70.5471C76.7319 71.1227 74.7545 71.9103 72.8748 72.8972C69.9753 74.5939 67.7743 77.2702 66.6671 80.4455C65.916 83.0573 65.5124 85.7569 65.4669 88.4741C65.2253 92.0821 64.9894 95.8205 63.3379 99.3164C61.2213 103.821 57.3377 106.764 53.5924 109.603C50.2284 112.154 47.0597 114.563 45.3407 117.887C43.6218 121.211 43.5105 125.51 43.6919 129.087C44.0039 135.604 45.1179 140.529 47.2032 144.608C52.4885 154.953 66.137 160.379 77.1143 156.472C79.3813 155.658 83.4534 153.736 85.2647 150.021C85.4268 149.682 85.5696 149.341 85.7142 148.989C86.1143 147.932 86.6568 146.934 87.327 146.024C89.276 143.548 92.4518 142.763 94.5447 142.246L105.699 139.476C108.624 138.754 111.945 137.937 114.179 135.962C117.019 133.502 117.992 129.433 119.014 125.153C120.089 120.695 121.19 116.091 124.509 112.606C126.172 110.996 128.038 109.612 130.061 108.489C132.39 107.07 134.55 105.709 135.689 103.69C136.948 101.346 136.608 98.3565 136.272 95.1888C135.935 92.021 135.552 88.9941 136.469 85.8696C138.001 80.6595 142.287 77.6917 146.472 74.7848C149.184 72.9088 151.727 71.1408 153.476 68.8373C158.267 62.4995 156.172 52.8448 154.186 46.1367C153.187 42.7367 152.017 39.1857 149.88 36.4604C148.783 35.0323 147.353 33.8956 145.715 33.1503C144.85 32.8154 143.944 32.6005 143.021 32.5117C142.618 32.437 142.205 32.3604 141.792 32.2838L141.668 32.3106Z" fill="#231916"/>
<path d="M153.337 -19.6016C153.337 -19.6016 149.879 52.1158 116.002 90.6947C81.3297 130.191 65.416 137.682 62.2008 135.036C62.2008 135.036 112.279 92.662 125.267 64.4042C138.254 36.1463 148.857 -19.984 148.857 -19.984L153.337 -19.6016Z" fill="#6C9373"/>
<path d="M155.709 -21.6796L155.601 -19.4901C154.653 -5.66754 152.643 8.06191 149.589 21.5763C144.877 42.5996 135.53 71.9104 117.709 92.2058C88.5268 125.454 67.2442 142.132 60.7614 136.799L58.6585 135.066L60.7343 133.301C61.2304 132.875 110.575 90.9232 123.208 63.4554C135.938 35.7771 146.511 -19.8116 146.621 -20.4082L146.998 -22.4385L155.709 -21.6796ZM71.4113 129.995C73.0413 128.973 74.9625 127.667 77.2393 125.89C87.0418 118.351 99.8641 105.669 114.3 89.2149C143.961 55.4186 149.982 -5.25378 150.904 -17.4644L150.702 -17.5018C148.656 -7.05221 139.069 39.9006 127.387 65.4046C121.889 77.3244 109.478 93.0387 90.5179 111.978C83.2455 119.16 76.3756 125.511 71.4113 129.995Z" fill="#231916"/>
<path d="M187.539 6.57484C188.734 4.41752 189.555 1.97202 191.298 0.23478C195.354 -3.80071 202.028 -2.23515 207.67 -1.36859C209.202 -1.07295 210.772 -1.02046 212.321 -1.21315C214.666 -1.59447 216.739 -2.91235 218.914 -3.87275C222.239 -5.4294 225.963 -5.92092 229.577 -5.28028C231.371 -4.9432 233.067 -4.21216 234.545 -3.13972C236.023 -2.06728 237.245 -0.680071 238.124 0.922213C238.842 2.4089 239.317 4.1294 240.513 5.34624C242.637 7.39222 246.045 6.79974 248.939 6.25119C255.855 4.95543 263.992 5.06041 268.69 10.3205C270.708 12.5657 271.961 15.6147 274.573 17.1239C277.829 19.0115 281.967 17.8077 285.683 18.3969C288.682 18.8833 291.359 20.524 293.913 22.2317C298.325 25.2293 302.988 29.1789 303.455 34.5405C303.915 39.7218 300.284 44.3538 296.388 47.792C289.181 54.1397 279.56 58.607 270.094 56.9915C267.702 56.5482 265.302 55.7749 262.874 56.0115C259.516 56.3844 256.711 58.6015 253.618 59.959C250.467 61.2955 247.01 61.7342 243.627 61.2266C240.245 60.719 237.069 59.285 234.45 57.0828C232.087 55.0326 230.063 52.2885 227.036 51.5185C223.047 50.5301 218.733 53.4331 214.856 52.1073C210.821 50.7223 209.477 45.6958 206.326 42.8125C201.23 38.1455 192.507 40.072 186.977 35.8718C183.823 33.4857 182.315 29.5632 180.955 25.8575C179.91 23.4489 179.285 20.8791 179.105 18.2589C179.061 16.9691 179.305 15.6855 179.818 14.5015C180.331 13.3175 181.101 12.2628 182.072 11.4138C182.91 10.753 183.991 10.4956 184.864 9.86108C185.988 8.97822 186.902 7.85557 187.539 6.57484Z" fill="#BFDDAF"/>
<path d="M229.714 -7.57361L230.002 -7.52019C232.133 -7.11977 234.148 -6.24762 235.9 -4.9673C237.651 -3.68698 239.095 -2.03089 240.125 -0.119896C240.362 0.371862 240.577 0.869691 240.839 1.38604C241.118 2.20367 241.551 2.9598 242.115 3.61318C243.33 4.83358 245.756 4.44725 248.556 3.92117C255.392 2.63041 264.732 2.41089 270.41 8.70859C271.182 9.59494 271.895 10.5317 272.543 11.5126C273.338 12.9176 274.423 14.1366 275.725 15.0884C277.251 15.9684 279.195 15.9306 281.458 15.8922C282.995 15.8186 284.536 15.8843 286.061 16.0885C289.585 16.6421 292.611 18.5369 295.218 20.2842C299.827 23.3978 305.182 27.7944 305.75 34.2696C306.203 39.3301 303.562 44.464 297.971 49.4392C289.149 57.2095 278.883 60.7609 269.794 59.1458C269.112 59.0193 268.43 58.8929 267.748 58.7665C266.068 58.1821 264.269 58.027 262.514 58.3151C260.759 58.6033 259.102 59.3256 257.696 60.4167C256.712 60.951 255.695 61.5089 254.613 61.9852C251.071 63.5003 247.179 64.0005 243.371 63.43C239.563 62.8594 235.989 61.2405 233.047 58.7539C232.37 58.1706 231.756 57.5193 231.144 56.9581C229.63 55.483 228.21 54.0852 226.566 53.6809C224.938 53.4565 223.28 53.5871 221.706 54.064C219.411 54.5444 216.816 55.1482 214.199 54.2052C210.993 53.1134 209.203 50.3928 207.618 48.0089C206.848 46.7173 205.925 45.5236 204.869 44.4537C202.694 42.4679 199.473 41.8908 196.057 41.2876C192.484 40.6253 188.777 39.9381 185.685 37.6432C181.904 34.7824 180.231 30.2424 178.899 26.6015C177.763 23.9596 177.089 21.1412 176.907 18.2697C176.858 16.6322 177.176 15.0043 177.839 13.5061C178.502 12.008 179.492 10.6777 180.737 9.61385C181.326 9.17299 181.964 8.80363 182.64 8.51347C182.975 8.37521 183.296 8.20478 183.598 8.00447C184.46 7.33423 185.164 6.48274 185.66 5.51023C185.988 4.92395 186.28 4.31131 186.574 3.68903C187.348 1.831 188.441 0.123398 189.804 -1.35564C194.312 -5.84487 201.111 -4.734 206.569 -3.84175L208.115 -3.55511C209.414 -3.30101 210.745 -3.249 212.061 -3.401C213.526 -3.73231 214.935 -4.27578 216.244 -5.01425C216.867 -5.3169 217.479 -5.62133 218.106 -5.89334C221.722 -7.60095 225.765 -8.18612 229.714 -7.57361ZM242.709 8.82901C241.285 8.59177 239.964 7.93466 238.915 6.94156C237.898 5.85782 237.121 4.57073 236.635 3.16469C236.453 2.75275 236.281 2.34259 236.086 1.94811C235.357 0.646314 234.35 -0.477563 233.136 -1.34274C231.922 -2.20791 230.532 -2.793 229.065 -3.05584C225.911 -3.59777 222.667 -3.15692 219.77 -1.79286C219.197 -1.54081 218.678 -1.25883 218.08 -0.981477C216.37 -0.0565384 214.532 0.609096 212.627 0.993671C210.844 1.22564 209.036 1.17597 207.269 0.846556L205.694 0.554565C200.785 -0.245819 195.712 -1.06673 192.85 1.77687C191.872 2.9079 191.084 4.19045 190.517 5.57439C190.183 6.24906 189.857 6.9351 189.487 7.59302C188.671 9.15384 187.519 10.5143 186.116 11.5764C185.582 11.9466 185.014 12.2646 184.42 12.5261C184.065 12.6728 183.726 12.8531 183.406 13.0647C182.709 13.6992 182.16 14.4787 181.796 15.3484C181.433 16.2181 181.263 17.1568 181.3 18.0987C181.489 20.4573 182.068 22.7678 183.014 24.9356C184.451 28.8648 185.755 32.0128 188.31 33.8798C190.531 35.5655 193.551 36.1052 196.735 36.6657C200.625 37.3868 204.661 38.075 207.86 40.9672C209.202 42.2813 210.37 43.7621 211.335 45.3737C212.685 47.4155 213.858 49.1854 215.594 49.786C217.025 50.2701 218.803 49.8931 220.685 49.4954C222.928 48.8444 225.29 48.7236 227.586 49.1423C230.435 49.8497 232.452 51.8358 234.242 53.591C234.821 54.1661 235.377 54.7069 235.933 55.1883C238.235 57.1002 241.015 58.3451 243.973 58.7881C246.931 59.2311 249.954 58.8554 252.715 57.7018C253.602 57.3089 254.498 56.8181 255.438 56.3054C257.324 54.9538 259.499 54.0602 261.789 53.6953C264.079 53.3304 266.423 53.5042 268.634 54.203C269.258 54.3187 269.873 54.4327 270.497 54.5484C278.197 55.8861 287.119 52.7226 294.896 45.8734C297.984 43.1513 301.59 38.9726 301.201 34.5312C300.812 30.0898 296.418 26.4585 292.649 23.9085C290.398 22.3864 287.966 20.8708 285.343 20.4442C284.08 20.2877 282.805 20.2414 281.534 20.3056C278.972 20.3483 276.063 20.3962 273.449 18.8966C271.547 17.6367 269.955 15.9598 268.795 13.9928C268.252 13.1832 267.659 12.4085 267.019 11.6731C262.776 6.90541 255.074 7.23947 249.371 8.31231C247.21 8.89011 244.962 9.06705 242.737 8.83435L242.709 8.82901Z" fill="#231916"/>
<path d="M267.408 38.0907C268.479 40.887 202.976 38.5887 176.679 6.04491C150.383 -26.4988 162.145 -25.1546 162.145 -25.1546C162.145 -25.1546 180.378 8.28315 207.042 19.8146C239.705 33.931 266.325 35.3022 267.408 38.0907Z" fill="#6C9373"/>
<path d="M163.582 -27.277L164.146 -26.2468C164.323 -25.9154 182.329 6.6542 207.95 17.7036C228.189 26.4317 246.194 30.2768 256.958 32.5606C265.733 34.426 268.686 35.0531 269.531 37.25C269.747 37.8194 269.748 38.4481 269.534 39.0185C269.321 39.589 268.907 40.062 268.37 40.3492C263.405 43.2309 200.827 39.5141 174.917 7.46C156.291 -15.6 156.289 -22.1793 157.898 -25.1257C158.345 -25.9077 159.01 -26.5426 159.811 -26.9526C160.612 -27.3626 161.515 -27.5301 162.409 -27.4347L163.582 -27.277ZM251.317 36.0336C235.833 32.8053 220.703 28.0706 206.14 21.8967C191.947 15.7624 180.187 3.57975 172.829 -5.5573C168.881 -10.4573 165.249 -15.6053 161.956 -20.9696C162.684 -18.0379 165.847 -10.9821 178.446 4.61059C195.917 26.2324 231.129 33.9436 251.317 36.0336Z" fill="#231916"/>
</svg>
