<svg width="525" height="289" viewBox="0 0 525 289" fill="none" xmlns="http://www.w3.org/2000/svg">
<mask id="mask0" style="mask-type:alpha" maskUnits="userSpaceOnUse" x="0" y="0" width="525" height="132">
<rect width="525" height="132" fill="#C4C4C4"/>
</mask>
<g mask="url(#mask0)">
<path d="M99.1061 19.6929C100.474 21.1011 100.841 23.3644 102.423 24.4977C103.633 25.3613 105.264 25.3602 106.57 26.0623C107.778 26.7145 108.589 27.9089 109.25 29.1108C110.866 32.1149 111.823 35.4306 112.057 38.8358C112.29 42.241 111.794 45.6571 110.602 48.8552C110.23 49.6495 109.982 50.4968 109.867 51.3669C109.796 52.829 110.61 54.2144 110.62 55.6786C110.635 57.7408 109.07 59.4583 107.993 61.2393C106.503 63.7229 105.885 66.6341 106.238 69.5095C106.52 71.8013 107.408 74.1669 106.621 76.3391C106.023 77.9972 104.551 79.1717 103.603 80.6599C101.568 83.8664 101.996 88.4227 99.2765 91.1002C97.0254 93.3088 93.4213 93.3531 90.7064 94.9851C88.6222 96.2293 86.5359 98.4936 84.2591 97.6548C82.5753 97.033 81.8878 94.9632 80.3664 94.0155C78.9374 93.1275 76.8331 93.2519 75.8949 91.8711C74.9566 90.4903 75.7448 88.4831 74.9593 87.0024C74.5225 86.3671 74.0083 85.7888 73.4286 85.281C71.3931 83.0414 71.5294 79.6733 71.7827 76.6711C72.2356 71.512 72.6997 66.2251 74.886 61.5325C76.1564 58.7793 78.0197 56.243 78.6001 53.2643C79.615 48.0309 76.5239 42.231 78.9569 37.4827C79.5804 36.2391 80.563 35.1815 81.0532 33.8746C81.5024 32.6826 81.5139 31.38 81.6762 30.1165C82.1244 26.8334 83.611 23.7804 85.9178 21.405C87.0136 20.1722 88.3489 19.1762 89.8419 18.4777C90.3629 18.2958 90.9193 18.2388 91.4663 18.3112C92.2524 18.3238 93.0385 18.2896 93.8206 18.2088C95.7229 18.0409 97.7484 18.2856 99.1061 19.6929Z" fill="#8FBE80"/>
<path d="M95.6054 16.9794C97.2377 17.0468 98.7881 17.7128 99.9619 18.8509C100.624 19.5953 101.171 20.4354 101.584 21.3429C102.022 22.2211 102.463 23.0533 103.115 23.5382C103.695 23.8826 104.329 24.1263 104.99 24.2593C105.734 24.4247 106.454 24.6817 107.135 25.0246C108.682 25.856 109.636 27.3464 110.292 28.5478C111.998 31.6998 113.009 35.1815 113.258 38.7585C113.508 42.3355 112.989 45.9248 111.737 49.2845L111.617 49.6037C111.31 50.1674 111.134 50.7931 111.101 51.4343C111.069 52.0756 111.182 52.7158 111.43 53.3074C111.679 54.0749 111.821 54.8727 111.855 55.6787C111.867 57.6532 110.773 59.2678 109.815 60.6933C109.543 61.0971 109.284 61.4762 109.049 61.8627C107.693 64.1132 107.129 66.7544 107.449 69.3633C107.523 69.9314 107.632 70.5077 107.748 71.1156C108.101 72.9499 108.45 74.8406 107.768 76.749C107.295 77.885 106.62 78.9256 105.775 79.8201C105.357 80.2893 104.97 80.7855 104.616 81.3053C103.829 82.5398 103.444 84.0568 103.041 85.6548C102.474 87.8927 101.887 90.1907 100.119 91.9367C98.5998 93.4212 96.6589 94.0289 94.7815 94.6163C93.5883 94.9317 92.4364 95.3874 91.3501 95.9741C90.8944 96.2433 90.4227 96.578 89.9288 96.9314C88.1837 98.1796 86.2029 99.5927 83.8816 98.7346C82.6361 98.2749 81.8531 97.2941 81.1673 96.4353C80.7775 95.8796 80.299 95.3919 79.751 94.9919C79.2485 94.7232 78.7128 94.522 78.1577 94.3935C77.0342 94.0681 75.7598 93.7038 74.9377 92.5238C74.2249 91.5029 74.2081 90.3473 74.1894 89.3306C74.2301 88.7184 74.1402 88.1045 73.9257 87.5299C73.7081 87.1914 73.442 86.8868 73.1359 86.6259C72.9414 86.4388 72.747 86.2517 72.5683 86.0608C70.2206 83.5103 70.3345 79.8105 70.6167 76.5378C71.0526 71.573 71.5467 65.9435 73.8223 60.996C74.2404 60.1001 74.7129 59.2296 75.1729 58.3838C76.1593 56.5794 77.0862 54.8677 77.45 53.0087C77.8439 50.9823 77.5485 48.782 77.2365 46.4773C76.8031 43.2705 76.3485 39.9536 77.9015 36.9109C78.1966 36.3542 78.5239 35.8152 78.8815 35.2966C79.3065 34.7143 79.6637 34.0853 79.9461 33.4219C80.1998 32.6228 80.3486 31.7941 80.3888 30.9566C80.4189 30.6141 80.449 30.2715 80.4786 29.934C80.9638 26.397 82.5644 23.1075 85.0471 20.5454C86.2531 19.178 87.732 18.0791 89.3882 17.3198C90.0744 17.0702 90.8093 16.9847 91.5343 17.0702C92.0508 17.0907 92.5682 17.0724 93.082 17.0154L93.7499 16.9659C94.3679 16.9241 94.9881 16.9286 95.6054 16.9794ZM85.1764 96.5811C86.1155 96.6636 87.1633 95.9776 88.5733 94.973C89.0834 94.6107 89.6156 94.2298 90.1584 93.9064C91.4048 93.2242 92.7274 92.6917 94.0984 92.3202C95.7802 91.7928 97.3717 91.2988 98.48 90.2162C99.7686 88.9536 100.249 87.0584 100.754 85.0572C101.192 83.3439 101.641 81.5696 102.632 80.0078C103.036 79.4003 103.478 78.8195 103.957 78.2693C104.612 77.5814 105.144 76.7865 105.531 75.9189C105.999 74.6306 105.709 73.1366 105.4 71.5535C105.285 70.9303 105.162 70.2909 105.054 69.6425C104.669 66.4987 105.349 63.3162 106.984 60.6045C107.243 60.1687 107.532 59.7458 107.81 59.3374C108.65 58.0869 109.448 56.905 109.443 55.6731C109.397 55.0793 109.275 54.4939 109.082 53.9308C108.765 53.0908 108.625 52.1944 108.671 51.2976C108.716 50.4008 108.945 49.523 109.344 48.7189L109.458 48.4197C110.59 45.382 111.059 42.1369 110.835 38.9026C110.611 35.6683 109.697 32.5199 108.157 29.6691C107.656 28.7543 106.952 27.6363 105.955 27.1005C105.435 26.8525 104.889 26.6646 104.327 26.5403C103.387 26.3441 102.49 25.9773 101.681 25.4578C100.558 24.6585 99.9467 23.4765 99.4162 22.4303C99.1026 21.7381 98.6935 21.0934 98.2009 20.5151C97.3192 19.603 95.9129 19.2168 93.8909 19.3432L93.2699 19.3867C92.6465 19.4535 92.019 19.4724 91.3928 19.4434C91.0214 19.3896 90.6427 19.4197 90.2844 19.5316C88.9446 20.1597 87.7498 21.0603 86.7761 22.176C84.6469 24.3662 83.2733 27.1815 82.8563 30.2097C82.8285 30.5268 82.8006 30.8438 82.7728 31.1608C82.7433 33.1313 82.0777 35.0396 80.8758 36.6001C80.5689 37.0402 80.2867 37.4971 80.0304 37.9685C78.7933 40.3434 79.2047 43.1567 79.6072 46.1289C79.9111 48.5258 80.27 50.9995 79.7933 53.4412C79.3615 55.6652 78.3008 57.6124 77.2761 59.501C76.8157 60.3519 76.375 61.1531 75.9951 61.9648C73.8719 66.5238 73.4279 71.6991 72.9991 76.7005C72.7451 79.5945 72.6485 82.5693 74.334 84.4021C74.4792 84.5643 74.636 84.712 74.8076 84.8662C75.3024 85.2965 75.7233 85.8051 76.0538 86.3719C76.4649 87.274 76.65 88.263 76.5929 89.2531C76.6072 90.0272 76.6203 90.6982 76.943 91.1232C77.2657 91.5483 78.0134 91.82 78.8662 92.0649C79.635 92.2515 80.3743 92.5436 81.0633 92.9328C81.8394 93.472 82.5167 94.1415 83.0651 94.9119C83.6298 95.6261 84.1215 96.2361 84.7391 96.4655C84.879 96.5236 85.0261 96.5625 85.1764 96.5811Z" fill="#231916"/>
<path d="M106.54 11.7564C108.254 11.8804 109.943 12.2262 111.568 12.7851C118.374 14.985 124.991 19.2345 132.072 18.1918C134.266 17.8692 136.448 17.0303 138.64 17.3721C141.072 17.7299 143.088 19.432 145.488 20.0343C147.281 20.4648 149.169 20.2338 150.99 20.5173C152.404 20.7383 153.755 21.2563 154.955 22.0374C156.155 22.8185 157.176 23.845 157.952 25.0495C159.236 27.0635 159.851 29.6062 161.733 31.0749C163.042 32.0967 164.737 32.4206 166.328 32.8694C172.631 34.6542 178.522 39.6077 179.314 46.1126C179.437 46.8575 179.4 47.62 179.205 48.3495C178.809 49.6389 177.7 50.5617 176.63 51.3798C172.865 54.249 169.592 58.3772 165.05 59.6685C160.509 60.9598 154.615 59.3192 150.431 57.1176C149.832 56.7277 149.146 56.4906 148.434 56.4271C147.631 56.4339 146.934 56.9343 146.231 57.326C142.738 59.2659 138.365 58.5882 134.646 57.123C133.065 56.4999 131.489 55.7123 130.378 54.4194C129.575 53.4885 129.063 52.3461 128.338 51.355C127.541 50.3151 126.546 49.4445 125.41 48.7937C124.274 48.143 123.021 47.725 121.722 47.5642C120.096 47.3441 118.392 47.4728 116.873 46.8551C114.682 45.9672 113.36 43.7438 112.414 41.5791C111.467 39.4144 110.68 37.0731 108.989 35.4201C107.379 33.8464 105.16 33.1003 103.225 31.9514C99.8569 29.874 97.4081 26.5869 96.3784 22.7613C95.8308 20.8747 95.6549 18.8992 95.8603 16.945C95.8697 16.605 95.9522 16.2709 96.1024 15.9657C96.2526 15.6605 96.4668 15.3914 96.7305 15.1769C97.4976 14.5638 98.3113 14.0116 99.1641 13.5253C101.407 12.2498 103.965 11.6364 106.54 11.7564Z" fill="#8FBE80"/>
<path d="M107.145 10.609C108.776 10.7784 110.382 11.1302 111.934 11.658C113.884 12.2929 115.831 13.0873 117.707 13.86C122.554 15.8312 127.139 17.728 131.9 17.0433C132.536 16.9497 133.175 16.8152 133.846 16.668C135.42 16.3218 137.076 15.9725 138.813 16.2229C140.24 16.498 141.614 16.9978 142.885 17.7037C143.802 18.1979 144.769 18.592 145.77 18.8792C146.716 19.0633 147.679 19.1479 148.643 19.1314C149.488 19.14 150.331 19.2002 151.168 19.3119C152.749 19.5587 154.26 20.1379 155.602 21.0114C156.943 21.8848 158.085 23.0329 158.952 24.38C159.405 25.1205 159.814 25.8876 160.175 26.6772C160.828 28.0328 161.441 29.3078 162.446 30.1071C163.346 30.8095 164.552 31.1318 165.828 31.4757L166.632 31.6957C172.874 33.4649 179.572 38.5509 180.477 45.9365C180.615 46.8498 180.563 47.7822 180.324 48.6745C179.821 50.2998 178.541 51.4033 177.326 52.3014C176.224 53.1321 175.201 54.0625 174.107 55.0484C171.494 57.3952 168.798 59.8069 165.373 60.7944C160.362 62.2197 154.096 60.366 149.877 58.1511L149.681 58.0462C149.311 57.8039 148.894 57.6442 148.457 57.5781C148.005 57.657 147.578 57.838 147.207 58.1073L146.822 58.326C142.621 60.6622 137.654 59.5409 134.223 58.1937C132.732 57.6043 130.834 56.7266 129.485 55.1553C128.994 54.5545 128.555 53.9127 128.173 53.2367C127.913 52.8016 127.665 52.3935 127.39 52.0138C125.967 50.1814 123.876 48.9898 121.576 48.7004C121.096 48.6583 120.601 48.6149 120.081 48.5692C118.84 48.551 117.61 48.3316 116.44 47.9198C113.693 46.8079 112.21 44.0139 111.337 42.0102C111.178 41.6511 111.025 41.2873 110.871 40.9388C110.117 39.1517 109.412 37.4616 108.196 36.2523C107.143 35.3361 105.957 34.5857 104.678 34.0267C104.013 33.6952 103.318 33.3457 102.653 32.9525C99.0237 30.7154 96.3824 27.1761 95.2674 23.0554C94.6903 21.0172 94.5123 18.8862 94.7434 16.7801C94.7696 16.2837 94.9 15.7984 95.1258 15.3557C95.3516 14.913 95.668 14.5229 96.0542 14.2107C96.8713 13.5604 97.7378 12.975 98.6458 12.4597C101.079 11.1025 103.842 10.4528 106.623 10.5838L107.145 10.609ZM128.269 19.5018C124.309 19.1541 120.511 17.5943 116.803 16.0734C114.966 15.3145 113.065 14.5345 111.199 13.9328C109.677 13.401 108.09 13.0729 106.481 12.957C104.148 12.8537 101.832 13.4052 99.7944 14.5494C98.9942 15.0008 98.2317 15.5163 97.5143 16.0908C97.2876 16.2718 97.168 16.4622 97.0928 17.0842C96.8984 18.8812 97.0532 20.6987 97.5487 22.4364C98.4975 25.9649 100.753 28.9984 103.855 30.9197C104.446 31.2756 105.072 31.5881 105.732 31.9192C107.239 32.5727 108.633 33.4601 109.863 34.5489C111.445 36.0944 112.283 38.0898 113.091 40.0207C113.24 40.3739 113.389 40.727 113.542 41.0908C114.249 42.6987 115.414 44.9547 117.356 45.7434C118.294 46.0512 119.274 46.2137 120.261 46.2252C120.771 46.27 121.358 46.3215 121.919 46.3708C123.377 46.5501 124.784 47.0191 126.057 47.7503C127.331 48.4814 128.446 49.4601 129.338 50.6287C129.672 51.0909 129.96 51.5644 130.243 52.0272C130.559 52.5874 130.92 53.1206 131.322 53.6214C132.331 54.7919 133.883 55.5052 135.124 56.0161C138.077 57.177 142.303 58.192 145.695 56.2846L146.036 56.093C146.755 55.5937 147.595 55.2973 148.467 55.2346C149.305 55.2804 150.118 55.5398 150.829 55.9881L151.01 56.0865C154.81 58.0844 160.412 59.7766 164.748 58.5446C167.665 57.7135 170.043 55.5779 172.561 53.3206C173.645 52.344 174.792 51.3422 175.93 50.4527C176.861 49.7411 177.798 48.968 178.092 48.02C178.234 47.4504 178.256 46.8577 178.158 46.2791C177.389 39.9823 171.51 35.5966 166.029 34.0438L165.261 33.8321C163.809 33.447 162.31 33.0578 161.026 32.0434C159.585 30.8864 158.797 29.3076 158.053 27.7686C157.732 27.0618 157.37 26.3745 156.968 25.7103C156.285 24.6501 155.386 23.7466 154.329 23.059C153.273 22.3714 152.083 21.9151 150.838 21.72C150.094 21.6269 149.344 21.5766 148.594 21.5693C146.233 21.6479 143.899 21.0609 141.856 19.8752C140.805 19.2843 139.67 18.8579 138.49 18.6111C137.185 18.4243 135.822 18.7169 134.374 19.0329C133.688 19.1788 132.98 19.333 132.282 19.4366C130.951 19.6108 129.605 19.6293 128.27 19.4915L128.269 19.5018Z" fill="#231916"/>
<path d="M157.915 52.3079C157.915 52.3079 126.208 39.8223 114.104 28.4239C101.999 17.0255 82.8894 -7.83823 82.8894 -7.83823L85.5484 -10.181C85.5484 -10.181 111.868 20.5505 118.897 27.0207C134.21 41.1224 158.691 48.2129 157.915 52.3079Z" fill="#6C9373"/>
<path d="M85.6519 -11.8876L86.4358 -10.9738C86.6965 -10.6624 112.79 19.7813 119.695 26.1325C127.885 33.6681 138.909 39.2629 146.955 43.344C155.109 47.4811 159.599 49.7611 159.074 52.5179L158.806 53.932L157.469 53.4024C156.166 52.8913 125.41 40.7056 113.299 29.2756C101.273 17.915 82.1464 -6.87287 81.9522 -7.12178L81.2742 -8.01084L85.6519 -11.8876ZM150.729 47.9828C149.147 47.1381 147.443 46.2774 145.866 45.4949C137.692 41.351 126.5 35.6694 118.068 27.9115C111.668 22.0168 89.9119 -3.23362 85.4091 -8.47738L84.4953 -7.67655C88.0173 -3.15266 104.293 17.5566 114.9 27.5561C123.096 35.252 140.634 43.5724 150.748 48L150.729 47.9828Z" fill="#231916"/>
<path d="M87.2598 82.9866C87.2598 82.9866 96.32 50.085 94.5162 33.547C92.7125 17.009 86.9239 -14.1305 86.9239 -14.1305L83.4605 -13.404C83.4605 -13.404 89.5852 27.0291 90.5242 36.5456C92.5768 57.2789 83.5226 81.1488 87.2598 82.9866Z" fill="#6C9373"/>
<path d="M87.8767 -15.5514L88.0954 -14.3523C88.1553 -14.0379 93.8898 17.0144 95.7006 33.4139C97.5365 49.9959 88.7801 81.9556 88.4097 83.3039L88.0255 84.6922L86.7332 84.0635C84.22 82.8124 85.1022 77.8611 86.6956 68.8502C88.2744 59.9463 90.435 47.7546 89.3407 36.6684C88.4083 27.3121 82.3698 -12.8146 82.2819 -13.2191L82.1125 -14.3366L87.8767 -15.5514ZM88.1264 74.6384C90.6702 63.8818 94.572 44.8047 93.3341 33.6544C91.7349 19.1799 87.051 -6.84927 85.9733 -12.7352L84.8098 -12.487C85.8046 -5.89216 90.8703 27.858 91.7141 36.4078C92.8396 47.842 90.6538 60.2015 89.0476 69.2422C88.7387 71.003 88.4037 72.8851 88.1246 74.6588L88.1264 74.6384Z" fill="#231916"/>
<path d="M87.595 20.5786C88.9793 22.0347 89.8166 23.9218 90.5731 25.7916C92.2645 29.959 93.6029 34.9249 91.2475 38.7319C89.0818 42.2515 84.1806 44.0059 83.4025 48.0647C82.7889 51.2466 85.0867 54.6583 83.8268 57.6443C82.8064 60.0691 79.926 61.0683 78.2788 63.1341C75.4588 66.7251 77.1131 72.605 73.9876 75.927C72.7451 77.2503 70.9708 77.8932 69.2618 78.4954L63.5774 80.5005C62.4528 80.8912 61.2522 81.3268 60.6067 82.3522C60.2843 82.978 60.0283 83.6359 59.8429 84.3152C59.0826 86.3558 57.2649 87.845 55.2962 88.7697C49.2177 91.6315 41.1874 89.3087 37.5707 83.6378C35.9751 81.1327 35.2159 78.1807 34.7898 75.2425C34.4675 73.0553 34.3406 70.7513 35.1588 68.6952C36.8516 64.4693 42.0715 62.4235 43.6101 58.1378C44.7332 55.0109 43.5934 51.4742 44.3655 48.2444C44.8493 46.2483 46.0329 44.4925 47.7006 43.2971C49.2152 42.2141 51.0375 41.6682 52.6961 40.8194C54.3547 39.9706 55.9707 38.6698 56.3671 36.8497C56.9725 34.172 54.8027 31.2353 55.9973 28.7588C57.4749 25.6373 62.3702 26.469 64.9569 24.1868C67.5437 21.9047 67.1546 16.7283 70.4533 15.3588C71.5679 14.9846 72.7667 14.9413 73.9051 15.2342C76.0533 15.6368 78.1277 16.3645 80.0572 17.3922C80.8135 17.7987 81.5151 18.36 82.3981 18.4376C83.1976 18.4348 83.9942 18.5324 84.7693 18.7281C85.8469 19.1069 86.8165 19.7419 87.595 20.5786Z" fill="#BFDDAF"/>
<path d="M72.9109 13.9053C73.3397 13.943 73.7504 14.01 74.1198 14.0785C76.3856 14.5018 78.573 15.2708 80.6058 16.3585C80.8074 16.4638 81.0026 16.5839 81.2033 16.6995C81.5846 16.9759 82.0199 17.1686 82.4806 17.265C82.6746 17.282 82.8685 17.2991 83.0573 17.3156C83.7574 17.3209 84.4531 17.4271 85.1229 17.6309C86.3863 18.0594 87.5247 18.7928 88.4379 19.7665C89.9823 21.3912 90.8794 23.4176 91.6606 25.3565C93.2274 29.245 94.9918 34.9233 92.244 39.3915C91.2482 41.0095 89.7981 42.2373 88.3979 43.4231C86.6146 44.9308 84.9312 46.3545 84.5524 48.3256C84.3236 49.5266 84.6034 50.8495 84.9026 52.2464C85.3146 54.1735 85.7416 56.1638 84.899 58.1456C84.178 59.8548 82.7849 60.902 81.4357 61.9171C80.6098 62.4815 79.8597 63.1499 79.2039 63.9058C78.0453 65.3859 77.753 67.4264 77.4499 69.5896C77.0928 72.1345 76.716 74.7858 74.8432 76.7855C73.3741 78.3465 71.3064 79.0512 69.6434 79.6575L63.959 81.6625C62.8983 82.028 62.0129 82.3882 61.596 83.0369C61.4098 83.3668 61.2681 83.7199 61.1746 84.087C61.1029 84.3178 61.0312 84.5485 60.9446 84.7727C60.1585 86.8729 58.3274 88.6907 55.7899 89.8849C49.1375 93.0158 40.5106 90.5169 36.5546 84.3164C35.0764 81.9969 34.1358 79.1783 33.5942 75.4468C33.2723 73.2545 33.0811 70.6872 34.0388 68.2724C34.9966 65.8575 36.7811 64.2778 38.5326 62.6643C40.284 61.0507 41.7949 59.6583 42.4763 57.755C43.0091 56.2561 42.9574 54.6182 42.9054 52.8669C42.7806 51.2348 42.878 49.5932 43.195 47.9872C43.7499 45.7122 45.0986 43.7107 46.9974 42.3442C48.0624 41.6357 49.2007 41.0446 50.3924 40.5812C51.0072 40.3158 51.5845 40.0676 52.1444 39.7819C53.3454 39.1659 54.862 38.1192 55.1953 36.6079C55.4072 35.6578 55.1553 34.5434 54.881 33.3909C54.5053 31.8122 54.0936 29.9985 54.9087 28.2718C55.9823 26.0011 58.3505 25.3897 60.44 24.8466C61.8884 24.4586 63.2503 24.1196 64.1747 23.3145C65.0992 22.5094 65.6321 21.0672 66.1584 19.5831C66.8821 17.5496 67.7015 15.2462 69.9976 14.2833C70.924 13.9234 71.9237 13.7937 72.9109 13.9053ZM82.277 19.643C81.4567 19.5302 80.6747 19.225 79.9945 18.7522L79.5052 18.4671C77.6836 17.4902 75.724 16.797 73.6939 16.4112C72.7846 16.1701 71.826 16.1895 70.9271 16.4672C69.603 17.0207 69.0504 18.5695 68.409 20.3681C67.8344 21.9922 67.1793 23.8308 65.7575 25.0868C64.4195 26.2677 62.7142 26.7105 61.0613 27.1425C59.2457 27.6117 57.6828 28.0155 57.0886 29.2773C56.6262 30.2672 56.8982 31.4452 57.2293 32.8293C57.5604 34.2135 57.8781 35.6326 57.542 37.1179C57.1125 39.0226 55.6251 40.6748 53.25 41.8935C52.6201 42.2144 51.9784 42.4929 51.3586 42.758C50.3209 43.1608 49.328 43.6712 48.3961 44.2806C46.9674 45.3118 45.9525 46.8194 45.5336 48.5326C45.2724 49.9338 45.197 51.3634 45.3094 52.7843C45.3642 54.6801 45.4284 56.6436 44.7414 58.5516C43.8622 61.0094 41.9821 62.7404 40.1691 64.4103C38.5407 65.911 37.0071 67.3273 36.2763 69.1489C35.5455 70.9706 35.7029 73.2206 35.9769 75.0789C36.4665 78.4658 37.2949 80.9808 38.5881 83.0059C41.866 88.1421 49.2635 90.2909 54.7987 87.7008C55.9415 87.1622 57.971 85.9544 58.7305 83.924C58.7981 83.7393 58.8555 83.5537 58.9134 83.363C59.0693 82.7908 59.3025 82.2427 59.6067 81.7339C60.5002 80.3438 62.1189 79.7749 63.1856 79.3997L68.87 77.3946C70.3611 76.8712 72.0539 76.2778 73.1212 75.1349C74.4807 73.7085 74.7847 71.5351 75.1036 69.2497C75.4413 66.868 75.7857 64.4096 77.3436 62.4235C78.1309 61.4997 79.036 60.6835 80.0357 59.996C81.1808 59.1382 82.2402 58.3192 82.7337 57.2084C83.2736 55.9213 82.9462 54.3777 82.6116 52.7408C82.277 51.1039 81.9254 49.5428 82.2475 47.8656C82.7862 45.0687 84.8749 43.3045 86.9141 41.5771C88.2361 40.4617 89.4753 39.4112 90.2726 38.1209C92.4563 34.5719 90.8786 29.6365 89.5057 26.2338C88.8137 24.5088 88.0249 22.7136 86.7724 21.3979C86.1281 20.7073 85.3244 20.1856 84.4319 19.8786C83.9638 19.747 83.4799 19.6803 82.9938 19.6802C82.7794 19.6614 82.5599 19.6421 82.3405 19.6228L82.277 19.643Z" fill="#231916"/>
<path d="M85.7671 -8.04418C85.7671 -8.04418 87.5566 29.5712 71.8042 51.4105C55.6823 73.7685 47.7496 78.4771 45.9383 77.2567C45.9383 77.2567 69.9593 52.6242 75.3233 37.2204C80.6872 21.8166 83.4093 -8.01926 83.4093 -8.01926L85.7671 -8.04418Z" fill="#6C9373"/>
<path d="M86.9015 -9.24812L86.955 -8.09959C87.153 -0.835648 86.7917 6.43296 85.8745 13.6416C84.4684 24.8536 81.0575 40.6246 72.7713 52.1137C59.2023 70.9346 48.9271 80.7084 45.2753 78.2495L44.0905 77.4499L45.0857 76.4244C45.3234 76.1773 68.9824 51.8016 74.2006 36.8282C79.4597 21.7398 82.1929 -7.81177 82.2207 -8.12878L82.3154 -9.20763L86.9015 -9.24812ZM50.4943 74.1632C51.294 73.5482 52.2316 72.77 53.3311 71.7279C58.0709 67.3007 64.1295 60.0369 70.8412 50.7231C84.6329 31.592 84.7348 -0.385475 84.6042 -6.80659L84.497 -6.81599C83.9525 -1.25793 81.3006 23.7357 76.4801 37.6363C74.2072 44.1349 68.5154 52.9612 59.5663 63.7994C56.1295 67.9134 52.8612 71.5733 50.4943 74.1632Z" fill="#231916"/>
<path d="M104.936 3.90745C105.451 2.72128 105.757 1.40338 106.58 0.409057C108.496 -1.90111 112.059 -1.41832 115.047 -1.24868C115.862 -1.17114 116.684 -1.22241 117.483 -1.40065C118.689 -1.71731 119.705 -2.50922 120.792 -3.11964C122.45 -4.09904 124.37 -4.5423 126.288 -4.38897C127.242 -4.3029 128.164 -4.0063 128.99 -3.52048C129.815 -3.03466 130.522 -2.37168 131.061 -1.5792C131.511 -0.839022 131.845 0.0353616 132.53 0.610739C133.742 1.57241 135.492 1.09225 136.975 0.660832C140.521 -0.362349 144.774 -0.715419 147.491 1.79528C148.657 2.8663 149.464 4.39529 150.903 5.05232C152.698 5.87454 154.797 5.03868 156.767 5.16005C158.357 5.26361 159.837 5.98606 161.256 6.74957C163.71 8.09335 166.342 9.92167 166.854 12.6975C167.354 15.3794 165.691 17.9796 163.829 19.9699C160.385 23.6452 155.586 26.4597 150.563 26.0908C149.292 25.9793 148 25.6958 146.744 25.9411C145.01 26.3041 143.657 27.6022 142.11 28.466C140.532 29.3216 138.749 29.7239 136.958 29.6285C135.166 29.5331 133.436 28.9436 131.958 27.9252C130.622 26.9732 129.428 25.6421 127.809 25.3917C125.677 25.0757 123.57 26.8075 121.48 26.3097C119.303 25.7889 118.35 23.232 116.56 21.8847C113.666 19.7036 109.209 21.1465 106.111 19.231C104.344 18.1433 103.36 16.1711 102.465 14.3046C101.799 13.0994 101.343 11.7892 101.118 10.4302C101.03 9.75905 101.093 9.0767 101.302 8.43282C101.511 7.78895 101.86 7.1997 102.324 6.70782C102.728 6.32081 103.28 6.13223 103.704 5.75724C104.246 5.23996 104.667 4.60803 104.936 3.90745Z" fill="#BFDDAF"/>
<path d="M126.245 -5.59311L126.398 -5.57967C127.531 -5.47746 128.626 -5.12313 129.605 -4.54249C130.583 -3.96186 131.42 -3.1696 132.054 -2.22357C132.202 -1.97869 132.34 -1.7296 132.502 -1.47316C132.689 -1.06026 132.953 -0.687215 133.28 -0.374383C133.975 0.201891 135.223 -0.121419 136.658 -0.536417C140.162 -1.55296 145.028 -2.13573 148.308 0.867552C148.755 1.29159 149.174 1.74494 149.562 2.22457C150.047 2.91821 150.675 3.50024 151.402 3.93188C152.243 4.31483 153.256 4.19767 154.435 4.06418C155.234 3.94872 156.042 3.90579 156.848 3.93595C158.716 4.04836 160.391 4.88585 161.84 5.66739C164.402 7.06193 167.418 9.08888 168.039 12.441C168.529 15.0602 167.408 17.8729 164.738 20.7506C160.522 25.2495 155.34 27.6182 150.514 27.2306C150.152 27.1987 149.789 27.1669 149.427 27.1351C148.521 26.9142 147.574 26.9234 146.672 27.1618C145.77 27.4002 144.941 27.8604 144.262 28.5005C143.775 28.8288 143.272 29.171 142.731 29.4739C140.958 30.4425 138.951 30.8987 136.934 30.7917C134.917 30.6847 132.97 30.0187 131.31 28.8679C130.927 28.5973 130.574 28.2881 130.226 28.0258C129.362 27.3315 128.55 26.673 127.672 26.5443C126.81 26.5088 125.951 26.6601 125.154 26.9879C123.98 27.3537 122.655 27.799 121.241 27.4379C119.513 27.0286 118.442 25.698 117.495 24.5328C117.028 23.8971 116.487 23.3202 115.882 22.8145C114.647 21.8868 112.936 21.747 111.123 21.6033C109.224 21.4366 107.254 21.2637 105.525 20.2205C103.407 18.9165 102.307 16.6301 101.429 14.796C100.703 13.4737 100.21 12.0361 99.971 10.5461C99.8632 9.6936 99.9479 8.82775 100.219 8.01236C100.49 7.19698 100.94 6.45286 101.537 5.83504C101.822 5.57537 102.137 5.35052 102.475 5.16517C102.643 5.07619 102.802 4.97112 102.95 4.85138C103.366 4.45829 103.691 3.97847 103.901 3.44585C104.043 3.12336 104.165 2.78885 104.287 2.44923C104.598 1.44043 105.083 0.494128 105.721 -0.346391C107.849 -2.91609 111.454 -2.6769 114.348 -2.48465L115.17 -2.41251C115.861 -2.34498 116.558 -2.38454 117.238 -2.52982C117.986 -2.77624 118.695 -3.13062 119.341 -3.58177C119.651 -3.77098 119.955 -3.96063 120.269 -4.13405C122.071 -5.2068 124.152 -5.71494 126.245 -5.59311ZM133.851 2.31896C133.096 2.26647 132.374 1.98961 131.776 1.52369C131.191 1.0089 130.721 0.375891 130.396 -0.333815C130.281 -0.539761 130.17 -0.745257 130.049 -0.941424C129.603 -1.58455 129.021 -2.12082 128.344 -2.51166C127.667 -2.9025 126.911 -3.13827 126.133 -3.20197C124.459 -3.32682 122.787 -2.93404 121.343 -2.07669C121.056 -1.91637 120.8 -1.74313 120.501 -1.56836C119.655 -0.999746 118.729 -0.56012 117.754 -0.263853C116.834 -0.0533902 115.888 0.0113032 114.949 -0.0721073L114.112 -0.14559C111.509 -0.317409 108.819 -0.49167 107.468 1.13636C107.014 1.77586 106.667 2.48495 106.44 3.23592C106.3 3.60487 106.164 3.97937 106.003 4.34142C105.655 5.19721 105.123 5.96516 104.443 6.59003C104.183 6.81006 103.902 7.00457 103.605 7.17085C103.428 7.26519 103.259 7.37637 103.103 7.50287C102.771 7.86907 102.523 8.30355 102.377 8.77582C102.231 9.24808 102.189 9.74667 102.256 10.2366C102.473 11.4585 102.891 12.6357 103.493 13.7201C104.441 15.6993 105.279 17.2775 106.707 18.1241C107.951 18.8929 109.554 19.0233 111.245 19.1563C113.312 19.3378 115.453 19.4948 117.269 20.8444C118.035 21.4632 118.719 22.1778 119.304 22.9707C120.111 23.969 120.812 24.8343 121.748 25.0608C122.519 25.2419 123.429 24.9558 124.392 24.6539C125.53 24.2017 126.757 24.0202 127.977 24.1237C129.5 24.3501 130.652 25.286 131.675 26.1126C132.006 26.3838 132.323 26.6383 132.638 26.8617C133.935 27.7445 135.449 28.2551 137.016 28.3381C138.582 28.4211 140.141 28.0735 141.525 27.3328C141.969 27.0832 142.412 26.782 142.877 26.4673C143.794 25.6671 144.884 25.0916 146.062 24.7863C147.239 24.4809 148.471 24.4542 149.661 24.7082C149.992 24.7373 150.319 24.766 150.651 24.7951C154.738 25.1076 159.237 23.0088 162.954 19.0431C164.43 17.4672 166.103 15.1048 165.677 12.8056C165.252 10.5063 162.776 8.83072 160.68 7.68838C159.428 7.00657 158.083 6.33716 156.692 6.24597C156.025 6.22758 155.357 6.26726 154.696 6.36449C153.361 6.51522 151.844 6.68604 150.405 6.03412C149.348 5.47173 148.433 4.67605 147.729 3.70729C147.405 3.31184 147.057 2.93708 146.686 2.58521C144.232 0.308794 140.227 0.869261 137.304 1.71523C136.204 2.12522 135.04 2.33029 133.867 2.3203L133.851 2.31896Z" fill="#231916"/>
<path d="M148.213 16.3579C148.912 17.7641 114.599 19.8476 99.2394 4.17534C83.8793 -11.4969 90.0875 -11.3847 90.0875 -11.3847C90.0875 -11.3847 101.282 5.1585 115.781 9.84226C133.541 15.5749 147.508 14.9564 148.213 16.3579Z" fill="#6C9373"/>
<path d="M90.7313 -12.5651L91.0774 -12.0555C91.1864 -11.8913 102.219 4.20998 116.15 8.69439C127.154 12.2366 136.746 13.3416 142.48 13.9944C147.155 14.5284 148.728 14.7078 149.279 15.8124C149.42 16.0988 149.453 16.427 149.37 16.7355C149.287 17.044 149.094 17.3117 148.829 17.4886C146.381 19.2419 113.524 20.4382 98.3902 5.0022C87.5101 -6.10327 87.179 -9.53809 87.8714 -11.157C88.0657 -11.5877 88.3809 -11.9524 88.7786 -12.2067C89.1763 -12.4609 89.6394 -12.5936 90.111 -12.5886L90.7313 -12.5651ZM139.709 16.0903C131.464 15.181 123.327 13.4675 115.414 10.9742C107.697 8.4831 100.947 2.71227 96.6478 -1.6892C94.3406 -4.04944 92.1865 -6.55505 90.1985 -9.19061C90.7256 -7.6965 92.7306 -4.17139 100.09 3.33771C110.295 13.7502 129.065 16.0111 139.709 16.0903Z" fill="#231916"/>
<path d="M412.799 22.3645C412.442 24.4877 410.679 26.2809 410.704 28.4153C410.726 30.0455 411.785 31.4862 412.012 33.0968C412.22 34.588 411.69 36.0798 411.056 37.444C409.45 40.8229 407.139 43.8208 404.28 46.2369C401.421 48.653 398.08 50.4316 394.479 51.4534C393.535 51.6395 392.625 51.9702 391.781 52.4339C390.442 53.3193 389.746 54.9384 388.458 55.8977C386.644 57.2488 384.11 56.9798 381.837 57.1835C378.675 57.4783 375.7 58.8215 373.387 60.9994C371.544 62.7363 370.029 65.0564 367.597 65.7701C365.743 66.3173 363.75 65.7789 361.819 65.9063C357.664 66.1879 353.913 69.5232 349.781 68.857C346.368 68.3001 343.99 65.1426 340.785 63.8016C338.333 62.7665 334.977 62.3916 334.241 59.8344C333.698 57.9423 335.082 55.9912 334.932 54.0312C334.79 52.1915 333.314 50.412 333.926 48.6864C334.538 46.9608 336.824 46.355 337.623 44.6996C337.901 43.9012 338.079 43.0713 338.151 42.2293C338.81 38.9763 341.876 36.911 344.695 35.1865C349.55 32.2388 354.525 29.218 360.092 28.1054C363.351 27.4417 366.802 27.4431 369.812 26.023C375.097 23.5239 378.219 17.0272 383.996 16.0966C385.5 15.8407 387.072 16.023 388.546 15.6082C389.891 15.2318 391.05 14.3966 392.273 13.7201C395.466 11.9857 399.13 11.3185 402.727 11.8163C404.528 11.9851 406.275 12.5191 407.861 13.3857C408.36 13.7283 408.772 14.1832 409.063 14.7137C409.562 15.4169 410.102 16.0897 410.681 16.7286C412.064 18.3014 413.162 20.2509 412.799 22.3645Z" fill="#8CC457"/>
<path d="M412.926 17.5083C413.926 18.9951 414.343 20.798 414.099 22.5742C413.871 23.643 413.483 24.6718 412.949 25.6259C412.456 26.5824 412.007 27.5126 412.001 28.4034C412.073 29.1399 412.269 29.8587 412.581 30.5296C412.917 31.2944 413.157 32.098 413.296 32.922C413.565 34.8293 412.867 36.6404 412.23 37.9998C410.551 41.5532 408.129 44.707 405.128 47.2488C402.128 49.7907 398.618 51.6615 394.836 52.7353L394.475 52.8358C393.778 52.9302 393.11 53.1806 392.522 53.5682C391.935 53.9558 391.442 54.4708 391.08 55.0747C390.563 55.7922 389.95 56.4361 389.259 56.9889C387.521 58.2807 385.384 58.3621 383.502 58.44C382.969 58.4615 382.465 58.4781 381.971 58.5215C379.101 58.7829 376.401 59.999 374.302 61.9751C373.848 62.4088 373.409 62.879 372.947 63.3764C371.554 64.8792 370.109 66.4142 367.979 67.0499C366.668 67.3688 365.31 67.4472 363.971 67.2814C363.285 67.2162 362.595 67.1959 361.906 67.2206C360.304 67.3258 358.713 67.9697 357.039 68.6509C354.692 69.6022 352.28 70.5741 349.588 70.144C347.29 69.7646 345.493 68.4431 343.756 67.1646C342.702 66.3144 341.552 65.5919 340.328 65.0122C339.795 64.7841 339.193 64.5843 338.56 64.377C336.324 63.6443 333.789 62.8102 333.041 60.201C332.639 58.8017 332.998 57.4729 333.312 56.3093C333.551 55.604 333.671 54.8645 333.669 54.1205C333.581 53.5019 333.411 52.8976 333.164 52.3236C332.723 51.1192 332.218 49.7561 332.727 48.2635C333.167 46.9708 334.178 46.206 335.065 45.5296C335.632 45.1683 336.117 44.6905 336.486 44.1279C336.644 43.7158 336.74 43.2829 336.772 42.8429C336.811 42.5496 336.851 42.2563 336.903 41.9744C337.635 38.2437 340.979 35.9434 344.056 34.0689C348.728 31.2322 354.025 28.0156 359.876 26.8166C360.939 26.6048 362.016 26.4576 363.062 26.3153C365.297 26.0164 367.412 25.7249 369.292 24.8401C371.339 23.8732 373.092 22.1841 374.927 20.4126C377.481 17.9483 380.118 15.3939 383.816 14.7921C384.5 14.6917 385.189 14.6312 385.879 14.6109C386.67 14.6087 387.458 14.5163 388.227 14.3354C389.099 14.0411 389.928 13.6348 390.694 13.1269C391.017 12.9311 391.339 12.7354 391.656 12.5426C395.098 10.676 399.045 9.95632 402.921 10.4884C404.913 10.6671 406.844 11.2614 408.59 12.2329C409.256 12.6775 409.809 13.2718 410.204 13.9681C410.521 14.4381 410.873 14.8836 411.257 15.3009L411.734 15.8592C412.172 16.3784 412.57 16.9296 412.926 17.5083ZM335.785 59.9482C336.322 60.832 337.608 61.313 339.411 61.9076C340.063 62.1235 340.745 62.3468 341.383 62.6168C342.795 63.276 344.124 64.0996 345.342 65.0706C346.9 66.2152 348.37 67.3015 350.046 67.5787C351.998 67.8985 353.985 67.0931 356.082 66.2407C357.881 65.5163 359.741 64.7617 361.765 64.6241C362.564 64.5869 363.365 64.6014 364.162 64.6675C365.195 64.7998 366.243 64.7547 367.262 64.534C368.704 64.1117 369.837 62.8852 371.036 61.5851C371.512 61.079 371.997 60.5545 372.501 60.0385C375.03 57.6584 378.285 56.1938 381.743 55.8794C382.297 55.8259 382.858 55.807 383.4 55.7874C385.05 55.7186 386.613 55.6571 387.699 54.8532C388.194 54.4268 388.633 53.9395 389.005 53.403C389.542 52.5781 390.244 51.8726 391.066 51.3305C391.888 50.7884 392.813 50.4213 393.783 50.2523L394.121 50.1586C397.541 49.188 400.715 47.4972 403.428 45.1998C406.142 42.9025 408.333 40.0518 409.853 36.8398C410.337 35.8033 410.868 34.4552 410.695 33.2261C410.577 32.6058 410.389 32.0012 410.134 31.4237C409.697 30.4648 409.439 29.4339 409.374 28.3817C409.351 26.8702 410 25.5627 410.58 24.4148C410.989 23.6883 411.293 22.9082 411.485 22.0975C411.719 20.7261 411.148 19.2322 409.724 17.5266L409.282 17.0058C408.819 16.4981 408.395 15.9556 408.014 15.3832C407.82 15.02 407.548 14.7047 407.217 14.4605C405.792 13.6837 404.22 13.2119 402.602 13.0751C399.284 12.6142 395.904 13.2269 392.956 14.8235C392.657 15.0047 392.359 15.1858 392.061 15.3669C390.3 16.6197 388.181 17.2697 386.021 17.2198C385.433 17.2342 384.846 17.2812 384.263 17.3606C381.36 17.8081 379.14 19.9976 376.774 22.2824C374.852 24.1065 372.898 26.0292 370.43 27.1924C368.184 28.254 365.774 28.5799 363.439 28.8997C362.388 29.0449 361.394 29.1752 360.43 29.3662C355.021 30.4478 350.158 33.414 345.458 36.2807C342.735 37.9343 340.042 39.7795 339.516 42.459C339.467 42.6926 339.438 42.9271 339.413 43.1789C339.353 43.8955 339.177 44.5978 338.89 45.2577C338.36 46.2066 337.605 47.0121 336.693 47.6042C336.018 48.1192 335.433 48.5662 335.267 49.1274C335.101 49.6885 335.346 50.5258 335.683 51.4387C336.017 52.2395 336.238 53.0826 336.341 53.9443C336.368 54.9804 336.216 56.0136 335.891 56.9984C335.626 57.9612 335.406 58.7917 335.604 59.4866C335.643 59.648 335.704 59.8033 335.785 59.9482Z" fill="#231916"/>
<path d="M424.64 23.7861C425.642 25.3811 426.433 27.0993 426.993 28.898C429.466 36.3433 430.003 44.9505 435.52 50.534C437.229 52.2639 439.387 53.6488 440.507 55.8084C441.769 58.1907 441.573 61.0775 442.598 63.5905C443.381 65.4552 444.81 66.9736 445.742 68.768C446.464 70.1614 446.883 71.6922 446.971 73.2598C447.059 74.8275 446.815 76.3966 446.253 77.8641C445.306 80.3062 443.457 82.5001 443.38 85.1172C443.327 86.9377 444.14 88.646 444.776 90.3438C447.288 97.0744 446.733 105.497 441.496 110.419C440.917 111.011 440.219 111.473 439.447 111.774C438.051 112.261 436.515 111.879 435.097 111.464C430.117 109.998 424.343 109.783 420.254 106.606C416.165 103.429 413.791 97.1537 413.022 92.0264C412.978 91.2435 412.742 90.4837 412.337 89.8131C411.81 89.1077 410.915 88.8161 410.112 88.4489C406.131 86.6199 403.891 82.3133 402.773 78.0751C402.298 76.2732 401.971 74.3682 402.393 72.5473C402.695 71.2333 403.373 70.0395 403.779 68.7548C404.181 67.3758 404.305 65.931 404.143 64.5045C403.981 63.0781 403.537 61.6985 402.836 60.4461C401.975 58.8653 400.756 57.4429 400.316 55.6986C399.68 53.1861 400.787 50.5745 402.087 48.3328C403.386 46.0911 404.945 43.8757 405.309 41.308C405.655 38.8629 404.875 36.4179 404.635 33.9608C404.286 29.6354 405.602 25.3372 408.316 21.9441C409.629 20.2357 411.261 18.7981 413.122 17.7115C413.429 17.4991 413.778 17.3552 414.145 17.29C414.512 17.2247 414.889 17.2395 415.25 17.3333C416.29 17.6137 417.306 17.9746 418.289 18.413C420.872 19.5681 423.074 21.431 424.64 23.7861Z" fill="#8CC457"/>
<path d="M426.047 23.576C426.956 25.1273 427.687 26.7757 428.228 28.4904C428.932 30.6264 429.493 32.8626 430.027 35.0229C431.43 40.5869 432.729 45.872 436.424 49.6367C436.92 50.1379 437.453 50.6157 438.019 51.1136C439.346 52.2799 440.73 53.5172 441.636 55.2153C442.318 56.6553 442.769 58.1946 442.969 59.7761C443.127 60.9074 443.407 62.0182 443.802 63.0895C444.254 64.0457 444.804 64.952 445.444 65.7935C445.985 66.5457 446.478 67.3302 446.923 68.1428C447.731 69.7007 448.2 71.4125 448.298 73.1654C448.396 74.9183 448.123 76.6727 447.494 78.3135C447.134 79.1948 446.721 80.0537 446.257 80.8855C445.482 82.3422 444.753 83.7118 444.698 85.1187C444.662 86.3704 445.159 87.6458 445.684 88.9972L446.011 89.8504C448.498 96.5175 448.348 105.739 442.406 111.332C441.689 112.048 440.831 112.607 439.886 112.974C438.123 113.584 436.317 113.169 434.734 112.677C433.285 112.242 431.799 111.942 430.217 111.614C426.446 110.827 422.564 110.009 419.469 107.622C414.957 104.117 412.529 97.3743 411.749 92.2075L411.714 91.9658C411.689 91.4817 411.559 91.0089 411.334 90.5798C410.971 90.2319 410.534 89.9715 410.055 89.8182L409.612 89.6203C404.82 87.4222 402.588 82.3028 401.552 78.3958C401.106 76.6949 400.65 74.4475 401.164 72.2356C401.376 71.4111 401.658 70.6063 402.008 69.8299C402.224 69.3176 402.424 68.8343 402.581 68.3446C403.278 65.8972 402.974 63.2752 401.737 61.0542C401.463 60.6027 401.18 60.1369 400.883 59.647C400.094 58.5383 399.49 57.3089 399.094 56.0067C398.295 52.857 399.802 49.7329 401.007 47.6605C401.221 47.287 401.444 46.9155 401.651 46.5527C402.742 44.7268 403.779 43.0064 404.059 41.1468C404.185 39.6211 404.079 38.0854 403.743 36.5924C403.605 35.7891 403.463 34.9483 403.379 34.1052C403.001 29.4446 404.416 24.8126 407.335 21.1527C408.763 19.3198 410.531 17.7794 412.543 16.6168C412.999 16.3179 413.512 16.1182 414.05 16.0306C414.588 15.9429 415.138 15.9694 415.665 16.1082C416.77 16.4085 417.85 16.7946 418.895 17.263C421.674 18.5331 424.041 20.5539 425.73 23.0978L426.047 23.576ZM431.894 48.0222C429.632 44.2951 428.546 39.9256 427.484 35.6601C426.963 33.5441 426.419 31.357 425.74 29.3172C425.222 27.6257 424.482 26.0103 423.541 24.5129C422.118 22.3831 420.127 20.6935 417.793 19.6346C416.875 19.2201 415.924 18.8805 414.951 18.6192C414.643 18.5362 414.397 18.5541 413.799 18.8913C412.084 19.8856 410.578 21.202 409.363 22.7678C406.859 25.8965 405.641 29.8588 405.956 33.8486C406.025 34.6021 406.155 35.3582 406.291 36.1566C406.691 37.9125 406.811 39.7208 406.646 41.5149C406.307 43.9166 405.087 45.9524 403.904 47.9196C403.688 48.2805 403.473 48.6415 403.251 49.013C402.288 50.682 401.05 53.1759 401.613 55.4044C401.949 56.4334 402.441 57.4048 403.072 58.285C403.364 58.7652 403.699 59.3176 404.02 59.8459C404.807 61.2506 405.305 62.7987 405.486 64.3993C405.666 65.9999 405.524 67.621 405.07 69.1673C404.878 69.7633 404.646 70.3248 404.421 70.8757C404.131 71.5181 403.893 72.1831 403.712 72.8642C403.332 74.5151 403.708 76.3504 404.062 77.779C404.952 81.1432 406.797 85.5379 410.685 87.299L411.076 87.476C411.984 87.7875 412.791 88.3374 413.412 89.068C413.916 89.8389 414.214 90.7258 414.279 91.6447L414.31 91.8691C415.01 96.5254 417.149 102.576 421.052 105.609C423.68 107.649 427.111 108.366 430.741 109.126C432.307 109.451 433.938 109.815 435.462 110.243C436.696 110.605 437.988 110.932 439.017 110.577C439.612 110.332 440.151 109.967 440.598 109.505C445.666 104.738 445.728 96.6943 443.544 90.8419L443.232 90.0253C442.63 88.4911 442.002 86.9139 442.065 85.1202C442.153 83.0951 443.038 81.3746 443.915 79.7177C444.332 78.9754 444.704 78.2091 445.031 77.4231C445.524 76.1308 445.74 74.7493 445.662 73.3692C445.584 71.989 445.216 70.6412 444.58 69.4141C444.179 68.6954 443.737 68.0001 443.257 67.332C441.655 65.2963 440.659 62.8514 440.382 60.2757C440.222 58.9631 439.862 57.6829 439.315 56.4797C438.633 55.2045 437.49 54.1895 436.271 53.1151C435.696 52.6028 435.101 52.0771 434.556 51.527C433.538 50.4638 432.648 49.2857 431.904 48.0163L431.894 48.0222Z" fill="#231916"/>
<path d="M422.131 95.5213C422.131 95.5213 412.592 59.3875 414.814 41.2893C417.035 23.1912 426.614 -9.83921 426.614 -9.83921L430.411 -9.00893C430.411 -9.00893 420.323 34.2036 419.165 44.6162C416.636 67.3053 426.255 93.5499 422.131 95.5213Z" fill="#8CC457"/>
<path d="M431.987 -10.0251L431.688 -8.73909C431.582 -8.30653 421.601 34.5187 420.468 44.7451C419.121 56.8759 421.329 70.253 422.943 80.0144C424.577 89.9078 425.476 95.3573 422.698 96.6824L421.274 97.363L420.874 95.8373C420.481 94.354 411.294 59.2554 413.538 41.1302C415.777 23.1264 425.279 -9.86981 425.373 -10.203L425.719 -11.3793L431.987 -10.0251ZM421.291 86.3615C421.012 84.4147 420.666 82.3498 420.335 80.4477C418.694 70.5321 416.453 56.9508 417.839 44.4611C418.897 34.9775 427.101 -0.642766 428.814 -8.02662L427.513 -8.31474C425.8 -2.26521 418.054 25.5633 416.097 41.4299C414.613 53.6705 418.639 74.575 421.289 86.3895L421.291 86.3615Z" fill="#231916"/>
<path d="M349.156 52.9676C349.156 52.9676 384.123 39.625 397.573 27.2975C411.023 14.9701 434.795 -10.3562 434.795 -10.3562L431.905 -12.9466C431.905 -12.9466 400.135 18.7082 392.331 25.7144C375.334 40.9845 348.355 48.471 349.156 52.9676Z" fill="#8CC457"/>
<path d="M436.67 -10.436L435.752 -9.46439C435.512 -9.20745 411.782 16.0144 398.459 28.2582C384.991 40.6427 351.054 53.6426 349.621 54.1902L348.145 54.7516L347.862 53.2011C347.337 50.1673 352.287 47.7339 361.287 43.2947C370.183 38.912 382.364 32.91 391.454 24.7478C399.121 17.8515 430.676 -13.5282 430.977 -13.8685L431.855 -14.7434L436.67 -10.436ZM357.098 48.316C368.259 43.5841 387.656 34.6529 396.711 26.3222C408.469 15.5148 428.441 -5.5184 432.945 -10.291L431.97 -11.1586C426.786 -5.99913 400.236 20.3823 393.225 26.6769C383.847 35.0925 371.502 41.1812 362.467 45.6284C360.71 46.498 358.828 47.4234 357.079 48.3277L357.098 48.316Z" fill="#231916"/>
<path d="M404.546 12.7628C404.157 14.9315 403.032 16.8964 401.87 18.7786C399.283 22.9785 395.762 27.3845 390.868 27.7728C386.351 28.1424 381.619 24.948 377.526 26.8942C374.314 28.4167 372.789 32.6622 369.332 33.4862C366.526 34.1578 363.773 32.2597 360.878 32.1442C355.873 31.9817 351.749 37.2601 346.784 36.6528C344.807 36.4132 343.088 35.2618 341.446 34.1418L335.984 30.4177C334.909 29.677 333.745 28.8983 332.419 28.9931C331.657 29.1142 330.909 29.3149 330.188 29.5918C327.891 30.244 325.395 29.6035 323.3 28.4631C316.825 24.9467 313.667 16.3399 316.333 9.46221C317.512 6.42586 319.629 3.8389 321.95 1.55536C323.675 -0.149009 325.629 -1.75645 327.978 -2.36744C332.812 -3.61339 338.009 -0.32639 342.796 -1.74752C346.289 -2.78386 348.676 -6.08684 352.033 -7.50028C354.111 -8.36799 356.432 -8.46107 358.571 -7.76255C360.511 -7.12641 362.176 -5.8696 364.003 -4.95415C365.83 -4.0387 368.029 -3.45429 369.895 -4.28508C372.655 -5.48763 373.843 -9.3117 376.808 -9.86279C380.526 -10.5823 382.968 -5.71484 386.664 -4.90904C390.361 -4.10323 394.684 -7.80654 398.036 -5.77906C399.09 -5.03659 399.906 -4.00485 400.386 -2.80837C401.424 -0.647978 402.127 1.65815 402.471 4.0309C402.602 4.96337 402.561 5.94796 403.066 6.77886C403.587 7.48381 404.018 8.25142 404.348 9.06373C404.712 10.2621 404.78 11.5314 404.546 12.7628Z" fill="#BFDDAF"/>
<path d="M400.916 -4.54983C401.161 -4.14639 401.368 -3.73983 401.547 -3.36876C402.644 -1.09098 403.383 1.34187 403.741 3.84492C403.779 4.09151 403.799 4.34202 403.827 4.59444C403.83 5.11092 403.942 5.62082 404.156 6.09071C404.267 6.27322 404.378 6.45568 404.486 6.63338C404.935 7.25573 405.293 7.93969 405.548 8.66415C405.989 10.0591 406.079 11.5415 405.811 12.9807C405.377 15.4004 404.168 17.5085 402.96 19.4576C400.54 23.3662 396.665 28.6112 390.931 29.0817C388.855 29.2514 386.828 28.7662 384.871 28.2979C382.381 27.6998 380.03 27.1356 378.041 28.0799C376.831 28.657 375.843 29.763 374.802 30.934C373.366 32.5488 371.884 34.218 369.585 34.7593C367.606 35.2311 365.776 34.6792 364.003 34.1452C362.968 33.7813 361.89 33.5519 360.796 33.4627C358.736 33.399 356.742 34.4648 354.633 35.6008C352.152 36.9366 349.563 38.3242 346.58 37.9662C344.247 37.6805 342.282 36.3099 340.666 35.2331L335.205 31.5091C334.193 30.8085 333.3 30.2595 332.456 30.3119C332.044 30.3614 331.64 30.4653 331.254 30.6209C331.004 30.7073 330.753 30.7936 330.499 30.8626C328.132 31.5306 325.337 31.0915 322.634 29.6232C315.549 25.7739 312.159 16.5255 315.074 9.00421C316.165 6.19206 318.046 3.5313 320.994 0.630789C322.723 -1.0765 324.868 -2.91163 327.625 -3.63211C330.381 -4.35258 332.936 -3.80017 335.499 -3.29892C338.062 -2.79766 340.274 -2.36563 342.399 -2.99841C344.07 -3.50021 345.484 -4.60883 346.999 -5.79131C348.36 -6.96091 349.875 -7.94014 351.5 -8.70214C353.872 -9.68801 356.517 -9.79465 358.957 -9.00277C360.274 -8.52103 361.536 -7.89831 362.719 -7.1455C363.352 -6.77429 363.946 -6.42501 364.562 -6.1154C365.886 -5.45336 367.796 -4.79194 369.348 -5.47813C370.326 -5.90729 371.148 -6.85326 371.988 -7.84367C373.14 -9.20038 374.477 -10.7414 376.532 -11.1414C379.236 -11.6659 381.314 -9.96907 383.15 -8.47425C384.433 -7.4456 385.616 -6.46165 386.928 -6.16686C388.24 -5.87206 389.861 -6.33693 391.514 -6.83477C393.782 -7.51469 396.35 -8.28511 398.691 -6.88011C399.61 -6.29469 400.374 -5.49511 400.916 -4.54983ZM401.922 7.45393C401.489 6.65552 401.251 5.76611 401.228 4.85796L401.163 4.24034C400.844 1.99596 400.185 -0.186326 399.209 -2.23147C398.832 -3.19174 398.192 -4.0266 397.364 -4.64115C396.015 -5.45248 394.287 -4.93586 392.281 -4.33562C390.472 -3.7896 388.421 -3.17558 386.388 -3.61737C384.476 -4.03387 382.978 -5.25408 381.523 -6.43498C379.93 -7.73557 378.559 -8.85525 377.058 -8.56175C375.883 -8.32808 375.018 -7.32307 374.009 -6.13208C373 -4.94109 371.952 -3.73927 370.42 -3.07248C368.458 -2.21605 366.032 -2.45874 363.413 -3.76758C362.721 -4.11626 362.058 -4.50272 361.421 -4.87873C360.392 -5.53464 359.296 -6.08121 358.153 -6.50952C356.314 -7.10341 354.322 -7.0223 352.536 -6.28077C351.128 -5.60234 349.815 -4.74121 348.632 -3.71965C346.991 -2.44097 345.297 -1.10988 343.164 -0.478982C340.421 0.338785 337.671 -0.199935 335.018 -0.718963C332.634 -1.18467 330.387 -1.6213 328.302 -1.08518C326.217 -0.549056 324.33 1.05027 322.865 2.49854C320.189 5.12939 318.503 7.4939 317.552 9.95138C315.139 16.1825 318.04 24.117 323.922 27.3294C325.14 27.9902 327.524 29.0006 329.812 28.3543C330.019 28.2943 330.221 28.2246 330.427 28.152C331.034 27.9184 331.67 27.7689 332.317 27.7077C334.126 27.5955 335.679 28.6572 336.703 29.3568L342.165 33.0808C343.595 34.0594 345.219 35.1709 346.922 35.3727C349.065 35.6489 351.184 34.5071 353.411 33.3059C355.736 32.0587 358.133 30.7678 360.9 30.8561C362.227 30.9527 363.536 31.2231 364.793 31.6607C366.294 32.1163 367.706 32.5214 369.008 32.2368C370.496 31.8788 371.648 30.5876 372.878 29.2295C374.108 27.8713 375.26 26.5474 376.952 25.7437C379.774 24.4048 382.69 25.1064 385.54 25.7882C387.384 26.233 389.117 26.6468 390.775 26.5143C395.33 26.1416 398.669 21.5438 400.786 18.1219C401.862 16.3906 402.938 14.5282 403.288 12.567C403.48 11.5492 403.42 10.5002 403.112 9.51189C402.925 9.01271 402.67 8.5416 402.354 8.11173C402.232 7.91 402.106 7.70347 401.981 7.49694L401.922 7.45393Z" fill="#231916"/>
<path d="M428.664 -7.42889C428.664 -7.42889 396.571 18.5648 367.041 18.8119C336.812 19.069 327.501 15.1117 327.405 12.7185C327.405 12.7185 364.77 17.9685 381.869 12.7139C398.968 7.45919 427.112 -9.49711 427.112 -9.49711L428.664 -7.42889Z" fill="#8CC457"/>
<path d="M430.464 -7.20723L429.484 -6.41457C423.19 -1.52546 416.53 2.87232 409.562 6.7397C398.737 12.773 382.581 19.9926 367.047 20.1232C341.602 20.3417 326.293 17.6008 326.097 12.7767L326.035 11.2103L327.587 11.4246C327.96 11.4744 364.863 16.5712 381.487 11.4669C398.24 6.32421 426.139 -10.4378 426.437 -10.619L427.452 -11.2354L430.464 -7.20723ZM333.096 14.7387C334.159 15.0465 335.455 15.3704 337.09 15.6661C344.08 16.9832 354.434 17.6253 367.023 17.5145C392.887 17.2915 421.223 -3.37108 426.815 -7.65373L426.754 -7.75457C421.487 -4.62889 397.67 9.24697 382.252 14.0065C375.032 16.2146 363.535 16.9108 348.146 16.033C342.278 15.6646 336.922 15.1503 333.096 14.7387Z" fill="#231916"/>
<path d="M430.538 17.2737C431.921 16.9597 433.285 16.375 434.698 16.4571C437.983 16.6512 439.869 20.1144 441.658 22.8667C442.118 23.6374 442.697 24.3308 443.373 24.9215C444.436 25.7818 445.795 26.1659 447.04 26.7311C448.982 27.5615 450.62 28.9707 451.73 30.7664C452.272 31.6652 452.609 32.6733 452.715 33.7182C452.821 34.763 452.694 35.8188 452.343 36.8096C451.98 37.6872 451.425 38.5505 451.361 39.5295C451.297 41.2248 452.857 42.46 454.201 43.4912C457.406 45.9621 460.479 49.4933 460.022 53.5241C459.832 55.25 459.004 56.9557 459.357 58.6543C459.795 60.7746 461.897 62.0885 463.068 63.9084C464.008 65.3816 464.33 67.1585 464.576 68.9088C464.98 71.95 465.072 75.4636 462.951 77.718C460.904 79.9005 457.526 80.1176 454.558 79.7635C449.074 79.1034 443.471 76.6876 440.537 72.0072C439.811 70.8113 439.223 69.4854 438.191 68.5343C436.745 67.2366 434.719 66.8825 432.952 66.0757C431.171 65.2361 429.658 63.9209 428.58 62.2752C427.502 60.6296 426.9 58.7175 426.842 56.7502C426.816 54.9513 427.218 53.0313 426.389 51.4378C425.284 49.3476 422.386 48.6093 421.469 46.4379C420.517 44.1761 422.159 41.6739 422.189 39.2172C422.239 35.2428 418.07 32.2388 417.753 28.257C417.569 25.9896 418.674 23.8397 419.742 21.8366C420.376 20.4657 421.238 19.2127 422.293 18.1315C422.83 17.6187 423.474 17.2314 424.179 16.998C424.883 16.7646 425.631 16.6909 426.367 16.7822C426.972 16.8884 427.496 17.2536 428.103 17.3849C428.912 17.529 429.744 17.491 430.538 17.2737Z" fill="#BFDDAF"/>
<path d="M452.766 29.9464L452.854 30.0905C453.498 31.1583 453.896 32.3569 454.018 33.5988C454.14 34.8407 453.982 36.0945 453.557 37.2687C453.437 37.5587 453.306 37.842 453.185 38.1522C452.941 38.585 452.782 39.0606 452.718 39.5529C452.66 40.5415 453.755 41.4344 455.054 42.434C458.227 44.8724 461.899 48.7953 461.373 53.644C461.288 54.3149 461.159 54.9795 460.987 55.6334C460.689 56.5128 460.581 57.4452 460.672 58.3686C460.879 59.3604 461.64 60.18 462.523 61.1359C463.144 61.7672 463.706 62.4534 464.203 63.186C465.315 64.9099 465.662 66.9343 465.911 68.7222C466.341 71.8925 466.507 75.8742 463.946 78.5988C461.949 80.7319 458.735 81.566 454.458 81.0732C447.744 80.2654 442.288 77.222 439.498 72.7037C439.291 72.3627 439.084 72.0217 438.877 71.6807C438.484 70.7362 437.861 69.9049 437.065 69.2622C436.269 68.6196 435.325 68.1858 434.318 68.0003C433.712 67.7832 433.083 67.5605 432.464 67.2789C430.457 66.3397 428.751 64.8616 427.537 63.0093C426.323 61.1571 425.648 59.0034 425.587 56.7885C425.578 56.2747 425.622 55.7615 425.629 55.2843C425.681 54.0692 425.737 52.9245 425.281 52.0644C424.753 51.2798 424.062 50.6186 423.254 50.1262C422.169 49.3258 420.916 48.4436 420.318 46.9596C419.558 45.1661 420.039 43.3555 420.455 41.7622C420.714 40.937 420.872 40.0836 420.927 39.2208C420.945 37.5268 419.959 35.9237 418.909 34.2274C417.824 32.4407 416.698 30.5868 416.498 28.3812C416.277 25.6628 417.584 23.206 418.636 21.2396C419.334 19.7399 420.285 18.371 421.447 17.1927C422.131 16.5442 422.951 16.0572 423.848 15.7676C424.744 15.478 425.695 15.3932 426.628 15.5195C427.042 15.6031 427.446 15.7356 427.829 15.9142C428.017 16.0051 428.213 16.0775 428.415 16.1305C429.032 16.2432 429.667 16.219 430.275 16.0595C430.652 15.9752 431.026 15.866 431.406 15.7538C432.499 15.3737 433.651 15.1885 434.808 15.2068C438.461 15.4209 440.589 18.7631 442.297 21.4465L442.767 22.2197C443.156 22.8745 443.643 23.4654 444.212 23.9715C444.916 24.4732 445.689 24.8696 446.507 25.1483C446.876 25.2993 447.241 25.4456 447.598 25.6102C449.716 26.5073 451.516 28.0174 452.766 29.9464ZM450.708 41.8057C450.264 41.104 450.04 40.2856 450.064 39.4553C450.139 38.6035 450.394 37.777 450.811 37.0299C450.918 36.794 451.028 36.5629 451.122 36.328C451.402 35.5168 451.498 34.6541 451.404 33.8018C451.31 32.9496 451.028 32.1289 450.579 31.3989C449.603 29.8383 448.171 28.6153 446.476 27.8951C446.148 27.7458 445.829 27.6311 445.481 27.4808C444.429 27.1015 443.439 26.5681 442.544 25.8982C441.761 25.2222 441.09 24.4276 440.554 23.5433L440.076 22.7556C438.539 20.3431 436.947 17.8519 434.631 17.7136C433.771 17.7274 432.919 17.8807 432.108 18.1675C431.69 18.2828 431.271 18.4059 430.847 18.4991C429.865 18.7469 428.84 18.7741 427.847 18.5789C427.483 18.4918 427.129 18.37 426.789 18.2151C426.591 18.1193 426.383 18.0427 426.17 17.9865C425.631 17.9309 425.086 17.9938 424.573 18.171C424.061 18.3481 423.593 18.6352 423.203 19.0119C422.264 19.9965 421.494 21.1301 420.927 22.3664C419.792 24.4885 418.941 26.2541 419.119 28.0655C419.247 29.6642 420.172 31.1665 421.152 32.7475C422.333 34.6926 423.583 36.6875 423.568 39.1683C423.519 40.2472 423.331 41.3156 423.009 42.3474C422.651 43.7089 422.34 44.8899 422.748 45.8651C423.088 46.6642 423.932 47.2828 424.823 47.9379C425.962 48.6505 426.918 49.6176 427.619 50.7631C428.407 52.2566 428.327 53.8825 428.26 55.3233C428.235 55.792 428.216 56.2375 428.223 56.6607C428.285 58.3807 428.816 60.0503 429.759 61.489C430.702 62.9277 432.021 64.0807 433.574 64.8233C434.083 65.0535 434.636 65.2498 435.216 65.4564C436.519 65.748 437.736 66.3385 438.77 67.1813C439.804 68.024 440.627 69.0959 441.174 70.3122C441.364 70.6244 441.55 70.9318 441.74 71.244C444.116 75.06 448.892 77.6756 454.81 78.388C457.16 78.6697 460.335 78.6159 462.091 76.7474C463.848 74.879 463.722 71.6027 463.372 69.0085C463.162 67.4594 462.881 65.8357 462.059 64.5468C461.642 63.9449 461.174 63.3803 460.659 62.8594C459.66 61.777 458.524 60.5469 458.166 58.8513C457.978 57.5523 458.087 56.227 458.487 54.9756C458.626 54.4324 458.731 53.8812 458.802 53.3251C459.222 49.6782 456.127 46.5019 453.482 44.4663C452.406 43.7604 451.469 42.8636 450.716 41.8201L450.708 41.8057Z" fill="#231916"/>
<path d="M447.617 63.6133C446.828 65.1443 422.717 36.1616 426.604 12.4114C430.491 -11.3387 434.421 -5.77747 434.421 -5.77747C434.421 -5.77747 427.061 14.8556 432.33 30.7132C438.788 50.1346 448.398 62.0805 447.617 63.6133Z" fill="#8CC457"/>
<path d="M435.882 -5.97401L435.656 -5.33727C435.582 -5.13437 428.508 15.0689 433.583 30.2942C437.593 42.3213 442.842 51.5189 445.986 57.0117C448.547 61.4908 449.41 62.9982 448.791 64.2023C448.629 64.513 448.36 64.7544 448.034 64.8813C447.707 65.0082 447.346 65.0119 447.017 64.8918C443.878 63.8657 421.497 35.5947 425.322 12.1977C428.079 -4.62813 430.901 -7.14997 432.781 -7.58845C433.288 -7.69622 433.815 -7.65425 434.298 -7.46764C434.781 -7.28103 435.199 -6.95783 435.5 -6.53759L435.882 -5.97401ZM442.335 55.9221C437.787 48.0426 434.022 39.7372 431.091 31.1239C428.285 22.6847 429.006 12.9718 430.107 6.31474C430.696 2.74336 431.513 -0.787109 432.553 -4.25509C431.574 -2.8194 429.759 1.24083 427.896 12.6199C425.314 28.3996 435.497 46.4603 442.335 55.9221Z" fill="#231916"/>
</g>
<path d="M277.552 45.1867C277.552 45.1867 273.982 36.1063 270.538 34.2021C269.594 33.645 268.521 33.3438 267.425 33.3284C266.329 33.313 265.248 33.5838 264.289 34.1142C264.289 34.1142 259.488 30.5586 265.324 26.7182C271.16 22.8778 273.487 22.4423 273.906 25.4569C274.326 28.4716 283.612 42.5004 283.612 42.5004L277.552 45.1867Z" fill="#804F21"/>
<path d="M285.505 43.0514L276.853 46.8886L276.367 45.6572C276.367 45.6572 275.476 43.4029 274.198 40.9864C272.056 36.9293 270.598 35.6955 269.921 35.3229C269.177 34.8717 268.329 34.6218 267.459 34.5977C266.59 34.5736 265.729 34.7761 264.961 35.1854L264.225 35.6652L263.525 35.1356C263.421 35.0687 261.081 33.3028 261.15 30.6626C261.197 28.8251 262.362 27.1397 264.614 25.6548C269.317 22.5612 271.694 21.6939 273.388 22.4609C274.365 22.9028 274.96 23.8511 275.161 25.2837C275.307 26.3373 278.016 31.7509 284.664 41.7933L285.505 43.0514ZM278.208 43.4993L281.701 41.9475C279.149 38.0346 273.003 28.3942 272.625 25.6357C272.55 25.041 272.392 24.8155 272.325 24.7855C272.009 24.6416 270.764 24.651 266.004 27.7903C264.952 28.4888 263.721 29.5303 263.683 30.7354C263.718 31.4344 264.011 32.0955 264.505 32.5918C265.576 32.1708 266.729 31.9973 267.876 32.0843C269.024 32.1714 270.137 32.5166 271.133 33.0943C274.199 34.7732 277.068 40.7995 278.208 43.4993Z" fill="#231916"/>
<path d="M287.788 136.306C287.788 136.306 315.933 127 314.901 86.9373C313.869 46.8743 284.894 33.9514 278.336 39.1807C271.779 44.4099 277.331 60.2297 280.002 67.4453C282.673 74.6609 286.163 89.2935 283.405 104.059C280.647 118.824 271.324 138.382 287.788 136.306Z" fill="#FCD13F"/>
<path d="M307.743 121.012C306.251 123.332 304.549 125.509 302.658 127.517C295.609 135.003 288.476 137.411 288.186 137.518L288.069 137.557L287.947 137.57C283.74 138.101 280.807 137.348 278.982 135.267C275.252 131.025 277.501 122.449 279.887 113.364C280.725 110.164 281.591 106.858 282.162 103.817C284.631 90.6231 282.053 76.597 278.821 67.8677C275.052 57.6863 270.82 43.5346 277.566 38.1473C280.154 36.0851 285.095 36.3576 290.465 38.8616C296.86 41.8389 302.826 47.3751 307.254 54.4485C312.866 63.4005 315.874 74.307 316.181 86.8592C316.421 96.1646 315.114 104.61 312.295 111.961C311.097 115.129 309.572 118.162 307.743 121.012ZM287.503 135.062C289.935 134.217 295.694 131.235 300.901 125.673C304.843 121.421 307.915 116.44 309.945 111.01C312.62 104.016 313.859 95.903 313.63 86.9718C313.317 74.87 310.439 64.3959 305.074 55.837C299.443 46.8499 292.822 42.8138 289.366 41.205C284.333 38.8767 280.605 39.0008 279.131 40.1753C273.057 45.0185 279.182 61.5656 281.197 67.0004C284.544 76.0425 287.209 90.6106 284.668 104.313C284.084 107.438 283.207 110.792 282.358 114.03C280.252 122.062 278.075 130.368 280.91 133.601C282.094 134.961 284.266 135.449 287.503 135.062Z" fill="#231916"/>
<path d="M277.559 130.921C277.559 130.921 287.042 129.387 288.163 133.854C289.283 138.322 280.535 139.99 279.35 138.354C278.166 136.718 274.236 136.428 277.559 130.921Z" fill="#6A3907"/>
<path d="M288.849 136.889C288.132 137.906 287.143 138.699 285.995 139.179C284.683 139.78 283.27 140.13 281.829 140.21C280.636 140.266 279.063 140.115 278.312 139.075C278.048 138.787 277.746 138.537 277.415 138.331C275.443 136.926 273.577 135.03 276.467 130.244L276.77 129.738L277.349 129.652C279.066 129.403 280.804 129.331 282.536 129.436C287.448 129.782 288.982 131.858 289.403 133.539C289.553 134.105 289.581 134.696 289.486 135.274C289.39 135.851 289.173 136.402 288.849 136.889ZM280.336 137.544C280.963 137.888 283.964 137.704 285.856 136.363C287.235 135.385 287.013 134.498 286.927 134.163C286.338 131.824 281.243 131.741 278.35 132.092C277.666 133.344 277.402 134.316 277.584 134.93C277.737 135.455 278.273 135.833 278.893 136.274C279.436 136.62 279.923 137.049 280.336 137.544Z" fill="#231916"/>
<path d="M284.954 129.238C284.954 129.238 303.609 106.851 304.816 92.3424C308.267 50.9713 278.308 42.3061 278.308 42.3061C278.308 42.3061 281.162 54.4173 288.615 85.5197C293.743 106.935 284.954 129.238 284.954 129.238Z" fill="#F9BF3E"/>
<path d="M297.276 75.6264C295.24 76.285 293.142 76.7324 291.014 76.9615L290.739 74.4068C292.692 74.1963 294.618 73.7853 296.486 73.1801L297.276 75.6264Z" fill="#231916"/>
<path d="M305.838 78.9311C305.013 79.4784 304.223 80.0774 303.474 80.7247C301.69 82.2035 299.85 83.7334 296.122 84.7026C291.909 85.8129 290.015 84.6735 287.815 83.3516C287.589 83.2052 287.341 83.0689 287.092 82.9218L288.387 80.7006C288.64 80.8636 288.899 81.003 289.139 81.1491C291.124 82.3417 292.301 83.0502 295.466 82.219C298.632 81.3878 300.197 80.0931 301.84 78.7394C302.673 78.0259 303.548 77.3644 304.462 76.759L305.838 78.9311Z" fill="#231916"/>
<path d="M285.374 72.9477C285.591 73.2794 285.902 73.5394 286.266 73.6948C286.631 73.8502 287.033 73.894 287.423 73.8208C287.813 73.7476 288.172 73.5606 288.455 73.2834C288.738 73.0062 288.933 72.6512 289.015 72.2634C289.097 71.8755 289.062 71.4722 288.914 71.1042C288.767 70.7363 288.514 70.4202 288.187 70.196C287.86 69.9718 287.474 69.8495 287.078 69.8446C286.681 69.8396 286.292 69.9522 285.96 70.1682C285.514 70.4592 285.202 70.9155 285.092 71.4367C284.982 71.9579 285.084 72.5014 285.374 72.9477Z" fill="#231916"/>
<path d="M297.351 69.5618C297.568 69.8943 297.878 70.1552 298.242 70.3115C298.607 70.4678 299.01 70.5124 299.4 70.4398C299.79 70.3671 300.149 70.1805 300.433 69.9034C300.717 69.6264 300.912 69.2713 300.994 68.8832C301.076 68.4952 301.042 68.0915 300.894 67.7232C300.747 67.3549 300.494 67.0386 300.166 66.8143C299.839 66.5899 299.453 66.4677 299.056 66.4629C298.66 66.4582 298.271 66.5711 297.938 66.7876C297.492 67.0777 297.18 67.5329 297.07 68.0532C296.96 68.5734 297.061 69.1161 297.351 69.5618Z" fill="#231916"/>
<path d="M323.254 95.4959C320.386 93.0908 316.886 91.1874 316.431 91.9079C315.808 92.7593 311.61 98.4361 311.795 100.079C311.901 101.111 312.065 102.136 312.288 103.15C312.487 104.136 311.843 105.64 311.843 105.64L305.967 115.562C310.132 122.012 316.754 118.76 316.754 118.76C316.754 118.76 318.711 111.762 320.035 109.404C321.359 107.045 321.897 106.786 322.823 106.048C323.749 105.31 325.232 103.252 326.008 102.091C326.784 100.93 326.122 97.901 323.254 95.4959Z" fill="#FCD13F"/>
<path d="M317.837 119.656L317.325 119.909C315.941 120.523 314.445 120.844 312.931 120.852C310.631 120.86 307.363 120.065 304.889 116.244L304.462 115.583L310.694 105.059C310.924 104.533 311.039 103.964 311.031 103.39L310.971 103.085C310.771 102.141 310.62 101.186 310.521 100.225C310.458 99.611 310.278 98.1461 315.327 91.2506L315.377 91.1728C315.505 90.9924 315.669 90.84 315.858 90.7253C316.047 90.6106 316.258 90.5358 316.477 90.5057C318.337 90.2185 322.248 93.0068 324.056 94.5219C327.424 97.3408 328.254 100.978 327.106 102.758L327.085 102.79C326.596 103.548 324.855 106.064 323.634 107.039L323.357 107.255C322.662 107.799 322.241 108.124 321.162 110.025C320.128 111.841 318.514 117.197 317.979 119.11L317.837 119.656ZM307.483 115.503C310.374 119.281 314.324 118.322 315.711 117.822C316.228 116.039 317.785 110.835 318.963 108.767C320.229 106.541 320.866 105.979 321.807 105.246L322.06 105.047C322.752 104.493 324.06 102.757 324.981 101.378C325.255 100.953 324.991 98.6305 322.433 96.4764C320.169 94.5574 318.03 93.4068 317.129 93.1103C313.277 98.4278 313.067 99.8206 313.059 99.962C313.147 100.843 313.286 101.719 313.474 102.584L313.535 102.894C313.801 104.204 313.148 105.829 313.017 106.139L312.971 106.211L307.483 115.503Z" fill="#231916"/>
<path d="M324.566 92.7995C324.301 92.051 323.814 91.4009 323.171 90.9358C321.93 90.1352 321.123 91.5061 321.123 91.5061L317.687 97.4816C317.687 97.4816 316.505 98.9726 317.721 99.7982C318.937 100.624 319.791 99.8202 320.122 99.414C320.452 99.0078 324.566 92.7995 324.566 92.7995Z" fill="#FCD13F"/>
<path d="M325.964 92.9941L325.634 93.5062C324.657 94.978 321.453 99.8043 321.112 100.227C320.015 101.585 318.401 101.833 316.996 100.858C316.712 100.671 316.47 100.426 316.287 100.139C316.103 99.8527 315.982 99.5306 315.931 99.194C315.854 98.3306 316.103 97.4697 316.629 96.7807L320.028 90.8774C320.432 90.1904 321.086 89.6863 321.853 89.4707C322.202 89.3891 322.564 89.3823 322.915 89.4508C323.266 89.5192 323.599 89.6612 323.892 89.8676C324.779 90.4924 325.447 91.3809 325.801 92.4071L325.964 92.9941ZM318.448 98.7706C318.675 98.9169 318.814 99.0068 319.122 98.6224C319.36 98.3171 321.556 95.0337 323.11 92.6951C322.948 92.4212 322.73 92.184 322.471 91.9988C322.452 91.9836 322.431 91.9704 322.41 91.9591C322.34 92.0132 322.277 92.0764 322.224 92.147L318.748 98.1927L318.695 98.2737C318.581 98.4215 318.497 98.5904 318.448 98.7706Z" fill="#231916"/>
<path d="M320.635 90.4565C320.607 90.1386 320.495 89.8337 320.311 89.573C320.127 89.3124 319.877 89.1052 319.586 88.9727C318.29 88.2649 316.954 89.4962 316.954 89.4962L314.529 96.0458C314.529 96.0458 313.47 97.6302 314.743 98.3682C316.015 99.1063 316.808 98.2181 317.102 97.7836C317.396 97.3491 320.635 90.4565 320.635 90.4565Z" fill="#FCD13F"/>
<path d="M318.154 98.48C317.174 99.922 315.597 100.31 314.105 99.4433C313.806 99.2794 313.545 99.0545 313.339 98.7832C313.133 98.5119 312.986 98.2003 312.908 97.8687C312.764 97.0365 312.931 96.1805 313.377 95.4632L315.876 88.7413L316.107 88.5323C316.856 87.8545 318.568 86.9437 320.22 87.8483C320.715 88.0894 321.136 88.4607 321.437 88.9224C321.738 89.3842 321.909 89.9191 321.929 90.47L321.924 90.7417L321.808 90.9927C320.569 93.5758 318.503 97.9387 318.154 98.48ZM315.374 97.261C315.601 97.4073 315.752 97.4724 316.024 97.0789C316.296 96.6853 317.845 93.3797 319.279 90.3391C319.199 90.2352 319.095 90.1515 318.977 90.0944C318.673 89.9257 318.259 90.1267 318.009 90.2867L315.661 96.6244L315.58 96.7508C315.48 96.9067 315.41 97.0797 315.374 97.261Z" fill="#231916"/>
<path d="M313.802 94.3977C313.607 94.145 313.349 93.9489 313.053 93.8299C312.757 93.7108 312.434 93.673 312.119 93.7204C310.644 93.8295 310.2 95.3286 310.2 95.3286L311.453 100.267C311.453 100.267 311.423 102.17 312.889 102.111C314.355 102.051 314.534 100.877 314.555 100.339C314.575 99.8021 313.802 94.3977 313.802 94.3977Z" fill="#FCD13F"/>
<path d="M315.339 102.084C315.076 102.476 314.722 102.798 314.307 103.022C313.892 103.246 313.429 103.366 312.958 103.371C312.618 103.394 312.277 103.346 311.956 103.231C311.636 103.115 311.343 102.934 311.097 102.698C310.527 102.083 310.202 101.281 310.183 100.443L308.883 95.3004L308.981 94.964C309.179 94.2893 309.575 93.6895 310.117 93.2418C310.659 92.7941 311.323 92.519 312.023 92.452C312.569 92.3843 313.123 92.4665 313.626 92.6897C314.129 92.9129 314.562 93.2687 314.878 93.719L315.022 93.95L315.063 94.2147C315.354 96.2749 315.843 99.8073 315.83 100.354C315.83 100.965 315.66 101.564 315.339 102.084ZM312.841 100.826C313.111 100.813 313.27 100.801 313.286 100.315C313.271 99.9106 312.942 97.4038 312.606 95.0351C312.479 94.9935 312.345 94.9788 312.212 94.9919C312.072 95.0066 311.938 95.0554 311.822 95.134C311.706 95.2127 311.61 95.3187 311.545 95.4428L312.727 100.12L312.725 100.288C312.727 100.47 312.763 100.651 312.831 100.82L312.841 100.826Z" fill="#231916"/>
<path d="M325.229 97.8845C325.939 97.1028 326.593 96.2717 327.186 95.3975C327.199 94.9874 327.114 94.5802 326.938 94.2096C326.762 93.839 326.5 93.5158 326.174 93.267C324.84 92.1266 323.947 93.6667 323.947 93.6667C323.947 93.6667 321.114 97.6122 320.441 98.6056C319.768 99.5989 318.528 101.273 320.039 102.018C320.442 102.229 320.911 102.275 321.348 102.148C321.784 102.02 322.154 101.728 322.38 101.334L326.334 96.5412" fill="#FCD13F"/>
<path d="M328.421 95.8591L328.256 96.1151C327.633 97.0362 326.946 97.9118 326.199 98.7352L323.42 102.106C323.021 102.75 322.392 103.219 321.66 103.418C320.929 103.618 320.149 103.532 319.478 103.18C319.151 103.034 318.86 102.818 318.626 102.547C318.393 102.275 318.222 101.956 318.127 101.61C317.78 100.29 318.648 99.0094 319.281 98.0777L319.387 97.9124C320.034 96.9526 322.576 93.4158 322.89 92.98C323.101 92.6331 323.38 92.3328 323.711 92.0974C324.042 91.8619 324.418 91.6962 324.815 91.6103C325.209 91.5507 325.611 91.5812 325.992 91.6995C326.373 91.8179 326.722 92.021 327.013 92.2936C327.501 92.6777 327.889 93.1752 328.141 93.7429C328.394 94.3106 328.505 94.9314 328.464 95.5514L328.421 95.8591ZM325.349 95.7774C325.567 95.496 325.757 95.2374 325.893 95.0407C325.802 94.7231 325.614 94.4418 325.356 94.2358C325.314 94.2001 325.267 94.1699 325.217 94.1459C325.148 94.2004 325.087 94.2651 325.038 94.338L324.996 94.4028L324.975 94.4352C324.948 94.4773 322.142 98.3722 321.49 99.3417L321.379 99.5135C321.061 99.9425 320.798 100.41 320.597 100.904C320.652 100.942 320.715 100.967 320.782 100.977C320.848 100.988 320.916 100.984 320.98 100.966C321.045 100.947 321.104 100.915 321.155 100.872C321.206 100.828 321.247 100.774 321.275 100.713L321.34 100.613L321.382 100.548L325.332 95.7531L325.349 95.7774Z" fill="#231916"/>
<path d="M327.724 101.38C328.274 101.155 328.757 100.792 329.126 100.326C329.496 99.8602 329.74 99.3075 329.834 98.7206C329.846 98.3101 329.76 97.9025 329.584 97.5317C329.407 97.1608 329.145 96.8374 328.819 96.588C327.485 95.4529 326.583 97.0092 326.583 97.0092C326.583 97.0092 323.748 100.95 323.076 101.948C322.405 102.947 321.165 104.612 322.675 105.36C323.077 105.572 323.545 105.619 323.981 105.492C324.417 105.365 324.787 105.074 325.013 104.68L329.834 98.7206" fill="#FCD13F"/>
<path d="M330.418 100.69C329.934 101.435 329.26 102.037 328.466 102.436L326.057 105.417C325.658 106.062 325.029 106.532 324.298 106.731C323.566 106.931 322.786 106.845 322.115 106.491C321.788 106.345 321.497 106.128 321.263 105.856C321.028 105.585 320.857 105.265 320.76 104.92C320.417 103.602 321.283 102.324 321.918 101.389L322.024 101.224C322.671 100.264 325.211 96.7305 325.524 96.2946C325.736 95.9471 326.016 95.6461 326.347 95.4101C326.678 95.1741 327.054 95.0079 327.452 94.9216C327.846 94.8619 328.248 94.8927 328.629 95.0117C329.009 95.1306 329.358 95.3346 329.648 95.6082C330.129 95.9917 330.511 96.4849 330.763 97.0465C331.015 97.608 331.129 98.2217 331.095 98.8362C331.017 99.4984 330.785 100.133 330.418 100.69ZM323.973 103.931L324.01 103.872L328.513 98.3138C328.415 98.0138 328.232 97.7489 327.986 97.5516C327.943 97.5159 327.897 97.4857 327.846 97.4617C327.778 97.5167 327.718 97.5814 327.668 97.6538L327.626 97.7186L327.605 97.751C327.578 97.7931 324.772 101.688 324.119 102.658L324.006 102.833C323.688 103.259 323.425 103.726 323.226 104.22C323.353 104.302 323.642 104.429 323.903 104.032L323.973 103.931Z" fill="#231916"/>
<path d="M315.958 100.116L316.185 100.244L316.215 100.244C316.231 100.251 316.248 100.26 316.265 100.268C316.434 100.352 316.684 100.477 317.008 100.641C317.657 100.969 318.6 101.452 319.776 102.069C322.13 103.305 325.418 105.078 329.159 107.23C336.65 111.539 345.914 117.343 353.121 123.36C381.521 147.075 395.885 177.874 389.499 207.272C383.107 236.701 354.969 264.506 313.75 278.366C272.536 292.224 219.259 290.764 181.715 273.174L181.715 273.174C160.903 263.427 145.518 249.468 134.149 234.559C128.576 227.251 122.525 210.837 120.921 192.873C119.316 174.917 122.181 155.722 134.075 142.677C158.312 116.095 177.5 102.514 211.384 92.8217C245.309 83.1175 288.093 84.5053 315.958 100.116Z" fill="white" stroke="black" stroke-width="2"/>
<path d="M234.076 142.167C233.608 141.429 232.654 140.313 231.862 139.467L230.26 140.403C230.998 141.303 231.97 142.545 232.402 143.319L234.076 142.167ZM235.912 148.539C235.786 150.105 235.426 151.401 234.184 152.193C234.562 152.463 235.012 153.075 235.21 153.435C234.58 153.111 234.058 152.625 233.662 151.905C234.004 150.915 234.256 149.799 234.418 148.539H235.912ZM240.34 146.163V145.911C240.646 146.253 240.97 146.667 241.132 146.901C241.708 146.127 242.194 145.191 242.608 144.129H243.634C243.544 145.137 243.4 146.055 243.202 146.919C242.95 146.541 242.698 146.181 242.464 145.839L241.276 147.099C241.69 147.693 242.14 148.341 242.572 148.989C242.014 150.321 241.222 151.401 240.142 152.211C240.268 151.671 240.34 150.915 240.412 149.781C240.43 149.565 240.448 149.187 240.448 149.187H237.532C237.568 148.971 237.586 148.773 237.604 148.539H240.916V147.117H238.756C238.612 146.811 238.45 146.469 238.234 146.163H240.34ZM236.416 144.021H238.792V144.867H236.416V144.021ZM236.416 141.951H238.792V142.797H236.416V141.951ZM238.648 150.609C238.576 151.509 238.486 151.905 238.36 152.067C238.252 152.193 238.144 152.211 237.964 152.193C237.784 152.211 237.496 152.193 237.082 152.157C237.28 152.535 237.442 153.111 237.46 153.525C238 153.561 238.54 153.543 238.864 153.507C239.242 153.453 239.548 153.345 239.8 153.039C239.908 152.913 239.998 152.769 240.07 152.517C240.448 152.859 240.988 153.453 241.168 153.759C242.23 152.931 243.022 151.959 243.652 150.771C244.228 151.725 244.696 152.625 245.038 153.327L246.334 151.923C245.902 151.059 245.236 149.925 244.498 148.791C244.93 147.423 245.236 145.875 245.434 144.129H246.28V142.329H243.166C243.382 141.483 243.562 140.637 243.706 139.737L241.96 139.467C241.672 141.447 241.168 143.409 240.34 144.831V140.673H238.396C238.594 140.313 238.774 139.935 238.954 139.557L236.794 139.359C236.74 139.737 236.632 140.205 236.506 140.673H234.94V146.163H236.776L236.308 146.343C236.47 146.577 236.632 146.847 236.776 147.117H234.382V148.269L233.554 147.927L233.248 147.981H232.132C233.014 146.757 234.04 145.065 234.67 144.075L233.374 143.553L233.194 143.625H229.81V145.335H231.916C231.34 146.289 230.656 147.297 230.35 147.621C230.026 147.963 229.756 148.125 229.468 148.197C229.666 148.575 230.026 149.475 230.134 149.907C230.296 149.763 230.818 149.637 231.25 149.637H232.384C231.88 152.049 230.908 153.831 229.468 154.893C229.9 155.163 230.584 155.883 230.872 156.297C231.682 155.667 232.366 154.821 232.924 153.705C234.31 155.595 236.398 155.955 239.71 155.955C241.816 155.955 244.084 155.901 245.956 155.793C246.064 155.199 246.334 154.245 246.64 153.813C244.606 154.011 241.672 154.119 239.746 154.119C237.838 154.101 236.344 154.011 235.21 153.435C236.344 152.751 236.92 151.779 237.262 150.609H238.648ZM254.074 142.383H250.942L252.364 141.897C252.166 141.267 251.752 140.259 251.392 139.503L249.592 140.025C249.898 140.763 250.276 141.699 250.438 142.383H247.702V144.075H254.074V142.383ZM253.57 147.297H248.17V148.917H253.57V147.297ZM251.734 151.527V153.597H249.988V151.527H251.734ZM253.588 149.835H248.17V155.991H249.988V155.271H253.588V149.835ZM248.188 146.469H253.588V144.849H248.188V146.469ZM256.882 152.157C256.9 151.869 256.918 151.581 256.936 151.293H261.544V152.157H256.882ZM261.544 149.061V149.907H256.936V149.061H261.544ZM263.524 147.495H255.01V150.699C255.01 152.103 254.902 153.795 253.84 155.055C254.254 155.289 255.046 156.027 255.352 156.405C256.036 155.613 256.45 154.587 256.666 153.543H261.544V154.299C261.544 154.497 261.472 154.569 261.238 154.569C261.022 154.569 260.266 154.569 259.6 154.551C259.834 155.019 260.086 155.739 260.158 156.243C261.292 156.261 262.138 156.225 262.732 155.955C263.362 155.685 263.524 155.217 263.524 154.317V147.495ZM260.23 145.227V144.435H263.794V143.013H260.23V142.293H264.154V140.763H260.23V139.449H258.16V140.763H254.434V142.293H258.16V143.013H254.884V144.435H258.16V145.227H254.164V146.757H264.388V145.227H260.23ZM279.544 142.707C279.346 143.211 279.148 143.679 278.968 144.057L280.786 144.435C281.236 143.625 281.776 142.311 282.208 141.177L280.678 140.853L280.372 140.907H274.738C274.864 140.583 274.99 140.259 275.098 139.935L273.136 139.449C272.632 140.997 271.678 142.527 270.544 143.481C271.012 143.787 271.768 144.471 272.11 144.831C272.704 144.255 273.28 143.535 273.784 142.707H279.544ZM278.23 145.317C279.022 146.397 279.922 147.873 280.3 148.827L282.1 147.855C281.686 146.919 280.786 145.533 279.94 144.489L278.23 145.317ZM276.466 152.175C276.016 151.293 274.972 150.069 274.072 149.223L272.434 150.141C273.316 151.059 274.306 152.355 274.702 153.201L276.466 152.175ZM273.1 144.525C272.632 145.623 271.768 146.775 270.868 147.495C271.3 147.801 272.092 148.413 272.452 148.773C273.388 147.873 274.432 146.451 275.026 145.083L273.1 144.525ZM277.744 143.175H275.71V149.889H277.744V143.175ZM268.06 149.961H270.112V142.365C270.67 141.609 271.138 140.817 271.552 140.007L269.662 139.377C268.708 141.249 267.106 143.103 265.486 144.273C265.882 144.669 266.53 145.569 266.782 146.001C267.196 145.641 267.628 145.245 268.06 144.813V149.961ZM267.664 155.541C268.24 154.407 268.852 152.715 269.266 151.437L267.358 150.645C266.98 151.941 266.296 153.525 265.648 154.587L267.664 155.541ZM272.956 153.993C271.912 153.993 271.732 153.939 271.732 153.363V150.717H269.554V153.417C269.554 155.343 270.22 155.937 272.776 155.937H276.25C278.284 155.937 278.896 155.325 279.166 152.805C278.59 152.697 277.672 152.373 277.204 152.049C277.114 153.759 276.952 153.993 276.088 153.993H272.956ZM278.41 151.005C279.202 152.355 279.958 154.119 280.192 155.235L282.226 154.425C281.956 153.255 281.11 151.563 280.282 150.267L278.41 151.005ZM157.738 177.523V179.845H174.298V177.523H157.738ZM189.4 173.257V176.191H186.682V173.257H189.4ZM189.868 183.643C191.578 183.643 192.136 182.905 192.37 180.547C191.794 180.421 190.966 180.079 190.498 179.737C190.426 181.375 190.282 181.735 189.688 181.735H187.51C186.772 181.735 186.682 181.609 186.682 180.817V178.099H191.488V171.367H184.612V180.817C184.612 183.067 185.206 183.643 187.186 183.643H189.868ZM181.372 181.429H183.928V179.575H181.372V177.631H184.09V175.777H180.976V174.085H183.64V172.249H180.976V170.485H178.978V172.249H176.296V174.085H178.978V175.777H175.81V177.631H179.41V183.229C178.942 182.707 178.582 182.041 178.294 181.159C178.33 180.403 178.366 179.629 178.384 178.837L176.422 178.693C176.386 181.771 176.206 184.759 175.324 186.577C175.792 186.775 176.728 187.243 177.106 187.495C177.502 186.613 177.772 185.551 177.952 184.345C179.356 186.361 181.498 186.793 184.846 186.793H191.794C191.92 186.163 192.28 185.173 192.604 184.687C190.984 184.759 186.214 184.759 184.846 184.741C183.46 184.741 182.326 184.669 181.372 184.399V181.429ZM198.166 173.671C198.184 172.699 198.184 171.709 198.184 170.701H196.078C196.078 171.727 196.078 172.717 196.06 173.671H193.954V175.759H196.042C195.916 179.971 195.43 183.409 193.414 185.695C193.954 186.019 194.656 186.739 194.98 187.261C197.302 184.597 197.932 180.565 198.112 175.759H199.93C199.822 181.771 199.678 184.003 199.336 184.489C199.156 184.741 198.994 184.813 198.724 184.813C198.382 184.813 197.734 184.795 197.014 184.741C197.392 185.353 197.59 186.289 197.626 186.883C198.472 186.919 199.282 186.919 199.804 186.811C200.398 186.685 200.776 186.505 201.19 185.893C201.748 185.065 201.874 182.311 202.036 174.643C202.054 174.373 202.054 173.671 202.054 173.671H198.166ZM205.114 183.571V174.553H207.436V183.571H205.114ZM203.044 172.501V186.883H205.114V185.641H207.436V186.757H209.578V172.501H203.044ZM215.158 171.457V173.635H219.262C219.316 174.247 219.388 174.895 219.514 175.579L218.416 175.381C217.426 180.115 215.284 183.589 211.54 185.479C212.098 185.893 213.106 186.775 213.502 187.225C216.634 185.353 218.794 182.365 220.144 178.333C221.134 181.555 223.042 184.957 226.768 187.207C227.146 186.649 228.028 185.713 228.496 185.335C221.872 181.429 221.386 174.859 221.386 171.457H215.158ZM237.694 174.895C237.316 174.175 236.884 173.365 236.452 172.717L234.868 173.581L235.03 173.851H233.572V170.467H231.61V173.851H229.666V175.831H231.61V178.837C230.782 179.107 230.044 179.359 229.432 179.557L229.972 181.573L231.61 180.961V184.993C231.61 185.227 231.52 185.299 231.304 185.299C231.088 185.317 230.476 185.317 229.828 185.281C230.08 185.857 230.314 186.739 230.368 187.261C231.538 187.279 232.312 187.207 232.852 186.865C233.392 186.523 233.572 185.983 233.572 184.993V180.205C234.166 179.989 234.76 179.773 235.336 179.539L234.94 177.649L233.572 178.153V175.831H235.066V173.923C235.696 175.003 236.344 176.371 236.632 177.271L237.694 176.623V178.459V178.999L237.658 178.927C236.416 179.773 235.138 180.619 234.292 181.123L235.39 182.923C236.038 182.419 236.776 181.843 237.478 181.267C237.136 183.049 236.254 184.561 234.13 185.695C234.58 186.019 235.318 186.739 235.642 187.189C239.188 185.227 239.656 182.077 239.656 178.477V170.647H237.694V174.895ZM243.256 185.173C242.878 185.173 242.824 185.047 242.824 184.219V180.133C243.76 181.051 244.696 182.095 245.2 182.815L246.568 181.303C245.902 180.439 244.516 179.107 243.346 178.135L242.824 178.639V176.623L243.976 177.271C244.642 176.317 245.452 174.805 246.19 173.473L244.282 172.501C243.958 173.527 243.364 174.859 242.824 175.903V170.647H240.808V184.201C240.808 186.451 241.258 187.081 242.878 187.081H244.444C245.848 187.081 246.352 186.127 246.55 183.679C245.992 183.553 245.218 183.193 244.75 182.833C244.696 184.651 244.624 185.173 244.264 185.173H243.256ZM264.262 173.725C263.992 172.879 263.182 171.637 262.48 170.701L260.86 171.547C261.544 172.501 262.264 173.833 262.552 174.661L264.262 173.725ZM255.244 173.419H254.29V172.249H255.244V173.419ZM256.846 170.917H252.778V174.769H256.846V170.917ZM250.546 173.419H249.61V172.249H250.546V173.419ZM252.112 170.917H248.08V174.769H252.112V170.917ZM250.024 179.431H251.518V180.403H250.024V179.431ZM250.024 177.019H251.518V177.955H250.024V177.019ZM254.848 177.955H253.318V177.019H254.848V177.955ZM254.848 180.403H253.318V179.431H254.848V180.403ZM257.152 184.741V182.869H253.426V181.969H256.684V175.453H248.26V181.969H251.392V182.869H247.558V184.741H251.392V187.261H253.426V184.741H257.152ZM262.408 177.289C262.066 178.387 261.58 179.485 260.986 180.511C260.842 179.539 260.698 178.441 260.59 177.253L264.496 176.767L264.28 174.805L260.446 175.273C260.356 173.797 260.284 172.195 260.266 170.557H258.25C258.286 172.321 258.358 173.977 258.448 175.507L256.882 175.705L257.098 177.685L258.592 177.505C258.772 179.539 259.024 181.321 259.366 182.779C258.322 183.967 257.098 184.957 255.748 185.587C256.306 185.983 256.936 186.595 257.296 187.081C258.268 186.523 259.186 185.785 260.032 184.921C260.644 186.397 261.472 187.225 262.552 187.279C263.326 187.297 264.244 186.595 264.694 183.463C264.352 183.265 263.488 182.725 263.146 182.257C263.056 183.877 262.858 184.723 262.57 184.723C262.192 184.687 261.85 184.111 261.544 183.103C262.606 181.609 263.47 179.917 264.028 178.189L262.408 177.289ZM277.906 180.709H276.556V178.423H277.906V180.709ZM270.364 178.423H271.588V180.709H270.364V178.423ZM274.774 178.423V180.709H273.37V178.423H274.774ZM281.65 178.423V176.515H279.886V174.895H277.906V176.515H276.556V174.895H274.774V176.515H273.37V174.895H271.588V176.515H270.364V174.895H268.456V176.515H266.53V178.423H268.456V180.709H265.99V182.617H282.046V180.709H279.886V178.423H281.65ZM281.542 174.229V172.339H270.22C270.544 171.835 270.832 171.349 271.066 170.845L269.212 170.233C268.384 171.907 266.962 173.491 265.486 174.499C265.864 174.895 266.476 175.831 266.71 176.227C267.43 175.687 268.132 174.985 268.816 174.229H281.542ZM267.916 187.333C268.582 186.343 269.41 184.777 269.914 183.517L267.844 182.977C267.34 184.201 266.476 185.641 265.828 186.487L267.916 187.333ZM270.886 183.697C271.102 184.813 271.228 186.289 271.228 187.153L273.334 186.847C273.316 185.983 273.118 184.561 272.884 183.481L270.886 183.697ZM274.54 183.661C274.954 184.777 275.368 186.217 275.476 187.081L277.618 186.667C277.456 185.767 277.006 184.381 276.556 183.337L274.54 183.661ZM278.194 183.625C278.932 184.795 279.796 186.361 280.156 187.297L282.262 186.379C281.83 185.407 280.912 183.913 280.156 182.833L278.194 183.625ZM299.452 172.987H293.134C293.224 172.195 293.278 171.385 293.332 170.503H291.046C291.01 171.403 290.974 172.213 290.884 172.987H284.548V187.261H286.69V175.075H290.434C289.93 176.551 288.922 177.703 286.96 178.531C287.428 178.891 288.004 179.629 288.238 180.133C289.93 179.395 291.046 178.441 291.802 177.271C293.152 178.135 294.646 179.233 295.438 179.989L296.896 178.351C295.96 177.523 294.07 176.299 292.612 175.471C292.648 175.345 292.684 175.219 292.72 175.075H297.328V184.813C297.328 185.119 297.238 185.191 296.95 185.209C296.698 185.209 295.978 185.209 295.222 185.173L296.716 183.769C295.852 182.905 294.106 181.591 292.792 180.691C293.008 180.079 293.152 179.449 293.278 178.837H291.064C290.704 180.637 290.038 182.581 286.978 183.715C287.428 184.093 287.986 184.831 288.22 185.335C290.002 184.579 291.136 183.607 291.892 182.509C293.008 183.391 294.268 184.417 294.97 185.173L294.79 185.155C295.078 185.749 295.366 186.685 295.438 187.297C296.86 187.297 297.886 187.261 298.552 186.901C299.254 186.559 299.452 185.947 299.452 184.867V172.987ZM309.64 173.419H305.86L307.03 172.771C306.742 172.105 306.202 171.115 305.716 170.377L304.042 171.151C304.438 171.835 304.924 172.735 305.212 173.419H302.062V175.111H309.64V173.419ZM308.884 177.541V175.921H302.854V177.541H308.884ZM308.866 178.333H302.854V179.953H308.866V178.333ZM307.066 182.527V184.543H304.726V182.527H307.066ZM308.92 180.817H302.926V187.027H304.726V186.271H308.92V180.817ZM318.28 176.425H314.95V170.773H312.718V176.425H309.568V178.531H312.718V187.261H314.95V178.531H318.28V176.425ZM319.846 186.775H336.19V185.371H319.846V186.775ZM332.122 182.113H328.918V181.483H332.122V182.113ZM332.122 183.769H328.918V183.103H332.122V183.769ZM323.986 183.103H326.956V183.769H323.986V183.103ZM323.986 181.483H326.956V182.113H323.986V181.483ZM321.88 180.457V184.795H334.3V180.457H321.88ZM328.972 174.391H332.14V175.039H328.972V174.391ZM328.972 172.645H332.14V173.239H328.972V172.645ZM328.972 178.549V177.919H334.984V176.785H328.972V176.155H334.282V174.391H336.082V173.239H334.282V171.511H328.972V170.449H326.812V171.511H321.79V172.645H326.812V173.239H319.918V174.391H326.812V175.039H321.7V176.155H326.812V176.785H321.142V177.919H326.812V178.549H319.864V179.863H336.208V178.549H328.972ZM345.082 181.069H346.918L347.404 174.913L347.494 172.231H344.506L344.596 174.913L345.082 181.069ZM346 185.857C346.9 185.857 347.584 185.209 347.584 184.273C347.584 183.319 346.9 182.671 346 182.671C345.1 182.671 344.416 183.319 344.416 184.273C344.416 185.209 345.082 185.857 346 185.857Z" fill="black"/>
<path d="M190.3 228.107C190.538 227.589 190.804 226.735 191.07 226.049L190.356 225.783C190.244 226.399 189.978 227.337 189.782 227.911L190.3 228.107ZM187.584 225.979C187.794 226.637 187.962 227.491 187.99 228.051L188.62 227.855C188.578 227.323 188.382 226.469 188.172 225.825L187.584 225.979ZM187.472 225.335H188.83V228.555H187.472V225.335ZM191.098 228.555H189.67V225.335H191.098V228.555ZM192.358 232.181H189.838V231.271H192.162V230.249H189.838V229.465H192.12V224.425H186.478V229.465H188.69V230.249H186.436V231.271H188.69V232.181H186.184V233.203H192.358V232.181ZM186.814 236.619C187.22 235.947 187.5 234.869 187.654 234.001L186.786 233.679C186.632 234.519 186.31 235.583 185.89 236.241L186.814 236.619ZM188.06 234.015C188.2 234.771 188.27 235.779 188.228 236.437L189.096 236.325C189.11 235.681 189.04 234.673 188.886 233.917L188.06 234.015ZM189.474 234.001C189.74 234.715 189.978 235.653 190.034 236.283L190.874 236.087C190.804 235.485 190.538 234.561 190.272 233.847L189.474 234.001ZM190.874 233.973C191.28 234.659 191.644 235.583 191.784 236.185L192.638 235.863C192.484 235.261 192.106 234.351 191.686 233.679L190.874 233.973ZM197.076 234.995H193.968V231.705H197.076V234.995ZM198.826 228.121V226.917H195.984V223.963H194.724V230.529H192.792V236.787H193.968V236.185H197.076V236.731H198.308V230.529H195.984V228.121H198.826ZM212.574 225.307V226.105H210.88V225.307H212.574ZM212.966 228.695C213.358 228.695 213.75 228.681 213.96 228.611C213.932 228.373 213.89 227.981 213.862 227.701C213.638 227.757 213.204 227.785 212.938 227.785H211.244C210.936 227.785 210.88 227.645 210.88 227.267V226.959H213.68V224.467H209.844V227.239C209.844 228.289 210.11 228.695 211.188 228.695H212.966ZM208.108 225.293V226.091H206.47V225.293H208.108ZM206.47 227.841V226.945H209.214V224.453H205.448V227.239C205.448 227.757 205.238 227.981 205.056 228.065C205.196 228.303 205.42 228.793 205.49 229.059C205.728 228.933 206.176 228.835 209.144 228.331C209.158 228.107 209.214 227.701 209.284 227.407L206.47 227.841ZM208.584 230.781H210.474V231.887H208.584V230.781ZM214.044 232.867V231.887H211.678V230.781H213.554V229.801H211.678V228.919H210.474V229.801H208.584V228.919H207.394V229.801H205.56V230.781H207.394V231.887H205.014V232.867H214.044ZM213.792 234.435C213.134 233.945 212.014 233.315 211.02 232.867L210.166 233.441C211.104 233.903 212.07 234.533 212.63 234.995L213.792 234.435ZM207.842 232.881C207.24 233.413 206.218 233.917 205.238 234.267C205.546 234.435 205.994 234.827 206.232 235.051C207.156 234.631 208.29 233.959 209.004 233.287L207.842 232.881ZM204.496 226.105C204.118 225.559 203.334 224.677 202.69 224.005L201.724 224.607C202.34 225.293 203.124 226.245 203.516 226.833L204.496 226.105ZM204.342 230.557L204.132 230.585H203.026C203.67 229.633 204.468 228.219 204.944 227.435L204.118 227.113L203.95 227.183H201.514V228.233H203.25C202.788 229.059 202.214 230.025 201.976 230.291C201.752 230.571 201.542 230.655 201.332 230.725C201.472 230.949 201.696 231.523 201.766 231.817C201.878 231.705 202.27 231.607 202.578 231.607H203.684C203.264 233.637 202.424 235.107 201.234 235.947C201.5 236.129 201.906 236.563 202.088 236.829C202.732 236.325 203.306 235.667 203.768 234.799C204.86 236.311 206.554 236.591 209.27 236.591C210.838 236.591 212.602 236.549 213.974 236.465C214.044 236.115 214.198 235.527 214.394 235.247C212.91 235.387 210.768 235.457 209.284 235.457C206.792 235.457 205.098 235.233 204.258 233.721C204.566 232.867 204.818 231.887 204.972 230.781L204.342 230.557ZM229.388 226.287V224.957H217.026V226.287H222.22V236.773H223.606V229.731C225.118 230.571 226.868 231.663 227.764 232.419L228.716 231.229C227.638 230.389 225.44 229.143 223.844 228.373L223.606 228.653V226.287H229.388ZM244.718 227.547V226.273H238.964L239.902 225.867C239.706 225.307 239.272 224.467 238.908 223.837L237.634 224.313C237.956 224.915 238.334 225.713 238.516 226.273H232.524V227.547H236.192C236.052 230.627 235.73 234.015 232.258 235.793C232.608 236.059 233.014 236.507 233.21 236.857C235.8 235.457 236.822 233.203 237.27 230.795H241.988C241.764 233.651 241.512 234.939 241.12 235.275C240.938 235.415 240.756 235.443 240.448 235.443C240.056 235.443 239.104 235.429 238.11 235.345C238.376 235.709 238.558 236.241 238.572 236.619C239.51 236.675 240.42 236.689 240.938 236.647C241.526 236.591 241.89 236.479 242.268 236.087C242.828 235.527 243.094 233.987 243.36 230.123C243.402 229.941 243.416 229.535 243.416 229.535H237.466C237.55 228.877 237.592 228.205 237.634 227.547H244.718ZM259.068 227.505C258.928 228.359 258.774 229.269 258.606 229.871L259.656 230.165C259.95 229.241 260.258 227.771 260.468 226.511L259.586 226.273L259.39 226.315H256.114C256.296 225.615 256.45 224.887 256.576 224.145L255.302 223.935C255.008 225.993 254.42 227.967 253.482 229.213C253.776 229.353 254.364 229.703 254.588 229.913C255.036 229.255 255.428 228.443 255.75 227.505H259.068ZM254.392 226.637C253.972 225.965 253.09 224.929 252.404 224.187L251.424 224.761C252.11 225.545 252.978 226.623 253.37 227.295L254.392 226.637ZM249.548 224.229C249.072 225.279 248.302 226.385 247.49 227.099C247.756 227.281 248.246 227.687 248.442 227.897C249.282 227.099 250.178 225.797 250.752 224.579L249.548 224.229ZM252.236 234.687H249.954V232.223H252.236V234.687ZM249.338 231.047C249.996 230.333 250.57 229.479 251.06 228.569C251.802 229.367 252.586 230.291 253.146 231.047H249.338ZM253.454 231.453L253.608 231.691L254.49 230.823C253.888 229.927 252.614 228.541 251.564 227.435C251.634 227.281 251.704 227.113 251.76 226.945L250.654 226.609C250.01 228.443 248.792 230.123 247.392 231.117C247.7 231.355 248.064 231.761 248.26 232.055C248.414 231.943 248.582 231.803 248.736 231.649V236.619H249.954V235.849H253.454V231.453ZM256.562 227.771C256.366 231.607 255.652 234.309 253.552 235.835C253.832 236.045 254.28 236.535 254.448 236.801C255.75 235.835 256.562 234.449 257.052 232.685C257.584 234.365 258.34 235.625 259.586 236.815C259.768 236.437 260.146 236.031 260.468 235.779C258.83 234.365 258.06 232.699 257.584 229.941C257.654 229.297 257.724 228.625 257.766 227.911L256.562 227.771ZM267.398 228.709C267.202 229.241 266.88 229.969 266.572 230.529H264.92L265.592 230.305C265.494 229.885 265.228 229.213 264.934 228.709H267.398ZM266.796 231.635H268.896V230.529H267.706C267.972 230.053 268.266 229.465 268.532 228.947L267.622 228.709H269.162V227.603H266.796V226.399H268.826V225.307H266.796V223.991H265.592V225.307H263.492V226.399H265.592V227.603H263.086V228.709H264.822L263.954 228.975C264.206 229.451 264.458 230.081 264.556 230.529H263.38V231.635H265.592V232.979H263.086V234.085H265.592V236.745H266.796V234.085H269.176V232.979H266.796V231.635ZM270.814 230.431C271.206 231.761 271.752 232.993 272.438 234.043C271.976 234.687 271.43 235.247 270.814 235.709V230.431ZM274.09 230.361C273.88 231.271 273.558 232.153 273.11 232.965C272.606 232.181 272.186 231.299 271.878 230.361H274.09ZM274.692 229.255L274.468 229.311H270.814V225.727H273.95V227.211C273.95 227.365 273.894 227.407 273.67 227.421C273.474 227.435 272.732 227.435 271.934 227.407C272.102 227.715 272.27 228.191 272.326 228.527C273.376 228.527 274.09 228.527 274.552 228.331C275.028 228.163 275.154 227.827 275.154 227.225V224.579H269.624V236.773H270.814V236.213C271.024 236.409 271.22 236.619 271.346 236.815C272.046 236.339 272.662 235.751 273.18 235.065C273.754 235.737 274.398 236.297 275.112 236.703C275.308 236.381 275.686 235.891 275.98 235.667C275.196 235.275 274.51 234.701 273.894 234.015C274.678 232.699 275.196 231.173 275.49 229.549L274.692 229.255ZM283.596 235.065V231.929H288.888V235.065H283.596ZM286.62 226.483C286.06 227.575 285.276 228.569 284.352 229.437C283.736 228.779 282.756 227.981 281.916 227.365C282.224 227.085 282.504 226.777 282.77 226.483H286.62ZM290.232 230.739H284.856C286.368 229.395 287.628 227.715 288.398 225.727L287.516 225.251L287.278 225.321H283.708C283.974 224.943 284.226 224.565 284.45 224.173L282.98 223.893C282.168 225.405 280.6 227.141 278.304 228.387C278.612 228.597 279.032 229.073 279.228 229.395C279.844 229.031 280.418 228.625 280.95 228.219C281.776 228.849 282.728 229.675 283.302 230.333C281.79 231.495 280.026 232.377 278.276 232.895C278.528 233.175 278.864 233.707 279.018 234.057C280.138 233.693 281.244 233.189 282.294 232.587V236.787H283.596V236.241H288.888V236.815H290.232V230.739ZM306.318 227.547V226.273H300.564L301.502 225.867C301.306 225.307 300.872 224.467 300.508 223.837L299.234 224.313C299.556 224.915 299.934 225.713 300.116 226.273H294.124V227.547H297.792C297.652 230.627 297.33 234.015 293.858 235.793C294.208 236.059 294.614 236.507 294.81 236.857C297.4 235.457 298.422 233.203 298.87 230.795H303.588C303.364 233.651 303.112 234.939 302.72 235.275C302.538 235.415 302.356 235.443 302.048 235.443C301.656 235.443 300.704 235.429 299.71 235.345C299.976 235.709 300.158 236.241 300.172 236.619C301.11 236.675 302.02 236.689 302.538 236.647C303.126 236.591 303.49 236.479 303.868 236.087C304.428 235.527 304.694 233.987 304.96 230.123C305.002 229.941 305.016 229.535 305.016 229.535H299.066C299.15 228.877 299.192 228.205 299.234 227.547H306.318ZM313.542 230.837H315.992V229.577H309.916V230.837H312.24V234.589C311.176 234.785 310.21 234.967 309.454 235.093L309.832 236.409C311.624 236.017 314.13 235.471 316.454 234.939L316.356 233.763C315.418 233.959 314.466 234.155 313.542 234.323V230.837ZM318.526 224.733C319.212 225.223 320.024 225.951 320.416 226.441L321.326 225.629C320.92 225.153 320.066 224.467 319.38 224.019L318.526 224.733ZM321.816 227.715V226.441H317.798C317.77 225.657 317.756 224.831 317.77 224.019H316.37C316.37 224.831 316.398 225.643 316.426 226.441H309.412V227.715H316.51C316.86 232.755 317.966 236.829 320.276 236.829C321.438 236.829 321.9 236.143 322.124 233.623C321.76 233.497 321.27 233.189 320.976 232.881C320.892 234.701 320.724 235.457 320.388 235.457C319.17 235.457 318.19 232.125 317.882 227.715H321.816Z" fill="#36563C"/>
</svg>
