<svg width="412" height="417" viewBox="0 0 412 417" fill="none" xmlns="http://www.w3.org/2000/svg">
<path d="M358.639 158.15C358.639 174.868 355.505 191.015 349.616 205.928H45.473C39.5839 190.92 36.4494 174.868 36.4494 158.15C36.4494 78.2678 108.543 13.5829 197.544 13.5829C286.545 13.5829 358.639 78.3628 358.639 158.15Z" fill="#FFE33E"/>
<path d="M298.798 153.496H296.804V180.757H298.798V153.496Z" fill="white"/>
<path d="M298.798 143.238H296.804V149.222H298.798V143.238Z" fill="white"/>
<path d="M298.798 223.595H296.804V229.579H298.798V223.595Z" fill="white"/>
<path d="M298.798 191.87H296.804V219.131H298.798V191.87Z" fill="white"/>
<path d="M286.094 155.591L284.251 156.354L294.684 181.541L296.527 180.777L286.094 155.591Z" fill="white"/>
<path d="M282.215 146.224L280.372 146.988L282.662 152.517L284.505 151.753L282.215 146.224Z" fill="white"/>
<path d="M312.972 220.418L311.129 221.182L313.419 226.71L315.262 225.947L312.972 220.418Z" fill="white"/>
<path d="M300.816 190.999L298.973 191.763L309.406 216.949L311.248 216.186L300.816 190.999Z" fill="white"/>
<path d="M275.163 162.428L273.752 163.838L293.028 183.114L294.439 181.704L275.163 162.428Z" fill="white"/>
<path d="M267.973 155.215L266.562 156.626L270.794 160.857L272.204 159.447L267.973 155.215Z" fill="white"/>
<path d="M324.774 212.032L323.363 213.442L327.594 217.673L329.005 216.263L324.774 212.032Z" fill="white"/>
<path d="M302.349 189.539L300.939 190.95L320.215 210.226L321.625 208.815L302.349 189.539Z" fill="white"/>
<path d="M267.716 172.915L266.952 174.757L292.138 185.19L292.902 183.347L267.716 172.915Z" fill="white"/>
<path d="M258.359 169.058L257.596 170.901L263.124 173.191L263.888 171.348L258.359 169.058Z" fill="white"/>
<path d="M332.537 199.71L331.773 201.552L337.302 203.843L338.065 202L332.537 199.71Z" fill="white"/>
<path d="M303.189 187.603L302.426 189.446L327.612 199.879L328.375 198.036L303.189 187.603Z" fill="white"/>
<path d="M292.15 185.411H264.889V187.406H292.15V185.411Z" fill="white"/>
<path d="M260.614 185.411H254.63V187.406H260.614V185.411Z" fill="white"/>
<path d="M340.972 185.411H334.988V187.406H340.972V185.411Z" fill="white"/>
<path d="M330.429 185.411H303.168V187.406H330.429V185.411Z" fill="white"/>
<path d="M292.144 187.707L266.957 198.137L267.72 199.98L292.907 189.55L292.144 187.707Z" fill="white"/>
<path d="M263.12 199.71L257.592 202L258.355 203.843L263.883 201.552L263.12 199.71Z" fill="white"/>
<path d="M337.292 168.952L331.764 171.243L332.527 173.086L338.055 170.795L337.292 168.952Z" fill="white"/>
<path d="M327.555 172.988L302.369 183.418L303.132 185.261L328.318 174.831L327.555 172.988Z" fill="white"/>
<path d="M293.054 189.773L273.778 209.049L275.188 210.459L294.464 191.183L293.054 189.773Z" fill="white"/>
<path d="M270.789 212.009L266.558 216.241L267.968 217.651L272.199 213.42L270.789 212.009Z" fill="white"/>
<path d="M327.594 155.212L323.362 159.443L324.773 160.853L329.004 156.622L327.594 155.212Z" fill="white"/>
<path d="M320.167 162.586L300.891 181.862L302.302 183.272L321.578 163.996L320.167 162.586Z" fill="white"/>
<path d="M294.68 191.342L284.245 216.526L286.087 217.289L296.523 192.106L294.68 191.342Z" fill="white"/>
<path d="M282.647 220.439L280.356 225.967L282.199 226.731L284.49 221.203L282.647 220.439Z" fill="white"/>
<path d="M313.349 146.169L311.058 151.697L312.901 152.461L315.191 146.933L313.349 146.169Z" fill="white"/>
<path d="M309.37 155.871L298.934 181.054L300.777 181.818L311.212 156.634L309.37 155.871Z" fill="white"/>
<path d="M281.131 10.1633H279.137V37.4241H281.131V10.1633Z" fill="white"/>
<path d="M281.131 0H279.137V5.98407H281.131V0Z" fill="white"/>
<path d="M281.131 80.2625H279.137V86.2465H281.131V80.2625Z" fill="white"/>
<path d="M281.131 48.5374H279.137V75.7982H281.131V48.5374Z" fill="white"/>
<path d="M268.545 12.3253L266.702 13.0886L277.135 38.2748L278.978 37.5115L268.545 12.3253Z" fill="white"/>
<path d="M264.629 2.87152L262.786 3.63489L265.076 9.16357L266.919 8.4002L264.629 2.87152Z" fill="white"/>
<path d="M295.304 77.0982L293.461 77.8615L295.751 83.3902L297.594 82.6268L295.304 77.0982Z" fill="white"/>
<path d="M283.179 47.7704L281.336 48.5338L291.768 73.72L293.611 72.9566L283.179 47.7704Z" fill="white"/>
<path d="M257.633 19.1316L256.222 20.542L275.498 39.8181L276.909 38.4076L257.633 19.1316Z" fill="white"/>
<path d="M250.378 11.9838L248.967 13.3943L253.198 17.6256L254.609 16.2152L250.378 11.9838Z" fill="white"/>
<path d="M307.181 68.7974L305.77 70.2078L310.001 74.4392L311.412 73.0287L307.181 68.7974Z" fill="white"/>
<path d="M284.685 46.2436L283.274 47.654L302.55 66.9301L303.961 65.5196L284.685 46.2436Z" fill="white"/>
<path d="M250.182 29.5782L249.419 31.4211L274.605 41.8538L275.368 40.0109L250.182 29.5782Z" fill="white"/>
<path d="M240.737 25.6876L239.974 27.5305L245.502 29.8206L246.266 27.9777L240.737 25.6876Z" fill="white"/>
<path d="M314.877 56.431L314.114 58.2739L319.643 60.564L320.406 58.7211L314.877 56.431Z" fill="white"/>
<path d="M285.568 44.2306L284.804 46.0735L309.99 56.5062L310.754 54.6633L285.568 44.2306Z" fill="white"/>
<path d="M274.482 42.0784H247.221V44.0731H274.482V42.0784Z" fill="white"/>
<path d="M243.042 42.0784H237.058V44.0731H243.042V42.0784Z" fill="white"/>
<path d="M323.4 42.0784H317.416V44.0731H323.4V42.0784Z" fill="white"/>
<path d="M312.856 42.0784H285.595V44.0731H312.856V42.0784Z" fill="white"/>
<path d="M274.568 44.3547L249.382 54.7847L250.145 56.6276L275.331 46.1976L274.568 44.3547Z" fill="white"/>
<path d="M245.452 56.3987L239.924 58.6895L240.687 60.5321L246.216 58.2414L245.452 56.3987Z" fill="white"/>
<path d="M319.624 25.6412L314.096 27.9319L314.859 29.7746L320.388 27.4839L319.624 25.6412Z" fill="white"/>
<path d="M310.015 29.7236L284.829 40.1536L285.592 41.9965L310.778 31.5665L310.015 29.7236Z" fill="white"/>
<path d="M275.456 46.4095L256.18 65.6855L257.591 67.096L276.867 47.8199L275.456 46.4095Z" fill="white"/>
<path d="M253.192 68.6462L248.96 72.8775L250.371 74.288L254.602 70.0566L253.192 68.6462Z" fill="white"/>
<path d="M309.997 11.8484L305.765 16.0791L307.176 17.4897L311.407 13.259L309.997 11.8484Z" fill="white"/>
<path d="M302.57 19.3567L283.294 38.6328L284.704 40.0432L303.98 20.7671L302.57 19.3567Z" fill="white"/>
<path d="M277.066 47.9733L266.63 73.1568L268.473 73.9204L278.908 48.7369L277.066 47.9733Z" fill="white"/>
<path d="M265.033 77.0704L262.742 82.5985L264.585 83.3621L266.876 77.834L265.033 77.0704Z" fill="white"/>
<path d="M295.822 2.83655L293.532 8.36462L295.374 9.12819L297.665 3.60012L295.822 2.83655Z" fill="white"/>
<path d="M291.719 12.5896L281.284 37.7731L283.126 38.5367L293.562 13.3532L291.719 12.5896Z" fill="white"/>
<path d="M76.8181 85.0117H74.8234V112.272H76.8181V85.0117Z" fill="white"/>
<path d="M76.8181 74.8483H74.8234V80.8324H76.8181V74.8483Z" fill="white"/>
<path d="M76.8181 155.206H74.8234V161.19H76.8181V155.206Z" fill="white"/>
<path d="M76.8181 123.386H74.8234V150.647H76.8181V123.386Z" fill="white"/>
<path d="M64.1309 87.1923L62.288 87.9556L72.7207 113.142L74.5636 112.378L64.1309 87.1923Z" fill="white"/>
<path d="M60.2156 77.7395L58.3727 78.5029L60.6628 84.0316L62.5057 83.2682L60.2156 77.7395Z" fill="white"/>
<path d="M90.9713 151.922L89.1284 152.685L91.4185 158.214L93.2614 157.451L90.9713 151.922Z" fill="white"/>
<path d="M78.7651 122.639L76.9222 123.402L87.3549 148.588L89.1978 147.825L78.7651 122.639Z" fill="white"/>
<path d="M53.2243 94.0056L51.8138 95.4161L71.0899 114.692L72.5003 113.282L53.2243 94.0056Z" fill="white"/>
<path d="M46.0315 86.7887L44.6211 88.1992L48.8524 92.4305L50.2629 91.02L46.0315 86.7887Z" fill="white"/>
<path d="M102.83 143.6L101.419 145.01L105.651 149.242L107.061 147.831L102.83 143.6Z" fill="white"/>
<path d="M80.277 121.118L78.8666 122.529L98.1426 141.805L99.5531 140.394L80.277 121.118Z" fill="white"/>
<path d="M45.7773 104.472L45.0139 106.315L70.2001 116.747L70.9635 114.904L45.7773 104.472Z" fill="white"/>
<path d="M36.3355 100.581L35.5722 102.424L41.1008 104.714L41.8642 102.871L36.3355 100.581Z" fill="white"/>
<path d="M110.57 131.361L109.807 133.204L115.335 135.494L116.099 133.651L110.57 131.361Z" fill="white"/>
<path d="M81.1626 119.124L80.3993 120.967L105.585 131.4L106.349 129.557L81.1626 119.124Z" fill="white"/>
<path d="M70.1691 116.927H42.9084V118.921H70.1691V116.927Z" fill="white"/>
<path d="M38.6341 116.927H32.65V118.921H38.6341V116.927Z" fill="white"/>
<path d="M118.992 116.927H113.007V118.921H118.992V116.927Z" fill="white"/>
<path d="M108.448 116.927H81.1874V118.921H108.448V116.927Z" fill="white"/>
<path d="M70.1519 119.208L44.9657 129.638L45.7288 131.481L70.915 121.051L70.1519 119.208Z" fill="white"/>
<path d="M41.045 131.256L35.5169 133.547L36.2805 135.39L41.8086 133.099L41.045 131.256Z" fill="white"/>
<path d="M115.341 100.55L109.813 102.841L110.577 104.684L116.105 102.393L115.341 100.55Z" fill="white"/>
<path d="M105.6 104.577L80.4133 115.007L81.1765 116.85L106.363 106.42L105.6 104.577Z" fill="white"/>
<path d="M71.0479 121.283L51.7718 140.56L53.1822 141.97L72.4583 122.694L71.0479 121.283Z" fill="white"/>
<path d="M48.7831 143.52L44.5518 147.752L45.9623 149.162L50.1936 144.931L48.7831 143.52Z" fill="white"/>
<path d="M105.588 86.722L101.356 90.9528L102.766 92.3634L106.998 88.1327L105.588 86.722Z" fill="white"/>
<path d="M98.2287 94.1637L78.9526 113.44L80.3631 114.85L99.6391 95.5741L98.2287 94.1637Z" fill="white"/>
<path d="M72.6641 122.855L62.2287 148.039L64.0714 148.802L74.5068 123.619L72.6641 122.855Z" fill="white"/>
<path d="M60.6313 151.952L58.3406 157.48L60.1833 158.244L62.474 152.716L60.6313 151.952Z" fill="white"/>
<path d="M91.4206 77.7184L89.1299 83.2465L90.9726 84.01L93.2633 78.4819L91.4206 77.7184Z" fill="white"/>
<path d="M87.3538 87.3838L76.9184 112.567L78.7611 113.331L89.1965 88.1474L87.3538 87.3838Z" fill="white"/>
<path d="M2.53968 223.595C2.06475 223.595 1.58983 223.31 1.39986 222.835C1.20989 222.36 1.30487 221.885 1.68481 221.505L33.0299 192.535C33.2199 192.345 33.5048 192.25 33.7898 192.25H366.238C366.428 192.25 366.713 192.345 366.903 192.44L409.931 221.411C410.406 221.695 410.596 222.265 410.406 222.74C410.216 223.215 409.836 223.595 409.266 223.595H2.53968Z" fill="#D6A54A"/>
<path d="M366.333 193.485L409.361 222.455H203.528H2.53967L33.8848 193.485H366.333ZM366.333 191.11H33.8848C33.3149 191.11 32.745 191.3 32.27 191.775L0.924921 220.746C0.165039 221.41 -0.0249314 222.455 0.355009 223.31C0.73495 224.26 1.58982 224.83 2.53967 224.83H203.528H409.361C410.406 224.83 411.356 224.165 411.641 223.12C411.926 222.075 411.546 221.031 410.691 220.461L367.663 191.49C367.283 191.205 366.808 191.11 366.333 191.11Z" fill="black"/>
<path d="M35.7845 194.625C35.1196 194.625 34.6447 194.15 34.6447 193.485L22.8665 44.0731C22.8665 43.7882 22.9615 43.4082 23.1515 43.2183C23.3414 42.9333 23.7214 42.8383 24.0063 42.8383H81.0924C81.7573 42.8383 82.2323 43.4082 82.2323 43.9781L83.752 193.39C83.752 193.675 83.657 194.055 83.3721 194.245C83.1821 194.435 82.8022 194.625 82.5172 194.625H35.7845Z" fill="#FFBD66"/>
<path d="M81.0924 43.9781L82.6122 193.39H35.7845L24.1013 43.9781H81.0924ZM81.0924 41.6035H24.1013C23.4364 41.6035 22.7715 41.8885 22.3916 42.3634C21.9167 42.8383 21.7267 43.5032 21.7267 44.1681L33.4099 193.58C33.5048 194.815 34.5497 195.764 35.7845 195.764H82.7072C83.3721 195.764 83.942 195.48 84.4169 195.1C84.8918 194.625 85.0818 194.055 85.0818 193.39L83.4671 43.9781C83.4671 42.7433 82.4222 41.6035 81.0924 41.6035Z" fill="black"/>
<path d="M54.4966 102.869C40.8187 102.869 29.8004 91.7557 29.8004 78.1728C29.8004 64.5899 40.9137 53.4766 54.4966 53.4766C68.0795 53.4766 79.1927 64.5899 79.1927 78.1728C79.1927 91.7557 68.1745 102.869 54.4966 102.869Z" fill="#B28A39"/>
<path d="M54.4966 54.6165C67.5096 54.6165 78.0529 65.1598 78.0529 78.1728C78.0529 91.1857 67.5096 101.729 54.4966 101.729C41.4836 101.729 30.9403 91.1857 30.9403 78.1728C30.9403 65.1598 41.4836 54.6165 54.4966 54.6165ZM54.4966 52.2418C40.2488 52.2418 28.5656 63.83 28.5656 78.1728C28.5656 92.5155 40.1538 104.104 54.4966 104.104C68.8394 104.104 80.4276 92.5155 80.4276 78.1728C80.4276 63.83 68.8394 52.2418 54.4966 52.2418Z" fill="black"/>
<path d="M57.1562 149.032C68.1725 149.032 77.1031 140.101 77.1031 129.085C77.1031 118.068 68.1725 109.138 57.1562 109.138C46.1398 109.138 37.2093 118.068 37.2093 129.085C37.2093 140.101 46.1398 149.032 57.1562 149.032Z" fill="#B28A39"/>
<path d="M57.1562 110.373C67.5096 110.373 75.8683 118.731 75.8683 129.085C75.8683 139.438 67.5096 147.797 57.1562 147.797C46.8028 147.797 38.4441 139.438 38.4441 129.085C38.4441 118.731 46.8028 110.373 57.1562 110.373ZM57.1562 107.998C45.568 107.998 36.0695 117.497 36.0695 129.085C36.0695 140.673 45.568 150.172 57.1562 150.172C68.7444 150.172 78.2429 140.673 78.2429 129.085C78.2429 117.497 68.8394 107.998 57.1562 107.998Z" fill="black"/>
<path d="M82.7072 194.625C82.0423 194.625 81.5673 194.055 81.5673 193.485L80.0476 44.0731C80.0476 43.5982 80.3325 43.1233 80.8075 42.9333C80.9974 42.8383 81.0924 42.8383 81.2824 42.8383C81.5673 42.8383 81.8523 42.9333 82.1372 43.2183L94.2954 55.2814C94.4853 55.4713 94.6753 55.8513 94.6753 56.1362L88.5962 193.485C88.5962 194.15 88.0263 194.625 87.4564 194.625H82.7072Z" fill="#B28A39"/>
<path d="M81.0924 43.9781L93.2505 56.0413L87.1715 193.39H82.7072L81.0924 43.9781ZM81.0924 41.6035C80.8075 41.6035 80.4275 41.6985 80.1426 41.7935C79.2877 42.1734 78.7178 43.0283 78.7178 43.9781L80.2376 193.39C80.2376 194.72 81.2824 195.764 82.6122 195.764H87.0765C88.3113 195.764 89.3561 194.72 89.4511 193.485L95.5302 56.1362C95.5302 55.4713 95.3402 54.8064 94.8653 54.3315L82.7072 42.2684C82.3272 41.8885 81.7573 41.6035 81.0924 41.6035Z" fill="black"/>
<path d="M50.6022 91.3757C58.4186 91.3757 64.755 85.0393 64.755 77.2229C64.755 69.4066 58.4186 63.0701 50.6022 63.0701C42.7858 63.0701 36.4494 69.4066 36.4494 77.2229C36.4494 85.0393 42.7858 91.3757 50.6022 91.3757Z" fill="#E2C185"/>
<path d="M48.7025 82.922C52.7943 82.922 56.1113 79.6049 56.1113 75.5132C56.1113 71.4214 52.7943 68.1043 48.7025 68.1043C44.6107 68.1043 41.2936 71.4214 41.2936 75.5132C41.2936 79.6049 44.6107 82.922 48.7025 82.922Z" fill="#B28A39"/>
<path d="M56.4913 142.573C64.4125 142.573 70.834 136.151 70.834 128.23C70.834 120.309 64.4125 113.887 56.4913 113.887C48.57 113.887 42.1485 120.309 42.1485 128.23C42.1485 136.151 48.57 142.573 56.4913 142.573Z" fill="#E2C185"/>
<path d="M54.4966 134.024C58.6408 134.024 62.0004 130.664 62.0004 126.52C62.0004 122.376 58.6408 119.016 54.4966 119.016C50.3523 119.016 46.9928 122.376 46.9928 126.52C46.9928 130.664 50.3523 134.024 54.4966 134.024Z" fill="#B28A39"/>
<path d="M317.511 194.625C317.226 194.625 316.846 194.53 316.656 194.245C316.466 194.055 316.276 193.675 316.276 193.39L317.796 43.9781C317.796 43.3132 318.365 42.8383 318.935 42.8383H376.021C376.306 42.8383 376.686 42.9333 376.876 43.2183C377.066 43.5032 377.256 43.7882 377.161 44.0731L365.573 193.58C365.478 194.245 365.003 194.72 364.433 194.72H317.511V194.625Z" fill="#FFBD66"/>
<path d="M376.116 43.9781L364.433 193.39H317.511L319.03 43.9781H376.116ZM376.116 41.6035H319.03C317.701 41.6035 316.656 42.6484 316.656 43.9781L315.136 193.39C315.136 194.055 315.421 194.625 315.801 195.1C316.276 195.574 316.846 195.764 317.511 195.764H364.433C365.668 195.764 366.713 194.815 366.808 193.58L378.491 44.1681C378.586 43.5032 378.301 42.8383 377.826 42.3634C377.351 41.8885 376.781 41.6035 376.116 41.6035Z" fill="black"/>
<path d="M345.626 102.869C359.265 102.869 370.322 91.8121 370.322 78.1728C370.322 64.5335 359.265 53.4766 345.626 53.4766C331.987 53.4766 320.93 64.5335 320.93 78.1728C320.93 91.8121 331.987 102.869 345.626 102.869Z" fill="#B28A39"/>
<path d="M345.626 54.6165C358.639 54.6165 369.182 65.1598 369.182 78.1728C369.182 91.1857 358.639 101.729 345.626 101.729C332.613 101.729 322.07 91.1857 322.07 78.1728C322.07 65.1598 332.613 54.6165 345.626 54.6165ZM345.626 52.2418C331.378 52.2418 319.695 63.83 319.695 78.1728C319.695 92.5155 331.283 104.104 345.626 104.104C359.874 104.104 371.557 92.5155 371.557 78.1728C371.557 63.83 359.969 52.2418 345.626 52.2418Z" fill="black"/>
<path d="M342.967 149.032C353.983 149.032 362.913 140.101 362.913 129.085C362.913 118.068 353.983 109.138 342.967 109.138C331.95 109.138 323.02 118.068 323.02 129.085C323.02 140.101 331.95 149.032 342.967 149.032Z" fill="#B28A39"/>
<path d="M342.967 110.373C353.32 110.373 361.679 118.731 361.679 129.085C361.679 139.438 353.32 147.797 342.967 147.797C332.613 147.797 324.254 139.438 324.254 129.085C324.254 118.731 332.613 110.373 342.967 110.373ZM342.967 107.998C331.378 107.998 321.88 117.497 321.88 129.085C321.88 140.673 331.378 150.172 342.967 150.172C354.555 150.172 364.053 140.673 364.053 129.085C364.053 117.497 354.65 107.998 342.967 107.998Z" fill="black"/>
<path d="M312.951 194.625C312.286 194.625 311.811 194.15 311.811 193.485L305.732 56.1362C305.732 55.7563 305.827 55.4713 306.112 55.2814L318.27 43.2183C318.46 43.0283 318.84 42.8383 319.125 42.8383C319.315 42.8383 319.41 42.8383 319.6 42.9333C320.075 43.1233 320.36 43.5982 320.36 44.0731L318.84 193.485C318.84 194.15 318.27 194.625 317.701 194.625H312.951Z" fill="#B28A39"/>
<path d="M319.03 43.9781L317.511 193.39H313.046L306.967 56.0413L319.03 43.9781ZM319.03 41.6035C318.46 41.6035 317.796 41.8885 317.321 42.2684L305.162 54.3315C304.688 54.8064 304.403 55.4713 304.498 56.1362L310.577 193.485C310.672 194.72 311.716 195.764 312.951 195.764H317.416C318.745 195.764 319.79 194.72 319.79 193.39L321.31 43.9781C321.31 43.0283 320.74 42.1734 319.885 41.7935C319.695 41.6985 319.315 41.6035 319.03 41.6035Z" fill="black"/>
<path d="M349.521 91.3757C357.337 91.3757 363.673 85.0393 363.673 77.2229C363.673 69.4066 357.337 63.0701 349.521 63.0701C341.704 63.0701 335.368 69.4066 335.368 77.2229C335.368 85.0393 341.704 91.3757 349.521 91.3757Z" fill="#E2C185"/>
<path d="M351.42 82.922C355.512 82.922 358.829 79.6049 358.829 75.5132C358.829 71.4214 355.512 68.1043 351.42 68.1043C347.328 68.1043 344.011 71.4214 344.011 75.5132C344.011 79.6049 347.328 82.922 351.42 82.922Z" fill="#B28A39"/>
<path d="M343.726 142.573C351.648 142.573 358.069 136.151 358.069 128.23C358.069 120.309 351.648 113.887 343.726 113.887C335.805 113.887 329.384 120.309 329.384 128.23C329.384 136.151 335.805 142.573 343.726 142.573Z" fill="#E2C185"/>
<path d="M345.626 134.024C349.77 134.024 353.13 130.664 353.13 126.52C353.13 122.376 349.77 119.016 345.626 119.016C341.482 119.016 338.122 122.376 338.122 126.52C338.122 130.664 341.482 134.024 345.626 134.024Z" fill="#B28A39"/>
<path d="M17.2623 399.318C16.6924 399.318 16.1225 398.843 16.1225 398.273L1.39978 222.55C1.39978 222.265 1.49476 221.885 1.68474 221.6C1.87471 221.316 2.25465 221.221 2.5396 221.221H409.361C409.741 221.221 410.026 221.316 410.216 221.6C410.406 221.885 410.596 222.17 410.501 222.55L394.353 398.273C394.258 398.843 393.784 399.318 393.214 399.318H17.2623Z" fill="#FFBD66"/>
<path d="M409.361 222.455L393.214 398.178H17.2624L2.53967 222.455H409.361ZM409.361 220.081H2.53967C1.87477 220.081 1.20988 220.366 0.829936 220.841C0.35501 221.315 0.165039 221.98 0.165039 222.645L14.8877 398.368C14.9827 399.603 16.0276 400.553 17.2624 400.553H393.214C394.449 400.553 395.493 399.603 395.588 398.368L411.736 222.645C411.831 221.98 411.546 221.315 411.166 220.841C410.691 220.366 410.026 220.081 409.361 220.081Z" fill="black"/>
<path d="M203.338 196.144C202.958 198.994 202.483 202.034 200.584 204.313C199.349 205.833 197.639 206.688 196.024 207.543C194.41 208.398 192.795 209.252 191.085 210.107C190.42 210.487 189.755 210.772 189.091 210.677C187.856 210.392 187.856 208.303 188.806 206.973C189.755 205.643 191.18 204.978 192.415 204.123C193.745 203.268 194.98 202.223 195.834 200.894C197.544 198.234 197.639 194.91 198.589 191.87C199.064 190.445 199.824 189.021 201.059 188.261C202.009 187.691 203.623 187.596 204.098 188.641C204.288 189.116 204.098 189.685 204.098 190.16C204.003 191.11 203.813 192.06 203.718 192.915C203.623 193.96 203.433 195.005 203.338 196.144Z" fill="#BFDDAF"/>
<path d="M187.096 207.923C187.286 207.353 187.476 206.688 187.856 206.213C188.806 204.978 190.04 204.123 191.085 203.458C191.275 203.268 191.56 203.173 191.75 202.983C193.175 202.129 194.125 201.179 194.79 200.039C195.739 198.519 196.119 196.714 196.594 194.815C196.879 193.675 197.069 192.44 197.449 191.3C197.924 189.97 198.779 188.071 200.394 187.026C201.344 186.456 202.673 186.266 203.623 186.551C204.383 186.836 204.953 187.311 205.143 187.976C205.428 188.641 205.333 189.401 205.238 189.97V190.16C205.143 190.825 205.048 191.49 204.953 192.155L204.383 196.144C203.908 199.374 203.338 202.508 201.344 204.883C199.919 206.593 198.019 207.638 196.404 208.398L191.465 210.962C190.8 211.342 189.755 211.912 188.616 211.627C187.856 211.437 187.191 210.962 186.906 210.107C186.906 209.632 186.906 208.777 187.096 207.923ZM198.684 197.094C198.304 198.614 197.829 200.039 196.974 201.464C196.119 202.793 194.885 204.028 193.175 205.073C192.89 205.263 192.7 205.358 192.415 205.548C191.465 206.213 190.515 206.783 189.85 207.638C189.375 208.303 189.375 209.157 189.47 209.442C189.755 209.442 190.325 209.062 190.515 208.967L195.36 206.403C196.784 205.643 198.399 204.788 199.539 203.458C201.154 201.559 201.629 198.804 202.009 195.955L202.578 191.965C202.673 191.3 202.768 190.635 202.863 189.97V189.78C202.863 189.59 202.958 189.211 202.958 189.021C202.768 188.926 202.198 188.926 201.724 189.211C200.964 189.685 200.204 190.825 199.729 192.25C199.349 193.295 199.159 194.34 198.874 195.48C198.874 195.955 198.779 196.524 198.684 197.094Z" fill="#231916"/>
<path d="M192.89 108.283C191.75 106.668 191.655 104.294 190.23 102.869C189.09 101.824 187.476 101.539 186.241 100.684C185.101 99.8295 184.436 98.4997 183.961 97.1699C181.492 90.6159 182.062 83.0171 185.481 76.8431C185.956 76.0832 186.431 75.3233 186.621 74.3734C186.906 72.8537 186.241 71.3339 186.526 69.9091C186.811 67.8195 188.711 66.2997 190.04 64.6849C191.94 62.4053 192.985 59.4608 193.08 56.5162C193.175 54.1416 192.605 51.577 193.65 49.4873C194.505 47.8726 196.214 46.9227 197.354 45.4979C199.919 42.5534 200.109 37.8041 203.338 35.5245C205.998 33.6248 209.607 34.0997 212.647 32.8649C214.926 31.9151 217.396 29.9204 219.581 31.0602C221.195 31.9151 221.575 34.1947 223 35.3345C224.33 36.4744 226.42 36.6643 227.275 38.1841C228.034 39.7038 226.895 41.6985 227.56 43.3133C227.844 44.0732 228.414 44.6431 228.889 45.308C230.599 47.8726 230.029 51.292 229.269 54.3316C228.034 59.5557 226.8 64.7799 223.855 69.2442C222.145 71.8088 219.866 74.1835 218.821 77.128C217.016 82.2572 219.296 88.6212 216.161 93.1805C215.306 94.3203 214.167 95.2702 213.502 96.505C212.837 97.6448 212.647 98.9746 212.362 100.209C211.412 103.439 209.417 106.383 206.758 108.473C205.523 109.423 203.908 110.468 202.293 110.848C201.724 110.943 201.154 110.943 200.584 110.753C199.824 110.563 198.969 110.563 198.209 110.468C196.024 110.468 194.03 109.898 192.89 108.283Z" fill="#A9CE53"/>
<path d="M196.024 111.608C194.125 111.133 192.795 110.278 191.845 109.043C191.18 108.188 190.895 107.238 190.515 106.288C190.23 105.339 189.85 104.389 189.281 103.819C188.806 103.344 188.141 103.154 187.476 102.774C186.811 102.489 186.051 102.204 185.386 101.634C183.961 100.589 183.201 98.8796 182.727 97.5498C180.162 90.6158 180.732 82.6371 184.341 76.1781L184.531 75.8932C184.911 75.2283 185.196 74.6583 185.291 74.0884C185.386 73.5185 185.291 72.8536 185.196 72.0937C185.101 71.3339 185.006 70.479 185.101 69.6241C185.386 67.6294 186.716 66.1097 187.951 64.7799C188.331 64.3999 188.616 64.02 188.901 63.735C190.61 61.6454 191.56 58.9858 191.655 56.3262C191.655 55.7563 191.655 55.0914 191.655 54.5215C191.56 52.6218 191.465 50.6271 192.415 48.8224C193.08 47.6826 194.03 46.8277 194.885 45.9728C195.36 45.4979 195.834 45.1179 196.309 44.643C197.259 43.5032 197.924 41.9834 198.589 40.4637C199.539 38.279 200.394 35.9994 202.483 34.4796C204.288 33.1498 206.283 32.8649 208.278 32.5799C209.607 32.3899 210.842 32.2 211.982 31.725C212.457 31.5351 213.027 31.2501 213.597 30.9652C215.591 29.9203 217.776 28.7805 220.056 30.0153C221.291 30.6802 221.955 31.82 222.525 32.7699C222.905 33.4348 223.285 34.0047 223.76 34.4796C224.14 34.7646 224.71 35.0495 225.28 35.3345C226.42 35.8094 227.655 36.3793 228.319 37.7091C228.889 38.8489 228.699 39.9887 228.604 41.0336C228.509 41.6985 228.414 42.4584 228.604 42.9333C228.699 43.2182 228.984 43.5982 229.269 43.9781C229.459 44.1681 229.649 44.4531 229.744 44.643C231.739 47.5876 231.074 51.292 230.314 54.6165C229.174 59.6507 227.844 65.2548 224.805 70.0041C224.235 70.8589 223.665 71.7138 223 72.4737C221.765 74.1834 220.531 75.7982 219.866 77.6029C219.201 79.5976 219.106 81.8772 219.106 84.2518C219.106 87.5763 219.011 90.9958 217.016 93.9403C216.636 94.5102 216.161 94.9852 215.781 95.4601C215.211 96.03 214.737 96.5999 214.452 97.1698C214.072 97.8347 213.882 98.6896 213.597 99.6394C213.502 100.019 213.407 100.304 213.312 100.684C212.362 104.104 210.177 107.333 207.233 109.613C205.428 111.038 203.813 111.893 202.293 112.272C201.439 112.462 200.774 112.367 200.109 112.177C199.634 112.083 199.064 112.082 198.494 111.988C198.304 111.988 198.019 111.988 197.829 111.893C197.259 111.798 196.594 111.703 196.024 111.608ZM218.346 32.105C217.396 31.915 216.256 32.3899 214.642 33.2448C214.072 33.5298 213.502 33.8147 212.837 34.0997C211.412 34.6696 209.987 34.8595 208.563 35.1445C206.758 35.4295 205.048 35.7144 203.813 36.6643C202.293 37.8041 201.534 39.6088 200.774 41.6035C200.109 43.3132 199.349 45.023 198.114 46.4477C197.639 47.0177 197.069 47.4926 196.499 48.0625C195.74 48.7274 194.98 49.3923 194.505 50.2472C193.84 51.482 193.935 53.0967 194.03 54.7115C194.03 55.3763 194.125 56.0412 194.125 56.7061C194.03 59.9356 192.89 63.0701 190.8 65.6347C190.515 66.0147 190.135 66.3946 189.755 66.7746C188.711 67.9144 187.761 68.9592 187.571 70.289C187.476 70.8589 187.571 71.4288 187.666 72.0937C187.761 72.9486 187.856 73.8985 187.666 74.8483C187.476 75.7982 187.001 76.653 186.621 77.3179L186.431 77.6029C183.201 83.397 182.632 90.6158 185.006 96.8849C185.386 97.9297 185.956 99.1645 186.906 99.8294C187.381 100.114 187.856 100.399 188.521 100.684C189.376 101.064 190.325 101.444 191.085 102.204C192.13 103.154 192.51 104.484 192.985 105.624C193.27 106.383 193.555 107.143 193.935 107.713C194.695 108.758 196.119 109.328 198.114 109.518C198.304 109.518 198.494 109.518 198.779 109.518C199.349 109.518 200.014 109.613 200.679 109.708C201.249 109.803 201.534 109.898 201.819 109.803C202.958 109.518 204.288 108.853 205.808 107.618C208.373 105.624 210.177 102.964 211.032 100.019C211.127 99.7344 211.222 99.3545 211.317 99.0695C211.602 98.0247 211.792 96.9799 212.362 96.03C212.837 95.1751 213.407 94.5102 214.072 93.8453C214.452 93.3704 214.832 92.9905 215.116 92.6105C216.731 90.3309 216.731 87.4813 216.731 84.3468C216.731 81.8772 216.731 79.3126 217.586 76.843C218.346 74.6583 219.676 72.8536 221.006 71.0489C221.575 70.289 222.145 69.5291 222.715 68.6743C225.565 64.305 226.8 59.1758 227.939 54.1415C228.604 51.197 229.174 48.2525 227.75 46.0678C227.655 45.8778 227.465 45.6879 227.37 45.4979C226.99 45.023 226.61 44.4531 226.325 43.7882C225.945 42.7433 226.04 41.6985 226.23 40.7486C226.325 39.9888 226.42 39.2289 226.135 38.7539C225.85 38.184 225.185 37.8991 224.33 37.5191C223.665 37.2342 222.905 36.8542 222.24 36.2843C221.48 35.6194 220.911 34.7646 220.531 34.0047C220.056 33.2448 219.676 32.4849 219.011 32.2C218.631 32.2 218.536 32.105 218.346 32.105Z" fill="#231916"/>
<path d="M184.151 115.312C182.442 114.932 180.732 114.267 179.212 113.507C172.563 110.278 166.484 104.959 159.075 104.959C156.796 104.959 154.421 105.434 152.236 104.864C149.767 104.104 147.962 102.109 145.682 101.159C143.878 100.494 141.978 100.399 140.173 99.8294C137.324 98.9746 134.949 96.8849 133.714 94.2253C132.669 91.9456 132.479 89.2861 130.77 87.5763C129.63 86.3415 127.92 85.7716 126.305 85.1067C120.131 82.3521 114.907 76.4631 115.002 69.7191C115.002 68.9592 115.097 68.1994 115.477 67.4395C116.047 66.2047 117.377 65.4448 118.517 64.7799C122.791 62.4053 126.685 58.7008 131.529 58.0359C136.374 57.371 142.073 59.9356 146.062 62.7852C146.632 63.2601 147.297 63.735 147.962 63.83C148.817 63.925 149.577 63.5451 150.337 63.2601C154.136 61.8353 158.505 63.1651 162.115 65.1598C163.634 66.0147 165.154 67.0595 166.104 68.5793C166.769 69.6241 167.149 70.8589 167.719 71.9988C168.954 74.3734 171.328 76.0831 173.893 76.843C175.508 77.3179 177.312 77.4129 178.737 78.2678C180.827 79.5026 181.872 81.9722 182.537 84.2518C183.201 86.6265 183.676 89.0961 185.101 90.9958C186.526 92.8005 188.711 93.9403 190.515 95.3651C193.65 97.9297 195.644 101.729 196.119 105.719C196.404 107.713 196.309 109.803 195.739 111.703C195.549 112.462 195.265 113.032 194.6 113.412C193.745 113.887 192.795 114.362 191.845 114.742C189.375 115.502 186.716 115.787 184.151 115.312Z" fill="#A9CE53"/>
<path d="M183.296 116.357C181.872 115.977 180.352 115.407 178.547 114.552C176.647 113.602 174.748 112.557 172.943 111.418C168.289 108.663 163.919 106.098 158.98 106.098C158.315 106.098 157.65 106.098 156.986 106.193C155.276 106.288 153.566 106.383 151.856 105.908C150.337 105.434 149.102 104.579 147.962 103.819C147.012 103.154 146.157 102.584 145.207 102.204C144.353 101.824 143.308 101.634 142.358 101.539C141.503 101.349 140.648 101.254 139.793 100.969C136.659 100.019 133.999 97.6448 132.574 94.7002C132.194 93.8454 131.909 92.9905 131.624 92.1356C131.15 90.6159 130.675 89.2861 129.82 88.3362C128.965 87.4814 127.825 87.0064 126.59 86.4365C126.305 86.3415 126.02 86.2466 125.83 86.0566C119.751 83.302 113.672 77.128 113.767 69.5292C113.767 68.7693 113.862 67.7245 114.337 66.7746C115.097 65.1599 116.617 64.305 117.947 63.5451C119.181 62.8802 120.416 62.0253 121.651 61.2655C124.691 59.2708 127.73 57.1811 131.435 56.7062C136.754 55.9463 142.928 58.7958 146.822 61.6454L147.012 61.7404C147.487 62.0253 147.867 62.3103 148.152 62.4053C148.532 62.5003 149.007 62.2153 149.482 62.0253C149.577 61.9304 149.767 61.9304 149.862 61.8354C154.516 60.1256 159.36 61.9304 162.685 63.8301C164.109 64.6849 165.914 65.8247 167.054 67.6295C167.529 68.2944 167.814 69.0542 168.099 69.8141C168.289 70.2891 168.479 70.764 168.764 71.1439C169.809 73.1386 171.803 74.6584 174.178 75.4183C174.653 75.5132 175.128 75.7032 175.698 75.7982C176.932 76.0832 178.167 76.3681 179.307 77.033C181.967 78.5528 183.011 81.5923 183.676 83.7769C183.771 84.1569 183.866 84.5368 183.961 84.9168C184.436 86.8165 184.911 88.7162 186.051 90.046C186.906 91.0908 188.046 91.9457 189.28 92.8005C189.945 93.2755 190.61 93.6554 191.18 94.2253C194.505 96.8849 196.689 100.969 197.259 105.434C197.544 107.618 197.449 109.898 196.879 111.893C196.689 112.747 196.309 113.697 195.17 114.267C194.22 114.837 193.175 115.312 192.225 115.692C189.47 116.737 186.621 117.022 183.771 116.452C183.676 116.452 183.486 116.357 183.296 116.357ZM163.065 104.199C167.054 105.149 170.663 107.333 174.273 109.423C176.078 110.468 177.882 111.513 179.687 112.462C181.492 113.317 182.916 113.887 184.341 114.172C186.621 114.647 189.186 114.362 191.37 113.507C192.225 113.222 193.08 112.747 193.935 112.272C194.22 112.083 194.315 111.988 194.505 111.323C194.98 109.613 195.075 107.713 194.79 105.813C194.315 102.014 192.415 98.4997 189.565 96.22C188.996 95.7451 188.426 95.3651 187.761 94.8902C186.431 93.9404 185.006 92.9905 183.961 91.5657C182.537 89.761 181.967 87.5764 181.492 85.4867C181.397 85.1067 181.302 84.7268 181.207 84.3469C180.732 82.6371 179.877 80.1675 177.977 79.0277C177.122 78.5528 176.173 78.3628 175.128 78.0778C174.558 77.9828 173.988 77.8879 173.418 77.6979C170.378 76.843 167.909 74.8483 166.484 72.2837C166.199 71.8088 166.009 71.2389 165.724 70.764C165.439 70.0991 165.154 69.5292 164.869 68.9593C164.014 67.6295 162.495 66.6796 161.355 66.0147C158.505 64.4 154.326 62.7852 150.622 64.21C150.527 64.21 150.337 64.305 150.242 64.4C149.482 64.6849 148.627 65.0649 147.677 64.8749C146.727 64.7799 145.967 64.21 145.397 63.7351L145.207 63.6401C141.598 61.0755 136.184 58.5109 131.53 59.0808C128.395 59.4607 125.735 61.3604 122.791 63.2601C121.556 64.115 120.226 64.9699 118.896 65.6348C117.852 66.2047 116.807 66.8696 116.332 67.8194C116.142 68.2944 116.047 68.7693 116.047 69.6242C115.952 76.1781 121.271 81.4973 126.59 83.8719C126.875 83.9669 127.065 84.0619 127.35 84.1569C128.775 84.7268 130.2 85.3917 131.435 86.6265C132.764 88.0513 133.334 89.761 133.809 91.3758C134.094 92.1356 134.284 92.8955 134.569 93.6554C135.614 96.03 137.799 97.8348 140.268 98.5946C141.028 98.7846 141.693 98.9746 142.548 99.0696C143.688 99.2595 144.827 99.4495 145.967 99.9244C147.202 100.399 148.247 101.159 149.197 101.824C150.242 102.584 151.286 103.249 152.426 103.629C153.756 104.009 155.181 103.914 156.701 103.819C157.46 103.724 158.125 103.724 158.885 103.724C160.405 103.724 161.83 103.914 163.065 104.199Z" fill="#231916"/>
<path d="M137.704 66.3947C137.704 66.3947 168.194 83.7769 178.832 97.1699C189.47 110.563 205.333 138.678 205.333 138.678L202.294 140.673C202.294 140.673 179.972 105.529 173.798 97.9297C160.215 81.3073 136.279 70.479 137.704 66.3947Z" fill="#8DC220"/>
<path d="M201.914 142.383L201.249 141.338C201.059 140.958 178.927 106.193 172.848 98.6896C165.629 89.761 155.181 82.4471 147.582 77.1279C139.888 71.7138 135.614 68.7693 136.564 66.0147L137.039 64.5899L138.368 65.3498C139.603 66.1097 169.144 83.017 179.877 96.4099C190.515 109.708 206.283 137.823 206.473 138.108L207.043 139.153L201.914 142.383ZM144.353 71.8088C145.872 72.8536 147.487 73.9934 148.912 75.0383C156.606 80.4524 167.244 87.8613 174.653 97.0748C180.352 104.009 198.779 132.884 202.578 138.963L203.623 138.298C200.679 133.169 187.191 109.708 177.787 97.9297C170.663 88.9061 154.041 77.8878 144.353 71.8088Z" fill="#231916"/>
<path d="M214.262 45.593C214.262 45.593 200.204 77.698 199.634 94.7953C199.064 111.893 200.394 144.473 200.394 144.473L204.003 144.283C204.003 144.283 203.718 102.204 204.193 92.4207C205.048 70.954 217.776 48.0626 214.262 45.593Z" fill="#8DC220"/>
<path d="M199.159 145.802L199.064 144.567C199.064 144.283 197.734 111.798 198.304 94.7953C198.874 77.6029 212.457 46.4478 213.122 45.118L213.692 43.7882L214.927 44.6431C217.301 46.2578 215.686 51.1971 212.742 60.1257C209.797 68.9593 205.808 81.0224 205.333 92.5156C204.858 102.204 205.143 143.903 205.143 144.378V145.517L199.159 145.802ZM212.172 53.9516C207.993 64.495 201.249 83.302 200.869 94.8902C200.394 109.898 201.344 137.064 201.534 143.238L202.768 143.143C202.768 136.304 202.483 101.159 202.958 92.3256C203.528 80.5475 207.518 68.2944 210.462 59.2708C210.937 57.5611 211.602 55.7563 212.172 53.9516Z" fill="#231916"/>
<path d="M204.763 109.043C203.528 107.333 202.958 105.339 202.483 103.344C201.344 98.8796 200.774 93.5604 203.718 90.0459C206.473 86.8164 211.697 85.6766 213.122 81.6872C214.262 78.5527 212.362 74.7533 214.072 71.9038C215.496 69.6241 218.536 68.9592 220.531 67.1545C223.95 63.925 223.095 57.656 226.8 54.8064C228.224 53.6666 230.124 53.2867 232.024 52.9067C234.018 52.5268 236.108 52.1468 238.103 51.6719C239.338 51.4819 240.572 51.102 241.427 50.2471C241.902 49.6772 242.187 49.0123 242.472 48.3474C243.517 46.3527 245.607 45.1179 247.791 44.453C254.44 42.4584 262.229 45.9728 265.079 52.3368C266.313 55.0914 266.693 58.2259 266.693 61.2654C266.693 63.5451 266.503 65.9197 265.364 67.9144C262.989 71.9987 257.385 73.2336 255.2 77.4129C253.585 80.4524 254.25 84.1569 253.016 87.3863C252.256 89.2861 250.736 90.9958 248.931 91.9456C247.221 92.8005 245.322 93.0855 243.517 93.7504C241.712 94.3203 239.908 95.4601 239.148 97.2648C238.103 99.9244 239.908 103.154 238.293 105.529C236.298 108.473 231.454 106.953 228.509 108.853C225.47 110.848 225.185 116.072 221.575 117.022C220.436 117.307 219.201 117.022 218.061 116.642C215.971 115.882 213.882 114.837 212.077 113.507C211.412 113.032 210.747 112.272 209.797 112.082C208.942 111.893 208.183 111.798 207.423 111.418C206.283 110.848 205.428 109.993 204.763 109.043Z" fill="#8CC457"/>
<path d="M218.726 118.067C218.251 117.972 217.871 117.877 217.491 117.687C215.211 116.927 213.122 115.787 211.222 114.362C211.032 114.267 210.842 114.077 210.652 113.887C210.177 113.507 209.797 113.222 209.417 113.127C209.227 113.127 209.037 113.032 208.847 113.032C208.183 112.937 207.518 112.747 206.758 112.368C205.618 111.798 204.478 110.848 203.718 109.708C202.388 107.808 201.724 105.624 201.249 103.534C200.204 99.3545 199.254 93.2755 202.673 89.1911C203.908 87.6713 205.618 86.6265 207.233 85.6767C209.227 84.4418 211.222 83.207 211.887 81.2124C212.267 79.9775 212.172 78.6478 212.077 77.128C211.982 75.1333 211.792 73.0436 212.932 71.1439C213.882 69.5292 215.496 68.6743 217.016 67.8194C217.966 67.2495 218.916 66.7746 219.581 66.1097C221.006 64.7799 221.575 62.7852 222.24 60.6006C223 58.036 223.76 55.3764 225.945 53.6666C227.655 52.3369 229.839 51.8619 231.644 51.482L237.723 50.2472C238.863 50.0572 239.813 49.7723 240.383 49.2023C240.572 48.9174 240.762 48.5374 240.952 48.1575C241.047 47.9675 241.142 47.6826 241.332 47.4926C242.472 45.4979 244.562 43.8832 247.316 43.0283C254.535 40.8437 262.989 44.6431 266.123 51.577C267.263 54.1416 267.833 57.1811 267.833 61.0755C267.833 63.3551 267.643 66.0147 266.313 68.2944C264.984 70.574 262.894 71.9988 260.899 73.3286C259 74.6584 257.1 75.8932 256.15 77.6979C255.39 79.1227 255.2 80.8324 255.01 82.6371C254.82 84.2519 254.63 85.9616 253.965 87.5764C253.111 89.761 251.401 91.6607 249.216 92.8005C247.981 93.4654 246.747 93.7504 245.512 94.1303C244.847 94.3203 244.182 94.5103 243.612 94.7002C242.282 95.1752 240.572 96.03 240.003 97.4548C239.623 98.4047 239.718 99.5445 239.813 100.779C239.908 102.489 240.098 104.389 239.053 106.003C237.628 108.188 235.158 108.473 232.879 108.663C231.359 108.853 229.934 108.948 228.889 109.708C227.749 110.468 227.085 111.798 226.325 113.222C225.28 115.217 224.14 117.402 221.67 118.067C220.721 118.352 219.676 118.257 218.726 118.067ZM209.987 110.848C210.937 111.038 211.602 111.608 212.172 112.083C212.362 112.178 212.457 112.367 212.647 112.462C214.357 113.697 216.256 114.742 218.251 115.407C219.106 115.692 220.151 115.977 221.101 115.787C222.525 115.407 223.285 113.887 224.235 112.178C225.09 110.563 226.04 108.853 227.654 107.808C229.174 106.763 230.979 106.573 232.784 106.383C234.683 106.193 236.393 106.003 237.153 104.769C237.723 103.819 237.628 102.584 237.533 101.159C237.438 99.7345 237.248 98.2147 237.818 96.7899C238.578 94.8902 240.288 93.4654 242.852 92.6106C243.517 92.4206 244.277 92.2306 244.942 92.0407C246.082 91.7557 247.221 91.4708 248.171 90.9008C249.786 90.046 251.021 88.6212 251.686 87.0065C252.161 85.6767 252.351 84.2519 252.541 82.7321C252.731 80.8324 253.016 78.7427 253.965 76.938C255.2 74.5634 257.385 73.0436 259.475 71.6189C261.374 70.2891 263.084 69.1492 264.129 67.3445C265.174 65.5398 265.269 63.3551 265.269 61.3604C265.269 57.846 264.794 55.1864 263.749 52.9068C261.184 47.2077 253.87 43.8832 247.886 45.6879C246.652 46.0678 244.372 47.0177 243.327 49.0124C243.232 49.2023 243.137 49.3923 243.042 49.5823C242.757 50.0572 242.567 50.6271 242.092 51.1021C240.952 52.3369 239.243 52.7168 238.103 52.9068L232.024 54.1416C230.409 54.4265 228.604 54.8065 227.37 55.8513C225.755 57.0861 225.185 59.2708 224.52 61.5504C223.855 63.9251 223.095 66.3947 221.196 68.1994C220.246 69.0543 219.201 69.7191 218.061 70.2891C216.731 70.954 215.591 71.6188 214.926 72.7587C214.167 73.9935 214.262 75.6082 214.452 77.318C214.547 78.9327 214.642 80.6424 214.072 82.3522C213.122 85.1067 210.747 86.6265 208.373 88.0513C206.853 89.0011 205.428 89.856 204.478 91.0908C201.724 94.4153 202.578 99.6395 203.528 103.344C204.003 105.244 204.478 107.143 205.618 108.663C206.188 109.518 206.948 110.183 207.803 110.563C208.278 110.753 208.657 110.848 209.227 110.943C209.512 110.753 209.797 110.753 209.987 110.848Z" fill="#231916"/>
<path d="M202.388 138.488C202.388 138.488 206.093 99.9244 225.375 80.0725C245.132 59.7457 253.87 56.0413 255.58 57.561C255.58 57.561 227.465 79.1227 219.771 93.9404C212.077 108.853 204.858 138.773 204.858 138.773L202.388 138.488Z" fill="#8DC220"/>
<path d="M201.059 139.533L201.154 138.393C201.154 138.298 202.104 128.515 205.428 116.452C208.468 105.244 214.262 89.666 224.425 79.2177C241.047 62.0253 252.921 53.6666 256.34 56.7062L257.48 57.656L256.34 58.5109C256.055 58.7009 228.319 80.0725 220.816 94.5103C213.217 109.043 206.093 138.773 205.998 139.058L205.713 140.103L201.059 139.533ZM250.451 60.0306C249.501 60.5056 248.456 61.1705 247.221 62.1203C241.712 65.9197 234.493 72.3787 226.325 80.9274C209.417 98.4047 204.668 130.89 203.813 137.444H203.908C205.238 131.839 211.697 106.858 218.631 93.3705C221.955 87.1014 228.984 78.9327 239.718 69.2442C243.802 65.5398 247.601 62.3103 250.451 60.0306Z" fill="#231916"/>
<path d="M184.626 123.481C183.961 124.621 183.391 125.95 182.442 126.805C180.162 128.895 176.552 127.85 173.608 127.28C172.753 127.09 171.898 126.995 171.138 127.09C169.903 127.28 168.669 127.85 167.529 128.325C165.724 128.99 163.634 129.275 161.735 128.8C159.835 128.325 158.125 126.995 157.27 125.19C156.891 124.336 156.701 123.386 156.131 122.721C154.991 121.581 153.186 121.771 151.571 122.056C147.772 122.531 143.403 122.246 141.028 119.301C139.983 118.067 139.413 116.357 137.988 115.502C136.279 114.362 133.999 114.932 132.004 114.552C130.39 114.172 128.965 113.222 127.635 112.272C125.355 110.563 122.886 108.283 122.791 105.434C122.696 102.584 124.786 100.209 126.97 98.4996C131.055 95.2701 136.374 93.0855 141.408 94.2253C142.738 94.5103 143.973 94.9852 145.302 94.9852C147.107 94.8902 148.722 93.7504 150.432 93.0855C153.851 91.7557 158.03 92.6105 160.69 95.1751C161.925 96.315 162.97 97.8347 164.584 98.4046C166.674 99.0695 169.144 97.5498 171.138 98.4046C173.323 99.2595 173.893 102.014 175.508 103.629C178.167 106.288 182.916 105.434 185.766 107.903C187.381 109.233 188.141 111.418 188.806 113.412C189.185 114.742 189.66 116.167 189.565 117.592C189.47 118.921 188.901 120.346 187.761 121.201C187.286 121.581 186.716 121.676 186.241 121.961C185.481 122.246 185.006 122.816 184.626 123.481Z" fill="#8CC457"/>
<path d="M161.45 130.035C161.355 130.035 161.355 130.035 161.26 130.035C158.885 129.465 156.891 127.85 156.036 125.76C155.941 125.475 155.846 125.19 155.751 124.906C155.561 124.336 155.371 123.956 155.086 123.671C154.421 123.006 153.186 123.101 151.666 123.291C147.962 123.766 142.928 123.671 139.983 120.156C139.603 119.681 139.223 119.111 138.938 118.542C138.463 117.687 137.988 116.927 137.324 116.547C136.564 116.072 135.519 115.977 134.284 115.977C133.524 115.977 132.669 115.882 131.814 115.787C129.915 115.407 128.3 114.267 126.97 113.317C124.596 111.513 121.746 109.043 121.651 105.529C121.556 102.774 123.076 100.114 126.305 97.5498C131.245 93.5604 136.944 91.9457 141.788 92.9905C142.168 93.0855 142.548 93.1805 142.833 93.2755C143.688 93.4654 144.542 93.7504 145.302 93.6554C146.252 93.5604 147.297 93.0855 148.342 92.6106C148.912 92.3256 149.482 92.0407 150.052 91.8507C153.946 90.3309 158.6 91.2808 161.64 94.1303C162.02 94.4153 162.305 94.7952 162.59 95.1752C163.35 96.03 164.109 96.7899 164.964 97.0749C165.724 97.2649 166.674 97.1699 167.624 96.9799C168.859 96.7899 170.283 96.505 171.708 97.0749C173.418 97.7398 174.273 99.2595 175.128 100.589C175.603 101.349 175.983 102.014 176.552 102.584C177.692 103.724 179.402 104.104 181.207 104.484C183.106 104.959 185.101 105.339 186.716 106.668C188.711 108.283 189.47 110.753 190.135 112.842C190.61 114.172 191.085 115.787 190.99 117.402C190.895 119.206 190.04 121.011 188.711 121.961C188.331 122.246 187.951 122.341 187.666 122.531C187.476 122.626 187.286 122.721 187.096 122.816C186.716 123.101 186.241 123.481 185.956 124.146C185.766 124.431 185.576 124.811 185.386 125.096C184.911 126.045 184.341 126.995 183.486 127.755C180.922 130.035 177.312 129.275 174.368 128.61C174.083 128.515 173.798 128.515 173.513 128.42C172.848 128.325 172.088 128.135 171.423 128.23C170.663 128.325 169.904 128.61 169.144 128.99C168.764 129.18 168.479 129.275 168.099 129.465C165.629 130.32 163.445 130.51 161.45 130.035ZM154.896 120.821C155.656 121.011 156.321 121.296 156.891 121.961C157.46 122.626 157.745 123.386 158.03 124.051C158.125 124.241 158.22 124.526 158.315 124.716C158.885 126.045 160.31 127.185 161.925 127.565C163.445 127.945 165.249 127.755 166.959 127.09C167.244 126.995 167.624 126.805 167.909 126.71C168.859 126.33 169.809 125.855 170.948 125.76C171.993 125.665 172.943 125.76 173.798 125.95C174.083 126.045 174.368 126.045 174.653 126.14C177.312 126.71 179.972 127.28 181.587 125.855C182.157 125.38 182.537 124.621 182.916 123.861C183.106 123.481 183.296 123.101 183.486 122.816C184.056 121.961 184.721 121.201 185.386 120.726C185.671 120.536 186.051 120.346 186.336 120.251C186.526 120.156 186.811 120.061 186.906 119.966C187.666 119.396 188.141 118.447 188.141 117.307C188.141 116.072 187.761 114.837 187.381 113.602C186.716 111.418 186.051 109.708 184.816 108.663C183.676 107.713 182.062 107.333 180.352 106.953C178.262 106.478 176.078 106.003 174.463 104.389C173.703 103.629 173.228 102.774 172.658 101.919C171.993 100.779 171.423 99.8295 170.473 99.4495C169.714 99.1646 168.764 99.2595 167.719 99.4495C166.579 99.6395 165.249 99.8295 164.014 99.4495C162.495 98.9746 161.45 97.8348 160.5 96.8849C160.215 96.6 159.93 96.22 159.645 95.9351C157.365 93.7504 153.661 92.9905 150.622 94.1303C150.147 94.3203 149.672 94.6053 149.102 94.7952C147.867 95.3652 146.632 96.03 145.112 96.03C143.973 96.125 142.928 95.8401 141.883 95.5551C141.598 95.4601 141.218 95.3652 140.933 95.2702C136.754 94.3203 131.909 95.8401 127.54 99.2595C125.83 100.684 123.741 102.774 123.836 105.244C123.931 107.713 126.21 109.708 128.205 111.228C129.345 112.083 130.675 113.032 132.004 113.317C132.669 113.412 133.334 113.507 134.094 113.507C135.519 113.507 137.039 113.602 138.463 114.457C139.603 115.217 140.268 116.262 140.838 117.212C141.123 117.687 141.408 118.162 141.693 118.542C143.878 121.201 148.057 121.201 151.096 120.821C152.331 120.726 153.661 120.536 154.896 120.821Z" fill="#231916"/>
<path d="M216.351 189.78C218.726 191.395 221.291 193.2 222.43 195.859C223.19 197.664 223.285 199.564 223.38 201.369C223.475 203.173 223.475 205.073 223.57 206.878C223.57 207.638 223.57 208.397 223.19 208.872C222.43 209.917 220.531 208.872 219.676 207.448C218.916 206.023 218.916 204.408 218.726 202.983C218.536 201.464 218.156 199.849 217.301 198.424C215.686 195.669 212.742 194.15 210.462 191.965C209.417 190.92 208.468 189.59 208.278 188.166C208.183 187.026 208.847 185.506 209.892 185.601C210.367 185.601 210.842 185.981 211.317 186.266C212.077 186.836 212.837 187.311 213.692 187.881C214.547 188.641 215.401 189.21 216.351 189.78Z" fill="#BFDDAF"/>
<path d="M219.296 209.157C219.011 208.872 218.821 208.492 218.536 208.208C217.776 206.878 217.681 205.358 217.491 204.028C217.491 203.743 217.396 203.458 217.396 203.173C217.206 201.559 216.826 200.229 216.161 199.089C215.211 197.569 213.787 196.429 212.267 195.195C211.317 194.435 210.367 193.675 209.512 192.82C208.467 191.775 207.233 190.16 207.043 188.261C206.948 187.121 207.328 185.886 208.088 185.126C208.657 184.556 209.322 184.271 210.082 184.366C210.842 184.461 211.412 184.841 211.887 185.126L212.077 185.221C212.647 185.601 213.122 185.981 213.692 186.266L217.111 188.546C219.771 190.35 222.335 192.25 223.665 195.195C224.615 197.284 224.615 199.374 224.71 201.179L224.9 206.688C224.9 207.448 224.995 208.682 224.235 209.537C223.76 210.202 223 210.487 222.145 210.392C221.006 210.487 220.056 209.917 219.296 209.157ZM216.921 196.049C217.491 196.619 217.966 197.189 218.346 197.949C219.201 199.374 219.676 200.989 219.961 202.983C219.961 203.268 220.056 203.553 220.056 203.838C220.151 204.978 220.246 206.118 220.816 207.068C221.196 207.828 221.955 208.208 222.24 208.208C222.335 207.923 222.335 207.258 222.335 207.068L222.145 201.559C222.145 199.944 222.05 198.139 221.385 196.524C220.341 194.245 218.156 192.535 215.781 190.92L212.362 188.641C211.792 188.261 211.317 187.881 210.747 187.596L210.557 187.501C210.367 187.406 210.082 187.216 209.987 187.121C209.797 187.216 209.607 187.786 209.607 188.261C209.702 189.211 210.367 190.255 211.412 191.395C212.172 192.155 213.027 192.82 213.977 193.58C214.831 194.15 215.971 195.005 216.921 196.049Z" fill="#231916"/>
<path d="M242.852 166.034C245.702 162.71 247.601 158.625 248.836 154.446C249.026 153.971 249.121 153.401 249.596 153.021C249.881 152.736 250.261 152.641 250.641 152.641C253.206 152.451 255.485 154.921 255.675 157.58C255.96 160.145 254.725 162.71 253.395 164.894C249.691 170.688 244.277 175.438 238.008 178.382C236.393 179.142 234.683 179.807 232.879 179.617C231.454 179.522 229.934 178.667 229.269 177.337C228.509 175.818 229.174 173.823 230.599 172.873C231.549 172.208 232.689 172.493 233.734 172.303C235.348 172.018 236.963 170.973 238.388 170.118C240.098 168.979 241.617 167.554 242.852 166.034Z" fill="#BFDDAF"/>
<path d="M232.024 180.662C230.409 180.282 228.984 179.237 228.224 177.812C227.275 175.818 227.939 173.158 229.934 171.828C230.884 171.163 231.834 171.163 232.594 171.163C232.879 171.163 233.259 171.163 233.449 171.068C234.873 170.783 236.298 169.928 237.628 169.074C239.148 168.029 240.572 166.699 241.902 165.274C244.372 162.425 246.272 158.625 247.696 154.161C247.886 153.591 248.171 152.736 248.836 152.166C249.311 151.786 249.881 151.596 250.546 151.501C253.301 151.311 256.53 153.591 256.91 157.485C257.195 160.715 255.675 163.659 254.44 165.559C250.641 171.543 245.037 176.482 238.578 179.522C236.963 180.282 234.968 181.042 232.879 180.852C232.594 180.852 232.309 180.757 232.024 180.662ZM251.686 153.971C251.401 153.876 251.116 153.876 250.926 153.876C250.641 153.876 250.546 153.971 250.546 153.971C250.451 154.066 250.261 154.541 250.166 154.731C248.646 159.575 246.557 163.564 243.897 166.699C242.472 168.409 240.857 169.834 239.148 170.973C237.628 172.018 235.918 173.063 234.019 173.348C233.544 173.443 233.164 173.443 232.784 173.443C232.214 173.443 231.739 173.443 231.454 173.633C230.504 174.298 230.124 175.628 230.504 176.577C230.884 177.432 231.929 178.097 233.164 178.192C234.683 178.382 236.298 177.717 237.628 177.052C243.612 174.298 248.931 169.644 252.446 164.039C253.49 162.425 254.82 159.955 254.63 157.485C254.44 156.061 253.206 154.351 251.686 153.971Z" fill="#231916"/>
<path d="M142.263 104.389C141.788 102.869 177.027 105.814 190.42 124.051C203.813 142.288 197.449 141.243 197.449 141.243C197.449 141.243 188.426 122.721 174.368 115.882C157.175 107.428 142.833 106.003 142.263 104.389Z" fill="#8DC220"/>
<path d="M196.689 142.383L196.404 141.813C196.309 141.623 187.476 123.576 173.893 117.022C163.16 111.798 153.566 109.233 147.867 107.713C143.213 106.478 141.598 106.098 141.218 104.864C141.028 104.199 141.313 103.534 141.883 103.249C144.637 101.824 178.357 105.434 191.465 123.386C200.964 136.304 200.774 139.818 199.824 141.338C199.159 142.478 197.924 142.573 197.354 142.478L196.689 142.383ZM150.906 106.004C156.796 107.618 165.439 110.183 174.938 114.837C182.442 118.542 188.426 125.38 192.225 130.51C194.79 134.024 196.689 137.254 197.734 139.058C197.449 137.444 195.929 133.549 189.47 124.811C180.542 112.652 161.735 107.618 150.906 106.004Z" fill="#231916"/>
<path d="M204.383 197.284C193.27 197.284 167.529 193.58 164.964 168.884C162.4 144.188 180.922 135.829 200.204 134.404C219.391 132.979 236.963 142.953 238.008 164.514C239.148 186.171 224.33 197.189 204.383 197.284Z" fill="#BFDDAF"/>
<path d="M190.895 196.904C187.666 196.144 184.246 195.005 181.017 193.39C170.758 188.356 165.059 180.092 163.824 168.979C162.875 159.48 164.869 151.691 169.809 145.802C177.407 136.684 190.515 133.929 200.204 133.169C211.602 132.314 221.86 135.354 228.984 141.623C235.253 147.132 238.863 155.016 239.338 164.419C239.813 174.108 237.153 182.372 231.549 188.261C225.375 194.72 215.781 198.329 204.478 198.329C201.819 198.519 196.689 198.329 190.895 196.904ZM213.502 136.589C209.417 135.639 204.953 135.259 200.299 135.639C191.085 136.304 178.737 138.868 171.613 147.322C167.149 152.736 165.249 159.86 166.199 168.694C168.954 194.72 198.494 195.954 204.383 195.954C215.021 195.954 224.045 192.63 229.649 186.646C234.873 181.137 237.248 173.728 236.773 164.609C236.298 155.966 233.069 148.652 227.275 143.523C223.57 140.198 218.821 137.918 213.502 136.589Z" fill="#231916"/>
<path d="M169.049 165.369C166.959 164.894 165.059 163.565 163.824 161.76L165.914 160.43C167.149 162.235 169.429 163.28 171.518 163.09C172.468 162.995 173.513 162.615 174.558 162.33C175.413 162.045 176.363 161.76 177.312 161.57C179.497 161.19 181.682 161.475 183.676 161.665L187.381 162.14L187.096 164.609L183.391 164.134C181.492 163.849 179.592 163.66 177.787 163.944C177.027 164.134 176.173 164.324 175.413 164.609C174.273 164.989 173.133 165.369 171.803 165.559C170.853 165.654 169.998 165.654 169.049 165.369Z" fill="#231916"/>
<path d="M203.908 144.283C202.293 143.903 200.679 143.238 199.349 142.288L200.679 140.293C203.718 142.383 207.803 142.858 211.317 141.528C211.792 141.338 212.267 141.148 212.742 140.958C213.977 140.388 215.116 139.913 216.541 139.723C218.251 139.533 219.771 140.008 221.291 140.483C222.43 140.863 223.475 141.148 224.52 141.148C224.805 141.148 224.995 141.053 225.09 141.053C225.09 141.053 224.995 141.148 224.995 141.338L227.465 141.433C227.37 142.953 225.945 143.713 224.52 143.618C223.095 143.618 221.86 143.143 220.626 142.858C219.296 142.478 217.966 142.098 216.826 142.193C215.781 142.288 214.832 142.763 213.787 143.238C213.312 143.428 212.742 143.713 212.267 143.903C209.607 144.757 206.663 144.947 203.908 144.283Z" fill="#231916"/>
<path d="M208.372 188.641C206.758 188.261 205.143 187.596 203.813 186.646L205.143 184.651C208.183 186.741 212.267 187.216 215.781 185.886C216.256 185.696 216.731 185.506 217.206 185.316C218.441 184.746 219.581 184.271 221.006 184.081C222.715 183.891 224.235 184.366 225.755 184.841C226.895 185.221 227.939 185.506 228.984 185.506C229.269 185.506 229.459 185.411 229.554 185.411C229.554 185.411 229.459 185.506 229.459 185.696L231.929 185.791C231.834 187.311 230.409 188.071 228.984 187.976C227.56 187.976 226.325 187.501 225.09 187.216C223.76 186.836 222.43 186.456 221.29 186.551C220.246 186.646 219.296 187.121 218.251 187.596C217.776 187.786 217.206 188.071 216.731 188.261C213.977 189.116 211.032 189.306 208.372 188.641Z" fill="#231916"/>
<path d="M176.363 145.992C175.033 145.707 173.893 145.042 172.848 144.378L174.083 142.288C175.128 142.953 176.362 143.618 177.502 143.713C178.547 143.808 179.687 143.428 180.827 143.048C181.017 142.953 181.207 142.953 181.397 142.858C182.916 142.383 184.816 141.908 186.621 142.668L185.671 144.947C184.626 144.473 183.296 144.852 182.062 145.232C181.872 145.327 181.682 145.327 181.492 145.422C180.162 145.802 178.737 146.277 177.217 146.182C177.027 146.182 176.742 146.087 176.363 145.992Z" fill="#231916"/>
<path d="M185.291 180.567L228.224 165.939L232.119 164.609C232.214 164.609 232.309 164.514 232.499 164.514L233.069 164.324L233.734 164.039L233.924 163.944L234.493 163.754L235.158 163.564L235.348 163.47C235.443 163.47 235.633 163.375 235.823 163.28H235.918H236.013L237.153 162.9C237.248 162.9 237.438 162.805 237.628 162.71L238.673 162.33C238.768 162.33 238.958 162.235 239.148 162.14L241.142 161.475C241.237 161.475 241.237 161.475 241.332 161.38L241.712 161.285C241.807 161.19 241.902 161.19 241.997 161.19L242.947 160.905L243.232 160.81L243.517 160.715H243.612L243.802 160.62L258.43 155.491L258.145 154.636C258.525 153.591 258.905 152.546 259.095 151.501C261.754 151.121 266.883 150.077 271.823 149.032C273.342 148.747 274.767 148.462 276.002 148.177C276.097 148.177 276.097 148.177 276.192 148.177C276.572 148.177 276.857 148.462 276.952 148.652C277.047 148.842 277.142 149.127 276.857 149.507C271.633 156.631 264.509 158.53 262.894 158.815C261.374 158.055 259.664 157.675 258.05 157.58H257.765L245.607 162.14L195.455 183.036L190.515 185.126L187.761 186.266L185.291 180.567Z" fill="#C9237E"/>
<path d="M275.527 149.697C270.873 155.586 265.079 157.39 263.179 157.77C261.849 157.201 260.424 156.821 259.095 156.631L259.949 156.346L259.38 154.826C259.665 154.161 259.854 153.401 260.044 152.736C262.894 152.261 267.548 151.311 272.108 150.362C273.247 150.077 274.387 149.887 275.527 149.697ZM242.472 162.425L195.075 182.087L190.135 184.176L188.521 184.841L186.906 181.327L193.46 179.142L217.681 170.878L228.604 167.174L232.404 165.844C232.499 165.844 232.594 165.749 232.784 165.749H232.879L233.354 165.654L233.924 165.464L234.303 165.369L234.873 165.179C235.063 165.084 235.348 164.989 235.538 164.989H235.633C235.823 164.894 236.013 164.894 236.203 164.799H236.298H236.393H236.488L237.533 164.419C237.723 164.324 237.818 164.324 238.008 164.229L239.053 163.849C239.243 163.754 239.338 163.754 239.528 163.66L241.427 162.995H241.522C241.617 162.995 241.617 162.995 241.712 162.9L242.092 162.805C242.187 162.805 242.187 162.805 242.282 162.71L242.472 162.425ZM276.192 147.132C276.097 147.132 275.907 147.132 275.717 147.132C269.828 148.367 260.804 150.362 257.955 150.552C257.67 151.976 257.29 153.401 256.72 154.731V154.826L243.137 159.575C243.137 159.575 243.137 159.575 243.042 159.575H242.947L242.567 159.67L242.377 159.765L242.282 159.86C242.187 159.86 242.092 159.86 242.092 159.955L241.427 160.145C241.332 160.145 241.237 160.24 241.142 160.24L240.762 160.335C240.667 160.335 240.573 160.43 240.573 160.43L238.578 161.095C238.483 161.19 238.293 161.19 238.198 161.19L237.058 161.57C236.963 161.665 236.773 161.665 236.678 161.665L235.633 162.045C235.538 162.045 235.443 162.14 235.348 162.14H235.253C235.063 162.235 234.968 162.235 234.778 162.33L234.588 162.425C234.398 162.52 234.114 162.615 233.924 162.615L233.354 162.805L232.499 163.09L232.024 163.28L231.834 163.375C231.739 163.375 231.739 163.47 231.644 163.47L227.75 164.799L216.826 168.504L192.605 176.767L183.581 179.807L187.286 187.786L191.085 186.266L196.024 184.176L246.177 163.375L258.05 158.91C259.665 159.005 261.279 159.48 262.799 160.24C262.799 160.24 271.538 159.005 277.902 150.362C278.947 149.032 277.807 147.132 276.192 147.132Z" fill="black"/>
<path d="M170.568 210.392C169.999 210.392 169.429 210.392 168.764 210.297C164.584 209.727 160.5 207.163 157.555 203.363C157.46 203.173 157.271 202.983 157.176 202.888C154.801 199.564 153.281 195.29 152.711 190.635C152.426 188.546 152.521 186.931 152.711 185.506V185.411V185.316C152.711 185.221 152.711 185.126 152.806 185.031V184.936C152.901 184.746 152.901 184.461 152.996 184.271C154.801 178.002 160.88 174.773 163.445 173.728L164.299 173.348L164.489 173.253H164.584C165.344 173.063 166.199 172.968 167.149 172.968C167.814 172.968 168.574 173.063 169.334 173.158C170.473 173.348 171.613 173.633 172.753 173.918C173.893 174.203 175.128 174.488 176.363 174.678C177.312 174.773 178.167 174.868 179.022 174.868C180.827 174.868 182.347 174.583 183.676 173.918C183.771 173.823 184.056 173.728 184.246 173.633C186.336 172.493 187.761 170.593 189.091 168.694C189.47 168.219 189.755 167.744 190.135 167.269C191.37 165.654 192.415 164.799 193.555 164.229C193.935 164.039 194.41 163.944 194.79 163.944C195.17 163.944 195.455 164.039 195.645 164.134C195.74 164.134 195.74 164.229 195.834 164.324C196.119 164.704 195.929 165.464 195.455 166.414C195.075 167.269 194.505 168.029 193.935 168.789C193.46 169.549 192.89 170.308 192.415 171.163C191.75 172.398 190.99 174.203 191.085 176.103L181.777 179.237L186.526 189.495L190.04 188.071C190.895 190.73 192.985 192.915 195.55 193.865C195.834 193.96 196.214 194.055 196.499 194.15C196.974 194.245 197.449 194.435 197.924 194.625C198.304 194.815 198.589 195.005 198.684 195.29C198.779 195.385 198.779 195.48 198.779 195.67C198.779 196.239 198.019 196.714 197.259 196.904C196.689 196.999 196.119 197.094 195.455 197.094C194.695 197.094 193.935 196.999 193.175 196.904C192.32 196.809 191.56 196.714 190.705 196.714C189.47 196.714 188.426 196.904 187.381 197.284C185.766 197.949 184.341 199.279 183.011 201.369C182.632 201.939 182.252 202.603 181.967 203.173C181.397 204.123 180.922 204.978 180.352 205.833C179.212 207.353 177.692 208.493 175.793 209.347C174.273 210.012 172.468 210.392 170.568 210.392Z" fill="#9F0052"/>
<path d="M194.98 164.989C194.98 165.179 194.885 165.464 194.695 165.749C194.315 166.509 193.84 167.269 193.27 168.029C192.795 168.789 192.225 169.644 191.75 170.498C190.895 172.113 190.42 173.633 190.325 175.153L183.011 177.622L180.542 178.477L181.682 180.852L183.391 184.461L185.386 188.831L186.336 190.92L188.426 190.065L189.755 189.495C190.895 191.965 192.985 193.96 195.55 194.815C195.929 194.91 196.309 195.005 196.594 195.1C196.974 195.195 197.354 195.29 197.639 195.48C197.544 195.48 197.449 195.574 197.354 195.574C196.879 195.669 196.404 195.764 195.834 195.764C195.17 195.764 194.41 195.669 193.65 195.669C192.795 195.574 191.94 195.48 191.085 195.48C189.66 195.48 188.426 195.669 187.381 196.144C185.481 196.904 183.866 198.424 182.442 200.609C182.062 201.274 181.682 201.844 181.302 202.508C180.827 203.458 180.257 204.313 179.782 204.978C178.737 206.308 177.407 207.353 175.698 208.113C174.178 208.777 172.468 209.157 170.758 209.157C170.188 209.157 169.714 209.157 169.144 209.062C165.249 208.492 161.45 206.213 158.695 202.603C158.6 202.508 158.505 202.318 158.41 202.223C156.226 199.089 154.801 195.1 154.231 190.54C154.041 188.546 154.041 187.026 154.231 185.791L154.326 185.506V185.411L154.421 185.221C154.421 185.031 154.516 184.841 154.611 184.651C156.321 178.952 162.02 175.913 164.394 174.868L165.059 174.583H165.154H165.249H165.344C166.009 174.393 166.769 174.298 167.529 174.298C168.194 174.298 168.859 174.393 169.524 174.488C170.663 174.678 171.708 174.868 172.848 175.153C174.083 175.438 175.318 175.723 176.552 175.913C177.502 176.103 178.452 176.103 179.307 176.103C181.207 176.103 182.917 175.723 184.436 175.058C184.626 174.963 184.911 174.868 185.101 174.678C187.476 173.348 188.996 171.258 190.325 169.454C190.705 168.979 190.99 168.504 191.37 168.124C192.51 166.699 193.365 165.939 194.41 165.464C194.505 165.084 194.695 164.989 194.98 164.989ZM194.98 162.615C194.41 162.615 193.745 162.71 193.27 162.995C191.655 163.754 190.42 164.989 189.375 166.319C187.666 168.504 186.241 170.973 183.771 172.303C183.581 172.398 183.486 172.493 183.296 172.493C181.967 173.063 180.542 173.348 179.117 173.348C178.262 173.348 177.502 173.253 176.647 173.158C174.273 172.778 171.898 172.018 169.524 171.733C168.764 171.638 168.004 171.543 167.149 171.543C166.199 171.543 165.249 171.638 164.299 171.923C164.299 171.923 164.299 171.923 164.204 171.923C163.824 172.018 163.445 172.208 163.065 172.303C160.31 173.443 153.851 176.862 151.951 183.606C151.856 183.891 151.761 184.081 151.761 184.366C151.761 184.461 151.761 184.461 151.666 184.556C151.666 184.746 151.571 184.936 151.571 185.031C151.191 186.836 151.286 188.736 151.476 190.635C152.046 195.195 153.471 199.659 156.036 203.363C156.131 203.553 156.321 203.743 156.416 203.933C159.265 207.733 163.635 210.677 168.384 211.342C169.049 211.437 169.619 211.437 170.283 211.437C172.278 211.437 174.368 211.057 176.268 210.202C178.262 209.347 179.972 208.018 181.302 206.308C182.347 204.883 183.106 203.268 184.056 201.749C185.006 200.229 186.241 198.804 187.856 198.139C188.806 197.759 189.755 197.664 190.705 197.664C192.32 197.664 193.935 197.949 195.55 197.949C196.309 197.949 196.974 197.854 197.639 197.759C198.874 197.474 200.109 196.524 200.014 195.29C200.014 195.005 199.919 194.625 199.729 194.34C199.444 193.865 198.969 193.485 198.494 193.295C197.734 192.915 196.784 192.725 195.929 192.44C193.27 191.49 191.275 188.926 190.895 186.171L187.096 187.691L185.101 183.321L183.391 179.712L192.415 176.672C191.94 174.963 192.605 173.063 193.46 171.448C194.41 169.834 195.55 168.314 196.404 166.699C196.974 165.654 197.354 164.324 196.689 163.375C196.594 163.185 196.404 163.09 196.309 162.9C196.214 162.805 195.645 162.615 194.98 162.615Z" fill="black"/>
<path d="M264.129 147.132C264.034 146.847 263.844 146.752 263.559 146.752C262.419 146.942 261.279 147.227 260.139 147.417C259.855 147.417 259.76 147.702 259.76 147.987C259.855 148.272 260.044 148.367 260.329 148.367C260.614 148.272 260.899 148.272 261.089 148.177C261.279 149.127 261.469 149.982 261.659 150.931C261.754 151.121 261.944 151.311 262.229 151.311C262.514 151.216 262.609 151.026 262.609 150.742C262.419 149.792 262.229 148.937 262.039 147.987C262.609 147.892 263.179 147.797 263.749 147.702C263.939 147.607 264.129 147.417 264.129 147.132Z" fill="#1C1230"/>
<path d="M263.654 146.752C263.559 146.752 263.559 146.752 263.654 146.752C262.419 146.942 261.279 147.227 260.139 147.417C259.855 147.417 259.76 147.702 259.76 147.987C259.855 148.177 260.044 148.367 260.234 148.367H260.329C260.614 148.272 260.899 148.272 261.089 148.177C261.279 149.127 261.469 149.982 261.659 150.931C261.659 151.121 261.944 151.311 262.134 151.311H262.229C262.514 151.216 262.609 151.026 262.609 150.742C262.419 149.792 262.229 148.937 262.039 147.987C262.609 147.892 263.179 147.797 263.749 147.702C264.034 147.702 264.129 147.417 264.129 147.132C264.034 146.942 263.844 146.752 263.654 146.752Z" fill="black"/>
<path d="M273.437 145.612C273.342 145.327 273.152 145.232 272.867 145.232C271.823 145.422 270.873 145.612 269.828 145.897C269.638 145.992 269.448 146.182 269.448 146.467C269.543 146.752 269.733 146.847 270.018 146.847C270.303 146.752 270.493 146.752 270.778 146.657C270.968 147.322 271.158 147.987 271.348 148.557C271.348 148.652 271.443 148.747 271.538 148.842C271.633 148.937 271.823 148.937 271.918 148.937C272.108 148.842 272.393 148.652 272.298 148.367C272.108 147.702 271.918 147.037 271.728 146.467C272.203 146.372 272.678 146.277 273.152 146.182C273.247 146.087 273.437 145.897 273.437 145.612Z" fill="#1C1230"/>
<path d="M272.962 145.232C272.867 145.232 272.867 145.232 272.962 145.232C271.823 145.422 270.873 145.612 269.828 145.897C269.638 145.992 269.448 146.182 269.448 146.467C269.543 146.657 269.733 146.847 269.923 146.847H270.018C270.303 146.752 270.493 146.752 270.778 146.657C270.968 147.322 271.158 147.987 271.348 148.557C271.348 148.652 271.443 148.747 271.538 148.842C271.633 148.842 271.728 148.937 271.823 148.937H271.918C272.108 148.842 272.393 148.652 272.298 148.367C272.108 147.702 271.918 147.037 271.728 146.467C272.203 146.372 272.678 146.277 273.152 146.182C273.342 146.087 273.532 145.897 273.532 145.612C273.342 145.422 273.152 145.232 272.962 145.232Z" fill="black"/>
<path d="M268.308 160.525C268.213 160.335 268.023 160.05 267.738 160.145C267.358 160.24 266.978 160.43 266.693 160.525C266.313 159.765 265.934 159.005 265.554 158.15C265.459 157.96 265.174 157.865 264.889 157.96C264.699 158.055 264.604 158.34 264.699 158.625C265.079 159.385 265.364 160.145 265.744 160.81C265.554 160.905 265.364 161 265.079 161C264.984 161 264.889 161.095 264.794 161.19C264.699 161.285 264.699 161.475 264.699 161.57C264.794 161.76 264.984 162.045 265.269 161.95C266.124 161.665 266.978 161.38 267.833 161.095C267.928 161.095 268.023 161 268.118 160.905C268.308 160.81 268.308 160.62 268.308 160.525Z" fill="#1C1230"/>
<path d="M265.175 157.961C265.08 157.961 265.08 157.961 264.985 158.056C264.795 158.151 264.7 158.436 264.795 158.721C265.175 159.481 265.46 160.24 265.839 160.905C265.65 161 265.46 161.095 265.175 161.095C265.08 161.095 264.985 161.19 264.89 161.285C264.795 161.38 264.795 161.57 264.795 161.665C264.89 161.855 264.985 162.045 265.27 162.045H265.365C266.219 161.76 267.074 161.475 267.929 161.19C268.024 161.19 268.119 161.095 268.214 161C268.309 160.905 268.309 160.715 268.309 160.62C268.214 160.43 268.119 160.24 267.834 160.24H267.739C267.359 160.335 266.979 160.525 266.694 160.62C266.314 159.86 265.934 159.101 265.555 158.246C265.555 158.056 265.365 157.961 265.175 157.961Z" fill="black"/>
<path d="M273.532 158.246C273.437 158.056 273.247 157.771 272.962 157.866L272.203 158.056C271.823 157.296 271.443 156.631 270.968 155.871C270.873 155.681 270.588 155.586 270.303 155.681C270.113 155.776 270.018 156.061 270.113 156.346C270.493 157.011 270.873 157.771 271.253 158.436L270.683 158.626C270.588 158.626 270.493 158.721 270.398 158.816C270.303 158.911 270.303 159.101 270.303 159.196C270.398 159.386 270.588 159.671 270.873 159.576C271.633 159.386 272.298 159.101 273.057 158.911C273.152 158.911 273.247 158.816 273.342 158.721C273.532 158.436 273.627 158.341 273.532 158.246Z" fill="#1C1230"/>
<path d="M270.683 155.586C270.588 155.586 270.588 155.586 270.493 155.681C270.303 155.776 270.208 156.061 270.303 156.346C270.683 157.011 271.063 157.77 271.443 158.435L270.873 158.625C270.778 158.625 270.683 158.72 270.588 158.815C270.493 158.91 270.493 159.1 270.493 159.195C270.588 159.385 270.683 159.575 270.968 159.575H271.063C271.823 159.385 272.488 159.1 273.247 158.91C273.342 158.91 273.437 158.815 273.532 158.72C273.627 158.625 273.627 158.435 273.627 158.34C273.532 158.15 273.437 157.96 273.152 157.96H273.057L272.298 158.15C271.918 157.39 271.538 156.726 271.063 155.966C270.968 155.681 270.778 155.586 270.683 155.586Z" fill="black"/>
<path d="M277.997 154.161C277.902 153.971 277.617 153.876 277.332 153.971C277.142 154.066 276.857 154.161 276.667 154.256C276.667 154.161 276.667 154.161 276.572 154.066C276.192 153.496 275.907 152.926 275.527 152.356C275.432 152.261 275.337 152.166 275.242 152.166C275.147 152.166 274.957 152.166 274.862 152.166C274.672 152.261 274.482 152.546 274.672 152.831C275.052 153.401 275.337 153.971 275.717 154.541L275.812 154.636C275.622 154.731 275.337 154.826 275.147 154.921C274.957 155.016 274.862 155.301 274.957 155.586C275.052 155.776 275.337 155.871 275.622 155.776C276.382 155.491 277.047 155.111 277.807 154.826C277.997 154.731 278.092 154.446 277.997 154.161Z" fill="#1C1230"/>
<path d="M275.148 152.166C275.053 152.166 274.958 152.166 274.958 152.261C274.768 152.356 274.578 152.641 274.768 152.926C275.148 153.496 275.433 154.066 275.813 154.636L275.908 154.731C275.718 154.826 275.433 154.921 275.243 155.016C275.053 155.111 274.958 155.396 275.053 155.681C275.148 155.871 275.338 155.966 275.433 155.966C275.528 155.966 275.528 155.966 275.623 155.966C276.383 155.681 277.048 155.301 277.808 155.016C277.998 154.921 278.093 154.636 277.998 154.351C277.903 154.161 277.713 154.066 277.618 154.066C277.523 154.066 277.523 154.066 277.428 154.066C277.238 154.161 276.953 154.256 276.763 154.351C276.763 154.256 276.763 154.256 276.668 154.161C276.288 153.591 276.003 153.021 275.623 152.451C275.528 152.356 275.433 152.261 275.338 152.261C275.243 152.166 275.243 152.166 275.148 152.166Z" fill="black"/>
<path d="M171.518 202.793C169.999 202.793 168.574 202.413 167.149 201.844C163.635 200.134 161.26 196.714 160.88 192.725C160.5 189.02 161.925 185.411 164.489 182.941C166.674 180.947 169.619 179.807 172.563 179.807C173.228 179.807 173.798 179.902 174.463 179.997C174.938 180.092 175.413 180.187 175.888 180.282C177.027 180.472 178.262 180.757 179.592 180.757C180.352 180.757 181.112 180.662 181.872 180.472C183.011 180.187 184.056 179.522 185.006 178.667C185.956 177.717 186.431 176.577 186.906 175.533L187.001 175.438C187.381 174.583 187.761 174.108 188.236 173.918C188.426 173.823 188.616 173.823 188.711 173.823C188.806 173.823 188.996 173.823 189.091 173.918C189.186 174.013 189.186 174.013 189.186 174.108L189.281 174.298L189.375 174.393C189.945 175.058 189.565 176.198 188.996 177.622L188.901 177.907L188.711 179.142L188.426 179.237L188.236 179.997C187.381 183.891 188.426 187.976 190.895 191.015C191.37 191.585 191.845 192.06 192.32 192.44C192.51 192.63 192.795 192.915 192.985 193.105C193.46 193.675 193.745 194.055 193.745 194.435C193.65 194.91 193.175 195.195 192.985 195.29C192.795 195.385 192.51 195.385 192.225 195.385C191.845 195.385 191.37 195.29 190.705 195.1L190.42 195.005C189.47 194.72 188.521 194.34 187.381 194.34C187.096 194.34 186.811 194.34 186.526 194.435C185.386 194.625 184.246 195.1 183.106 195.859C181.777 196.714 180.732 197.759 179.687 198.804C179.117 199.374 178.547 199.944 177.977 200.419C176.363 201.844 174.558 202.603 172.658 202.793C172.373 202.698 171.898 202.793 171.518 202.793Z" fill="#C9237E"/>
<path d="M188.521 174.963C188.616 175.343 188.141 176.482 187.951 177.052L187.856 177.147L187.761 177.432V177.717V178.002H187.476L187.096 179.617C186.241 183.796 187.286 188.356 189.945 191.68C190.42 192.25 190.99 192.82 191.465 193.2C191.655 193.39 191.94 193.58 192.13 193.865C192.225 193.96 192.32 194.055 192.32 194.15C192.225 194.15 192.225 194.15 192.13 194.15C191.845 194.15 191.465 194.055 190.99 193.865L190.8 193.77C189.85 193.485 188.711 193.105 187.381 193.105C187.001 193.105 186.716 193.105 186.336 193.2C185.101 193.39 183.771 193.96 182.442 194.72C181.017 195.575 179.877 196.714 178.832 197.759C178.262 198.329 177.692 198.804 177.122 199.279C175.698 200.514 174.083 201.274 172.468 201.464C172.088 201.464 171.803 201.559 171.423 201.559C170.094 201.559 168.764 201.274 167.624 200.704C164.489 199.184 162.4 196.049 162.02 192.535C161.735 189.211 162.875 185.886 165.249 183.796C167.244 181.992 169.809 181.042 172.563 181.042C173.133 181.042 173.703 181.042 174.273 181.137C174.748 181.232 175.128 181.327 175.603 181.422C176.837 181.707 178.167 181.897 179.497 181.897C180.447 181.897 181.207 181.802 182.062 181.517C183.391 181.137 184.626 180.377 185.671 179.332C186.811 178.192 187.381 176.957 187.856 175.818L187.951 175.628C188.236 175.343 188.426 175.058 188.521 174.963ZM188.711 172.398C188.331 172.398 188.046 172.493 187.761 172.588C186.811 172.968 186.336 173.823 185.956 174.773C185.481 175.818 185.101 176.862 184.246 177.622C183.486 178.287 182.632 178.857 181.587 179.142C180.922 179.332 180.352 179.427 179.687 179.427C178.072 179.427 176.363 178.952 174.843 178.762C174.178 178.667 173.513 178.572 172.753 178.572C169.524 178.572 166.294 179.807 163.825 181.992C160.785 184.746 159.455 188.736 159.835 192.725C160.215 196.999 162.875 200.894 166.769 202.793C168.289 203.553 169.999 203.933 171.613 203.933C172.088 203.933 172.468 203.933 172.943 203.838C175.128 203.553 177.122 202.603 178.832 201.179C180.542 199.754 181.967 197.949 183.866 196.714C184.816 196.144 185.766 195.67 186.811 195.48C187.001 195.48 187.286 195.385 187.476 195.385C188.426 195.385 189.376 195.764 190.325 196.049C190.895 196.239 191.56 196.429 192.225 196.429C192.605 196.429 192.985 196.334 193.365 196.239C194.125 195.954 194.79 195.29 194.885 194.435C194.98 193.58 194.41 192.82 193.84 192.155C193.175 191.49 192.415 190.92 191.845 190.16C189.565 187.406 188.711 183.606 189.471 180.092C189.66 180.092 189.85 179.902 189.85 179.712L190.04 178.097C190.61 176.577 191.37 174.868 190.325 173.538C190.23 173.348 190.135 173.158 189.945 172.968C189.66 172.588 189.186 172.398 188.711 172.398Z" fill="black"/>
<path d="M172.753 170.403C173.323 171.923 174.653 173.348 175.793 174.488C177.217 175.913 178.927 177.147 180.637 178.097C184.436 180.187 188.806 181.232 193.175 181.707C193.745 181.802 194.315 181.802 194.695 182.182C194.98 182.467 195.17 182.847 195.265 183.131C196.024 185.601 193.935 188.261 191.465 189.021C188.996 189.78 186.241 189.116 183.866 188.166C177.407 185.696 171.708 181.327 167.624 175.723C166.579 174.298 165.629 172.683 165.439 170.973" fill="#BFDDAF"/>
<path d="M182.347 188.926C176.173 186.266 170.663 181.897 166.674 176.483C165.629 174.963 164.489 173.253 164.299 171.068L166.769 170.783C166.959 172.303 167.814 173.728 168.764 174.963C172.658 180.282 178.262 184.556 184.436 186.931C186.241 187.596 188.901 188.451 191.275 187.786C193.175 187.216 194.79 185.221 194.315 183.416C194.22 183.131 194.125 183.036 194.125 183.036C194.03 182.942 193.555 182.847 193.27 182.847C188.236 182.277 183.866 181.042 180.257 179.047C178.357 178.002 176.647 176.767 175.128 175.248C173.798 173.918 172.468 172.493 171.803 170.688L174.083 169.834C174.558 171.163 175.698 172.398 176.837 173.538C178.167 174.868 179.687 176.008 181.397 176.957C184.721 178.762 188.806 179.997 193.46 180.472C194.125 180.567 194.98 180.662 195.645 181.232C196.119 181.612 196.404 182.182 196.594 182.847C197.354 185.506 195.645 189.116 191.94 190.255C188.901 191.205 185.671 190.16 183.486 189.4C183.106 189.306 182.727 189.116 182.347 188.926Z" fill="#231916"/>
<path d="M215.116 163.85L213.597 162.14L215.971 160.05L213.312 157.011L215.021 155.491L219.201 160.335L215.116 163.85Z" fill="#231916"/>
<path d="M212.267 172.303C207.043 172.018 203.433 168.599 203.243 168.409L204.858 166.794C204.858 166.794 209.322 170.973 215.021 169.929C220.721 168.884 223.38 163.375 223.38 163.375L225.47 164.324C225.375 164.609 222.335 170.878 215.401 172.208C214.357 172.303 213.312 172.398 212.267 172.303Z" fill="#231916"/>
<path d="M218.536 155.396C217.206 155.301 215.971 154.731 214.737 153.781L216.161 151.976C217.206 152.831 218.251 153.211 219.201 153.116C220.911 152.926 222.145 151.406 222.145 151.311L223.95 152.641C223.855 152.736 222.145 155.016 219.486 155.301C219.201 155.396 218.821 155.396 218.536 155.396Z" fill="#231916"/>
<path d="M204.953 156.916C203.623 156.821 202.388 156.251 201.154 155.301L202.578 153.496C203.623 154.351 204.668 154.731 205.618 154.636C207.328 154.446 208.562 152.926 208.562 152.831L210.367 154.161C210.272 154.256 208.562 156.536 205.903 156.821C205.618 156.916 205.238 156.916 204.953 156.916Z" fill="#231916"/>
<path d="M198.114 168.124C201.472 168.124 204.193 165.402 204.193 162.045C204.193 158.687 201.472 155.966 198.114 155.966C194.757 155.966 192.035 158.687 192.035 162.045C192.035 165.402 194.757 168.124 198.114 168.124Z" fill="url(#paint0_radial)"/>
<path d="M232.784 157.39C232.879 159.86 230.979 161.95 228.509 162.045C226.04 162.14 223.95 160.24 223.855 157.77C223.76 155.301 225.66 153.211 228.129 153.116C230.599 153.021 232.689 155.016 232.784 157.39Z" fill="url(#paint1_radial)"/>
<path d="M48.7026 359.329L129.345 71.8088L285.501 166.129L82.7073 377.091L48.7026 359.329Z" fill="url(#paint2_linear)" fill-opacity="0.7"/>
<path d="M47.2778 415.56C46.8029 415.56 46.4229 415.275 46.233 414.895L32.5551 389.249C31.0353 386.4 31.1303 383.075 32.7451 380.321C34.3598 377.566 37.3043 375.951 40.5338 375.951C43.8583 375.951 46.9928 377.756 48.5126 380.796L66.0849 413.85C66.2748 414.23 66.2748 414.705 66.0849 414.99C65.8949 415.275 65.5149 415.56 65.04 415.56H47.2778Z" fill="#B28A39"/>
<path d="M40.6288 377.091C43.5733 377.091 46.2329 378.706 47.5627 381.271L65.135 414.325H47.2778L33.5999 388.679C30.8453 383.455 34.6447 377.091 40.6288 377.091ZM40.6288 374.717C37.0194 374.717 33.6949 376.616 31.7952 379.656C29.8955 382.79 29.8005 386.495 31.5102 389.724L45.1881 415.37C45.568 416.13 46.4229 416.605 47.2778 416.605H65.135C65.9898 416.605 66.7497 416.13 67.1297 415.465C67.6046 414.705 67.6046 413.85 67.2247 413.091L49.6524 380.036C47.8477 376.806 44.4282 374.717 40.6288 374.717Z" fill="black"/>
<path d="M56.1114 409.006C50.4123 409.006 44.9981 407.676 40.3439 405.207C36.0695 402.927 32.6501 399.698 30.2754 395.898C29.4206 394.473 28.6607 392.954 28.0908 391.244C27.7108 390.199 27.4259 389.154 27.2359 388.109C26.476 384.215 27.1409 380.131 29.0406 376.616L41.0088 355.15C41.1987 354.77 41.6737 354.58 42.0536 354.58C42.2436 354.58 42.4335 354.58 42.6235 354.77L92.6807 382.03C92.9656 382.22 93.1556 382.41 93.2506 382.79C93.3456 383.075 93.3456 383.455 93.1556 383.74C86.1267 396.373 77.958 404.162 68.9344 407.011L68.6494 407.106C64.4701 408.341 60.2907 409.006 56.1114 409.006Z" fill="#B28A39"/>
<path d="M41.9586 355.719C58.676 364.838 75.2984 373.957 92.0158 382.98C83.5621 397.988 75.1084 403.592 68.4595 405.682C68.3645 405.682 68.1745 405.777 68.1745 405.777C64.0902 407.201 60.0058 407.771 56.1114 407.771C50.6023 407.771 45.2831 406.442 40.9138 404.162C36.9244 402.072 33.5999 399.033 31.3203 395.233C30.4654 393.904 29.8005 392.384 29.2306 390.864C29.0406 390.294 28.6607 389.249 28.3757 387.919C27.6159 384.31 28.2808 380.511 30.0855 377.281C34.0748 370.062 38.0642 362.843 41.9586 355.719ZM41.9586 353.345C41.1038 353.345 40.3439 353.82 39.8689 354.58L32.935 367.023L27.9008 376.046C25.8111 379.846 25.1462 384.215 25.9061 388.394V388.489C26.0961 389.534 26.476 390.674 26.761 391.719C27.3309 393.429 28.1858 395.138 29.0406 396.563C31.5103 400.552 35.1197 403.972 39.584 406.347C44.4282 408.911 50.0324 410.241 55.9214 410.241C60.1958 410.241 64.5651 409.481 68.7444 408.056H68.8394L69.0294 407.961C78.338 405.112 86.6966 397.038 93.9155 384.12C94.2005 383.55 94.2955 382.885 94.1055 382.315C93.9155 381.745 93.5356 381.176 92.9657 380.891L67.8896 367.213L42.8135 353.535C42.8135 353.44 42.3386 353.345 41.9586 353.345Z" fill="black"/>
<path d="M72.7338 415.56C72.2589 415.56 71.8789 415.275 71.689 414.895L58.0111 389.249C56.4913 386.4 56.5863 383.075 58.2011 380.321C59.8158 377.566 62.7604 375.951 65.9899 375.951C69.3143 375.951 72.4489 377.756 73.9686 380.796L91.5409 413.85C91.7308 414.23 91.7308 414.705 91.5409 414.99C91.3509 415.275 90.971 415.56 90.496 415.56H72.7338Z" fill="#B28A39"/>
<path d="M65.9898 377.091C68.9344 377.091 71.594 378.706 72.9238 381.271L90.496 414.325H72.6388L58.9609 388.679C56.3014 383.455 60.1008 377.091 65.9898 377.091ZM65.9898 374.717C62.3804 374.717 59.0559 376.616 57.1562 379.656C55.2565 382.79 55.1615 386.495 56.8713 389.724L70.5491 415.37C70.9291 416.13 71.7839 416.605 72.6388 416.605H90.496C91.3509 416.605 92.1108 416.13 92.4907 415.465C92.9656 414.705 92.9656 413.85 92.5857 413.091L75.0134 380.036C73.3037 376.806 69.7893 374.717 65.9898 374.717Z" fill="black"/>
<path d="M66.6548 388.774C68.281 388.774 69.5993 387.456 69.5993 385.83C69.5993 384.204 68.281 382.885 66.6548 382.885C65.0285 382.885 63.7102 384.204 63.7102 385.83C63.7102 387.456 65.0285 388.774 66.6548 388.774Z" fill="black"/>
<path d="M361.679 359.329L281.131 71.8088L124.976 166.129L327.769 377.091L361.679 359.329Z" fill="url(#paint3_linear)" fill-opacity="0.7"/>
<path d="M345.341 415.56C344.961 415.56 344.581 415.37 344.296 414.99C344.011 414.61 344.106 414.23 344.296 413.85L361.869 380.796C363.483 377.851 366.523 375.951 369.847 375.951C373.077 375.951 375.926 377.566 377.636 380.321C379.251 383.075 379.346 386.4 377.826 389.249L364.148 414.895C363.958 415.275 363.578 415.56 363.103 415.56H345.341Z" fill="#B28A39"/>
<path d="M369.847 377.091C375.831 377.091 379.631 383.455 376.781 388.679L363.103 414.325H345.246L362.818 381.271C364.243 378.706 366.903 377.091 369.847 377.091ZM369.847 374.717C366.048 374.717 362.534 376.806 360.824 380.131L343.252 413.186C342.872 413.945 342.872 414.8 343.347 415.56C343.821 416.32 344.581 416.7 345.341 416.7H363.198C364.053 416.7 364.908 416.225 365.288 415.465L378.966 389.819C380.676 386.59 380.581 382.885 378.681 379.751C376.781 376.616 373.457 374.717 369.847 374.717Z" fill="black"/>
<path d="M354.365 409.006C350.185 409.006 346.006 408.341 341.922 406.917L341.637 406.822C332.613 404.067 324.444 396.183 317.416 383.55C317.226 383.265 317.226 382.98 317.321 382.6C317.416 382.315 317.606 382.03 317.89 381.84L367.948 354.58C368.138 354.485 368.328 354.39 368.518 354.39C368.898 354.39 369.372 354.58 369.562 354.96L381.531 376.426C383.525 379.941 384.19 384.025 383.335 387.919C383.145 388.964 382.86 390.009 382.48 391.054C381.91 392.669 381.151 394.283 380.296 395.708C377.921 399.508 374.502 402.737 370.227 405.017C365.478 407.676 359.969 409.006 354.365 409.006Z" fill="#B28A39"/>
<path d="M368.423 355.719C372.412 362.843 376.401 370.062 380.391 377.186C382.195 380.416 382.86 384.215 382.1 387.824C381.816 389.154 381.436 390.199 381.246 390.769C380.676 392.289 380.011 393.809 379.156 395.138C376.876 398.938 373.552 401.882 369.562 404.067C365.098 406.442 359.874 407.676 354.365 407.676C350.375 407.676 346.291 407.011 342.302 405.682C342.207 405.682 342.112 405.587 342.017 405.587C335.368 403.497 326.914 397.988 318.46 382.885C335.083 373.862 351.705 364.838 368.423 355.719ZM368.423 353.345C368.043 353.345 367.663 353.44 367.283 353.63L341.732 367.593L317.226 380.891C316.656 381.176 316.276 381.745 316.086 382.315C315.896 382.885 315.991 383.55 316.276 384.12C323.495 397.038 331.853 405.017 341.162 407.961L341.352 408.056H341.447C345.626 409.481 349.996 410.241 354.27 410.241C360.159 410.241 365.763 408.911 370.607 406.347C375.072 403.972 378.681 400.552 381.151 396.563C382.1 395.138 382.86 393.429 383.43 391.719C383.81 390.674 384.095 389.534 384.285 388.489V388.394C385.14 384.215 384.38 379.846 382.29 376.046L376.686 365.978L370.322 354.58C370.037 353.725 369.277 353.345 368.423 353.345Z" fill="black"/>
<path d="M319.885 415.56C319.505 415.56 319.125 415.37 318.84 414.99C318.555 414.61 318.65 414.23 318.84 413.85L336.413 380.796C338.027 377.851 341.067 375.951 344.391 375.951C347.621 375.951 350.47 377.566 352.18 380.321C353.89 383.075 353.89 386.4 352.465 389.249L338.787 414.895C338.597 415.275 338.217 415.56 337.742 415.56H319.885Z" fill="#B28A39"/>
<path d="M344.391 377.091C350.375 377.091 354.175 383.455 351.325 388.679L337.647 414.325H319.79L337.362 381.271C338.787 378.706 341.447 377.091 344.391 377.091ZM344.391 374.717C340.592 374.717 337.078 376.806 335.368 380.131L317.796 413.186C317.416 413.945 317.416 414.8 317.89 415.56C318.365 416.32 319.125 416.7 319.885 416.7H337.742C338.597 416.7 339.452 416.225 339.832 415.465L353.51 389.819C355.22 386.59 355.125 382.885 353.225 379.751C351.325 376.616 348.001 374.717 344.391 374.717Z" fill="black"/>
<path d="M343.726 388.774C345.353 388.774 346.671 387.456 346.671 385.83C346.671 384.204 345.353 382.885 343.726 382.885C342.1 382.885 340.782 384.204 340.782 385.83C340.782 387.456 342.1 388.774 343.726 388.774Z" fill="black"/>
<defs>
<radialGradient id="paint0_radial" cx="0" cy="0" r="1" gradientUnits="userSpaceOnUse" gradientTransform="translate(198.104 162.015) rotate(-1.95964) scale(6.10565)">
<stop stop-color="#E50013"/>
<stop offset="1" stop-color="#E50013" stop-opacity="0"/>
</radialGradient>
<radialGradient id="paint1_radial" cx="0" cy="0" r="1" gradientUnits="userSpaceOnUse" gradientTransform="translate(228.303 157.587) rotate(-1.95964) scale(4.45788)">
<stop stop-color="#E50013"/>
<stop offset="1" stop-color="#E50013" stop-opacity="0"/>
</radialGradient>
<linearGradient id="paint2_linear" x1="9.91537" y1="320.557" x2="224.892" y2="105.581" gradientUnits="userSpaceOnUse">
<stop stop-color="#FFE33E"/>
<stop offset="1" stop-color="#FFE33E" stop-opacity="0"/>
</linearGradient>
<linearGradient id="paint3_linear" x1="400.504" y1="320.557" x2="185.528" y2="105.581" gradientUnits="userSpaceOnUse">
<stop stop-color="#FFE33E"/>
<stop offset="1" stop-color="#FFE33E" stop-opacity="0"/>
</linearGradient>
</defs>
</svg>
