<svg width="618" height="237" viewBox="0 0 618 237" fill="none" xmlns="http://www.w3.org/2000/svg">
<path d="M9.926 206.654V208.894H3.99V206.654H9.926ZM2.282 211.204H3.99V210.49H9.926V211.19H11.718V205.058H2.282V211.204ZM8.148 200.298C8.666 200.816 9.226 201.404 9.772 202.02L4.032 202.202C5.096 201.18 6.202 199.934 7.084 198.632L5.404 197.918C4.452 199.598 2.926 201.292 2.436 201.726C1.974 202.174 1.638 202.44 1.274 202.538C1.47 202.972 1.736 203.798 1.82 204.134C2.562 203.882 3.556 203.854 10.99 203.49C11.284 203.882 11.536 204.246 11.718 204.554L13.132 203.532C12.404 202.356 10.738 200.634 9.45 199.43L8.148 200.298ZM20.482 207.466V198.366H18.746V201.446H15.512V203.112H18.746V208.082C17.318 208.572 15.974 209.034 15.036 209.328L15.778 211.036C17.43 210.378 19.586 209.524 21.56 208.67L21.266 207.186L20.482 207.466ZM24.584 209.174C24.122 209.174 24.052 209.048 24.052 208.292V203.084H27.706V201.432H24.052V198.38H22.316V208.278C22.316 210.21 22.778 210.798 24.318 210.798H25.984C27.566 210.798 27.958 209.692 28.112 206.794C27.65 206.682 26.922 206.332 26.516 206.01C26.432 208.516 26.348 209.174 25.83 209.174H24.584ZM35.224 206.052H36.596C36.386 206.85 36.134 207.704 35.896 208.348H40.516C40.418 209.188 40.278 209.636 40.082 209.79C39.914 209.902 39.732 209.902 39.424 209.902C38.976 209.902 37.884 209.888 36.89 209.804C37.212 210.21 37.45 210.798 37.492 211.232C38.458 211.288 39.396 211.288 39.9 211.246C40.558 211.232 40.978 211.12 41.342 210.756C41.748 210.364 41.944 209.468 42.084 207.606C42.112 207.396 42.14 206.99 42.14 206.99H37.856C37.954 206.682 38.038 206.374 38.122 206.052H42.714V204.68H35.224V206.052ZM37.492 202.622C37.87 202.174 38.22 201.712 38.514 201.194H39.424C39.648 201.684 39.928 202.16 40.25 202.622H37.492ZM31.71 200.074H33.432V201.88H31.71V200.074ZM42.77 201.194V199.766H39.27C39.438 199.416 39.578 199.066 39.69 198.688L38.262 198.31C38.094 198.828 37.884 199.304 37.632 199.766H35.308V201.194H36.68C36.148 201.852 35.532 202.398 34.832 202.846V198.674H30.366V203.28H32.298V208.46L31.668 208.628V204.302H30.408V208.936C30.212 208.978 30.016 209.02 29.834 209.062L30.226 210.616C31.724 210.196 33.684 209.636 35.518 209.09L35.294 207.676L33.726 208.082V206.22H34.888V204.778H33.726V203.28H34.832V203.21C35.056 203.616 35.322 204.19 35.406 204.47C35.952 204.12 36.442 203.7 36.918 203.252V203.938H40.544V203.028C41.006 203.63 41.496 204.162 42.014 204.54C42.266 204.162 42.756 203.574 43.106 203.308C42.35 202.818 41.552 202.02 41.006 201.194H42.77ZM48.58 206.64V204.512H51.002V206.64H48.58ZM57.512 206.64H52.724V204.512H56.42V202.958H52.724V201.292H56.742V199.682H48.832C49.014 199.304 49.168 198.926 49.294 198.534L47.6 198.1C46.998 199.906 45.92 201.698 44.66 202.762C45.066 203 45.78 203.56 46.102 203.84C46.76 203.182 47.432 202.286 48.006 201.292H51.002V202.958H46.914V206.64H44.702V208.236H51.002V211.232H52.724V208.236H57.512V206.64ZM66.108 204.96V203.098H67.466C67.424 203.756 67.368 204.372 67.27 204.96H66.108ZM68.46 200.732C68.278 201.096 68.054 201.446 67.858 201.74H65.968C66.234 201.418 66.486 201.082 66.71 200.732H68.46ZM70.392 204.96H68.852C68.936 204.372 68.992 203.742 69.034 203.098H70.392V204.96ZM61.222 207.116V204.554H62.398V207.116H61.222ZM62.398 200.648V203.112H61.222V200.648H62.398ZM69.93 209.524C69.65 209.524 69.608 209.482 69.608 209.076V206.318H71.946V201.74H69.482C69.888 201.166 70.294 200.508 70.574 199.948L69.538 199.304L69.3 199.36H67.466C67.62 199.038 67.76 198.73 67.886 198.408L66.262 198.156C65.842 199.304 65.086 200.634 63.896 201.684V199.192H59.752V209.65H61.222V208.572H63.896V202.314C64.176 202.552 64.47 202.874 64.624 203.112L64.666 203.07V206.318H66.948C66.402 207.9 65.268 209.118 62.776 209.902C63.154 210.238 63.588 210.84 63.756 211.26C66.052 210.448 67.326 209.258 68.054 207.774V209.09C68.054 210.532 68.348 210.98 69.664 210.98H70.854C71.932 210.98 72.31 210.476 72.464 208.474C72.044 208.376 71.386 208.11 71.078 207.858C71.036 209.314 70.98 209.524 70.686 209.524H69.93ZM82.95 207.522V208.082H78.064V207.522H82.95ZM78.064 209.734V209.174H82.95V209.734H78.064ZM76.426 211.204H78.064V210.826H82.95V211.162H84.658V206.43H76.426V211.204ZM76.356 202.174C76.944 201.95 77.504 201.684 78.05 201.404V201.684H82.964V201.32C83.58 201.642 84.21 201.936 84.868 202.174H76.356ZM83.888 204.96H82.754C82.978 204.568 83.244 204.022 83.524 203.462L82.432 203.196H83.888V204.96ZM77.028 204.96V203.196H78.61L77.532 203.504C77.756 203.952 77.938 204.526 78.008 204.96H77.028ZM79.772 204.96H78.344L79.24 204.68C79.156 204.274 78.932 203.672 78.68 203.196H79.772V204.96ZM82.124 203.196C81.998 203.658 81.774 204.302 81.578 204.722L82.418 204.96H81.116V203.196H82.124ZM79.422 200.606C79.842 200.312 80.248 200.004 80.612 199.696C80.962 200.004 81.368 200.312 81.788 200.606H79.422ZM80.22 198.03C78.96 199.654 76.454 200.816 73.878 201.446C74.158 201.726 74.606 202.398 74.774 202.72C75.054 202.636 75.348 202.538 75.642 202.44V205.968H85.372V202.356C85.666 202.44 85.96 202.538 86.24 202.608C86.464 202.216 86.94 201.628 87.29 201.348C85.064 200.886 82.768 199.948 81.48 198.814C81.55 198.73 81.62 198.646 81.69 198.562L80.22 198.03ZM88.774 203.644V205.45H101.654V203.644H88.774ZM113.946 200.312H110.334V199.64H113.946V200.312ZM113.946 202.076H110.334V201.404H113.946V202.076ZM115.486 198.492H108.864V203.224H115.486V198.492ZM116.438 205.156V203.756H107.632V205.156H109.214C108.864 205.702 108.43 206.206 107.926 206.64L107.632 205.45L106.512 205.94V202.636H107.828V201.068H106.512V198.31H104.972V201.068H103.572V202.636H104.972V206.584C104.314 206.85 103.726 207.088 103.25 207.27L103.866 208.95C104.72 208.53 105.728 208.026 106.736 207.522C107.086 207.746 107.618 208.236 107.828 208.502C108.402 208.138 108.948 207.676 109.466 207.13H110.292C109.55 208.166 108.472 209.146 107.436 209.664C107.828 209.902 108.262 210.322 108.528 210.644C109.746 209.874 111.048 208.474 111.804 207.13H112.63C112.028 208.432 111.09 209.678 110.026 210.35C110.446 210.574 110.922 210.952 111.202 211.274C112.336 210.392 113.428 208.698 114.002 207.13H114.548C114.394 208.824 114.226 209.538 114.03 209.748C113.918 209.874 113.806 209.902 113.61 209.902C113.428 209.902 113.064 209.902 112.616 209.86C112.826 210.21 112.966 210.77 112.994 211.162C113.554 211.19 114.086 211.176 114.408 211.134C114.758 211.092 115.066 210.98 115.332 210.658C115.71 210.252 115.934 209.132 116.13 206.402C116.144 206.206 116.158 205.828 116.158 205.828H110.474C110.614 205.604 110.754 205.38 110.866 205.156H116.438ZM130.844 200.844V199.164H118.37V200.844H123.424V211.176H125.216V204.526C126.63 205.338 128.226 206.36 129.038 207.074L130.27 205.548C129.206 204.68 127.008 203.476 125.496 202.72L125.216 203.042V200.844H130.844ZM135.548 201.6C135.156 203.308 134.302 204.778 133.07 205.66C133.434 205.912 134.092 206.458 134.358 206.752C134.974 206.248 135.506 205.59 135.968 204.834C136.346 205.198 136.696 205.548 136.906 205.814L138.026 204.652C137.704 204.33 137.172 203.854 136.668 203.42C136.864 202.944 137.032 202.426 137.172 201.908L135.548 201.6ZM145.544 205.226C145.026 204.75 144.06 204.008 143.262 203.392C143.444 202.916 143.598 202.412 143.724 201.894L142.1 201.6C141.82 202.93 141.232 204.176 140.336 204.974C140.266 204.862 140.196 204.764 140.126 204.652V201.516H145.404V199.878H140.126V198.156H138.376V199.878H133.28V201.516H138.376V204.75C137.158 206.64 134.974 208.376 132.706 209.258C133.07 209.608 133.616 210.28 133.882 210.686C135.548 209.916 137.116 208.698 138.376 207.228V211.218H140.126V207.144C141.386 208.642 142.968 209.902 144.662 210.686C144.942 210.224 145.488 209.51 145.894 209.16C143.794 208.39 141.792 206.906 140.546 205.254C140.938 205.464 141.4 205.772 141.638 205.968C141.988 205.632 142.296 205.226 142.576 204.764C143.276 205.338 143.99 205.954 144.382 206.388L145.544 205.226ZM151.676 204.008L150.542 204.33V202.314H151.816V200.788H150.542V198.156H149.03V200.788H147.56V202.314H149.03V204.736C148.4 204.89 147.812 205.044 147.336 205.142L147.7 206.738C148.106 206.626 148.568 206.5 149.03 206.36V209.454C149.03 209.636 148.96 209.692 148.792 209.692C148.624 209.706 148.134 209.706 147.63 209.678C147.826 210.126 148.008 210.812 148.05 211.218C148.974 211.232 149.562 211.176 149.996 210.91C150.416 210.644 150.542 210.224 150.542 209.454V205.912C150.99 205.786 151.438 205.646 151.886 205.506L151.676 204.008ZM154.07 200.424H151.998V201.922H154.07V203.364H152.124V204.82H154.056C154.042 205.268 154.014 205.716 153.958 206.15C152.95 206.472 151.984 206.766 151.27 206.948L151.9 208.39C152.418 208.194 152.978 207.984 153.538 207.746C153.188 208.642 152.6 209.44 151.634 210.112C151.97 210.364 152.544 210.882 152.824 211.218C155.26 209.468 155.554 206.85 155.554 204.036V198.142H154.07V200.424ZM160.524 206.36H158.102V204.82H160.146V203.364H158.102V201.922H160.286V200.424H158.102V198.142H156.534V211.204H158.102V207.858H160.524V206.36ZM174.748 198.562H173.18V200.284H171.864V198.156H170.394V200.284H169.092V198.562H167.608V201.628H174.748V198.562ZM165.564 208.068H164.556V204.554H165.564V208.068ZM166.796 209.524V203.098H164.626C164.948 202.188 165.186 201.236 165.382 200.27H167.104V198.758H162.344V200.27H163.842C163.478 202.118 162.904 203.84 162.036 204.988C162.26 205.478 162.554 206.528 162.61 206.976C162.806 206.738 163.002 206.472 163.184 206.206V210.56H164.556V209.524H166.796ZM170.814 206.906C170.534 206.402 169.96 205.548 169.54 204.904L168.91 205.282V205.016V203.658H175.084V202.272H167.44V205.016C167.44 206.598 167.342 208.824 166.348 210.42C166.698 210.574 167.356 210.994 167.622 211.246C168.504 209.86 168.798 207.83 168.882 206.136C169.218 206.682 169.54 207.256 169.708 207.634L170.814 206.906ZM173.46 207.522C173.95 207.06 174.538 206.332 175.196 205.702L173.964 204.82C173.642 205.422 173.04 206.29 172.592 206.822C172.508 206.626 172.438 206.416 172.368 206.206C172.438 205.59 172.48 204.904 172.508 204.19H171.066C170.968 206.962 170.744 208.894 168.392 210C168.742 210.266 169.162 210.84 169.33 211.218C170.688 210.518 171.472 209.566 171.892 208.348C172.494 209.538 173.306 210.518 174.342 211.134C174.566 210.756 174.986 210.224 175.322 209.958C174.076 209.356 173.18 208.208 172.606 206.864L173.46 207.522ZM186.256 199.878H180.446V199.43H186.256V199.878ZM186.256 201.166H180.446V200.704H186.256V201.166ZM187.936 198.562H178.836V202.02H187.936V198.562ZM189.756 202.44H177.086V203.63H189.756V202.44ZM180.152 206.738V206.248H182.588V206.738H180.152ZM180.152 204.932H182.588V205.422H180.152V204.932ZM186.634 205.422H184.184V204.932H186.634V205.422ZM186.634 206.738H184.184V206.248H186.634V206.738ZM184.184 209.664V209.16H188.524V208.082H184.184V207.634H188.258V204.05H178.584V207.634H182.588V208.082H178.304V209.16H182.588V209.664H177.058V210.868H189.784V209.664H184.184ZM195.51 207.802C195.734 208.698 195.874 209.902 195.832 210.658L197.26 210.49C197.26 209.706 197.12 208.53 196.854 207.634L195.51 207.802ZM197.61 207.676C197.904 208.46 198.212 209.51 198.296 210.196L199.626 209.846C199.528 209.188 199.206 208.152 198.884 207.382L197.61 207.676ZM200.606 201.908C200.522 202.286 200.438 202.65 200.354 202.972H197.652C197.862 202.622 198.044 202.272 198.226 201.908H200.606ZM201.53 204.4C201.46 204.792 201.376 205.156 201.292 205.492H195.874C196.182 205.142 196.462 204.778 196.742 204.4H201.53ZM204.344 205.492H202.79C202.986 204.736 203.168 203.798 203.322 202.972H201.866C202.048 202.202 202.258 201.236 202.426 200.41H198.898C199.136 199.794 199.36 199.164 199.556 198.534L197.848 198.142C197.652 198.898 197.4 199.668 197.078 200.41H195.328L196.42 199.962C196.14 199.444 195.552 198.674 195.048 198.142L193.55 198.73C193.984 199.234 194.46 199.906 194.726 200.41H191.996V201.908H196.364C195.23 203.994 193.578 205.814 191.338 206.948C191.632 207.326 192.038 207.984 192.234 208.404C192.71 208.138 193.172 207.858 193.592 207.55C193.34 208.572 192.892 209.594 192.22 210.252L193.508 211.162C194.334 210.294 194.754 208.992 195.034 207.788L193.83 207.382C194.026 207.242 194.222 207.074 194.418 206.92H202.58C202.412 208.6 202.216 209.356 201.978 209.594C201.838 209.734 201.698 209.748 201.474 209.748C201.194 209.762 200.606 209.748 200.004 209.692C200.256 210.112 200.438 210.742 200.466 211.204C201.18 211.232 201.838 211.232 202.244 211.176C202.706 211.12 203.028 211.008 203.364 210.644C203.812 210.182 204.064 208.964 204.302 206.136L204.344 205.492ZM201.754 208.866C201.614 208.348 201.236 207.592 200.858 207.018L199.71 207.41C200.06 207.998 200.41 208.81 200.536 209.3L201.754 208.866ZM206.948 210H213.178V208.334H211.232V199.626H209.706C209.048 200.046 208.334 200.312 207.298 200.508V201.782H209.174V208.334H206.948V210ZM218.874 210.196C220.988 210.196 222.374 208.348 222.374 204.778C222.374 201.208 220.988 199.444 218.874 199.444C216.76 199.444 215.36 201.194 215.36 204.778C215.36 208.348 216.76 210.196 218.874 210.196ZM218.874 208.586C217.978 208.586 217.306 207.69 217.306 204.778C217.306 201.88 217.978 201.04 218.874 201.04C219.77 201.04 220.428 201.88 220.428 204.778C220.428 207.69 219.77 208.586 218.874 208.586ZM227.818 210.196C229.932 210.196 231.318 208.348 231.318 204.778C231.318 201.208 229.932 199.444 227.818 199.444C225.704 199.444 224.304 201.194 224.304 204.778C224.304 208.348 225.704 210.196 227.818 210.196ZM227.818 208.586C226.922 208.586 226.25 207.69 226.25 204.778C226.25 201.88 226.922 201.04 227.818 201.04C228.714 201.04 229.372 201.88 229.372 204.778C229.372 207.69 228.714 208.586 227.818 208.586ZM236.762 210.196C238.876 210.196 240.262 208.348 240.262 204.778C240.262 201.208 238.876 199.444 236.762 199.444C234.648 199.444 233.248 201.194 233.248 204.778C233.248 208.348 234.648 210.196 236.762 210.196ZM236.762 208.586C235.866 208.586 235.194 207.69 235.194 204.778C235.194 201.88 235.866 201.04 236.762 201.04C237.658 201.04 238.316 201.88 238.316 204.778C238.316 207.69 237.658 208.586 236.762 208.586ZM248.241 198.478V200.2H250.481C251.265 202.048 252.511 203.924 254.107 205.142C254.387 204.624 254.989 203.826 255.367 203.462C253.659 202.412 252.371 200.438 251.769 198.478H248.241ZM245.721 198.45C244.881 200.48 243.411 202.51 241.927 203.756C242.347 204.092 243.089 204.82 243.411 205.184C244.923 203.728 246.561 201.348 247.583 199.052L245.721 198.45ZM249.879 206.22C250.313 206.836 250.775 207.564 251.223 208.264L246.085 208.6C247.443 207.088 248.787 205.226 249.865 203.336L247.919 202.51C246.813 204.82 245.063 207.214 244.461 207.816C243.915 208.432 243.551 208.81 243.075 208.936C243.327 209.44 243.649 210.364 243.761 210.728C244.447 210.462 245.399 210.378 252.161 209.846C252.455 210.35 252.707 210.826 252.889 211.218L254.611 210.308C253.925 209.006 252.637 207.018 251.503 205.478L249.879 206.22ZM268.191 203.042H266.539V202.23H268.191V203.042ZM268.191 205.016H266.539V204.176H268.191V205.016ZM268.191 206.976H266.539V206.136H268.191V206.976ZM265.335 201.012V208.194H269.437V201.012H267.883C267.953 200.746 268.037 200.466 268.107 200.186H269.703V198.87H264.999V200.186H266.595C266.567 200.452 266.539 200.746 266.511 201.012H265.335ZM258.993 200.872V206.724H258.279V200.872H258.993ZM260.183 199.43H257.159V209.202H258.279V208.166H260.183V199.43ZM263.319 208.46V206.486H264.887V202.034H263.907V205.17H263.319V201.18H264.845V199.906H263.319V198.156H262.101V199.906H260.477V201.18H262.101V205.17H261.583V202.034H260.645V206.486H262.101V208.432C262.101 209.006 261.723 209.37 261.457 209.524C261.681 209.79 261.989 210.322 262.101 210.63C262.353 210.378 262.787 210.126 265.125 209.104C265.027 208.81 264.915 208.236 264.873 207.844L263.319 208.46ZM265.979 208.334C265.629 209.034 264.915 209.958 264.215 210.462C264.551 210.658 265.027 211.022 265.279 211.26C265.937 210.728 266.749 209.748 267.197 208.936L265.979 208.334ZM267.519 208.852C267.981 209.58 268.471 210.546 268.667 211.176L269.899 210.56C269.689 209.958 269.171 209.006 268.681 208.334L267.519 208.852ZM271.509 203.672H278.691V202.216H271.509V203.672ZM271.509 207.298H278.691V205.828H271.509V207.298ZM283.785 210.196C285.703 210.196 287.411 208.866 287.411 206.556C287.411 204.302 285.955 203.266 284.219 203.266C283.743 203.266 283.393 203.364 282.973 203.56L283.169 201.362H286.935V199.626H281.391L281.111 204.666L282.049 205.282C282.651 204.89 282.987 204.736 283.603 204.736C284.653 204.736 285.353 205.408 285.353 206.612C285.353 207.83 284.597 208.516 283.519 208.516C282.553 208.516 281.825 208.04 281.237 207.466L280.285 208.782C281.055 209.552 282.147 210.196 283.785 210.196ZM290.013 210H296.243V208.334H294.297V199.626H292.771C292.113 200.046 291.399 200.312 290.363 200.508V201.782H292.239V208.334H290.013V210ZM298.985 212.982C300.679 212.422 301.631 211.176 301.631 209.538C301.631 208.264 301.099 207.508 300.147 207.508C299.419 207.508 298.817 207.984 298.817 208.726C298.817 209.51 299.433 209.944 300.105 209.944C300.147 209.944 300.189 209.944 300.231 209.944C300.245 210.728 299.643 211.456 298.551 211.862L298.985 212.982ZM305.358 205.744L306.968 203.168C307.262 202.608 307.542 202.034 307.794 201.474H307.85C307.822 202.09 307.78 203.028 307.78 203.63V205.744H305.358ZM307.78 210H309.698V207.312H310.916V205.744H309.698V199.626H307.22L303.356 205.912V207.312H307.78V210ZM316.122 210.196C318.222 210.196 319.608 208.992 319.608 207.424C319.608 206.01 318.824 205.17 317.872 204.652V204.582C318.558 204.092 319.202 203.238 319.202 202.216C319.202 200.564 318.026 199.458 316.192 199.458C314.4 199.458 313.07 200.522 313.07 202.188C313.07 203.294 313.644 204.078 314.442 204.652V204.722C313.476 205.226 312.664 206.094 312.664 207.424C312.664 209.048 314.148 210.196 316.122 210.196ZM316.78 204.078C315.688 203.644 314.89 203.168 314.89 202.188C314.89 201.362 315.45 200.9 316.15 200.9C317.018 200.9 317.522 201.502 317.522 202.342C317.522 202.958 317.284 203.546 316.78 204.078ZM316.178 208.74C315.212 208.74 314.442 208.138 314.442 207.2C314.442 206.43 314.834 205.73 315.394 205.282C316.738 205.828 317.69 206.276 317.69 207.354C317.69 208.25 317.06 208.74 316.178 208.74ZM325.08 210.196C327.194 210.196 328.58 208.348 328.58 204.778C328.58 201.208 327.194 199.444 325.08 199.444C322.966 199.444 321.566 201.194 321.566 204.778C321.566 208.348 322.966 210.196 325.08 210.196ZM325.08 208.586C324.184 208.586 323.512 207.69 323.512 204.778C323.512 201.88 324.184 201.04 325.08 201.04C325.976 201.04 326.634 201.88 326.634 204.778C326.634 207.69 325.976 208.586 325.08 208.586ZM330.09 212.548H331.462L334.934 198.716H333.576L330.09 212.548ZM337.17 210H343.4V208.334H341.454V199.626H339.928C339.27 200.046 338.556 200.312 337.52 200.508V201.782H339.396V208.334H337.17V210ZM349.096 210.196C351.21 210.196 352.596 208.348 352.596 204.778C352.596 201.208 351.21 199.444 349.096 199.444C346.982 199.444 345.582 201.194 345.582 204.778C345.582 208.348 346.982 210.196 349.096 210.196ZM349.096 208.586C348.2 208.586 347.528 207.69 347.528 204.778C347.528 201.88 348.2 201.04 349.096 201.04C349.992 201.04 350.65 201.88 350.65 204.778C350.65 207.69 349.992 208.586 349.096 208.586ZM358.04 210.196C360.154 210.196 361.54 208.348 361.54 204.778C361.54 201.208 360.154 199.444 358.04 199.444C355.926 199.444 354.526 201.194 354.526 204.778C354.526 208.348 355.926 210.196 358.04 210.196ZM358.04 208.586C357.144 208.586 356.472 207.69 356.472 204.778C356.472 201.88 357.144 201.04 358.04 201.04C358.936 201.04 359.594 201.88 359.594 204.778C359.594 207.69 358.936 208.586 358.04 208.586ZM366.984 210.196C369.098 210.196 370.484 208.348 370.484 204.778C370.484 201.208 369.098 199.444 366.984 199.444C364.87 199.444 363.47 201.194 363.47 204.778C363.47 208.348 364.87 210.196 366.984 210.196ZM366.984 208.586C366.088 208.586 365.416 207.69 365.416 204.778C365.416 201.88 366.088 201.04 366.984 201.04C367.88 201.04 368.538 201.88 368.538 204.778C368.538 207.69 367.88 208.586 366.984 208.586ZM372.33 203.672H379.512V202.216H372.33V203.672ZM372.33 207.298H379.512V205.828H372.33V207.298ZM384.607 210.196C386.525 210.196 388.233 208.866 388.233 206.556C388.233 204.302 386.777 203.266 385.041 203.266C384.565 203.266 384.215 203.364 383.795 203.56L383.991 201.362H387.757V199.626H382.213L381.933 204.666L382.871 205.282C383.473 204.89 383.809 204.736 384.425 204.736C385.475 204.736 386.175 205.408 386.175 206.612C386.175 207.83 385.419 208.516 384.341 208.516C383.375 208.516 382.647 208.04 382.059 207.466L381.107 208.782C381.877 209.552 382.969 210.196 384.607 210.196ZM390.835 210H397.065V208.334H395.119V199.626H393.593C392.935 200.046 392.221 200.312 391.185 200.508V201.782H393.061V208.334H390.835V210ZM409.677 200.312H406.065V199.64H409.677V200.312ZM409.677 202.076H406.065V201.404H409.677V202.076ZM411.217 198.492H404.595V203.224H411.217V198.492ZM412.169 205.156V203.756H403.363V205.156H404.945C404.595 205.702 404.161 206.206 403.657 206.64L403.363 205.45L402.243 205.94V202.636H403.559V201.068H402.243V198.31H400.703V201.068H399.303V202.636H400.703V206.584C400.045 206.85 399.457 207.088 398.981 207.27L399.597 208.95C400.451 208.53 401.459 208.026 402.467 207.522C402.817 207.746 403.349 208.236 403.559 208.502C404.133 208.138 404.679 207.676 405.197 207.13H406.023C405.281 208.166 404.203 209.146 403.167 209.664C403.559 209.902 403.993 210.322 404.259 210.644C405.477 209.874 406.779 208.474 407.535 207.13H408.361C407.759 208.432 406.821 209.678 405.757 210.35C406.177 210.574 406.653 210.952 406.933 211.274C408.067 210.392 409.159 208.698 409.733 207.13H410.279C410.125 208.824 409.957 209.538 409.761 209.748C409.649 209.874 409.537 209.902 409.341 209.902C409.159 209.902 408.795 209.902 408.347 209.86C408.557 210.21 408.697 210.77 408.725 211.162C409.285 211.19 409.817 211.176 410.139 211.134C410.489 211.092 410.797 210.98 411.063 210.658C411.441 210.252 411.665 209.132 411.861 206.402C411.875 206.206 411.889 205.828 411.889 205.828H406.205C406.345 205.604 406.485 205.38 406.597 205.156H412.169Z" fill="#808080"/>
<path d="M79.27 74.83V79.63H66.55V74.83H79.27ZM62.89 84.58H66.55V83.05H79.27V84.55H83.11V71.41H62.89V84.58ZM75.46 61.21C76.57 62.32 77.77 63.58 78.94 64.9L66.64 65.29C68.92 63.1 71.29 60.43 73.18 57.64L69.58 56.11C67.54 59.71 64.27 63.34 63.22 64.27C62.23 65.23 61.51 65.8 60.73 66.01C61.15 66.94 61.72 68.71 61.9 69.43C63.49 68.89 65.62 68.83 81.55 68.05C82.18 68.89 82.72 69.67 83.11 70.33L86.14 68.14C84.58 65.62 81.01 61.93 78.25 59.35L75.46 61.21ZM101.89 76.57V57.07H98.17V63.67H91.24V67.24H98.17V77.89C95.11 78.94 92.23 79.93 90.22 80.56L91.81 84.22C95.35 82.81 99.97 80.98 104.2 79.15L103.57 75.97L101.89 76.57ZM110.68 80.23C109.69 80.23 109.54 79.96 109.54 78.34V67.18H117.37V63.64H109.54V57.1H105.82V78.31C105.82 82.45 106.81 83.71 110.11 83.71H113.68C117.07 83.71 117.91 81.34 118.24 75.13C117.25 74.89 115.69 74.14 114.82 73.45C114.64 78.82 114.46 80.23 113.35 80.23H110.68ZM133.48 73.54H136.42C135.97 75.25 135.43 77.08 134.92 78.46H144.82C144.61 80.26 144.31 81.22 143.89 81.55C143.53 81.79 143.14 81.79 142.48 81.79C141.52 81.79 139.18 81.76 137.05 81.58C137.74 82.45 138.25 83.71 138.34 84.64C140.41 84.76 142.42 84.76 143.5 84.67C144.91 84.64 145.81 84.4 146.59 83.62C147.46 82.78 147.88 80.86 148.18 76.87C148.24 76.42 148.3 75.55 148.3 75.55H139.12C139.33 74.89 139.51 74.23 139.69 73.54H149.53V70.6H133.48V73.54ZM138.34 66.19C139.15 65.23 139.9 64.24 140.53 63.13H142.48C142.96 64.18 143.56 65.2 144.25 66.19H138.34ZM125.95 60.73H129.64V64.6H125.95V60.73ZM149.65 63.13V60.07H142.15C142.51 59.32 142.81 58.57 143.05 57.76L139.99 56.95C139.63 58.06 139.18 59.08 138.64 60.07H133.66V63.13H136.6C135.46 64.54 134.14 65.71 132.64 66.67V57.73H123.07V67.6H127.21V78.7L125.86 79.06V69.79H123.16V79.72C122.74 79.81 122.32 79.9 121.93 79.99L122.77 83.32C125.98 82.42 130.18 81.22 134.11 80.05L133.63 77.02L130.27 77.89V73.9H132.76V70.81H130.27V67.6H132.64V67.45C133.12 68.32 133.69 69.55 133.87 70.15C135.04 69.4 136.09 68.5 137.11 67.54V69.01H144.88V67.06C145.87 68.35 146.92 69.49 148.03 70.3C148.57 69.49 149.62 68.23 150.37 67.66C148.75 66.61 147.04 64.9 145.87 63.13H149.65ZM162.1 74.8V70.24H167.29V74.8H162.1ZM181.24 74.8H170.98V70.24H178.9V66.91H170.98V63.34H179.59V59.89H162.64C163.03 59.08 163.36 58.27 163.63 57.43L160 56.5C158.71 60.37 156.4 64.21 153.7 66.49C154.57 67 156.1 68.2 156.79 68.8C158.2 67.39 159.64 65.47 160.87 63.34H167.29V66.91H158.53V74.8H153.79V78.22H167.29V84.64H170.98V78.22H181.24V74.8ZM199.66 71.2V67.21H202.57C202.48 68.62 202.36 69.94 202.15 71.2H199.66ZM204.7 62.14C204.31 62.92 203.83 63.67 203.41 64.3H199.36C199.93 63.61 200.47 62.89 200.95 62.14H204.7ZM208.84 71.2H205.54C205.72 69.94 205.84 68.59 205.93 67.21H208.84V71.2ZM189.19 75.82V70.33H191.71V75.82H189.19ZM191.71 61.96V67.24H189.19V61.96H191.71ZM207.85 80.98C207.25 80.98 207.16 80.89 207.16 80.02V74.11H212.17V64.3H206.89C207.76 63.07 208.63 61.66 209.23 60.46L207.01 59.08L206.5 59.2H202.57C202.9 58.51 203.2 57.85 203.47 57.16L199.99 56.62C199.09 59.08 197.47 61.93 194.92 64.18V58.84H186.04V81.25H189.19V78.94H194.92V65.53C195.52 66.04 196.15 66.73 196.48 67.24L196.57 67.15V74.11H201.46C200.29 77.5 197.86 80.11 192.52 81.79C193.33 82.51 194.26 83.8 194.62 84.7C199.54 82.96 202.27 80.41 203.83 77.23V80.05C203.83 83.14 204.46 84.1 207.28 84.1H209.83C212.14 84.1 212.95 83.02 213.28 78.73C212.38 78.52 210.97 77.95 210.31 77.41C210.22 80.53 210.1 80.98 209.47 80.98H207.85ZM78.25 124.69V125.89H67.78V124.69H78.25ZM67.78 129.43V128.23H78.25V129.43H67.78ZM64.27 132.58H67.78V131.77H78.25V132.49H81.91V122.35H64.27V132.58ZM64.12 113.23C65.38 112.75 66.58 112.18 67.75 111.58V112.18H78.28V111.4C79.6 112.09 80.95 112.72 82.36 113.23H64.12ZM80.26 119.2H77.83C78.31 118.36 78.88 117.19 79.48 115.99L77.14 115.42H80.26V119.2ZM65.56 119.2V115.42H68.95L66.64 116.08C67.12 117.04 67.51 118.27 67.66 119.2H65.56ZM71.44 119.2H68.38L70.3 118.6C70.12 117.73 69.64 116.44 69.1 115.42H71.44V119.2ZM76.48 115.42C76.21 116.41 75.73 117.79 75.31 118.69L77.11 119.2H74.32V115.42H76.48ZM70.69 109.87C71.59 109.24 72.46 108.58 73.24 107.92C73.99 108.58 74.86 109.24 75.76 109.87H70.69ZM72.4 104.35C69.7 107.83 64.33 110.32 58.81 111.67C59.41 112.27 60.37 113.71 60.73 114.4C61.33 114.22 61.96 114.01 62.59 113.8V121.36H83.44V113.62C84.07 113.8 84.7 114.01 85.3 114.16C85.78 113.32 86.8 112.06 87.55 111.46C82.78 110.47 77.86 108.46 75.1 106.03C75.25 105.85 75.4 105.67 75.55 105.49L72.4 104.35ZM95.02 126.37V120.49H99.79V126.37H95.02ZM99.79 117.4H95.02V112.54H99.79V117.4ZM109.33 109.21C109.78 107.95 110.17 106.69 110.5 105.4L107.08 104.62C106.21 108.13 104.77 111.76 103.03 114.28V109.42H98.38C98.89 108.13 99.43 106.63 99.94 105.13L96.04 104.59C95.92 106 95.56 107.92 95.17 109.42H91.78V131.71H95.02V129.52H103.03V115.51C103.84 116.05 104.86 116.74 105.34 117.19C106.27 115.9 107.2 114.25 107.98 112.45H114.4C114.07 123.04 113.68 127.54 112.81 128.5C112.42 128.89 112.09 129.01 111.49 129.01C110.71 129.01 108.94 129.01 107.02 128.83C107.65 129.82 108.13 131.32 108.19 132.31C109.96 132.37 111.76 132.4 112.9 132.25C114.1 132.04 114.94 131.71 115.78 130.6C117.01 129.01 117.34 124.24 117.73 110.83C117.76 110.41 117.76 109.21 117.76 109.21H109.33ZM112.78 122.89C111.85 121.15 109.87 118.3 108.37 116.23L105.58 117.82C107.05 120.01 108.91 122.95 109.75 124.75L112.78 122.89ZM131.02 117.16L128.59 117.85V113.53H131.32V110.26H128.59V104.62H125.35V110.26H122.2V113.53H125.35V118.72C124 119.05 122.74 119.38 121.72 119.59L122.5 123.01C123.37 122.77 124.36 122.5 125.35 122.2V128.83C125.35 129.22 125.2 129.34 124.84 129.34C124.48 129.37 123.43 129.37 122.35 129.31C122.77 130.27 123.16 131.74 123.25 132.61C125.23 132.64 126.49 132.52 127.42 131.95C128.32 131.38 128.59 130.48 128.59 128.83V121.24C129.55 120.97 130.51 120.67 131.47 120.37L131.02 117.16ZM136.15 109.48H131.71V112.69H136.15V115.78H131.98V118.9H136.12C136.09 119.86 136.03 120.82 135.91 121.75C133.75 122.44 131.68 123.07 130.15 123.46L131.5 126.55C132.61 126.13 133.81 125.68 135.01 125.17C134.26 127.09 133 128.8 130.93 130.24C131.65 130.78 132.88 131.89 133.48 132.61C138.7 128.86 139.33 123.25 139.33 117.22V104.59H136.15V109.48ZM149.98 122.2H144.79V118.9H149.17V115.78H144.79V112.69H149.47V109.48H144.79V104.59H141.43V132.58H144.79V125.41H149.98V122.2ZM180.46 105.49H177.1V109.18H174.28V104.62H171.13V109.18H168.34V105.49H165.16V112.06H180.46V105.49ZM160.78 125.86H158.62V118.33H160.78V125.86ZM163.42 128.98V115.21H158.77C159.46 113.26 159.97 111.22 160.39 109.15H164.08V105.91H153.88V109.15H157.09C156.31 113.11 155.08 116.8 153.22 119.26C153.7 120.31 154.33 122.56 154.45 123.52C154.87 123.01 155.29 122.44 155.68 121.87V131.2H158.62V128.98H163.42ZM172.03 123.37C171.43 122.29 170.2 120.46 169.3 119.08L167.95 119.89V119.32V116.41H181.18V113.44H164.8V119.32C164.8 122.71 164.59 127.48 162.46 130.9C163.21 131.23 164.62 132.13 165.19 132.67C167.08 129.7 167.71 125.35 167.89 121.72C168.61 122.89 169.3 124.12 169.66 124.93L172.03 123.37ZM177.7 124.69C178.75 123.7 180.01 122.14 181.42 120.79L178.78 118.9C178.09 120.19 176.8 122.05 175.84 123.19C175.66 122.77 175.51 122.32 175.36 121.87C175.51 120.55 175.6 119.08 175.66 117.55H172.57C172.36 123.49 171.88 127.63 166.84 130C167.59 130.57 168.49 131.8 168.85 132.61C171.76 131.11 173.44 129.07 174.34 126.46C175.63 129.01 177.37 131.11 179.59 132.43C180.07 131.62 180.97 130.48 181.69 129.91C179.02 128.62 177.1 126.16 175.87 123.28L177.7 124.69ZM205.12 108.31H192.67V107.35H205.12V108.31ZM205.12 111.07H192.67V110.08H205.12V111.07ZM208.72 105.49H189.22V112.9H208.72V105.49ZM212.62 113.8H185.47V116.35H212.62V113.8ZM192.04 123.01V121.96H197.26V123.01H192.04ZM192.04 119.14H197.26V120.19H192.04V119.14ZM205.93 120.19H200.68V119.14H205.93V120.19ZM205.93 123.01H200.68V121.96H205.93V123.01ZM200.68 129.28V128.2H209.98V125.89H200.68V124.93H209.41V117.25H188.68V124.93H197.26V125.89H188.08V128.2H197.26V129.28H185.41V131.86H212.68V129.28H200.68Z" fill="#231916"/>
<path d="M611.67 109.24H603.93V107.8H611.67V109.24ZM611.67 113.02H603.93V111.58H611.67V113.02ZM614.97 105.34H600.78V115.48H614.97V105.34ZM617.01 119.62V116.62H598.14V119.62H601.53C600.78 120.79 599.85 121.87 598.77 122.8L598.14 120.25L595.74 121.3V114.22H598.56V110.86H595.74V104.95H592.44V110.86H589.44V114.22H592.44V122.68C591.03 123.25 589.77 123.76 588.75 124.15L590.07 127.75C591.9 126.85 594.06 125.77 596.22 124.69C596.97 125.17 598.11 126.22 598.56 126.79C599.79 126.01 600.96 125.02 602.07 123.85H603.84C602.25 126.07 599.94 128.17 597.72 129.28C598.56 129.79 599.49 130.69 600.06 131.38C602.67 129.73 605.46 126.73 607.08 123.85H608.85C607.56 126.64 605.55 129.31 603.27 130.75C604.17 131.23 605.19 132.04 605.79 132.73C608.22 130.84 610.56 127.21 611.79 123.85H612.96C612.63 127.48 612.27 129.01 611.85 129.46C611.61 129.73 611.37 129.79 610.95 129.79C610.56 129.79 609.78 129.79 608.82 129.7C609.27 130.45 609.57 131.65 609.63 132.49C610.83 132.55 611.97 132.52 612.66 132.43C613.41 132.34 614.07 132.1 614.64 131.41C615.45 130.54 615.93 128.14 616.35 122.29C616.38 121.87 616.41 121.06 616.41 121.06H604.23C604.53 120.58 604.83 120.1 605.07 119.62H617.01Z" fill="#231916"/>
<line x1="355.251" y1="58.7261" x2="279.974" y2="134.003" stroke="#231916" stroke-width="2.75403"/>
<line x1="353.303" y1="134.003" x2="278.026" y2="58.726" stroke="#231916" stroke-width="2.75403"/>
<path d="M450.447 133.391C466.497 133.391 480.621 123.654 480.621 105.678C480.621 88.237 467.781 80.319 453.336 80.319C448.521 80.319 444.455 81.068 440.603 82.887L441.994 65.767H477.411V52.499H428.405L426.265 91.554L433.434 96.048C438.677 92.731 443.064 91.661 448.842 91.661C457.723 91.661 464.892 96.69 464.892 105.999C464.892 115.522 457.723 120.551 448.628 120.551C440.068 120.551 433.862 117.02 428.298 111.777L420.915 121.514C428.084 128.469 436.965 133.391 450.447 133.391ZM500.309 132H560.978V119.267H539.578V52.499H528.022C522.137 56.458 515.182 57.421 505.231 59.133V68.977H523.849V119.267H500.309V132Z" fill="#ED783F"/>
</svg>
