<svg width="577" height="229" viewBox="0 0 577 229" fill="none" xmlns="http://www.w3.org/2000/svg">
<path d="M46.08 96.74V90.29H52.86V96.74H46.08ZM35.55 96.74V90.29H42.3V96.74H35.55ZM46.08 86.78V81.59H42.3V86.78H31.95V101.9H35.55V100.25H42.3V109.61H46.08V100.25H52.86V101.75H56.61V86.78H46.08ZM84.63 87.5C83.91 90.2 82.5 93.74 81.3 95.99L84.42 97.34C85.68 95.24 87.27 91.91 88.56 88.97L84.63 87.5ZM69.78 95.87C69.24 93.56 67.92 89.78 66.87 86.93L63.33 88.16C64.32 91.13 65.52 95.06 66 97.4L69.78 95.87ZM73.74 81.8C73.65 92.27 74.31 101.9 61.86 106.61C62.82 107.39 63.9 108.71 64.35 109.64C70.5 107.15 73.8 103.43 75.6 99.02C77.88 104.18 81.39 107.63 87.39 109.37C87.9 108.32 88.95 106.79 89.76 106.01C82.5 104.36 78.84 99.89 77.13 93.29C77.7 89.63 77.73 85.76 77.76 81.8H73.74ZM97.77 103.37V97.49H102.54V103.37H97.77ZM102.54 94.4H97.77V89.54H102.54V94.4ZM112.08 86.21C112.53 84.95 112.92 83.69 113.25 82.4L109.83 81.62C108.96 85.13 107.52 88.76 105.78 91.28V86.42H101.13C101.64 85.13 102.18 83.63 102.69 82.13L98.79 81.59C98.67 83 98.31 84.92 97.92 86.42H94.53V108.71H97.77V106.52H105.78V92.51C106.59 93.05 107.61 93.74 108.09 94.19C109.02 92.9 109.95 91.25 110.73 89.45H117.15C116.82 100.04 116.43 104.54 115.56 105.5C115.17 105.89 114.84 106.01 114.24 106.01C113.46 106.01 111.69 106.01 109.77 105.83C110.4 106.82 110.88 108.32 110.94 109.31C112.71 109.37 114.51 109.4 115.65 109.25C116.85 109.04 117.69 108.71 118.53 107.6C119.76 106.01 120.09 101.24 120.48 87.83C120.51 87.41 120.51 86.21 120.51 86.21H112.08ZM115.53 99.89C114.6 98.15 112.62 95.3 111.12 93.23L108.33 94.82C109.8 97.01 111.66 99.95 112.5 101.75L115.53 99.89ZM151.71 82.49H148.35V86.18H145.53V81.62H142.38V86.18H139.59V82.49H136.41V89.06H151.71V82.49ZM132.03 102.86H129.87V95.33H132.03V102.86ZM134.67 105.98V92.21H130.02C130.71 90.26 131.22 88.22 131.64 86.15H135.33V82.91H125.13V86.15H128.34C127.56 90.11 126.33 93.8 124.47 96.26C124.95 97.31 125.58 99.56 125.7 100.52C126.12 100.01 126.54 99.44 126.93 98.87V108.2H129.87V105.98H134.67ZM143.28 100.37C142.68 99.29 141.45 97.46 140.55 96.08L139.2 96.89V96.32V93.41H152.43V90.44H136.05V96.32C136.05 99.71 135.84 104.48 133.71 107.9C134.46 108.23 135.87 109.13 136.44 109.67C138.33 106.7 138.96 102.35 139.14 98.72C139.86 99.89 140.55 101.12 140.91 101.93L143.28 100.37ZM148.95 101.69C150 100.7 151.26 99.14 152.67 97.79L150.03 95.9C149.34 97.19 148.05 99.05 147.09 100.19C146.91 99.77 146.76 99.32 146.61 98.87C146.76 97.55 146.85 96.08 146.91 94.55H143.82C143.61 100.49 143.13 104.63 138.09 107C138.84 107.57 139.74 108.8 140.1 109.61C143.01 108.11 144.69 106.07 145.59 103.46C146.88 106.01 148.62 108.11 150.84 109.43C151.32 108.62 152.22 107.48 152.94 106.91C150.27 105.62 148.35 103.16 147.12 100.28L148.95 101.69ZM165.27 94.16L162.84 94.85V90.53H165.57V87.26H162.84V81.62H159.6V87.26H156.45V90.53H159.6V95.72C158.25 96.05 156.99 96.38 155.97 96.59L156.75 100.01C157.62 99.77 158.61 99.5 159.6 99.2V105.83C159.6 106.22 159.45 106.34 159.09 106.34C158.73 106.37 157.68 106.37 156.6 106.31C157.02 107.27 157.41 108.74 157.5 109.61C159.48 109.64 160.74 109.52 161.67 108.95C162.57 108.38 162.84 107.48 162.84 105.83V98.24C163.8 97.97 164.76 97.67 165.72 97.37L165.27 94.16ZM170.4 86.48H165.96V89.69H170.4V92.78H166.23V95.9H170.37C170.34 96.86 170.28 97.82 170.16 98.75C168 99.44 165.93 100.07 164.4 100.46L165.75 103.55C166.86 103.13 168.06 102.68 169.26 102.17C168.51 104.09 167.25 105.8 165.18 107.24C165.9 107.78 167.13 108.89 167.73 109.61C172.95 105.86 173.58 100.25 173.58 94.22V81.59H170.4V86.48ZM184.23 99.2H179.04V95.9H183.42V92.78H179.04V89.69H183.72V86.48H179.04V81.59H175.68V109.58H179.04V102.41H184.23V99.2ZM206.13 90.32H210.06C209.67 93.11 209.07 95.54 208.2 97.67C207.27 95.51 206.58 93.05 206.07 90.44L206.13 90.32ZM215.82 90.32V87.02H207.12C207.54 85.46 207.87 83.81 208.14 82.16L204.51 81.59C203.79 86.42 202.41 91.04 200.22 94.07V93.83C200.25 93.41 200.25 92.39 200.25 92.39H194.31V89.45H201.24V86.15H194.7L197.16 85.43C196.86 84.38 196.26 82.73 195.72 81.5L192.57 82.25C193.02 83.45 193.56 85.01 193.8 86.15H188.01V89.45H190.95V95.24C190.95 99.11 190.5 103.4 187.29 107.12C188.16 107.72 189.33 108.68 189.9 109.46C193.62 105.35 194.28 100.37 194.31 95.63H196.83C196.71 102.65 196.53 105.17 196.14 105.83C195.9 106.19 195.66 106.28 195.3 106.28C194.82 106.28 193.95 106.25 192.99 106.19C193.5 107.09 193.83 108.44 193.92 109.43C195.18 109.46 196.35 109.43 197.13 109.31C198 109.13 198.54 108.83 199.14 107.99C199.89 106.97 200.04 103.73 200.19 95.39C200.97 96.14 201.87 97.13 202.29 97.7C202.89 96.95 203.43 96.17 203.94 95.24C204.57 97.49 205.26 99.56 206.19 101.42C204.63 103.58 202.53 105.29 199.77 106.55C200.43 107.3 201.45 108.89 201.75 109.67C204.39 108.32 206.46 106.64 208.11 104.6C209.61 106.61 211.44 108.23 213.72 109.43C214.26 108.47 215.37 107.09 216.18 106.37C213.69 105.23 211.77 103.55 210.27 101.39C211.89 98.36 212.94 94.67 213.57 90.32H215.82Z" fill="#231916"/>
<path d="M528.42 104.01V127.14C528.42 127.71 528.18 127.92 527.52 127.92C526.86 127.95 524.64 127.95 522.69 127.86C523.23 128.85 523.89 130.53 524.1 131.58C527.01 131.58 529.05 131.46 530.46 130.89C531.78 130.32 532.29 129.33 532.29 127.14V104.01H528.42ZM535.56 111.84C537.93 116.22 540.21 121.86 540.81 125.49L544.71 123.96C543.96 120.21 541.5 114.78 539.07 110.52L535.56 111.84ZM520.56 110.85C519.93 114.75 518.43 120 516.03 123.03C516.96 123.45 518.61 124.29 519.51 124.89C522 121.59 523.62 116.01 524.64 111.54L520.56 110.85ZM554.76 108.6V113.88H552V108.6H554.76ZM552 122.64V117H554.76V122.64H552ZM558.09 105.42H548.7V128.46H552V125.82H558.09V105.42ZM559.83 123.3C561.06 124.86 562.59 127.05 563.28 128.34L566.4 126.51C565.65 125.19 564.03 123.15 562.8 121.71L559.83 123.3ZM575.64 109.92V106.8H568.89V103.59H565.38V106.8H558.63V109.92H565.38V112.77H559.59V115.86H569.16V118.2H558.66V121.29H569.16V127.74C569.16 128.16 569.01 128.28 568.53 128.28C568.08 128.28 566.43 128.28 564.99 128.22C565.44 129.18 565.98 130.59 566.1 131.58C568.32 131.58 569.97 131.49 571.11 130.98C572.31 130.44 572.64 129.54 572.64 127.83V121.29H575.52V118.2H572.64V115.86H574.83V112.77H568.89V109.92H575.64Z" fill="#231916"/>
<line x1="358.251" y1="57.7261" x2="282.974" y2="133.003" stroke="#231916" stroke-width="2.75403"/>
<line x1="356.303" y1="133.003" x2="281.026" y2="57.726" stroke="#231916" stroke-width="2.75403"/>
<path d="M470.515 135.511C485.303 135.511 498.473 125.257 498.473 107.446C498.473 90.0669 487.246 82.0791 473.861 82.0791C470.191 82.0791 467.493 82.8347 464.254 84.3459L465.766 67.3987H494.802V54.0137H452.057L449.898 92.8735L457.13 97.623C461.772 94.6006 464.362 93.4132 469.112 93.4132C477.208 93.4132 482.605 98.5945 482.605 107.878C482.605 117.269 476.776 122.558 468.464 122.558C461.016 122.558 455.403 118.888 450.869 114.462L443.529 124.609C449.466 130.546 457.886 135.511 470.515 135.511Z" fill="#ED783F"/>
<path d="M1.148 224H7.378V222.334H5.432V213.626H3.906C3.248 214.046 2.534 214.312 1.498 214.508V215.782H3.374V222.334H1.148V224ZM15.0901 212.338V223.132C15.0901 223.398 14.9781 223.496 14.6701 223.496C14.3621 223.51 13.3261 223.51 12.4161 223.468C12.6681 223.93 12.9761 224.714 13.0741 225.204C14.4321 225.204 15.3841 225.148 16.0421 224.882C16.6581 224.616 16.8961 224.154 16.8961 223.132V212.338H15.0901ZM18.4221 215.992C19.5281 218.036 20.5921 220.668 20.8721 222.362L22.6921 221.648C22.3421 219.898 21.1941 217.364 20.0601 215.376L18.4221 215.992ZM11.4221 215.53C11.1281 217.35 10.4281 219.8 9.30814 221.214C9.74214 221.41 10.5121 221.802 10.9321 222.082C12.0941 220.542 12.8501 217.938 13.3261 215.852L11.4221 215.53ZM27.3821 214.48V216.944H26.0941V214.48H27.3821ZM26.0941 221.032V218.4H27.3821V221.032H26.0941ZM28.9361 212.996H24.5541V223.748H26.0941V222.516H28.9361V212.996ZM29.7481 221.34C30.3221 222.068 31.0361 223.09 31.3581 223.692L32.8141 222.838C32.4641 222.222 31.7081 221.27 31.1341 220.598L29.7481 221.34ZM37.1261 215.096V213.64H33.9761V212.142H32.3381V213.64H29.1881V215.096H32.3381V216.426H29.6361V217.868H34.1021V218.96H29.2021V220.402H34.1021V223.412C34.1021 223.608 34.0321 223.664 33.8081 223.664C33.5981 223.664 32.8281 223.664 32.1561 223.636C32.3661 224.084 32.6181 224.742 32.6741 225.204C33.7101 225.204 34.4801 225.162 35.0121 224.924C35.5721 224.672 35.7261 224.252 35.7261 223.454V220.402H37.0701V218.96H35.7261V217.868H36.7481V216.426H33.9761V215.096H37.1261ZM46.1981 219.212V216.202H49.3621V219.212H46.1981ZM41.2841 219.212V216.202H44.4341V219.212H41.2841ZM46.1981 214.564V212.142H44.4341V214.564H39.6041V221.62H41.2841V220.85H44.4341V225.218H46.1981V220.85H49.3621V221.55H51.1121V214.564H46.1981ZM64.1881 214.9C63.8521 216.16 63.1941 217.812 62.6341 218.862L64.0901 219.492C64.6781 218.512 65.4201 216.958 66.0221 215.586L64.1881 214.9ZM57.2581 218.806C57.0061 217.728 56.3901 215.964 55.9001 214.634L54.2481 215.208C54.7101 216.594 55.2701 218.428 55.4941 219.52L57.2581 218.806ZM59.1061 212.24C59.0641 217.126 59.3721 221.62 53.5621 223.818C54.0101 224.182 54.5141 224.798 54.7241 225.232C57.5941 224.07 59.1341 222.334 59.9741 220.276C61.0381 222.684 62.6761 224.294 65.4761 225.106C65.7141 224.616 66.2041 223.902 66.5821 223.538C63.1941 222.768 61.4861 220.682 60.6881 217.602C60.9541 215.894 60.9681 214.088 60.9821 212.24H59.1061ZM70.3201 222.306V219.562H72.5461V222.306H70.3201ZM72.5461 218.12H70.3201V215.852H72.5461V218.12ZM76.9981 214.298C77.2081 213.71 77.3901 213.122 77.5441 212.52L75.9481 212.156C75.5421 213.794 74.8701 215.488 74.0581 216.664V214.396H71.8881C72.1261 213.794 72.3781 213.094 72.6161 212.394L70.7961 212.142C70.7401 212.8 70.5721 213.696 70.3901 214.396H68.8081V224.798H70.3201V223.776H74.0581V217.238C74.4361 217.49 74.9121 217.812 75.1361 218.022C75.5701 217.42 76.0041 216.65 76.3681 215.81H79.3641C79.2101 220.752 79.0281 222.852 78.6221 223.3C78.4401 223.482 78.2861 223.538 78.0061 223.538C77.6421 223.538 76.8161 223.538 75.9201 223.454C76.2141 223.916 76.4381 224.616 76.4661 225.078C77.2921 225.106 78.1321 225.12 78.6641 225.05C79.2241 224.952 79.6161 224.798 80.0081 224.28C80.5821 223.538 80.7361 221.312 80.9181 215.054C80.9321 214.858 80.9321 214.298 80.9321 214.298H76.9981ZM78.6081 220.682C78.1741 219.87 77.2501 218.54 76.5501 217.574L75.2481 218.316C75.9341 219.338 76.8021 220.71 77.1941 221.55L78.6081 220.682ZM87.1201 218.008L85.9861 218.33V216.314H87.2601V214.788H85.9861V212.156H84.4741V214.788H83.0041V216.314H84.4741V218.736C83.8441 218.89 83.2561 219.044 82.7801 219.142L83.1441 220.738C83.5501 220.626 84.0121 220.5 84.4741 220.36V223.454C84.4741 223.636 84.4041 223.692 84.2361 223.692C84.0681 223.706 83.5781 223.706 83.0741 223.678C83.2701 224.126 83.4521 224.812 83.4941 225.218C84.4181 225.232 85.0061 225.176 85.4401 224.91C85.8601 224.644 85.9861 224.224 85.9861 223.454V219.912C86.4341 219.786 86.8821 219.646 87.3301 219.506L87.1201 218.008ZM89.5141 214.424H87.4421V215.922H89.5141V217.364H87.5681V218.82H89.5001C89.4861 219.268 89.4581 219.716 89.4021 220.15C88.3941 220.472 87.4281 220.766 86.7141 220.948L87.3441 222.39C87.8621 222.194 88.4221 221.984 88.9821 221.746C88.6321 222.642 88.0441 223.44 87.0781 224.112C87.4141 224.364 87.9881 224.882 88.2681 225.218C90.7041 223.468 90.9981 220.85 90.9981 218.036V212.142H89.5141V214.424ZM95.9681 220.36H93.5461V218.82H95.5901V217.364H93.5461V215.922H95.7301V214.424H93.5461V212.142H91.9781V225.204H93.5461V221.858H95.9681V220.36ZM110.192 212.562H108.624V214.284H107.308V212.156H105.838V214.284H104.536V212.562H103.052V215.628H110.192V212.562ZM101.008 222.068H100V218.554H101.008V222.068ZM102.24 223.524V217.098H100.07C100.392 216.188 100.63 215.236 100.826 214.27H102.548V212.758H97.7881V214.27H99.2861C98.9221 216.118 98.3481 217.84 97.4801 218.988C97.7041 219.478 97.9981 220.528 98.0541 220.976C98.2501 220.738 98.4461 220.472 98.6281 220.206V224.56H100V223.524H102.24ZM106.258 220.906C105.978 220.402 105.404 219.548 104.984 218.904L104.354 219.282V219.016V217.658H110.528V216.272H102.884V219.016C102.884 220.598 102.786 222.824 101.792 224.42C102.142 224.574 102.8 224.994 103.066 225.246C103.948 223.86 104.242 221.83 104.326 220.136C104.662 220.682 104.984 221.256 105.152 221.634L106.258 220.906ZM108.904 221.522C109.394 221.06 109.982 220.332 110.64 219.702L109.408 218.82C109.086 219.422 108.484 220.29 108.036 220.822C107.952 220.626 107.882 220.416 107.812 220.206C107.882 219.59 107.924 218.904 107.952 218.19H106.51C106.412 220.962 106.188 222.894 103.836 224C104.186 224.266 104.606 224.84 104.774 225.218C106.132 224.518 106.916 223.566 107.336 222.348C107.938 223.538 108.75 224.518 109.786 225.134C110.01 224.756 110.43 224.224 110.766 223.958C109.52 223.356 108.624 222.208 108.05 220.864L108.904 221.522ZM121.7 213.878H115.89V213.43H121.7V213.878ZM121.7 215.166H115.89V214.704H121.7V215.166ZM123.38 212.562H114.28V216.02H123.38V212.562ZM125.2 216.44H112.53V217.63H125.2V216.44ZM115.596 220.738V220.248H118.032V220.738H115.596ZM115.596 218.932H118.032V219.422H115.596V218.932ZM122.078 219.422H119.628V218.932H122.078V219.422ZM122.078 220.738H119.628V220.248H122.078V220.738ZM119.628 223.664V223.16H123.968V222.082H119.628V221.634H123.702V218.05H114.028V221.634H118.032V222.082H113.748V223.16H118.032V223.664H112.502V224.868H125.228V223.664H119.628ZM130.954 221.802C131.178 222.698 131.318 223.902 131.276 224.658L132.704 224.49C132.704 223.706 132.564 222.53 132.298 221.634L130.954 221.802ZM133.054 221.676C133.348 222.46 133.656 223.51 133.74 224.196L135.07 223.846C134.972 223.188 134.65 222.152 134.328 221.382L133.054 221.676ZM136.05 215.908C135.966 216.286 135.882 216.65 135.798 216.972H133.096C133.306 216.622 133.488 216.272 133.67 215.908H136.05ZM136.974 218.4C136.904 218.792 136.82 219.156 136.736 219.492H131.318C131.626 219.142 131.906 218.778 132.186 218.4H136.974ZM139.788 219.492H138.234C138.43 218.736 138.612 217.798 138.766 216.972H137.31C137.492 216.202 137.702 215.236 137.87 214.41H134.342C134.58 213.794 134.804 213.164 135 212.534L133.292 212.142C133.096 212.898 132.844 213.668 132.522 214.41H130.772L131.864 213.962C131.584 213.444 130.996 212.674 130.492 212.142L128.994 212.73C129.428 213.234 129.904 213.906 130.17 214.41H127.44V215.908H131.808C130.674 217.994 129.022 219.814 126.782 220.948C127.076 221.326 127.482 221.984 127.678 222.404C128.154 222.138 128.616 221.858 129.036 221.55C128.784 222.572 128.336 223.594 127.664 224.252L128.952 225.162C129.778 224.294 130.198 222.992 130.478 221.788L129.274 221.382C129.47 221.242 129.666 221.074 129.862 220.92H138.024C137.856 222.6 137.66 223.356 137.422 223.594C137.282 223.734 137.142 223.748 136.918 223.748C136.638 223.762 136.05 223.748 135.448 223.692C135.7 224.112 135.882 224.742 135.91 225.204C136.624 225.232 137.282 225.232 137.688 225.176C138.15 225.12 138.472 225.008 138.808 224.644C139.256 224.182 139.508 222.964 139.746 220.136L139.788 219.492ZM137.198 222.866C137.058 222.348 136.68 221.592 136.302 221.018L135.154 221.41C135.504 221.998 135.854 222.81 135.98 223.3L137.198 222.866ZM142.392 224H148.622V222.334H146.676V213.626H145.15C144.492 214.046 143.778 214.312 142.742 214.508V215.782H144.618V222.334H142.392V224ZM154.318 224.196C156.432 224.196 157.818 222.348 157.818 218.778C157.818 215.208 156.432 213.444 154.318 213.444C152.204 213.444 150.804 215.194 150.804 218.778C150.804 222.348 152.204 224.196 154.318 224.196ZM154.318 222.586C153.422 222.586 152.75 221.69 152.75 218.778C152.75 215.88 153.422 215.04 154.318 215.04C155.214 215.04 155.872 215.88 155.872 218.778C155.872 221.69 155.214 222.586 154.318 222.586ZM160.308 226.982C162.002 226.422 162.954 225.176 162.954 223.538C162.954 222.264 162.422 221.508 161.47 221.508C160.742 221.508 160.14 221.984 160.14 222.726C160.14 223.51 160.756 223.944 161.428 223.944C161.47 223.944 161.512 223.944 161.554 223.944C161.568 224.728 160.966 225.456 159.874 225.862L160.308 226.982ZM168.221 224.196C170.195 224.196 171.861 223.09 171.861 221.186C171.861 219.828 170.965 218.96 169.803 218.638V218.568C170.895 218.134 171.525 217.322 171.525 216.202C171.525 214.438 170.167 213.444 168.165 213.444C166.947 213.444 165.953 213.934 165.057 214.718L166.107 215.978C166.723 215.404 167.325 215.068 168.067 215.068C168.949 215.068 169.453 215.544 169.453 216.356C169.453 217.28 168.837 217.938 166.933 217.938V219.408C169.187 219.408 169.789 220.052 169.789 221.06C169.789 221.998 169.075 222.516 168.025 222.516C167.087 222.516 166.331 222.054 165.715 221.452L164.749 222.754C165.477 223.58 166.583 224.196 168.221 224.196ZM177.641 218.932C178.537 218.932 179.125 219.506 179.125 220.724C179.125 221.998 178.481 222.642 177.711 222.642C176.843 222.642 176.143 221.914 175.947 220.024C176.423 219.24 177.081 218.932 177.641 218.932ZM177.753 224.196C179.517 224.196 181.001 222.852 181.001 220.724C181.001 218.512 179.769 217.476 178.033 217.476C177.361 217.476 176.465 217.896 175.905 218.596C175.989 215.992 176.969 215.096 178.159 215.096C178.761 215.096 179.391 215.432 179.755 215.852L180.847 214.62C180.217 213.976 179.307 213.444 178.033 213.444C175.947 213.444 174.029 215.096 174.029 218.96C174.029 222.614 175.779 224.196 177.753 224.196ZM186.585 218.932C187.481 218.932 188.069 219.506 188.069 220.724C188.069 221.998 187.425 222.642 186.655 222.642C185.787 222.642 185.087 221.914 184.891 220.024C185.367 219.24 186.025 218.932 186.585 218.932ZM186.697 224.196C188.461 224.196 189.945 222.852 189.945 220.724C189.945 218.512 188.713 217.476 186.977 217.476C186.305 217.476 185.409 217.896 184.849 218.596C184.933 215.992 185.913 215.096 187.103 215.096C187.705 215.096 188.335 215.432 188.699 215.852L189.791 214.62C189.161 213.976 188.251 213.444 186.977 213.444C184.891 213.444 182.973 215.096 182.973 218.96C182.973 222.614 184.723 224.196 186.697 224.196ZM203.132 217.042H201.48V216.23H203.132V217.042ZM203.132 219.016H201.48V218.176H203.132V219.016ZM203.132 220.976H201.48V220.136H203.132V220.976ZM200.276 215.012V222.194H204.378V215.012H202.824C202.894 214.746 202.978 214.466 203.048 214.186H204.644V212.87H199.94V214.186H201.536C201.508 214.452 201.48 214.746 201.452 215.012H200.276ZM193.934 214.872V220.724H193.22V214.872H193.934ZM195.124 213.43H192.1V223.202H193.22V222.166H195.124V213.43ZM198.26 222.46V220.486H199.828V216.034H198.848V219.17H198.26V215.18H199.786V213.906H198.26V212.156H197.042V213.906H195.418V215.18H197.042V219.17H196.524V216.034H195.586V220.486H197.042V222.432C197.042 223.006 196.664 223.37 196.398 223.524C196.622 223.79 196.93 224.322 197.042 224.63C197.294 224.378 197.728 224.126 200.066 223.104C199.968 222.81 199.856 222.236 199.814 221.844L198.26 222.46ZM200.92 222.334C200.57 223.034 199.856 223.958 199.156 224.462C199.492 224.658 199.968 225.022 200.22 225.26C200.878 224.728 201.69 223.748 202.138 222.936L200.92 222.334ZM202.46 222.852C202.922 223.58 203.412 224.546 203.608 225.176L204.84 224.56C204.63 223.958 204.112 223.006 203.622 222.334L202.46 222.852ZM210.692 218.694C210.692 219.94 211.714 220.962 212.96 220.962C214.22 220.962 215.228 219.94 215.228 218.694C215.228 217.448 214.22 216.426 212.96 216.426C211.714 216.426 210.692 217.448 210.692 218.694ZM211.7 218.694C211.7 217.994 212.274 217.434 212.96 217.434C213.66 217.434 214.22 217.994 214.22 218.694C214.22 219.394 213.66 219.954 212.96 219.954C212.274 219.954 211.7 219.394 211.7 218.694ZM224.482 224.196C226.4 224.196 228.108 222.866 228.108 220.556C228.108 218.302 226.652 217.266 224.916 217.266C224.44 217.266 224.09 217.364 223.67 217.56L223.866 215.362H227.632V213.626H222.088L221.808 218.666L222.746 219.282C223.348 218.89 223.684 218.736 224.3 218.736C225.35 218.736 226.05 219.408 226.05 220.612C226.05 221.83 225.294 222.516 224.216 222.516C223.25 222.516 222.522 222.04 221.934 221.466L220.982 222.782C221.752 223.552 222.844 224.196 224.482 224.196ZM230.71 224H236.94V222.334H234.994V213.626H233.468C232.81 214.046 232.096 214.312 231.06 214.508V215.782H232.936V222.334H230.71V224ZM239.682 226.982C241.376 226.422 242.328 225.176 242.328 223.538C242.328 222.264 241.796 221.508 240.844 221.508C240.116 221.508 239.514 221.984 239.514 222.726C239.514 223.51 240.13 223.944 240.802 223.944C240.844 223.944 240.886 223.944 240.928 223.944C240.942 224.728 240.34 225.456 239.248 225.862L239.682 226.982ZM246.055 219.744L247.665 217.168C247.959 216.608 248.239 216.034 248.491 215.474H248.547C248.519 216.09 248.477 217.028 248.477 217.63V219.744H246.055ZM248.477 224H250.395V221.312H251.613V219.744H250.395V213.626H247.917L244.053 219.912V221.312H248.477V224ZM256.819 224.196C258.919 224.196 260.305 222.992 260.305 221.424C260.305 220.01 259.521 219.17 258.569 218.652V218.582C259.255 218.092 259.899 217.238 259.899 216.216C259.899 214.564 258.723 213.458 256.889 213.458C255.097 213.458 253.767 214.522 253.767 216.188C253.767 217.294 254.341 218.078 255.139 218.652V218.722C254.173 219.226 253.361 220.094 253.361 221.424C253.361 223.048 254.845 224.196 256.819 224.196ZM257.477 218.078C256.385 217.644 255.587 217.168 255.587 216.188C255.587 215.362 256.147 214.9 256.847 214.9C257.715 214.9 258.219 215.502 258.219 216.342C258.219 216.958 257.981 217.546 257.477 218.078ZM256.875 222.74C255.909 222.74 255.139 222.138 255.139 221.2C255.139 220.43 255.531 219.73 256.091 219.282C257.435 219.828 258.387 220.276 258.387 221.354C258.387 222.25 257.757 222.74 256.875 222.74ZM265.777 224.196C267.891 224.196 269.277 222.348 269.277 218.778C269.277 215.208 267.891 213.444 265.777 213.444C263.663 213.444 262.263 215.194 262.263 218.778C262.263 222.348 263.663 224.196 265.777 224.196ZM265.777 222.586C264.881 222.586 264.209 221.69 264.209 218.778C264.209 215.88 264.881 215.04 265.777 215.04C266.673 215.04 267.331 215.88 267.331 218.778C267.331 221.69 266.673 222.586 265.777 222.586ZM270.787 226.548H272.159L275.631 212.716H274.273L270.787 226.548ZM277.867 224H284.097V222.334H282.151V213.626H280.625C279.967 214.046 279.253 214.312 278.217 214.508V215.782H280.093V222.334H277.867V224ZM289.793 224.196C291.907 224.196 293.293 222.348 293.293 218.778C293.293 215.208 291.907 213.444 289.793 213.444C287.679 213.444 286.279 215.194 286.279 218.778C286.279 222.348 287.679 224.196 289.793 224.196ZM289.793 222.586C288.897 222.586 288.225 221.69 288.225 218.778C288.225 215.88 288.897 215.04 289.793 215.04C290.689 215.04 291.347 215.88 291.347 218.778C291.347 221.69 290.689 222.586 289.793 222.586ZM295.783 226.982C297.477 226.422 298.429 225.176 298.429 223.538C298.429 222.264 297.897 221.508 296.945 221.508C296.217 221.508 295.615 221.984 295.615 222.726C295.615 223.51 296.231 223.944 296.903 223.944C296.945 223.944 296.987 223.944 297.029 223.944C297.043 224.728 296.441 225.456 295.349 225.862L295.783 226.982ZM303.696 224.196C305.67 224.196 307.336 223.09 307.336 221.186C307.336 219.828 306.44 218.96 305.278 218.638V218.568C306.37 218.134 307 217.322 307 216.202C307 214.438 305.642 213.444 303.64 213.444C302.422 213.444 301.428 213.934 300.532 214.718L301.582 215.978C302.198 215.404 302.8 215.068 303.542 215.068C304.424 215.068 304.928 215.544 304.928 216.356C304.928 217.28 304.312 217.938 302.408 217.938V219.408C304.662 219.408 305.264 220.052 305.264 221.06C305.264 221.998 304.55 222.516 303.5 222.516C302.562 222.516 301.806 222.054 301.19 221.452L300.224 222.754C300.952 223.58 302.058 224.196 303.696 224.196ZM313.116 218.932C314.012 218.932 314.6 219.506 314.6 220.724C314.6 221.998 313.956 222.642 313.186 222.642C312.318 222.642 311.618 221.914 311.422 220.024C311.898 219.24 312.556 218.932 313.116 218.932ZM313.228 224.196C314.992 224.196 316.476 222.852 316.476 220.724C316.476 218.512 315.244 217.476 313.508 217.476C312.836 217.476 311.94 217.896 311.38 218.596C311.464 215.992 312.444 215.096 313.634 215.096C314.236 215.096 314.866 215.432 315.23 215.852L316.322 214.62C315.692 213.976 314.782 213.444 313.508 213.444C311.422 213.444 309.504 215.096 309.504 218.96C309.504 222.614 311.254 224.196 313.228 224.196ZM322.06 218.932C322.956 218.932 323.544 219.506 323.544 220.724C323.544 221.998 322.9 222.642 322.13 222.642C321.262 222.642 320.562 221.914 320.366 220.024C320.842 219.24 321.5 218.932 322.06 218.932ZM322.172 224.196C323.936 224.196 325.42 222.852 325.42 220.724C325.42 218.512 324.188 217.476 322.452 217.476C321.78 217.476 320.884 217.896 320.324 218.596C320.408 215.992 321.388 215.096 322.578 215.096C323.18 215.096 323.81 215.432 324.174 215.852L325.266 214.62C324.636 213.976 323.726 213.444 322.452 213.444C320.366 213.444 318.448 215.096 318.448 218.96C318.448 222.614 320.198 224.196 322.172 224.196ZM327.224 217.672H334.406V216.216H327.224V217.672ZM327.224 221.298H334.406V219.828H327.224V221.298ZM339.5 224.196C341.418 224.196 343.126 222.866 343.126 220.556C343.126 218.302 341.67 217.266 339.934 217.266C339.458 217.266 339.108 217.364 338.688 217.56L338.884 215.362H342.65V213.626H337.106L336.826 218.666L337.764 219.282C338.366 218.89 338.702 218.736 339.318 218.736C340.368 218.736 341.068 219.408 341.068 220.612C341.068 221.83 340.312 222.516 339.234 222.516C338.268 222.516 337.54 222.04 336.952 221.466L336 222.782C336.77 223.552 337.862 224.196 339.5 224.196ZM357.734 218.68C357.734 221.676 358.98 223.916 360.492 225.4L361.822 224.812C360.422 223.3 359.316 221.368 359.316 218.68C359.316 215.992 360.422 214.06 361.822 212.548L360.492 211.96C358.98 213.444 357.734 215.684 357.734 218.68ZM369.298 212.338V223.132C369.298 223.398 369.186 223.496 368.878 223.496C368.57 223.51 367.534 223.51 366.624 223.468C366.876 223.93 367.184 224.714 367.282 225.204C368.64 225.204 369.592 225.148 370.25 224.882C370.866 224.616 371.104 224.154 371.104 223.132V212.338H369.298ZM372.63 215.992C373.736 218.036 374.8 220.668 375.08 222.362L376.9 221.648C376.55 219.898 375.402 217.364 374.268 215.376L372.63 215.992ZM365.63 215.53C365.336 217.35 364.636 219.8 363.516 221.214C363.95 221.41 364.72 221.802 365.14 222.082C366.302 220.542 367.058 217.938 367.534 215.852L365.63 215.53ZM381.59 214.48V216.944H380.302V214.48H381.59ZM380.302 221.032V218.4H381.59V221.032H380.302ZM383.144 212.996H378.762V223.748H380.302V222.516H383.144V212.996ZM383.956 221.34C384.53 222.068 385.244 223.09 385.566 223.692L387.022 222.838C386.672 222.222 385.916 221.27 385.342 220.598L383.956 221.34ZM391.334 215.096V213.64H388.184V212.142H386.546V213.64H383.396V215.096H386.546V216.426H383.844V217.868H388.31V218.96H383.41V220.402H388.31V223.412C388.31 223.608 388.24 223.664 388.016 223.664C387.806 223.664 387.036 223.664 386.364 223.636C386.574 224.084 386.826 224.742 386.882 225.204C387.918 225.204 388.688 225.162 389.22 224.924C389.78 224.672 389.934 224.252 389.934 223.454V220.402H391.278V218.96H389.934V217.868H390.956V216.426H388.184V215.096H391.334ZM397.27 218.68C397.27 215.684 396.024 213.444 394.512 211.96L393.182 212.548C394.582 214.06 395.688 215.992 395.688 218.68C395.688 221.368 394.582 223.3 393.182 224.812L394.512 225.4C396.024 223.916 397.27 221.676 397.27 218.68Z" fill="#808080"/>
</svg>
