<svg width="416" height="430" viewBox="0 0 416 430" fill="none" xmlns="http://www.w3.org/2000/svg">
<path d="M199.5 430C309.681 430 399 405.152 399 374.5C399 343.848 309.681 319 199.5 319C89.3192 319 0 343.848 0 374.5C0 405.152 89.3192 430 199.5 430Z" fill="#999999"/>
<path d="M65.3 188.9C59.5 185 52.2 184.1 45.9 181.2C34.3 175.9 26.1 163.2 27.3 150.5C28.5 137.8 39.9 126.5 52.7 126.4C62.1 126.4 70.9 131.7 80.2 131.3C91.1 130.8 100.6 122.7 111.5 122.7C127.9 122.7 138.5 140.1 153.4 146.8C168.7 153.7 187.3 148.3 200 137.3C203.9 133.9 207.5 130 211.8 127.1C219.8 121.9 229.7 120.9 239.3 120.8C252.8 120.8 267.7 123.2 276.5 133.5C282.8 140.9 285 151.4 292.2 158C298.3 163.6 307 165.3 313.8 170C322.6 176 327.6 186.9 327.3 197.5C327 208.1 321.7 218.4 313.8 225.5C301.7 236.3 281.3 239 269.8 227.6C264.6 222.4 261.5 214.9 255.1 211.5C248.5 208 240.4 209.8 233.1 211.5C223.6 213.7 213.7 215.3 204 214.4C194.3 213.4 184.5 209.5 178.1 202.1C170.6 193.4 167.3 179.8 156.3 176.4C149.2 174.2 141.6 177.4 134.7 180.1C127.7 182.8 119.5 185 113.1 181.1C107.7 177.8 105.5 171.2 101.8 166C96.2 158.1 86.5 153.3 76.9 153.6C71.3 153.8 65.2 156.2 63.1 161.4C60.4 168.1 65.5 175 68.8 181.5C72.7 189.2 74.3 198.5 72.7 207C72.2 200 71.8 193.3 65.3 188.9Z" fill="#B6B6B7" stroke="black" stroke-width="2.5" stroke-miterlimit="10"/>
<path d="M99 136.8C101.7 143.8 107.3 149.4 113.8 153.1C120.3 156.8 127.7 158.8 135 160.2C152.9 163.5 171.6 163.5 189.1 158.2C206.2 153 222.5 142.9 240.3 143.9C247.7 144.3 254.9 146.7 261.9 149.4C269 152.2 276.3 155.8 280.4 162.1C282.9 165.9 284.1 170.5 285.1 174.9C286 179 286.8 183.1 287.4 187.2C287.7 189.4 288 191.6 287.6 193.8C286.2 200.6 277.7 204 271.1 201.9C266.8 200.6 263.1 197.5 260.9 193.5C258.5 189.1 258.2 183.8 257 179C253.3 164.6 239.6 152.6 224.8 153.3C214.6 153.8 205.6 159.6 196.3 163.8C185.1 168.9 172.6 171.8 160.4 169.9C154.5 169 148.8 167.1 143 166.3C137.5 165.6 132 166 126.5 165C120.5 163.9 114.8 161 110.3 156.9C105.1 152 101.4 145.4 95.4 141.7C89.3 138 81.3 137.8 75.1 141.3C78.8 135.8 85.8 133.9 92.2 132.5C95.1 131.8 98.3 131.2 100.9 132.7C103.5 134.2 104.2 138.7 101.5 139.8L99 136.8Z" fill="#CECECE"/>
<path d="M196.2 308.5C196.2 307.2 203.3 183.9 203.3 183.9L210.6 184.1L215 310L196.2 308.5Z" fill="#999999" stroke="black" stroke-width="2.5" stroke-miterlimit="10"/>
<path d="M202.7 193.5C202.7 193.5 207.4 203.6 208.1 211C208.8 218.4 209.4 300.6 209.4 300.6L214.7 300.7L210.2 189.8L202.9 189.6L202.7 193.5Z" fill="#808080"/>
<path d="M196.2 308.5C196.2 307.2 203.3 183.9 203.3 183.9L210.6 184.1L215 310L196.2 308.5Z" stroke="black" stroke-width="2.5" stroke-miterlimit="10"/>
<path d="M182.7 299.2C185.3 299.4 242.5 302.2 242.5 302.2L246 371.6L183.5 370L182.7 299.2Z" fill="#B3B3B3" stroke="black" stroke-width="2.5" stroke-miterlimit="10"/>
<path d="M185.3 299.3C185.3 299.4 204.6 300.3 204.6 300.3L203.8 370.5L183.5 370L185.3 299.3Z" fill="#808080" stroke="black" stroke-width="2.5" stroke-miterlimit="10"/>
<path d="M214.472 305.454L211.173 305.369L210.641 326.063L213.94 326.148L214.472 305.454Z" fill="#666666"/>
<path d="M223.273 305.657L219.974 305.572L219.442 326.266L222.741 326.35L223.273 305.657Z" fill="#666666"/>
<path d="M232.074 305.855L228.775 305.77L228.243 326.464L231.542 326.548L232.074 305.855Z" fill="#666666"/>
<path d="M239.374 306.056L236.075 305.972L235.543 326.665L238.842 326.75L239.374 306.056Z" fill="#666666"/>
<path d="M62.2 321.8C62.2 320.5 69.3 197.2 69.3 197.2L76.6 197.4L81 323.3L62.2 321.8Z" fill="#999999" stroke="black" stroke-width="2.5" stroke-miterlimit="10"/>
<path d="M68.9 203L76.7 203.2L78.1 241.9L73 242.3C73 242.3 75.6 228.6 74.2 220C72.8 211.4 68.8 205.1 68.8 205.1L68.9 203Z" fill="#808080"/>
<path d="M62.2 321.8C62.2 320.5 69.3 197.2 69.3 197.2L76.6 197.4L81 323.3L62.2 321.8Z" stroke="black" stroke-width="2.5" stroke-miterlimit="10"/>
<path d="M80.9737 197.595L66.2781 197.218L66.1291 203.016L80.8247 203.394L80.9737 197.595Z" fill="#999999" stroke="black" stroke-width="2.5" stroke-miterlimit="10"/>
<path d="M170.2 121.8C167.4 115.9 163.1 110.9 159.8 105.3C153.5 94.2999 151.9 80.4999 156.5 68.6999C161 56.8999 171.9 47.4999 184.4 45.5999C195.8 43.8999 209.2 47.6999 217.9 39.9999C224.9 33.6999 225.2 22.5999 231.2 15.3999C237.7 7.59993 249.3 6.39992 259.3 7.59992C269.4 8.79992 279.5 11.6999 289.5 9.89993C296.1 8.69993 302.1 5.59992 308.5 3.59992C314.9 1.59992 322.2 0.799924 328 4.09992C332.8 6.89992 336 12.1999 341.2 14.0999C346.3 15.9999 352 14.0999 357.4 13.8999C373.1 13.3999 386.4 28.1999 388.3 43.7999C390.2 59.3999 383.2 74.8999 373.8 87.4999C366.8 96.7999 358 105.2 347.4 110C336.8 114.8 323.9 115.6 313.5 110.4C304.7 106 298.4 97.8999 293.3 89.4999C290.7 85.2999 288.2 80.7999 284.2 77.8999C275.8 71.6999 263.9 74.3999 254.2 78.1999C244.4 81.8999 233.9 86.4999 223.9 83.3999C219.8 82.0999 216.3 79.5999 212.5 77.6999C206 74.3999 198.7 72.6999 191.4 72.7999C182.6 72.8999 172.9 76.5999 169.8 84.7999C167.2 91.5999 169.9 99.0999 171.8 106.1C174.6 116.4 175.5 127.1 174.6 137.7C174.2 142.9 172.9 149.9 167.7 152.3C165.7 146 169.2 143 171.1 137.8C173.3 132.5 172.8 127.3 170.2 121.8Z" fill="#B6B6B7" stroke="black" stroke-width="2.5" stroke-miterlimit="10"/>
<path d="M204.1 167.2C203.3 158.9 202.7 149.6 208 143.1C213.8 136 224.9 134.6 229.9 126.9C231.8 123.9 232.6 120.4 233.7 117C236.6 107.9 242.3 99.2 251 95.5C260.9 91.2 272.4 94 282.9 96.5C285.1 97 287.6 97.6 289.7 96.6C291.3 95.9 292.5 94.5 293.6 93.2C305 80.1 322.6 72.7 339.9 73.7C357.2 74.7 373.8 84.1 383.6 98.4C384.8 100.1 385.9 101.9 387.5 103.2C389.1 104.5 391.2 105.2 393.1 106.1C403.1 110.4 411.2 119.4 413.4 130.1C415.6 140.8 411.4 152.7 402.3 158.8C393.3 164.9 379.8 163.9 372.4 155.9C372.3 161.8 365 164.4 359.1 165.1C341.4 167.1 321.9 166 308.4 154.4C301.7 148.6 296.9 140.7 289.4 136C279.6 142.3 266.6 143.1 256.1 138.1C254.8 137.5 253.5 136.8 252.1 136.7C246.9 136.4 245.4 143.4 242.2 147.5C234.7 157.2 215.5 150.6 209.4 161.3C205.1 168.8 211.7 178.4 208 185.3C204 180.9 204.6 172.9 204.1 167.2Z" fill="#9D9FA0" stroke="black" stroke-width="2.5" stroke-miterlimit="10"/>
<path d="M107.3 244.5L121.3 105.9L139.6 106.3L143 245.2L107.3 244.5Z" fill="#CCCCCC"/>
<path d="M143 245.2L139.6 106.4L121.3 105.9L120.8 110.4C123.6 112.7 125.6 116.3 127 119.7C129.1 124.8 130.7 130.2 131.8 135.6C133.2 143 133.7 150.6 134 158.1C135.2 187.1 134.5 216.1 131.9 244.9L143 245.2Z" fill="#B3B3B3"/>
<path d="M151 245.6L164.4 133.2L182.6 133.7L186.7 246.3L151 245.6Z" fill="#999999" stroke="black" stroke-width="2.5" stroke-miterlimit="10"/>
<path d="M164.1 142.5C164.1 142.5 170 143.9 173 158.8C178.3 184.8 179.7 246.2 179.7 246.2L186.5 241.9L182.5 139.7L163.7 139.2L164.1 142.5Z" fill="#808080"/>
<path d="M88.4 243.8C86.9 244 46.9 252.5 46.9 252.5L49.6 368.7L90.2 369.2L88.4 243.8Z" fill="#999999" stroke="black" stroke-width="2.5" stroke-miterlimit="10"/>
<path d="M183.5 370L90.2 369.2L88.4 243.8L186.7 246.3L183.5 370Z" fill="#CCCCCC" stroke="black" stroke-width="2.5" stroke-miterlimit="10"/>
<path d="M112.7 368.5V329.6C112.7 329.6 162.2 330.2 161.9 330.9C161.6 331.5 156.8 369.1 156.8 369.1L112.7 368.5Z" fill="#666666"/>
<path d="M161.9 330.9L161.1 369.2L156.9 369.1L157.7 334.2L112.9 333.3L112.7 329.6L161.9 330.9Z" fill="#333333"/>
<path d="M136.4 332.3C135.9 332.6 135.8 368.8 135.8 368.8L138.5 368.9L139.2 332.3H136.4Z" fill="#333333"/>
<path d="M98.5 257.4C98.5 258 98.7 304.9 98.7 304.9L118.1 305.2L117.9 258.7L98.5 257.4Z" fill="#999999"/>
<path d="M114 178.1L112.9 188.8L141.6 189.5L141.4 178.8L114 178.1Z" fill="#D35A46"/>
<path d="M142.1 210.4L110.8 209.6L109.7 220.3L142.4 221.2L142.1 210.4Z" fill="#D35A46"/>
<path d="M117.2 146.5L116.1 157.3L140.9 157.9L140.6 147.1L117.2 146.5Z" fill="#D35A46"/>
<path d="M120.4 115L119.3 125.8L140.1 126.3L139.8 115.5L120.4 115Z" fill="#D35A46"/>
<path d="M250.1 18.6C260.2 18.3 269.3 25.9 279.5 25.7C289.3 25.5 297.9 18.1 307.6 18.5C312.6 18.7 317.5 21 320.7 24.7C322.1 26.4 323.3 28.3 323.8 30.5C324.6 34.4 323 38.6 320.2 41.5C317.4 44.4 313.6 46.1 309.8 47.1C306 48.1 301.9 48.4 298.1 47.5C293.6 46.5 289.7 43.8 285.8 41.3C280.6 37.9 275.1 34.7 269.1 33.1C263.1 31.5 256.4 31.7 251 34.8C247.3 36.9 244.5 40.3 241.6 43.4C235.5 50 228.3 56.3 219.4 57.7C212.4 58.8 205.3 56.7 198.1 56.2C191 55.7 182.8 57.3 179.2 63.5C181.4 57 189 54.2 195.8 53.2C205.4 51.8 218.6 53.2 227 47.6C230.6 45.2 230.6 40.4 231.3 36.5C232 32.4 233.7 28.6 236.4 25.5C239.9 21.5 244.9 18.8 250.1 18.6Z" fill="#CECECE"/>
<path d="M273.8 128.9C278.9 128.1 283.6 125.6 288.5 124.2C292.8 122.9 297.4 122.4 301.7 123.6C314 126.9 320.1 142.2 332.3 145.9C338 147.6 344.3 146.4 349.7 143.9C355.1 141.4 359.8 137.6 364.5 133.8C364 136.6 367 138.8 369.6 139.8C375 142 381.1 142.9 386.6 140.9C392.1 138.9 396.5 133.5 396 127.7C399.6 132.9 399.5 140.3 395.8 145.4C392.1 150.5 385.1 152.9 379.1 151.2C376.1 150.3 373.4 148.6 370.6 147.2C369.9 146.8 369.1 146.5 368.3 146.5C367.4 146.5 366.5 147.1 365.7 147.6C357.3 152.8 347 155.1 337.2 153.9C327.3 152.7 317.9 148.1 311 141C308.2 138.1 305.7 134.9 302.2 132.9C297.4 130.1 291.4 130.3 285.9 131.1C280.4 131.9 274.9 133.3 269.3 132.8C264.9 132.4 260.7 130.7 256.3 129.8C252 128.9 247.1 128.8 243.4 131.2C239.4 133.8 237.5 139.2 238.9 143.7C236.4 138.1 237.8 131 242.4 126.8C246.7 122.9 253.3 122.1 258.6 124.3C264.2 126.5 267.3 129.9 273.8 128.9Z" fill="#8B8B8C"/>
<path d="M127.5 258.6C127.5 259.2 127.7 306.1 127.7 306.1L147.1 306.4L146.9 259.9L127.5 258.6Z" fill="#999999"/>
<path d="M156.9 260.4C156.9 261 157.1 307.9 157.1 307.9L176.5 308.2L176.3 261.7L156.9 260.4Z" fill="#999999"/>
<path d="M151 245.6L164.4 133.2L182.6 133.7L186.7 246.3L151 245.6Z" stroke="black" stroke-width="2.5" stroke-miterlimit="10"/>
<path d="M186.816 130.957L159.524 130.256L159.298 139.053L186.59 139.754L186.816 130.957Z" fill="#999999" stroke="black" stroke-width="2.5" stroke-miterlimit="10"/>
<path d="M215.079 184.196L200.383 183.819L200.234 189.617L214.93 189.995L215.079 184.196Z" fill="#999999" stroke="black" stroke-width="2.5" stroke-miterlimit="10"/>
<path d="M183.5 370L90.2 369.2L88.4 243.8L186.7 246.3L183.5 370Z" stroke="black" stroke-width="2.5" stroke-miterlimit="10"/>
<path d="M107.3 244.5L121.3 105.9L139.6 106.3L143 245.2L107.3 244.5Z" stroke="black" stroke-width="2.5" stroke-miterlimit="10"/>
<path d="M41.4 256.5L85.9 247.8L193.7 252.5L196.5 242.4L82.7 236L38.1 250.4L41.4 256.5Z" fill="#666666" stroke="black" stroke-width="2.5" stroke-miterlimit="10"/>
<path d="M300.653 382.676C300.653 382.676 296.448 380.684 289.698 381.902C282.394 383.23 274.426 392.857 274.426 392.857C274.426 392.857 275.422 400.604 280.513 394.849C286.489 387.988 289.698 385.443 293.682 385.332C297.997 385.111 299.989 388.32 299.989 388.32C299.989 388.32 307.072 387.988 300.653 382.676Z" fill="#ED783F"/>
<path d="M276.418 397.837C273.984 397.173 273.43 393.411 273.43 392.968L273.32 392.525L273.652 392.193C273.984 391.751 281.951 382.234 289.587 380.906C296.559 379.688 300.985 381.68 301.207 381.791L301.317 381.902L301.428 382.012C303.863 384.115 304.859 385.775 304.416 387.214C303.752 389.206 300.764 389.427 300.211 389.427H299.657L299.325 388.874C299.215 388.763 297.555 386.218 293.903 386.328C290.362 386.439 287.374 388.652 281.509 395.513C280.291 396.841 279.185 397.727 278.189 397.948C277.303 398.059 276.861 397.948 276.418 397.837ZM293.571 384.226C297.333 384.115 299.547 386.218 300.432 387.214C301.207 387.103 302.203 386.771 302.313 386.439C302.424 386.107 302.092 385.222 300.1 383.562C299.436 383.23 295.563 381.902 289.808 382.898C283.722 384.004 276.971 391.419 275.422 393.189C275.644 394.296 276.197 395.735 276.971 395.956C277.525 396.177 278.521 395.513 279.627 394.185C285.05 387.988 288.259 385.332 291.69 384.558C292.243 384.336 292.907 384.336 293.571 384.226Z" fill="#231916"/>
<path d="M287.374 342.395C287.374 342.395 276.086 353.351 268.34 342.727C262.696 334.87 266.348 327.456 266.348 327.456C266.348 327.456 270.553 324.8 268.45 320.595C267.565 318.824 276.75 319.267 274.758 325.574C274.094 327.788 270.442 329.558 270.442 329.558C270.442 329.558 270.996 338.411 274.316 340.625C277.635 342.727 280.845 339.407 280.845 339.407C280.845 339.407 288.148 336.419 287.374 342.395Z" fill="#ED783F"/>
<path d="M271.77 347.375C270.11 346.49 268.672 345.162 267.454 343.391C261.368 335.091 265.131 327.234 265.352 327.013L265.463 326.681L265.684 326.46C265.684 326.46 266.569 325.906 267.233 324.911C268.008 323.693 268.008 322.476 267.344 321.037C267.012 320.373 267.123 319.599 267.676 319.156C268.782 318.16 271.66 318.381 273.652 319.599C275.754 320.927 276.529 323.251 275.754 325.906C275.201 327.898 272.766 329.558 271.549 330.222C271.881 333.542 272.877 338.411 274.869 339.629C277.414 341.178 279.849 338.633 279.959 338.522L280.181 338.301L280.402 338.19C280.845 337.969 284.829 336.419 287.153 338.19C288.259 339.075 288.702 340.514 288.48 342.395V342.838L288.148 343.059C287.927 343.281 282.062 348.814 275.644 348.26C274.205 348.371 272.988 347.928 271.77 347.375ZM267.233 328.23C266.68 329.558 264.577 335.534 269.225 342.063C271.106 344.609 273.32 346.047 275.754 346.268C280.402 346.711 285.05 342.949 286.157 341.953C286.267 341.067 286.046 340.514 285.714 340.182C284.829 339.518 282.615 339.961 281.398 340.403C279.959 341.842 276.75 343.613 273.652 341.621C269.889 339.297 269.225 330.665 269.225 329.669V328.894L269.889 328.562C271.106 327.898 273.209 326.46 273.541 325.243C273.984 323.693 273.762 322.587 272.766 321.812C271.77 321.037 270.442 320.816 269.668 320.816C270.996 324.247 268.782 327.013 267.233 328.23Z" fill="#231916"/>
<path d="M309.396 299.569C311.609 299.348 310.281 286.732 307.846 279.096C305.412 271.461 303.641 269.247 302.203 269.579C300.764 269.911 307.182 299.79 309.396 299.569Z" fill="#5CB431"/>
<path d="M308.732 300.565C307.625 299.901 306.74 297.577 305.523 293.372C304.416 289.72 303.309 284.74 302.313 280.092C301.76 277.215 301.317 274.67 301.096 272.899C300.764 270.465 300.653 268.915 301.981 268.583C304.416 267.919 306.408 270.686 308.953 278.764C311.056 285.072 312.826 297.024 310.945 299.79C310.502 300.454 309.949 300.676 309.617 300.676C309.174 300.786 308.953 300.676 308.732 300.565ZM303.199 271.239C303.309 273.12 303.973 277.436 305.633 284.519C307.182 291.491 308.51 295.585 309.285 297.466C309.396 296.36 309.506 294.478 309.174 291.159C308.732 287.064 307.846 282.637 306.74 279.428C304.969 274.227 303.863 272.125 303.199 271.239Z" fill="#231916"/>
<path d="M311.609 299.458C313.38 299.348 314.929 278.322 315.704 271.903C316.589 265.485 318.138 260.837 316.589 260.173C315.04 259.62 311.498 270.022 310.392 279.318C309.396 288.835 309.838 299.569 311.609 299.458Z" fill="#5CB431"/>
<path d="M310.834 300.343C310.613 300.233 310.502 300.122 310.392 300.011C308.289 297.798 308.621 286.289 309.396 279.207C309.838 275.223 310.834 270.575 312.052 266.702C313.38 262.497 314.597 260.062 315.703 259.287C316.146 258.956 316.699 258.956 317.142 259.066C319.134 259.841 318.691 262.386 317.806 266.591C317.474 268.141 317.142 270.022 316.921 271.903C316.699 273.563 316.478 276.219 316.146 279.207C314.265 297.798 313.601 300.343 311.72 300.454C311.388 300.565 311.056 300.565 310.834 300.343ZM316.146 262.165C314.818 264.821 312.494 271.903 311.609 279.428C311.166 283.523 310.945 288.06 311.056 291.822C311.166 294.257 311.277 295.917 311.498 297.024C312.384 293.372 313.269 284.408 313.822 279.096C314.154 275.998 314.376 273.342 314.597 271.682C314.818 269.69 315.261 267.809 315.482 266.259C315.814 264.821 316.146 263.271 316.146 262.165Z" fill="#231916"/>
<path d="M319.466 277.547C318.47 277.215 315.261 283.633 314.376 287.728C313.49 291.822 311.498 300.565 312.605 301.007C313.712 301.45 322.233 278.653 319.466 277.547Z" fill="#5CB431"/>
<path d="M311.941 302.003C310.834 301.45 310.945 299.79 311.388 296.802C311.72 294.589 312.273 291.822 312.826 289.609C312.937 288.834 313.158 288.171 313.269 287.507C313.933 284.076 316.699 277.658 318.581 276.551C319.134 276.219 319.577 276.33 319.798 276.44C321.458 277.104 321.237 279.76 320.683 282.527C320.241 284.961 319.245 288.171 318.027 291.601C317.142 294.146 316.146 296.692 315.372 298.573C314.265 301.007 313.49 302.446 312.273 302.003C312.162 302.114 312.052 302.003 311.941 302.003ZM318.802 279.76C318.47 280.313 318.027 281.088 317.474 282.195C316.478 284.297 315.704 286.4 315.372 288.06C315.261 288.613 315.15 289.388 314.929 290.162C314.597 291.712 314.044 294.368 313.712 296.581C314.486 294.7 315.372 292.265 316.368 289.498C318.027 284.629 318.691 281.42 318.802 279.76Z" fill="#231916"/>
<path d="M306.629 295.806C306.408 302.225 305.191 315.726 294.124 321.037C278.521 328.452 268.45 343.723 270.885 361.872C273.32 380.021 288.923 390.202 312.716 390.755C336.066 391.308 351.669 377.476 353.772 359.216C355.763 340.957 344.476 329.116 331.528 321.923C318.581 314.73 317.031 296.36 317.031 296.36C316.921 295.917 316.368 295.585 315.925 295.585C315.482 295.585 314.929 295.806 314.597 296.138C314.154 296.581 313.822 297.134 313.269 297.134C312.273 297.245 311.609 295.806 310.613 295.917C310.17 296.028 309.838 296.36 309.617 296.692C309.285 297.024 309.396 297.356 308.953 297.356C308.621 297.356 308.289 296.913 308.068 296.692C307.625 296.47 307.736 295.585 306.629 295.806Z" fill="#ED783F"/>
<path d="M286.488 385.997C276.971 380.906 271.106 372.717 269.668 362.093C268.45 353.13 270.221 344.498 274.758 336.973C278.963 329.78 285.493 324.025 293.571 320.152C301.096 316.5 305.08 308.422 305.412 295.917V295.032L306.297 294.81C307.404 294.589 308.289 295.032 308.732 296.028C309.064 295.696 309.506 295.142 310.281 295.032C311.277 294.81 312.052 295.474 312.494 295.806C312.605 295.917 312.826 296.028 312.937 296.138C313.048 296.028 313.158 295.917 313.269 295.806C313.38 295.696 313.49 295.585 313.601 295.474C314.154 294.921 314.929 294.589 315.703 294.589C316.699 294.589 317.585 295.253 317.917 296.138V296.249V296.36C317.917 296.581 319.577 314.176 331.86 321.037C352.997 332.768 355.985 348.371 354.768 359.437C353.772 368.844 349.124 377.144 341.82 383.009C334.184 389.095 324.003 392.194 312.605 391.972C302.203 391.64 293.35 389.648 286.488 385.997ZM307.625 298.13C307.293 302.335 306.629 305.987 305.523 309.197C303.309 315.283 299.657 319.599 294.567 322.033C286.931 325.685 280.734 331.218 276.639 337.969C272.434 345.051 270.774 353.24 271.881 361.651C272.988 370.282 277.193 377.144 284.275 381.902C291.247 386.661 301.096 389.316 312.605 389.538C323.561 389.759 333.188 386.882 340.381 381.017C347.242 375.594 351.448 367.737 352.444 358.995C354.546 340.182 341.82 329.005 330.754 322.808C325.221 319.709 320.794 314.176 318.138 306.762C316.367 301.893 315.814 297.798 315.703 296.692C315.593 296.692 315.372 296.802 315.261 296.913C315.15 297.024 315.15 297.134 315.04 297.134C314.708 297.466 314.154 298.13 313.38 298.241C312.384 298.352 311.609 297.798 311.166 297.356C311.056 297.245 310.834 297.134 310.724 297.024C310.613 297.134 310.502 297.245 310.392 297.356C310.392 297.356 310.392 297.356 310.392 297.466C309.949 298.352 309.285 298.462 308.732 298.462C308.289 298.573 307.957 298.352 307.625 298.13Z" fill="#231916"/>
<path d="M342.595 345.383C342.263 341.067 341.045 337.858 338.279 334.538C336.729 332.546 334.074 331.218 331.639 329.89C330.422 329.227 329.204 328.563 328.098 327.899C327.544 327.567 327.102 327.235 326.548 326.903C323.782 325.132 320.905 323.361 318.47 320.927C315.15 317.496 313.601 313.18 314.265 309.418L316.478 309.75C315.925 312.848 317.363 316.39 320.13 319.267C322.343 321.48 325.11 323.251 327.766 324.911C328.319 325.243 328.762 325.575 329.315 325.907C330.311 326.571 331.528 327.124 332.746 327.788C335.512 329.226 338.279 330.665 340.16 333.1C343.148 336.862 344.587 340.403 344.919 345.273L342.595 345.383Z" fill="#231916"/>
<path d="M315.925 387.103L315.814 384.779C323.45 384.226 330.864 380.242 335.623 373.824C340.935 366.852 343.037 359.438 342.152 351.691L344.476 351.359C345.472 359.77 343.148 367.737 337.504 375.152C332.192 382.123 324.225 386.55 315.925 387.103Z" fill="#231916"/>
<path d="M286.599 367.516C284.386 363.2 283.501 357.999 283.833 352.687C284.165 348.039 285.493 343.17 287.816 338.19C288.702 336.309 289.919 334.096 291.69 332.325L293.239 333.985C291.69 335.424 290.694 337.415 289.919 339.186C287.706 343.834 286.488 348.482 286.157 352.908C285.825 357.888 286.71 362.647 288.591 366.63L286.599 367.516Z" fill="#231916"/>
<path d="M289.808 381.902C284.054 378.914 279.406 373.713 276.971 367.737C274.426 361.54 274.316 354.347 276.418 348.15L278.631 348.925C276.64 354.679 276.75 361.319 279.074 366.963C281.398 372.606 285.825 377.476 291.358 380.242L290.362 382.234C290.14 382.123 290.03 382.013 289.808 381.902Z" fill="#231916"/>
<path d="M298.44 382.345C297.776 382.013 297.112 381.57 296.559 381.127C293.682 379.025 291.468 376.037 290.472 372.606L292.686 371.942C293.571 374.93 295.452 377.476 297.887 379.246C300.432 381.017 303.42 382.013 306.518 381.902L306.629 384.226C303.752 384.337 300.985 383.673 298.44 382.345Z" fill="#231916"/>
<path d="M328.983 355.122C329.536 347.596 326.659 339.961 321.347 334.538L323.007 332.878C328.762 338.743 331.86 347.043 331.307 355.232L328.983 355.122Z" fill="#231916"/>
<path d="M299.657 328.784L298.551 326.792C300.764 325.685 303.641 323.361 304.859 321.701C307.736 317.386 308.4 314.398 307.957 308.311L310.281 308.09C310.834 314.73 310.06 318.16 306.85 323.029C305.08 325.243 301.649 327.677 299.657 328.784Z" fill="#231916"/>
<path d="M296.116 347.928L297.001 345.826C298.661 346.49 300.321 346.932 301.981 347.264L301.539 349.478C299.768 349.256 297.887 348.703 296.116 347.928Z" fill="#231916"/>
<path d="M294.235 355.232C292.464 354.236 291.69 353.019 290.915 351.58C290.804 351.359 290.694 351.138 290.583 350.916L292.575 349.699C292.686 349.92 292.796 350.142 293.018 350.363C294.014 352.134 294.678 353.24 297.555 353.904C300.432 354.568 302.203 354.236 303.973 353.904C304.859 353.683 305.855 353.572 306.85 353.462L307.072 355.785C306.187 355.896 305.301 356.007 304.416 356.228C302.424 356.671 300.321 357.003 297.001 356.228C295.784 355.896 295.01 355.675 294.235 355.232Z" fill="#231916"/>
<path d="M295.825 343.92C296.747 343.593 297.229 342.581 296.902 341.659C296.575 340.738 295.563 340.256 294.642 340.582C293.72 340.909 293.238 341.921 293.565 342.843C293.892 343.765 294.904 344.247 295.825 343.92Z" fill="#231916"/>
<path d="M306.052 346.489C307.029 346.441 307.782 345.611 307.734 344.634C307.686 343.657 306.856 342.904 305.879 342.952C304.902 343 304.149 343.83 304.197 344.807C304.245 345.784 305.076 346.537 306.052 346.489Z" fill="#231916"/>
<path d="M328.098 371.168C328.098 371.168 320.241 377.808 307.957 372.938C298.993 369.397 298.108 361.097 298.108 361.097C298.108 361.097 297.776 355.675 296.006 354.79C291.468 352.576 302.424 348.592 304.195 355.011C304.859 357.224 302.756 360.655 302.756 360.655C302.756 360.655 306.186 366.077 310.17 366.077C314.154 366.077 320.794 367.184 320.794 367.184C320.794 367.184 327.987 367.516 328.098 371.168Z" fill="#ED783F"/>
<path d="M305.633 373.049C297.887 368.954 297.001 361.54 297.001 361.208V361.097C296.891 358.663 296.227 356.118 295.563 355.786C293.682 354.9 293.792 353.683 293.792 353.13C294.124 351.359 296.669 350.363 298.993 350.363C302.203 350.252 304.637 351.912 305.412 354.679C305.965 356.671 304.859 359.327 304.195 360.544C305.301 362.093 307.846 364.971 310.281 364.971C314.154 364.971 320.241 365.967 321.015 366.077C322.122 366.188 329.094 366.631 329.315 371.057V371.61L328.872 371.942C328.54 372.274 320.351 379.025 307.625 373.934C306.961 373.713 306.297 373.381 305.633 373.049ZM299.325 360.987C299.436 361.54 300.432 368.622 308.51 371.832C318.249 375.705 324.999 371.942 326.88 370.614C326.438 369.729 325.221 369.176 324.225 368.844C322.565 368.401 320.905 368.29 320.905 368.29H320.794C320.683 368.29 314.154 367.184 310.392 367.184C305.855 367.184 302.092 361.429 301.981 361.208L301.649 360.655L301.981 360.101C302.645 358.884 303.641 356.56 303.309 355.343C302.756 353.351 301.207 352.908 299.989 352.798C298.108 352.576 296.78 353.351 296.338 353.683C296.448 353.683 296.559 353.794 296.67 353.904H296.78C298.772 355.011 299.215 359.548 299.325 360.987Z" fill="#231916"/>
<path d="M315.703 345.494C315.703 345.494 314.708 350.253 313.048 352.244C311.388 354.236 313.38 356.671 314.708 356.671C316.035 356.782 318.359 355.232 317.695 352.466C317.142 349.699 317.142 347.929 317.142 347.929" fill="white"/>
<path d="M313.38 357.556C312.605 357.114 311.941 356.339 311.498 355.454C310.945 354.126 311.166 352.687 312.052 351.47C313.269 350.031 314.265 346.49 314.486 345.162L316.699 345.605C316.699 345.715 316.478 346.711 316.146 347.929H318.138C318.138 347.929 318.138 349.588 318.691 352.244C319.023 353.794 318.691 355.232 317.695 356.339C316.81 357.335 315.593 357.888 314.486 357.888C314.154 357.888 313.822 357.778 313.38 357.556ZM315.925 348.703C315.482 350.142 314.708 351.912 313.822 353.019C313.38 353.462 313.269 354.015 313.601 354.568C313.933 355.232 314.486 355.564 314.708 355.564C315.04 355.564 315.593 355.343 316.146 354.79C316.478 354.458 316.81 353.683 316.589 352.687C316.146 350.916 316.036 349.478 315.925 348.703Z" fill="#231916"/>
<path d="M325.11 385.886C325.11 385.886 316.81 382.345 312.052 387.324C307.293 392.304 306.297 400.161 306.297 400.161C306.297 400.161 308.4 406.912 311.056 399.719C313.712 392.526 313.269 391.64 316.036 390.534C318.802 389.316 326.438 392.083 326.438 392.083C326.438 392.083 331.528 391.198 325.11 385.886Z" fill="#ED783F"/>
<path d="M308.51 404.034C306.518 404.034 305.523 401.268 305.301 400.383L305.191 400.161V399.94C305.191 399.608 306.297 391.64 311.166 386.55C313.38 384.336 316.478 383.34 320.351 383.672C323.118 384.004 325.331 384.89 325.331 384.89L325.442 385L325.553 385.111C328.43 387.435 329.536 389.427 329.094 390.976C328.651 392.636 326.659 393.079 326.438 393.079H326.216L325.995 392.968C323.229 391.972 318.138 390.644 316.367 391.308C314.708 391.972 314.597 392.304 313.49 395.624C313.158 396.731 312.605 398.169 311.941 399.94C311.388 401.489 310.392 403.481 308.953 403.813C308.953 404.034 308.732 404.034 308.51 404.034ZM326.549 390.976C326.88 390.866 327.323 390.644 327.323 390.423C327.323 390.312 327.544 389.316 324.557 386.771C323.561 386.328 316.699 383.894 312.826 387.988C308.842 392.194 307.625 398.723 307.404 399.94C307.736 400.936 308.4 401.821 308.621 401.932C308.621 401.932 309.285 401.711 310.17 399.276C310.834 397.505 311.277 396.177 311.609 395.071C312.716 391.64 313.158 390.534 315.593 389.538C315.814 389.427 316.036 389.427 316.257 389.316C319.466 388.542 325.11 390.423 326.549 390.976Z" fill="#231916"/>
</svg>
