<svg width="159" height="39" viewBox="0 0 159 39" fill="none" xmlns="http://www.w3.org/2000/svg">
<path d="M21.954 14.224C21.774 13.45 21.378 12.28 21.018 11.362L19.722 11.704C20.064 12.622 20.442 13.846 20.586 14.62L21.954 14.224ZM28.254 14.836H13.8V16.15H28.254V14.836ZM19.398 24.664C19.074 22.594 18.318 19.534 17.616 17.122L16.284 17.446C16.968 19.804 17.724 22.954 17.976 25.006L19.398 24.664ZM23.178 25.78C24.096 23.512 25.176 20.092 25.914 17.41L24.402 17.122C23.826 19.75 22.71 23.476 21.738 25.78H13.026V27.112H28.974V25.78H23.178ZM39.342 13.594V15.934H35.13V13.594H39.342ZM35.13 19.624V17.14H39.342V19.624H35.13ZM37.506 22.288C37.83 22.846 38.208 23.494 38.55 24.124L35.13 25.24V20.83H40.656V12.388H33.798V24.844C33.798 25.528 33.348 25.834 33.042 25.978C33.258 26.32 33.51 26.968 33.6 27.346C33.978 27.058 34.572 26.806 39.108 25.204C39.45 25.87 39.738 26.518 39.936 27.004L41.142 26.338C40.638 25.15 39.558 23.206 38.64 21.748L37.506 22.288ZM48.198 12.496H42.312V27.886H43.626V13.756H46.884V22.792C46.884 23.044 46.794 23.116 46.542 23.116C46.308 23.134 45.48 23.134 44.544 23.098C44.742 23.476 44.886 24.016 44.94 24.376C46.254 24.394 47.064 24.376 47.55 24.142C48.036 23.926 48.198 23.548 48.198 22.792V12.496ZM67.17 11.722C65.082 12.352 61.248 12.784 58.098 12.982C58.242 13.288 58.404 13.756 58.44 14.08C61.68 13.882 65.622 13.486 68.088 12.748L67.17 11.722ZM66.126 18.958C66.918 17.842 67.89 16.06 68.628 14.548L67.368 14.08C66.846 15.43 65.856 17.356 65.1 18.526L66.126 18.958ZM64.002 17.608C63.948 16.744 63.588 15.376 63.102 14.314L61.95 14.53C62.418 15.61 62.778 17.032 62.796 17.896L64.002 17.608ZM60.78 18.094C60.6 17.194 60.042 15.808 59.412 14.764L58.35 15.07C58.944 16.15 59.466 17.554 59.628 18.472L60.78 18.094ZM57.864 20.254L57.684 19.012C57.09 19.21 56.496 19.408 55.902 19.588V16.276H57.828V15.052H55.902V11.452H54.66V15.052H52.41V16.276H54.66V19.966C53.724 20.254 52.86 20.524 52.176 20.704L52.518 22L54.66 21.298V26.32C54.66 26.59 54.57 26.644 54.354 26.644C54.138 26.662 53.436 26.662 52.662 26.644C52.842 27.004 53.004 27.562 53.058 27.868C54.174 27.886 54.858 27.832 55.29 27.634C55.74 27.418 55.902 27.058 55.902 26.32V20.902L57.864 20.254ZM68.592 21.46V20.254H63.984V18.274H62.724V20.254H58.17V21.46H61.86C60.762 23.242 58.962 24.898 57.126 25.744C57.432 25.96 57.828 26.446 58.044 26.788C59.808 25.816 61.554 24.124 62.724 22.216V27.76H63.984V22.198C65.064 24.016 66.684 25.762 68.232 26.734C68.448 26.41 68.844 25.942 69.132 25.726C67.548 24.88 65.838 23.188 64.83 21.46H68.592ZM78.492 16.204H74.982V13.81H78.492V16.204ZM74.982 21.118H78.492V23.332C77.286 23.512 76.08 23.692 74.982 23.836V21.118ZM78.492 19.894H74.982V17.392H78.492V19.894ZM81.048 13.81V12.568H72.318V13.81H73.722V24.016C73.074 24.106 72.48 24.178 71.976 24.232L72.21 25.582C73.92 25.294 76.224 24.952 78.492 24.574V27.832H79.788V13.81H81.048ZM87.276 13.846L87.024 13.9H80.598V15.214H86.664C86.25 17.86 85.476 20.11 84.432 21.946C83.406 20.038 82.686 17.77 82.218 15.286L80.94 15.52C81.534 18.472 82.38 21.082 83.622 23.206C82.542 24.682 81.264 25.798 79.842 26.536C80.13 26.788 80.526 27.274 80.724 27.616C82.092 26.824 83.334 25.762 84.396 24.412C85.368 25.762 86.556 26.86 87.978 27.67C88.194 27.328 88.626 26.824 88.932 26.572C87.438 25.816 86.214 24.664 85.224 23.224C86.664 20.938 87.672 17.95 88.14 14.098L87.276 13.846ZM107.814 12.532H99.03V13.792H107.814V12.532ZM96.024 11.434C95.124 12.712 93.396 14.332 91.902 15.34C92.136 15.592 92.496 16.114 92.694 16.402C94.296 15.268 96.132 13.522 97.302 11.938L96.024 11.434ZM96.762 15.268C95.52 17.302 93.576 19.372 91.722 20.686C91.992 20.956 92.46 21.532 92.658 21.802C93.324 21.28 94.008 20.632 94.692 19.93V27.922H96.024V18.454C96.762 17.572 97.446 16.654 98.004 15.736L96.762 15.268ZM108.336 17.446H98.256V18.724H104.268V26.14C104.268 26.446 104.16 26.518 103.818 26.536C103.476 26.554 102.288 26.554 101.01 26.518C101.208 26.896 101.388 27.454 101.442 27.814C103.206 27.814 104.214 27.814 104.826 27.616C105.42 27.4 105.618 26.986 105.618 26.158V18.724H108.336V17.446ZM113.448 21.082V19.768H115.716V21.082H113.448ZM113.448 17.59H115.716V18.886H113.448V17.59ZM119.28 17.59V18.886H116.922V17.59H119.28ZM119.28 21.082H116.922V19.768H119.28V21.082ZM124.014 15.61C124.05 14.35 124.05 13.018 124.05 11.668H122.79C122.79 13.036 122.79 14.35 122.754 15.61H120.612V16.87H122.718C122.556 20.236 122.07 23.134 120.522 25.258V25.186C119.316 25.33 118.092 25.456 116.922 25.564V24.142H120.45V23.116H116.922V22.018H120.414V16.672H116.922V15.538H120.738V14.494H116.922V13.18C118.236 13.036 119.46 12.874 120.432 12.658L119.766 11.632C117.912 12.046 114.672 12.37 112.008 12.514C112.152 12.784 112.278 13.216 112.332 13.504C113.394 13.468 114.564 13.396 115.716 13.306V14.494H111.828V15.538H115.716V16.672H112.35V22.018H115.716V23.116H112.314V24.142H115.716V25.69C114.24 25.834 112.89 25.96 111.81 26.05L112.008 27.22C114.024 27.004 116.814 26.698 119.532 26.374C119.298 26.59 119.046 26.806 118.758 27.004C119.082 27.22 119.55 27.67 119.748 27.958C122.916 25.582 123.744 21.658 123.96 16.87H126.534C126.354 23.404 126.138 25.78 125.724 26.302C125.544 26.536 125.382 26.59 125.076 26.59C124.734 26.59 123.942 26.572 123.078 26.5C123.276 26.842 123.42 27.4 123.456 27.76C124.284 27.814 125.13 27.832 125.634 27.76C126.174 27.706 126.534 27.562 126.84 27.094C127.452 26.338 127.614 23.836 127.812 16.294C127.812 16.114 127.83 15.61 127.83 15.61H124.014Z" fill="#36563C"/>
<rect x="1" y="1" width="157" height="37" rx="18.5" stroke="#36563C" stroke-width="2"/>
<path d="M138.993 23.0567L140.212 23.3774L142.602 15.2376L143.189 13.2414L141.39 12.7681L140.919 14.7948L138.993 23.0567ZM138.402 27.7404C139.118 27.9288 139.821 27.5348 140.03 26.7418C140.243 25.9294 139.83 25.2209 139.114 25.0326C138.418 24.8494 137.69 25.2576 137.477 26.07C137.268 26.863 137.706 27.5572 138.402 27.7404Z" fill="#36563C"/>
</svg>
