<svg width="165" height="24" viewBox="0 0 165 24" fill="none" xmlns="http://www.w3.org/2000/svg">
<path d="M5.94763 2.33063C6.96532 2.23827 7.74944 2.19629 8.28331 2.19629C8.90893 2.19629 9.31768 2.27185 9.51788 2.42298C9.71808 2.57411 9.81818 2.85958 9.81818 3.27939C9.81818 3.76636 9.7014 4.27013 9.45949 4.81588C9.21758 5.36163 8.95898 5.72266 8.67537 5.89898C8.41677 6.05011 8.08311 6.18445 7.65768 6.30199C7.17386 6.39435 6.63165 6.64623 6.02271 7.07444C5.41376 7.49424 4.96331 7.91405 4.68803 8.34225C4.28763 8.91319 3.9206 10.4077 3.58693 12.8174C3.4201 14.0852 3.32834 14.9584 3.32834 15.437C3.32834 15.9491 3.38673 16.5033 3.49517 17.1078C3.63698 17.7711 3.85386 18.2161 4.15417 18.4428C4.45447 18.6695 4.95497 18.7786 5.66401 18.7786C6.28964 18.7786 6.74009 18.9466 7.02371 19.274C7.30733 19.5763 7.44914 19.8449 7.44914 20.0884C7.44914 20.5082 7.06542 21.0372 6.29798 21.6669C5.4221 22.389 4.79648 22.75 4.42944 22.75C4.31266 22.75 4.17085 22.7164 4.00402 22.6576C2.90291 22.2378 1.86854 21.1799 0.900903 19.4923C0.300301 18.4428 0 17.4688 0 16.5621C0 16.1423 0.1001 14.9836 0.300301 13.0861C0.44211 11.6083 0.608944 10.542 0.809145 9.87874C1.00935 9.21545 1.40141 8.32546 2.00201 7.20878C2.51085 6.30199 2.93628 5.38682 3.27829 4.45485C3.58693 3.64042 3.89557 3.09467 4.20422 2.826C4.5212 2.54893 5.09678 2.3894 5.94763 2.33063Z" fill="#345D2F"/>
<path d="M13.3801 5.31127C13.4635 5.27768 13.5803 5.26929 13.7221 5.26929C14.2643 5.26929 14.6814 5.899 14.9984 7.16681C15.257 8.15755 15.3821 8.87122 15.3821 9.29103C15.3821 9.74442 15.2403 10.2062 14.9567 10.6932C14.6981 11.1466 14.573 11.5664 14.573 11.961C14.573 12.2045 14.5897 12.3976 14.6147 12.5487C14.6397 12.6663 14.6564 12.851 14.6564 13.0945C14.6564 13.6402 14.573 14.1944 14.3978 14.7653C14.231 15.4622 14.1392 15.9827 14.1392 16.3438C14.1392 16.8559 14.2643 17.1162 14.5229 17.1162C14.8065 17.1162 15.1485 16.8643 15.5406 16.3438C15.9076 15.8652 16.6417 15.2943 17.7512 14.6478C18.8523 14.0013 19.603 13.6738 20.0034 13.6738C20.5373 13.6738 21.1546 13.9341 21.8303 14.463C22.5059 14.992 22.8479 15.4622 22.8479 15.8904C22.8479 16.285 22.5476 17.2506 21.9554 18.787C21.3297 20.3823 21.0211 21.2387 21.0211 21.3647C21.0211 21.541 20.6958 21.9524 20.0451 22.5821C19.4195 23.2118 18.894 23.5309 18.4769 23.5309C18.2183 23.5309 17.9847 23.4133 17.7512 23.1698C17.5259 22.9263 17.4092 22.6745 17.4092 22.3974C17.4092 22.0951 17.7595 21.1883 18.4685 19.6854C19.2026 18.0902 19.5696 17.1834 19.5696 16.9735C19.5696 16.7636 19.5113 16.6544 19.4028 16.6544C19.236 16.6544 18.4352 17.3597 17.0254 18.7787C15.6073 20.1976 14.6731 21.2051 14.2226 21.8097C13.6304 22.5905 13.0047 22.9851 12.3541 22.9851C11.9537 22.9851 11.6284 22.8676 11.3781 22.6241C11.2113 22.4729 11.1028 22.305 11.0611 22.1287C11.0194 21.944 10.9944 21.4822 10.9944 20.7266V18.787C11.0194 16.4361 11.1529 14.9584 11.3781 14.3539C11.6367 13.6318 11.7618 12.5655 11.7618 11.1466C11.7702 7.55303 12.304 5.61353 13.3801 5.31127Z" fill="#345D2F"/>
<path d="M26.9354 9.73616C27.1022 9.67738 27.2607 9.6438 27.4025 9.6438C27.9948 9.6438 28.537 9.82851 29.0208 10.1895C29.4463 10.4918 30.0135 10.6849 30.7225 10.7773C31.49 10.8696 32.1156 11.0879 32.6161 11.4322C33.1083 11.7764 33.5587 12.3474 33.9508 13.1282C34.86 14.8746 35.3105 16.3187 35.3105 17.469C35.3105 17.9812 35.2271 18.4177 35.0519 18.7788C34.7933 19.3497 34.3595 19.9962 33.7339 20.7183C33.1083 21.4404 32.5744 21.9357 32.1156 22.2128C31.3482 22.6662 30.6725 22.8929 30.0802 22.8929C28.6621 22.8929 27.8697 21.6419 27.7028 19.1398C27.7028 19.0475 27.6945 18.9215 27.6778 18.7536C27.6611 18.5857 27.6528 18.4765 27.6528 18.4178C27.6528 16.9148 28.1616 15.9325 29.1793 15.4791C29.7466 15.1768 30.1303 15.0257 30.3305 15.0257C30.4723 15.0257 30.6141 14.9166 30.7559 14.7067C30.8143 14.5891 30.8393 14.5136 30.8393 14.48C30.8393 14.3288 30.5974 14.0098 30.1136 13.5312C29.5714 12.9855 29.1043 12.7168 28.7122 12.7168C28.3702 12.7168 27.6611 12.8091 26.5851 12.9855L25.8176 13.1198V11.852C25.8343 10.7437 26.2013 10.0384 26.9354 9.73616ZM31.6568 17.9644C31.49 17.6369 31.2898 17.469 31.0646 17.469C30.6975 17.469 30.4389 17.7712 30.2971 18.3758C30.2137 18.7116 30.3221 18.9467 30.6391 19.0978C30.806 19.1902 30.9645 19.2322 31.1063 19.2322C31.5567 19.2322 31.7903 18.9887 31.7903 18.5101C31.7819 18.3254 31.7402 18.1407 31.6568 17.9644Z" fill="#345D2F"/>
<path d="M44.8283 10.9618C45.137 10.8443 45.479 10.7771 45.846 10.7771C46.2965 10.7771 46.6802 10.8779 46.9972 11.071C47.3058 11.2641 47.4643 11.5328 47.4643 11.8602C47.4643 12.1625 47.3309 12.4815 47.0639 12.809C46.797 13.1448 46.2464 13.6654 45.4289 14.3874C44.3529 15.2942 43.4853 17.1162 42.8347 19.8533C42.4927 21.1799 42.2841 21.9356 42.2007 22.1119C41.7753 22.9851 41.2498 23.4217 40.6325 23.4217C40.0068 23.4217 39.5147 23.0019 39.1476 22.1538C39.0309 21.9104 38.8473 21.1127 38.5971 19.761C38.3468 18.4092 38.2134 17.5444 38.2134 17.1833C38.2134 16.9986 38.2551 16.73 38.3385 16.3689C38.3969 16.159 38.5971 15.9575 38.9308 15.756C39.2728 15.5629 39.5814 15.4621 39.865 15.4621C40.1737 15.4621 40.4907 15.3278 40.8243 15.0591C41.158 14.7904 41.6418 14.2447 42.2925 13.4303C43.1433 12.3472 43.6772 11.7007 43.9108 11.4908C44.1193 11.2893 44.4279 11.1129 44.8283 10.9618Z" fill="#345D2F"/>
<path d="M55.8727 9.33316C56.9488 8.87977 57.6828 8.65308 58.0832 8.65308C58.1416 8.65308 58.2501 8.66147 58.4002 8.67827C58.5587 8.69506 58.6755 8.70345 58.7589 8.70345C59.7182 8.76223 60.5357 9.0309 61.203 9.49269C61.8704 9.96287 62.204 10.475 62.204 11.0544C62.204 11.6337 61.8954 12.1375 61.2698 12.5909C61.0112 12.7672 60.7276 12.8595 60.4189 12.8595C60.0769 12.8595 59.6682 12.7672 59.1843 12.5909C58.6755 12.4061 58.2251 12.3222 57.8247 12.3222C56.7235 12.3222 55.4556 13.1198 54.0459 14.7151L52.6445 16.2936V17.7377C52.6445 17.9812 52.6528 18.2247 52.6695 18.4849C52.6862 18.7452 52.6945 18.9551 52.6945 19.1146C52.6945 19.2742 52.6945 19.3749 52.6945 19.4085C52.6945 19.5596 52.9197 19.7108 53.3702 19.8619C53.6288 19.9543 53.8123 19.9962 53.9207 19.9962C54.0876 19.9962 54.3628 19.8871 54.7299 19.6772C55.1553 19.4085 55.5223 19.2742 55.831 19.2742C56.3148 19.2742 56.7235 19.61 57.0656 20.2649C57.3242 20.7435 57.4493 21.1213 57.4493 21.3984C57.4493 21.432 57.4409 21.474 57.4242 21.5327C57.4076 21.5915 57.3992 21.6419 57.3992 21.6671C57.3408 21.877 57.1907 22.0533 56.9488 22.1876C56.7069 22.322 56.1313 22.5571 55.2304 22.8845C53.9541 23.3043 53.0365 23.5142 52.4693 23.5142C51.8186 23.5142 51.2514 23.2455 50.7676 22.6998C49.9751 21.7678 49.5747 20.0382 49.5747 17.5026C49.5747 16.5958 49.6581 15.8318 49.8333 15.1937C50.0585 14.3792 50.3672 13.7411 50.7676 13.2709C51.1596 12.8008 52.1022 11.9192 53.5704 10.6262C54.0876 10.2232 54.855 9.78655 55.8727 9.33316Z" fill="#345D2F"/>
<path d="M67.0923 13.8502C67.5177 13.6991 68.0682 13.6235 68.7523 13.6235H69.1777C70.7626 13.7159 71.872 14.2868 72.4893 15.3363C72.6895 15.6386 72.7896 15.9828 72.7896 16.3775C72.7896 17.2507 72.0389 18.6528 70.5374 20.5839C69.7449 21.6082 69.1193 22.2799 68.6688 22.599C68.2184 22.918 67.5761 23.1447 66.7586 23.2959C66.1914 23.3546 65.8493 23.3882 65.7409 23.3882C65.2904 23.3882 64.9651 23.2455 64.7649 22.96C64.5647 22.6746 64.3228 22.0784 64.0392 21.1716C63.7556 20.2649 63.6138 19.5176 63.6138 18.9131C63.6138 18.2834 63.8724 17.5529 64.3812 16.7469C65.4489 15.118 66.3498 14.1525 67.0923 13.8502ZM69.5531 17.0575C69.5531 16.7553 69.5197 16.579 69.4446 16.537C69.3695 16.495 69.186 16.4698 68.869 16.4698C68.135 16.4698 67.3926 16.9232 66.6585 17.8216C66.3165 18.2162 66.1496 18.594 66.1496 18.9551C66.1496 19.2237 66.2497 19.4504 66.4499 19.6352C66.6501 19.7863 66.817 19.8619 66.9588 19.8619C67.2674 19.8619 67.793 19.484 68.527 18.7284C69.211 18.0399 69.5531 17.4774 69.5531 17.0575Z" fill="#345D2F"/>
<path d="M83.4919 10.1894C83.6338 9.92071 83.9174 9.78638 84.3428 9.78638C84.7432 9.78638 85.4439 10.0383 86.4699 10.5336C87.496 11.029 88.0715 11.3984 88.2134 11.6419C88.2968 11.8854 88.3969 12.5655 88.5137 13.6738C88.5387 14.0012 88.5554 14.3958 88.5554 14.8492C88.5554 15.3614 88.4886 15.798 88.3468 16.159C88.3218 16.2766 88.2134 16.6124 88.0298 17.1498C87.8463 17.6955 87.7129 18.0985 87.6294 18.3672L87.204 19.635L87.7546 20.3571C88.0966 20.8105 88.2634 21.096 88.2634 21.2135C88.2634 21.3059 87.9214 21.5158 87.2457 21.8432C86.6201 22.1455 85.6525 22.4141 84.3345 22.6576C83.0165 22.9011 81.832 23.0187 80.7892 23.0187C80.4472 23.0187 80.0552 22.9851 79.5964 22.9263C78.8039 22.7752 78.0281 22.5065 77.2774 22.1119C76.5266 21.7173 76.0678 21.331 75.8927 20.9364C75.7759 20.7265 75.7258 20.4998 75.7258 20.2563C75.7258 19.7442 76.2931 18.8878 77.4275 17.6787C78.245 16.8055 78.8039 16.2682 79.0875 16.0751C79.3712 15.882 79.7549 15.7812 80.2387 15.7812C80.6891 15.7812 81.1479 15.6469 81.5984 15.3782C81.9904 15.1683 82.249 15.0591 82.3658 15.0591C82.5076 15.0591 82.8747 15.1515 83.4669 15.3278C84.0342 15.4789 84.3762 15.5545 84.4846 15.5545C84.6514 15.5545 84.8266 15.4622 84.9935 15.2858C85.2187 15.0423 85.3355 14.8073 85.3355 14.5638C85.3355 14.1692 85.0352 13.5982 84.4429 12.851C83.7339 11.919 83.3835 11.2053 83.3835 10.7267C83.3668 10.5504 83.4085 10.3741 83.4919 10.1894ZM83.8757 19.3664C83.6504 19.1229 82.7829 19.0053 81.2814 19.0053C80.9144 19.0053 80.6891 19.0221 80.5974 19.0473C80.2304 19.1648 80.0468 19.3831 80.0468 19.677C80.0468 19.9793 80.6391 20.1304 81.832 20.1304C83.25 20.1304 83.9591 19.9457 83.9591 19.5847C83.9591 19.5007 83.9341 19.4251 83.8757 19.3664Z" fill="#345D2F"/>
<path d="M92.5845 5.76466C92.8097 5.43721 93.1183 5.26929 93.5187 5.26929C93.7773 5.26929 94.0109 5.32806 94.2445 5.454C94.8367 5.78985 95.137 6.59587 95.137 7.89727C95.137 9.28263 94.8117 10.6428 94.161 11.961C94.0192 12.2297 93.9525 12.6999 93.9525 13.3632C93.9525 14.0264 93.9692 14.6142 93.9942 15.1263C94.0526 16.3606 94.111 17.1246 94.1861 17.4101C94.2528 17.6956 94.4363 18.023 94.7199 18.384C95.4874 19.2908 95.8711 20.1304 95.8711 20.9113C95.8711 20.9449 95.8628 21.012 95.8461 21.1128C95.8294 21.2219 95.821 21.2975 95.821 21.3647C95.6792 22.4478 95.2955 22.9935 94.6699 22.9935C94.6449 22.9935 94.5948 22.9851 94.5197 22.9683C94.453 22.9515 94.3946 22.9431 94.3696 22.9431C93.1517 22.6996 92.4427 21.6753 92.2425 19.8701C92.159 19.0305 91.9755 18.1825 91.6919 17.3429C91.4917 16.7384 91.3916 16.2094 91.3916 15.7644C91.3916 15.6721 91.4166 15.2103 91.475 14.3623C91.5334 13.3967 91.5584 12.7838 91.5584 12.5067V12.2381C91.5 11.7595 91.475 11.3649 91.475 11.0626C91.475 8.87962 91.8421 7.11643 92.5845 5.76466Z" fill="#345D2F"/>
<path d="M118.419 0.567504C119.044 0.38279 119.904 0.298828 121.013 0.298828C122.256 0.298828 123.374 0.475147 124.366 0.844576C125.384 1.20561 126.268 1.39032 127.002 1.39032C127.77 1.39032 128.662 1.54985 129.68 1.86051C130.698 2.17956 131.206 2.55739 131.206 3.01078C131.206 3.16191 131.09 3.35502 130.864 3.59851C130.464 3.99312 129.405 4.32057 127.678 4.58925C125.751 4.85792 123.966 5.47924 122.323 6.44479C120.846 7.2844 119.845 8.1492 119.303 9.0224C118.961 9.53456 118.494 10.0887 117.901 10.6932C117.276 11.3229 116.967 11.7931 116.967 12.0954C116.967 12.4228 116.992 12.6243 117.051 12.6831C117.109 12.7167 117.192 12.7251 117.309 12.7251C117.618 12.7251 118.018 12.6831 118.502 12.5908C119.52 12.4732 120.554 12.406 121.605 12.406C122.656 12.406 123.307 12.49 123.557 12.6579C123.807 12.8258 123.941 13.254 123.941 13.9425V14.8493L122.414 14.9837C121.338 15.076 120.304 15.3447 119.311 15.7981C118.377 16.1927 117.751 16.3858 117.443 16.3858H117.359C117.101 16.2934 116.767 16.2515 116.342 16.2515C115.799 16.2515 115.466 16.327 115.324 16.4782C115.124 16.6881 114.548 17.8215 113.58 19.8702C112.755 21.5914 112.187 22.6325 111.862 23.0103C111.537 23.3882 110.978 23.6233 110.185 23.7072C110.044 23.7408 109.877 23.7492 109.677 23.7492C109.368 23.7492 109.143 23.6652 109.018 23.4973C108.892 23.3294 108.801 23.0187 108.742 22.5737C108.742 22.515 108.734 22.4394 108.717 22.347C108.701 22.2547 108.692 22.1959 108.692 22.1623C108.692 21.4403 109.143 20.4495 110.052 19.1817C110.477 18.552 110.686 18.1574 110.686 18.0063C110.686 17.5277 109.994 17.0995 108.601 16.7384C108.342 16.6797 108.2 16.6041 108.158 16.5117C108.117 16.4194 108.125 16.1675 108.183 15.7393C108.242 15.0424 108.45 14.5471 108.817 14.2448C109.184 13.9425 109.81 13.7662 110.686 13.699C111.679 13.6067 112.346 13.4472 112.68 13.2037C112.963 13.0274 113.397 12.49 113.973 11.6C114.556 10.71 114.84 10.1475 114.84 9.90399C114.84 9.39183 115.424 8.47665 116.583 7.15007C117.318 6.24328 117.818 5.57159 118.068 5.1182C118.177 4.87472 118.235 4.6816 118.235 4.53047C118.235 4.37934 118.135 4.11067 117.935 3.71605C117.484 2.84285 117.259 2.19635 117.259 1.77655C117.268 1.18042 117.651 0.777407 118.419 0.567504Z" fill="#345D2F"/>
<path d="M127.553 13.8502C127.978 13.6991 128.529 13.6235 129.213 13.6235H129.638C131.223 13.7159 132.333 14.2868 132.95 15.3363C133.15 15.6386 133.25 15.9828 133.25 16.3775C133.25 17.2507 132.5 18.6528 130.998 20.5839C130.206 21.6082 129.58 22.2799 129.13 22.599C128.679 22.918 128.037 23.1447 127.219 23.2959C126.652 23.3546 126.31 23.3882 126.202 23.3882C125.751 23.3882 125.426 23.2455 125.226 22.96C125.025 22.6746 124.784 22.0784 124.5 21.1716C124.216 20.2649 124.074 19.5176 124.074 18.9131C124.074 18.2834 124.333 17.5529 124.842 16.7469C125.91 15.118 126.811 14.1525 127.553 13.8502ZM130.014 17.0575C130.014 16.7553 129.98 16.579 129.905 16.537C129.83 16.495 129.647 16.4698 129.33 16.4698C128.596 16.4698 127.853 16.9232 127.119 17.8216C126.777 18.2162 126.61 18.594 126.61 18.9551C126.61 19.2237 126.71 19.4504 126.911 19.6352C127.111 19.7863 127.278 19.8619 127.419 19.8619C127.728 19.8619 128.254 19.484 128.988 18.7284C129.68 18.0399 130.014 17.4774 130.014 17.0575Z" fill="#345D2F"/>
<path d="M139.79 13.6655C140.324 13.4556 140.85 13.3464 141.358 13.3464H142.334L143.652 14.7906C144.67 15.966 145.179 16.8896 145.179 17.5445C145.179 17.6956 145.146 17.9475 145.095 18.3169C144.979 18.9802 144.762 19.5092 144.436 19.8954C144.111 20.29 143.394 20.9029 142.293 21.751C140.533 23.0775 139.498 23.7408 139.19 23.7408C139.073 23.7408 138.989 23.724 138.931 23.6989C138.672 23.6401 138.164 23.1531 137.404 22.2547C136.637 21.3479 136.228 20.735 136.17 20.3992C136.145 20.3068 136.128 20.1557 136.128 19.9458C136.128 19.5512 136.27 18.9383 136.554 18.0902C137.263 15.8401 138.347 14.3624 139.79 13.6655ZM142.126 16.7385C142.009 16.4362 141.826 16.2851 141.575 16.2851C141.008 16.2851 140.399 16.8896 139.748 18.0902C139.44 18.7535 139.281 19.1901 139.281 19.4C139.281 19.5848 139.431 19.7695 139.732 19.9626C140.032 20.1557 140.266 20.2564 140.432 20.2564L140.474 20.2145C140.499 20.2145 140.533 20.2145 140.558 20.2145C140.699 20.1809 141.041 19.6603 141.575 18.636C142.001 17.8552 142.209 17.343 142.209 17.0995C142.209 17.0407 142.184 16.9232 142.126 16.7385Z" fill="#345D2F"/>
<path d="M160.394 5.94105C160.619 5.78992 160.786 5.71436 160.903 5.71436C161.045 5.71436 161.287 5.89067 161.629 6.2601C161.971 6.62114 162.138 7.07453 162.138 7.61188C162.138 8.12404 162.012 9.0728 161.754 10.4582C161.495 11.9023 161.345 13.4724 161.287 15.16L161.203 17.6872L161.837 18.4093C162.121 18.7116 162.346 18.8963 162.521 18.9718C162.688 19.0474 163.013 19.081 163.497 19.081C164.181 19.081 164.515 19.1565 164.515 19.3077C164.515 19.5512 164.331 20.0297 163.964 20.7518C163.397 21.9273 162.621 22.515 161.629 22.515H161.287C160.72 22.4814 160.319 22.2799 160.077 21.9021C159.835 21.5243 159.543 20.6427 159.21 19.2573C158.843 17.7208 158.617 16.8896 158.534 16.772L158.492 16.7301C158.375 16.7301 158.084 17.1835 157.6 18.0902C157.057 19.1482 156.524 19.9458 155.981 20.4831L154.28 22.2883C153.454 23.2203 152.611 23.6905 151.727 23.6905C150.593 23.6905 149.575 22.9516 148.666 21.4739C148.265 20.8694 148.073 20.2732 148.073 19.6687C148.073 19.1901 148.232 18.6108 148.541 17.9475C148.766 17.5277 148.983 16.982 149.175 16.3187C149.458 15.4119 150.267 14.5723 151.594 13.7914C152.078 13.5228 152.711 13.3884 153.504 13.3884H154.355C155.598 13.3884 156.449 13.506 156.907 13.7494C157.274 13.9593 157.541 13.9426 157.716 13.7075C157.883 13.464 157.975 13.0778 157.975 12.532C157.975 12.0786 158.075 11.5581 158.275 10.9703C158.476 10.3826 158.584 9.87883 158.617 9.45903C158.642 8.85451 158.734 8.35913 158.876 7.96452C159.018 7.63707 159.251 7.24245 159.577 6.78906C159.894 6.35246 160.169 6.0586 160.394 5.94105ZM155.464 16.1088C155.406 15.7813 155.306 15.6134 155.164 15.6134C155.022 15.6134 154.43 15.9072 153.379 16.495C152.328 17.0827 151.71 17.4857 151.51 17.6956C151.31 17.8468 151.21 18.0567 151.21 18.3253C151.21 18.594 151.377 18.9215 151.719 19.2993C152.061 19.6771 152.344 19.8618 152.57 19.8618C153.079 19.8618 153.696 19.4252 154.422 18.552C155.147 17.6788 155.506 16.94 155.506 16.3355C155.506 16.3019 155.506 16.2599 155.506 16.2011L155.464 16.1088Z" fill="#345D2F"/>
</svg>
