<svg width="582" height="571" viewBox="0 0 582 571" fill="none" xmlns="http://www.w3.org/2000/svg">
<g clip-path="url(#clip0)">
<path d="M349.445 55.9934C349.445 55.9934 351.962 46.1292 348.974 36.6082C345.533 25.6434 339.143 25.3869 339.143 25.3869C339.143 25.3869 343.538 37.3445 339.569 46.7116C334.332 59.0774 318.902 69.7636 317.124 79.5175C315.346 89.2714 331.227 78.6086 336.774 72.8293C338.643 70.8574 347.042 63.8336 349.445 55.9934Z" fill="#D7E597"/>
<path d="M315.538 84.5394C314.667 83.5457 313.995 81.8646 314.499 79.0575C315.565 73.2369 320.499 67.5764 325.728 61.5851C330.186 56.4853 334.789 51.1978 337.084 45.6622C340.592 37.3919 336.651 26.3877 336.614 26.277L335.274 22.6476L339.2 22.7923C339.531 22.8014 347.507 23.2454 351.47 35.8432C354.648 45.9627 352.084 56.2378 351.979 56.6766L351.946 56.7891C349.697 64.1363 343.002 70.5149 339.781 73.5883C339.28 74.0265 338.876 74.452 338.637 74.6973C335.556 77.7505 332.13 80.4351 328.429 82.697C320.552 87.4945 317.761 86.0683 316.844 85.5937C316.345 85.3289 315.902 84.971 315.538 84.5394ZM343.244 30.982C344.045 35.633 344.379 42.0554 341.965 47.7424C339.31 54.012 334.437 59.6066 329.663 65.0675C324.889 70.5285 320.458 75.6172 319.664 80.0164C319.604 80.2884 319.57 80.5656 319.565 80.8442C320.456 80.7565 322.529 80.1356 326.13 77.877C329.268 75.9207 332.179 73.6226 334.81 71.0246C335.155 70.7226 335.573 70.2725 336.097 69.7658C338.978 67.0266 344.966 61.3147 346.833 55.3305C347.018 54.5593 348.995 45.7421 346.391 37.4374C345.75 35.1097 344.683 32.9209 343.244 30.982Z" fill="#231916"/>
<path d="M308.633 128.619C308.633 128.619 290.403 110.538 306.862 86.3098C323.32 62.0819 345.506 61.917 356.617 46.1372C363.884 35.8161 362.997 22.0523 362.997 22.0523C362.997 22.0523 379.939 35.622 360.72 58.5531C341.501 81.4842 334.432 84.4627 321.043 96.6467C313.942 103.107 307.583 117.997 308.633 128.619Z" fill="#D7E597"/>
<path d="M306.054 129.684C302.955 126.067 300.59 121.881 299.092 117.359C296.652 109.938 295.593 98.2136 304.687 84.8098C314.196 70.8156 325.499 64.5695 335.462 59.0437C343.202 54.7721 349.877 51.0863 354.46 44.5746C361.092 35.1796 360.376 22.3059 360.372 22.1783L359.961 16.2538L364.619 19.9751C369.025 23.8866 371.799 29.3121 372.391 35.1744C373.185 43.2004 369.952 51.6481 362.716 60.2454C348.862 76.7674 341.204 83.0823 333.107 89.7695C329.901 92.4108 326.594 95.141 322.799 98.5969C316.505 104.327 310.188 118.296 311.236 128.358L311.968 135.685L306.745 130.5C306.749 130.437 306.474 130.164 306.054 129.684ZM365.344 29.3402C364.714 34.5399 363.058 41.5825 358.799 47.6315C353.513 55.1412 345.992 59.2935 338.034 63.6844C328.113 69.162 317.854 74.8275 309.064 87.7737C302.778 97.0324 301.085 106.365 304.042 115.496C304.632 117.34 305.395 119.124 306.32 120.824C307.904 110.643 313.583 99.8605 319.268 94.689C323.158 91.1502 326.501 88.3523 329.765 85.6957C337.686 79.1752 345.155 73.0135 358.699 56.8594C364.963 49.3761 367.821 42.2601 367.171 35.7085C366.955 33.4922 366.335 31.3341 365.344 29.3402Z" fill="#231916"/>
<path d="M316.078 133.83C321.806 135.929 328.008 136.378 333.979 135.126C339.95 133.875 345.45 130.972 349.853 126.75C365.774 112.014 367.784 106.644 372.321 101.021C375.859 96.6311 385.351 90.8003 390.519 95.2813C394.53 98.7688 387.007 112.194 383.483 112.999C379.959 113.804 407.278 114.997 405.831 94.8662C404.633 77.8147 380.535 80.4071 369.771 89.5865C359.006 98.7659 346.992 117.225 337.593 123.093C330.694 127.194 323.503 130.782 316.078 133.83Z" fill="#D7E597"/>
<path d="M309.216 133.771L315.086 131.389C315.174 131.312 327.122 126.484 336.197 120.804C341 117.79 346.988 110.741 352.764 103.901C357.812 97.9483 363.027 91.7904 368.048 87.5112C375.33 81.2989 389.308 77.1655 399.174 81.3072C404.714 83.6219 408.013 88.3551 408.481 94.6592C408.954 101.486 406.518 107.133 401.34 110.892C396.727 114.3 391.081 115.411 388.121 115.77C386.896 115.927 385.661 115.999 384.426 115.984C383.478 115.966 380.96 115.915 380.559 113.602C380.498 113.245 380.508 112.879 380.589 112.526C380.669 112.173 380.819 111.84 381.029 111.545C381.239 111.25 381.505 110.999 381.813 110.807C382.12 110.615 382.462 110.486 382.819 110.427C384.159 109.802 388.189 104.145 388.916 99.4934C389.149 97.9867 388.879 97.3638 388.753 97.2472C388.263 96.851 387.696 96.5621 387.088 96.399C386.48 96.236 385.845 96.2025 385.223 96.3008C381.379 96.6455 376.581 99.8695 374.334 102.651C373.293 103.945 372.393 105.223 371.354 106.695C368.022 111.43 363.903 117.284 351.612 128.662C344.981 135.017 336.128 138.528 326.943 138.445C322.871 138.447 318.832 137.705 315.026 136.257L309.216 133.771ZM400.821 88.7653C399.81 87.6352 398.552 86.7543 397.144 86.1916C390.229 83.2892 378.237 85.7896 371.488 91.5469C366.792 95.5418 361.715 101.53 356.804 107.326C350.477 114.793 344.503 121.843 339.014 125.302C334.313 128.159 329.449 130.741 324.448 133.032C325.315 133.109 326.255 133.158 327.228 133.165C334.989 133.184 342.45 130.171 348.022 124.769C359.9 113.778 363.844 108.161 367.027 103.639C368.101 102.137 369.072 100.749 370.217 99.3154C373.165 95.6571 379.26 91.5125 384.744 91.0214C386.074 90.8597 387.423 90.9733 388.707 91.355C389.991 91.7367 391.182 92.3785 392.208 93.2403C393.582 94.4264 395.016 96.9094 393.805 101.746C392.99 104.691 391.724 107.493 390.053 110.051C393.447 109.408 396.622 107.911 399.276 105.699C402.222 103.034 403.498 99.5268 403.181 94.9778C403.103 92.7029 402.273 90.5181 400.821 88.7653Z" fill="#231916"/>
<path d="M313.351 125.453C313.351 125.453 324.731 113.321 328.745 104.32C333.706 93.5784 341.443 84.3547 351.157 77.6004C361.618 70.5153 375.227 63.6828 383.685 68.1009C392.144 72.519 392.192 81.7121 392.192 81.7121C392.192 81.7121 378.516 80.6941 369.788 89.5239C361.059 98.3537 349.969 114.485 340.124 121.222C326.444 130.579 316.091 133.818 316.091 133.818C316.091 133.818 307.913 130.17 313.351 125.453Z" fill="#D7E597"/>
<path d="M310.636 133.101C309.728 132.119 309.128 130.892 308.908 129.573C308.682 128.074 308.965 125.819 311.509 123.555C312.537 122.451 322.722 111.342 326.333 103.244C331.482 92.0529 339.537 82.4468 349.658 75.4251C365.191 64.9113 377.034 61.6687 384.896 65.7735C394.671 70.89 394.82 81.2742 394.823 81.7138L394.838 84.5679L391.986 84.3541C391.865 84.3525 379.369 83.5907 371.663 91.4054C368.585 94.5202 365.176 98.5938 361.573 102.909C354.996 110.786 348.198 118.928 341.615 123.429C327.769 132.895 317.32 136.23 316.878 136.366L315.936 136.654L315.026 136.257C313.368 135.506 311.876 134.434 310.636 133.101ZM386.187 73.4119C385.124 72.2088 383.847 71.2132 382.42 70.4755C376.591 67.422 366.003 70.7476 352.59 79.8221C343.308 86.3171 335.906 95.1473 331.131 105.42C326.982 114.718 315.729 126.776 315.255 127.286L315.046 127.469C314.572 127.786 314.231 128.267 314.091 128.82C314.18 129.399 315.195 130.326 316.266 130.976C324.156 127.915 331.649 123.918 338.585 119.07C344.585 115.008 351.131 107.123 357.472 99.5242C361.146 95.1114 364.623 90.9659 367.864 87.6964C374.736 80.7437 384.209 79.3505 389.104 79.1007C388.602 76.9967 387.61 75.0413 386.208 73.3942L386.187 73.4119Z" fill="#231916"/>
<path d="M324.849 125.608L322.05 121.13C325.643 118.89 335.343 110.392 340.335 103.283C341.472 101.677 342.587 99.9358 343.766 98.0904C348.071 91.3565 352.957 83.7185 362.053 77.0401C371.664 69.9944 379.933 71.1966 385.186 73.4414C388.659 74.9471 391.751 77.2097 394.237 80.064L390.133 83.3848C389.695 82.8846 379.535 70.7691 365.202 81.3304C356.89 87.4174 352.301 94.6164 348.238 100.971C347.03 102.866 345.887 104.656 344.685 106.367C339.019 114.329 328.615 123.264 324.849 125.608Z" fill="#231916"/>
<path d="M362.931 46.771C362.931 46.771 369.715 57.7464 348.826 94.5781C330.957 126.088 311.486 128.82 311.486 128.82C311.486 128.82 305.827 121.638 305.516 112.759C305.003 98.5359 315.422 87.3531 326.069 81.8852C336.715 76.4173 356.832 64.4804 362.931 46.771Z" fill="#D7E597"/>
<path d="M310.35 131.643L309.416 130.454C309.144 130.143 303.217 122.491 302.873 112.852C302.694 105.505 305.022 98.3164 309.473 92.469C313.555 87.0472 318.817 82.6253 324.861 79.5382C338.14 72.6838 355.153 61.3634 360.434 45.9118L362.242 40.6243L365.19 45.3535C365.973 46.6152 372.157 58.761 351.16 95.8785C332.845 128.161 312.741 131.317 311.91 131.459L310.35 131.643ZM361.063 56.5443C353.047 69.0513 338.838 78.3088 327.27 84.2381C318.147 88.9087 307.668 99.1641 308.146 112.665C308.349 118.461 311.129 123.517 312.619 125.832C316.076 124.735 319.354 123.136 322.346 121.086C328.486 117.021 337.654 108.87 346.517 93.2791C356.853 75.0599 360.228 63.4054 361.063 56.5443Z" fill="#231916"/>
<path d="M307.219 128.436C304.343 132.055 300.994 134.164 297.189 131.13C293.51 128.199 294.7 124.361 297.575 120.756C300.449 117.15 305.182 113.756 308.965 116.751C312.748 119.745 310.094 124.83 307.219 128.436Z" fill="#FFE57B"/>
<path d="M294.272 131.988C292.3 129.737 290.456 125.45 295.505 119.116C300.373 112.999 306.315 111.271 310.634 114.715C311.866 115.677 312.771 116.996 313.226 118.492C313.681 119.988 313.664 121.587 313.177 123.073C312.362 125.64 311.04 128.017 309.289 130.063C307.345 132.495 305.443 134.019 303.453 134.735C301.463 135.45 298.697 135.675 295.545 133.168C295.085 132.814 294.659 132.42 294.272 131.988ZM307.654 119.142C307.571 119.027 307.478 118.921 307.376 118.824C304.43 116.47 299.866 122.13 299.671 122.372C296.116 126.837 297.979 128.323 298.874 129.044C299.975 129.919 301.633 131.239 305.189 126.774C307.19 124.244 309.2 120.906 307.654 119.142Z" fill="#231916"/>
<path d="M280.296 151.348C284.456 155.541 292.524 154.282 298.317 148.535C304.11 142.789 305.434 134.731 301.274 130.538C297.114 126.345 289.046 127.604 283.253 133.351C277.46 139.097 276.136 147.155 280.296 151.348Z" fill="#FFE57B"/>
<path d="M277.762 152.474C276.43 151.063 275.472 149.341 274.976 147.465C274.481 145.589 274.463 143.619 274.924 141.734C275.708 138.442 277.903 135.002 281.461 131.467C285.019 127.931 288.411 125.761 291.629 124.948C294.575 124.219 298.893 124.32 303.219 128.63C305.589 131.022 308.143 134.974 306.828 140.224C306.05 143.427 303.868 146.773 300.249 150.361C296.623 153.956 293.305 156.074 290.074 156.886C287.175 157.586 282.81 157.514 278.484 153.203C278.225 152.976 277.987 152.731 277.762 152.474ZM299.988 133.002L299.479 132.421C296.702 129.62 294.399 129.774 292.911 130.134C290.672 130.674 288.074 132.4 285.198 135.254C282.322 138.109 280.657 140.654 280.109 142.974C279.561 145.295 280.215 147.446 282.226 149.483C285.003 152.284 287.306 152.13 288.794 151.77C291.033 151.23 293.624 149.51 296.5 146.656C299.377 143.801 301.12 141.223 301.709 138.962C302.009 137.6 302.197 135.524 299.964 132.975L299.988 133.002Z" fill="#231916"/>
<path d="M263.9 178.415C269.964 182.853 279.851 179.659 285.984 171.28C292.116 162.9 292.171 152.51 286.107 148.072C280.043 143.634 270.156 146.829 264.024 155.208C257.892 163.587 257.836 173.977 263.9 178.415Z" fill="#FFE57B"/>
<path d="M259.312 177.838C258.049 176.435 257.088 174.787 256.49 172.996C255.892 171.206 255.668 169.312 255.834 167.431C256.159 163.275 258.179 158.638 261.84 153.639C265.599 148.506 269.266 145.245 273.051 143.674C277.904 141.644 282.802 142.407 287.62 145.929C292.437 149.45 294.614 153.912 294.173 159.137C293.82 163.222 291.818 167.7 288.077 172.841C284.325 177.968 280.658 181.229 276.866 182.806C272.02 184.829 267.115 184.072 262.304 180.545C261.208 179.758 260.204 178.85 259.312 177.838ZM286.794 152.256C286.106 151.487 285.335 150.796 284.498 150.193C280.379 147.183 274.568 145.2 266.099 156.754C257.538 168.435 261.625 173.469 265.402 176.266C269.521 179.277 275.332 181.259 283.801 169.705C286.923 165.441 288.646 161.733 288.918 158.675C289.041 157.516 288.915 156.343 288.549 155.236C288.183 154.129 287.584 153.113 286.794 152.256Z" fill="#231916"/>
<path d="M331.873 137.814C335.527 136.068 336.536 130.561 334.125 125.514C331.714 120.466 326.797 117.789 323.142 119.535C319.488 121.28 318.479 126.787 320.89 131.835C323.301 136.882 328.218 139.559 331.873 137.814Z" fill="#FFE57B"/>
<path d="M321.552 137.828C320.321 136.359 319.295 134.729 318.503 132.984C313.954 123.455 317.919 119.157 322 117.159C326.08 115.162 329.237 116.256 331.141 117.515C333.18 118.847 334.935 121.109 336.513 124.398C338.092 127.686 338.69 130.496 338.425 132.962C338.258 134.546 337.667 136.056 336.715 137.333C335.764 138.61 334.486 139.608 333.016 140.222C328.887 142.191 325.773 141.119 323.869 139.872C323.01 139.296 322.231 138.608 321.552 137.828ZM329.464 123.034C329.104 122.608 328.687 122.234 328.226 121.92C327.445 121.41 326.309 120.96 324.27 121.933C322.232 122.906 320.287 124.478 323.264 130.712C324.394 133.08 325.549 134.685 326.765 135.459C327.54 135.975 328.682 136.42 330.721 135.447C332.759 134.473 333.052 133.321 333.152 132.385C333.185 130.387 332.694 128.416 331.727 126.667C331.137 125.361 330.376 124.139 329.464 123.034Z" fill="#231916"/>
<path d="M341.545 160.9C347.004 158.293 348.51 150.065 344.907 142.523C341.305 134.98 333.959 130.98 328.499 133.588C323.04 136.196 321.534 144.424 325.136 151.966C328.739 159.508 336.085 163.508 341.545 160.9Z" fill="#FFE57B"/>
<path d="M327.108 160.058C325.343 157.959 323.875 155.627 322.745 153.128C320.496 148.419 319.564 144.492 319.902 141.113C320.198 138.082 321.734 133.917 327.35 131.231C330.423 129.733 335.101 128.622 339.682 131.67C342.52 133.545 344.997 136.727 347.246 141.436C349.496 146.144 350.356 150.086 349.983 153.519C349.511 157.863 346.968 161.262 342.635 163.326C339.555 164.829 334.878 165.94 330.303 162.887C329.114 162.094 328.039 161.142 327.108 160.058ZM338.93 137.957C335.536 134.083 332.382 134.684 329.627 135.998C325.945 137.755 325.308 140.057 325.16 141.633C324.921 143.992 325.728 147.109 327.506 150.856C332.244 160.78 336.682 160.309 340.391 158.541C343.607 157.002 347.328 153.79 342.506 143.689C341.578 141.626 340.375 139.697 338.93 137.957Z" fill="#231916"/>
<path d="M343.355 194.083C350.832 193.33 356.05 184.344 355.009 174.013C353.969 163.682 347.064 155.917 339.588 156.67C332.111 157.423 326.893 166.409 327.934 176.74C328.974 187.071 335.879 194.835 343.355 194.083Z" fill="#FFE57B"/>
<path d="M330.669 192.149C330.42 191.865 330.165 191.574 329.911 191.284C327.446 188.007 325.933 183.334 325.3 177.019C324.66 170.698 325.212 165.817 326.972 162.113C329.228 157.364 333.375 154.651 339.312 154.05C345.249 153.449 349.866 155.282 353.021 159.484C355.486 162.761 356.992 167.439 357.632 173.761C358.271 180.082 357.638 184.951 355.817 188.696C353.541 193.367 349.32 196.145 343.613 196.723C338.153 197.242 333.825 195.752 330.669 192.149ZM348.368 162.055C346.378 159.783 343.654 158.897 339.877 159.278C335.794 159.689 333.216 161.302 331.773 164.347C330.456 167.126 330.053 171.194 330.591 176.458C331.116 181.721 332.322 185.635 334.166 188.081C336.198 190.782 339.038 191.842 343.095 191.454C346.993 191.062 349.633 189.37 351.08 186.371C352.465 183.52 352.913 179.448 352.415 174.257C351.917 169.065 350.684 165.08 348.833 162.627C348.689 162.428 348.533 162.237 348.368 162.055Z" fill="#231916"/>
<path d="M310.051 135.149C314.799 137.438 320.788 134.852 323.428 129.375C326.067 123.898 324.358 117.602 319.609 115.314C314.861 113.026 308.871 115.611 306.232 121.088C303.593 126.566 305.302 132.861 310.051 135.149Z" fill="#FFE57B"/>
<path d="M304.438 134.277C301.305 130.701 301.031 125.697 303.813 119.926C308.713 109.767 315.714 110.516 320.719 112.929C324.669 114.833 326.998 117.56 327.622 121.04C328.121 123.805 327.515 126.905 325.78 130.516C320.88 140.675 313.879 139.926 308.867 137.518C307.188 136.746 305.682 135.644 304.438 134.277ZM321.307 119.738C320.491 118.871 319.511 118.175 318.424 117.687C313.258 115.2 310.749 117.709 308.565 122.227C306.771 125.961 305.674 130.124 311.155 132.766C316.321 135.253 318.831 132.744 321.014 128.227C322.233 125.69 322.709 123.588 322.414 121.982C322.261 121.149 321.88 120.374 321.313 119.744L321.307 119.738Z" fill="#231916"/>
<path d="M300.394 152.354C306.238 155.17 313.608 151.991 316.855 145.253C320.102 138.514 317.997 130.769 312.153 127.953C306.309 125.137 298.939 128.316 295.692 135.054C292.445 141.793 294.55 149.538 300.394 152.354Z" fill="#FFE57B"/>
<path d="M293.881 150.826C290.92 147.446 289.304 142.124 293.267 133.909C295.342 129.582 297.786 126.712 300.711 125.141C304.345 123.152 308.576 123.316 313.254 125.574C323.969 130.74 322.399 139.75 319.196 146.404C315.986 153.051 309.917 159.897 299.196 154.737C297.183 153.798 295.376 152.469 293.881 150.826ZM314.731 133.002C313.665 131.87 312.386 130.961 310.966 130.327C307.855 128.835 305.319 128.655 303.219 129.79C301.331 130.799 299.589 132.97 298.019 136.197C293.82 144.906 297.704 148.111 301.491 149.979C307.323 152.79 311.102 151.117 314.437 144.109C316.858 139.084 317.011 135.605 314.731 133.002Z" fill="#231916"/>
<path d="M288.824 179.235C296.935 183.143 307.165 178.729 311.672 169.375C316.18 160.021 313.259 149.27 305.148 145.361C297.037 141.453 286.808 145.867 282.3 155.221C277.792 164.575 280.713 175.326 288.824 179.235Z" fill="#FFE57B"/>
<path d="M280.59 176.473C278.765 174.417 277.533 171.903 277.026 169.201C276.189 164.821 277.149 159.726 279.879 154.073C282.67 148.27 285.903 144.446 289.766 142.364C294.533 139.801 300.079 140.008 306.251 142.988C312.423 145.969 316.043 150.169 317.003 155.493C317.788 159.812 316.801 164.727 314.01 170.529C311.22 176.331 307.981 180.149 304.118 182.231C299.356 184.801 293.81 184.594 287.638 181.613C284.967 180.392 282.569 178.644 280.59 176.473ZM309.497 151.698C307.935 150.023 306.053 148.677 303.963 147.741C299.334 145.512 295.503 145.272 292.274 147.013C289.427 148.551 286.927 151.602 284.638 156.368C282.409 160.984 281.616 164.988 282.218 168.213C282.913 171.869 285.433 174.692 289.926 176.861C294.419 179.03 298.38 179.323 301.616 177.588C304.462 176.05 306.957 172.993 309.252 168.234C311.547 163.476 312.381 159.614 311.815 156.43C311.495 154.669 310.692 153.031 309.497 151.698Z" fill="#231916"/>
<path d="M274.418 198.668C269.909 208.018 265.089 217.45 253.084 214.18C236.642 209.706 238.594 195.582 243.097 186.224C247.6 176.867 260.644 171.163 270.322 175.827C280 180.491 278.913 189.329 274.418 198.668Z" fill="#FFE57B"/>
<path d="M241.428 210.436C240.388 209.246 239.528 207.91 238.875 206.471C235.153 198.322 238.928 188.802 240.708 185.092C243.467 179.693 248.123 175.504 253.782 173.327C259.827 170.911 266.269 170.955 271.459 173.456C276.835 176.047 279.809 180.013 280.31 185.25C280.696 189.332 279.547 194.103 276.786 199.83C272.544 208.625 266.75 220.655 252.373 216.738C247.637 215.45 243.969 213.336 241.428 210.436ZM272.998 181.009C271.909 179.836 270.593 178.895 269.131 178.245C265.273 176.391 260.337 176.39 255.705 178.262C251.285 179.968 247.634 183.221 245.432 187.417C243.964 190.459 240.848 198.195 243.648 204.309C245.238 207.802 248.634 210.288 253.706 211.699C263.127 214.27 267.019 207.802 271.967 197.589C276.332 188.579 275.502 183.798 273.032 180.98L272.998 181.009Z" fill="#231916"/>
<path d="M261.628 229.252C257.125 238.609 252.299 248.035 240.294 244.764C223.859 240.297 225.805 226.166 230.314 216.815C234.823 207.465 247.866 201.76 257.544 206.425C267.222 211.089 266.137 219.901 261.628 229.252Z" fill="#FFE57B"/>
<path d="M228.652 241.008C227.612 239.819 226.752 238.483 226.099 237.044C222.382 228.901 226.152 219.375 227.931 215.665C230.695 210.268 235.35 206.08 241.006 203.899C247.05 201.484 253.493 201.527 258.683 204.029C264.059 206.619 267.032 210.586 267.534 215.822C267.92 219.905 266.771 224.675 264.01 230.403C259.767 239.198 253.973 251.227 239.603 247.317C234.861 246.023 231.192 243.908 228.652 241.008ZM260.262 211.559C259.171 210.383 257.853 209.441 256.388 208.787C252.53 206.934 247.595 206.933 242.968 208.812C238.545 210.512 234.891 213.763 232.69 217.96C231.222 221.002 228.112 228.745 230.899 234.858C232.502 238.352 235.892 240.83 240.991 242.218C250.412 244.789 254.31 238.328 259.252 228.108C263.576 219.134 262.726 214.371 260.262 211.559Z" fill="#231916"/>
<path d="M250.8 262.252C246.291 271.603 241.465 281.028 229.46 277.757C213.025 273.29 214.971 259.159 219.479 249.809C223.988 240.458 237.02 234.74 246.698 239.404C256.376 244.069 255.303 252.895 250.8 262.252Z" fill="#FFF1AC"/>
<path d="M217.818 274.001C216.776 272.814 215.913 271.48 215.258 270.043C211.548 261.895 215.31 252.374 217.097 248.658C219.859 243.264 224.511 239.078 230.165 236.899C236.216 234.477 242.658 234.52 247.849 237.022C253.218 239.619 256.198 243.579 256.699 248.815C257.092 252.905 255.936 257.668 253.176 263.396C248.933 272.191 243.139 284.221 228.769 280.31C224.027 279.016 220.358 276.901 217.818 274.001ZM249.451 244.579C248.349 243.391 247.02 242.435 245.542 241.767C241.684 239.914 236.749 239.913 232.122 241.791C227.699 243.491 224.045 246.743 221.844 250.939C220.376 253.982 217.266 261.725 220.053 267.838C221.649 271.338 225.046 273.81 230.145 275.198C239.566 277.769 243.464 271.308 248.406 261.088C250.701 256.329 251.72 252.365 251.432 249.308C251.298 247.56 250.603 245.902 249.451 244.579Z" fill="#231916"/>
<path d="M241.948 300.235C236.717 311.067 231.148 322.003 218.056 318.597C200.111 313.947 202.66 297.723 207.878 286.891C213.096 276.059 227.596 269.139 238.094 274.207C248.593 279.276 247.166 289.403 241.948 300.235Z" fill="#FFE57B"/>
<path d="M205.839 314.58C204.756 313.349 203.858 311.966 203.174 310.475C198.926 301.317 203.378 290.128 205.496 285.74C208.567 279.675 213.672 274.882 219.917 272.198C226.574 269.281 233.607 269.153 239.211 271.854C244.995 274.637 248.131 279.035 248.52 284.907C248.823 289.481 247.441 294.873 244.29 301.409C241.906 306.365 238.932 312.531 234.781 316.658C229.989 321.417 224.131 322.941 217.351 321.174C212.4 319.86 208.534 317.656 205.839 314.58ZM241.041 279.548C239.89 278.295 238.499 277.287 236.95 276.583C232.762 274.53 227.311 274.705 222.064 277.008C216.944 279.183 212.756 283.094 210.234 288.053C204.868 299.193 206.845 305.909 207.943 308.281C209.688 312.045 213.304 314.66 218.695 316.054C229.201 318.798 233.759 311.113 239.545 299.102C242.253 293.492 243.497 288.83 243.262 285.248C243.19 283.151 242.406 281.14 241.041 279.548Z" fill="#231916"/>
<path d="M229.478 335.14C224.26 345.972 218.678 356.907 205.586 353.501C187.648 348.846 190.19 332.627 195.408 321.795C200.627 310.963 215.126 304.043 225.631 309.105C236.136 314.168 234.703 324.301 229.478 335.14Z" fill="#FFE57B"/>
<path d="M193.369 349.485C192.289 348.25 191.392 346.868 190.704 345.379C186.456 336.221 190.915 325.026 193.026 320.644C196.097 314.579 201.202 309.786 207.448 307.102C214.104 304.185 221.137 304.057 226.742 306.759C237.127 311.794 238.854 321.716 231.82 336.313C229.436 341.27 226.462 347.435 222.318 351.556C217.526 356.315 211.662 357.845 204.881 356.079C199.93 354.764 196.064 352.56 193.369 349.485ZM228.585 314.427C227.429 313.18 226.033 312.18 224.48 311.488C220.292 309.434 214.841 309.609 209.601 311.906C204.483 314.083 200.294 317.994 197.771 322.951C192.412 334.086 194.388 340.801 195.486 343.173C197.231 346.938 200.847 349.565 206.232 350.952C216.737 353.697 221.302 346.006 227.082 334C232.313 323.169 231.38 317.618 228.585 314.427Z" fill="#231916"/>
<path d="M223.127 369.378C217.903 380.203 212.328 391.146 199.236 387.74C181.297 383.084 183.84 366.865 189.065 356.027C194.29 345.189 208.776 338.281 219.281 343.344C229.786 348.406 228.352 358.54 223.127 369.378Z" fill="#FFF1AC"/>
<path d="M187.019 383.723C185.939 382.489 185.042 381.106 184.354 379.617C180.106 370.459 184.565 359.265 186.683 354.876C189.752 348.81 194.857 344.016 201.104 341.334C207.768 338.412 214.794 338.29 220.398 340.991C226.182 343.774 229.317 348.172 229.706 354.044C230.016 358.611 228.628 364.009 225.483 370.54C223.092 375.502 220.118 381.668 215.974 385.788C211.183 390.548 205.318 392.077 198.537 390.311C193.58 389.003 189.713 386.799 187.019 383.723ZM222.227 348.684C221.076 347.431 219.682 346.425 218.13 345.726C213.941 343.672 208.491 343.847 203.251 346.144C198.131 348.32 193.942 352.231 191.421 357.189C186.055 368.33 188.031 375.046 189.129 377.417C190.874 381.182 194.497 383.803 199.875 385.196C210.38 387.941 214.945 380.25 220.725 368.245C223.433 362.634 224.684 357.966 224.442 354.39C224.376 352.291 223.594 350.278 222.227 348.684Z" fill="#231916"/>
<path d="M216.441 397.423C217.477 409.407 218.274 421.649 205.262 425.413C187.466 430.562 181.354 415.294 180.336 403.33C179.317 391.366 188.237 378.008 199.856 377.005C211.475 376.002 215.411 385.446 216.441 397.423Z" fill="#FFE57B"/>
<path d="M184.833 422.892C183.026 420.782 181.578 418.388 180.55 415.807C178.993 411.89 178.033 407.76 177.703 403.557C177.243 396.759 179.19 390.016 183.203 384.509C187.446 378.605 193.429 374.906 199.629 374.373C206.027 373.821 210.959 376 214.288 380.85C216.886 384.62 218.45 389.964 219.06 397.207C219.539 402.691 220.126 409.512 218.67 415.173C216.977 421.71 212.706 426.013 205.979 427.963C199.044 429.976 193.101 429.329 188.306 426.038C187.022 425.138 185.855 424.081 184.833 422.892ZM209.105 382.762C206.937 380.288 204.035 379.294 200.083 379.638C195.42 380.043 190.846 382.951 187.496 387.595C184.209 392.071 182.606 397.562 182.968 403.103C184.034 415.42 189.157 420.191 191.314 421.671C194.738 424.011 199.188 424.426 204.532 422.875C214.94 419.862 214.963 410.929 213.815 397.657C213.276 391.45 211.972 386.798 209.938 383.836C209.682 383.462 209.403 383.103 209.105 382.762Z" fill="#231916"/>
<path d="M219.51 433.302C220.546 445.286 221.336 457.522 208.325 461.286C190.535 466.441 184.417 451.166 183.405 439.209C182.392 427.252 191.306 413.887 202.919 412.878C214.532 411.868 218.481 421.312 219.51 433.302Z" fill="#FFE57B"/>
<path d="M187.902 458.772C186.094 456.657 184.648 454.259 183.619 451.674C182.059 447.76 181.101 443.632 180.779 439.431C180.314 432.632 182.262 425.888 186.279 420.383C190.509 414.478 196.497 410.785 202.698 410.24C209.097 409.688 214.029 411.867 217.363 416.724C219.955 420.487 221.518 425.844 222.136 433.081C222.608 438.558 223.196 445.379 221.732 451.046C220.046 457.577 215.781 461.887 209.048 463.843C202.107 465.849 196.164 465.202 191.375 461.918C190.091 461.017 188.924 459.96 187.902 458.772ZM212.175 418.629C210.013 416.162 207.105 415.161 203.153 415.505C198.49 415.91 193.916 418.818 190.565 423.462C187.282 427.939 185.68 433.429 186.038 438.97C187.103 451.287 192.227 456.058 194.384 457.538C197.814 459.885 202.258 460.293 207.602 458.742C218.009 455.729 218.032 446.808 216.884 433.524C216.345 427.317 215.047 422.672 213.014 419.71C212.755 419.334 212.475 418.973 212.175 418.629Z" fill="#231916"/>
<path d="M223.559 458.203C228.017 469.375 232.309 480.861 220.945 488.224C205.378 498.277 195.156 485.463 190.698 474.291C186.239 463.119 190.959 447.777 201.772 443.441C212.586 439.105 219.1 447.031 223.559 458.203Z" fill="#FCD12B"/>
<path d="M195.202 486.989L194.491 486.178C191.872 482.879 189.762 479.206 188.231 475.282C185.823 468.906 185.739 461.885 187.993 455.453C190.356 448.604 195.017 443.327 200.781 441.001C206.752 438.625 212.097 439.283 216.694 442.963C220.256 445.815 223.303 450.506 225.998 457.238C228.063 462.323 230.571 468.704 230.797 474.54C231.071 481.289 228.247 486.631 222.365 490.446C216.27 494.399 210.423 495.471 204.898 493.692C201.111 492.392 197.756 490.072 195.202 486.989ZM215.292 448.946C214.713 448.277 214.076 447.659 213.389 447.1C210.304 444.629 206.921 444.259 202.776 445.896C198.426 447.628 194.875 451.73 193.027 457.149C191.174 462.385 191.224 468.106 193.17 473.309C197.766 484.815 204.041 487.872 206.523 488.66C210.508 489.949 214.861 489.026 219.525 486.004C228.62 480.115 226.058 471.558 221.118 459.183C219.755 455.472 217.786 452.013 215.292 448.946Z" fill="#231916"/>
<path d="M324.067 206.966C323.194 217.289 322.583 227.884 334.619 231.176C351.06 235.65 356.54 222.485 357.382 212.153C358.224 201.822 349.886 190.272 339.182 189.387C328.477 188.501 324.916 196.616 324.067 206.966Z" fill="#FFE57B"/>
<path d="M325.253 228.64C320.106 222.766 320.851 213.81 321.431 206.753C321.952 200.419 323.377 195.718 325.787 192.4C328.864 188.139 333.442 186.231 339.39 186.72C345.129 187.188 350.704 190.416 354.695 195.57C358.471 200.312 360.361 206.282 360 212.333C359.666 216.437 358.107 226.537 350.748 231.693C346.254 234.842 340.586 235.518 333.904 233.701C330.578 232.921 327.563 231.157 325.253 228.64ZM349.718 197.827C347.017 194.564 343.161 192.468 338.953 191.977C334.861 191.643 332.042 192.762 330.073 195.479C328.278 197.971 327.146 201.902 326.709 207.172C325.807 218.417 325.877 226.026 335.305 228.591C340.404 229.978 344.55 229.596 347.736 227.355C353.232 223.495 354.471 215.254 354.75 211.89C354.975 207.156 353.477 202.501 350.534 198.785C350.255 198.468 349.99 198.138 349.718 197.827Z" fill="#231916"/>
<path d="M325.181 235.513C324.308 245.836 323.704 256.426 335.733 259.723C352.174 264.197 357.654 251.032 358.496 240.701C359.338 230.369 351.007 218.814 340.295 217.934C329.584 217.055 326.03 225.163 325.181 235.513Z" fill="#FFF1AC"/>
<path d="M326.403 257.215C321.262 251.348 321.994 242.391 322.582 235.329C323.102 228.995 324.52 224.299 326.93 220.981C330.014 216.714 334.592 214.807 340.54 215.295C346.272 215.769 351.855 218.991 355.845 224.146C359.614 228.891 361.502 234.858 361.151 240.908C360.809 245.019 359.257 255.112 351.898 260.269C347.398 263.423 341.736 264.094 335.048 262.283C331.724 261.496 328.713 259.731 326.403 257.215ZM350.862 226.409C348.163 223.143 344.305 221.046 340.097 220.558C336.017 220.225 333.193 221.338 331.223 224.067C329.429 226.547 328.29 230.484 327.859 235.748C326.957 246.992 327.021 254.607 336.449 257.172C341.548 258.56 345.734 258.142 348.879 255.936C354.381 252.084 355.621 243.829 355.9 240.466C356.126 235.732 354.626 231.077 351.677 227.367C351.358 226.989 351.104 226.686 350.832 226.375L350.862 226.409Z" fill="#231916"/>
<path d="M321.941 274.912C321.068 285.235 320.464 295.824 332.5 299.116C348.934 303.596 354.415 290.431 355.263 280.093C356.112 269.756 347.767 258.213 337.063 257.327C326.358 256.442 322.797 264.556 321.941 274.912Z" fill="#FFE57B"/>
<path d="M323.147 296.568C318.001 290.694 318.745 281.738 319.326 274.682C319.846 268.347 321.272 263.646 323.682 260.328C326.759 256.067 331.336 254.159 337.284 254.648C343.023 255.116 348.599 258.344 352.589 263.498C356.358 268.252 358.238 274.23 357.868 280.284C357.527 284.395 355.975 294.489 348.616 299.645C344.122 302.794 338.454 303.47 331.772 301.653C328.452 300.861 325.447 299.09 323.147 296.568ZM347.566 265.797C344.864 262.531 341.004 260.437 336.794 259.952C332.714 259.619 329.89 260.732 327.92 263.461C326.119 265.947 324.987 269.878 324.549 275.148C323.647 286.392 323.718 294.001 333.139 296.572C338.238 297.96 342.424 297.542 345.57 295.336C351.073 291.471 352.311 283.229 352.591 279.866C352.83 275.127 351.339 270.464 348.395 266.743C348.116 266.426 347.838 266.108 347.566 265.797Z" fill="#231916"/>
<path d="M313.203 313.776C312.214 325.766 311.469 337.996 324.517 341.691C342.338 346.773 348.395 331.525 349.361 319.508C350.327 307.49 341.375 294.245 329.74 293.266C318.106 292.287 314.186 301.791 313.203 313.776Z" fill="#FFE57B"/>
<path d="M314.8 338.865C312.987 336.75 311.696 334.239 311.03 331.534C309.538 325.876 310.103 319.048 310.554 313.575C311.153 306.335 312.66 300.977 315.306 297.178C318.627 292.308 323.548 290.112 329.912 290.666C336.125 291.197 342.112 294.853 346.372 300.739C350.401 306.228 352.373 312.959 351.943 319.754C351.54 324.6 349.715 336.509 341.407 342.259C336.629 345.561 330.687 346.238 323.742 344.257C320.3 343.368 317.193 341.494 314.8 338.865ZM340.739 302.137C337.553 298.501 333.542 296.268 329.482 295.93C324.991 295.563 321.864 296.904 319.642 300.177C317.618 303.145 316.33 307.798 315.818 314.005C315.031 323.608 314.84 330.932 318.719 335.36C320.455 337.236 322.704 338.56 325.186 339.169C330.537 340.694 334.979 340.268 338.409 337.896C340.558 336.408 345.67 331.619 346.681 319.298C347.02 313.756 345.396 308.271 342.093 303.806C341.68 303.225 341.22 302.66 340.752 302.126L340.739 302.137Z" fill="#231916"/>
<path d="M306.91 349.17C305.921 361.16 305.17 373.396 318.23 377.092C336.045 382.167 342.108 366.926 343.067 354.915C344.026 342.903 335.088 329.646 323.441 328.666C311.794 327.687 307.899 337.192 306.91 349.17Z" fill="#FFF1AC"/>
<path d="M308.514 374.254C306.699 372.139 305.41 369.625 304.751 366.917C303.258 361.259 303.823 354.444 304.275 348.958C304.873 341.731 306.381 336.36 309.026 332.561C312.341 327.698 317.269 325.495 323.633 326.049C329.845 326.58 335.832 330.237 340.098 336.129C344.128 341.618 346.099 348.349 345.669 355.144C345.266 360.002 343.435 371.905 335.133 377.649C330.361 380.958 324.413 381.628 317.468 379.647C314.021 378.763 310.908 376.888 308.514 374.254ZM334.459 337.521C331.273 333.884 327.262 331.651 323.195 331.319C318.711 330.946 315.584 332.3 313.356 335.566C311.339 338.528 310.05 343.181 309.539 349.389C308.745 358.997 308.56 366.328 312.433 370.749C314.168 372.628 316.421 373.951 318.907 374.552C324.258 376.077 328.705 375.658 332.129 373.279C334.278 371.791 339.39 367.002 340.401 354.682C340.74 349.139 339.116 343.654 335.814 339.19C335.38 338.626 334.927 338.055 334.459 337.521Z" fill="#231916"/>
<path d="M297.056 385.356C296.073 397.34 295.322 409.575 308.375 413.278C326.197 418.359 332.254 403.112 333.213 391.1C334.172 379.089 325.234 365.831 313.587 364.852C301.939 363.872 298.051 373.372 297.056 385.356Z" fill="#FFE57B"/>
<path d="M298.653 410.445C296.841 408.329 295.55 405.818 294.883 403.114C293.403 397.457 293.962 390.634 294.414 385.149C295.012 377.922 296.52 372.551 299.165 368.752C302.48 363.889 307.408 361.686 313.778 362.247C319.99 362.778 325.977 366.434 330.237 372.32C334.269 377.808 336.241 384.539 335.809 391.335C335.405 396.193 333.574 408.096 325.272 413.84C320.5 417.149 314.552 417.819 307.607 415.838C304.159 414.955 301.046 413.08 298.653 410.445ZM324.599 373.712C321.412 370.075 317.401 367.842 313.335 367.51C308.85 367.137 305.723 368.491 303.495 371.757C301.478 374.719 300.19 379.372 299.684 385.586C298.884 395.188 298.699 402.519 302.578 406.947C304.313 408.825 306.566 410.149 309.052 410.75C314.403 412.275 318.85 411.855 322.274 409.477C324.423 407.989 329.528 403.205 330.552 390.886C330.883 385.341 329.258 379.856 325.959 375.387C325.533 374.805 325.098 374.254 324.612 373.7L324.599 373.712Z" fill="#231916"/>
<path d="M285.947 410.943C278.181 420.136 270.451 429.656 278.891 440.244C290.408 454.754 304.22 445.821 311.99 436.647C319.761 427.474 320.185 411.415 311.289 403.879C302.393 396.343 293.712 401.75 285.947 410.943Z" fill="#FFF1AC"/>
<path d="M277.783 443.03C277.452 442.652 277.114 442.266 276.771 441.874C272.413 436.396 271.42 430.42 273.841 424.129C275.922 418.662 280.343 413.439 283.9 409.248C294.371 396.884 304.152 394.396 312.969 401.87C317.696 405.901 320.459 412.369 320.502 419.632C320.593 426.446 318.281 433.073 313.973 438.352C311.277 441.595 308.106 444.413 304.568 446.71C300.944 449.156 296.683 450.489 292.31 450.543C286.938 450.411 282.053 447.904 277.783 443.03ZM310.987 407.286C310.545 406.777 310.066 406.303 309.553 405.866C301.35 398.918 293.685 405.824 287.924 412.628C279.304 422.796 274.167 430.092 280.912 438.569C284.382 442.925 288.246 445.167 292.4 445.231C295.015 445.27 301.961 444.347 309.946 434.914C313.443 430.6 315.308 425.192 315.215 419.64C315.336 415.146 313.841 410.758 311.001 407.274L310.987 407.286Z" fill="#231916"/>
<path d="M267.351 450.46C259.592 459.647 251.856 469.16 260.289 479.754C271.813 494.272 285.618 485.331 293.395 476.152C301.173 466.973 301.59 450.92 292.694 443.384C283.798 435.848 275.128 441.281 267.351 450.46Z" fill="#FFE57B"/>
<path d="M259.211 482.575C258.88 482.196 258.542 481.811 258.199 481.419C253.835 475.947 252.841 469.971 255.263 463.68C257.343 458.213 261.777 452.99 265.328 448.792C270.031 443.25 274.386 439.793 278.681 438.217C284.208 436.194 289.494 437.263 294.397 441.414C299.13 445.453 301.887 451.914 301.929 459.19C302.027 465.994 299.73 472.617 295.439 477.899C292.738 481.138 289.566 483.953 286.029 486.25C282.408 488.7 278.148 490.035 273.777 490.09C268.372 489.962 263.481 487.449 259.211 482.575ZM269.372 452.167C260.758 462.342 255.614 469.645 262.365 478.115C265.829 482.464 269.693 484.707 273.854 484.778C276.469 484.817 283.401 483.892 291.399 474.46C294.889 470.143 296.754 464.737 296.669 459.186C296.633 453.459 294.57 448.444 290.999 445.419C287.538 442.477 284.234 441.787 280.527 443.147C277.158 444.39 273.411 447.422 269.344 452.204L269.372 452.167Z" fill="#231916"/>
<path d="M303.606 199.526C299.103 208.883 294.252 218.294 281.006 214.439C262.874 209.139 264.375 194.801 268.884 185.45C273.393 176.1 287.37 170.833 298.133 176.027C308.897 181.222 308.132 190.196 303.606 199.526Z" fill="#FFF1AC"/>
<path d="M267.855 209.71C266.667 208.357 265.69 206.832 264.956 205.188C263.419 201.756 261.591 194.528 266.525 184.326C269.027 179.136 274.056 174.933 280.329 172.807C286.524 170.613 293.33 170.921 299.302 173.665C305.122 176.476 308.462 180.575 309.228 185.854C309.846 190.092 308.801 194.914 306.006 200.697C301.769 209.499 295.947 221.565 280.289 216.989C274.866 215.408 270.709 212.968 267.855 209.71ZM301.81 181.874C300.456 180.414 298.823 179.24 297.007 178.424C292.284 176.283 286.914 176.061 282.031 177.804C277.164 179.463 273.144 182.758 271.278 186.615C267.145 195.194 268.86 200.956 269.786 203.036C271.609 207.15 275.641 210.129 281.764 211.922C292.342 215.009 296.346 208.574 301.265 198.422C303.568 193.632 304.459 189.794 304.052 186.601C303.79 184.838 303.01 183.193 301.81 181.874Z" fill="#231916"/>
<path d="M296.33 228.003C291.821 237.354 286.977 246.771 273.589 242.837C255.253 237.454 256.705 223.087 261.221 213.718C265.738 204.348 279.818 199.158 290.712 204.406C301.605 209.654 300.851 218.666 296.33 228.003Z" fill="#FFE57B"/>
<path d="M260.224 237.973C259.019 236.599 258.028 235.049 257.286 233.378C255.755 229.94 253.927 222.725 258.826 212.578C261.327 207.388 266.393 203.201 272.683 201.12C278.94 198.963 285.788 199.301 291.802 202.064C297.685 204.892 301.068 209.013 301.859 214.307C302.49 218.532 301.456 223.393 298.673 229.177C294.43 237.972 288.614 250.045 272.796 245.395C267.331 243.767 263.12 241.279 260.224 237.973ZM294.484 210.349C293.099 208.853 291.425 207.653 289.565 206.82C284.793 204.646 279.366 204.397 274.415 206.125C269.505 207.762 265.468 211.037 263.608 214.9C259.498 223.411 261.213 229.174 262.132 231.259C263.99 235.439 268.106 238.488 274.347 240.32C285.055 243.473 289.042 237.005 293.972 226.879C296.275 222.089 297.16 218.244 296.699 215.087C296.439 213.316 295.662 211.661 294.466 210.328L294.484 210.349Z" fill="#231916"/>
<path d="M287.492 260.479C282.989 269.836 278.138 279.247 264.744 275.318C246.414 269.929 247.866 255.562 252.382 246.206C256.897 236.849 270.972 231.64 281.866 236.887C292.76 242.135 292 251.128 287.492 260.479Z" fill="#FFE57B"/>
<path d="M251.391 270.456C250.184 269.082 249.193 267.533 248.453 265.861C246.923 262.423 245.094 255.207 249.993 245.061C252.495 239.87 257.561 235.683 263.884 233.572C270.141 231.415 276.989 231.754 283.004 234.517C288.885 237.357 292.275 241.472 293.06 246.759C293.691 250.985 292.663 255.853 289.874 261.63C285.637 270.431 279.815 282.497 263.997 277.848C258.506 276.231 254.305 273.781 251.391 270.456ZM285.591 242.789C284.205 241.293 282.532 240.093 280.671 239.26C275.897 237.084 270.467 236.837 265.515 238.571C260.612 240.203 256.568 243.483 254.714 247.341C250.611 255.858 252.319 261.626 253.245 263.706C255.096 267.879 259.206 270.934 265.447 272.766C276.161 275.913 280.172 269.484 285.078 259.319C287.387 254.536 288.266 250.684 287.799 247.533C287.546 245.768 286.778 244.118 285.591 242.789Z" fill="#231916"/>
<path d="M278.922 291.966C274.413 301.317 269.569 310.734 256.181 306.799C237.845 301.417 239.297 287.049 243.813 277.68C248.33 268.311 262.41 263.121 273.303 268.369C284.197 273.616 283.438 282.609 278.922 291.966Z" fill="#FFF1AC"/>
<path d="M242.822 301.943C241.618 300.567 240.627 299.018 239.884 297.348C238.353 293.91 236.524 286.694 241.423 276.548C243.925 271.357 248.991 267.17 255.321 265.053C261.577 262.898 268.423 263.239 274.434 266.004C280.317 268.832 283.7 272.953 284.49 278.246C285.122 282.472 284.087 287.333 281.304 293.117C277.061 301.912 271.246 313.984 255.434 309.329C249.936 307.718 245.694 305.221 242.822 301.943ZM277.082 274.318C275.696 272.824 274.026 271.622 272.17 270.784C267.394 268.614 261.966 268.367 257.013 270.094C252.103 271.732 248.066 275.006 246.206 278.87C242.102 287.387 243.811 293.143 244.736 295.236C246.588 299.408 250.704 302.457 256.945 304.289C267.66 307.436 271.67 301.008 276.569 290.849C278.873 286.059 279.757 282.213 279.297 279.056C279.036 277.282 278.257 275.624 277.058 274.291L277.082 274.318Z" fill="#231916"/>
<path d="M276.371 323.749C271.234 334.402 265.711 345.131 250.443 340.645C229.544 334.52 231.206 318.141 236.343 307.476C241.48 296.81 257.538 290.878 269.95 296.863C282.362 302.848 281.469 313.093 276.371 323.749Z" fill="#FFF1AC"/>
<path d="M235.496 334.849C234.145 333.315 233.034 331.586 232.198 329.721C230.491 325.876 228.45 317.723 233.948 306.324C236.759 300.491 242.451 295.791 249.569 293.415C256.614 290.97 264.331 291.341 271.109 294.449C277.701 297.623 281.493 302.211 282.37 308.121C283.082 312.875 281.899 318.343 278.762 324.855C273.986 334.774 267.441 348.346 249.711 343.137C243.493 341.345 238.747 338.56 235.496 334.849ZM274.515 303.342C272.903 301.599 270.955 300.201 268.787 299.231C263.263 296.71 256.977 296.42 251.244 298.423C245.475 300.347 240.905 304.064 238.686 308.636C237.1 311.913 233.774 320.323 237.001 327.593C239.17 332.455 243.922 335.998 251.15 338.125C263.638 341.796 268.288 334.366 273.949 322.608C276.613 317.084 277.64 312.623 277.087 308.95C276.801 306.868 275.907 304.917 274.515 303.342Z" fill="#231916"/>
<path d="M267.244 357.218C262.107 367.871 256.584 378.6 241.321 374.121C220.417 367.989 222.078 351.61 227.221 340.952C232.364 330.293 248.417 324.354 260.829 330.339C273.241 336.324 272.387 346.559 267.244 357.218Z" fill="#FFE57B"/>
<path d="M226.381 368.332C225.031 366.797 223.919 365.069 223.083 363.204C221.376 359.359 219.341 351.213 224.832 339.806C227.644 333.974 233.336 329.274 240.454 326.897C247.504 324.468 255.22 324.857 261.991 327.982C268.577 331.15 272.375 335.744 273.246 341.648C273.957 346.401 272.78 351.877 269.638 358.382C264.862 368.301 258.322 381.88 240.586 376.664C234.401 374.854 229.632 372.043 226.381 368.332ZM265.4 336.824C263.79 335.083 261.844 333.687 259.678 332.721C254.152 330.197 247.865 329.905 242.129 331.905C236.36 333.83 231.796 337.541 229.571 342.119C227.991 345.403 224.665 353.813 227.898 361.076C230.054 365.938 234.813 369.487 242.035 371.607C254.523 375.279 259.173 367.848 264.84 356.097C267.561 350.583 268.576 346.109 268.005 342.416C267.703 340.337 266.798 338.393 265.4 336.824Z" fill="#231916"/>
<path d="M258.498 389.349C253.367 400.009 247.838 410.731 232.576 406.252C211.677 400.127 213.333 383.742 218.476 373.083C223.619 362.424 239.671 356.485 252.083 362.47C264.495 368.455 263.654 378.678 258.498 389.349Z" fill="#FFE57B"/>
<path d="M217.635 400.463C216.282 398.931 215.17 397.202 214.337 395.335C212.636 391.497 210.595 383.344 216.093 371.945C218.904 366.112 224.59 361.406 231.707 359.042C238.746 356.608 246.454 356.987 253.22 360.1C265.232 365.886 267.804 376.119 260.873 390.506C256.092 400.418 249.545 414.003 231.822 408.788C225.638 406.966 220.886 404.174 217.635 400.463ZM256.617 368.941C255.017 367.208 253.084 365.818 250.932 364.853C245.406 362.332 239.12 362.04 233.383 364.037C227.614 365.962 223.044 369.678 220.825 374.251C219.245 377.535 215.919 385.944 219.146 393.214C221.309 398.069 226.067 401.619 233.295 403.746C245.777 407.411 250.427 399.98 256.094 388.229C260.284 379.564 260.502 373.375 256.617 368.941Z" fill="#231916"/>
<path d="M251.344 417.529C251.371 429.357 251.077 441.432 235.384 444.044C213.908 447.625 208.255 432.171 208.234 420.336C208.213 408.502 220.071 396.166 233.855 396.134C247.639 396.102 251.323 405.695 251.344 417.529Z" fill="#FFF1AC"/>
<path d="M212.072 440.046C209.052 436.598 205.617 430.455 205.577 420.358C205.571 413.887 208.646 407.168 214.01 401.931C219.289 396.676 226.391 393.66 233.838 393.509C247.169 393.479 253.946 401.569 253.98 417.537C253.998 428.55 254.027 443.626 235.81 446.658C226.775 448.169 219.513 446.658 214.211 442.174C213.446 441.519 212.731 440.807 212.072 440.046ZM244.742 402.833C242.314 400.062 238.72 398.755 233.847 398.77C227.773 398.91 221.988 401.389 217.697 405.69C213.348 409.93 210.855 415.268 210.865 420.326C210.873 423.963 211.545 432.98 217.619 438.113C221.684 441.553 227.508 442.664 234.94 441.423C247.774 439.284 248.707 430.557 248.668 417.543C248.711 410.719 247.431 405.902 244.742 402.833Z" fill="#231916"/>
<path d="M248.439 453.899C248.459 465.733 248.166 477.795 232.479 480.414C210.996 484.001 205.349 468.541 205.322 456.712C205.295 444.884 217.166 432.536 230.943 432.51C244.72 432.484 248.418 442.065 248.439 453.899Z" fill="#FFE57B"/>
<path d="M209.166 476.416C206.146 472.968 202.699 466.824 202.671 456.728C202.66 450.251 205.727 443.537 211.098 438.306C216.374 433.05 223.474 430.032 230.919 429.878C238.231 429.864 243.646 432.349 246.987 437.308C249.699 441.277 251.021 446.714 251.034 453.943C251.058 464.949 251.088 480.026 232.87 483.07C223.842 484.575 216.543 483.036 211.265 478.58C210.513 477.912 209.811 477.188 209.166 476.416ZM241.85 439.192C239.482 436.488 235.897 435.124 230.947 435.147C224.88 435.309 219.109 437.799 214.827 442.1C210.471 446.347 207.985 451.679 207.989 456.729C207.997 460.366 208.662 469.39 214.742 474.53C218.808 477.957 224.672 479.045 232.063 477.839C244.903 475.694 245.837 466.967 245.791 453.96C245.783 447.826 244.759 443.358 242.663 440.296C242.415 439.911 242.144 439.543 241.85 439.192Z" fill="#231916"/>
<path d="M241.917 482.241C241.946 492.312 241.689 502.574 228.339 504.806C210.064 507.853 205.258 494.703 205.235 484.639C205.212 474.575 215.312 464.066 227.033 464.037C238.753 464.009 241.93 472.205 241.917 482.241Z" fill="#FFE57B"/>
<path d="M208.205 501.668C205.587 498.68 202.614 493.363 202.592 484.637C202.587 479.026 205.245 473.209 209.894 468.682C214.447 464.135 220.578 461.52 227.011 461.381C233.367 461.367 238.083 463.545 241.034 467.841C243.393 471.283 244.561 475.958 244.556 482.212C244.562 491.765 244.596 504.747 228.761 507.388C220.963 508.688 214.668 507.368 210.054 503.465C209.392 502.915 208.774 502.314 208.205 501.668ZM236.02 469.987C234.066 467.757 231.113 466.676 227.043 466.681C221.982 466.818 217.167 468.897 213.597 472.487C210.023 475.976 207.889 480.522 207.896 484.65C207.917 493.784 211.818 498.073 213.501 499.489C216.867 502.336 221.723 503.255 227.924 502.219C238.569 500.445 239.32 493.502 239.298 482.266C239.293 477.133 238.468 473.435 236.707 470.867C236.497 470.56 236.268 470.266 236.02 469.987Z" fill="#231916"/>
<path d="M312.21 140.612C311.643 147.452 316.748 154.152 323.829 154.734C330.67 155.301 333.241 149.93 333.808 143.089C334.374 136.248 331.749 128.273 324.643 127.664C317.538 127.055 312.758 133.763 312.21 140.612Z" fill="#FFF1AC"/>
<path d="M313.533 152.201L313.065 151.667C310.511 148.492 309.257 144.467 309.555 140.404C309.867 136.434 311.42 132.662 313.993 129.622C315.308 128.049 316.981 126.812 318.872 126.016C320.762 125.221 322.816 124.889 324.861 125.048C329.003 125.398 332.404 127.807 334.427 131.877C336.093 135.436 336.785 139.374 336.431 143.288C335.345 156.354 327.926 157.705 323.587 157.348C319.691 157.013 316.082 155.165 313.533 152.201ZM328.511 132.365C328.002 131.765 327.378 131.273 326.677 130.917C325.975 130.561 325.21 130.349 324.425 130.292C323.202 130.206 321.977 130.414 320.852 130.901C319.727 131.387 318.735 132.137 317.961 133.088C316.128 135.27 315.031 137.974 314.827 140.816C314.636 143.523 315.473 146.203 317.171 148.32C317.994 149.378 319.027 150.255 320.204 150.895C321.382 151.535 322.679 151.925 324.014 152.039C330.341 152.566 330.914 145.732 331.151 142.812C331.447 139.853 330.952 136.869 329.716 134.164C329.39 133.517 328.985 132.913 328.511 132.365Z" fill="#231916"/>
<path d="M306.77 167.038C305.897 177.362 313.639 187.521 324.35 188.401C334.674 189.274 338.606 181.133 339.455 170.783C340.304 160.433 336.313 148.349 325.609 147.464C314.904 146.578 307.62 156.688 306.77 167.038Z" fill="#FFF1AC"/>
<path d="M309.81 183.696L309.146 182.939C305.492 178.402 303.696 172.648 304.122 166.838C304.56 161.123 306.786 155.691 310.484 151.311C312.336 149.09 314.693 147.344 317.358 146.219C320.022 145.095 322.917 144.624 325.801 144.846C337.817 145.838 343.076 158.769 342.063 171.019C341.56 177.195 340.043 182.025 337.574 185.383C334.476 189.567 329.818 191.532 324.111 191.06C318.564 190.57 313.43 187.926 309.81 183.696ZM332.479 153.656C331.598 152.62 330.519 151.769 329.305 151.154C328.092 150.54 326.768 150.173 325.411 150.075C323.35 149.925 321.282 150.272 319.383 151.088C317.484 151.903 315.809 153.163 314.498 154.761C311.54 158.283 309.766 162.646 309.426 167.233C309.101 171.697 310.487 176.117 313.303 179.596C314.663 181.339 316.367 182.785 318.308 183.845C320.249 184.904 322.387 185.554 324.589 185.755C328.47 186.094 331.357 184.915 333.357 182.207C335.245 179.657 336.421 175.735 336.84 170.553C337.259 165.371 336.225 157.973 332.459 153.674L332.479 153.656Z" fill="#231916"/>
<path d="M300.242 195.1C299.352 205.881 301.25 216.381 316.985 220.662C334.101 225.32 339.809 211.61 340.698 200.842C341.588 190.074 332.893 178.049 321.745 177.135C319.152 176.897 316.538 177.173 314.053 177.948C311.567 178.723 309.259 179.982 307.262 181.651C305.264 183.32 303.615 185.367 302.411 187.676C301.206 189.984 300.469 192.507 300.242 195.1Z" fill="#FFE57B"/>
<path d="M302.729 215.491C301.671 214.287 300.766 212.957 300.036 211.53C297.093 205.853 297.244 199.316 297.607 194.888C297.832 191.961 298.639 189.108 299.98 186.496C301.322 183.885 303.171 181.568 305.42 179.68C307.694 177.766 310.324 176.319 313.16 175.425C315.995 174.53 318.979 174.204 321.94 174.466C327.888 174.955 333.66 178.297 337.797 183.634C341.712 188.553 343.673 194.745 343.304 201.021C342.952 205.284 341.31 215.779 333.717 221.105C329.063 224.37 323.19 225.058 316.264 223.181C310.313 221.584 305.856 219.06 302.729 215.491ZM302.871 195.319C301.544 211.452 309.204 215.804 317.681 218.116C323.018 219.57 327.414 219.147 330.708 216.811C336.478 212.772 337.78 204.14 338.049 200.642C338.289 195.685 336.719 190.81 333.631 186.925C330.404 182.751 325.985 180.147 321.506 179.781C319.232 179.572 316.938 179.814 314.758 180.494C312.577 181.174 310.553 182.279 308.8 183.744C307.092 185.182 305.689 186.947 304.67 188.934C303.652 190.922 303.041 193.092 302.871 195.319Z" fill="#231916"/>
<path d="M290.315 228.052C289.325 239.673 291.344 251.047 308.214 255.67C326.543 260.689 332.661 245.866 333.628 234.218C334.595 222.57 325.294 209.594 313.355 208.608C310.563 208.361 307.75 208.669 305.078 209.514C302.406 210.359 299.928 211.725 297.786 213.532C295.644 215.34 293.882 217.553 292.599 220.045C291.317 222.537 290.541 225.258 290.315 228.052Z" fill="#FFE57B"/>
<path d="M293.136 250.038C291.988 248.727 291.008 247.278 290.218 245.725C287.104 239.634 287.269 232.608 287.687 227.834C287.942 224.695 288.815 221.637 290.257 218.837C291.698 216.037 293.679 213.549 296.086 211.518C298.492 209.486 301.277 207.95 304.279 206.999C307.281 206.047 310.442 205.699 313.58 205.974C319.901 206.493 326.039 210.077 330.431 215.799C334.587 221.088 336.662 227.716 336.263 234.43C335.883 239.029 334.123 250.344 325.984 256.041C321.061 259.506 314.819 260.195 307.496 258.247C301.186 256.499 296.435 253.803 293.136 250.038ZM292.944 228.27C291.494 245.873 299.76 250.615 308.911 253.124C314.647 254.694 319.372 254.223 322.951 251.721C329.254 247.31 330.675 237.857 330.993 234.006C331.291 228.607 329.604 223.285 326.249 219.045C322.767 214.497 317.993 211.666 313.154 211.257C310.693 211.043 308.215 211.319 305.862 212.07C303.509 212.82 301.328 214.031 299.447 215.631C297.583 217.208 296.05 219.138 294.936 221.311C293.823 223.484 293.152 225.856 292.961 228.29L292.944 228.27Z" fill="#231916"/>
<path d="M285.572 259.938C284.041 275.688 288.312 284.504 304.559 288.921C323.966 294.202 330.437 278.664 331.456 266.433C332.474 254.203 322.609 240.597 309.973 239.553C307.032 239.287 304.067 239.604 301.249 240.484C298.43 241.365 295.813 242.793 293.547 244.687C291.28 246.58 289.41 248.902 288.041 251.519C286.673 254.135 285.834 256.996 285.572 259.938Z" fill="#FFE57B"/>
<path d="M288.162 282.82C283.502 277.5 281.936 270.053 282.946 259.682C283.24 256.4 284.177 253.208 285.705 250.289C287.233 247.369 289.321 244.779 291.849 242.667C294.378 240.555 297.299 238.961 300.443 237.978C303.588 236.995 306.896 236.641 310.178 236.936C316.822 237.483 323.288 241.222 327.912 247.196C332.29 252.704 334.485 259.633 334.077 266.658C333.685 271.446 331.856 283.216 323.368 289.183C318.186 292.815 311.626 293.591 303.875 291.481C296.787 289.541 291.621 286.767 288.162 282.82ZM288.204 260.201C286.697 275.692 291.155 282.54 305.256 286.375C311.419 288.05 316.49 287.538 320.323 284.849C326.999 280.195 328.483 270.268 328.814 266.227C329.12 260.515 327.31 254.89 323.731 250.428C320.01 245.623 314.91 242.624 309.747 242.2C307.15 241.965 304.533 242.245 302.044 243.023C299.555 243.8 297.244 245.061 295.243 246.733C293.242 248.405 291.591 250.456 290.383 252.766C289.175 255.077 288.435 257.604 288.204 260.201Z" fill="#231916"/>
<path d="M278.44 286.151C276.909 301.902 281.174 310.711 297.427 315.134C316.834 320.416 323.305 304.877 324.323 292.647C325.342 280.416 315.477 266.811 302.841 265.766C299.9 265.5 296.935 265.817 294.117 266.698C291.298 267.579 288.681 269.007 286.415 270.9C284.148 272.793 282.277 275.115 280.909 277.732C279.541 280.349 278.702 283.21 278.44 286.151Z" fill="#FFE57B"/>
<path d="M281.03 309.033C276.369 303.713 274.804 296.267 275.814 285.895C276.107 282.613 277.043 279.42 278.571 276.5C280.098 273.58 282.186 270.99 284.715 268.878C287.244 266.765 290.165 265.172 293.31 264.189C296.456 263.206 299.764 262.853 303.046 263.149C309.69 263.697 316.156 267.435 320.78 273.409C325.158 278.917 327.353 285.846 326.945 292.871C326.553 297.66 324.718 309.422 316.236 315.396C311.054 319.028 304.494 319.805 296.742 317.694C289.655 315.755 284.495 312.975 281.03 309.033ZM315.637 275.476C313.169 272.447 309.847 270.229 306.103 269.11C302.359 267.991 298.365 268.022 294.639 269.2C290.913 270.378 287.627 272.649 285.207 275.717C282.787 278.785 281.344 282.51 281.066 286.408C279.559 301.898 284.023 308.753 298.118 312.582C304.287 314.263 309.352 313.744 313.191 311.062C319.867 306.408 321.351 296.482 321.681 292.44C321.986 286.728 320.176 281.104 316.598 276.642C316.287 276.245 315.999 275.889 315.637 275.476Z" fill="#231916"/>
<path d="M271.483 328.234C269.887 344.865 273.95 354.126 289.616 358.67C308.325 364.096 314.697 347.653 315.76 334.75C316.822 321.848 307.405 307.552 295.199 306.549C282.993 305.545 272.702 315.361 271.483 328.234Z" fill="#FFE57B"/>
<path d="M274.294 352.869C269.397 347.278 267.772 339.287 268.857 327.978C270.254 313.371 281.926 302.8 295.411 303.913C301.876 304.474 308.166 308.367 312.609 314.666C316.822 320.553 318.875 327.714 318.422 334.939C318.08 339.475 317.073 343.936 315.433 348.179C313.455 353.054 310.683 356.75 307.187 359.156C302.216 362.578 296.07 363.255 288.909 361.177C282.407 359.334 277.605 356.647 274.294 352.869ZM274.109 328.477C272.53 344.963 276.778 352.198 290.35 356.139C295.918 357.749 300.557 357.317 304.136 354.814C306.464 353.217 311.991 348.029 313.107 334.518C313.486 328.521 311.782 322.577 308.282 317.692C304.735 312.675 299.86 309.538 294.963 309.157C284.378 308.286 275.221 316.763 274.092 328.457L274.109 328.477Z" fill="#231916"/>
<path d="M263.062 359.304C261.466 375.935 265.522 385.202 281.194 389.753C299.903 395.179 306.269 378.729 307.338 365.833C308.406 352.937 298.983 338.635 286.778 337.619C274.573 336.602 264.271 346.392 263.062 359.304Z" fill="#FFF1AC"/>
<path d="M265.85 383.911C260.952 378.321 259.315 370.329 260.406 359.014C261.81 344.414 273.474 333.849 286.966 334.956C293.426 335.51 299.721 339.41 304.165 345.709C308.372 351.617 310.409 358.798 309.929 366.036C309.585 370.57 308.575 375.029 306.934 379.27C304.956 384.157 302.183 387.853 298.66 390.282C293.696 393.699 287.55 394.376 280.389 392.298C273.929 390.406 269.16 387.69 265.85 383.911ZM265.665 359.52C264.079 375.999 268.333 383.241 281.899 387.175C287.467 388.798 292.113 388.359 295.686 385.85C298.014 384.253 303.541 379.065 304.656 365.554C305.032 359.555 303.324 353.611 299.819 348.727C296.285 343.711 291.434 340.601 286.505 340.199C275.928 339.322 266.763 347.805 265.641 359.493L265.665 359.52Z" fill="#231916"/>
<path d="M252.502 397.971C250.907 414.602 254.963 423.869 270.629 428.413C289.344 433.846 295.71 417.396 296.772 404.493C297.835 391.591 288.451 377.265 276.218 376.285C263.985 375.305 253.735 385.086 252.502 397.971Z" fill="#FFF1AC"/>
<path d="M255.32 422.612C250.416 417.015 248.785 409.03 249.876 397.715C251.28 383.115 262.939 372.543 276.436 373.657C282.896 374.211 289.191 378.111 293.635 384.41C297.847 390.297 299.9 397.458 299.447 404.683C299.103 409.217 298.094 413.676 296.452 417.916C294.474 422.804 291.695 426.493 288.178 428.929C283.201 432.357 277.079 433.048 269.912 430.964C263.427 429.071 258.63 426.391 255.32 422.612ZM255.135 398.221C253.549 414.7 257.797 421.935 271.369 425.876C276.931 427.492 281.577 427.053 285.156 424.551C287.478 422.947 293.011 417.765 294.12 404.248C294.484 398.269 292.777 392.347 289.286 387.479C285.752 382.462 280.871 379.319 275.966 378.944C265.394 378.074 256.224 386.549 255.108 398.245L255.135 398.221Z" fill="#231916"/>
<path d="M249.802 426.12C244.559 441.956 245.999 451.783 258.845 459.287C274.189 468.235 283.645 453.499 287.58 441.162C291.516 428.825 286.449 413.072 275.858 409.697C265.267 406.323 253.853 413.861 249.802 426.12Z" fill="#FFE57B"/>
<path d="M249.585 455.248C247.35 452.742 245.763 449.727 244.962 446.466C243.603 440.906 244.347 434.172 247.303 425.299C251.917 411.363 264.817 403.408 276.645 407.144C282.395 408.976 287.128 414.078 289.641 421.147C292.02 427.856 292.179 435.152 290.094 441.958C288.709 446.426 286.702 450.678 284.133 454.588C281.08 459.067 277.562 462.089 273.661 463.595C268.596 465.547 263.165 464.857 257.531 461.549C254.558 459.894 251.874 457.766 249.585 455.248ZM280.813 416.157C279.291 414.341 277.299 412.978 275.055 412.217C265.999 409.326 255.988 415.778 252.307 426.96C248.401 438.745 248.565 446.105 253.522 451.763C255.441 453.857 257.688 455.625 260.175 456.998C264.43 459.483 268.222 460.033 271.757 458.668C277.11 456.595 282.063 449.77 285.061 440.358C286.799 434.665 286.664 428.564 284.676 422.953C283.828 420.464 282.517 418.159 280.813 416.157Z" fill="#231916"/>
<path d="M240.434 451.09C235.191 466.926 236.631 476.752 249.477 484.256C264.82 493.205 274.277 478.469 278.212 466.131C282.148 453.794 277.087 438.048 266.49 434.667C255.893 431.286 244.512 438.807 240.434 451.09Z" fill="#FFE57B"/>
<path d="M240.217 480.219C237.983 477.712 236.396 474.697 235.594 471.437C234.235 465.876 234.979 459.143 237.934 450.269C242.555 436.341 255.454 428.385 267.292 432.16C273.043 433.992 277.776 439.094 280.289 446.163C282.642 452.856 282.789 460.126 280.709 466.908C279.327 471.378 277.32 475.63 274.748 479.538C271.694 484.017 268.176 487.039 264.275 488.546C259.21 490.497 253.779 489.808 248.145 486.499C245.18 484.849 242.502 482.727 240.217 480.219ZM271.39 441.092C269.882 439.293 267.909 437.943 265.687 437.187C256.636 434.303 246.62 440.749 242.939 451.931C237.708 467.672 239.741 475.557 250.807 481.969C255.062 484.454 258.854 485.003 262.389 483.638C267.748 481.572 272.695 474.741 275.693 465.329C278.432 456.727 276.311 446.709 271.39 441.092Z" fill="#231916"/>
<path d="M237.973 471.275C227.635 481.432 224.881 489.58 231.842 500.459C240.173 513.472 253.269 505.823 261.203 497.832C269.138 489.841 271.453 475.71 264.599 468.895C257.744 462.08 245.983 463.398 237.973 471.275Z" fill="#FFE57B"/>
<path d="M231.68 504.651C230.924 503.782 230.233 502.857 229.615 501.885C220.603 487.807 227.42 477.94 236.124 469.383C245.346 460.324 258.667 459.287 266.461 467.024C270.25 470.79 271.928 476.715 271.073 483.295C270.24 489.482 267.442 495.237 263.091 499.714C259.693 503.145 250.78 511.014 241.547 510.022C237.685 509.581 234.147 507.655 231.68 504.651ZM263.17 471.233L262.756 470.76C257.042 465.084 246.974 466.138 239.837 473.143C229.722 483.092 228.205 489.869 234.077 499.027C236.323 502.531 238.944 504.405 242.106 504.741C246.949 505.278 253.37 501.97 259.34 495.964C262.865 492.296 265.139 487.606 265.835 482.567C266.439 477.951 265.474 473.862 263.17 471.233Z" fill="#231916"/>
<path d="M223.627 502.578C223.627 502.578 172.577 486.367 172.531 434.708C172.486 383.049 161.492 367.554 129.332 363.004C97.1714 358.453 132.591 347.113 155.835 355.615C175.21 362.729 198.173 391.873 201.406 431.348C204.638 470.824 223.627 502.578 223.627 502.578Z" fill="#5FA125"/>
<path d="M187.135 481.081C183.709 477.187 180.723 472.927 178.23 468.38C172.664 458.036 169.803 446.453 169.914 434.707C169.913 408.793 167.07 392.729 160.754 382.574C154.775 373.021 145.304 367.925 128.981 365.617C122.293 364.666 115.291 363.165 114.032 359.274C113.793 358.475 113.791 357.625 114.026 356.825C114.26 356.026 114.722 355.312 115.355 354.769C119.123 351.133 129.279 350.206 132.271 350.034C137.362 349.708 147.324 349.678 156.757 353.135C167.327 357.018 178.325 366.762 186.909 379.888C196.8 395.274 202.696 412.884 204.064 431.123C207.207 469.542 225.711 500.92 225.9 501.232L229.467 507.212L222.836 505.099C213.224 501.665 204.285 496.576 196.426 490.063C193.091 487.324 189.984 484.32 187.135 481.081ZM161.521 374.734C162.907 376.321 164.16 378.021 165.267 379.815C172.129 390.853 175.201 407.792 175.217 434.733C175.107 445.597 177.749 456.312 182.898 465.879C187.188 473.615 192.929 480.451 199.807 486.013C205.331 490.533 211.394 494.352 217.856 497.382C216.056 493.786 213.734 488.831 211.331 482.787C206.565 470.869 200.53 452.32 198.835 431.606C197.545 414.243 191.941 397.477 182.531 382.828C174.554 370.627 164.52 361.628 154.987 358.139C148.563 355.797 140.191 354.792 132.012 355.398C125.779 355.853 121.664 357.116 119.903 358.038C121.124 358.64 123.857 359.592 129.763 360.427C144.799 362.548 154.669 366.913 161.521 374.734Z" fill="#231916"/>
<path d="M194.96 482.362C193.904 481.579 187.807 484.602 188.178 490.263C188.549 495.924 199.842 506.796 219.14 510.93C238.437 515.064 260.298 512.795 262.231 506.574C264.164 500.352 261.89 498.616 254.512 498.568C247.134 498.52 235.851 501.284 222.724 497.742C209.596 494.2 200.222 486.295 194.96 482.362Z" fill="#5FA125"/>
<path d="M189.497 498.343C187.087 495.592 185.7 492.864 185.549 490.44C185.47 488.425 185.963 486.43 186.969 484.683C187.976 482.937 189.456 481.51 191.238 480.569C193.359 479.416 195.238 479.311 196.518 480.268L198.217 481.552C203.741 485.757 212.085 492.104 223.42 495.196C232.442 497.651 240.66 496.94 247.27 496.37C249.883 496.148 252.343 495.928 254.537 495.978C258.445 496.007 262.341 496.417 264.345 499.154C266.22 501.717 265.481 505.088 264.761 507.416C263.135 512.652 254.459 514.601 247.477 515.318C237.816 516.183 228.081 515.594 218.596 513.569C205.367 510.689 194.88 504.488 189.497 498.343ZM194.103 485.025C192.935 485.546 190.638 487.343 190.813 490.093C191.086 494.251 201.525 504.462 219.698 508.362C228.642 510.275 237.824 510.834 246.935 510.021C255.565 509.139 259.345 506.963 259.715 505.803C260.558 503.069 260.166 502.349 260.085 502.229C259.895 502.012 259.016 501.241 254.467 501.176C252.545 501.164 250.303 501.36 247.681 501.613C240.661 502.219 231.918 502.973 221.966 500.246C209.654 496.898 200.449 489.896 194.937 485.691L194.103 485.025Z" fill="#231916"/>
<path d="M192.132 497.6C191.109 496.692 184.122 498.154 184.132 505.134C184.142 512.115 194.938 524.82 214.324 528.686C233.709 532.553 256.087 528.337 258.449 520.532C260.811 512.728 258.62 510.717 251.109 511.132C243.599 511.546 232.046 513.184 218.933 509.618C205.82 506.051 197.234 502.115 192.132 497.6Z" fill="#5FA125"/>
<path d="M186.948 516.79C183.477 512.828 181.492 508.653 181.503 505.119C181.443 503.116 181.977 501.139 183.039 499.438C184.101 497.738 185.643 496.391 187.471 495.566C189.414 494.688 192.242 494.193 193.881 495.614C198.772 499.943 207.186 503.695 219.605 507.07C230.309 509.986 240.087 509.269 247.236 508.742C248.548 508.644 249.789 508.56 250.946 508.49C254.519 508.299 258.456 508.47 260.6 511.204C262.744 513.938 261.937 518.062 260.952 521.302C259.028 527.767 249.037 530.546 243.23 531.595C233.48 533.29 223.501 533.184 213.789 531.281C202.175 528.934 194.541 523.889 190.21 520.049C189.053 519.034 187.964 517.946 186.948 516.79ZM190.884 500.007C189.682 500.19 188.592 500.817 187.829 501.764C187.066 502.711 186.686 503.909 186.763 505.123C186.778 510.486 196.422 522.421 214.826 526.095C223.875 527.883 233.175 527.985 242.261 526.398C248.419 525.245 254.996 522.769 255.9 519.778C257.136 515.733 256.619 514.692 256.443 514.464C256.267 514.236 255.383 513.541 251.234 513.77C250.108 513.848 248.906 513.922 247.62 514.009C240.123 514.602 229.779 515.301 218.217 512.168C205.404 508.685 196.445 504.705 190.89 500.014L190.884 500.007Z" fill="#231916"/>
<path d="M328.646 116.713C328.646 116.713 311.354 88.1927 286.294 105.261C267.868 117.819 268.946 135.442 250.48 142.336C232.014 149.23 272.225 150.396 280.896 130.29C290.307 108.424 326.033 126.781 328.646 116.713Z" fill="#D7E597"/>
<path d="M243.863 147.643C243.408 147.127 243.13 146.479 243.068 145.794C242.761 142.826 246.158 141.139 249.56 139.868C258.63 136.474 262.598 130.201 267.118 123.004C271.195 116.529 275.811 109.211 284.808 103.074C292.416 97.9018 300.145 96.1132 307.779 97.7765C321.981 100.867 330.553 114.757 330.902 115.346L331.483 116.295L331.221 117.361C329.602 123.559 321.577 122.882 313.066 122.154C301.427 121.144 288.223 120.023 283.343 131.323C276.764 146.562 254.799 150.416 247.562 149.301C246.171 149.205 244.86 148.617 243.863 147.643ZM322.854 113.484C319.473 109.624 313.799 104.511 306.61 102.947C300.45 101.617 294.115 103.141 287.783 107.493C279.701 112.996 275.575 119.538 271.605 125.848C267.037 133.099 262.704 139.978 253.261 144.105C256.738 143.729 260.156 142.926 263.437 141.714C272.937 138.17 276.876 133.011 278.492 129.277C284.87 114.477 301.423 115.902 313.513 116.936C318.098 117.328 323.639 117.803 325.496 116.773C324.885 115.911 323.979 114.768 322.854 113.484Z" fill="#231916"/>
<path d="M338.246 270.556C361.851 266.843 373.081 263.731 376.064 254.439C378.246 247.629 376.013 243.73 375.049 235.865C373.658 224.622 390.764 219.708 390.117 242.331C390.117 242.331 390.671 254.665 380.626 268.185C369.75 282.815 336.935 287.022 336.935 287.022" fill="#FFF1AC"/>
<path d="M337.272 289.642L336.599 284.401C336.914 284.365 368.435 280.167 378.502 266.605C387.832 254.07 387.484 242.558 387.479 242.443L387.478 242.265C387.672 235.667 386.211 230.877 383.569 229.429C383.002 229.125 382.361 228.99 381.72 229.039C381.079 229.088 380.466 229.319 379.952 229.706C379.069 230.372 378.387 231.27 377.984 232.3C377.581 233.331 377.472 234.453 377.669 235.541C377.92 237.71 378.306 239.583 378.665 241.383C379.559 245.881 380.334 249.766 378.584 255.242C376.834 260.718 372.826 264.313 365.856 267.05C359.351 269.594 350.276 271.332 338.653 273.163L337.815 267.923C360.48 264.364 371.022 261.449 373.533 253.61C374.872 249.438 374.312 246.63 373.465 242.39C373.093 240.601 372.699 238.557 372.4 236.155C372.082 234.1 372.341 231.998 373.146 230.081C373.952 228.165 375.273 226.509 376.963 225.299C378.281 224.37 379.832 223.83 381.441 223.738C383.05 223.646 384.652 224.007 386.066 224.779C388.691 226.22 393.031 230.41 392.71 242.317C392.738 243.714 392.789 256.155 382.695 269.741C371.337 285.116 338.671 289.48 337.272 289.642Z" fill="#231916"/>
<path d="M409.059 173.26C406.303 170.442 404.575 172.697 403.98 174.472C403.385 176.248 402.078 180.32 400.028 185.509C397.979 190.698 394.558 192.548 394.558 192.548C394.558 192.548 388.741 188.91 383.806 186.59C384.784 183.834 385.288 168.111 384.461 164.331C383.894 161.733 383.623 160.728 381.452 160.718C379.281 160.709 378.325 163.04 378.427 164.48C378.548 167.828 378.44 171.181 378.102 174.514C377.681 178.658 377.031 185.13 376.572 186.966C376.219 188.155 375.707 189.29 375.05 190.342L368.842 187.047C367.09 185.263 364.808 184.093 362.337 183.714C357.132 182.778 354.574 188.328 356.851 188.663C359.128 188.998 361.818 191.277 361.818 191.277C361.818 191.277 368.646 199.071 369.854 200.45C371.062 201.829 370.967 204.039 372.501 207.331C373.442 209.419 374.498 211.454 375.665 213.425C376.773 215.357 376.464 218.974 376.464 218.974L370.984 243.895C384.208 254.557 395.896 243.146 395.896 243.146C395.896 243.146 395.176 227.049 396.348 221.172C397.52 215.295 398.446 214.388 399.877 212.19C401.309 209.992 403.018 204.66 403.813 201.681C404.608 198.702 405.396 190.736 406.506 187.911C407.616 185.087 411.433 175.697 409.059 173.26Z" fill="#FFF1AC"/>
<path d="M368.043 244.93L373.827 218.596C373.95 217.294 373.793 215.981 373.368 214.744L373.019 214.142C371.94 212.3 370.962 210.4 370.09 208.452C369.459 207.065 368.947 205.627 368.559 204.154C368.422 203.46 368.176 202.793 367.83 202.176C366.746 200.939 360.954 194.328 359.959 193.192C358.926 192.327 357.727 191.682 356.435 191.297C355.797 191.213 355.194 190.956 354.691 190.555C354.188 190.154 353.804 189.623 353.58 189.02C353.313 188.128 353.288 187.181 353.506 186.275C353.725 185.37 354.18 184.539 354.824 183.867C355.774 182.736 357.01 181.882 358.404 181.395C359.798 180.907 361.298 180.805 362.745 181.098C365.625 181.568 368.296 182.897 370.409 184.909L373.806 186.713L373.971 186.234C374.372 184.509 375.034 178.05 375.379 174.557L375.413 174.241C375.734 171.058 375.844 167.857 375.74 164.659C375.686 163.775 375.81 162.888 376.103 162.053C376.397 161.217 376.855 160.448 377.45 159.792C377.951 159.248 378.561 158.815 379.24 158.521C379.918 158.227 380.651 158.078 381.39 158.084C385.732 158.103 386.417 161.244 386.969 163.77C387.738 167.375 387.512 179.46 386.713 185.107C389.664 186.608 392.595 188.317 394.335 189.362C395.737 188.014 396.819 186.368 397.5 184.546C399.32 179.941 400.545 176.239 401.205 174.251L401.411 173.64C401.668 172.639 402.181 171.721 402.9 170.978C403.619 170.235 404.52 169.692 405.512 169.402C406.773 169.11 408.74 169.227 410.868 171.425C413.695 174.324 412.221 180.252 409.132 188.263L408.901 188.859C408.229 191.314 407.732 193.814 407.414 196.34C407.04 198.722 406.688 200.966 406.288 202.392C405.754 204.305 403.873 210.792 401.997 213.655C401.848 213.88 401.706 214.1 401.565 214.308C400.47 215.948 399.806 216.936 398.847 221.707C397.929 226.263 398.25 238.659 398.437 243.059L398.468 244.226L397.624 245.05C395.16 247.28 392.262 248.977 389.111 250.034C384.312 251.634 376.962 252.219 369.211 245.962L368.043 244.93ZM363.682 189.381L363.812 189.53C364.09 189.848 370.664 197.351 371.872 198.73C372.757 199.905 373.37 201.261 373.667 202.702C373.977 203.907 374.391 205.083 374.906 206.216C375.716 208.027 376.624 209.792 377.626 211.504L377.968 212.112C379.413 214.634 379.167 218.445 379.099 219.186L379.088 219.363L373.941 242.797C378.295 245.83 382.875 246.572 387.577 245.01C389.611 244.315 391.516 243.285 393.211 241.962C393.069 237.941 392.723 225.817 393.759 220.645C394.888 215.115 395.85 213.484 397.271 211.343C397.402 211.156 397.537 210.955 397.674 210.739C398.751 209.091 400.308 204.512 401.294 200.96C401.604 199.828 401.954 197.622 402.293 195.486C402.646 192.597 403.239 189.744 404.066 186.954L404.298 186.333C405.159 184.206 405.91 182.036 406.549 179.832C407.446 176.478 407.193 175.29 407.133 175.044C407.027 174.94 406.914 174.843 406.795 174.754C406.684 174.937 406.594 175.132 406.528 175.335L406.328 175.939C405.653 177.977 404.396 181.766 402.529 186.509C400.183 192.423 396.297 194.656 395.861 194.895L394.507 195.627L393.205 194.809C393.163 194.761 387.461 191.226 382.724 188.996L380.561 187.987L381.331 185.688C382.112 183.511 382.677 168.403 381.903 164.875C381.799 164.429 381.647 163.75 381.521 163.334L381.451 163.336C381.219 163.596 381.089 163.931 381.083 164.28C381.209 167.787 381.092 171.299 380.733 174.79L380.699 175.106C380.121 180.87 379.598 185.796 379.14 187.619L379.091 187.782C378.648 189.21 378.011 190.572 377.2 191.828L375.857 193.746L367.107 189.105L366.793 188.746C365.441 187.431 363.708 186.574 361.841 186.298C361.44 186.21 361.026 186.202 360.622 186.275C360.218 186.347 359.833 186.5 359.489 186.723C360.919 187.373 362.258 188.209 363.47 189.208L363.682 189.381Z" fill="#231916"/>
<path d="M390.596 182.625C390.319 181.975 389.873 181.411 389.306 180.991C388.738 180.57 388.068 180.309 387.366 180.234C384.15 179.646 383.688 183.169 383.688 183.169L380.601 198.084C380.601 198.084 379.474 202.143 382.665 202.812C385.856 203.481 386.9 201.073 387.222 199.954C387.545 198.836 390.596 182.625 390.596 182.625Z" fill="#FFF1AC"/>
<path d="M379.18 203.69C378.982 203.463 378.804 203.219 378.649 202.961C377.76 201.266 377.547 199.297 378.051 197.451L381.096 182.692C381.352 181.043 382.222 179.551 383.531 178.516C384.151 178.076 384.855 177.77 385.6 177.617C386.345 177.465 387.113 177.469 387.856 177.63C389.034 177.784 390.147 178.257 391.075 178.997C392.004 179.738 392.713 180.717 393.126 181.831L393.327 182.455L393.201 183.103C392.483 186.934 390.097 199.526 389.773 200.671C388.731 204.296 385.737 206.142 382.132 205.382C380.989 205.159 379.951 204.564 379.18 203.69ZM386.328 183.509L386.298 183.679L383.174 198.77C383.057 199.232 383.047 199.715 383.144 200.182L383.232 200.2C383.81 200.328 384.338 200.426 384.732 199.185C384.962 198.302 386.691 189.296 387.855 183.151C387.582 182.948 387.262 182.817 386.924 182.771C386.835 182.751 386.744 182.742 386.652 182.747C386.48 182.974 386.364 183.24 386.314 183.521L386.328 183.509Z" fill="#231916"/>
<path d="M396.47 192.426C398.479 191.419 399.995 185.539 399.995 185.539C399.736 184.668 399.274 183.87 398.646 183.213C398.019 182.556 397.243 182.058 396.385 181.759C392.828 180.264 391.994 184.221 391.994 184.221C391.994 184.221 388.77 194.465 388.047 197.022C387.324 199.579 385.875 203.954 389.573 204.478C390.572 204.649 391.599 204.422 392.434 203.847C393.269 203.271 393.846 202.393 394.043 201.398L397.755 187.824" fill="#FFF1AC"/>
<path d="M385.818 205.307C385.664 205.133 385.525 204.947 385.402 204.751C383.801 202.295 384.729 199.044 385.401 196.675L385.524 196.257C386.222 193.793 389.11 184.584 389.464 183.474C389.658 182.618 390.026 181.812 390.545 181.105C391.064 180.397 391.723 179.804 392.48 179.362C393.244 178.975 394.086 178.768 394.942 178.755C395.798 178.742 396.645 178.924 397.421 179.287C398.686 179.745 399.82 180.505 400.725 181.5C401.63 182.495 402.279 183.696 402.616 184.999L402.735 185.599L402.582 186.187C401.408 190.657 399.943 192.872 398.788 193.968L396.595 202.006C396.25 203.635 395.289 205.067 393.914 206.005C392.539 206.943 390.854 207.314 389.212 207.04C387.906 206.901 386.697 206.283 385.818 205.307ZM394.597 184.724L394.567 184.881L394.507 184.934C394.474 185.034 391.283 195.166 390.583 197.667L390.459 198.098C390.055 199.277 389.83 200.509 389.791 201.754C389.837 201.772 389.886 201.781 389.935 201.783C390.101 201.835 390.277 201.849 390.449 201.825C390.621 201.8 390.785 201.738 390.93 201.642C391.075 201.546 391.196 201.419 391.286 201.27C391.375 201.121 391.431 200.954 391.447 200.781L391.483 200.631L395.194 187.056L396.602 187.435C396.832 186.852 397.058 186.224 397.246 185.593C396.816 184.919 396.177 184.404 395.426 184.129C395.272 184.058 395.107 184.012 394.938 183.995C394.771 184.209 394.654 184.458 394.597 184.724Z" fill="#231916"/>
<path d="M238.194 251.777C215.95 243.271 205.644 237.903 204.665 228.221C203.955 221.137 206.94 217.793 209.516 210.328C213.201 199.655 197.546 191.291 193.48 213.503C193.48 213.503 190.388 225.412 197.366 240.674C204.93 257.19 236.051 268.111 236.051 268.111" fill="#FFF1AC"/>
<path d="M199.72 248.911C197.8 246.772 196.2 244.367 194.969 241.77C187.939 226.422 190.568 214.298 190.893 212.95C193.058 201.28 198.18 198.083 201.019 197.233C202.564 196.769 204.208 196.75 205.763 197.177C207.318 197.604 208.722 198.46 209.814 199.648C211.208 201.182 212.152 203.071 212.54 205.107C212.928 207.144 212.746 209.247 212.013 211.187C211.232 213.46 210.412 215.361 209.684 217.038C207.983 221.002 206.855 223.615 207.3 227.956C208.118 236.117 217.785 241.137 239.147 249.305L237.267 254.238C226.31 250.05 217.828 246.464 212.018 242.629C205.787 238.53 202.614 234.021 202.03 228.499C201.451 222.793 203.016 219.164 204.821 214.966C205.543 213.294 206.289 211.554 206.999 209.473C207.417 208.453 207.543 207.337 207.364 206.249C207.186 205.161 206.708 204.145 205.986 203.312C205.565 202.831 205.016 202.481 204.403 202.3C203.791 202.12 203.139 202.118 202.525 202.293C199.68 203.137 197.244 207.53 196.022 213.964L195.979 214.146C195.952 214.253 193.253 225.423 199.714 239.549C206.721 254.857 236.569 265.483 236.844 265.565L235.101 270.545C234.053 270.208 211.268 262.092 199.72 248.911Z" fill="#231916"/>
<path d="M189.354 142.24C192.619 140.061 193.844 142.62 194.053 144.48C194.261 146.341 194.695 150.573 195.619 156.06C196.543 161.547 199.479 164.053 199.479 164.053C199.479 164.053 205.913 161.714 211.204 160.471C210.828 157.587 213.592 142.154 215.18 138.647C216.276 136.23 216.752 135.299 218.875 135.745C220.998 136.191 221.427 138.659 221.031 140.034C220.235 143.287 219.655 146.588 219.295 149.918C218.845 154.04 218.138 160.49 218.232 162.343C218.326 163.576 218.587 164.791 219.007 165.954L225.71 164.059C227.788 162.679 230.256 162.009 232.747 162.149C238.002 162.324 239.349 168.253 237.065 168.115C234.782 167.977 231.679 169.631 231.679 169.631C231.679 169.631 223.405 175.816 221.968 176.944C220.531 178.072 220.135 180.211 217.963 183.106C216.608 184.944 215.152 186.706 213.602 188.384C212.129 190.044 211.694 193.639 211.694 193.639L211.815 219.007C196.718 226.665 187.691 213.115 187.691 213.115C187.691 213.115 191.767 197.596 191.807 191.587C191.847 185.577 191.171 184.546 190.23 182.108C189.289 179.67 188.746 174.1 188.561 171.025C188.376 167.949 189.254 160.046 188.79 157.048C188.326 154.05 186.53 144.117 189.354 142.24Z" fill="#FFF1AC"/>
<path d="M186.827 216.273C186.348 215.735 185.9 215.17 185.486 214.58L184.832 213.588L185.131 212.442C186.218 208.228 189.115 196.192 189.172 191.565C189.237 186.73 188.761 185.641 188.056 183.786L187.772 183.066C186.537 179.871 186.044 173.17 185.926 171.194C185.838 169.73 185.962 167.459 186.101 165.067C186.312 162.542 186.346 160.005 186.202 157.476L186.097 156.838C184.751 148.387 184.529 142.297 187.906 140.056C190.445 138.357 192.38 138.657 193.561 139.2C195.278 140.001 196.419 141.821 196.716 144.166L196.789 144.807C197.021 146.886 197.447 150.742 198.266 155.604C198.551 157.519 199.262 159.346 200.346 160.951C202.249 160.3 205.465 159.238 208.641 158.391C209.042 152.711 211.314 140.876 212.821 137.536C213.881 135.186 215.214 132.262 219.454 133.147C220.179 133.295 220.864 133.594 221.466 134.023C222.069 134.452 222.575 135.003 222.951 135.639C223.398 136.405 223.687 137.252 223.801 138.132C223.914 139.011 223.851 139.904 223.613 140.758C222.85 143.851 222.291 146.99 221.942 150.156L221.907 150.485C221.531 153.957 220.82 160.386 220.869 162.147C220.89 162.321 220.904 162.487 220.932 162.642L224.606 161.598C227.084 160.079 229.962 159.339 232.866 159.475C234.34 159.49 235.783 159.901 237.044 160.666C238.304 161.43 239.336 162.52 240.03 163.821C240.512 164.612 240.776 165.516 240.796 166.442C240.817 167.368 240.593 168.283 240.147 169.095C239.805 169.628 239.326 170.06 238.761 170.345C238.195 170.631 237.564 170.759 236.932 170.717C235.601 170.828 234.307 171.206 233.126 171.829C231.914 172.736 224.912 177.973 223.604 178.976C223.14 179.504 222.761 180.102 222.481 180.748C221.801 182.108 221.003 183.407 220.098 184.629C218.839 186.345 217.493 187.994 216.064 189.572L215.604 190.083C214.933 191.199 214.506 192.445 214.35 193.738L214.524 220.612L213.067 221.35C204.205 225.841 197.16 223.745 192.801 221.183C190.561 219.874 188.545 218.217 186.827 216.273ZM190.564 212.534C192.623 215.007 199.207 221.486 209.162 217.329L209.008 193.423L209.033 193.247C209.119 192.514 209.674 188.742 211.579 186.607L212.041 186.083C213.371 184.622 214.622 183.091 215.789 181.497C216.536 180.488 217.197 179.417 217.765 178.297C218.357 176.958 219.245 175.771 220.363 174.826C221.792 173.729 229.783 167.767 230.094 167.495L230.257 167.353L230.435 167.256C231.831 166.528 233.316 165.986 234.853 165.644C234.268 165.072 233.482 164.752 232.664 164.754C230.778 164.641 228.905 165.121 227.306 166.126L226.894 166.488L226.448 166.579L217.461 169.112L216.552 166.957C216.023 165.556 215.694 164.087 215.573 162.594L215.558 162.427C215.491 160.55 216.007 155.642 216.634 149.907L216.668 149.579C217.047 146.108 217.666 142.667 218.52 139.282C218.581 138.954 218.532 138.615 218.38 138.317L218.345 138.277C218.135 138.651 217.846 139.276 217.659 139.69C216.182 142.968 213.597 157.801 213.897 160.095L214.213 162.459L211.884 163.006C206.793 164.192 200.523 166.471 200.457 166.493L199.015 167.015L197.846 166.021C197.472 165.703 194.135 162.712 193.063 156.47C192.249 151.449 191.783 147.508 191.547 145.385L191.481 144.75C191.454 144.543 191.407 144.34 191.343 144.142C191.214 144.205 191.088 144.276 190.966 144.353C190.843 144.567 190.356 145.675 190.536 149.126C190.689 151.42 190.963 153.704 191.358 155.969L191.461 156.619C191.689 159.512 191.674 162.419 191.416 165.31C191.299 167.467 191.184 169.682 191.253 170.852C191.476 174.516 192.039 179.304 192.752 181.141L193.014 181.808C193.954 184.245 194.565 185.993 194.5 191.605C194.392 196.897 191.539 208.656 190.564 212.534Z" fill="#231916"/>
<path d="M205.394 155.19C205.801 154.615 206.354 154.158 206.995 153.867C207.637 153.576 208.344 153.461 209.045 153.533C212.3 153.621 212.022 157.15 212.022 157.15L211.911 172.325C211.911 172.325 212.17 176.507 208.929 176.503C205.687 176.499 205.157 173.93 205.044 172.738C204.932 171.546 205.394 155.19 205.394 155.19Z" fill="#FFF1AC"/>
<path d="M204.063 177.086C203.087 175.926 202.523 174.476 202.457 172.962C202.405 171.812 202.665 159.015 202.756 155.124L202.774 154.463L203.099 153.892C203.736 152.893 204.633 152.086 205.693 151.557C206.753 151.028 207.937 150.797 209.118 150.889C209.876 150.888 210.627 151.045 211.321 151.349C212.016 151.654 212.64 152.1 213.153 152.658C214.224 153.936 214.763 155.577 214.659 157.241L214.57 172.278C214.668 174.168 214.052 176.025 212.845 177.482C212.343 178.01 211.736 178.428 211.062 178.707C210.389 178.986 209.664 179.121 208.935 179.102C208.026 179.139 207.119 178.977 206.278 178.629C205.437 178.281 204.681 177.755 204.063 177.086ZM208.014 156.325C207.869 162.556 207.68 171.695 207.728 172.609C207.816 173.87 208.319 173.871 208.98 173.902L209.063 173.901C209.25 173.458 209.331 172.977 209.302 172.497L209.294 172.324L209.385 156.963C209.392 156.706 209.344 156.451 209.244 156.215C209.155 156.191 209.064 156.179 208.972 156.178C208.646 156.155 208.318 156.206 208.014 156.325Z" fill="#231916"/>
<path d="M197.64 163.536C195.899 162.135 195.619 156.06 195.619 156.06C196.049 155.263 196.663 154.581 197.41 154.07C198.157 153.558 199.016 153.233 199.914 153.121C203.723 152.437 203.703 156.409 203.703 156.409C203.703 156.409 204.698 167.091 204.888 169.709C205.078 172.326 205.571 176.912 201.862 176.661C200.856 176.616 199.907 176.182 199.215 175.451C198.523 174.719 198.143 173.748 198.153 172.741L197.358 158.741" fill="#FFF1AC"/>
<path d="M197.197 177.187C196.158 175.978 195.568 174.448 195.528 172.854L195.057 164.557C194.157 163.243 193.193 160.778 192.98 156.185L192.95 155.578L193.191 155.021C193.789 153.82 194.671 152.782 195.76 151.999C196.85 151.215 198.113 150.709 199.442 150.523C200.275 150.328 201.142 150.326 201.976 150.517C202.81 150.708 203.589 151.087 204.254 151.625C204.901 152.213 205.421 152.928 205.78 153.725C206.139 154.522 206.331 155.385 206.343 156.259C206.457 157.425 207.379 166.988 207.535 169.552L207.564 169.981C207.732 172.438 207.963 175.796 205.89 177.863C205.342 178.4 204.681 178.808 203.955 179.058C203.229 179.307 202.456 179.392 201.694 179.305C200.84 179.276 200 179.073 199.227 178.709C198.454 178.345 197.763 177.827 197.197 177.187ZM200.814 172.764C200.795 172.935 200.814 173.108 200.87 173.27C200.925 173.433 201.016 173.581 201.136 173.705C201.255 173.828 201.401 173.924 201.561 173.985C201.722 174.045 201.894 174.07 202.066 174.057L202.212 174.06C202.428 172.843 202.467 171.602 202.328 170.374L202.294 169.926C202.127 167.348 201.123 156.806 201.117 156.703L201.101 156.454C201.093 156.184 201.028 155.92 200.911 155.677C200.744 155.662 200.576 155.673 200.412 155.708C199.606 155.82 198.86 156.197 198.291 156.778C198.349 157.431 198.439 158.093 198.533 158.704L199.99 158.622L200.814 172.764Z" fill="#231916"/>
<path d="M198.232 499.926C198.232 499.926 235.607 488.499 269.885 434.955C304.163 381.411 358.512 369.163 380.742 376.726C402.972 384.289 409.693 410.577 409.693 410.577C409.693 410.577 374.856 395.265 350.097 435.821C304.58 510.358 236.713 526.325 198.232 499.926Z" fill="#5FA125"/>
<path d="M193.43 499.163L197.602 497.898C197.797 497.834 206.996 494.901 220.161 485.638C232.383 477.045 250.621 461.068 268.095 433.799C287.67 403.268 312.024 388.216 329.003 380.976C348.369 372.709 368.448 370.316 381.397 374.718C390.964 377.974 399.249 385.126 405.34 395.393C408.088 399.979 410.231 404.9 411.716 410.035L412.784 414.214L408.856 412.458C402.634 410.157 395.964 409.335 389.37 410.054C382.776 410.773 376.44 413.015 370.861 416.603C363.721 421.15 357.333 427.988 351.885 436.907C339.025 457.959 323.916 475.245 306.975 488.271C291.356 500.282 274.886 508.199 258.026 511.799C235.313 516.654 213.65 513.051 197.042 501.65L193.43 499.163ZM396.065 389.743C391.793 384.709 386.263 380.896 380.039 378.692C368.235 374.696 348.825 377.076 330.647 384.829C314.211 391.845 290.626 406.425 271.606 436.088C253.692 464.028 234.93 480.417 222.343 489.234C216.231 493.608 209.684 497.341 202.807 500.375C217.969 509.363 237.069 511.962 257.094 507.68C273.102 504.254 289.448 496.386 304.356 484.926C320.888 472.211 335.658 455.317 348.241 434.711C354.061 425.18 360.951 417.853 368.647 412.998C374.747 409.095 381.674 406.667 388.877 405.909C394.717 405.303 400.619 405.764 406.294 407.27C403.935 400.901 400.49 394.989 396.112 389.797L396.065 389.743Z" fill="#231916"/>
<path d="M290.398 245.112C293.354 245.561 296.366 244.819 298.776 243.051C301.186 241.282 302.797 238.63 303.256 235.676L280.927 232.31C280.495 235.262 281.248 238.265 283.023 240.664C284.797 243.063 287.449 244.662 290.398 245.112Z" fill="#231916"/>
<path d="M282.323 242.509C281.074 241.088 280.15 239.412 279.616 237.596C279.083 235.781 278.952 233.871 279.234 232.001L279.465 230.341L305.167 234.217L304.909 235.9C304.541 238.346 303.482 240.636 301.856 242.5C300.231 244.365 298.107 245.726 295.734 246.425C293.361 247.123 290.838 247.129 288.462 246.442C286.085 245.755 283.955 244.404 282.32 242.547L282.323 242.509ZM282.494 234.222C282.564 236.467 283.418 238.617 284.908 240.297C286.398 241.978 288.429 243.084 290.65 243.422C292.872 243.755 295.141 243.297 297.061 242.13C298.981 240.963 300.431 239.16 301.16 237.034L282.494 234.222Z" fill="#FFE57B"/>
<path d="M275.628 221.802C277.041 223.415 279.494 223.577 281.107 222.164C282.719 220.751 282.881 218.298 281.468 216.685C280.056 215.072 277.603 214.91 275.99 216.323C274.377 217.736 274.215 220.189 275.628 221.802Z" fill="#231916"/>
<path d="M311.284 227.769C312.907 226.367 313.086 223.916 311.685 222.293C310.283 220.67 307.831 220.491 306.209 221.893C304.586 223.294 304.407 225.746 305.809 227.369C307.21 228.991 309.662 229.17 311.284 227.769Z" fill="#231916"/>
</g>
<defs>
<clipPath id="clip0">
<rect width="354.491" height="461.265" fill="white" transform="translate(347.544 0.117188) rotate(48.7792)"/>
</clipPath>
</defs>
</svg>
