<svg width="568" height="252" viewBox="0 0 568 252" fill="none" xmlns="http://www.w3.org/2000/svg">
<path d="M69.59 94.39C72.32 92.47 74.99 90.13 76.97 87.82C78.92 90.13 81.41 92.44 84.17 94.39H69.59ZM78.77 104.05H86.63V100.96H78.77V97.54H85.19V95.08C86.42 95.89 87.68 96.61 88.97 97.21C89.51 96.19 90.62 94.72 91.37 93.94C86.27 92.08 81.47 88.3 78.89 84.52H68.63V87.82H72.62C69.8 90.49 66.08 92.98 62.75 94.33C63.56 95.11 64.43 96.34 64.94 97.21C66.17 96.58 67.46 95.83 68.75 94.96V97.54H75.05V100.96H67.28V104.05H75.05V107.68H64.34V110.86H89.87V107.68H78.77V104.05ZM114.77 101.83V106.63H102.05V101.83H114.77ZM98.39 111.58H102.05V110.05H114.77V111.55H118.61V98.41H98.39V111.58ZM110.96 88.21C112.07 89.32 113.27 90.58 114.44 91.9L102.14 92.29C104.42 90.1 106.79 87.43 108.68 84.64L105.08 83.11C103.04 86.71 99.77 90.34 98.72 91.27C97.73 92.23 97.01 92.8 96.23 93.01C96.65 93.94 97.22 95.71 97.4 96.43C98.99 95.89 101.12 95.83 117.05 95.05C117.68 95.89 118.22 96.67 118.61 97.33L121.64 95.14C120.08 92.62 116.51 88.93 113.75 86.35L110.96 88.21ZM132.35 83.65C130.85 87.94 128.21 92.17 125.51 94.87C126.14 95.74 127.1 97.69 127.43 98.59C128.06 97.9 128.69 97.18 129.32 96.37V111.58H132.83V90.94C133.91 88.9 134.9 86.77 135.68 84.7L132.35 83.65ZM139.34 103.54C138.11 105.67 136.01 107.86 133.91 109.27C134.69 109.75 136.04 110.86 136.7 111.52C138.77 109.81 141.17 107.17 142.67 104.56L139.34 103.54ZM145.88 105.07C147.77 107.02 149.87 109.78 150.83 111.58L153.83 109.69C152.75 107.95 150.68 105.4 148.73 103.51L145.88 105.07ZM142.01 92.86H146.36V98.83H142.01V92.86ZM149.84 98.83V92.86H153.74V89.44H149.84V83.8H146.36V89.44H142.01V83.83H138.53V89.44H135.26V92.86H138.53V98.83H134.51V102.31H153.98V98.83H149.84ZM162.41 97.18C164.3 96.76 166.52 96.25 168.77 95.74L168.65 93.7C166.07 94.09 163.55 94.45 161.72 94.66V90.55H163.34L162.5 92.23C164.21 92.59 166.46 93.22 167.66 93.7L168.62 91.78C167.48 91.36 165.56 90.85 163.94 90.55H169.67V96.79H173.15V90.55H178.28C177.02 91.03 175.34 91.57 174.17 91.84L175.28 93.52C176.84 93.22 179.03 92.74 180.62 92.08L179.54 90.55H181.16V94.84C179.51 94.3 176.54 93.67 174.41 93.43L173.72 95.44C175.97 95.8 179.06 96.52 180.65 97.09L181.28 94.96H184.73V88.21H173.15V87.01H183.2V84.67H159.68V87.01H169.67V88.21H158.33V94.96H161.6L162.41 97.18ZM164.51 104.74V103.39H169.49V104.74H164.51ZM169.49 99.94V101.29H164.51V99.94H169.49ZM178.34 101.29H172.91V99.94H178.34V101.29ZM172.91 104.74V103.39H178.34V104.74H172.91ZM175.07 108.49C173.27 108.49 172.91 108.31 172.91 107.23V107.14H181.88V97.54H161.09V108.43H164.51V107.14H169.49V107.23C169.49 110.35 170.66 111.19 174.74 111.19H181.04C184.31 111.19 185.3 110.23 185.72 106.63C184.79 106.45 183.44 106 182.75 105.52C182.54 108.04 182.27 108.49 180.74 108.49H175.07ZM209.12 87.31H196.67V86.35H209.12V87.31ZM209.12 90.07H196.67V89.08H209.12V90.07ZM212.72 84.49H193.22V91.9H212.72V84.49ZM216.62 92.8H189.47V95.35H216.62V92.8ZM196.04 102.01V100.96H201.26V102.01H196.04ZM196.04 98.14H201.26V99.19H196.04V98.14ZM209.93 99.19H204.68V98.14H209.93V99.19ZM209.93 102.01H204.68V100.96H209.93V102.01ZM204.68 108.28V107.2H213.98V104.89H204.68V103.93H213.41V96.25H192.68V103.93H201.26V104.89H192.08V107.2H201.26V108.28H189.41V110.86H216.68V108.28H204.68Z" fill="#231916"/>
<line x1="355.251" y1="58.7261" x2="279.974" y2="134.003" stroke="#231916" stroke-width="2.75403"/>
<line x1="353.303" y1="134.003" x2="278.026" y2="58.726" stroke="#231916" stroke-width="2.75403"/>
<path d="M515.42 105.01V128.14C515.42 128.71 515.18 128.92 514.52 128.92C513.86 128.95 511.64 128.95 509.69 128.86C510.23 129.85 510.89 131.53 511.1 132.58C514.01 132.58 516.05 132.46 517.46 131.89C518.78 131.32 519.29 130.33 519.29 128.14V105.01H515.42ZM522.56 112.84C524.93 117.22 527.21 122.86 527.81 126.49L531.71 124.96C530.96 121.21 528.5 115.78 526.07 111.52L522.56 112.84ZM507.56 111.85C506.93 115.75 505.43 121 503.03 124.03C503.96 124.45 505.61 125.29 506.51 125.89C509 122.59 510.62 117.01 511.64 112.54L507.56 111.85ZM541.76 109.6V114.88H539V109.6H541.76ZM539 123.64V118H541.76V123.64H539ZM545.09 106.42H535.7V129.46H539V126.82H545.09V106.42ZM546.83 124.3C548.06 125.86 549.59 128.05 550.28 129.34L553.4 127.51C552.65 126.19 551.03 124.15 549.8 122.71L546.83 124.3ZM562.64 110.92V107.8H555.89V104.59H552.38V107.8H545.63V110.92H552.38V113.77H546.59V116.86H556.16V119.2H545.66V122.29H556.16V128.74C556.16 129.16 556.01 129.28 555.53 129.28C555.08 129.28 553.43 129.28 551.99 129.22C552.44 130.18 552.98 131.59 553.1 132.58C555.32 132.58 556.97 132.49 558.11 131.98C559.31 131.44 559.64 130.54 559.64 128.83V122.29H562.52V119.2H559.64V116.86H561.83V113.77H555.89V110.92H562.64Z" fill="#231916"/>
<path d="M454.299 135.511C469.519 135.511 482.365 126.984 482.365 112.303C482.365 101.833 475.456 95.1403 466.497 92.6576V92.1179C474.916 88.7716 479.774 82.5109 479.774 73.8754C479.774 60.2745 469.303 52.6105 453.867 52.6105C444.476 52.6105 436.812 56.3885 429.904 62.4333L438 72.1483C442.749 67.7226 447.391 65.1319 453.112 65.1319C459.912 65.1319 463.798 68.802 463.798 75.0628C463.798 82.187 459.049 87.2604 444.368 87.2604V98.5945C461.747 98.5945 466.389 103.56 466.389 111.332C466.389 118.564 460.884 122.558 452.788 122.558C445.556 122.558 439.727 118.996 434.977 114.354L427.529 124.393C433.142 130.762 441.67 135.511 454.299 135.511Z" fill="#ED783F"/>
<path d="M0.602 225H7.546V223.264H5.306C4.816 223.264 4.13 223.32 3.612 223.376C5.502 221.528 7.056 219.512 7.056 217.636C7.056 215.704 5.754 214.444 3.794 214.444C2.38 214.444 1.456 214.99 0.504 216.012L1.624 217.132C2.156 216.558 2.772 216.068 3.528 216.068C4.522 216.068 5.082 216.698 5.082 217.748C5.082 219.344 3.416 221.29 0.602 223.81V225ZM13.0741 225.196C15.1881 225.196 16.5741 223.348 16.5741 219.778C16.5741 216.208 15.1881 214.444 13.0741 214.444C10.9601 214.444 9.56014 216.194 9.56014 219.778C9.56014 223.348 10.9601 225.196 13.0741 225.196ZM13.0741 223.586C12.1781 223.586 11.5061 222.69 11.5061 219.778C11.5061 216.88 12.1781 216.04 13.0741 216.04C13.9701 216.04 14.6281 216.88 14.6281 219.778C14.6281 222.69 13.9701 223.586 13.0741 223.586ZM19.0363 225H25.2663V223.334H23.3203V214.626H21.7943C21.1363 215.046 20.4223 215.312 19.3863 215.508V216.782H21.2623V223.334H19.0363V225ZM29.2824 217.902C29.2824 216.628 29.9124 215.998 30.6824 215.998C31.5644 215.998 32.2784 216.698 32.4604 218.574C31.9844 219.372 31.3264 219.694 30.7524 219.694C29.8564 219.694 29.2824 219.12 29.2824 217.902ZM30.4024 225.196C32.4604 225.196 34.3784 223.502 34.3784 219.582C34.3784 215.984 32.6144 214.444 30.6544 214.444C28.8764 214.444 27.3924 215.774 27.3924 217.902C27.3924 220.1 28.6384 221.164 30.3604 221.164C31.0604 221.164 31.9424 220.744 32.4884 220.044C32.3904 222.634 31.4384 223.516 30.2764 223.516C29.6604 223.516 29.0304 223.194 28.6524 222.774L27.5604 224.02C28.1764 224.65 29.1144 225.196 30.4024 225.196ZM40.2566 221.64V219.512H42.6786V221.64H40.2566ZM49.1886 221.64H44.4006V219.512H48.0966V217.958H44.4006V216.292H48.4186V214.682H40.5086C40.6906 214.304 40.8446 213.926 40.9706 213.534L39.2766 213.1C38.6746 214.906 37.5966 216.698 36.3366 217.762C36.7426 218 37.4566 218.56 37.7786 218.84C38.4366 218.182 39.1086 217.286 39.6826 216.292H42.6786V217.958H38.5906V221.64H36.3786V223.236H42.6786V226.232H44.4006V223.236H49.1886V221.64ZM53.2346 219.484C54.1166 219.288 55.1526 219.05 56.2026 218.812L56.1466 217.86C54.9426 218.042 53.7666 218.21 52.9126 218.308V216.39H53.6686L53.2766 217.174C54.0746 217.342 55.1246 217.636 55.6846 217.86L56.1326 216.964C55.6006 216.768 54.7046 216.53 53.9486 216.39H56.6226V219.302H58.2466V216.39H60.6406C60.0526 216.614 59.2686 216.866 58.7226 216.992L59.2406 217.776C59.9686 217.636 60.9906 217.412 61.7326 217.104L61.2286 216.39H61.9846V218.392C61.2146 218.14 59.8286 217.846 58.8346 217.734L58.5126 218.672C59.5626 218.84 61.0046 219.176 61.7466 219.442L62.0406 218.448H63.6506V215.298H58.2466V214.738H62.9366V213.646H51.9606V214.738H56.6226V215.298H51.3306V218.448H52.8566L53.2346 219.484ZM54.2146 223.012V222.382H56.5386V223.012H54.2146ZM56.5386 220.772V221.402H54.2146V220.772H56.5386ZM60.6686 221.402H58.1346V220.772H60.6686V221.402ZM58.1346 223.012V222.382H60.6686V223.012H58.1346ZM59.1426 224.762C58.3026 224.762 58.1346 224.678 58.1346 224.174V224.132H62.3206V219.652H52.6186V224.734H54.2146V224.132H56.5386V224.174C56.5386 225.63 57.0846 226.022 58.9886 226.022H61.9286C63.4546 226.022 63.9166 225.574 64.1126 223.894C63.6786 223.81 63.0486 223.6 62.7266 223.376C62.6286 224.552 62.5026 224.762 61.7886 224.762H59.1426ZM72.3166 216.054V213.17H70.5386V216.054H66.2546V217.762H70.4686C70.2306 220.212 69.2926 223.04 65.8206 224.93C66.2266 225.238 66.8566 225.868 67.1226 226.288C71.0566 224.062 72.0366 220.66 72.2606 217.762H76.1806C75.9566 221.92 75.6766 223.754 75.2566 224.188C75.0606 224.37 74.8926 224.412 74.5986 224.412C74.2346 224.412 73.4086 224.412 72.5266 224.342C72.8486 224.818 73.0726 225.56 73.1006 226.064C73.9546 226.106 74.8226 226.106 75.3406 226.036C75.9426 225.952 76.3486 225.798 76.7686 225.252C77.3846 224.524 77.6646 222.424 77.9446 216.852C77.9726 216.628 77.9866 216.054 77.9866 216.054H72.3166ZM93.2466 219.904H87.7446V215.662H92.4346V214.01H81.2906V215.662H86.0086V219.904H80.5626V221.584H86.0086V226.218H87.7446V221.584H93.2466V219.904ZM82.1446 216.558C82.5926 217.496 83.0266 218.714 83.1666 219.47L84.7906 218.966C84.6366 218.182 84.1326 217.006 83.6706 216.11L82.1446 216.558ZM90.3206 219.442C90.7966 218.728 91.3566 217.594 91.8606 216.516L90.0826 216.068C89.8166 216.978 89.3126 218.21 88.8646 219.022L90.3206 219.442ZM102.711 215.368C102.977 214.78 103.215 214.178 103.425 213.562L101.717 213.142C101.255 214.598 100.527 216.082 99.6726 217.23V216.474H98.3566V213.38H96.7326V216.474H95.2206V218.042H96.7326V222.34C96.0466 222.662 95.4306 222.942 94.9126 223.138L95.5566 224.804C96.9146 224.132 98.6086 223.264 100.177 222.438L99.7146 220.912L98.3566 221.584V218.042H98.9726L98.8886 218.14C99.3086 218.364 100.065 218.826 100.415 219.12C100.541 218.966 100.681 218.798 100.807 218.63V219.862H104.853V218.364H101.003C101.311 217.93 101.619 217.468 101.885 216.95H106.183C106.029 221.878 105.833 223.894 105.427 224.328C105.273 224.538 105.105 224.58 104.853 224.58C104.489 224.58 103.747 224.58 102.935 224.51C103.243 225 103.467 225.714 103.495 226.204C104.293 226.232 105.119 226.246 105.609 226.162C106.183 226.064 106.561 225.91 106.939 225.378C107.485 224.636 107.681 222.396 107.877 216.166C107.877 215.956 107.891 215.368 107.891 215.368H102.711ZM105.105 221.416H100.513V222.914H105.105V221.416ZM113.547 222.284C112.805 223.222 111.321 224.37 110.005 225.07C110.397 225.336 111.013 225.868 111.377 226.232C112.721 225.434 114.261 224.174 115.311 222.97L113.547 222.284ZM117.243 223.068C118.489 224.02 120.155 225.378 120.925 226.232L122.577 225.252C121.695 224.398 119.959 223.096 118.769 222.242L117.243 223.068ZM114.667 217.44H117.887V220.128H114.667V217.44ZM119.623 220.128V217.44H122.241V215.83H119.623V213.24H117.887V215.83H114.667V213.24H112.931V215.83H110.411V217.44H112.931V220.128H109.921V221.752H122.675V220.128H119.623ZM128.653 219.008L127.519 219.33V217.314H128.793V215.788H127.519V213.156H126.007V215.788H124.537V217.314H126.007V219.736C125.377 219.89 124.789 220.044 124.313 220.142L124.677 221.738C125.083 221.626 125.545 221.5 126.007 221.36V224.454C126.007 224.636 125.937 224.692 125.769 224.692C125.601 224.706 125.111 224.706 124.607 224.678C124.803 225.126 124.985 225.812 125.027 226.218C125.951 226.232 126.539 226.176 126.973 225.91C127.393 225.644 127.519 225.224 127.519 224.454V220.912C127.967 220.786 128.415 220.646 128.863 220.506L128.653 219.008ZM131.047 215.424H128.975V216.922H131.047V218.364H129.101V219.82H131.033C131.019 220.268 130.991 220.716 130.935 221.15C129.927 221.472 128.961 221.766 128.247 221.948L128.877 223.39C129.395 223.194 129.955 222.984 130.515 222.746C130.165 223.642 129.577 224.44 128.611 225.112C128.947 225.364 129.521 225.882 129.801 226.218C132.237 224.468 132.531 221.85 132.531 219.036V213.142H131.047V215.424ZM137.501 221.36H135.079V219.82H137.123V218.364H135.079V216.922H137.263V215.424H135.079V213.142H133.511V226.204H135.079V222.858H137.501V221.36ZM151.725 213.562H150.157V215.284H148.841V213.156H147.371V215.284H146.069V213.562H144.585V216.628H151.725V213.562ZM142.541 223.068H141.533V219.554H142.541V223.068ZM143.773 224.524V218.098H141.603C141.925 217.188 142.163 216.236 142.359 215.27H144.081V213.758H139.321V215.27H140.819C140.455 217.118 139.881 218.84 139.013 219.988C139.237 220.478 139.531 221.528 139.587 221.976C139.783 221.738 139.979 221.472 140.161 221.206V225.56H141.533V224.524H143.773ZM147.791 221.906C147.511 221.402 146.937 220.548 146.517 219.904L145.887 220.282V220.016V218.658H152.061V217.272H144.417V220.016C144.417 221.598 144.319 223.824 143.325 225.42C143.675 225.574 144.333 225.994 144.599 226.246C145.481 224.86 145.775 222.83 145.859 221.136C146.195 221.682 146.517 222.256 146.685 222.634L147.791 221.906ZM150.437 222.522C150.927 222.06 151.515 221.332 152.173 220.702L150.941 219.82C150.619 220.422 150.017 221.29 149.569 221.822C149.485 221.626 149.415 221.416 149.345 221.206C149.415 220.59 149.457 219.904 149.485 219.19H148.043C147.945 221.962 147.721 223.894 145.369 225C145.719 225.266 146.139 225.84 146.307 226.218C147.665 225.518 148.449 224.566 148.869 223.348C149.471 224.538 150.283 225.518 151.319 226.134C151.543 225.756 151.963 225.224 152.299 224.958C151.053 224.356 150.157 223.208 149.583 221.864L150.437 222.522ZM154.525 225H160.755V223.334H158.809V214.626H157.283C156.625 215.046 155.911 215.312 154.875 215.508V216.782H156.751V223.334H154.525V225ZM164.589 225.196C165.331 225.196 165.877 224.608 165.877 223.852C165.877 223.082 165.331 222.508 164.589 222.508C163.861 222.508 163.315 223.082 163.315 223.852C163.315 224.608 163.861 225.196 164.589 225.196ZM171.437 225.196C173.355 225.196 175.063 223.866 175.063 221.556C175.063 219.302 173.607 218.266 171.871 218.266C171.395 218.266 171.045 218.364 170.625 218.56L170.821 216.362H174.587V214.626H169.043L168.763 219.666L169.701 220.282C170.303 219.89 170.639 219.736 171.255 219.736C172.305 219.736 173.005 220.408 173.005 221.612C173.005 222.83 172.249 223.516 171.171 223.516C170.205 223.516 169.477 223.04 168.889 222.466L167.937 223.782C168.707 224.552 169.799 225.196 171.437 225.196ZM178.814 220.744L180.424 218.168C180.718 217.608 180.998 217.034 181.25 216.474H181.306C181.278 217.09 181.236 218.028 181.236 218.63V220.744H178.814ZM181.236 225H183.154V222.312H184.372V220.744H183.154V214.626H180.676L176.812 220.912V222.312H181.236V225ZM186.064 225H193.008V223.264H190.768C190.278 223.264 189.592 223.32 189.074 223.376C190.964 221.528 192.518 219.512 192.518 217.636C192.518 215.704 191.216 214.444 189.256 214.444C187.842 214.444 186.918 214.99 185.966 216.012L187.086 217.132C187.618 216.558 188.234 216.068 188.99 216.068C189.984 216.068 190.544 216.698 190.544 217.748C190.544 219.344 188.878 221.29 186.064 223.81V225ZM202.288 216.474L202.358 216.46C202.288 216.208 202.106 215.844 201.952 215.55H204.654C204.57 215.844 204.458 216.166 204.332 216.474H202.288ZM199.278 214.36V215.55H201.448L200.496 215.732C200.594 215.956 200.72 216.222 200.804 216.474H198.718V217.762H207.972V216.474H205.942C206.082 216.236 206.208 216.012 206.348 215.76L205.424 215.55H207.566V214.36H204.234C204.122 213.982 203.912 213.492 203.716 213.114L202.148 213.366C202.288 213.66 202.428 214.038 202.526 214.36H199.278ZM205.368 219.876H201.336V219.302H205.368V219.876ZM205.368 221.346H201.336V220.758H205.368V221.346ZM207.02 218.308H199.754V222.34H202.484L202.008 222.704C202.596 223.194 203.38 223.894 203.758 224.328L204.808 223.46C204.528 223.138 204.024 222.704 203.548 222.34H207.02V218.308ZM197.822 213.198C197.15 215.186 195.974 217.146 194.742 218.434C195.022 218.84 195.484 219.75 195.638 220.17C195.89 219.89 196.156 219.568 196.408 219.232V226.19H198.004V216.74C198.536 215.76 199.012 214.71 199.376 213.688L197.822 213.198ZM199.502 225.896C199.936 225.224 200.314 224.188 200.58 223.404L199.306 222.844C199.054 223.614 198.62 224.594 198.2 225.224L199.502 225.896ZM202.792 224.902C202.302 224.902 202.218 224.86 202.218 224.51V222.928H200.72V224.524C200.72 225.784 201.056 226.19 202.582 226.19H204.388C205.48 226.19 205.886 225.84 206.04 224.482C205.648 224.384 205.032 224.174 204.738 223.978C204.682 224.776 204.612 224.902 204.234 224.902H202.792ZM205.368 223.25C205.872 224.076 206.502 225.21 206.768 225.91L208.14 225.294C207.846 224.622 207.16 223.53 206.67 222.718L205.368 223.25ZM215.77 213.478V215.2H218.01C218.794 217.048 220.04 218.924 221.636 220.142C221.916 219.624 222.518 218.826 222.896 218.462C221.188 217.412 219.9 215.438 219.298 213.478H215.77ZM213.25 213.45C212.41 215.48 210.94 217.51 209.456 218.756C209.876 219.092 210.618 219.82 210.94 220.184C212.452 218.728 214.09 216.348 215.112 214.052L213.25 213.45ZM217.408 221.22C217.842 221.836 218.304 222.564 218.752 223.264L213.614 223.6C214.972 222.088 216.316 220.226 217.394 218.336L215.448 217.51C214.342 219.82 212.592 222.214 211.99 222.816C211.444 223.432 211.08 223.81 210.604 223.936C210.856 224.44 211.178 225.364 211.29 225.728C211.976 225.462 212.928 225.378 219.69 224.846C219.984 225.35 220.236 225.826 220.418 226.218L222.14 225.308C221.454 224.006 220.166 222.018 219.032 220.478L217.408 221.22ZM235.72 218.042H234.068V217.23H235.72V218.042ZM235.72 220.016H234.068V219.176H235.72V220.016ZM235.72 221.976H234.068V221.136H235.72V221.976ZM232.864 216.012V223.194H236.966V216.012H235.412C235.482 215.746 235.566 215.466 235.636 215.186H237.232V213.87H232.528V215.186H234.124C234.096 215.452 234.068 215.746 234.04 216.012H232.864ZM226.522 215.872V221.724H225.808V215.872H226.522ZM227.712 214.43H224.688V224.202H225.808V223.166H227.712V214.43ZM230.848 223.46V221.486H232.416V217.034H231.436V220.17H230.848V216.18H232.374V214.906H230.848V213.156H229.63V214.906H228.006V216.18H229.63V220.17H229.112V217.034H228.174V221.486H229.63V223.432C229.63 224.006 229.252 224.37 228.986 224.524C229.21 224.79 229.518 225.322 229.63 225.63C229.882 225.378 230.316 225.126 232.654 224.104C232.556 223.81 232.444 223.236 232.402 222.844L230.848 223.46ZM233.508 223.334C233.158 224.034 232.444 224.958 231.744 225.462C232.08 225.658 232.556 226.022 232.808 226.26C233.466 225.728 234.278 224.748 234.726 223.936L233.508 223.334ZM235.048 223.852C235.51 224.58 236 225.546 236.196 226.176L237.428 225.56C237.218 224.958 236.7 224.006 236.21 223.334L235.048 223.852ZM238.702 227.548H240.074L243.546 213.716H242.188L238.702 227.548ZM249.114 221.64V219.512H251.536V221.64H249.114ZM258.046 221.64H253.258V219.512H256.954V217.958H253.258V216.292H257.276V214.682H249.366C249.548 214.304 249.702 213.926 249.828 213.534L248.134 213.1C247.532 214.906 246.454 216.698 245.194 217.762C245.6 218 246.314 218.56 246.636 218.84C247.294 218.182 247.966 217.286 248.54 216.292H251.536V217.958H247.448V221.64H245.236V223.236H251.536V226.232H253.258V223.236H258.046V221.64ZM259.866 218.672H267.048V217.216H259.866V218.672ZM259.866 222.298H267.048V220.828H259.866V222.298ZM272.142 225.196C274.06 225.196 275.768 223.866 275.768 221.556C275.768 219.302 274.312 218.266 272.576 218.266C272.1 218.266 271.75 218.364 271.33 218.56L271.526 216.362H275.292V214.626H269.748L269.468 219.666L270.406 220.282C271.008 219.89 271.344 219.736 271.96 219.736C273.01 219.736 273.71 220.408 273.71 221.612C273.71 222.83 272.954 223.516 271.876 223.516C270.91 223.516 270.182 223.04 269.594 222.466L268.642 223.782C269.412 224.552 270.504 225.196 272.142 225.196ZM278.37 225H284.6V223.334H282.654V214.626H281.128C280.47 215.046 279.756 215.312 278.72 215.508V216.782H280.596V223.334H278.37V225ZM287.342 227.982C289.036 227.422 289.988 226.176 289.988 224.538C289.988 223.264 289.456 222.508 288.504 222.508C287.776 222.508 287.174 222.984 287.174 223.726C287.174 224.51 287.79 224.944 288.462 224.944C288.504 224.944 288.546 224.944 288.588 224.944C288.602 225.728 288 226.456 286.908 226.862L287.342 227.982ZM293.715 220.744L295.325 218.168C295.619 217.608 295.899 217.034 296.151 216.474H296.207C296.179 217.09 296.137 218.028 296.137 218.63V220.744H293.715ZM296.137 225H298.055V222.312H299.273V220.744H298.055V214.626H295.577L291.713 220.912V222.312H296.137V225ZM304.479 225.196C306.579 225.196 307.965 223.992 307.965 222.424C307.965 221.01 307.181 220.17 306.229 219.652V219.582C306.915 219.092 307.559 218.238 307.559 217.216C307.559 215.564 306.383 214.458 304.549 214.458C302.757 214.458 301.427 215.522 301.427 217.188C301.427 218.294 302.001 219.078 302.799 219.652V219.722C301.833 220.226 301.021 221.094 301.021 222.424C301.021 224.048 302.505 225.196 304.479 225.196ZM305.137 219.078C304.045 218.644 303.247 218.168 303.247 217.188C303.247 216.362 303.807 215.9 304.507 215.9C305.375 215.9 305.879 216.502 305.879 217.342C305.879 217.958 305.641 218.546 305.137 219.078ZM304.535 223.74C303.569 223.74 302.799 223.138 302.799 222.2C302.799 221.43 303.191 220.73 303.751 220.282C305.095 220.828 306.047 221.276 306.047 222.354C306.047 223.25 305.417 223.74 304.535 223.74ZM313.437 225.196C315.551 225.196 316.937 223.348 316.937 219.778C316.937 216.208 315.551 214.444 313.437 214.444C311.323 214.444 309.923 216.194 309.923 219.778C309.923 223.348 311.323 225.196 313.437 225.196ZM313.437 223.586C312.541 223.586 311.869 222.69 311.869 219.778C311.869 216.88 312.541 216.04 313.437 216.04C314.333 216.04 314.991 216.88 314.991 219.778C314.991 222.69 314.333 223.586 313.437 223.586ZM318.447 227.548H319.819L323.291 213.716H321.933L318.447 227.548ZM325.527 225H331.757V223.334H329.811V214.626H328.285C327.627 215.046 326.913 215.312 325.877 215.508V216.782H327.753V223.334H325.527V225ZM337.187 225.196C339.105 225.196 340.813 223.866 340.813 221.556C340.813 219.302 339.357 218.266 337.621 218.266C337.145 218.266 336.795 218.364 336.375 218.56L336.571 216.362H340.337V214.626H334.793L334.513 219.666L335.451 220.282C336.053 219.89 336.389 219.736 337.005 219.736C338.055 219.736 338.755 220.408 338.755 221.612C338.755 222.83 337.999 223.516 336.921 223.516C335.955 223.516 335.227 223.04 334.639 222.466L333.687 223.782C334.457 224.552 335.549 225.196 337.187 225.196ZM344.563 220.744L346.173 218.168C346.467 217.608 346.747 217.034 346.999 216.474H347.055C347.027 217.09 346.985 218.028 346.985 218.63V220.744H344.563ZM346.985 225H348.903V222.312H350.121V220.744H348.903V214.626H346.425L342.561 220.912V222.312H346.985V225ZM351.813 225H358.757V223.264H356.517C356.027 223.264 355.341 223.32 354.823 223.376C356.713 221.528 358.267 219.512 358.267 217.636C358.267 215.704 356.965 214.444 355.005 214.444C353.591 214.444 352.667 214.99 351.715 216.012L352.835 217.132C353.367 216.558 353.983 216.068 354.739 216.068C355.733 216.068 356.293 216.698 356.293 217.748C356.293 219.344 354.627 221.29 351.813 223.81V225ZM364.285 225.196C366.399 225.196 367.785 223.348 367.785 219.778C367.785 216.208 366.399 214.444 364.285 214.444C362.171 214.444 360.771 216.194 360.771 219.778C360.771 223.348 362.171 225.196 364.285 225.196ZM364.285 223.586C363.389 223.586 362.717 222.69 362.717 219.778C362.717 216.88 363.389 216.04 364.285 216.04C365.181 216.04 365.839 216.88 365.839 219.778C365.839 222.69 365.181 223.586 364.285 223.586ZM373.23 225.196C375.344 225.196 376.73 223.348 376.73 219.778C376.73 216.208 375.344 214.444 373.23 214.444C371.116 214.444 369.716 216.194 369.716 219.778C369.716 223.348 371.116 225.196 373.23 225.196ZM373.23 223.586C372.334 223.586 371.662 222.69 371.662 219.778C371.662 216.88 372.334 216.04 373.23 216.04C374.126 216.04 374.784 216.88 374.784 219.778C374.784 222.69 374.126 223.586 373.23 223.586ZM382.174 225.196C384.288 225.196 385.674 223.348 385.674 219.778C385.674 216.208 384.288 214.444 382.174 214.444C380.06 214.444 378.66 216.194 378.66 219.778C378.66 223.348 380.06 225.196 382.174 225.196ZM382.174 223.586C381.278 223.586 380.606 222.69 380.606 219.778C380.606 216.88 381.278 216.04 382.174 216.04C383.07 216.04 383.728 216.88 383.728 219.778C383.728 222.69 383.07 223.586 382.174 223.586ZM391.118 225.196C393.232 225.196 394.618 223.348 394.618 219.778C394.618 216.208 393.232 214.444 391.118 214.444C389.004 214.444 387.604 216.194 387.604 219.778C387.604 223.348 389.004 225.196 391.118 225.196ZM391.118 223.586C390.222 223.586 389.55 222.69 389.55 219.778C389.55 216.88 390.222 216.04 391.118 216.04C392.014 216.04 392.672 216.88 392.672 219.778C392.672 222.69 392.014 223.586 391.118 223.586ZM400.062 225.196C402.176 225.196 403.562 223.348 403.562 219.778C403.562 216.208 402.176 214.444 400.062 214.444C397.948 214.444 396.548 216.194 396.548 219.778C396.548 223.348 397.948 225.196 400.062 225.196ZM400.062 223.586C399.166 223.586 398.494 222.69 398.494 219.778C398.494 216.88 399.166 216.04 400.062 216.04C400.958 216.04 401.616 216.88 401.616 219.778C401.616 222.69 400.958 223.586 400.062 223.586ZM405.408 218.672H412.59V217.216H405.408V218.672ZM405.408 222.298H412.59V220.828H405.408V222.298ZM417.95 225.196C420.064 225.196 421.45 223.348 421.45 219.778C421.45 216.208 420.064 214.444 417.95 214.444C415.836 214.444 414.436 216.194 414.436 219.778C414.436 223.348 415.836 225.196 417.95 225.196ZM417.95 223.586C417.054 223.586 416.382 222.69 416.382 219.778C416.382 216.88 417.054 216.04 417.95 216.04C418.846 216.04 419.504 216.88 419.504 219.778C419.504 222.69 418.846 223.586 417.95 223.586ZM425.032 225.196C425.774 225.196 426.32 224.608 426.32 223.852C426.32 223.082 425.774 222.508 425.032 222.508C424.304 222.508 423.758 223.082 423.758 223.852C423.758 224.608 424.304 225.196 425.032 225.196ZM432.147 225.196C434.261 225.196 435.647 223.348 435.647 219.778C435.647 216.208 434.261 214.444 432.147 214.444C430.033 214.444 428.633 216.194 428.633 219.778C428.633 223.348 430.033 225.196 432.147 225.196ZM432.147 223.586C431.251 223.586 430.579 222.69 430.579 219.778C430.579 216.88 431.251 216.04 432.147 216.04C433.043 216.04 433.701 216.88 433.701 219.778C433.701 222.69 433.043 223.586 432.147 223.586ZM441.091 225.196C443.205 225.196 444.591 223.348 444.591 219.778C444.591 216.208 443.205 214.444 441.091 214.444C438.977 214.444 437.577 216.194 437.577 219.778C437.577 223.348 438.977 225.196 441.091 225.196ZM441.091 223.586C440.195 223.586 439.523 222.69 439.523 219.778C439.523 216.88 440.195 216.04 441.091 216.04C441.987 216.04 442.645 216.88 442.645 219.778C442.645 222.69 441.987 223.586 441.091 223.586ZM450.035 225.196C452.149 225.196 453.535 223.348 453.535 219.778C453.535 216.208 452.149 214.444 450.035 214.444C447.921 214.444 446.521 216.194 446.521 219.778C446.521 223.348 447.921 225.196 450.035 225.196ZM450.035 223.586C449.139 223.586 448.467 222.69 448.467 219.778C448.467 216.88 449.139 216.04 450.035 216.04C450.931 216.04 451.589 216.88 451.589 219.778C451.589 222.69 450.931 223.586 450.035 223.586ZM458.686 225.196C460.66 225.196 462.326 224.09 462.326 222.186C462.326 220.828 461.43 219.96 460.268 219.638V219.568C461.36 219.134 461.99 218.322 461.99 217.202C461.99 215.438 460.632 214.444 458.63 214.444C457.412 214.444 456.418 214.934 455.522 215.718L456.572 216.978C457.188 216.404 457.79 216.068 458.532 216.068C459.414 216.068 459.918 216.544 459.918 217.356C459.918 218.28 459.302 218.938 457.398 218.938V220.408C459.652 220.408 460.254 221.052 460.254 222.06C460.254 222.998 459.54 223.516 458.49 223.516C457.552 223.516 456.796 223.054 456.18 222.452L455.214 223.754C455.942 224.58 457.048 225.196 458.686 225.196ZM470.942 227.828L472.23 227.282C471.054 225.238 470.522 222.886 470.522 220.576C470.522 218.294 471.054 215.928 472.23 213.884L470.942 213.338C469.626 215.494 468.856 217.79 468.856 220.576C468.856 223.39 469.626 225.658 470.942 227.828ZM478.137 221.64V219.512H480.559V221.64H478.137ZM487.069 221.64H482.281V219.512H485.977V217.958H482.281V216.292H486.299V214.682H478.389C478.571 214.304 478.725 213.926 478.851 213.534L477.157 213.1C476.555 214.906 475.477 216.698 474.217 217.762C474.623 218 475.337 218.56 475.659 218.84C476.317 218.182 476.989 217.286 477.563 216.292H480.559V217.958H476.471V221.64H474.259V223.236H480.559V226.232H482.281V223.236H487.069V221.64ZM490.359 227.828C491.689 225.658 492.459 223.39 492.459 220.576C492.459 217.79 491.689 215.494 490.359 213.338L489.085 213.884C490.261 215.928 490.793 218.294 490.793 220.576C490.793 222.886 490.261 225.238 489.085 227.282L490.359 227.828ZM494.88 218.672H502.062V217.216H494.88V218.672ZM494.88 222.298H502.062V220.828H494.88V222.298ZM506.568 227.828L507.856 227.282C506.68 225.238 506.148 222.886 506.148 220.576C506.148 218.294 506.68 215.928 507.856 213.884L506.568 213.338C505.252 215.494 504.482 217.79 504.482 220.576C504.482 223.39 505.252 225.658 506.568 227.828ZM515.961 221.374C515.807 220.604 515.401 219.344 515.023 218.392L513.735 218.728C513.847 219.05 513.973 219.4 514.071 219.764L512.503 219.988C513.609 218.826 514.715 217.468 515.569 216.096L514.197 215.172C513.861 215.774 513.483 216.39 513.105 216.936L511.943 217.02C512.713 216.054 513.469 214.878 514.071 213.73L512.559 213.086C511.971 214.57 510.963 216.082 510.641 216.474C510.319 216.88 510.053 217.146 509.773 217.216C509.955 217.622 510.207 218.364 510.277 218.672C510.501 218.574 510.823 218.49 512.055 218.336C511.607 218.896 511.229 219.302 511.019 219.498C510.529 220.016 510.193 220.296 509.815 220.38C509.997 220.814 510.249 221.584 510.333 221.892C510.683 221.724 511.229 221.57 514.421 221.08C514.491 221.346 514.533 221.57 514.561 221.78L515.961 221.374ZM510.641 222.34C510.473 223.446 510.151 224.706 509.759 225.504C510.151 225.602 510.837 225.812 511.173 225.994C511.509 225.154 511.887 223.824 512.069 222.634L510.641 222.34ZM512.363 222.55C512.559 223.544 512.741 224.846 512.769 225.7L514.155 225.336C514.085 224.468 513.889 223.208 513.665 222.214L512.363 222.55ZM514.057 222.284C514.379 223.11 514.743 224.216 514.883 224.93L516.143 224.44C515.989 223.74 515.611 222.69 515.261 221.864L514.057 222.284ZM520.035 221.654C519.573 220.8 518.467 219.582 517.529 218.728L516.409 219.582C517.347 220.478 518.383 221.752 518.803 222.62L520.035 221.654ZM518.047 215.634C518.299 214.934 518.509 214.206 518.677 213.478L517.039 213.156C516.647 215.032 515.905 216.964 514.939 218.14C515.345 218.35 516.073 218.826 516.367 219.078C516.745 218.56 517.095 217.916 517.431 217.216H520.735C520.609 221.906 520.455 223.894 520.063 224.314C519.909 224.496 519.741 224.552 519.475 224.538C519.111 224.538 518.341 224.538 517.487 224.468C517.781 224.944 518.005 225.672 518.033 226.134C518.845 226.176 519.713 226.19 520.217 226.092C520.805 226.008 521.197 225.84 521.589 225.322C522.121 224.594 522.289 222.452 522.443 216.418C522.443 216.222 522.457 215.634 522.457 215.634H518.047ZM525.985 227.828C527.315 225.658 528.085 223.39 528.085 220.576C528.085 217.79 527.315 215.494 525.985 213.338L524.711 213.884C525.887 215.928 526.419 218.294 526.419 220.576C526.419 222.886 525.887 225.238 524.711 227.282L525.985 227.828ZM533.81 225.196C535.784 225.196 537.45 224.09 537.45 222.186C537.45 220.828 536.554 219.96 535.392 219.638V219.568C536.484 219.134 537.114 218.322 537.114 217.202C537.114 215.438 535.756 214.444 533.754 214.444C532.536 214.444 531.542 214.934 530.646 215.718L531.696 216.978C532.312 216.404 532.914 216.068 533.656 216.068C534.538 216.068 535.042 216.544 535.042 217.356C535.042 218.28 534.426 218.938 532.522 218.938V220.408C534.776 220.408 535.378 221.052 535.378 222.06C535.378 222.998 534.664 223.516 533.614 223.516C532.676 223.516 531.92 223.054 531.304 222.452L530.338 223.754C531.066 224.58 532.172 225.196 533.81 225.196ZM545.064 213.338V224.132C545.064 224.398 544.952 224.496 544.644 224.496C544.336 224.51 543.3 224.51 542.39 224.468C542.642 224.93 542.95 225.714 543.048 226.204C544.406 226.204 545.358 226.148 546.016 225.882C546.632 225.616 546.87 225.154 546.87 224.132V213.338H545.064ZM548.396 216.992C549.502 219.036 550.566 221.668 550.846 223.362L552.666 222.648C552.316 220.898 551.168 218.364 550.034 216.376L548.396 216.992ZM541.396 216.53C541.102 218.35 540.402 220.8 539.282 222.214C539.716 222.41 540.486 222.802 540.906 223.082C542.068 221.542 542.824 218.938 543.3 216.852L541.396 216.53ZM557.356 215.48V217.944H556.068V215.48H557.356ZM556.068 222.032V219.4H557.356V222.032H556.068ZM558.91 213.996H554.528V224.748H556.068V223.516H558.91V213.996ZM559.722 222.34C560.296 223.068 561.01 224.09 561.332 224.692L562.788 223.838C562.438 223.222 561.682 222.27 561.108 221.598L559.722 222.34ZM567.1 216.096V214.64H563.95V213.142H562.312V214.64H559.162V216.096H562.312V217.426H559.61V218.868H564.076V219.96H559.176V221.402H564.076V224.412C564.076 224.608 564.006 224.664 563.782 224.664C563.572 224.664 562.802 224.664 562.13 224.636C562.34 225.084 562.592 225.742 562.648 226.204C563.684 226.204 564.454 226.162 564.986 225.924C565.546 225.672 565.7 225.252 565.7 224.454V221.402H567.044V219.96H565.7V218.868H566.722V217.426H563.95V216.096H567.1Z" fill="#808080"/>
</svg>
