<svg width="482" height="482" viewBox="0 0 482 482" fill="none" xmlns="http://www.w3.org/2000/svg">
<path fill-rule="evenodd" clip-rule="evenodd" d="M303.8 252.4L304.4 142L289.3 137.8C289.3 137.8 222.9 143.8 190.3 149.3C157.7 154.7 135.4 160.2 135.4 160.2C135.4 160.2 128.5 213.9 132.1 248.3C135.7 282.7 146.3 311 146.3 311L159.8 311.6C187.9 303.9 258.7 284.3 303.8 252.4Z" fill="#DFDFDF"/>
<path fill-rule="evenodd" clip-rule="evenodd" d="M303.8 252.4L304.4 142L289.3 137.8C289.3 137.8 276.3 139 259 140.8L184.8 304.6C218.8 294.3 269 277.1 303.8 252.4Z" fill="#CCCCCC"/>
<path fill-rule="evenodd" clip-rule="evenodd" d="M194.8 197.7L196.5 262.9L254.4 244.8L252.3 186.6C252.3 186.6 195.4 197.1 194.8 197.7Z" fill="white"/>
<path fill-rule="evenodd" clip-rule="evenodd" d="M204.8 260.3L254.5 244.8L252.4 186.6C252.4 186.6 245.8 187.8 236.9 189.5L204.8 260.3Z" fill="#E6E6E6"/>
<path fill-rule="evenodd" clip-rule="evenodd" d="M304.1 141.9L289.3 137.7C289.3 137.7 222.9 143.7 190.3 149.2C157.7 154.6 135.4 160.1 135.4 160.1C135.4 160.1 128.5 213.8 132.1 248.2C135.7 282.6 146.3 310.9 146.3 310.9L159.8 311.5H160C158.8 307.9 148.7 276.2 145.6 247C142.3 215.9 147.1 165.8 147.1 165.8C147.1 165.8 258.1 143.3 304.1 141.9Z" fill="#B3B3B3" stroke="black" stroke-width="2.5" stroke-miterlimit="10" stroke-linejoin="round"/>
<path fill-rule="evenodd" clip-rule="evenodd" d="M135.6 160H135.4C135.4 160 128.5 213.7 132.1 248.1C135.7 282.5 146.3 310.8 146.3 310.8L159.8 311.4H160C158.8 307.8 148.7 276.1 145.6 246.9C142.3 215.8 147.1 165.7 147.1 165.7L147.4 165.6L135.6 160Z" fill="#666666" stroke="black" stroke-width="2.5" stroke-miterlimit="10" stroke-linejoin="round"/>
<path fill-rule="evenodd" clip-rule="evenodd" d="M211.9 210.4L217 209.3V238.9L211.9 240V210.4ZM233.3 205.4L238.4 204.3V233.9L233.3 235V205.4Z" fill="#4D4D4D"/>
<path fill-rule="evenodd" clip-rule="evenodd" d="M303.8 252.4L304.4 142L289.3 137.8C289.3 137.8 222.9 143.8 190.3 149.3C157.7 154.7 135.4 160.2 135.4 160.2C135.4 160.2 128.5 213.9 132.1 248.3C135.7 282.7 146.3 311 146.3 311L159.8 311.6C187.9 303.9 258.7 284.3 303.8 252.4Z" stroke="black" stroke-width="2.5" stroke-miterlimit="10"/>
<path fill-rule="evenodd" clip-rule="evenodd" d="M194.8 197.7L196.5 262.9L254.4 244.8L252.3 186.6C252.3 186.6 195.4 197.1 194.8 197.7Z" stroke="black" stroke-width="2.5" stroke-miterlimit="10"/>
<path fill-rule="evenodd" clip-rule="evenodd" d="M323.1 214.6L351.6 175.8L338.7 159L397.9 130L368.7 167.6L378.8 187.3C378.7 187.3 323.6 214.4 323.1 214.6Z" fill="#FFBC00" stroke="black" stroke-width="2.5" stroke-miterlimit="10" stroke-linecap="round" stroke-linejoin="round"/>
<path fill-rule="evenodd" clip-rule="evenodd" d="M290.5 276.9C290.4 276.9 290.2 276.9 290.1 276.8L262.5 267.8C262 267.6 261.6 267.2 261.6 266.6V253.4C261.6 253 261.8 252.6 262.1 252.4C262.3 252.2 262.6 252.2 262.8 252.2C262.9 252.2 263.1 252.2 263.2 252.3L290.8 261.4C291.3 261.6 291.7 262 291.7 262.6V275.8C291.7 276.2 291.5 276.6 291.2 276.8C291 276.9 290.7 276.9 290.5 276.9Z" fill="#DFDFDF"/>
<path d="M262.9 253.4L290.5 262.5V275.7L262.9 266.7V253.4ZM262.9 250.9C262.4 250.9 261.9 251.1 261.4 251.4C260.8 251.9 260.4 252.6 260.4 253.4V266.6C260.4 267.7 261.1 268.6 262.1 269L289.7 278C290 278.1 290.2 278.1 290.5 278.1C291 278.1 291.5 277.9 292 277.6C292.6 277.1 293 276.4 293 275.6V262.4C293 261.3 292.3 260.4 291.3 260L263.7 250.9C263.5 251 263.2 250.9 262.9 250.9Z" fill="black"/>
<path fill-rule="evenodd" clip-rule="evenodd" d="M290.6 277C290.3 277 290 276.9 289.7 276.6L289.6 276.5C289.4 276.3 289.2 275.9 289.2 275.6V263.4L262.7 254.7C262.5 254.7 262.4 254.6 262.3 254.5C262.1 254.3 262 254.2 262 254.2C261.7 253.9 261.6 253.4 261.7 253C261.8 252.6 262.1 252.2 262.5 252.1L266.4 250.9C266.5 250.9 266.6 250.8 266.8 250.8C267 250.8 267.1 250.8 267.2 250.9L293.4 259.2C293.9 259.4 294.3 259.8 294.3 260.4L294.6 274.6C294.6 275.1 294.3 275.6 293.8 275.8L291 277C290.9 277 290.8 277 290.6 277Z" fill="#B3B3B3"/>
<path d="M266.9 252.1L293.1 260.4L293.4 274.6L290.6 275.8L290.5 275.7V262.6L263.2 253.6C263.1 253.5 263 253.4 263 253.4L266.9 252.1ZM266.9 249.6C266.6 249.6 266.4 249.6 266.1 249.7L262.2 250.9C261.4 251.2 260.7 251.8 260.5 252.7C260.3 253.6 260.5 254.4 261.1 255.1C261.1 255.1 261.3 255.3 261.5 255.5C261.7 255.7 262 255.9 262.3 256L287.9 264.4V275.7C287.9 276.4 288.2 277 288.6 277.5L288.7 277.6C289.2 278.1 289.8 278.3 290.5 278.3C290.8 278.3 291.2 278.2 291.5 278.1L294.3 276.9C295.2 276.5 295.8 275.6 295.8 274.5L295.5 260.3C295.5 259.2 294.8 258.3 293.8 258L267.6 249.7C267.4 249.6 267.1 249.6 266.9 249.6Z" fill="black"/>
<path fill-rule="evenodd" clip-rule="evenodd" d="M314.4 258.7C314.3 258.7 314.1 258.7 314 258.6L286.4 249.6C285.9 249.4 285.5 249 285.5 248.4V235.2C285.5 234.8 285.7 234.4 286 234.2C286.2 234 286.5 234 286.7 234C286.8 234 287 234 287.1 234.1L314.7 243.1C315.2 243.3 315.6 243.7 315.6 244.3V257.5C315.6 257.9 315.4 258.3 315.1 258.5C315 258.7 314.7 258.7 314.4 258.7Z" fill="#DFDFDF"/>
<path d="M286.9 235.2L314.5 244.2V257.4L286.9 248.4V235.2ZM286.9 232.7C286.4 232.7 285.9 232.9 285.4 233.2C284.8 233.7 284.4 234.4 284.4 235.2V248.4C284.4 249.5 285.1 250.4 286.1 250.8L313.7 259.8C314 259.9 314.2 259.9 314.5 259.9C315 259.9 315.5 259.7 316 259.4C316.6 258.9 317 258.2 317 257.4V244.2C317 243.1 316.3 242.2 315.3 241.8L287.7 232.8C287.4 232.8 287.1 232.7 286.9 232.7Z" fill="black"/>
<path fill-rule="evenodd" clip-rule="evenodd" d="M314.6 258.8C314.3 258.8 314 258.7 313.8 258.5L313.7 258.4C313.4 258.2 313.2 257.8 313.2 257.4V245.2L286.8 236.5C286.6 236.4 286.5 236.4 286.4 236.3C286.3 236.2 286.2 236.2 286.2 236.1C285.8 235.8 285.6 235.4 285.7 234.9C285.8 234.4 286.1 234.1 286.5 233.9L290.5 232.6C290.6 232.6 290.8 232.5 290.9 232.5C291 232.5 291.2 232.5 291.3 232.6L317.5 240.9C318 241.1 318.4 241.5 318.4 242.1L318.7 256.3C318.7 256.8 318.4 257.3 317.9 257.5L315.1 258.7C314.9 258.7 314.7 258.8 314.6 258.8Z" fill="#B3B3B3"/>
<path d="M290.8 233.9L317 242.2L317.3 256.4L314.5 257.6L314.4 257.5V244.3L287.1 235.4C286.9 235.3 286.9 235.2 286.9 235.2L290.8 233.9ZM290.8 231.4C290.5 231.4 290.3 231.4 290 231.5L286 232.8C285.1 233.1 284.5 233.8 284.3 234.8C284.1 235.7 284.5 236.7 285.3 237.2C285.3 237.2 285.4 237.2 285.4 237.3C285.6 237.5 285.9 237.7 286.2 237.8L311.8 246.2V257.5C311.8 258.3 312.1 259 312.7 259.5L312.8 259.6C313.3 260 313.8 260.1 314.4 260.1C314.7 260.1 315.1 260 315.4 259.9L318.2 258.7C319.1 258.3 319.7 257.4 319.7 256.3L319.4 242.1C319.4 241 318.7 240.1 317.7 239.8L291.5 231.5C291.4 231.4 291.1 231.4 290.8 231.4Z" fill="black"/>
<path fill-rule="evenodd" clip-rule="evenodd" d="M314.9 296.5C314.8 296.5 314.6 296.5 314.5 296.4L276.6 284.2C276.3 284.1 276 283.9 275.9 283.6C275.7 283.2 271.2 274.5 272.9 262C272.9 261.6 273.2 261.3 273.5 261.1L315.4 234.2C315.6 234.1 315.8 234 316.1 234C316.2 234 316.4 234 316.5 234.1C331.2 238.8 356.1 247.3 357.3 250.7C358.7 254.5 358.5 274.7 357.8 280C357 285.9 343.6 294.5 342.1 295.5C341.9 295.6 341.7 295.7 341.5 295.7C341.5 295.8 314.9 296.5 314.9 296.5Z" fill="#363C4A"/>
<path d="M316.1 235.4C316.1 235.4 354.9 247.9 356.1 251.2C357.3 254.6 357.3 274.4 356.6 280C355.9 285.5 341.5 294.6 341.5 294.6L314.9 295.3L277.1 283C277.1 283 272.6 274.4 274.2 262.2L316.1 235.4ZM316.1 232.9C315.6 232.9 315.2 233 314.8 233.3L272.9 260.2C272.3 260.6 271.9 261.2 271.8 262C270 274.9 274.7 284 274.9 284.3C275.2 284.9 275.7 285.3 276.3 285.5L314.2 297.7C314.4 297.8 314.7 297.8 315 297.8C315 297.8 315 297.8 315.1 297.8L341.7 297.1C342.2 297.1 342.6 297 343 296.7C343.2 296.6 346.8 294.3 350.5 291.3C357.8 285.4 359 282.2 359.2 280.3C359.9 274.8 360 254.4 358.6 250.4C358.1 249 357.5 247.2 336.6 239.7C326.8 236.2 317.1 233 317 233C316.6 232.9 316.4 232.9 316.1 232.9Z" fill="black"/>
<path fill-rule="evenodd" clip-rule="evenodd" d="M315.1 296.5C314.8 296.5 314.5 296.4 314.2 296.2C314 296 313.8 295.6 313.8 295.3L313.6 276.9C313.6 276.5 313.8 276 314.2 275.8L355.7 250.8C355.9 250.7 356.1 250.6 356.3 250.6C356.5 250.6 356.6 250.6 356.8 250.7C357.2 250.9 357.4 251.2 357.5 251.6C358.6 256.7 358.5 274.9 357.8 280C357 285.9 343.6 294.5 342.1 295.5C341.9 295.6 341.7 295.7 341.5 295.7C341.5 295.8 315.1 296.5 315.1 296.5Z" fill="#262533"/>
<path d="M356.3 251.9C357.3 256.7 357.3 274.7 356.6 279.9C355.9 285.4 341.5 294.5 341.5 294.5L315.1 295.2L314.9 276.8L356.3 251.9ZM356.3 249.4C355.9 249.4 355.4 249.5 355 249.8L313.5 274.8C312.7 275.3 312.3 276.1 312.3 277L312.5 295.4C312.5 296.1 312.8 296.7 313.3 297.2C313.8 297.6 314.4 297.9 315 297.9C315 297.9 315 297.9 315.1 297.9L341.5 297.2C342 297.2 342.4 297.1 342.8 296.8C345.4 295.2 358.2 286.8 359 280.4C359.7 275.2 359.8 256.8 358.7 251.5C358.5 250.7 358 250 357.3 249.7C357 249.5 356.7 249.4 356.3 249.4Z" fill="black"/>
<path fill-rule="evenodd" clip-rule="evenodd" d="M314.9 296.5C314.8 296.5 314.6 296.5 314.5 296.4L276.6 284.2C276.3 284.1 276 283.9 275.9 283.6C275.7 283.2 271.3 274.7 272.8 262.5C272.8 262.1 273.1 261.8 273.4 261.6C273.6 261.5 273.8 261.4 274 261.4C274.2 261.4 274.3 261.4 274.5 261.5C289.1 267.5 306.9 274.3 313.2 275.4L338.1 279.9L356.3 267.3C356.5 267.2 356.8 267.1 357 267.1C357.2 267.1 357.4 267.1 357.6 267.2C358 267.4 358.3 267.8 358.3 268.3C358.3 273.7 358.1 278 357.8 280.1C357 286 343.6 294.6 342.1 295.6C341.9 295.7 341.7 295.8 341.5 295.8L314.9 296.5Z" fill="#262533"/>
<path d="M274.1 262.7C280.5 265.3 304.9 275.2 313 276.7C322.3 278.4 338.4 281.3 338.4 281.3L357 268.4C357 273.3 356.8 277.8 356.5 280C355.8 285.5 341.4 294.6 341.4 294.6L314.8 295.3L277.1 283C277.1 283 272.6 274.6 274.1 262.7ZM274.1 260.2C273.7 260.2 273.2 260.3 272.8 260.5C272.1 260.9 271.7 261.6 271.6 262.3C270 274.9 274.6 283.8 274.8 284.2C275.1 284.8 275.6 285.2 276.2 285.4L314.1 297.6C314.3 297.7 314.6 297.7 314.9 297.7C314.9 297.7 314.9 297.7 315 297.7L341.6 297C342.1 297 342.5 296.9 342.9 296.6C343.1 296.5 346.7 294.2 350.4 291.2C357.7 285.3 358.9 282.1 359.1 280.2C359.5 277.1 359.6 270.8 359.6 268.2C359.6 267.3 359.1 266.4 358.3 266C357.9 265.8 357.5 265.7 357.1 265.7C356.6 265.7 356.1 265.8 355.7 266.1L337.9 278.4L313.5 274C307.3 272.9 289.6 266.1 275.1 260.2C274.8 260.2 274.5 260.2 274.1 260.2Z" fill="black"/>
<path fill-rule="evenodd" clip-rule="evenodd" d="M315.1 296.5C314.8 296.5 314.5 296.4 314.2 296.2C314 296 313.8 295.6 313.8 295.3L313.6 277C313.6 276.6 313.8 276.3 314 276C314.2 275.8 314.5 275.7 314.8 275.7C314.9 275.7 314.9 275.7 315 275.7C323.4 277.2 335.5 279.4 338.1 279.8L356.3 267.2C356.5 267.1 356.8 267 357 267C357.2 267 357.4 267 357.6 267.1C358 267.3 358.3 267.7 358.3 268.2C358.3 273.6 358.1 277.9 357.8 280C357 285.9 343.6 294.5 342.1 295.5C341.9 295.6 341.7 295.7 341.5 295.7C341.5 295.8 315.1 296.5 315.1 296.5Z" fill="#1C1B25"/>
<path d="M357.1 268.3C357.1 273.2 356.9 277.7 356.6 279.9C355.9 285.4 341.5 294.5 341.5 294.5L315.1 295.2L314.9 276.9C324.4 278.6 338.5 281.1 338.5 281.1L357.1 268.3ZM357.1 265.8C356.6 265.8 356.1 265.9 355.7 266.2L337.9 278.5C334.5 277.9 323.3 275.9 315.3 274.5C315.2 274.5 315 274.5 314.9 274.5C314.3 274.5 313.7 274.7 313.3 275.1C312.7 275.6 312.4 276.3 312.4 277L312.6 295.3C312.6 296 312.9 296.6 313.4 297.1C313.9 297.5 314.5 297.8 315.1 297.8C315.1 297.8 315.1 297.8 315.2 297.8L341.6 297.1C342 297.1 342.5 297 342.9 296.7C345.5 295.1 358.3 286.7 359.1 280.3C359.5 277.2 359.6 270.9 359.6 268.3C359.6 267.4 359.1 266.5 358.3 266.1C357.9 265.9 357.5 265.8 357.1 265.8Z" fill="black"/>
<path fill-rule="evenodd" clip-rule="evenodd" d="M307.5 263.3C304.9 263.3 303 262.4 302.1 260.8C301.1 259.1 301.6 256.8 303.3 254.4C304.8 252.3 307.2 250.3 310.1 248.7C313.2 247 316.4 246.1 319.1 246.1C321.7 246.1 323.6 247 324.5 248.6C326.4 252 322.9 257.2 316.5 260.7C313.5 262.3 310.2 263.3 307.5 263.3Z" fill="#262533"/>
<path d="M319.1 247.3C321.2 247.3 322.7 247.9 323.4 249.2C324.9 251.9 321.5 256.6 316 259.6C313 261.2 310 262.1 307.6 262.1C305.5 262.1 304 261.5 303.3 260.2C301.8 257.5 305.2 252.8 310.7 249.8C313.6 248.1 316.7 247.3 319.1 247.3ZM319.1 244.8C316.2 244.8 312.7 245.8 309.5 247.6C305 250 301.7 253.6 300.7 256.8C300.2 258.5 300.3 260 301.1 261.4C302.2 263.4 304.5 264.6 307.6 264.6C310.5 264.6 314 263.6 317.2 261.8C324.2 258 327.8 252.1 325.6 248C324.5 245.9 322.2 244.8 319.1 244.8Z" fill="black"/>
<path fill-rule="evenodd" clip-rule="evenodd" d="M367.3 301.1C367.2 301.1 367.1 301.1 366.9 301.1H366.6C340.3 298.1 338.6 295.6 338 294.7C335.4 291 336.4 281.9 337.4 279.7C338.3 277.6 351.7 266.2 356.5 266.2C356.8 266.2 357 266.2 357.3 266.3C358.2 266.5 360.9 267.8 362.3 268.7C366 271.1 379.6 281.5 379.3 286C379.1 290.1 372.1 301.1 367.3 301.1Z" fill="#262533"/>
<path d="M356.5 267.5C356.7 267.5 356.8 267.5 357 267.6C357.7 267.8 360.3 269 361.7 269.9C367.7 273.8 378.3 283 378.2 286.1C378 289.8 371.1 300 367.4 300C367.3 300 367.2 300 367.2 300C363.8 299.6 341.3 297.1 339.2 294.1C336.9 290.9 337.9 282.2 338.7 280.3C339.4 278.4 352.3 267.5 356.5 267.5ZM356.5 265C354.1 265 350.1 267.1 344.7 271.2C343.9 271.8 337.2 277 336.2 279.2C335.2 281.5 333.9 291.1 337 295.4C337.9 296.6 339.7 299.2 366.5 302.3H366.8C367 302.3 367.1 302.3 367.3 302.3C372.9 302.3 380.3 290.6 380.6 286C381 279.9 363.2 267.7 363 267.6C361.6 266.7 358.7 265.3 357.6 265C357.3 265 356.9 265 356.5 265Z" fill="black"/>
<path fill-rule="evenodd" clip-rule="evenodd" d="M361.1 300.4C361 300.4 361 300.4 360.9 300.4C359.5 300.2 358 300 356.4 299.8C355.7 299.7 355.2 299.1 355.3 298.4C355.9 293.8 357.2 289.8 359.1 286.6C362.6 280.7 367.6 277.9 371.3 276.6C371.4 276.6 371.6 276.5 371.7 276.5C372 276.5 372.3 276.6 372.5 276.8C374 278.2 375.3 279.4 376.2 280.5C376.5 280.8 376.6 281.3 376.4 281.7C376.3 282.1 375.9 282.4 375.4 282.5C374.3 282.7 368.5 284.1 365 290C363.6 292.4 362.6 295.5 362.1 299.2C362.2 299.9 361.7 300.4 361.1 300.4ZM346.9 298.1C346.8 298.1 346.7 298.1 346.6 298.1C344.8 297.7 343.3 297.3 342.1 296.9C341.5 296.7 341.2 296.2 341.2 295.6C341.5 291.7 342.2 286.8 344.9 282.5C347.5 278.4 350.4 275.2 353.8 272.7C356.1 271 358.6 269.7 361.3 268.7C361.4 268.6 361.6 268.6 361.7 268.6C361.9 268.6 362.2 268.7 362.4 268.8C363.8 269.7 365.4 270.9 367 272.1C367.4 272.4 367.6 272.9 367.5 273.3C367.4 273.7 367.1 274.1 366.6 274.3C363.2 275.2 360.4 276.5 357.9 278.3C355.2 280.2 352.9 282.8 350.8 286.2C348.9 289.3 348.4 293.5 348.1 296.8C348.1 297.2 347.9 297.5 347.6 297.7C347.4 298 347.1 298.1 346.9 298.1Z" fill="#1C1B25"/>
<path d="M361.7 269.9C363 270.8 364.6 271.9 366.2 273.2C362.6 274.2 359.7 275.6 357.1 277.4C354.2 279.6 351.8 282.3 349.7 285.6C347.8 288.7 347.1 292.7 346.8 296.8C345.1 296.4 343.6 296.1 342.4 295.7C342.7 291.3 343.5 286.9 345.9 283.2C348.3 279.4 351.1 276.2 354.5 273.7C356.7 272.2 359 270.9 361.7 269.9ZM371.8 277.8C373.2 279 374.4 280.3 375.4 281.4C374.1 281.6 367.9 283.1 364.1 289.5C362.4 292.4 361.5 296 361 299.1C359.6 298.9 358.1 298.7 356.6 298.5C357.1 294.8 358.1 290.7 360.2 287.2C363.6 281.5 368.5 278.9 371.8 277.8ZM361.7 267.4C361.4 267.4 361.1 267.5 360.8 267.6C357.9 268.7 355.4 270.1 353 271.8C349.4 274.4 346.4 277.7 343.7 282C340.9 286.5 340.2 291.6 339.9 295.6C339.8 296.8 340.5 297.8 341.7 298.2C343 298.6 344.5 299 346.3 299.4C346.5 299.4 346.7 299.5 346.8 299.5C347.3 299.5 347.9 299.3 348.3 299C348.9 298.6 349.2 297.9 349.3 297.2C349.5 294 350 290 351.8 287.1C353.8 283.9 356.1 281.4 358.6 279.5C360.9 277.8 363.7 276.5 366.9 275.7C367.8 275.5 368.5 274.7 368.7 273.8C368.9 272.9 368.5 271.9 367.8 271.3C366.1 270 364.5 268.8 363.1 267.9C362.7 267.5 362.2 267.4 361.7 267.4ZM371.8 275.3C371.5 275.3 371.2 275.3 371 275.4C367.2 276.8 361.8 279.7 358.2 286C356.2 289.3 354.9 293.4 354.3 298.2C354.1 299.6 355.1 300.8 356.4 301C358 301.2 359.5 301.4 360.9 301.6C361 301.6 361.1 301.6 361.2 301.6C362.4 301.6 363.5 300.7 363.7 299.4C364.2 295.9 365.1 293 366.4 290.7C369.6 285.2 374.9 284 376 283.8C376.9 283.6 377.6 283 377.9 282.2C378.2 281.3 378 280.4 377.4 279.7C376.4 278.6 375.1 277.3 373.6 275.9C373 275.5 372.4 275.3 371.8 275.3Z" fill="black"/>
<path d="M134.4 379L134.2 378.9C134.3 378.9 134.3 379 134.4 379Z" fill="#654743"/>
<path d="M125.7 299.7C126.3 299.4 128.9 291.6 136.7 290.1C144.5 288.7 147.3 285.2 152.9 281C158.6 276.8 164.3 279.6 171.8 277.3C179.3 275 180.4 273.9 189.3 276.6C198.2 279.4 203.4 279.5 209.2 280.8C215 282.1 210.2 287.8 218.5 293.1C226.8 298.5 234.2 351 186.5 357.4C138.8 363.8 120.6 343 120.7 323.1C120.9 303.3 125.7 299.7 125.7 299.7Z" fill="#A6D296"/>
<path d="M169.9 360.2C149.1 360.2 137.2 354 130.5 348.2C123.1 341.7 119.1 332.8 119.2 323.2C119.3 304.3 123.6 299.5 124.6 298.6C124.7 298.5 124.8 298.2 124.9 298C126.1 295.8 129.4 289.9 136.4 288.6C142.2 287.5 144.9 285.3 148.7 282.3C149.7 281.5 150.8 280.6 152 279.8C155.7 277.1 159.3 277 163.1 276.9C165.7 276.8 168.4 276.8 171.3 275.9C172.2 275.6 173 275.4 173.8 275.1C179.4 273.3 181.4 272.7 189.7 275.2C195.5 277 199.8 277.7 203.6 278.3C205.6 278.6 207.5 278.9 209.5 279.4C213.1 280.2 213.7 282.6 214.3 284.7C214.8 286.9 215.5 289.4 219.4 291.9C224.6 295.3 228.2 311.1 225 325.8C222.6 336.6 214.4 355.2 186.8 358.9C180.6 359.8 175 360.2 169.9 360.2ZM126.6 301C126.2 301.4 122.4 305.7 122.3 323.3C122.2 332.1 125.9 340.1 132.6 346C140.4 352.8 156 360.1 186.4 356.1C210.9 352.8 219.3 337.6 222 325.3C223.4 318.8 223.6 311.7 222.4 305.2C221.3 299.2 219.3 295.5 217.8 294.6C212.9 291.4 212 288 211.4 285.6C210.9 283.6 210.7 282.9 208.9 282.5C207 282.1 205.1 281.8 203.2 281.5C199.3 280.9 194.9 280.2 188.9 278.3C181.6 276 180.1 276.5 174.9 278.2C174.1 278.4 173.3 278.7 172.4 279C169 280 166 280.1 163.3 280.1C159.7 280.2 156.8 280.2 154 282.4C152.8 283.3 151.8 284.1 150.8 284.9C147 288 143.7 290.6 137.1 291.8C131.5 292.8 128.9 297.6 127.7 299.7C127.2 300.3 127 300.7 126.6 301Z" fill="#231916"/>
<path d="M200.7 336.6C200.7 336.6 198.5 323.2 202.4 317.7C206.3 312.1 200.2 309.2 205 301.6C209.8 294 209.9 291 215.3 289.9C220.7 288.8 229 293.1 231.8 298.5C234.6 303.9 236.7 310.6 240.9 313.2C245 315.8 247.3 317.8 249.3 323.2C251.3 328.5 254.2 331.9 253.9 335C253.6 338 250.8 346.3 242.5 348.4C234.3 350.5 214 355.1 200.7 336.6Z" fill="#D6E6AE"/>
<path d="M228 352.1C218.9 352.1 207.9 349.2 199.5 337.6L199.3 337.3L199.2 336.9C199.1 336.3 197 322.9 201.1 316.8C202.6 314.7 202.3 313.2 201.9 311.1C201.4 308.5 200.8 305.3 203.7 300.8C204.9 298.9 205.8 297.4 206.5 296C208.8 291.9 210.2 289.4 214.9 288.4C221 287.2 230 291.8 233 297.8C233.7 299.1 234.3 300.5 235 301.9C236.9 306 238.8 310.2 241.6 311.9C246.1 314.7 248.6 317.1 250.7 322.6C251.4 324.6 252.3 326.3 253.1 327.8C254.5 330.4 255.6 332.7 255.4 335C255.1 338.1 252.2 347.3 242.9 349.7C239.9 350.6 234.4 352.1 228 352.1ZM202.2 336C215.3 353.9 235.5 348.6 242.1 346.9C249.9 344.9 252.2 336.9 252.4 334.8C252.5 333.4 251.6 331.5 250.4 329.2C249.6 327.6 248.7 325.8 247.9 323.7C246.1 318.9 244.1 317 240.1 314.5C236.6 312.3 234.5 307.6 232.4 303.2C231.8 301.9 231.2 300.5 230.5 299.2C228.1 294.5 220.4 290.5 215.7 291.4C212.3 292.1 211.6 293.4 209.3 297.5C208.5 298.8 207.6 300.5 206.4 302.5C204.2 306 204.6 308.2 205.1 310.6C205.5 312.9 206 315.5 203.8 318.6C200.9 322.6 201.6 332.2 202.2 336Z" fill="#231916"/>
<path d="M164.5 289.7C166.5 288.5 178 303.1 179.7 320.4C181.4 337.7 179.4 347.4 179.4 347.4L173.8 347.3C173.8 347.3 177.5 327.4 174.2 314.6C170.9 301.9 164.5 289.7 164.5 289.7Z" fill="#E0EED7"/>
<path d="M180.6 348.8L172.3 348.6L172.6 347C172.6 346.8 176.2 327.3 173 314.9C169.8 302.4 163.5 290.3 163.4 290.2L162.8 289.1L163.9 288.4C164.3 288.2 165 288 166.1 288.5C169.9 290.5 179.6 304.4 181.2 320.2C182.9 337.5 181 347.2 180.9 347.6L180.6 348.8ZM175.5 346L178.4 346.1C178.8 343.1 179.8 334.2 178.5 320.6C177.4 309.8 172.4 300.3 168.7 295.1C170.9 299.9 173.8 307.1 175.7 314.4C178.4 325.3 176.3 341 175.5 346Z" fill="#231916"/>
<path d="M128.2 296.4C128.2 296.4 114.2 302.6 113.4 309.9C112.6 317.2 108.7 321.9 107.8 323.3C106.9 324.7 100.6 330.8 101.6 336.1C102.6 341.4 102.2 354.7 106.1 359.8C110 364.9 107.8 371.3 109 376C110.2 380.7 120.2 390.7 127.6 390.9C135 391 149.1 366.1 148.2 357.5C147.3 348.9 150.2 344.3 148.5 339.7C146.9 335.1 143.6 335.2 140.8 331C138.1 326.8 140.1 322.2 135.1 318.2C130.1 314.2 126.2 313.4 125.5 308.1C124.9 302.8 135.3 298.7 128.2 296.4Z" fill="#D6E6AE"/>
<path d="M127.7 392.3C119.2 392.2 108.9 381.3 107.6 376.3C107.1 374.4 107.1 372.3 107.1 370.3C107.1 367 107.1 363.5 104.9 360.6C101.8 356.6 101.2 348.7 100.7 342.3C100.5 339.9 100.3 337.8 100.1 336.3C99.2001 331.2 103.6 325.9 105.7 323.4C106.1 323 106.4 322.6 106.5 322.4C106.6 322.2 106.8 322 107 321.7C108.3 319.9 111.3 315.7 111.9 309.7C112.3 306.2 115.1 302.6 120.2 299.1C123.9 296.6 127.4 295 127.5 294.9L128 294.7L128.6 294.9C129.9 295.3 131.6 296 132.1 297.7C132.6 299.6 131.2 301.2 129.7 302.9C128.4 304.5 126.9 306.2 127.1 307.8C127.5 311 129.2 312.1 132.3 314.1C133.5 314.9 134.8 315.8 136.2 316.9C139.6 319.6 140.2 322.7 140.7 325.4C141 327.1 141.3 328.6 142.2 330C143.3 331.6 144.4 332.5 145.6 333.4C147.3 334.7 149 336 150 339C151 341.7 150.6 344.3 150.2 347.3C149.8 350 149.4 353.1 149.8 357.2C150.5 364.2 142.6 379.9 135.7 387.3C132.7 390.6 130 392.3 127.7 392.3ZM128.2 298C124.2 299.9 115.4 305 114.9 310C114.2 316.8 110.9 321.5 109.5 323.5C109.3 323.7 109.2 323.9 109.1 324.1C108.9 324.4 108.6 324.8 108.1 325.4C106.3 327.6 102.5 332.1 103.2 335.8C103.5 337.4 103.7 339.6 103.9 342.1C104.3 347.8 104.9 355.5 107.5 358.8C110.3 362.5 110.3 366.7 110.3 370.3C110.3 372.2 110.3 374 110.7 375.5C111.8 379.6 121.2 389.1 127.8 389.2C128.4 389.2 130.3 388.8 133.6 385.2C140.5 377.6 147.5 363.1 146.9 357.5C146.4 353.1 146.9 349.7 147.3 346.9C147.7 344.2 148 342 147.3 340C146.5 337.8 145.4 337 143.9 335.8C142.6 334.8 141.1 333.7 139.8 331.6C138.5 329.7 138.2 327.7 137.8 325.8C137.3 323.3 137 321.1 134.4 319.1C133.1 318.1 131.8 317.2 130.7 316.5C127.6 314.4 124.9 312.6 124.2 308.1C123.8 305.2 125.8 302.7 127.5 300.8C128.1 300.1 129.2 298.9 129.2 298.4C129.1 298.5 128.9 298.3 128.2 298Z" fill="#231916"/>
<path d="M179.2 390.2C179.2 390.2 180.7 402.5 175.3 412.3C169.9 422.1 163 428.9 163 428.9C163 428.9 163.3 440.6 174 429.3C184.7 418 190.1 394.8 186.9 388.5C183.7 382.2 179.2 390.2 179.2 390.2Z" fill="#D8E380"/>
<path d="M166.4 435.8C165.9 435.8 165.4 435.7 164.9 435.5C161.6 434.3 161.4 429.5 161.4 429V428.3L161.9 427.8C162 427.7 168.7 421 174 411.5C179.1 402.2 177.8 390.4 177.7 390.3L177.6 389.8L177.9 389.4C178.4 388.6 180.9 384.4 184.2 384.5C185.9 384.5 187.3 385.7 188.3 387.8C191.7 394.7 186.5 418.3 175.1 430.3C171.6 434 168.8 435.8 166.4 435.8ZM164.5 429.5C164.6 430.6 165.1 432.3 166 432.6C166.5 432.8 168.3 433 172.9 428.2C183.8 416.7 188.2 394.4 185.6 389.1C185.1 388.1 184.6 387.5 184.1 387.5C183.2 387.5 181.7 389.1 180.8 390.4C181 393 181.6 403.8 176.6 412.9C171.9 421.5 166.2 427.7 164.5 429.5Z" fill="#231916"/>
<path d="M242.5 352.2C242.5 352.2 249 345.4 257.7 350.2C266.4 355 273.3 338.8 273.3 338.8C273.3 338.8 272.8 331.5 278.8 334C284.8 336.5 277.8 353.1 273.1 358.6C268.5 364 258 371.6 243.4 365" fill="#D8E380"/>
<path d="M254.7 369.2C251.1 369.2 247.2 368.4 242.8 366.5L244.1 363.7C259.5 370.7 269.4 360.9 272 357.8C275.7 353.4 280.7 342.2 279.5 337.3C279.2 336.1 278.7 335.8 278.3 335.6C277.5 335.3 276.5 335 275.9 335.4C275 336 274.9 338 274.9 338.9V339.3L274.8 339.6C274.6 340 270.2 350.1 263.7 352.4C261.4 353.2 259.2 353 257.1 351.8C249.6 347.6 244 353.3 243.8 353.5L241.6 351.4C244.1 348.7 251 344.8 258.6 349.1C260 349.9 261.3 350 262.8 349.5C267 348.1 270.7 341.5 272 338.7C272 337.6 272.1 334.5 274.2 332.9C275.6 331.9 277.4 331.9 279.6 332.8C280.7 333.2 282.1 334.3 282.6 336.6C284.2 343.1 278.2 355.5 274.5 359.8C272.1 362.3 265.3 369.2 254.7 369.2Z" fill="#231916"/>
<path d="M210.2 380.3C210.2 380.3 216.7 390.9 215.8 402.1C215 413.3 211.5 422.4 211.5 422.4C211.5 422.4 216.7 432.9 221.7 418.1C226.7 403.3 222 380.1 216.5 375.6C211 371.1 210.2 380.3 210.2 380.3Z" fill="#D8E380"/>
<path d="M215.8 427.4C212.5 427.4 210.4 423.4 210.2 422.9L209.9 422.3L210.1 421.7C210.1 421.6 213.5 412.7 214.3 401.9C215.1 391.3 208.9 381.2 208.9 381L208.6 380.6V380.1C208.7 379.1 209.3 374.3 212.3 373.1C213.9 372.4 215.6 372.9 217.4 374.4C223.4 379.2 228.4 402.9 223.1 418.5C221.1 424.3 218.8 427.2 216 427.4C216 427.4 215.9 427.4 215.8 427.4ZM213.2 422.1C213.8 423.1 214.9 424.4 215.9 424.3C216.4 424.3 218.2 423.7 220.3 417.5C225.4 402.5 220.1 380.4 215.6 376.7C214.7 376 214 375.7 213.6 375.9C212.7 376.3 212.1 378.3 211.8 379.9C213.1 382.1 218.1 391.8 217.4 402.1C216.6 411.8 214 419.8 213.2 422.1Z" fill="#231916"/>
<path d="M143.6 350C143.6 350 115.1 367 123.9 387.2C132.6 407.4 154.5 415.3 175.2 415.8C195.9 416.3 235.3 405.7 239.9 394.1C244.5 382.5 245 372.3 247.4 367.2C249.8 362.1 254.9 354.4 251 350.1C247 345.9 240.9 332.1 229.5 332.5C218.1 332.9 207.8 334.8 194.9 333.4C182 332 167.8 338 162.5 341.4C157.2 344.8 147.1 349.4 143.6 350Z" fill="#D8E380"/>
<path d="M176.6 417.3C176.1 417.3 175.7 417.3 175.2 417.3C163.8 417 153.1 414.6 144.4 410.2C134.1 405.1 126.7 397.5 122.5 387.7C118.7 378.9 121 369.2 129.4 359.9C135.5 353 142.6 348.7 142.9 348.6L143.1 348.5H143.4C146.5 348 156.5 343.6 161.7 340.2C167.8 336.2 182.3 330.5 195.1 332C203.8 333 211.5 332.4 218.9 331.8C222.3 331.5 225.8 331.3 229.4 331.1C239.1 330.7 245.2 339.5 249.2 345.3C250.3 346.9 251.3 348.3 252.1 349.2C256.2 353.6 252.6 360.5 250 365.5C249.5 366.4 249.1 367.2 248.8 368C247.8 370.1 247.1 373.3 246.3 377.1C245.3 382 243.9 388.2 241.3 394.8C236.6 406.7 198.3 417.3 176.6 417.3ZM144.2 351.4C141.6 353 117.6 368.8 125.3 386.6C128.8 394.7 140.6 413.5 175.3 414.3C175.8 414.3 176.2 414.3 176.7 414.3C198.4 414.3 234.6 403.5 238.6 393.5C241.1 387.1 242.4 381.1 243.4 376.3C244.3 372.2 245 369 246.1 366.5C246.5 365.7 246.9 364.9 247.4 364C249.7 359.5 252.6 354 250 351.2C249 350.2 248 348.7 246.8 347C242.9 341.5 237.6 333.9 229.6 334.1C226.1 334.2 222.6 334.5 219.2 334.8C211.6 335.4 203.8 336 194.8 335C182.8 333.6 169.2 339 163.4 342.8C158.2 346.1 148.2 350.6 144.2 351.4Z" fill="#231916"/>
<path d="M161.5 360.1C157.9 360.1 154.8 358.7 152.1 357.5C151.2 357.1 150.4 356.8 149.7 356.4C146.3 355.1 142.3 358.7 142.3 358.7L140.2 356.4C140.4 356.2 145.7 351.4 150.9 353.5C151.8 353.8 152.6 354.2 153.5 354.6C157.1 356.2 160.7 357.9 165.1 356.3C167.8 355.4 169 354.2 170.2 353.1C171.5 351.9 172.9 350.6 175.9 350.3C178.4 350.1 179.9 350.8 181.1 351.4C182.4 352 183.4 352.5 185.9 351.7C188.1 350.9 188.4 350.3 188.7 349.4C189.2 348.1 189.9 346.8 192.5 346.3C194.9 345.9 196.2 346.5 197.1 346.9C197.9 347.3 198.2 347.4 199.9 346.8C201.4 346.2 201.8 345.6 202.3 344.8C203.3 343.4 204.3 342.3 207.4 341.9C210.1 341.6 211.9 342.4 213.5 343.1C215.1 343.8 216.4 344.4 218.7 343.7C220.5 343.2 221.4 342.2 222.6 341.1C224.3 339.4 226.2 337.6 230.8 337.7C238 337.9 242.5 341.4 242.6 341.5L240.7 344C240.7 344 236.8 341 230.7 340.8C227.5 340.7 226.4 341.8 224.8 343.3C223.6 344.5 222.2 345.9 219.7 346.7C216.3 347.7 214.2 346.8 212.3 345.9C210.9 345.3 209.7 344.7 207.9 345C205.9 345.3 205.6 345.7 205 346.6C204.4 347.5 203.5 348.7 201.2 349.7C198.5 350.8 197.2 350.4 195.9 349.8C195.2 349.5 194.7 349.2 193.2 349.5C192.1 349.7 192.1 349.8 191.8 350.6C191.3 352.1 190.4 353.7 187.1 354.8C183.4 356.1 181.5 355.2 179.9 354.4C178.8 353.9 178 353.5 176.4 353.6C174.5 353.8 173.8 354.5 172.6 355.6C171.3 356.8 169.7 358.3 166.4 359.4C164.4 359.9 162.9 360.1 161.5 360.1Z" fill="#231916"/>
<path d="M198.8 354.3C201.5 353.6 208.9 373.4 208.9 389.3C208.9 405.2 201.6 411.7 201.6 411.7L194.2 413.2C194.2 413.2 205.2 405.4 204.4 390C203.8 374.7 196.2 355.1 198.8 354.3Z" fill="#E0EED7"/>
<path d="M188.3 415.8L193.4 412.1C193.5 412 203.8 404.5 203.1 390.1C202.7 382.5 200.7 373.8 199 366.8C196.8 357.6 195.9 353.8 198.5 353C198.9 352.9 199.6 352.9 200.4 353.5C204.1 356.3 210.3 374.7 210.3 389.4C210.3 405.7 202.9 412.5 202.6 412.8L202.3 413L188.3 415.8ZM199.7 356.7C199.9 358.8 200.9 362.7 201.7 366.2C203.4 373.3 205.5 382.1 205.9 390C206.4 400.2 202 407.2 198.6 411L201 410.5C201.5 409.9 202.9 408.4 204.2 405.8C205.8 402.7 207.6 397.3 207.6 389.4C207.6 376 202.3 360.9 199.7 356.7Z" fill="#231916"/>
<path d="M133.7 385.3C133.7 385.3 125.4 379.8 118.5 387.6C111.7 395.4 100 379.8 100 379.8C100 379.8 98.3 371.8 93.3 376.3C88.3 380.8 100.1 396.6 106.3 401.3C112.3 405.8 124.7 410.9 136.7 399.5" fill="#D8E380"/>
<path d="M120.9 407.8C115.1 407.8 109.7 405.5 105.5 402.4C100.6 398.7 91.0001 387 90.7001 379.7C90.6001 377.2 91.6001 375.8 92.4001 375.1C94.6001 373.2 96.3001 373.2 97.5001 373.5C100.2 374.4 101.3 377.9 101.6 379.1C103.7 381.8 109.4 388 113.9 388.2C115.3 388.3 116.5 387.7 117.5 386.6C123.6 379.7 131.4 381.9 134.6 384.1L132.9 386.6C132.6 386.4 125.6 382 119.7 388.6C118.1 390.5 116 391.4 113.7 391.3C106.6 391 99.2001 381.2 98.9001 380.8L98.7001 380.5L98.6001 380.2C98.3001 378.9 97.4001 376.8 96.4001 376.5C95.7001 376.3 94.8001 377 94.3001 377.4C94.1001 377.6 93.5001 378.1 93.6001 379.6C93.9001 385.3 102.1 396.2 107.2 400C110.7 402.6 123.1 410.3 135.7 398.4L137.8 400.6C132.3 405.8 126.4 407.8 120.9 407.8Z" fill="#231916"/>
<path d="M215.749 363.251C216.286 361.567 215.355 359.767 213.671 359.231C211.987 358.695 210.187 359.625 209.651 361.309C209.115 362.993 210.045 364.793 211.729 365.329C213.413 365.866 215.213 364.935 215.749 363.251Z" fill="#231916"/>
<path d="M192.375 367.292C192.404 365.525 190.995 364.068 189.228 364.039C187.461 364.01 186.005 365.419 185.976 367.186C185.947 368.953 187.356 370.409 189.123 370.439C190.89 370.468 192.346 369.059 192.375 367.292Z" fill="#231916"/>
<path d="M176.1 365.5C176.1 365.5 175 370.9 173.1 373.2C171.2 375.5 173.4 378.2 174.9 378.3C176.4 378.4 179 376.7 178.3 373.5C177.7 370.4 177.7 368.4 177.7 368.4" fill="white"/>
<path d="M173.5 379.1C172.6 378.6 171.8 377.8 171.4 376.8C170.7 375.3 171 373.6 172.1 372.3C173.5 370.6 174.6 366.6 174.8 365.2L177.3 365.7C177.3 365.8 177.1 366.9 176.6 368.3H178.9C178.9 368.3 178.9 370.2 179.5 373.2C179.8 374.9 179.5 376.6 178.4 377.8C177.4 378.9 176 379.6 174.7 379.5C174.4 379.5 173.9 379.3 173.5 379.1ZM176.4 369.2C175.8 370.9 175.1 372.8 174 374C173.5 374.6 173.4 375.1 173.7 375.8C174 376.5 174.7 377 174.9 377C175.2 377 175.9 376.8 176.5 376.2C176.9 375.8 177.3 375 177 373.8C176.6 371.6 176.5 370.1 176.4 369.2Z" fill="#231916"/>
<path d="M201.8 383.5C188.8 386 194.3 368.9 206.5 372.5C221.6 374.8 204.7 382.9 201.8 383.5Z" fill="white"/>
<path d="M201.5 382.4C200.6 382.6 199.7 382.7 198.7 382.6C198.6 382.6 198.5 382.6 198.4 382.6C198.2 382.6 198.5 382.6 198.3 382.6C198.1 382.6 197.9 382.5 197.7 382.5C197.5 382.5 197.4 382.4 197.2 382.3C197.1 382.3 197 382.2 197.2 382.3C197.1 382.3 197 382.2 197 382.2C196.9 382.1 196.7 382.1 196.6 382C196.5 382 196.5 381.9 196.4 381.9C196.6 382 196.5 382 196.4 381.9C196.3 381.8 196.2 381.7 196.1 381.6C196.1 381.6 196 381.5 196 381.4C195.9 381.3 196.1 381.5 196.1 381.5L196 381.4C195.9 381.3 195.9 381.2 195.8 381.1C195.8 381 195.7 381 195.7 380.9C195.7 380.9 195.8 381.1 195.7 380.9C195.7 380.8 195.6 380.6 195.6 380.5C195.6 380.4 195.5 380 195.6 380.3C195.6 380 195.6 379.7 195.6 379.4C195.6 379.3 195.7 378.9 195.6 379.2C195.6 379 195.7 378.9 195.7 378.7C195.8 378.4 195.9 378.1 196 377.8C196.1 377.6 195.9 377.9 196 377.7C196 377.6 196.1 377.6 196.1 377.5C196.2 377.3 196.3 377.2 196.3 377C196.4 376.9 196.5 376.7 196.6 376.6C196.7 376.5 196.7 376.4 196.8 376.4C196.8 376.4 197 376.1 196.9 376.2C196.8 376.3 197 376.1 197 376.1C197.1 376 197.1 376 197.2 375.9C197.3 375.7 197.5 375.6 197.6 375.5C197.7 375.4 197.9 375.3 198 375.1C198.1 375 198.1 375 198.2 374.9C198.3 374.8 198.5 374.7 198.3 374.8C198.6 374.6 198.9 374.3 199.3 374.2C199.5 374.1 199.6 374 199.8 373.9C199.9 373.9 200 373.8 200.1 373.8C200.2 373.7 200.1 373.8 200.1 373.8C200.2 373.8 200.2 373.8 200.3 373.7C200.7 373.5 201.1 373.4 201.5 373.3C201.7 373.3 201.9 373.2 202.1 373.2C202.2 373.2 202.4 373.2 202.2 373.2C202.3 373.2 202.4 373.2 202.6 373.2C203.1 373.2 203.5 373.1 204 373.2C204.6 373.2 204.8 373.3 205.3 373.4C205.9 373.5 206.5 373.7 207.1 373.8C208.2 374 209.4 374.2 210.4 374.7C210.2 374.6 210.5 374.7 210.5 374.7C210.6 374.7 210.7 374.8 210.8 374.8C211 374.9 211.1 375 211.3 375.1C211.4 375.2 211.5 375.2 211.3 375.1C211.4 375.1 211.4 375.2 211.5 375.2L211.6 375.3C211.7 375.4 211.7 375.5 211.6 375.3C211.7 375.4 211.7 375.5 211.8 375.6C211.7 375.5 211.7 375.4 211.8 375.5C211.8 375.5 211.8 375.6 211.8 375.7C211.8 375.7 211.8 375.4 211.8 375.6C211.8 375.6 211.8 375.7 211.8 375.8C211.8 376 211.8 375.8 211.8 375.7C211.8 375.8 211.8 375.8 211.8 375.9C211.8 376 211.6 376.3 211.8 376C211.7 376.1 211.7 376.2 211.6 376.4C211.5 376.5 211.5 376.6 211.4 376.7C211.3 376.9 211.5 376.6 211.4 376.7C211.3 376.8 211.3 376.8 211.2 376.9C211 377.1 210.7 377.4 210.5 377.6C210.4 377.7 210.2 377.8 210.1 378C210 378.1 210 378.1 209.9 378.2C209.7 378.4 210 378.2 209.8 378.3C208.5 379.3 207.1 380.1 205.7 380.8C205.4 381 205 381.1 204.7 381.3C204.5 381.4 204.4 381.4 204.2 381.5C204.1 381.5 204 381.6 203.9 381.6H203.8C203.7 381.7 204 381.5 203.9 381.6C203.4 381.8 202.9 382 202.4 382.2C201.9 382.3 201.7 382.3 201.5 382.4C200.9 382.5 200.6 383.2 200.7 383.8C200.9 384.4 201.5 384.7 202.1 384.6C203.3 384.4 204.5 383.8 205.7 383.2C207.3 382.5 208.8 381.6 210.3 380.6C211.6 379.7 213 378.6 213.6 377.1C214.3 375.5 213.6 374 212.2 373.1C211.3 372.5 210.2 372.2 209.2 371.9C208.5 371.7 207.8 371.6 207.1 371.5C206.5 371.4 205.9 371.2 205.3 371.1C203.1 370.8 201 370.9 198.9 371.8C195.9 373.1 193.3 376.1 193.2 379.5C193.2 381 193.8 382.5 194.9 383.4C196.4 384.6 198.3 384.9 200.2 384.8C200.8 384.8 201.5 384.7 202.1 384.5C202.7 384.4 203 383.7 202.9 383.1C202.7 382.5 202.1 382.3 201.5 382.4Z" fill="#231916"/>
<path d="M89.2 401.9C91.7 389.4 96.6 377.8 104 367.5C110.9 357.8 120.1 349.5 130.1 343C140.5 336.3 151.7 331.6 163.6 328.5C175.6 325.4 187.7 324 200.2 324.5C214.3 325 228 328.4 241.8 331.9C259.6 336.4 277.2 341.6 295 346.4C312.3 351 329.9 355.6 347.7 357.6C359.9 359 372.8 356.5 383.1 349.7C391.9 343.9 398.7 335.1 399.9 324.4C401.1 312.7 394.1 302.2 385.3 295.2C382.3 292.8 379 290.6 375.6 288.8C372.2 286.9 369.2 292.1 372.6 294C378.5 297.3 384.2 301.4 388.3 306.7C389 307.6 389.8 308.8 390.5 309.9C390.8 310.5 391.2 311.1 391.5 311.7C391.6 312 391.8 312.2 391.9 312.5C392 312.6 392.3 313.4 392.1 313C392.6 314.2 393 315.4 393.3 316.6C393.4 317.1 393.6 317.7 393.7 318.2C393.8 318.5 393.8 318.7 393.8 319C393.7 318.4 393.8 319.3 393.8 319.4C393.9 320.6 394 321.8 393.9 322.9C393.9 323.4 393.8 324 393.8 324.5C393.7 325.2 393.8 324.4 393.7 324.9C393.6 325.2 393.6 325.5 393.5 325.8C393.3 326.9 393 328 392.6 329C392.5 329.3 392.4 329.6 392.3 329.9C392.3 330 392 330.7 392.1 330.4C392.2 330.2 391.9 330.8 391.9 330.9C391.8 331.2 391.6 331.5 391.5 331.8C391 332.9 390.4 333.9 389.7 334.9C389.4 335.4 389.1 335.8 388.7 336.3C388.6 336.4 388.2 337 388.5 336.6C388.3 336.9 388.1 337.1 387.9 337.4C386.3 339.4 384.4 341.1 382.4 342.7C382.3 342.8 382.4 342.7 382 343C381.8 343.2 381.5 343.4 381.3 343.5C380.8 343.9 380.2 344.3 379.6 344.6C378.4 345.3 377.3 346 376 346.7C373.5 348 371.4 348.8 368.6 349.7C362.7 351.5 357 352.1 350.8 351.8C342.7 351.4 334.5 349.6 326.5 347.9C317.6 346 308.8 343.9 300 341.5C282.4 336.8 264.9 331.6 247.2 327.1C239 325 230.7 323.2 222.5 321.3C216.4 320 210.3 319.1 204.1 318.7C191.6 317.8 178.9 318.9 166.7 321.5C154.6 324.2 142.8 328.6 132 334.7C121.4 340.7 111.6 348.5 103.7 357.8C95.4 367.5 89.2 378.8 85.4 391C84.5 394.1 83.7 397.2 83.1 400.3C82.8 401.9 83.6 403.5 85.2 404C87 404.4 88.9 403.5 89.2 401.9Z" fill="black"/>
<path fill-rule="evenodd" clip-rule="evenodd" d="M221.4 168.8L185.5 119.5L160.3 128.7L148.1 46.2L182.2 95.9L209.8 91.3C209.8 91.2 221.3 168.1 221.4 168.8Z" fill="#FFBC00" stroke="black" stroke-width="2.5" stroke-miterlimit="10" stroke-linecap="round" stroke-linejoin="round"/>
</svg>
