<svg width="170" height="464" viewBox="0 0 170 464" fill="none" xmlns="http://www.w3.org/2000/svg">
<path d="M57.5 19.2739V70.7638" stroke="#A9CE53" stroke-width="3" stroke-miterlimit="10"/>
<path d="M57.5 0V11.2893" stroke="#A9CE53" stroke-width="3" stroke-miterlimit="10"/>
<path d="M57.5 151.71V163" stroke="#A9CE53" stroke-width="3" stroke-miterlimit="10"/>
<path d="M57.5 91.6904V143.173" stroke="#A9CE53" stroke-width="3" stroke-miterlimit="10"/>
<path d="M33.6841 24.0083L53.3886 71.5788" stroke="#A9CE53" stroke-width="3" stroke-miterlimit="10"/>
<path d="M26.314 6.20166L30.633 16.6303" stroke="#A9CE53" stroke-width="3" stroke-miterlimit="10"/>
<path d="M84.3669 146.37L88.686 156.798" stroke="#A9CE53" stroke-width="3" stroke-miterlimit="10"/>
<path d="M61.3965 90.9141L81.101 138.485" stroke="#A9CE53" stroke-width="3" stroke-miterlimit="10"/>
<path d="M13.5029 37.5029L49.907 73.907" stroke="#A9CE53" stroke-width="3" stroke-miterlimit="10"/>
<path d="M-0.130371 23.8696L7.8544 31.8544" stroke="#A9CE53" stroke-width="3" stroke-miterlimit="10"/>
<path d="M107.146 131.146L115.13 139.13" stroke="#A9CE53" stroke-width="3" stroke-miterlimit="10"/>
<path d="M64.7009 88.7007L101.113 125.112" stroke="#A9CE53" stroke-width="3" stroke-miterlimit="10"/>
<path d="M0.00805664 57.6841L47.5785 77.3886" stroke="#A9CE53" stroke-width="3" stroke-miterlimit="10"/>
<path d="M122.37 108.367L132.798 112.686" stroke="#A9CE53" stroke-width="3" stroke-miterlimit="10"/>
<path d="M66.9141 85.3965L114.485 105.101" stroke="#A9CE53" stroke-width="3" stroke-miterlimit="10"/>
<path d="M-4.72583 81.5H46.764" stroke="#A9CE53" stroke-width="3" stroke-miterlimit="10"/>
<path d="M127.711 81.5H139" stroke="#A9CE53" stroke-width="3" stroke-miterlimit="10"/>
<path d="M67.6904 81.5H119.173" stroke="#A9CE53" stroke-width="3" stroke-miterlimit="10"/>
<path d="M0.00805664 105.316L47.5785 85.6113" stroke="#A9CE53" stroke-width="3" stroke-miterlimit="10"/>
<path d="M122.37 54.633L132.798 50.314" stroke="#A9CE53" stroke-width="3" stroke-miterlimit="10"/>
<path d="M66.9141 77.6039L114.485 57.8994" stroke="#A9CE53" stroke-width="3" stroke-miterlimit="10"/>
<path d="M13.5029 125.505L49.907 89.0928" stroke="#A9CE53" stroke-width="3" stroke-miterlimit="10"/>
<path d="M-0.130371 139.13L7.8544 131.146" stroke="#A9CE53" stroke-width="3" stroke-miterlimit="10"/>
<path d="M107.146 31.8544L115.13 23.8696" stroke="#A9CE53" stroke-width="3" stroke-miterlimit="10"/>
<path d="M64.7009 74.299L101.113 37.8872" stroke="#A9CE53" stroke-width="3" stroke-miterlimit="10"/>
<path d="M33.6841 138.992L53.3886 91.4214" stroke="#A9CE53" stroke-width="3" stroke-miterlimit="10"/>
<path d="M26.314 156.798L30.633 146.37" stroke="#A9CE53" stroke-width="3" stroke-miterlimit="10"/>
<path d="M84.3669 16.6303L88.686 6.20166" stroke="#A9CE53" stroke-width="3" stroke-miterlimit="10"/>
<path d="M61.3965 72.0856L81.101 24.5151" stroke="#A9CE53" stroke-width="3" stroke-miterlimit="10"/>
<path d="M-0.5 320.145V371.634" stroke="#A9CE53" stroke-width="3" stroke-miterlimit="10"/>
<path d="M-0.5 300.871V312.16" stroke="#A9CE53" stroke-width="3" stroke-miterlimit="10"/>
<path d="M-0.5 452.581V463.87" stroke="#A9CE53" stroke-width="3" stroke-miterlimit="10"/>
<path d="M-0.5 392.561V444.043" stroke="#A9CE53" stroke-width="3" stroke-miterlimit="10"/>
<path d="M26.3669 447.24L30.686 457.669" stroke="#A9CE53" stroke-width="3" stroke-miterlimit="10"/>
<path d="M3.39648 391.785L23.101 439.355" stroke="#A9CE53" stroke-width="3" stroke-miterlimit="10"/>
<path d="M49.1455 432.016L57.1303 440.001" stroke="#A9CE53" stroke-width="3" stroke-miterlimit="10"/>
<path d="M6.70093 389.571L43.1127 425.983" stroke="#A9CE53" stroke-width="3" stroke-miterlimit="10"/>
<path d="M64.3696 409.237L74.7982 413.556" stroke="#A9CE53" stroke-width="3" stroke-miterlimit="10"/>
<path d="M8.91406 386.267L56.4845 405.972" stroke="#A9CE53" stroke-width="3" stroke-miterlimit="10"/>
<path d="M69.7107 382.371H81" stroke="#A9CE53" stroke-width="3" stroke-miterlimit="10"/>
<path d="M9.69043 382.371H61.1726" stroke="#A9CE53" stroke-width="3" stroke-miterlimit="10"/>
<path d="M64.3696 355.504L74.7982 351.185" stroke="#A9CE53" stroke-width="3" stroke-miterlimit="10"/>
<path d="M8.91406 378.474L56.4845 358.77" stroke="#A9CE53" stroke-width="3" stroke-miterlimit="10"/>
<path d="M49.1455 332.725L57.1303 324.74" stroke="#A9CE53" stroke-width="3" stroke-miterlimit="10"/>
<path d="M6.70093 375.17L43.1127 338.758" stroke="#A9CE53" stroke-width="3" stroke-miterlimit="10"/>
<path d="M26.3669 317.501L30.686 307.072" stroke="#A9CE53" stroke-width="3" stroke-miterlimit="10"/>
<path d="M3.39648 372.956L23.101 325.386" stroke="#A9CE53" stroke-width="3" stroke-miterlimit="10"/>
<path d="M117.5 193.416V226.584" stroke="#FFE57B" stroke-width="3" stroke-miterlimit="10"/>
<path d="M117.5 181V188.272" stroke="#FFE57B" stroke-width="3" stroke-miterlimit="10"/>
<path d="M117.5 278.728V286" stroke="#FFE57B" stroke-width="3" stroke-miterlimit="10"/>
<path d="M117.5 240.064V273.228" stroke="#FFE57B" stroke-width="3" stroke-miterlimit="10"/>
<path d="M102.158 196.466L114.852 227.109" stroke="#FFE57B" stroke-width="3" stroke-miterlimit="10"/>
<path d="M97.4109 184.995L100.193 191.713" stroke="#FFE57B" stroke-width="3" stroke-miterlimit="10"/>
<path d="M134.807 275.287L137.589 282.005" stroke="#FFE57B" stroke-width="3" stroke-miterlimit="10"/>
<path d="M120.01 239.564L132.703 270.208" stroke="#FFE57B" stroke-width="3" stroke-miterlimit="10"/>
<path d="M89.1584 205.158L112.609 228.609" stroke="#FFE57B" stroke-width="3" stroke-miterlimit="10"/>
<path d="M80.3762 196.376L85.5198 201.52" stroke="#FFE57B" stroke-width="3" stroke-miterlimit="10"/>
<path d="M149.48 265.48L154.624 270.624" stroke="#FFE57B" stroke-width="3" stroke-miterlimit="10"/>
<path d="M122.139 238.138L145.594 261.594" stroke="#FFE57B" stroke-width="3" stroke-miterlimit="10"/>
<path d="M80.4653 218.158L111.109 230.852" stroke="#FFE57B" stroke-width="3" stroke-miterlimit="10"/>
<path d="M68.9951 213.411L75.7129 216.193" stroke="#FFE57B" stroke-width="3" stroke-miterlimit="10"/>
<path d="M159.287 250.807L166.005 253.589" stroke="#FFE57B" stroke-width="3" stroke-miterlimit="10"/>
<path d="M123.564 236.01L154.208 248.703" stroke="#FFE57B" stroke-width="3" stroke-miterlimit="10"/>
<path d="M77.416 233.5H110.584" stroke="#FFE57B" stroke-width="3" stroke-miterlimit="10"/>
<path d="M65 233.5H72.2723" stroke="#FFE57B" stroke-width="3" stroke-miterlimit="10"/>
<path d="M162.728 233.5H170" stroke="#FFE57B" stroke-width="3" stroke-miterlimit="10"/>
<path d="M124.064 233.5H157.228" stroke="#FFE57B" stroke-width="3" stroke-miterlimit="10"/>
<path d="M80.4653 248.841L111.109 236.148" stroke="#FFE57B" stroke-width="3" stroke-miterlimit="10"/>
<path d="M68.9951 253.589L75.7129 250.807" stroke="#FFE57B" stroke-width="3" stroke-miterlimit="10"/>
<path d="M159.287 216.193L166.005 213.411" stroke="#FFE57B" stroke-width="3" stroke-miterlimit="10"/>
<path d="M123.564 230.99L154.208 218.297" stroke="#FFE57B" stroke-width="3" stroke-miterlimit="10"/>
<path d="M89.1584 261.847L112.609 238.391" stroke="#FFE57B" stroke-width="3" stroke-miterlimit="10"/>
<path d="M80.3762 270.624L85.5198 265.48" stroke="#FFE57B" stroke-width="3" stroke-miterlimit="10"/>
<path d="M149.48 201.52L154.624 196.376" stroke="#FFE57B" stroke-width="3" stroke-miterlimit="10"/>
<path d="M122.139 228.861L145.594 205.406" stroke="#FFE57B" stroke-width="3" stroke-miterlimit="10"/>
<path d="M102.158 270.535L114.852 239.891" stroke="#FFE57B" stroke-width="3" stroke-miterlimit="10"/>
<path d="M97.4109 282.005L100.193 275.287" stroke="#FFE57B" stroke-width="3" stroke-miterlimit="10"/>
<path d="M134.807 191.713L137.589 184.995" stroke="#FFE57B" stroke-width="3" stroke-miterlimit="10"/>
<path d="M120.01 227.436L132.703 196.792" stroke="#FFE57B" stroke-width="3" stroke-miterlimit="10"/>
</svg>
