<svg width="204" height="238" viewBox="0 0 204 238" fill="none" xmlns="http://www.w3.org/2000/svg">
<path d="M179.5 94.2739V145.764" stroke="#A9CE53" stroke-width="3" stroke-miterlimit="10"/>
<path d="M179.5 75V86.2893" stroke="#A9CE53" stroke-width="3" stroke-miterlimit="10"/>
<path d="M179.5 226.71V238" stroke="#A9CE53" stroke-width="3" stroke-miterlimit="10"/>
<path d="M179.5 166.69V218.173" stroke="#A9CE53" stroke-width="3" stroke-miterlimit="10"/>
<path d="M155.684 99.0083L175.389 146.579" stroke="#A9CE53" stroke-width="3" stroke-miterlimit="10"/>
<path d="M148.314 81.2017L152.633 91.6303" stroke="#A9CE53" stroke-width="3" stroke-miterlimit="10"/>
<path d="M183.396 165.914L203.101 213.485" stroke="#A9CE53" stroke-width="3" stroke-miterlimit="10"/>
<path d="M135.503 112.503L171.907 148.907" stroke="#A9CE53" stroke-width="3" stroke-miterlimit="10"/>
<path d="M121.87 98.8696L129.854 106.854" stroke="#A9CE53" stroke-width="3" stroke-miterlimit="10"/>
<path d="M186.701 163.701L223.113 200.112" stroke="#A9CE53" stroke-width="3" stroke-miterlimit="10"/>
<path d="M122.008 132.684L169.579 152.389" stroke="#A9CE53" stroke-width="3" stroke-miterlimit="10"/>
<path d="M104.202 125.314L114.63 129.633" stroke="#A9CE53" stroke-width="3" stroke-miterlimit="10"/>
<path d="M188.914 160.396L236.485 180.101" stroke="#A9CE53" stroke-width="3" stroke-miterlimit="10"/>
<path d="M117.274 156.5H168.764" stroke="#A9CE53" stroke-width="3" stroke-miterlimit="10"/>
<path d="M98 156.5H109.289" stroke="#A9CE53" stroke-width="3" stroke-miterlimit="10"/>
<path d="M189.69 156.5H241.173" stroke="#A9CE53" stroke-width="3" stroke-miterlimit="10"/>
<path d="M122.008 180.316L169.579 160.611" stroke="#A9CE53" stroke-width="3" stroke-miterlimit="10"/>
<path d="M104.202 187.686L114.63 183.367" stroke="#A9CE53" stroke-width="3" stroke-miterlimit="10"/>
<path d="M188.914 152.604L236.485 132.899" stroke="#A9CE53" stroke-width="3" stroke-miterlimit="10"/>
<path d="M135.503 200.505L171.907 164.093" stroke="#A9CE53" stroke-width="3" stroke-miterlimit="10"/>
<path d="M121.87 214.13L129.854 206.146" stroke="#A9CE53" stroke-width="3" stroke-miterlimit="10"/>
<path d="M186.701 149.299L223.113 112.887" stroke="#A9CE53" stroke-width="3" stroke-miterlimit="10"/>
<path d="M155.684 213.992L175.389 166.421" stroke="#A9CE53" stroke-width="3" stroke-miterlimit="10"/>
<path d="M148.314 231.798L152.633 221.37" stroke="#A9CE53" stroke-width="3" stroke-miterlimit="10"/>
<path d="M183.396 147.086L203.101 99.5151" stroke="#A9CE53" stroke-width="3" stroke-miterlimit="10"/>
<path d="M52.5 12.4158V45.5841" stroke="#FFE57B" stroke-width="3" stroke-miterlimit="10"/>
<path d="M52.5 0V7.27227" stroke="#FFE57B" stroke-width="3" stroke-miterlimit="10"/>
<path d="M52.5 97.7275V105" stroke="#FFE57B" stroke-width="3" stroke-miterlimit="10"/>
<path d="M52.5 59.0645V92.2278" stroke="#FFE57B" stroke-width="3" stroke-miterlimit="10"/>
<path d="M37.1587 15.4656L49.8518 46.1091" stroke="#FFE57B" stroke-width="3" stroke-miterlimit="10"/>
<path d="M32.4106 3.99487L35.1928 10.7127" stroke="#FFE57B" stroke-width="3" stroke-miterlimit="10"/>
<path d="M69.8071 94.2871L72.5893 101.005" stroke="#FFE57B" stroke-width="3" stroke-miterlimit="10"/>
<path d="M55.0098 58.5642L67.7028 89.2077" stroke="#FFE57B" stroke-width="3" stroke-miterlimit="10"/>
<path d="M24.1582 24.1582L47.6087 47.6087" stroke="#FFE57B" stroke-width="3" stroke-miterlimit="10"/>
<path d="M15.376 15.3762L20.5195 20.5198" stroke="#FFE57B" stroke-width="3" stroke-miterlimit="10"/>
<path d="M84.48 84.4802L89.6236 89.6238" stroke="#FFE57B" stroke-width="3" stroke-miterlimit="10"/>
<path d="M57.1387 57.1384L80.5941 80.5939" stroke="#FFE57B" stroke-width="3" stroke-miterlimit="10"/>
<path d="M15.4653 37.1584L46.1089 49.8515" stroke="#FFE57B" stroke-width="3" stroke-miterlimit="10"/>
<path d="M3.99512 32.4109L10.7129 35.1931" stroke="#FFE57B" stroke-width="3" stroke-miterlimit="10"/>
<path d="M94.2871 69.8066L101.005 72.5888" stroke="#FFE57B" stroke-width="3" stroke-miterlimit="10"/>
<path d="M58.5645 55.01L89.208 67.7031" stroke="#FFE57B" stroke-width="3" stroke-miterlimit="10"/>
<path d="M12.416 52.5H45.5843" stroke="#FFE57B" stroke-width="3" stroke-miterlimit="10"/>
<path d="M0 52.5H7.27227" stroke="#FFE57B" stroke-width="3" stroke-miterlimit="10"/>
<path d="M97.7275 52.5H105" stroke="#FFE57B" stroke-width="3" stroke-miterlimit="10"/>
<path d="M59.0645 52.5H92.2278" stroke="#FFE57B" stroke-width="3" stroke-miterlimit="10"/>
<path d="M15.4653 67.8415L46.1089 55.1484" stroke="#FFE57B" stroke-width="3" stroke-miterlimit="10"/>
<path d="M3.99512 72.5888L10.7129 69.8066" stroke="#FFE57B" stroke-width="3" stroke-miterlimit="10"/>
<path d="M94.2871 35.1931L101.005 32.4109" stroke="#FFE57B" stroke-width="3" stroke-miterlimit="10"/>
<path d="M58.5645 49.9902L89.208 37.2971" stroke="#FFE57B" stroke-width="3" stroke-miterlimit="10"/>
<path d="M24.1582 80.8465L47.6087 57.3911" stroke="#FFE57B" stroke-width="3" stroke-miterlimit="10"/>
<path d="M15.376 89.6238L20.5195 84.4802" stroke="#FFE57B" stroke-width="3" stroke-miterlimit="10"/>
<path d="M84.48 20.5198L89.6236 15.3762" stroke="#FFE57B" stroke-width="3" stroke-miterlimit="10"/>
<path d="M57.1387 47.8612L80.5941 24.4058" stroke="#FFE57B" stroke-width="3" stroke-miterlimit="10"/>
<path d="M37.1587 89.5347L49.8518 58.8911" stroke="#FFE57B" stroke-width="3" stroke-miterlimit="10"/>
<path d="M32.4106 101.005L35.1928 94.2871" stroke="#FFE57B" stroke-width="3" stroke-miterlimit="10"/>
<path d="M69.8071 10.7127L72.5893 3.99487" stroke="#FFE57B" stroke-width="3" stroke-miterlimit="10"/>
<path d="M55.0098 46.4355L67.7028 15.792" stroke="#FFE57B" stroke-width="3" stroke-miterlimit="10"/>
</svg>
