<svg width="443" height="167" viewBox="0 0 443 167" fill="none" xmlns="http://www.w3.org/2000/svg">
<mask id="mask0" style="mask-type:alpha" maskUnits="userSpaceOnUse" x="0" y="0" width="443" height="167">
<rect width="443" height="167" fill="#C4C4C4"/>
</mask>
<g mask="url(#mask0)">
<path d="M90.3557 130.423C88.7916 127.397 89.3191 123.455 87.2608 120.778C85.6854 118.736 82.9772 117.919 81.1604 116.096C79.4821 114.407 78.736 112.016 78.2424 109.688C77.0668 103.887 77.1432 97.9006 78.4665 92.1287C79.7897 86.3568 82.3292 80.9333 85.9148 76.2213C86.9327 75.0894 87.7699 73.807 88.3968 72.4195C89.2505 70.0276 88.594 67.3179 89.3124 64.8813C90.3245 61.4495 93.7862 59.3837 96.4693 56.9673C100.191 53.5914 102.679 49.0674 103.538 44.1154C104.22 40.1678 103.934 35.7935 106.333 32.5818C108.159 30.1289 111.192 28.9177 113.515 26.9228C118.505 22.6206 120.083 14.8394 125.944 11.7591C130.791 9.22241 136.799 10.9594 142.127 9.6131C146.213 8.5939 150.815 5.88191 154.174 8.41851C156.658 10.297 156.76 14.0794 158.81 16.4174C160.737 18.6099 164.294 19.4603 165.158 22.2246C166.023 24.9889 163.705 27.9261 164.266 30.7795C164.672 32.054 165.236 33.2725 165.943 34.4069C168.198 39.1486 166.28 44.6731 164.351 49.5314C161.008 57.8709 157.581 66.4172 151.593 73.1113C148.101 77.0451 143.732 80.3208 141.272 84.9756C136.958 93.1563 139.177 104.34 132.752 111.003C131.092 112.755 128.929 114.018 127.458 115.942C126.113 117.695 125.44 119.853 124.536 121.869C122.142 127.096 118.14 131.419 113.116 134.205C110.677 135.701 107.959 136.685 105.129 137.095C104.173 137.135 103.22 136.95 102.348 136.555C101.049 136.139 99.7265 135.801 98.3872 135.543C95.1439 134.866 91.9033 133.442 90.3557 130.423Z" fill="#A9CE53"/>
<path d="M94.8061 136.688C92.1294 135.756 89.8893 133.871 88.5119 131.391C87.7858 129.822 87.2995 128.153 87.0694 126.438C86.7845 124.76 86.4698 123.157 85.6311 122.024C84.8406 121.161 83.91 120.437 82.8786 119.884C81.7268 119.236 80.6599 118.447 79.7022 117.536C77.5507 115.378 76.7145 112.424 76.2292 110.1C74.9801 104.009 75.0494 97.7188 76.4323 91.6537C77.8151 85.5885 80.4794 79.8887 84.2458 74.9384L84.6065 74.4689C85.3994 73.6871 86.0062 72.7365 86.3819 71.6879C86.7576 70.6393 86.8924 69.5196 86.7763 68.4122C86.7498 67.0131 86.9135 65.6166 87.2628 64.2612C88.235 60.9765 90.8615 58.8445 93.169 56.9587C93.8235 56.4248 94.4451 55.9257 95.0286 55.4018C98.4117 52.346 100.674 48.2429 101.453 43.7499C101.616 42.7696 101.725 41.7579 101.837 40.69C102.172 37.4664 102.543 34.1518 104.634 31.3253C105.991 29.6765 107.634 28.2877 109.486 27.2264C110.416 26.6572 111.308 26.0279 112.156 25.3423C114.084 23.6879 115.486 21.3622 116.957 18.9108C119.022 15.4793 121.152 11.9584 124.966 9.94728C128.234 8.24516 131.762 8.21106 135.175 8.17866C137.315 8.25438 139.456 8.07616 141.555 7.64762C142.447 7.42958 143.398 7.11072 144.396 6.77201C147.921 5.57581 151.92 4.2243 155.344 6.81547C157.181 8.20448 157.989 10.2264 158.696 11.9971C159.064 13.1158 159.614 14.1659 160.323 15.1054C161.022 15.804 161.811 16.4073 162.668 16.8995C164.37 18.0042 166.303 19.2494 167.076 21.6218C167.747 23.6752 167.194 25.6026 166.715 27.3003C166.339 28.2965 166.18 29.361 166.248 30.4231C166.439 31.0945 166.728 31.734 167.105 32.3211C167.334 32.7294 167.563 33.1378 167.764 33.5445C170.381 38.9591 168.333 45.0457 166.221 50.3387C163.003 58.3642 159.354 67.4642 153.09 74.5369C151.946 75.8145 150.724 77.0227 149.535 78.1962C146.991 80.6969 144.592 83.0738 143.054 85.9781C141.382 89.1452 140.767 92.9474 140.127 96.9314C139.236 102.474 138.325 108.211 134.217 112.483C133.448 113.259 132.634 113.99 131.779 114.671C130.781 115.425 129.872 116.29 129.069 117.25C128.247 118.449 127.583 119.751 127.096 121.121C126.874 121.675 126.652 122.229 126.433 122.774C123.851 128.404 119.54 133.062 114.13 136.07C111.441 137.735 108.433 138.817 105.301 139.246C104.036 139.315 102.773 139.088 101.612 138.582C100.765 138.288 99.8964 138.059 99.0145 137.895L97.8806 137.642C96.8333 137.401 95.8057 137.082 94.8061 136.688ZM152.112 9.74095C150.594 9.13229 148.509 9.74514 145.663 10.7051C144.634 11.0504 143.559 11.4156 142.495 11.6799C140.083 12.1867 137.619 12.4065 135.156 12.3348C132.098 12.3656 129.207 12.3865 126.823 13.6276C124.049 15.0769 122.299 17.9827 120.456 21.0523C118.867 23.6772 117.23 26.398 114.8 28.4938C113.824 29.2998 112.797 30.0418 111.726 30.715C110.293 31.5284 109.01 32.581 107.931 33.8272C106.507 35.7313 106.239 38.3582 105.956 41.1421C105.834 42.2348 105.718 43.3588 105.571 44.4896C104.63 49.9033 101.903 54.8467 97.8259 58.5284C97.1762 59.1218 96.4836 59.6788 95.8175 60.2176C93.7942 61.872 91.8751 63.4339 91.2646 65.4821C91.0435 66.4914 90.9511 67.5245 90.9895 68.5568C91.0929 70.1107 90.8752 71.6696 90.3498 73.1361C89.8244 74.6026 89.0027 75.9452 87.936 77.08L87.597 77.5197C84.1912 81.9954 81.7812 87.1483 80.5291 92.6318C79.277 98.1153 79.2119 103.802 80.3381 109.31C80.7103 111.081 81.318 113.291 82.7045 114.682C83.4426 115.355 84.2549 115.941 85.1257 116.43C86.5892 117.228 87.8941 118.288 88.9762 119.557C90.4396 121.448 90.8607 123.718 91.2161 125.722C91.3892 127.029 91.7447 128.305 92.2722 129.513C93.2782 131.47 95.4193 132.818 98.8407 133.624L99.8936 133.863C100.962 134.066 102.014 134.349 103.039 134.712C103.629 134.988 104.273 135.128 104.924 135.123C107.465 134.752 109.901 133.857 112.078 132.494C116.714 129.926 120.41 125.941 122.623 121.122C122.829 120.61 123.034 120.097 123.24 119.585C124.279 116.327 126.342 113.493 129.122 111.505C129.853 110.928 130.551 110.312 131.213 109.657C134.461 106.335 135.191 101.457 136.016 96.3189C136.715 92.1861 137.362 87.8979 139.38 84.0828C141.214 80.6065 143.954 77.9059 146.604 75.2845C147.796 74.1027 148.93 72.9936 149.969 71.8366C155.785 65.3326 159.122 56.9615 162.346 48.8716C164.222 44.1935 165.877 39.3021 163.998 35.4119C163.839 35.0696 163.653 34.7456 163.445 34.4033C162.84 33.4403 162.396 32.3841 162.132 31.2769C161.903 29.5725 162.092 27.8372 162.684 26.2217C163.049 24.929 163.365 23.8082 163.042 22.9403C162.72 22.0723 161.615 21.2455 160.322 20.4104C159.139 19.7144 158.058 18.858 157.109 17.8656C156.091 16.5803 155.303 15.1282 154.779 13.5735C154.2 12.1037 153.69 10.8439 152.78 10.1527C152.577 9.98589 152.352 9.84741 152.112 9.74095Z" fill="#231916"/>
<path d="M74.0238 139.868C71.2414 138.801 68.6091 137.378 66.1926 135.634C55.9945 128.561 47.1419 118.181 34.8593 116.355C31.0546 115.789 27.0092 116.086 23.5411 114.417C19.682 112.601 17.1896 108.762 13.506 106.556C10.7446 104.94 7.4946 104.376 4.61228 102.99C2.37523 101.913 0.391563 100.374 -1.20852 98.4742C-2.8086 96.5744 -3.98897 94.3567 -4.67207 91.9667C-5.79233 87.9774 -5.53651 83.4461 -7.92396 80.0616C-9.58479 77.7072 -12.236 76.3181 -14.6525 74.7735C-24.2228 68.6434 -31.5175 57.4583 -29.5647 46.2585C-29.3942 44.96 -28.9495 43.7124 -28.2602 42.5987C-26.9547 40.6565 -24.6484 39.6815 -22.4613 38.8603C-14.7684 35.987 -7.25878 30.7761 0.931686 30.9132C9.12215 31.0504 18.0856 36.7356 23.9268 42.4931C24.7261 43.4416 25.7454 44.1797 26.8955 44.6428C28.2323 45.0348 29.6413 44.554 31.0055 44.2567C37.78 42.79 44.7028 46.1126 50.1417 50.4135C52.4538 52.2424 54.6763 54.3424 55.871 57.0472C56.7367 58.9964 57.0126 61.1505 57.7197 63.1609C58.5201 65.2878 59.7354 67.2334 61.2945 68.8846C62.8536 70.5359 64.7255 71.8597 66.8013 72.7791C69.3916 73.9616 72.285 74.6037 74.498 76.3928C77.6891 78.9674 78.7675 83.3237 79.252 87.3938C79.7365 91.464 79.8674 95.7474 81.8451 99.3418C83.729 102.764 87.0374 105.117 89.6749 107.998C94.2238 113.139 96.639 119.828 96.4271 126.698C96.3886 130.106 95.6884 133.475 94.3656 136.616C94.1793 137.176 93.8744 137.69 93.4717 138.121C93.069 138.552 92.578 138.892 92.0324 139.115C90.4505 139.748 88.822 140.256 87.1615 140.635C82.7962 141.627 78.2412 141.361 74.0238 139.868Z" fill="#A9CE53"/>
<path d="M72.4432 141.469C69.8208 140.369 67.3302 138.978 65.018 137.322C62.0986 135.288 59.2655 132.991 56.5379 130.765C49.4798 125.057 42.8175 119.604 34.5676 118.349C33.465 118.185 32.3358 118.088 31.1472 117.995C28.3606 117.779 25.4353 117.527 22.6767 116.239C20.4454 115.065 18.4143 113.545 16.6587 111.735C15.3846 110.453 13.9763 109.313 12.4584 108.333C10.9794 107.552 9.4226 106.928 7.8135 106.471C6.41537 106.033 5.04549 105.509 3.71141 104.903C1.20983 103.699 -1.00838 101.978 -2.79742 99.8536C-4.58646 97.7291 -5.90583 95.2492 -6.66894 92.5766C-7.04962 91.1193 -7.34247 89.6403 -7.54588 88.1476C-7.94832 85.5686 -8.32621 83.1433 -9.59321 81.3113C-10.735 79.6927 -12.576 78.5516 -14.5224 77.3395L-15.7463 76.5705C-25.2243 70.4966 -33.791 58.6865 -31.5834 45.9675C-31.3551 44.381 -30.8003 42.8589 -29.9541 41.4976C-28.3029 39.0512 -25.6232 37.8615 -23.1537 36.9809C-20.9071 36.1547 -18.7412 35.1235 -16.4282 34.0362C-10.9101 31.4517 -5.22191 28.8012 0.961007 28.8817C9.99842 29.0322 19.4729 35.2583 25.3653 41.0554L25.6389 41.3282C26.131 41.9164 26.7442 42.3913 27.4366 42.7205C28.2258 42.8163 29.0265 42.7305 29.778 42.4697L30.5262 42.2996C38.6764 40.5306 46.3622 44.8882 51.3822 48.8485C53.5624 50.5765 56.2732 52.9873 57.723 56.274C58.2376 57.5185 58.6445 58.8051 58.9392 60.1195C59.1526 60.9726 59.3578 61.7744 59.6242 62.5432C61.0671 66.301 63.9409 69.3303 67.6146 70.966C68.3901 71.277 69.1904 71.5978 70.0319 71.9352C72.0831 72.5887 74.0148 73.5706 75.7518 74.8426C79.7542 78.0687 80.8129 83.4532 81.2566 87.2192C81.3398 87.8954 81.4115 88.5765 81.4931 89.2328C81.8465 92.5789 82.1689 95.7398 83.5801 98.3587C84.8689 100.409 86.4618 102.251 88.3041 103.822C89.2422 104.706 90.22 105.636 91.1266 106.623C96.0302 112.161 98.6383 119.365 98.4198 126.768C98.3543 130.442 97.5793 134.07 96.1377 137.452C95.8447 138.263 95.3845 139.003 94.7871 139.625C94.1897 140.247 93.4684 140.736 92.6703 141.06C90.9867 141.729 89.2538 142.266 87.4871 142.666C82.7651 143.697 77.8508 143.388 73.298 141.774L72.4432 141.469ZM41.832 116.091C48.2342 118.658 53.757 123.155 59.1511 127.544C61.8193 129.727 64.5849 131.977 67.3805 133.913C69.6423 135.562 72.1118 136.903 74.7251 137.904C78.548 139.247 82.6709 139.495 86.6295 138.619C88.185 138.271 89.7102 137.798 91.19 137.205C91.6575 137.018 91.9517 136.762 92.389 135.767C93.6146 132.88 94.2704 129.784 94.3206 126.65C94.5176 120.314 92.2966 114.144 88.1095 109.394C87.3067 108.507 86.4246 107.673 85.4947 106.792C83.3215 104.95 81.4525 102.776 79.9566 100.35C78.1057 96.9888 77.7165 93.2543 77.3452 89.6421C77.2752 88.9808 77.2051 88.3195 77.1334 87.6384C76.7663 84.613 75.9652 80.2816 73.137 77.9964C71.7339 77.014 70.1889 76.2521 68.5554 75.7372C67.7304 75.4064 66.7816 75.026 65.8741 74.6621C63.5442 73.6322 61.4437 72.1468 59.6957 70.2927C57.9477 68.4387 56.5875 66.2534 55.6946 63.865C55.3707 62.9292 55.131 61.9985 54.8929 61.0876C54.6506 59.999 54.3191 58.9323 53.9019 57.8984C52.8158 55.4482 50.5963 53.4838 48.7922 52.0121C44.4715 48.6008 37.9637 44.7923 31.3724 46.2558L30.7102 46.4027C29.2656 46.8706 27.7224 46.9412 26.2423 46.6069C24.873 46.1098 23.6536 45.2707 22.6993 44.1694L22.4471 43.9147C17.14 38.688 8.6883 33.0641 0.869311 32.9319C-4.39233 32.8466 -9.41471 35.1981 -14.7296 37.6818C-17.0194 38.7592 -19.4282 39.8465 -21.764 40.752C-23.6687 41.4658 -25.613 42.2787 -26.5776 43.7052C-27.0988 44.58 -27.4336 45.5531 -27.5608 46.5633C-29.447 57.4061 -21.8868 67.6423 -13.5668 72.9737L-12.3972 73.7112C-10.1786 75.0805 -7.88578 76.4795 -6.26288 78.8091C-4.45058 81.4545 -3.9365 84.4717 -3.47347 87.4011C-3.29582 88.7361 -3.03967 90.0594 -2.70644 91.364C-2.104 93.4679 -1.06432 95.42 0.344491 97.0926C1.7533 98.7652 3.49946 100.12 5.46862 101.07C6.65851 101.598 7.87774 102.058 9.12032 102.447C13.0792 103.503 16.6612 105.65 19.4583 108.646C20.9066 110.155 22.5774 111.433 24.4125 112.436C26.4864 113.401 28.8966 113.6 31.4586 113.802C32.672 113.905 33.925 114.005 35.1365 114.183C37.4335 114.562 39.6783 115.208 41.8254 116.107L41.832 116.091Z" fill="#231916"/>
<path d="M9.08292 46.7207C9.08292 46.7207 55.4632 83.382 69.8373 108.391C84.2114 133.399 103.455 184.287 103.455 184.287L97.8628 186.842C97.8628 186.842 69.594 122.588 61.1729 108.313C42.8286 77.2033 5.73702 53.131 9.08292 46.7207Z" fill="#8DC220"/>
<path d="M96.8336 189.624L95.991 187.713C95.7145 187.064 67.6777 123.402 59.4015 109.387C49.5871 92.7591 34.0906 77.9305 22.7802 67.1117C11.3181 56.1457 5.00674 50.1038 7.26327 45.7895L8.41889 43.5761L10.373 45.1272C12.2794 46.6303 57.2314 82.3159 71.6021 107.381C85.8641 132.287 105.174 183.057 105.371 183.568L106.051 185.385L96.8336 189.624ZM18.8431 57.5127C21.0457 59.7102 23.443 61.9953 25.6688 64.087C37.1606 75.0745 52.8913 90.1313 62.9973 107.25C70.664 120.254 94.1067 173.113 98.9499 184.083L100.87 183.212C97.2936 173.93 80.6697 131.365 68.0792 109.432C58.3345 92.5344 33.3905 69.9076 18.82 57.4746L18.8431 57.5127Z" fill="#231916"/>
<path d="M141.823 31.2692C141.823 31.2692 110.25 81.3539 104.937 109.723C99.6251 138.092 93.5947 192.709 93.5947 192.709L99.7109 193.243C99.7109 193.243 109.852 123.023 113.073 106.749C120.08 71.288 147.106 36.1983 141.823 31.2692Z" fill="#8DC220"/>
<path d="M91.2988 194.591L91.5379 192.489C91.5965 191.937 97.6728 137.492 102.904 109.349C108.185 80.891 138.781 32.2179 140.073 30.1649L141.408 28.0524L143.239 29.7456C146.783 33.0857 142.831 40.8647 135.659 55.0276C128.564 69.0202 118.852 88.1802 115.1 107.14C111.948 123.145 101.818 192.812 101.761 193.528L101.481 195.469L91.2988 194.591ZM136.19 44.6971C126.563 61.2814 110.5 91.0006 106.954 110.139C102.339 134.978 97.0414 180.555 95.8741 190.87L97.931 191.043C99.5918 179.591 108.134 121.002 111.028 106.38C114.903 86.8272 124.741 67.4011 131.95 53.1952C133.347 50.4264 134.849 47.4692 136.204 44.6641L136.19 44.6971Z" fill="#231916"/>
<path d="M109.916 134.735C108.349 131.622 107.906 128.067 107.589 124.582C106.874 116.812 107.146 107.894 112.97 102.755C118.334 97.9982 127.354 97.5471 130.685 91.1979C133.303 86.2224 131.201 79.4027 134.793 75.0771C137.706 71.563 142.991 71.3508 146.764 68.7478C153.251 64.2012 153.457 53.6061 160.316 49.6597C163.044 48.0864 166.314 47.9101 169.454 47.7685L179.901 47.2945C181.965 47.2106 184.177 47.0903 185.764 45.7119C186.614 44.8347 187.369 43.8707 188.018 42.8358C190.306 39.8292 194.073 38.2693 197.806 37.7228C209.338 36.0239 221.506 43.9152 224.663 55.1491C226.054 60.1105 225.832 65.394 225.064 70.4872C224.5 74.2811 223.554 78.1708 221.162 81.1742C216.228 87.3412 206.532 88.1163 201.824 94.4602C198.389 99.0884 198.505 105.534 195.6 110.51C193.794 113.581 190.946 115.902 187.577 117.05C184.518 118.087 181.217 118.078 178.036 118.655C174.856 119.231 171.519 120.579 169.946 123.403C167.596 127.545 169.724 133.512 166.496 137.024C162.474 141.465 154.763 137.625 149.321 140.115C143.879 142.606 141.925 151.397 135.759 152.014C133.72 152.075 131.708 151.545 129.965 150.487C126.6 148.739 123.52 146.489 120.833 143.813C119.781 142.758 118.898 141.473 117.47 140.901C116.141 140.504 114.868 139.942 113.679 139.227C112.08 138.057 110.789 136.515 109.916 134.735Z" fill="#8CC457"/>
<path d="M130.948 153.193C130.255 152.915 129.606 152.598 129.027 152.298C125.478 150.457 122.232 148.081 119.402 145.254C119.12 144.978 118.857 144.68 118.581 144.388C118.087 143.737 117.461 143.198 116.744 142.807C116.431 142.681 116.117 142.556 115.812 142.433C114.652 142.073 113.55 141.547 112.54 140.872C110.658 139.526 109.136 137.736 108.108 135.66C106.36 132.187 105.888 128.371 105.565 124.759C104.916 117.514 104.839 107.199 111.646 101.159C114.113 98.9728 117.138 97.6624 120.059 96.3966C123.777 94.7888 127.288 93.2702 128.907 90.1874C129.89 88.3079 130.09 85.9705 130.295 83.5007C130.579 80.0935 130.87 76.574 133.265 73.7062C135.32 71.2302 138.16 70.1909 140.91 69.183C142.565 68.6607 144.147 67.9276 145.615 67.0018C148.283 65.126 149.793 61.8844 151.383 58.4444C153.255 54.3979 155.212 50.1843 159.327 47.8046C162.55 45.9504 166.338 45.8188 169.404 45.6475L179.851 45.1734C181.796 45.0994 183.447 44.9459 184.465 44.0782C184.94 43.624 185.353 43.1087 185.692 42.546C185.927 42.1989 186.162 41.8518 186.419 41.5229C188.779 38.4303 192.733 36.3315 197.547 35.6232C210.166 33.7659 223.237 42.2491 226.691 54.5328C227.981 59.1272 228.127 64.2802 227.152 70.7488C226.585 74.551 225.613 78.9102 222.809 82.4391C220.006 85.9681 216.249 87.6949 212.53 89.4945C208.811 91.2941 205.602 92.8474 203.515 95.6656C201.877 97.8871 201.14 100.633 200.347 103.567C199.734 106.34 198.748 109.017 197.415 111.525C195.35 115.024 192.105 117.67 188.266 118.986C186.141 119.627 183.954 120.037 181.742 120.208C180.588 120.34 179.505 120.462 178.431 120.655C176.128 121.074 173.083 122.051 171.771 124.393C170.942 125.864 170.8 127.841 170.677 129.893C170.507 132.703 170.28 135.922 168.059 138.38C165.136 141.611 160.896 141.437 157.153 141.289C154.553 141.206 152.121 141.085 150.182 141.957C148.242 142.83 146.633 144.957 145.013 147.157C142.79 150.17 140.272 153.583 135.976 154.029C134.256 154.161 132.531 153.875 130.948 153.193ZM118.277 138.96C119.582 139.56 120.728 140.459 121.62 141.586L122.289 142.305C124.823 144.843 127.729 146.978 130.907 148.639C132.295 149.496 133.897 149.945 135.529 149.936C138.006 149.682 139.702 147.387 141.67 144.723C143.44 142.314 145.452 139.59 148.444 138.219C151.259 136.93 154.313 137.051 157.275 137.164C160.525 137.297 163.324 137.412 164.944 135.615C166.209 134.204 166.349 132.111 166.495 129.646C166.64 127.181 166.826 124.665 168.13 122.367C169.8 119.42 173.1 117.424 177.656 116.593C178.864 116.377 180.069 116.236 181.231 116.108C183.157 115.96 185.062 115.611 186.916 115.067C189.806 114.073 192.249 112.079 193.805 109.444C194.943 107.249 195.786 104.913 196.313 102.497C197.175 99.3212 198.054 96.0282 200.154 93.205C202.848 89.5653 206.84 87.6352 210.689 85.7729C214.147 84.0989 217.406 82.5174 219.534 79.8595C221.663 77.2017 222.532 73.3863 223.01 70.1627C223.899 64.2925 223.786 59.7 222.656 55.6876C219.793 45.5118 208.588 38.2275 198.096 39.748C195.927 40.0683 191.95 41.0544 189.669 44.0446C189.464 44.3173 189.276 44.5966 189.084 44.8843C188.537 45.7561 187.875 46.5492 187.114 47.2413C184.932 49.1007 181.958 49.2323 179.998 49.3196L169.552 49.7937C166.813 49.9138 163.704 50.0487 161.357 51.4105C158.383 53.0961 156.786 56.5526 155.109 60.1876C153.352 63.973 151.545 67.8824 147.96 70.3978C146.188 71.5363 144.275 72.437 142.27 73.0765C139.938 73.9258 137.767 74.7536 136.389 76.3503C134.846 78.2164 134.615 80.9441 134.348 83.8305C134.081 86.7168 133.881 89.4858 132.503 92.1091C130.204 96.4829 125.849 98.3633 121.595 100.207C118.84 101.396 116.254 102.518 114.282 104.26C108.873 109.056 109.014 118.044 109.584 124.384C109.867 127.596 110.275 130.974 111.694 133.788C112.417 135.258 113.489 136.528 114.817 137.487C115.528 137.94 116.298 138.294 117.105 138.539C117.452 138.677 117.807 138.82 118.162 138.962L118.277 138.96Z" fill="#231916"/>
<path d="M98.5733 183.184C98.5733 183.184 114.497 119.821 151.626 91.4685C189.63 62.4397 205.168 58.6057 207.563 61.5422C207.563 61.5422 155.3 90.3798 138.655 113.265C122.009 136.149 102.501 184.327 102.501 184.327L98.5733 183.184Z" fill="#8DC220"/>
<path d="M96.0843 184.613L96.5724 182.679C99.8928 170.517 104.144 158.628 109.288 147.118C117.256 129.206 130.842 104.731 150.374 89.8146C182.361 65.3771 204.333 54.3086 209.162 60.2262L210.728 62.1491L208.56 63.3522C208.041 63.6431 156.509 92.236 140.321 114.479C124.009 136.893 104.625 184.593 104.42 185.106L103.72 186.85L96.0843 184.613ZM198.443 64.3901C196.806 65.0097 194.858 65.8309 192.509 67.0092C182.414 71.9799 168.704 80.9985 152.88 93.0933C120.367 117.934 104.134 170.984 101.126 181.713L101.299 181.782C104.995 172.826 121.954 132.654 136.942 111.992C143.981 102.343 157.867 90.5452 178.172 77.0428C185.946 71.9377 193.211 67.502 198.443 64.3901Z" fill="#231916"/>
<path d="M72.7458 153.708C71.2937 155.418 70.1235 157.453 68.2577 158.691C63.9164 161.565 58.2423 158.973 53.3645 157.19C52.0504 156.652 50.6596 156.324 49.2433 156.219C47.0822 156.139 44.9976 156.944 42.8852 157.411C39.6394 158.205 36.2294 157.977 33.1204 156.758C31.5803 156.136 30.1974 155.18 29.071 153.959C27.9445 152.738 27.1026 151.281 26.6057 149.695C26.2314 148.24 26.1149 146.62 25.2665 145.32C23.7375 143.114 20.5908 143.033 17.9112 143.004C11.5087 142.922 4.26806 141.372 1.01856 135.838C-0.379745 133.473 -0.951773 130.529 -3.01128 128.715C-5.57864 126.448 -9.48546 126.781 -12.695 125.59C-15.284 124.62 -17.378 122.677 -19.3514 120.696C-22.7508 117.232 -26.2033 112.873 -25.6597 108.007C-25.1428 103.302 -21.0747 99.8193 -16.9834 97.4495C-9.41712 93.0767 -0.0344807 90.8137 8.12195 93.9497C10.1763 94.7733 12.1789 95.8929 14.3877 96.1165C17.4499 96.3849 20.3495 94.9092 23.352 94.2519C26.4019 93.6236 29.5649 93.8512 32.4917 94.9096C35.4186 95.9679 37.9954 97.8159 39.9377 100.249C41.678 102.501 42.9931 105.312 45.5554 106.541C48.9376 108.137 53.3054 106.319 56.5271 108.196C59.8792 110.154 60.1779 114.879 62.4732 118.015C66.184 123.091 74.3105 122.934 78.4923 127.671C80.8791 130.365 81.5225 134.134 82.0721 137.684C82.5727 140.019 82.6709 142.424 82.3625 144.794C82.1705 145.952 81.7233 147.054 81.0534 148.018C80.3835 148.983 79.5076 149.786 78.4894 150.369C77.6237 150.809 76.6132 150.845 75.7211 151.255C74.5599 151.841 73.5435 152.679 72.7458 153.708Z" fill="#8CC457"/>
<path d="M32.5877 158.78L32.3402 158.68C30.5103 157.942 28.8689 156.803 27.5356 155.347C26.2023 153.891 25.211 152.155 24.6338 150.266C24.5107 149.785 24.4074 149.302 24.2661 148.795C24.1639 148.015 23.9127 147.263 23.5264 146.579C22.6615 145.273 20.4278 145.183 17.8357 145.151C11.5058 145.079 3.13403 143.603 -0.804 136.968C-1.33416 136.039 -1.80216 135.076 -2.20489 134.085C-2.66257 132.689 -3.41211 131.407 -4.40358 130.325C-5.6073 129.267 -7.3486 128.952 -9.37386 128.581C-10.7585 128.372 -12.1213 128.037 -13.4455 127.582C-16.49 126.457 -18.851 124.225 -20.864 122.2C-24.4184 118.597 -28.4084 113.716 -27.7561 107.837C-27.2542 103.242 -23.9793 99.1342 -18.1001 95.6967C-8.83849 90.3439 0.955495 89.0134 8.77522 92.0815C9.36099 92.3164 9.94677 92.5512 10.5325 92.7861C11.9265 93.6082 13.5037 94.0687 15.1213 94.1259C16.7388 94.1831 18.3456 93.8351 19.7959 93.1136C20.7688 92.8129 21.7763 92.4973 22.8267 92.2661C26.258 91.5485 29.8198 91.799 33.1149 92.9898C36.4099 94.1805 39.3088 96.2646 41.4883 99.0097C41.9876 99.6512 42.4192 100.342 42.8641 100.952C43.9515 102.54 44.968 104.041 46.3622 104.696C47.7747 105.188 49.2771 105.368 50.7664 105.224C52.8995 105.206 55.3232 105.132 57.4891 106.442C60.1533 107.99 61.2638 110.738 62.2509 113.148C62.7067 114.438 63.3164 115.669 64.0667 116.812C65.6519 118.973 68.4224 120.065 71.3612 121.214C74.4303 122.445 77.6149 123.722 79.9622 126.322C82.8237 129.552 83.5026 133.901 84.0392 137.388C84.5801 139.948 84.6767 142.583 84.3251 145.178C84.0758 146.647 83.5002 148.043 82.6406 149.261C81.781 150.478 80.6594 151.488 79.3587 152.214C78.7546 152.502 78.1186 152.717 77.4641 152.855C77.1403 152.919 76.8233 153.013 76.5177 153.138C75.6293 153.581 74.8489 154.215 74.2316 154.994C73.8347 155.458 73.4641 155.952 73.0903 156.455C72.0678 157.974 70.7867 159.302 69.3055 160.377C64.48 163.575 58.6138 161.367 53.9044 159.594L52.5761 159.061C51.4624 158.602 50.2845 158.317 49.0838 158.217C47.7172 158.251 46.3626 158.483 45.0625 158.908C44.4531 159.066 43.8519 159.228 43.2442 159.359C39.7126 160.235 36.0013 160.033 32.5877 158.78ZM23.9311 141.82C25.1588 142.286 26.2194 143.109 26.9771 144.183C27.6908 145.332 28.1537 146.619 28.3354 147.961C28.424 148.361 28.5044 148.757 28.6078 149.144C29.0246 150.436 29.722 151.619 30.6501 152.608C31.5781 153.597 32.7137 154.368 33.9753 154.865C36.6918 155.913 39.6652 156.101 42.4937 155.403C43.0503 155.28 43.5639 155.122 44.1469 154.981C45.8383 154.462 47.5969 154.197 49.3652 154.195C50.9972 154.308 52.6012 154.676 54.1186 155.286L55.4717 155.828C59.7075 157.421 64.0869 159.062 67.1492 157.037C68.2241 156.203 69.1567 155.2 69.9106 154.067C70.3291 153.525 70.7427 152.971 71.1908 152.451C72.1985 151.204 73.4692 150.197 74.9115 149.5C75.454 149.266 76.0175 149.084 76.5946 148.957C76.937 148.889 77.2722 148.789 77.5956 148.658C78.3304 148.216 78.9601 147.619 79.4403 146.909C79.9205 146.198 80.2395 145.391 80.3751 144.544C80.6292 142.406 80.5263 140.241 80.0706 138.138C79.4916 134.375 78.8917 131.333 76.9466 129.21C75.2669 127.308 72.6697 126.286 69.9289 125.216C66.5875 123.876 63.1108 122.54 60.7742 119.387C59.8126 117.974 59.0358 116.444 58.4627 114.834C57.6237 112.77 56.8949 110.982 55.4531 110.135C54.2637 109.447 52.6093 109.465 50.8592 109.483C48.7422 109.662 46.6132 109.347 44.6396 108.562C42.2242 107.421 40.781 105.288 39.4975 103.402C39.084 102.785 38.6853 102.203 38.2749 101.674C36.5639 99.5563 34.3065 97.948 31.747 97.0232C29.1875 96.0985 26.4234 95.8925 23.7536 96.4273C22.8915 96.6189 22.0044 96.8965 21.0745 97.1856C19.1493 98.0537 17.0495 98.4616 14.9409 98.3771C12.8323 98.2926 10.7729 97.7181 8.92551 96.6989C8.38924 96.4838 7.86117 96.2721 7.3249 96.0571C0.694835 93.4851 -7.83104 94.7102 -15.9955 99.4283C-19.2374 101.304 -23.2027 104.386 -23.651 108.418C-24.0992 112.45 -20.8294 116.476 -17.9229 119.426C-16.1869 121.187 -14.2891 122.975 -12.0252 123.825C-10.9262 124.191 -9.79743 124.46 -8.65165 124.631C-6.359 125.051 -3.75439 125.529 -1.69157 127.335C-0.219651 128.799 0.900091 130.58 1.58312 132.543C1.92261 133.362 2.31295 134.16 2.75188 134.93C5.68348 139.943 12.6145 141.024 17.8944 141.088C19.926 140.959 21.9635 141.204 23.9063 141.81L23.9311 141.82Z" fill="#231916"/>
<path d="M7.13461 111.293C6.67949 108.606 64.7058 122.383 82.3396 156.125C99.9735 189.866 89.7206 186.561 89.7206 186.561C89.7206 186.561 79.441 153.466 57.7172 138.404C31.1047 119.963 7.6013 113.974 7.13461 111.293Z" fill="#8DC220"/>
<path d="M88.0588 188.197L87.74 187.177C87.6414 186.85 77.4085 154.57 56.5292 140.125C40.0355 128.715 24.6609 122.062 15.4672 118.097C7.97297 114.862 5.45021 113.774 5.09002 111.663C4.99955 111.116 5.111 110.555 5.40371 110.084C5.69641 109.614 6.15027 109.266 6.68027 109.106C11.6258 107.424 66.7883 121.943 84.1653 155.178C96.6538 179.085 95.4782 184.955 93.5151 187.296C92.9762 187.913 92.2695 188.361 91.4813 188.583C90.6932 188.805 89.8577 188.793 89.077 188.548L88.0588 188.197ZM21.1216 116.009C34.357 121.661 47.0081 128.594 58.8951 136.709C70.4588 144.722 78.7695 157.696 83.6974 167.165C86.3429 172.243 88.6613 177.486 90.6387 182.861C90.5139 180.115 88.9553 173.254 80.5072 157.088C68.7908 134.671 38.7581 121.487 21.1216 116.009Z" fill="#231916"/>
<path d="M293.438 164.107C292.514 160.829 293.825 157.073 292.347 154.037C291.215 151.719 288.727 150.374 287.314 148.223C286.01 146.23 285.76 143.738 285.745 141.359C285.761 135.44 287.041 129.591 289.498 124.204C291.956 118.816 295.535 114.015 299.996 110.121C301.221 109.217 302.299 108.129 303.192 106.896C304.51 104.725 304.412 101.939 305.606 99.6968C307.288 96.5389 311.095 95.2121 314.209 93.3851C318.534 90.8272 321.882 86.8964 323.719 82.2186C325.182 78.4891 325.783 74.1468 328.779 71.4836C331.061 69.4483 334.276 68.8723 336.952 67.3856C342.707 64.1758 345.818 56.8715 352.179 55.0336C357.438 53.5244 362.972 56.4348 368.463 56.1884C372.67 56.0123 377.724 54.282 380.504 57.4428C382.559 59.7827 381.897 63.5082 383.435 66.211C384.881 68.7464 388.194 70.2953 388.485 73.177C388.775 76.0586 385.914 78.4694 385.889 81.3773C386.03 82.7074 386.337 84.0144 386.802 85.268C388.057 90.3665 385.066 95.3919 382.199 99.7626C377.245 107.259 372.169 114.94 364.956 120.292C360.743 123.443 355.805 125.772 352.459 129.837C346.586 136.982 346.509 148.384 338.875 153.617C336.896 154.999 334.523 155.801 332.695 157.389C331.025 158.837 329.931 160.814 328.64 162.608C325.243 167.246 320.453 170.675 314.971 172.392C312.281 173.368 309.421 173.784 306.566 173.616C305.621 173.463 304.725 173.09 303.951 172.528C302.762 171.859 301.534 171.261 300.274 170.739C297.234 169.423 294.346 167.376 293.438 164.107Z" fill="#A9CE53"/>
<path d="M296.536 171.14C294.102 169.688 292.287 167.391 291.436 164.685C291.041 163.002 290.901 161.268 291.02 159.543C291.079 157.842 291.093 156.208 290.5 154.929C289.899 153.925 289.133 153.029 288.234 152.28C287.237 151.413 286.35 150.426 285.595 149.34C283.922 146.794 283.698 143.731 283.69 141.357C283.692 135.139 285.026 128.992 287.601 123.329C290.176 117.666 293.933 112.619 298.619 108.528L299.067 108.141C300.001 107.535 300.786 106.726 301.366 105.774C301.945 104.823 302.302 103.753 302.411 102.645C302.667 101.269 303.108 99.9342 303.723 98.6768C305.336 95.6551 308.338 94.0952 310.978 92.7124C311.727 92.3212 312.436 91.9574 313.113 91.5616C317.042 89.2492 320.083 85.6853 321.751 81.441C322.108 80.5136 322.418 79.5445 322.743 78.521C323.72 75.4307 324.75 72.2587 327.367 69.9109C329.028 68.5688 330.918 67.5392 332.945 66.8722C333.97 66.5019 334.971 66.0649 335.94 65.5641C338.161 64.3315 340.002 62.3355 341.936 60.2304C344.65 57.2847 347.445 54.2645 351.585 53.062C355.129 52.0524 358.592 52.7291 361.941 53.3841C364.022 53.889 366.156 54.1454 368.298 54.148C369.215 54.1139 370.212 53.9931 371.257 53.8621C374.951 53.3997 379.14 52.8807 381.972 56.1079C383.492 57.8382 383.876 59.9814 384.213 61.8582C384.348 63.028 384.675 64.1673 385.181 65.2302C385.725 66.0554 386.376 66.805 387.117 67.4597C388.562 68.8843 390.205 70.4931 390.484 72.9725C390.728 75.1188 389.799 76.8956 388.988 78.462C388.42 79.3623 388.049 80.373 387.902 81.4269C387.954 82.1231 388.108 82.8077 388.36 83.4587C388.502 83.9048 388.644 84.3508 388.759 84.7896C390.233 90.6202 387.002 96.1701 383.867 100.93C379.1 108.143 373.695 116.323 366.136 121.99C364.758 123.011 363.318 123.949 361.917 124.859C358.921 126.797 356.093 128.642 354.002 131.177C351.727 133.943 350.359 137.544 348.931 141.318C346.942 146.568 344.895 152.003 340.012 155.362C339.102 155.967 338.157 156.519 337.183 157.015C336.054 157.552 334.989 158.216 334.01 158.995C332.963 160.004 332.051 161.146 331.298 162.39C330.969 162.888 330.64 163.385 330.316 163.876C326.653 168.871 321.494 172.566 315.589 174.423C312.62 175.513 309.456 175.967 306.302 175.757C305.049 175.571 303.857 175.094 302.822 174.365C302.051 173.907 301.246 173.507 300.415 173.17L299.356 172.693C298.378 172.246 297.436 171.727 296.536 171.14ZM378.218 58.3231C376.853 57.4214 374.688 57.6022 371.707 57.9697C370.629 58.1008 369.503 58.2422 368.407 58.287C365.942 58.2979 363.485 58.0174 361.086 57.4514C358.085 56.8662 355.249 56.3049 352.664 57.0407C349.655 57.902 347.356 60.3964 344.933 63.0321C342.848 65.2836 340.697 67.6194 337.895 69.1832C336.777 69.7763 335.622 70.2965 334.437 70.7403C332.87 71.2488 331.401 72.0214 330.093 73.025C328.315 74.6036 327.524 77.1228 326.686 79.7927C326.347 80.8385 326.007 81.9163 325.636 82.9944C323.625 88.108 319.958 92.4013 315.224 95.1872C314.468 95.6377 313.677 96.0439 312.916 96.4377C310.602 97.651 308.407 98.7947 307.397 100.678C306.978 101.622 306.679 102.616 306.509 103.635C306.298 105.177 305.771 106.661 304.961 107.991C304.151 109.322 303.076 110.472 301.803 111.369L301.382 111.731C297.145 115.43 293.748 119.992 291.417 125.112C289.087 130.231 287.879 135.789 287.874 141.411C287.882 143.22 288.032 145.507 289.111 147.148C289.698 147.956 290.376 148.694 291.131 149.348C292.404 150.424 293.469 151.725 294.273 153.186C295.326 155.333 295.282 157.641 295.226 159.675C295.133 160.991 295.224 162.312 295.498 163.601C296.089 165.721 297.915 167.472 301.105 168.95L302.088 169.397C303.094 169.81 304.067 170.3 304.998 170.861C305.52 171.25 306.123 171.517 306.762 171.643C309.325 171.791 311.892 171.405 314.299 170.507C319.357 168.925 323.778 165.766 326.917 161.491C327.221 161.03 327.525 160.569 327.83 160.109C329.503 157.127 332.095 154.766 335.218 153.378C336.05 152.961 336.858 152.497 337.638 151.989C341.488 149.389 343.185 144.757 345.027 139.89C346.543 135.983 348.04 131.912 350.784 128.582C353.281 125.546 356.508 123.451 359.632 121.417C361.037 120.499 362.371 119.641 363.621 118.717C370.627 113.516 375.581 105.988 380.367 98.7128C383.146 94.5079 385.751 90.0496 384.695 85.861C384.607 85.4936 384.49 85.1387 384.356 84.7617C383.956 83.6965 383.734 82.5728 383.699 81.4351C383.817 79.7193 384.352 78.0576 385.257 76.5943C385.875 75.4016 386.409 74.3672 386.268 73.4521C386.127 72.537 385.211 71.5048 384.112 70.4265C383.094 69.5067 382.207 68.4503 381.478 67.2872C380.739 65.8234 380.259 64.2424 380.059 62.6141C379.788 61.0578 379.542 59.7211 378.789 58.8609C378.624 58.6566 378.431 58.4757 378.218 58.3231Z" fill="#231916"/>
<path d="M275.539 170.072C273.028 168.467 270.736 166.544 268.72 164.349C260.154 155.369 253.571 143.419 241.908 139.159C238.295 137.839 234.272 137.315 231.211 134.983C227.796 132.427 226.128 128.165 222.963 125.263C220.584 123.124 217.514 121.918 214.969 119.98C212.995 118.475 211.361 116.568 210.176 114.385C208.991 112.202 208.281 109.792 208.093 107.314C207.799 103.18 208.961 98.7933 207.304 94.9976C206.151 92.3571 203.833 90.4628 201.777 88.4635C193.636 80.5328 188.742 68.1085 192.909 57.5309C193.337 56.2932 194.024 55.1606 194.923 54.2084C196.593 52.5687 199.048 52.0778 201.356 51.7136C209.47 50.4472 217.874 46.8543 225.87 48.637C233.865 50.4196 241.501 57.7925 246.064 64.6077C246.656 65.6977 247.506 66.6258 248.539 67.3109C249.77 67.9639 251.246 67.7766 252.643 67.7599C259.574 67.6866 265.686 72.3344 270.148 77.6419C272.045 79.8986 273.799 82.4029 274.425 85.2928C274.881 87.3764 274.718 89.542 275.006 91.6535C275.362 93.898 276.161 96.0484 277.355 97.9796C278.55 99.9108 280.117 101.584 281.966 102.903C284.265 104.582 286.97 105.793 288.778 107.991C291.385 111.155 291.565 115.64 291.221 119.724C290.876 123.808 290.142 128.031 291.356 131.949C292.513 135.681 295.28 138.652 297.284 142.004C300.705 147.956 301.724 154.993 300.134 161.68C299.411 165.011 298.047 168.17 296.119 170.981C295.824 171.492 295.422 171.934 294.94 172.275C294.459 172.617 293.91 172.85 293.33 172.96C291.654 173.261 289.956 173.431 288.253 173.468C283.778 173.561 279.369 172.383 275.539 170.072Z" fill="#A9CE53"/>
<path d="M273.668 171.323C271.321 169.717 269.161 167.853 267.23 165.766C264.779 163.186 262.466 160.366 260.243 157.637C254.478 150.625 249.049 143.942 241.221 141.053C240.174 140.671 239.087 140.348 237.942 140.018C235.255 139.246 232.441 138.41 229.998 136.593C228.048 134.994 226.365 133.097 225.009 130.97C224.019 129.458 222.869 128.058 221.58 126.793C220.288 125.73 218.889 124.805 217.404 124.034C216.123 123.323 214.887 122.534 213.702 121.672C211.494 119.989 209.667 117.857 208.342 115.416C207.017 112.975 206.224 110.28 206.015 107.509C205.935 106.005 205.946 104.497 206.047 102.994C206.172 100.387 206.29 97.9351 205.417 95.8857C204.625 94.0703 203.051 92.5822 201.388 91.0031L200.344 90.0035C192.282 82.1464 186.268 68.8539 190.99 56.8394C191.533 55.3314 192.383 53.952 193.486 52.7889C195.595 50.7249 198.46 50.0988 201.056 49.7332C203.423 49.3761 205.752 48.8019 208.236 48.2023C214.162 46.7812 220.267 45.3296 226.307 46.6528C235.129 48.6191 243.157 56.6245 247.762 63.4889L247.975 63.8112C248.339 64.4864 248.844 65.075 249.456 65.5368C250.21 65.7894 251.011 65.8665 251.8 65.7623L252.567 65.7462C260.906 65.6537 267.558 71.4689 271.678 76.3584C273.466 78.4898 275.636 81.3969 276.395 84.9082C276.649 86.2307 276.788 87.5729 276.812 88.9197C276.85 89.7983 276.889 90.625 276.996 91.4317C277.653 95.403 279.858 98.9486 283.127 101.29C283.824 101.751 284.544 102.226 285.3 102.726C287.178 103.779 288.872 105.13 290.318 106.725C293.589 110.691 293.543 116.178 293.219 119.956C293.165 120.635 293.098 121.317 293.046 121.976C292.719 125.325 292.398 128.486 293.253 131.336C294.103 133.603 295.293 135.728 296.781 137.637C297.522 138.693 298.293 139.8 298.982 140.949C302.671 147.361 303.776 154.943 302.072 162.15C301.268 165.736 299.779 169.134 297.686 172.156C297.236 172.892 296.636 173.524 295.926 174.013C295.216 174.502 294.411 174.835 293.564 174.993C291.78 175.309 289.974 175.487 288.164 175.522C283.331 175.583 278.579 174.291 274.444 171.793L273.668 171.323ZM248.791 140.303C254.546 144.106 259.05 149.623 263.451 155.007C265.625 157.682 267.881 160.443 270.23 162.903C272.114 164.972 274.263 166.783 276.621 168.29C280.095 170.375 284.084 171.447 288.138 171.386C289.732 171.358 291.321 171.202 292.89 170.918C293.385 170.829 293.725 170.638 294.354 169.751C296.135 167.17 297.401 164.27 298.08 161.209C299.549 155.043 298.615 148.552 295.469 143.057C294.862 142.026 294.165 141.032 293.432 139.981C291.674 137.74 290.28 135.234 289.303 132.557C288.167 128.892 288.537 125.156 288.9 121.542C288.965 120.881 289.029 120.219 289.096 119.537C289.345 116.5 289.432 112.096 287.122 109.288C285.945 108.043 284.585 106.986 283.089 106.153C282.347 105.663 281.494 105.1 280.679 104.56C278.604 103.083 276.845 101.205 275.506 99.037C274.167 96.8691 273.274 94.4548 272.88 91.9356C272.751 90.9538 272.704 89.9939 272.654 89.0536C272.636 87.9386 272.526 86.827 272.325 85.7303C271.754 83.1116 269.976 80.7407 268.505 78.9361C264.959 74.725 259.351 69.6848 252.6 69.7918L251.921 69.8024C250.412 69.97 248.886 69.7286 247.504 69.1033C246.263 68.3408 245.237 67.2735 244.524 66.0026L244.328 65.7024C240.182 59.5146 233.035 52.3048 225.402 50.6018C220.265 49.4592 214.872 50.7518 209.167 52.1151C206.707 52.7096 204.128 53.2899 201.658 53.7068C199.649 54.0226 197.581 54.4277 196.349 55.6309C195.662 56.3828 195.138 57.2687 194.81 58.2326C190.781 68.4739 196.126 80.0222 203.203 86.919L204.2 87.8767C206.098 89.6645 208.062 91.4963 209.183 94.1049C210.426 97.0609 210.322 100.12 210.186 103.083C210.092 104.426 210.076 105.774 210.14 107.119C210.307 109.301 210.932 111.422 211.976 113.344C213.019 115.266 214.457 116.945 216.195 118.271C217.254 119.028 218.355 119.724 219.494 120.355C223.16 122.186 226.236 125.01 228.373 128.507C229.488 130.277 230.868 131.865 232.463 133.217C234.301 134.58 236.621 135.26 239.09 135.974C240.258 136.319 241.465 136.668 242.616 137.087C244.79 137.921 246.859 139.005 248.781 140.318L248.791 140.303Z" fill="#231916"/>
<path d="M230.673 65.7615C230.673 65.7615 268.726 111.007 277.773 138.396C286.82 165.786 295.429 219.506 295.429 219.506L289.437 220.883C289.437 220.883 274.677 152.254 269.302 136.577C257.593 102.412 226.105 71.3673 230.673 65.7615Z" fill="#8DC220"/>
<path d="M287.869 223.401L287.428 221.359C287.288 220.668 272.636 152.666 267.35 137.272C261.083 119.009 248.888 101.366 239.986 88.4918C230.966 75.4434 225.999 68.255 229.078 64.4831L230.655 62.5476L232.257 64.4602C233.822 66.3162 270.673 110.318 279.705 137.762C288.663 165.029 297.36 218.647 297.45 219.187L297.75 221.104L287.869 223.401ZM238.061 78.2969C239.777 80.8927 241.665 83.6135 243.424 86.1103C252.47 99.1858 264.848 117.1 271.302 135.903C276.195 150.183 288.52 206.679 291.057 218.399L293.112 217.932C291.478 208.121 283.76 163.081 275.841 139.062C269.697 120.55 249.817 93.3658 238.047 78.2549L238.061 78.2969Z" fill="#231916"/>
<path d="M363.807 77.3402C363.807 77.3402 322.8 120.046 311.887 146.765C300.974 173.485 284.075 225.771 284.075 225.771L289.959 227.525C289.959 227.525 314.024 160.783 320.454 145.489C334.454 112.164 367.989 83.2316 363.807 77.3402Z" fill="#8DC220"/>
<path d="M281.447 227.152L282.104 225.142C282.273 224.613 299.182 172.504 309.97 145.99C320.87 119.177 360.636 77.6573 362.315 75.9065L364.048 74.106L365.5 76.1329C368.3 80.118 362.863 86.9424 352.987 99.3721C343.221 111.651 329.852 128.464 322.361 146.28C316.053 161.324 292.11 227.527 291.909 228.217L291.244 230.061L281.447 227.152ZM355.587 89.36C342.818 103.667 321.104 129.546 313.779 147.579C304.259 170.981 289.897 214.559 286.678 224.429L288.658 225.011C292.589 214.129 312.748 158.457 318.525 144.717C326.256 126.344 339.803 109.295 349.723 96.8308C351.649 94.3999 353.715 91.8054 355.606 89.3303L355.587 89.36Z" fill="#231916"/>
<path d="M311.73 172.268C310.821 168.903 311.103 165.332 311.494 161.855C312.357 154.1 314.418 145.418 321.157 141.557C327.369 137.977 336.295 139.35 340.836 133.801C344.401 129.454 343.715 122.351 348.104 118.837C351.664 115.981 356.884 116.837 361.104 115.046C368.373 111.898 370.707 101.562 378.22 99.0763C381.209 98.0842 384.447 98.5695 387.552 99.0628L397.88 100.701C399.919 101.034 402.11 101.362 403.942 100.331C404.951 99.6425 405.885 98.8503 406.729 97.9672C409.575 95.4825 413.578 94.7125 417.346 94.9286C428.983 95.5852 439.314 105.764 440.146 117.403C440.51 122.543 439.229 127.674 437.451 132.508C436.136 136.111 434.426 139.731 431.479 142.191C425.405 147.239 415.751 146.047 409.863 151.314C405.566 155.156 404.383 161.493 400.536 165.782C398.149 168.427 394.892 170.128 391.361 170.574C388.155 170.974 384.924 170.301 381.693 170.226C378.461 170.15 374.921 170.799 372.812 173.248C369.677 176.833 370.56 183.106 366.691 185.897C361.858 189.438 355.078 184.124 349.246 185.468C343.414 186.812 339.73 195.03 333.567 194.394C331.557 194.044 329.693 193.12 328.198 191.732C325.254 189.343 322.69 186.519 320.596 183.357C319.778 182.112 319.171 180.676 317.889 179.828C316.667 179.172 315.532 178.365 314.511 177.425C313.18 175.957 312.226 174.187 311.73 172.268Z" fill="#8CC457"/>
<path d="M328.617 194.581C327.994 194.169 327.422 193.728 326.915 193.318C323.809 190.8 321.107 187.82 318.905 184.481C318.684 184.153 318.486 183.809 318.275 183.467C317.922 182.73 317.417 182.076 316.794 181.549C316.512 181.362 316.23 181.176 315.956 180.995C314.892 180.408 313.919 179.672 313.065 178.807C311.492 177.11 310.361 175.05 309.773 172.81C308.759 169.056 309.065 165.223 309.475 161.62C310.298 154.393 312.298 144.273 320.182 139.727C323.038 138.082 326.265 137.407 329.38 136.755C333.347 135.928 337.091 135.147 339.297 132.454C340.639 130.81 341.305 128.561 342.003 126.183C342.967 122.903 343.96 119.514 346.883 117.187C349.395 115.175 352.385 114.728 355.282 114.295C357.008 114.116 358.705 113.716 360.33 113.105C363.32 111.804 365.452 108.933 367.702 105.883C370.35 102.296 373.115 98.5629 377.624 97.0599C381.155 95.8924 384.892 96.5258 387.93 96.9751L398.258 98.6131C400.178 98.932 401.826 99.114 402.998 98.469C403.555 98.1196 404.063 97.698 404.509 97.2151C404.809 96.9224 405.109 96.6297 405.426 96.3591C408.361 93.8048 412.656 92.5447 417.514 92.8197C430.249 93.54 441.345 104.48 442.257 117.208C442.595 121.968 441.701 127.045 439.444 133.185C438.124 136.795 436.294 140.869 432.838 143.762C429.381 146.654 425.354 147.59 421.349 148.604C417.344 149.618 413.888 150.494 411.276 152.835C409.225 154.681 407.95 157.222 406.583 159.937C405.425 162.53 403.92 164.954 402.109 167.142C399.383 170.154 395.672 172.093 391.646 172.608C389.436 172.809 387.211 172.77 385.01 172.493C383.853 172.39 382.767 172.291 381.677 172.265C379.336 172.212 376.157 172.556 374.4 174.586C373.292 175.86 372.755 177.768 372.222 179.753C371.49 182.472 370.62 185.579 367.95 187.539C364.436 190.116 360.318 189.092 356.682 188.194C354.151 187.589 351.794 186.981 349.718 187.446C347.643 187.91 345.638 189.67 343.609 191.499C340.825 194.003 337.671 196.84 333.373 196.412C331.662 196.195 330.03 195.567 328.617 194.581ZM319.069 178.089C320.227 178.939 321.168 180.051 321.815 181.334L322.326 182.173C324.298 185.169 326.714 187.845 329.493 190.111C330.681 191.23 332.159 191.993 333.76 192.312C336.237 192.562 338.36 190.656 340.824 188.442C343.043 186.439 345.561 184.175 348.768 183.434C351.785 182.738 354.752 183.472 357.631 184.178C360.788 184.963 363.506 185.638 365.455 184.204C366.978 183.076 367.537 181.054 368.175 178.669C368.814 176.284 369.502 173.857 371.242 171.869C373.471 169.318 377.105 168.026 381.735 168.13C382.961 168.161 384.17 168.266 385.335 168.374C387.251 168.617 389.187 168.658 391.112 168.499C394.144 168.106 396.938 166.645 398.992 164.378C400.549 162.456 401.845 160.337 402.847 158.077C404.33 155.139 405.855 152.091 408.479 149.748C411.851 146.725 416.149 145.638 420.295 144.588C424.019 143.644 427.529 142.751 430.149 140.576C432.769 138.401 434.388 134.838 435.505 131.777C437.557 126.206 438.371 121.685 438.072 117.527C437.315 106.983 427.805 97.5928 417.221 96.9705C415.033 96.8479 410.939 97.0135 408.103 99.4834C407.847 99.7092 407.606 99.9449 407.36 100.188C406.65 100.932 405.841 101.576 404.956 102.1C402.445 103.483 399.505 103.013 397.568 102.704L387.24 101.066C384.533 100.633 381.46 100.139 378.888 101.001C375.635 102.053 373.375 105.118 371.001 108.341C368.517 111.695 365.961 115.161 361.943 116.903C359.979 117.662 357.924 118.159 355.831 118.382C353.375 118.745 351.082 119.119 349.411 120.405C347.524 121.923 346.748 124.548 345.906 127.322C345.064 130.095 344.311 132.767 342.434 135.06C339.301 138.881 334.657 139.847 330.119 140.797C327.18 141.406 324.422 141.985 322.139 143.295C315.876 146.904 314.205 155.737 313.488 162.062C313.118 165.265 312.838 168.656 313.662 171.698C314.074 173.284 314.869 174.744 315.977 175.949C316.582 176.537 317.265 177.038 318.007 177.44C318.318 177.646 318.637 177.857 318.956 178.068L319.069 178.089Z" fill="#231916"/>
<path d="M290.869 217.443C290.869 217.443 319.219 158.581 361.294 138.281C404.362 117.494 420.354 116.866 422.109 120.224C422.109 120.224 365.112 137.954 344.201 157.02C323.291 176.087 294.486 219.353 294.486 219.353L290.869 217.443Z" fill="#8DC220"/>
<path d="M288.143 218.342L289.011 216.545C294.711 205.3 301.267 194.511 308.623 184.272C320.032 168.329 338.266 147.089 360.4 136.409C396.651 118.909 420.401 112.489 423.941 119.257L425.087 121.456L422.722 122.198C422.155 122.378 365.922 140.015 345.59 158.546C325.1 177.218 296.513 220.041 296.209 220.502L295.173 222.069L288.143 218.342ZM412.603 121.178C410.874 121.456 408.801 121.868 406.263 122.55C395.374 125.387 380.13 131.462 362.195 140.125C325.349 157.914 298.771 206.612 293.665 216.515L293.821 216.618C299.244 208.589 323.941 172.652 342.78 155.43C351.617 147.394 367.593 138.632 390.2 129.493C398.842 126.056 406.852 123.174 412.603 121.178Z" fill="#231916"/>
<path d="M271.502 183.371C269.735 184.755 268.179 186.513 266.103 187.35C261.272 189.291 256.235 185.611 251.816 182.882C250.637 182.091 249.341 181.49 247.975 181.102C245.874 180.589 243.67 180.957 241.507 180.99C238.168 181.114 234.873 180.204 232.073 178.385C230.69 177.466 229.527 176.251 228.67 174.828C227.812 173.405 227.281 171.809 227.113 170.155C227.039 168.654 227.251 167.044 226.682 165.6C225.628 163.132 222.562 162.419 219.943 161.852C213.688 160.483 206.908 157.507 204.838 151.432C203.944 148.835 203.977 145.835 202.324 143.644C200.266 140.907 196.372 140.447 193.468 138.635C191.127 137.163 189.467 134.838 187.933 132.5C185.3 128.423 182.795 123.459 184.307 118.801C185.76 114.297 190.446 111.704 194.93 110.206C203.222 107.446 212.868 107.117 220.226 111.831C222.073 113.051 223.809 114.551 225.928 115.214C228.873 116.093 232.011 115.231 235.084 115.192C238.198 115.19 241.251 116.05 243.904 117.675C246.558 119.301 248.711 121.63 250.123 124.404C251.375 126.961 252.097 129.978 254.36 131.698C257.352 133.942 261.996 133.04 264.774 135.527C267.664 138.12 267.005 142.808 268.622 146.342C271.236 152.061 279.228 153.543 282.37 159.024C284.166 162.143 284.038 165.965 283.862 169.552C283.882 171.941 283.495 174.316 282.715 176.576C282.294 177.672 281.635 178.661 280.784 179.47C279.934 180.28 278.914 180.891 277.8 181.257C276.863 181.514 275.866 181.346 274.91 181.568C273.654 181.908 272.49 182.525 271.502 183.371Z" fill="#8CC457"/>
<path d="M231.145 180.258L230.922 180.111C229.278 179.019 227.9 177.573 226.887 175.879C225.874 174.184 225.252 172.285 225.067 170.318C225.043 169.822 225.039 169.328 225.003 168.802C225.059 168.018 224.965 167.231 224.724 166.484C224.14 165.03 221.97 164.493 219.437 163.94C213.251 162.595 205.348 159.464 202.826 152.172C202.493 151.156 202.229 150.118 202.034 149.066C201.866 147.607 201.39 146.2 200.637 144.941C199.671 143.662 198.028 143.003 196.119 142.233C194.805 141.749 193.537 141.147 192.332 140.435C189.576 138.72 187.712 136.058 186.148 133.669C183.392 129.425 180.466 123.841 182.288 118.214C183.704 113.813 187.739 110.449 194.189 108.265C204.339 104.885 214.2 105.553 221.242 110.132C221.769 110.48 222.295 110.828 222.822 111.176C224.022 112.262 225.474 113.03 227.047 113.412C228.62 113.793 230.264 113.776 231.83 113.361C232.843 113.262 233.894 113.156 234.969 113.141C238.475 113.128 241.913 114.091 244.901 115.92C247.889 117.75 250.309 120.375 251.892 123.502C252.252 124.231 252.536 124.995 252.849 125.682C253.594 127.456 254.288 129.131 255.522 130.053C256.806 130.819 258.242 131.298 259.729 131.457C261.822 131.869 264.211 132.284 266.069 134.003C268.368 136.055 268.902 138.97 269.384 141.53C269.571 142.885 269.921 144.213 270.426 145.484C271.543 147.92 274.037 149.547 276.685 151.264C279.443 153.087 282.306 154.979 284.082 157.999C286.235 161.738 286.025 166.135 285.848 169.659C285.863 172.275 285.427 174.876 284.561 177.346C284.021 178.736 283.176 179.987 282.089 181.007C281.002 182.027 279.7 182.79 278.28 183.24C277.63 183.4 276.964 183.483 276.295 183.486C275.965 183.483 275.636 183.512 275.311 183.572C274.352 183.828 273.46 184.292 272.698 184.93C272.216 185.305 271.754 185.715 271.286 186.132C269.979 187.414 268.457 188.457 266.79 189.212C261.419 191.374 256.117 188.03 251.861 185.346L250.667 184.557C249.669 183.882 248.572 183.367 247.416 183.027C246.071 182.785 244.697 182.74 243.338 182.894C242.709 182.927 242.088 182.964 241.466 182.97C237.831 183.117 234.236 182.173 231.145 180.258ZM226.078 161.903C227.187 162.607 228.06 163.626 228.586 164.831C229.054 166.1 229.249 167.454 229.157 168.804C229.163 169.214 229.162 169.619 229.185 170.019C229.334 171.368 229.779 172.667 230.489 173.823C231.199 174.978 232.156 175.962 233.291 176.703C235.741 178.276 238.616 179.058 241.528 178.944C242.097 178.936 242.632 178.884 243.232 178.864C244.993 178.696 246.769 178.79 248.501 179.144C250.077 179.582 251.574 180.266 252.938 181.169L254.154 181.972C257.983 184.385 261.942 186.874 265.35 185.507C266.57 184.906 267.686 184.111 268.652 183.153C269.171 182.706 269.688 182.247 270.232 181.827C271.469 180.809 272.917 180.078 274.47 179.686C275.048 179.566 275.637 179.501 276.228 179.493C276.577 179.495 276.925 179.465 277.269 179.401C278.077 179.117 278.814 178.658 279.428 178.059C280.041 177.459 280.516 176.733 280.819 175.931C281.498 173.887 281.833 171.746 281.81 169.594C282 165.792 282.025 162.692 280.547 160.22C279.284 158.02 276.946 156.496 274.476 154.896C271.473 152.911 268.336 150.903 266.682 147.344C266.024 145.767 265.572 144.111 265.334 142.419C264.928 140.229 264.574 138.33 263.332 137.21C262.305 136.297 260.681 135.981 258.963 135.647C256.854 135.396 254.832 134.659 253.056 133.493C250.92 131.89 249.935 129.51 249.058 127.404C248.777 126.716 248.503 126.066 248.208 125.465C246.958 123.047 245.071 121.017 242.75 119.596C240.429 118.175 237.763 117.417 235.04 117.403C234.157 117.418 233.232 117.511 232.263 117.607C230.202 118.07 228.063 118.047 226.015 117.54C223.966 117.033 222.065 116.055 220.46 114.685C219.978 114.367 219.504 114.053 219.022 113.735C213.045 109.881 204.447 109.365 195.5 112.344C191.947 113.528 187.442 115.75 186.192 119.609C184.941 123.468 187.334 128.07 189.587 131.544C190.933 133.619 192.433 135.751 194.479 137.04C195.482 137.619 196.533 138.111 197.622 138.508C199.783 139.381 202.238 140.374 203.895 142.558C205.042 144.289 205.78 146.258 206.055 148.318C206.222 149.189 206.444 150.049 206.719 150.892C208.582 156.392 215.153 158.846 220.312 159.971C222.328 160.254 224.275 160.904 226.056 161.888L226.078 161.903Z" fill="#231916"/>
<path d="M215.769 128.62C215.864 125.897 269.93 151.07 280.413 187.67C290.896 224.27 281.518 218.969 281.518 218.969C281.518 218.969 278.109 184.482 259.861 165.357C237.504 141.937 215.687 131.341 215.769 128.62Z" fill="#8DC220"/>
<path d="M279.56 220.237L279.453 219.174C279.423 218.833 275.895 185.155 258.35 166.804C244.49 152.308 230.769 142.696 222.562 136.962C215.872 132.285 213.62 130.712 213.692 128.571C213.713 128.018 213.935 127.49 214.317 127.088C214.698 126.686 215.213 126.437 215.764 126.386C220.947 125.734 272.059 151.058 282.392 187.11C289.813 213.041 287.48 218.555 285.086 220.452C284.434 220.949 283.652 221.245 282.835 221.304C282.018 221.363 281.202 221.183 280.487 220.786L279.56 220.237ZM228.521 136.055C240.348 144.255 251.345 153.592 261.355 163.933C271.07 174.11 276.599 188.491 279.521 198.757C281.09 204.264 282.306 209.867 283.161 215.53C283.592 212.815 283.446 205.781 278.424 188.245C271.459 163.928 244.694 144.971 228.521 136.055Z" fill="#231916"/>
</g>
</svg>
