<svg width="205" height="338" viewBox="0 0 205 338" fill="none" xmlns="http://www.w3.org/2000/svg">
<path d="M197.95 39.8931C186.495 30.1857 180.759 39.3692 179.146 46.3354C177.534 53.3017 174.046 69.2245 168.136 89.6782C162.225 110.132 149.942 118.364 149.942 118.364C149.942 118.364 126.579 106.649 107.017 99.6126C109.728 88.7966 105.988 28.9023 101.49 14.8912C98.3954 5.21871 97.0006 1.49989 88.7538 2.25064C80.5069 3.00139 77.7521 12.1676 78.6762 17.6149C79.6002 23.0622 81.1345 39.9542 81.0386 55.8334C80.9427 71.7127 80.8207 96.5222 79.7223 103.646C77.8131 112.323 75.163 117.011 75.163 117.011L50.4661 106.753C50.4661 106.753 41.3562 97.8144 24.5923 96.4264C4.54188 94.759 -3.14696 116.723 5.57933 117.194C14.3056 117.665 25.3856 125.313 25.3856 125.313C25.3856 125.313 54.0577 152.462 59.0616 157.325C64.0655 162.187 64.606 170.541 71.5888 182.501C75.9153 190.088 80.6623 197.426 85.8072 204.482C90.689 211.466 90.8198 225.241 90.8198 225.241L79.0424 321.844C133.004 357.566 173.192 310.024 173.192 310.024C173.192 310.024 164.614 249.143 166.968 226.429C169.322 203.714 172.46 199.908 177.106 191.065C181.753 182.221 186.242 161.297 188.3 149.686C190.357 138.076 190.462 107.644 193.53 96.4351C196.599 85.2262 207.836 48.2735 197.95 39.8931Z" fill="#FBD6A0"/>
<path d="M93.095 2.38155C88.3439 1.82285 83.6277 6.44084 83.7236 11.9842C83.8195 17.5275 89.8259 44.7815 89.6515 65.5669C89.5295 82.3802 83.6713 136.766 81.4396 156.897C81.2121 159.012 81.7431 161.139 82.9376 162.898C84.1322 164.657 85.9125 165.933 87.9603 166.499C89.2318 166.855 90.566 166.925 91.8675 166.704C93.169 166.482 94.4056 165.976 95.4886 165.22C96.5717 164.464 97.4743 163.478 98.1321 162.332C98.7898 161.186 99.1864 159.908 99.2932 158.59C100.81 140.144 103.931 103.55 105.605 93.5018C108.098 78.478 107.531 68.9104 106.59 52.7518C105.648 36.5932 101.342 3.33308 93.095 2.38155Z" fill="#F8C27B"/>
<path d="M4.31512 108.168C4.31512 108.168 1.19425 114.06 9.45852 114.854C17.7228 115.649 21.9944 112.078 37.6511 125.33C44.076 130.777 51.9306 139.376 58.9744 147.634C70.1155 160.729 91.6914 149.712 87.0711 133.152C86.4547 130.779 85.211 128.617 83.4708 126.893C73.4891 117.159 58.1375 110.69 52.4013 108.49C50.952 107.93 49.59 107.166 48.3563 106.221C44.3637 103.192 34.0857 96.4786 22.0642 97.0548C6.57307 97.7968 4.31512 108.168 4.31512 108.168Z" fill="#F8C27B"/>
<path d="M192.876 36.6107C192.876 36.6107 186.425 38.8977 183.705 52.6557C180.986 66.4136 160.709 124.544 165.32 146.936C165.948 149.965 168.275 172.671 177.917 165.844C187.559 159.018 189.799 121.384 190.244 114.444C190.688 107.504 191.403 95.7452 193.556 87.9322C195.71 80.1191 201.603 65.1216 201.681 54.1222C201.768 46.0909 202.012 42.5905 192.876 36.6107Z" fill="#F8C27B"/>
<path d="M76.8803 322.848L88.7885 225.136C88.7885 223.775 88.3701 211.667 84.1508 205.652L82.6165 203.478C78.0076 197.057 73.7416 190.395 69.8365 183.522C67.1682 178.845 64.8993 173.951 63.0542 168.891C61.3107 164.352 60.0205 161.078 57.6494 158.782C52.8721 154.147 26.1441 128.831 24.1129 126.902C22.9011 126.09 13.0503 119.63 5.47469 119.228C4.47732 119.212 3.50396 118.919 2.66234 118.383C1.82072 117.847 1.14369 117.088 0.706205 116.19C-0.775783 113.196 0.130751 108.517 3.00755 104.274C7.70632 97.3429 15.8398 93.659 24.8015 94.401C40.5977 95.7104 49.8384 103.401 51.6255 105.025L74.2215 114.401C75.771 110.821 76.9596 107.095 77.7695 103.279C78.8069 96.4 78.9551 72.7252 79.0423 57.0118V55.781C79.1382 39.5525 77.5429 22.8526 76.706 17.9203C76.053 13.3636 77.2008 8.73162 79.9054 5.0092C80.9362 3.63508 82.246 2.49518 83.7486 1.66461C85.2511 0.834035 86.9124 0.33162 88.6229 0.19041C98.683 -0.682557 100.488 4.90439 103.443 14.2277C107.802 27.7936 111.541 83.3317 109.353 98.2594C125.995 104.37 144.965 113.589 149.742 115.946C152.592 113.624 161.519 105.322 166.209 89.0758C171.51 70.7435 174.848 56.1038 176.67 48.2384L177.211 45.8465C177.734 43.603 179.896 36.1042 185.929 34.0877C189.93 32.7607 194.419 34.1838 199.293 38.3042C208.333 45.9688 202.78 71.0403 196.224 94.5493C195.971 95.4223 195.744 96.2429 195.553 96.9412C193.809 103.157 193.042 116.094 192.336 127.495C191.778 136.452 191.255 144.902 190.357 149.983C187.855 164.099 183.383 183.557 178.954 191.964C178.492 192.837 178.083 193.71 177.603 194.495C173.698 201.741 171.117 206.533 169.034 226.585C166.732 248.794 175.136 309.081 175.249 309.683L175.38 310.556L174.787 311.255C167.064 319.712 157.672 326.471 147.205 331.106C131.417 338.089 106.59 342.454 77.9526 323.459L76.8803 322.848ZM26.3707 123.549L26.5102 123.637L26.7542 123.837C27.0419 124.108 55.5222 151.048 60.4477 155.866C63.4552 158.773 64.9285 162.597 66.8028 167.425C68.5696 172.284 70.7482 176.983 73.3148 181.471C77.1634 188.243 81.3653 194.808 85.9031 201.139L87.4374 203.312C92.6679 210.698 92.816 224.63 92.816 225.224V225.486L81.1868 320.831C102.562 334.606 124.156 336.859 145.392 327.527C155.046 323.206 163.765 317.038 171.056 309.369C169.949 301.311 162.74 247.642 164.954 226.219C167.116 205.364 170.001 200.03 173.985 192.618C174.421 191.815 174.857 190.995 175.319 190.122C179.521 182.134 183.862 163.156 186.312 149.328C187.184 144.474 187.689 136.129 188.239 127.303C188.997 115.082 189.773 102.511 191.595 95.8763L192.275 93.4669C195.396 82.3278 204.898 48.4306 196.634 41.4207C192.92 38.278 189.738 37.117 187.175 37.9288C183.958 39.0026 181.945 43.1665 181.073 46.7457L180.524 49.1289C178.719 57.0292 175.354 71.7474 170.062 90.1583C164.021 111.109 151.581 119.612 151.058 119.97L150.073 120.625L149.018 120.101C148.792 119.979 125.533 108.36 106.302 101.446L104.559 100.826L105.003 99.08C107.714 88.2814 103.809 28.8936 99.5112 15.4587C96.3816 5.68147 95.4923 3.6299 88.8931 4.23225C87.7429 4.32295 86.6255 4.65975 85.6164 5.21998C84.6072 5.78021 83.7299 6.5508 83.0437 7.47966C81.0189 10.2992 80.1544 13.7904 80.6289 17.2306C81.5006 22.2851 83.1221 39.3168 83.0175 55.7984V57.0292C82.9216 72.8736 82.7734 96.819 81.6837 103.916V104.047C79.7309 112.908 77.0285 117.77 76.9152 118.015L76.0434 119.577L49.3153 108.482L49.0364 108.211C48.9492 108.124 40.1706 99.7609 24.418 98.4515C13.3815 97.5261 7.80229 104.423 6.35518 106.553C4.11476 109.861 3.64395 112.995 4.33264 114.409C4.45123 114.662 4.64443 114.872 4.88611 115.011C5.12779 115.15 5.40632 115.211 5.68391 115.186C14.4451 115.64 25.0108 122.606 26.3707 123.549Z" fill="#231916"/>
<path d="M125.559 219.13L106.668 263.337C106.05 264.78 105.611 266.292 105.361 267.842L98.6394 309.369C98.1873 312.076 98.3198 314.848 99.0281 317.5C99.7364 320.151 101.004 322.62 102.745 324.739C104.487 326.858 106.662 328.579 109.123 329.786C111.585 330.993 114.276 331.657 117.016 331.734C122.568 331.851 128.104 331.097 133.423 329.5C152.924 323.651 170.742 311.097 170.307 308.644L162.461 224.909C162.178 221.914 161.2 219.026 159.605 216.477C158.009 213.928 155.841 211.787 153.272 210.226C150.914 208.79 148.275 207.879 145.534 207.554C142.793 207.229 140.014 207.498 137.386 208.342C134.757 209.187 132.341 210.587 130.301 212.448C128.26 214.31 126.643 216.588 125.559 219.13Z" fill="#F8C27B"/>
<path d="M124.252 190.741C131.034 178.153 123.275 165.521 123.197 165.425L126.248 163.496C126.614 164.081 135.227 178.005 127.425 192.487L124.252 190.741Z" fill="#231916"/>
<path d="M98.282 226.332C98.3489 226.284 98.4077 226.225 98.4563 226.158L95.7191 223.809C96.7564 222.596 108.586 215.752 126.841 222.613L125.577 226.001C108.22 219.48 98.3779 226.262 98.282 226.332Z" fill="#231916"/>
<path d="M34.5564 116.871C34.7569 116.417 39.6126 105.697 50.3352 104.955L50.588 108.56C42.0535 109.145 37.8953 118.242 37.8517 118.329L34.5564 116.871Z" fill="#231916"/>
<path d="M118.882 219.637L118.925 216.023C119.492 216.023 132.708 216.258 144.206 224.071L144.886 224.551L142.803 227.493C132.089 219.829 119.012 219.637 118.882 219.637Z" fill="#231916"/>
<path d="M148.155 178.162C143.487 175.008 140.129 170.255 138.714 164.797L142.253 164.073C143.49 168.599 146.3 172.533 150.178 175.168L148.155 178.162Z" fill="#231916"/>
<path d="M152.157 169.118C147.898 166.325 144.541 162.352 142.497 157.682L145.88 156.425L144.189 157.054L145.871 156.417C148.032 161.111 151.674 164.963 156.236 167.381L154.493 170.55C153.647 170.096 152.889 169.607 152.157 169.118Z" fill="#231916"/>
<path d="M79.452 154.583L77.3511 151.641C94.115 139.673 91.2992 129.154 91.1946 128.717L94.6816 127.67C94.8124 128.202 98.4825 140.982 79.452 154.583Z" fill="#231916"/>
<path d="M180.524 77.5002C179.057 76.5187 177.788 75.2689 176.784 73.8163L179.774 71.7997C179.966 72.0791 184.516 78.6003 191.604 75.0037L193.234 78.2161C191.262 79.3052 189.024 79.8157 186.776 79.689C184.528 79.5624 182.361 78.8038 180.524 77.5002Z" fill="#231916"/>
<path d="M84.2379 38.0597L83.8892 37.8152L86.0251 34.9082L84.9615 36.3574L86.0251 34.8994C86.2866 35.0915 92.7899 39.6921 98.2297 33.9044L100.845 36.3837C94.9519 42.6603 87.6116 40.3381 84.2379 38.0597Z" fill="#231916"/>
<path d="M88.03 19.0989C88.0908 19.4415 88.0481 19.7943 87.9072 20.1123C87.7663 20.4304 87.5338 20.6991 87.2394 20.8839C86.9451 21.0686 86.6022 21.1613 86.255 21.1496C85.9077 21.138 85.5719 21.0225 85.2905 20.8184C85.0092 20.6143 84.7952 20.3306 84.6759 20.0039C84.5566 19.6771 84.5376 19.3222 84.6212 18.9845C84.7048 18.6468 84.8872 18.3419 85.1451 18.1087C85.403 17.8756 85.7246 17.7247 86.0685 17.6759C86.5159 17.6123 86.9704 17.7252 87.3363 17.9907C87.7022 18.2561 87.9509 18.6535 88.03 19.0989Z" fill="#231916"/>
<path d="M95.2395 17.9815C95.3003 18.324 95.2575 18.6771 95.1167 18.9951C94.9758 19.3132 94.7433 19.5816 94.4489 19.7664C94.1545 19.9512 93.8117 20.0438 93.4645 20.0322C93.1172 20.0205 92.7814 19.9051 92.5 19.701C92.2186 19.4969 92.0046 19.2134 91.8854 18.8866C91.7661 18.5598 91.7471 18.2047 91.8307 17.867C91.9143 17.5293 92.0967 17.2244 92.3545 16.9913C92.6124 16.7581 92.934 16.6075 93.278 16.5586C93.7254 16.4951 94.1799 16.6078 94.5457 16.8732C94.9116 17.1387 95.1604 17.536 95.2395 17.9815Z" fill="#231916"/>
<path d="M91.7525 29.0069C93.1074 28.7776 94.3177 28.0237 95.1219 26.908C95.9261 25.7923 96.2596 24.4046 96.0503 23.0447L85.7985 24.6945C86.0254 26.0528 86.7775 27.2669 87.8919 28.074C89.0062 28.8812 90.3932 29.2163 91.7525 29.0069Z" fill="#231916"/>
<path d="M16.5983 104.859C16.8027 104.899 16.9922 104.993 17.1467 105.133C17.3012 105.273 17.4146 105.452 17.4748 105.652C17.5349 105.851 17.5394 106.063 17.4879 106.265C17.4363 106.467 17.3307 106.651 17.1823 106.797C16.8691 107.211 16.4478 107.531 15.9647 107.72C15.4817 107.91 14.9558 107.962 14.445 107.871C14.2407 107.831 14.0511 107.737 13.8967 107.597C13.7422 107.457 13.6287 107.278 13.5686 107.078C13.5084 106.879 13.504 106.667 13.5555 106.465C13.607 106.263 13.7127 106.079 13.861 105.933C14.1742 105.519 14.5956 105.199 15.0786 105.01C15.5616 104.82 16.0876 104.768 16.5983 104.859Z" fill="#231916"/>
<path d="M21.1401 98.4864C21.3445 98.5259 21.5341 98.6206 21.6886 98.7602C21.8431 98.8999 21.9564 99.0793 22.0166 99.2788C22.0767 99.4783 22.0813 99.6905 22.0298 99.8924C21.9782 100.094 21.8726 100.278 21.7243 100.424C21.4097 100.839 20.9867 101.159 20.5022 101.348C20.0176 101.538 19.4903 101.59 18.9782 101.498C18.1064 101.262 17.81 100.398 18.4028 99.5601C18.7154 99.1452 19.1367 98.8253 19.6199 98.6358C20.1031 98.4462 20.6293 98.3945 21.1401 98.4864Z" fill="#231916"/>
<path d="M27.9225 105.653C29.7358 103.131 28.9425 100.512 26.179 99.7871L19.6321 108.901C22.4043 109.643 26.118 108.168 27.9225 105.653Z" fill="#231916"/>
<path d="M183.74 52.6555C183.694 53.0001 183.546 53.3229 183.315 53.5826C183.084 53.8424 182.781 54.0272 182.444 54.1133C182.108 54.1995 181.754 54.1831 181.427 54.0662C181.099 53.9493 180.815 53.7373 180.609 53.4573C180.403 53.1774 180.285 52.8421 180.271 52.4946C180.256 52.1472 180.346 51.8034 180.527 51.5072C180.709 51.211 180.975 50.9761 181.292 50.8323C181.608 50.6885 181.96 50.6424 182.302 50.7001C182.748 50.7753 183.148 51.0215 183.416 51.3864C183.685 51.7513 183.801 52.2064 183.74 52.6555Z" fill="#231916"/>
<path d="M190.366 51.3024C190.319 51.647 190.171 51.97 189.94 52.2297C189.709 52.4894 189.406 52.6741 189.07 52.7602C188.733 52.8463 188.379 52.83 188.052 52.7131C187.725 52.5962 187.44 52.3842 187.234 52.1042C187.028 51.8242 186.91 51.4891 186.896 51.1417C186.881 50.7943 186.971 50.4503 187.153 50.1541C187.335 49.8579 187.601 49.6229 187.917 49.4791C188.233 49.3353 188.585 49.2892 188.927 49.347C189.374 49.4222 189.773 49.6683 190.042 50.0332C190.31 50.3981 190.426 50.8533 190.366 51.3024Z" fill="#231916"/>
<path d="M187.184 61.3154C188.506 60.9349 189.625 60.0484 190.299 58.8474C190.973 57.6465 191.147 56.2279 190.784 54.8992L180.785 57.7102C181.165 59.0322 182.049 60.1515 183.247 60.8261C184.444 61.5007 185.858 61.6763 187.184 61.3154Z" fill="#231916"/>
<path d="M93.1909 211.3L94.1935 207.808L93.6965 209.554L94.1847 207.808C94.5596 207.904 103.478 210.244 111.62 200.929L114.34 203.304C104.628 214.399 93.6617 211.44 93.1909 211.3Z" fill="#231916"/>
<path d="M134.216 84.0126C134.216 84.0126 128.436 75.0648 118.271 74.1657C105.875 73.0832 105.387 86.6227 105.387 86.6227L99.0666 144.37C99.0666 144.37 96.2595 160.17 108.577 161.558C120.895 162.946 122.264 148.926 123.136 144.562C124.008 140.197 134.216 84.0126 134.216 84.0126Z" fill="#FBD6A0"/>
<path d="M149.942 118.373C157.187 113.816 162.853 102.659 162.853 102.659C162.853 102.659 158.128 81.4636 145.889 77.7709C131.74 73.5021 128.375 88.3686 128.375 88.3686C128.375 88.3686 121.131 128.857 119.71 138.652C118.289 148.446 113.965 165.714 128.157 166.395C142.349 167.075 143.901 153.195 143.901 153.195L153.072 100.311" fill="#FBD6A0"/>
<path d="M156.707 87.4085C156.707 87.4085 144.267 78.1724 138.688 82.9737C133.109 87.7751 130.023 123.427 130.023 123.427L123.79 165.487C123.79 165.487 133.274 167.887 138.452 163.365C143.631 158.843 146.769 136.705 149.158 122.912C150.465 115.343 153.708 115.116 153.708 115.116C153.708 115.116 161.632 107.557 162.426 100.896C162.504 99.9181 159.375 92.9169 156.707 87.4085Z" fill="#F8C27B"/>
<path d="M123.72 157.578L136.012 158.372C136.351 156.915 136.59 155.436 136.726 153.946C137.084 150.812 137.293 149.66 136.944 147.477C136.596 145.295 135.253 141.986 130.249 143.043C126.536 143.837 124.435 148.665 123.72 157.578Z" fill="white"/>
<path d="M122.264 158.835L122.377 157.464C123.153 147.661 125.568 142.624 129.962 141.751C132.237 141.262 134.137 141.506 135.576 142.527C136.328 143.094 136.957 143.81 137.422 144.629C137.886 145.449 138.178 146.356 138.278 147.294C138.558 149.248 138.526 151.234 138.182 153.178L138.069 154.129C137.926 155.687 137.675 157.233 137.319 158.756L137.023 159.821L122.264 158.835ZM134.033 144.727C133.505 144.438 132.924 144.258 132.325 144.196C131.726 144.135 131.122 144.194 130.546 144.369C127.747 144.963 125.952 148.979 125.211 156.312L134.948 156.94C135.079 156.259 135.236 155.194 135.401 153.798L135.515 152.828C135.829 151.135 135.864 149.401 135.619 147.696C135.567 147.124 135.404 146.569 135.138 146.061C134.871 145.553 134.508 145.103 134.068 144.736L134.033 144.727Z" fill="#231916"/>
<path d="M130.982 84.2221C129.935 77.7447 118.245 75.2743 114.619 80.2153C110.992 85.1563 108.447 121.751 108.447 121.751L104.724 160.45C106.279 161.458 108.089 162.003 109.942 162.018C111.795 162.033 113.614 161.52 115.185 160.537C118.751 158.407 117.914 150.472 119.544 139.647C121.575 126.456 125.533 109.966 125.533 109.966L130.982 84.2221Z" fill="#F8C27B"/>
<path d="M102.946 154.609H113.677C113.677 154.609 113.773 153.597 114 150.725C114.183 148.333 114.139 146.849 114.191 144.823C114.191 143.078 112.666 139.516 108.089 140.782C104.75 141.663 103.591 146.482 102.946 154.609Z" fill="white"/>
<path d="M101.481 155.971L101.595 154.505C102.266 146.063 103.53 140.598 107.697 139.437C110.495 138.669 112.309 139.437 113.328 140.267C114.008 140.816 114.557 141.51 114.935 142.298C115.314 143.086 115.512 143.949 115.517 144.823C115.517 145.391 115.517 145.915 115.517 146.43C115.517 147.774 115.517 149.048 115.342 150.794C115.124 153.684 115.028 154.706 115.028 154.706L114.915 155.928L101.481 155.971ZM111.55 142.292C111.082 142.026 110.562 141.867 110.025 141.825C109.489 141.783 108.95 141.859 108.447 142.048C106.302 142.641 105.108 145.915 104.419 153.248H112.439C112.492 152.636 112.561 151.772 112.648 150.629C112.779 148.961 112.797 147.73 112.814 146.438C112.814 145.915 112.814 145.382 112.814 144.797C112.799 144.345 112.689 143.902 112.491 143.495C112.292 143.089 112.01 142.73 111.663 142.44L111.55 142.292Z" fill="#231916"/>
<path d="M104.759 127.914L103.975 125.295C104.376 125.173 113.817 122.345 119.614 126.692L118.001 128.866C113.311 125.4 104.829 127.888 104.759 127.914Z" fill="#231916"/>
<path d="M127.224 130.594L126.44 127.975C126.884 127.836 137.433 124.719 143.875 129.52L142.262 131.694C136.91 127.731 127.32 130.594 127.224 130.594Z" fill="#231916"/>
<path d="M102.65 161.349C101.618 160.646 100.71 159.776 99.9645 158.773C95.8847 153.3 97.1313 145.007 97.2795 144.116L103.591 86.5006C103.591 85.6974 104.097 79.2287 108.551 75.2828C111.114 73.0219 114.436 72.0443 118.428 72.3935C129.552 73.3712 132.9 81.0706 133.039 81.3936L133.257 81.9087L133.144 82.4588C133.013 83.0961 120.067 146.185 119.3 150.472C119.186 151.478 119.186 152.494 119.3 153.501C119.466 156.12 119.666 159.385 117.4 161.549C115.595 163.295 112.649 163.863 108.377 163.383C106.331 163.18 104.366 162.481 102.65 161.349ZM125.882 78.5565C123.563 77.024 120.887 76.1215 118.115 75.9376C115.159 75.6844 112.744 76.3479 110.949 77.928C107.462 81.0008 107.191 86.6052 107.183 86.6576V86.7887L100.845 144.658C100.845 144.728 99.5809 152.191 102.867 156.591C103.572 157.509 104.465 158.265 105.486 158.809C106.507 159.352 107.633 159.671 108.787 159.742C111.847 160.083 113.965 159.795 114.889 158.869C115.813 157.944 115.813 155.727 115.682 153.632C115.542 152.328 115.56 151.012 115.735 149.712C116.51 145.574 128.044 89.2069 129.465 82.2493C128.562 80.7647 127.338 79.5024 125.882 78.5565Z" fill="#231916"/>
<path d="M121.148 166.141C120.288 165.559 119.523 164.846 118.882 164.029C114.261 158.197 116.127 148.115 117.626 140.005L117.931 138.346C119.675 128.656 127.843 90.2893 128.27 88.3164C128.393 87.3649 129.447 80.5295 134.626 77.1074C137.799 75.0123 141.765 74.6544 146.412 76.0599C159.488 80.0057 164.414 101.376 164.614 102.249L164.754 102.886L164.457 103.462C164.23 103.925 158.826 114.418 151.59 119.403L145.688 153.448C145.061 158.843 140.588 168.786 128.07 168.193C125.618 168.162 123.222 167.452 121.148 166.141ZM148.783 81.1666C147.733 80.4474 146.581 79.8913 145.366 79.5168C141.8 78.4431 138.862 78.6438 136.648 80.1104C132.621 82.7293 131.871 88.7615 131.862 88.84V89.0148C131.775 89.4164 123.319 129.171 121.532 139.018L121.227 140.686C119.937 147.669 118.158 157.272 121.758 161.811C123.145 163.557 125.246 164.491 128.288 164.631C140.58 165.216 142.105 153.527 142.166 153.029V152.925L151.294 100.04L154.85 100.66L152.54 113.973C155.84 110.528 158.664 106.655 160.935 102.458C160.159 99.403 156.42 86.3433 148.783 81.1666Z" fill="#231916"/>
</svg>
