<?xml version="1.0" encoding="utf-8"?>
<!-- Generator: Adobe Illustrator 21.0.0, SVG Export Plug-In . SVG Version: 6.00 Build 0)  -->
<svg version="1.1" id="圖層_1" xmlns="http://www.w3.org/2000/svg" xmlns:xlink="http://www.w3.org/1999/xlink" x="0px" y="0px"
	 viewBox="0 0 30 30" style="enable-background:new 0 0 30 30;" xml:space="preserve">
<style type="text/css">
	.st0{fill:#FFFFFF;}
</style>
<path class="st0" d="M14.6,9.4c-2.9,0-5.2,2.3-5.2,5.2c0,2.9,2.3,5.2,5.2,5.2c2.9,0,5.2-2.3,5.2-5.2C19.8,11.7,17.5,9.4,14.6,9.4z
	 M14.6,18c-1.9,0-3.4-1.5-3.4-3.4c0-1.9,1.5-3.4,3.4-3.4s3.4,1.5,3.4,3.4C18,16.5,16.5,18,14.6,18z"/>
<path class="st0" d="M18.8,4.6c-1.9-0.1-6.5-0.1-8.3,0C8.8,4.6,7.4,5,6.2,6.2c-1.9,1.9-1.7,4.6-1.7,8.4c0,3.9-0.2,6.5,1.7,8.4
	c2,2,4.6,1.7,8.4,1.7c3.9,0,5.2,0,6.6-0.5c1.9-0.7,3.3-2.4,3.4-5.4c0.1-1.9,0.1-6.5,0-8.3C24.5,6.9,22.6,4.7,18.8,4.6z M21.7,21.7
	c-1.3,1.3-3,1.2-7.1,1.2c-4.2,0-5.9,0.1-7.1-1.2C6,20.3,6.3,18,6.3,14.6c0-4.7-0.5-8,4.2-8.2c1.1,0,1.4-0.1,4.1-0.1l0,0
	c4.5,0,8-0.5,8.2,4.2c0,1.1,0.1,1.4,0.1,4.1C22.9,18.8,23,20.5,21.7,21.7z"/>
<path class="st0" d="M20,10.4c0.7,0,1.2-0.5,1.2-1.2C21.2,8.5,20.7,8,20,8s-1.2,0.5-1.2,1.2C18.8,9.9,19.3,10.4,20,10.4z"/>
</svg>
