<svg width="180" height="180" viewBox="0 0 180 180" fill="none" xmlns="http://www.w3.org/2000/svg">
<path d="M90 21.2839V78.1439" stroke="white" stroke-width="5" stroke-miterlimit="10"/>
<path d="M90 0V12.4668" stroke="white" stroke-width="5" stroke-miterlimit="10"/>
<path d="M90 167.533V180" stroke="white" stroke-width="5" stroke-miterlimit="10"/>
<path d="M90 101.254V158.105" stroke="white" stroke-width="5" stroke-miterlimit="10"/>
<path d="M63.7002 26.5125L85.4598 79.0443" stroke="white" stroke-width="5" stroke-miterlimit="10"/>
<path d="M55.5613 6.84839L60.3307 18.3647" stroke="white" stroke-width="5" stroke-miterlimit="10"/>
<path d="M119.669 161.635L124.438 173.152" stroke="white" stroke-width="5" stroke-miterlimit="10"/>
<path d="M94.303 100.396L116.063 152.928" stroke="white" stroke-width="5" stroke-miterlimit="10"/>
<path d="M41.4141 41.4143L81.6149 81.6152" stroke="white" stroke-width="5" stroke-miterlimit="10"/>
<path d="M26.3591 26.3594L35.1767 35.1769" stroke="white" stroke-width="5" stroke-miterlimit="10"/>
<path d="M144.823 144.824L153.641 153.642" stroke="white" stroke-width="5" stroke-miterlimit="10"/>
<path d="M97.9519 97.9519L138.161 138.161" stroke="white" stroke-width="5" stroke-miterlimit="10"/>
<path d="M26.5117 63.7009L79.0435 85.4605" stroke="white" stroke-width="5" stroke-miterlimit="10"/>
<path d="M6.84839 55.5613L18.3647 60.3307" stroke="white" stroke-width="5" stroke-miterlimit="10"/>
<path d="M161.635 119.669L173.152 124.438" stroke="white" stroke-width="5" stroke-miterlimit="10"/>
<path d="M100.396 94.303L152.928 116.063" stroke="white" stroke-width="5" stroke-miterlimit="10"/>
<path d="M21.2839 90H78.1439" stroke="white" stroke-width="5" stroke-miterlimit="10"/>
<path d="M0 90H12.4668" stroke="white" stroke-width="5" stroke-miterlimit="10"/>
<path d="M167.534 90H180" stroke="white" stroke-width="5" stroke-miterlimit="10"/>
<path d="M101.253 90H158.105" stroke="white" stroke-width="5" stroke-miterlimit="10"/>
<path d="M26.5117 116.299L79.0435 94.5398" stroke="white" stroke-width="5" stroke-miterlimit="10"/>
<path d="M6.84839 124.438L18.3647 119.669" stroke="white" stroke-width="5" stroke-miterlimit="10"/>
<path d="M161.635 60.3307L173.152 55.5613" stroke="white" stroke-width="5" stroke-miterlimit="10"/>
<path d="M100.396 85.6978L152.928 63.9382" stroke="white" stroke-width="5" stroke-miterlimit="10"/>
<path d="M41.4141 138.594L81.6149 98.385" stroke="white" stroke-width="5" stroke-miterlimit="10"/>
<path d="M26.3591 153.642L35.1767 144.824" stroke="white" stroke-width="5" stroke-miterlimit="10"/>
<path d="M144.823 35.1769L153.641 26.3594" stroke="white" stroke-width="5" stroke-miterlimit="10"/>
<path d="M97.9519 82.048L138.161 41.8386" stroke="white" stroke-width="5" stroke-miterlimit="10"/>
<path d="M63.7002 153.488L85.4598 100.956" stroke="white" stroke-width="5" stroke-miterlimit="10"/>
<path d="M55.5613 173.152L60.3307 161.635" stroke="white" stroke-width="5" stroke-miterlimit="10"/>
<path d="M119.669 18.3647L124.438 6.84839" stroke="white" stroke-width="5" stroke-miterlimit="10"/>
<path d="M94.303 79.6034L116.063 27.0715" stroke="white" stroke-width="5" stroke-miterlimit="10"/>
</svg>
