<svg width="16" height="25" viewBox="0 0 16 25" fill="none" xmlns="http://www.w3.org/2000/svg">
<path d="M0.9 13.3502C0.9 16.5015 3.34033 19.2278 6.62664 19.839C6.05433 21.1783 4.68713 22.0638 3.12633 22.0638C2.53522 22.0638 2.04374 22.5136 2.04374 23.0819C2.04374 23.6502 2.53522 24.1 3.12633 24.1C5.8279 24.1 8.22186 22.353 8.89259 19.9089C12.4406 19.4906 15.1 16.709 15.1 13.3538V13.3537C15.098 10.7889 13.5774 7.93371 12.0403 5.69859C10.5004 3.45933 8.92922 1.82177 8.79913 1.68711C8.7991 1.68708 8.79907 1.68705 8.79904 1.68702L8.0721 0.930703L8.00019 0.855894L7.92809 0.93051L7.19704 1.68702L7.19703 1.68702C7.06757 1.82101 5.49606 3.45881 3.95627 5.69813C2.41969 7.93279 0.9 10.7871 0.9 13.3502ZM7.01741 12.4973H6.91741V12.5973V17.8225C4.69299 17.3544 3.06519 15.4809 3.06519 13.3502C3.06519 11.7007 3.90357 9.80081 4.95637 8.06938C5.97511 6.39397 7.18561 4.89061 8 3.94739C8.81439 4.89061 10.0249 6.39397 11.0436 8.06938C12.0964 9.80081 12.9348 11.7007 12.9348 13.3502C12.9348 15.4809 11.307 17.3544 9.08259 17.8225V12.5973V12.4973H8.98259L7.01741 12.4973Z" fill="#36563C" stroke="#36563C" stroke-width="0.2"/>
</svg>
