<svg width="201" height="230" viewBox="0 0 201 230" fill="none" xmlns="http://www.w3.org/2000/svg">
<mask id="mask0" style="mask-type:alpha" maskUnits="userSpaceOnUse" x="0" y="0" width="201" height="230">
<rect width="201" height="230" fill="#C4C4C4"/>
</mask>
<g mask="url(#mask0)">
<path d="M196.563 62.1883C188.55 50.6101 181.121 57.5323 177.966 63.4493C174.811 69.3663 167.779 82.9393 157.451 100.026C147.123 117.113 133.996 121.581 133.996 121.581C133.996 121.581 115.685 105.288 99.6796 94.1572C104.766 85.0207 115.948 29.8651 115.282 16.0812C114.832 6.56811 114.473 2.86073 106.821 1.5347C99.1695 0.208678 94.4448 7.84039 93.9567 12.9988C93.4686 18.1571 90.7494 33.8292 86.8 48.1876C82.8507 62.5461 76.7054 84.9862 73.9779 91.1706C70.1381 98.5652 66.5976 102.166 66.5976 102.166L46.7248 86.869C46.7248 86.869 40.6484 76.5571 25.8031 71.2223C8.04911 64.8351 -4.25712 82.8572 3.53157 85.4067C11.3202 87.9563 19.4952 97.5774 19.4952 97.5774C19.4952 97.5774 38.8595 129.141 42.2087 134.762C45.558 140.383 44.0154 148.081 47.4306 160.611C49.5037 168.535 52.0179 176.336 54.9613 183.978C57.684 191.49 54.4517 203.998 54.4517 203.998L20.2871 288.626C60.4709 334.105 108.433 300.822 108.433 300.822C108.433 300.822 115.473 243.596 123.13 223.596C130.787 203.596 134.555 200.912 140.914 194.033C147.273 187.154 156.429 169.295 161.117 159.28C165.804 149.265 173.301 121.728 178.807 112.323C184.313 102.918 203.478 72.1831 196.563 62.1883Z" fill="#FBD6A0"/>
<path d="M110.721 2.70926C106.554 1.04759 101.159 4.0829 99.8977 9.12678C98.6362 14.1707 97.4468 40.3155 92.233 59.0982C88.0328 74.2962 69.4982 122.128 62.5803 139.817C61.8598 141.678 61.8233 143.733 62.4773 145.617C63.1313 147.501 64.4332 149.09 66.1504 150.101C67.2153 150.732 68.4068 151.12 69.6393 151.236C70.8719 151.352 72.1151 151.194 73.2798 150.773C74.4446 150.352 75.502 149.678 76.3765 148.8C77.2511 147.922 77.921 146.861 78.3382 145.694C84.1988 129.357 95.9268 96.9723 99.8868 88.2792C105.799 75.2787 107.613 66.4755 110.691 51.6118C113.769 36.748 117.959 5.57703 110.721 2.70926Z" fill="#F8C27B"/>
<path d="M4.58224 76.924C4.58224 76.924 0.322402 81.5016 7.61406 84.2313C14.9057 86.961 19.6429 84.7663 30.5998 100.577C35.0938 107.073 40.116 116.771 44.4868 125.964C51.3921 140.534 73.6131 135.804 73.4566 119.682C73.4754 117.383 72.8749 115.122 71.7183 113.137C65.0456 101.894 52.7152 92.3007 48.055 88.913C46.8787 88.0532 45.8309 87.0298 44.9436 85.8735C42.0643 82.1588 34.3886 73.5788 23.3606 71.1765C9.14987 68.0804 4.58224 76.924 4.58224 76.924Z" fill="#F8C27B"/>
<path d="M192.767 57.9811C192.767 57.9811 186.368 58.4834 180.558 70.2823C174.748 82.0811 142.243 129.798 140.973 151.199C140.805 154.095 137.39 175.226 147.783 171.389C158.176 167.551 169.359 134.012 171.45 127.834C173.541 121.657 177.048 111.181 180.899 104.628C184.75 98.0756 193.735 85.9259 196.482 75.9829C198.514 68.7302 199.587 65.6193 192.767 57.9811Z" fill="#F8C27B"/>
<path d="M18.0849 289.009L52.6375 203.409C52.9688 202.176 55.535 191.108 53.1767 184.634L52.3158 182.292C49.7035 175.355 47.4602 168.284 45.5952 161.109C44.3162 156.225 43.4517 151.24 43.0113 146.209C42.5364 141.673 42.1642 138.395 40.5751 135.738C37.376 130.378 19.3265 100.948 17.9561 98.7067C17.0561 97.6767 9.70558 89.4298 2.94211 87.2234C2.04279 86.9659 1.23236 86.4643 0.600531 85.774C-0.0313001 85.0836 -0.459863 84.2315 -0.63773 83.3121C-1.25162 80.2397 0.707554 76.2224 4.34503 73.0797C10.2867 67.945 18.5492 66.5868 26.4853 69.4387C40.4733 74.467 46.9718 83.6802 48.1954 85.5855L66.3799 99.5732C68.654 96.7081 70.6367 93.6229 72.2985 90.3635C74.9113 84.3856 80.8044 62.9795 84.7055 48.7692L85.0048 47.6545C89.0391 32.9798 91.6564 17.4667 92.0981 12.796C92.6151 8.5102 94.7814 4.59425 98.1363 1.88074C99.4042 0.886956 100.868 0.173141 102.431 -0.213613C103.994 -0.600367 105.62 -0.651301 107.204 -0.363131C116.528 1.29326 116.803 6.79227 117.212 15.9551C117.86 29.3019 107.738 80.5121 102.125 93.4998C115.711 103.082 130.649 116.046 134.402 119.342C137.549 117.933 147.653 112.585 155.853 99.0121C165.112 83.6979 171.697 71.251 175.261 64.5705L176.332 62.5356C177.351 60.6309 181.134 54.3652 187.088 54.0062C191.034 53.7777 194.754 56.1586 198.166 61.0757C204.489 70.2165 193.361 91.5729 181.705 111.27C181.264 111.999 180.859 112.687 180.516 113.273C177.425 118.479 173.583 130.009 170.17 140.163C167.486 148.139 164.957 155.666 162.908 160.049C157.208 172.225 148.425 188.76 142.369 195.297C141.738 195.975 141.155 196.666 140.53 197.261C135.23 202.874 131.727 206.587 124.963 224.241C117.476 243.795 110.423 300.441 110.379 301.014L110.285 301.836L109.579 302.324C100.527 308.105 90.3759 311.943 79.7688 313.594C63.7714 316.079 40.2235 313.993 18.9075 289.823L18.0849 289.009ZM20.8164 96.2198L20.9215 96.3329L21.0937 96.5741C21.2884 96.8891 40.53 128.216 43.8188 133.778C45.8356 137.143 46.2399 140.964 46.7632 145.792C47.1814 150.623 48.0115 155.409 49.2445 160.098C51.0827 167.168 53.2915 174.136 55.8615 180.973L56.7224 183.315C59.6632 191.276 56.4084 203.93 56.264 204.468L56.2003 204.705L22.4758 288.23C38.4847 305.906 57.4939 313.198 78.9971 309.912C88.7921 308.347 98.1885 304.881 106.658 299.709C107.615 292.142 114.14 241.78 121.357 222.916C128.388 204.554 132.299 200.425 137.71 194.681C138.3 194.06 138.894 193.423 139.525 192.745C145.273 186.532 153.822 170.4 159.404 158.472C161.374 154.288 163.862 146.852 166.506 138.993C170.166 128.108 173.926 116.912 177.19 111.346L178.392 109.329C183.928 99.9998 200.779 71.6107 195 63.2516C192.401 59.502 189.801 57.6765 187.282 57.7883C184.108 57.9784 181.271 61.2598 179.611 64.2894L178.534 66.3142C174.978 73.0305 168.35 85.5422 159.079 100.93C148.511 118.436 135.176 123.111 134.616 123.308L133.564 123.661L132.736 122.93C132.561 122.764 114.322 106.583 98.5862 95.6436L97.1579 94.658L97.9853 93.1849C103.067 84.0641 113.976 29.3271 113.351 16.1137C112.895 6.49731 112.589 4.42292 106.465 3.36326C105.402 3.16562 104.308 3.19886 103.257 3.4608C102.207 3.72273 101.225 4.20724 100.378 4.88158C97.8581 6.94276 96.2259 9.89438 95.8188 13.1256C95.3789 17.9154 92.7046 33.7354 88.6009 48.6372L88.3015 49.7519C84.3606 64.0787 78.4018 85.7299 75.6886 91.8927L75.6567 92.0115C71.7328 99.5615 68.1025 103.308 67.9404 103.502L66.7708 104.705L45.2622 88.1544L45.0754 87.8416C45.0177 87.7414 39.1012 78.0316 25.1527 73.0139C15.3821 69.4913 8.65153 74.3803 6.82277 75.9574C3.98886 78.409 2.80015 81.1329 3.07989 82.5812C3.12587 82.8388 3.24979 83.076 3.43487 83.2606C3.61995 83.4452 3.85729 83.5686 4.11471 83.6137C11.9392 86.1559 19.814 95.0351 20.8164 96.2198Z" fill="#231916"/>
<path d="M87.4015 206.914L59.539 242.357C58.6284 243.513 57.8627 244.776 57.259 246.118L41.0705 282.094C40.0027 284.436 39.4483 286.979 39.4449 289.553C39.4415 292.126 39.9891 294.67 41.0507 297.013C42.1124 299.357 43.6634 301.444 45.5994 303.136C47.5354 304.828 49.8114 306.084 52.274 306.82C57.2738 308.276 62.4709 308.94 67.6768 308.787C86.7616 308.233 105.953 301.198 106.155 298.87L119.417 221.124C119.89 218.342 119.706 215.489 118.881 212.792C118.057 210.095 116.613 207.629 114.667 205.59C112.88 203.716 110.711 202.249 108.308 201.288C105.905 200.326 103.322 199.894 100.737 200.02C98.151 200.145 95.6221 200.826 93.3213 202.015C91.0205 203.205 89.0016 204.875 87.4015 206.914Z" fill="#F8C27B"/>
<path d="M93.1227 180.884C102.327 171.133 98.3729 157.805 98.3252 157.699L101.558 156.694C101.747 157.313 106.161 172.018 95.5719 183.237L93.1227 180.884Z" fill="#231916"/>
<path d="M60.9448 206.801C61.0173 206.774 61.0848 206.735 61.1451 206.686L59.2372 203.893C60.4719 203.046 72.8508 199.725 87.7149 210.38L85.7462 213.14C71.6125 203.012 61.0486 206.761 60.9448 206.801Z" fill="#231916"/>
<path d="M29.8547 92.1627C30.1467 91.8003 37.152 83.2723 47.0439 85.2084L46.3959 88.5354C38.524 86.9891 32.5453 94.2161 32.4846 94.2846L29.8547 92.1627Z" fill="#231916"/>
<path d="M81.2303 205.748L82.1489 202.486C82.6621 202.624 94.5743 206.052 103.088 215.925L103.587 216.525L100.984 218.683C93.1452 209.135 81.3487 205.78 81.2303 205.748Z" fill="#231916"/>
<path d="M117.832 175.306C114.37 171.314 112.486 166.192 112.532 160.904L115.914 161.109C115.933 165.509 117.521 169.756 120.392 173.086L117.832 175.306Z" fill="#231916"/>
<path d="M123.656 168.088C120.478 164.522 118.404 160.107 117.689 155.381L121.058 155.065L119.374 155.223L121.052 155.055C121.868 159.832 124.229 164.207 127.773 167.507L125.423 169.953C124.768 169.336 124.2 168.708 123.656 168.088Z" fill="#231916"/>
<path d="M61.3431 137.239L60.1559 134.063C78.25 127.301 78.2585 117.089 78.2699 116.669L81.683 116.568C81.6719 117.082 81.8872 129.55 61.3431 137.239Z" fill="#231916"/>
<path d="M171.633 92.0101C170.543 90.7643 169.698 89.3238 169.142 87.7639L172.34 86.6648C172.446 86.9645 174.981 93.9776 182.275 92.4441L182.97 95.7501C180.92 96.2569 178.768 96.1748 176.763 95.5133C174.758 94.8518 172.98 93.6376 171.633 92.0101Z" fill="#231916"/>
<path d="M94.0212 32.8683L93.7648 32.5621L96.4063 30.4487L95.0905 31.5026L96.4085 30.4408C96.5986 30.6784 101.37 36.427 107.704 32.5082L109.47 35.3899C102.606 39.6411 96.5225 35.7525 94.0212 32.8683Z" fill="#231916"/>
<path d="M102.068 16.6181C102.039 16.9431 101.915 17.2523 101.71 17.506C101.505 17.7598 101.229 17.9466 100.917 18.0424C100.606 18.1381 100.273 18.1386 99.9611 18.0436C99.6495 17.9486 99.3734 17.7624 99.1682 17.5091C98.963 17.2558 98.8382 16.9468 98.8097 16.6218C98.7811 16.2968 98.8502 15.9708 99.0081 15.6852C99.1659 15.3997 99.4053 15.168 99.6956 15.0195C99.9858 14.8711 100.314 14.8127 100.637 14.8521C101.058 14.9034 101.442 15.1162 101.709 15.4456C101.976 15.775 102.104 16.1954 102.068 16.6181Z" fill="#231916"/>
<path d="M108.869 17.3596C108.841 17.6846 108.716 17.994 108.511 18.2478C108.306 18.5016 108.03 18.6881 107.719 18.7839C107.407 18.8797 107.074 18.8802 106.762 18.7851C106.451 18.6901 106.175 18.5039 105.97 18.2506C105.764 17.9973 105.639 17.6885 105.611 17.3635C105.582 17.0385 105.652 16.7123 105.809 16.4268C105.967 16.1413 106.207 15.9095 106.497 15.7611C106.787 15.6126 107.115 15.5544 107.439 15.5938C107.859 15.6451 108.243 15.8577 108.51 16.1871C108.777 16.5165 108.906 16.9369 108.869 17.3596Z" fill="#231916"/>
<path d="M103.029 26.4971C104.312 26.619 105.591 26.2306 106.591 25.4158C107.591 24.6009 108.231 23.4252 108.372 22.1426L98.6854 21.1432C98.5605 22.4286 98.9464 23.7111 99.7593 24.7132C100.572 25.7153 101.747 26.3562 103.029 26.4971Z" fill="#231916"/>
<path d="M16.5119 76.9152C16.6873 77.0007 16.836 77.1325 16.9419 77.2966C17.0479 77.4606 17.107 77.6507 17.1129 77.846C17.1189 78.0414 17.0713 78.2346 16.9756 78.4049C16.8798 78.5753 16.7394 78.7161 16.5694 78.8124C16.185 79.1113 15.7257 79.2981 15.2421 79.3523C14.7586 79.4064 14.2696 79.3256 13.8291 79.1191C13.6537 79.0335 13.505 78.9017 13.3991 78.7376C13.2931 78.5736 13.234 78.3835 13.2281 78.1882C13.2221 77.9929 13.2697 77.7996 13.3654 77.6293C13.4612 77.459 13.6016 77.3181 13.7716 77.2218C14.156 76.9229 14.6153 76.7361 15.0989 76.682C15.5824 76.6279 16.0714 76.7086 16.5119 76.9152Z" fill="#231916"/>
<path d="M22.1754 72.2482C22.3509 72.3337 22.4996 72.4656 22.6056 72.6296C22.7115 72.7937 22.7705 72.9837 22.7765 73.1791C22.7824 73.3744 22.735 73.5677 22.6392 73.738C22.5434 73.9083 22.403 74.0492 22.2331 74.1455C21.8472 74.4447 21.3864 74.6314 20.9015 74.6852C20.4165 74.7389 19.9263 74.6575 19.4848 74.45C18.7526 74.0245 18.6943 73.1696 19.4351 72.5548C19.8191 72.2551 20.2784 72.0678 20.7622 72.0137C21.246 71.9596 21.7352 72.0407 22.1754 72.2482Z" fill="#231916"/>
<path d="M26.5748 80.389C28.8307 78.5451 28.7493 75.9802 26.4227 74.6518L18.2763 81.3136C20.6066 82.6599 24.3289 82.2271 26.5748 80.389Z" fill="#231916"/>
<path d="M180.59 70.2906C180.464 70.5914 180.251 70.8477 179.979 71.0268C179.706 71.2059 179.387 71.2995 179.061 71.2957C178.736 71.2919 178.419 71.1909 178.151 71.0054C177.883 70.82 177.677 70.5587 177.558 70.2551C177.44 69.9514 177.415 69.6191 177.486 69.3009C177.558 68.9827 177.722 68.6931 177.959 68.4691C178.196 68.245 178.494 68.097 178.815 68.0436C179.137 67.9903 179.466 68.0342 179.763 68.1697C180.148 68.3464 180.451 68.6666 180.605 69.0623C180.759 69.4581 180.754 69.8986 180.59 70.2906Z" fill="#231916"/>
<path d="M186.919 70.6769C186.793 70.9777 186.58 71.2342 186.308 71.4132C186.036 71.5923 185.716 71.6858 185.391 71.682C185.065 71.6781 184.748 71.5771 184.48 71.3917C184.212 71.2063 184.006 70.945 183.888 70.6413C183.769 70.3376 183.744 70.0055 183.816 69.6873C183.887 69.3691 184.052 69.0793 184.288 68.8553C184.525 68.6313 184.823 68.4832 185.145 68.4299C185.466 68.3765 185.796 68.4204 186.092 68.556C186.478 68.7327 186.78 69.0528 186.934 69.4486C187.089 69.8444 187.083 70.2848 186.919 70.6769Z" fill="#231916"/>
<path d="M181.602 78.9715C182.892 78.9485 184.121 78.4178 185.023 77.494C185.926 76.5702 186.429 75.3279 186.423 74.0362L176.683 74.1498C176.706 75.4396 177.234 76.6684 178.155 77.5706C179.075 78.4729 180.313 78.976 181.602 78.9715Z" fill="#231916"/>
<path d="M59.9906 191.949L61.7479 189.03L60.8732 190.49L61.74 189.028C62.0562 189.206 69.5641 193.494 79.2042 187.039L81.09 189.851C69.5956 197.538 60.383 192.19 59.9906 191.949Z" fill="#231916"/>
<path d="M128.108 86.644C128.108 86.644 125.05 77.1342 116.062 73.8474C105.098 69.8517 101.363 81.9956 101.363 81.9956L81.5922 132.759C81.5922 132.759 75.2065 146.387 86.0252 150.64C96.8439 154.894 101.494 142.529 103.345 138.788C105.196 135.047 128.108 86.644 128.108 86.644Z" fill="#FBD6A0"/>
<path d="M133.994 121.589C141.663 119.224 149.509 110.498 149.509 110.498C149.509 110.498 150.385 90.1522 140.198 83.8306C128.422 76.5228 121.758 89.1688 121.758 89.1688C121.758 89.1688 105.349 124.077 101.679 132.602C98.01 141.127 89.8938 155.715 102.582 159.783C115.27 163.852 120.052 151.658 120.052 151.658L141.221 105.992" fill="#FBD6A0"/>
<path d="M147.652 95.1906C147.652 95.1906 138.632 83.7997 132.411 86.7911C126.19 89.7825 114.723 121.322 114.723 121.322L98.8473 157.899C98.8473 157.899 106.854 162.38 112.643 159.544C118.433 156.708 126.661 137.421 132.179 125.51C135.204 118.973 138.197 119.556 138.197 119.556C138.197 119.556 147.212 114.637 149.551 108.797C149.86 107.931 148.728 100.828 147.652 95.1906Z" fill="#F8C27B"/>
<path d="M100.708 150.718L111.647 154.428C112.309 153.191 112.885 151.909 113.371 150.593C114.457 147.842 114.927 146.849 115.142 144.788C115.357 142.726 114.946 139.403 110.157 139.142C106.6 138.959 103.523 142.82 100.708 150.718Z" fill="white"/>
<path d="M99.0835 151.503L99.5195 150.289C102.607 141.599 106.019 137.624 110.211 137.902C112.39 138.013 114.052 138.697 115.106 139.972C115.65 140.668 116.045 141.469 116.267 142.324C116.488 143.18 116.532 144.072 116.395 144.946C116.173 146.783 115.66 148.575 114.877 150.252L114.542 151.086C114.034 152.462 113.431 153.801 112.738 155.094L112.211 155.986L99.0835 151.503ZM113.174 141.589C112.766 141.199 112.284 140.894 111.756 140.692C111.229 140.491 110.667 140.397 110.103 140.416C107.424 140.273 104.821 143.473 102.366 149.935L111.032 152.872C111.316 152.287 111.717 151.361 112.207 150.136L112.545 149.286C113.242 147.829 113.696 146.267 113.889 144.663C113.981 144.133 113.968 143.59 113.85 143.065C113.732 142.541 113.513 142.045 113.203 141.605L113.174 141.589Z" fill="#231916"/>
<path d="M125.128 86.0472C125.756 79.9262 115.769 74.8452 111.283 78.4381C106.796 82.031 95.5894 114.556 95.5894 114.556L82.8049 148.699C83.9679 149.991 85.4749 150.924 87.1492 151.389C88.8235 151.853 90.5957 151.831 92.2582 151.323C96.0055 150.261 97.1777 142.87 101.287 133.463C106.335 122.011 113.931 108.038 113.931 108.038L125.128 86.0472Z" fill="#F8C27B"/>
<path d="M82.6149 142.977L92.3342 145.587C92.3342 145.587 92.6674 144.694 93.5713 142.147C94.3189 140.026 94.6404 138.671 95.1804 136.849C95.6051 135.268 95.0898 131.671 90.6368 131.704C87.3983 131.691 85.1761 135.773 82.6149 142.977Z" fill="white"/>
<path d="M80.9571 143.854L81.4165 142.554C84.0778 135.071 86.5519 130.429 90.6083 130.391C93.3296 130.376 94.785 131.513 95.507 132.513C95.9889 133.175 96.3173 133.937 96.4683 134.743C96.6194 135.549 96.5893 136.379 96.3804 137.172C96.2423 137.686 96.115 138.16 95.9897 138.627C95.6627 139.844 95.3527 140.998 94.7701 142.537C93.8699 145.101 93.5344 146.003 93.5344 146.003L93.1345 147.082L80.9571 143.854ZM93.4037 133.914C93.0444 133.56 92.6118 133.289 92.1365 133.12C91.6611 132.952 91.1545 132.889 90.6524 132.938C88.5657 132.954 86.6878 135.628 84.2804 142.102L91.5442 144.053C91.7402 143.512 92.0135 142.746 92.3707 141.732C92.8947 140.254 93.2099 139.143 93.54 137.977C93.6674 137.503 93.7969 137.021 93.9392 136.491C94.0357 136.078 94.0438 135.649 93.963 135.233C93.8822 134.817 93.7142 134.423 93.4702 134.076L93.4037 133.914Z" fill="#231916"/>
<path d="M90.7506 119.24L90.677 116.678C91.07 116.664 100.309 116.399 104.502 121.747L102.512 123.323C99.1076 119.044 90.8202 119.234 90.7506 119.24Z" fill="#231916"/>
<path d="M110.445 127.132L110.372 124.569C110.808 124.551 121.12 124.294 125.787 130.21L123.797 131.786C119.913 126.895 110.532 127.155 110.445 127.132Z" fill="#231916"/>
<path d="M80.707 149.009C79.9433 148.121 79.3331 147.112 78.9017 146.023C76.538 140.074 79.6842 132.866 80.035 132.095L99.7659 81.4483C99.9613 80.721 101.993 74.9852 106.987 72.4951C109.858 71.0708 113.104 70.9933 116.635 72.2807C126.472 75.872 127.631 83.6595 127.679 83.986L127.751 84.5056L127.515 84.9762C127.241 85.5216 100.171 139.512 98.4331 143.208C98.0847 144.091 97.8376 145.012 97.6963 145.951C97.2093 148.363 96.5968 151.369 94.0173 152.779C91.9583 153.921 89.1515 153.718 85.3995 152.244C83.5963 151.563 81.986 150.452 80.707 149.009ZM121.887 79.6755C120.16 77.7236 117.955 76.2551 115.489 75.4142C112.874 74.4661 110.526 74.4797 108.515 75.4739C104.609 77.4088 103.001 82.4189 102.981 82.4642L102.949 82.583L83.1327 133.453C83.1157 133.516 80.1553 139.969 82.0617 144.753C82.4767 145.756 83.1014 146.658 83.8939 147.398C84.6864 148.139 85.6284 148.701 86.6562 149.047C89.3447 150.099 91.3334 150.354 92.3954 149.74C93.4574 149.127 93.9966 147.119 94.3878 145.19C94.5779 143.975 94.9139 142.787 95.3887 141.652C97.0979 138.093 121.254 89.8474 124.234 83.8916C123.778 82.3275 122.976 80.8864 121.887 79.6755Z" fill="#231916"/>
<path d="M96.2955 157.849C95.6581 157.112 95.1389 156.281 94.7565 155.384C91.9904 148.979 96.1326 140.301 99.4633 133.321L100.143 131.892C104.079 123.54 120.81 90.7788 121.676 89.0959C122.018 88.2638 124.636 82.3296 130.159 80.4898C133.542 79.3642 137.222 80.0048 141.088 82.408C151.971 89.1624 151.234 109.715 151.204 110.555L151.175 111.166L150.766 111.615C150.448 111.979 143.001 120.168 135.235 122.923L121.609 152.322C119.728 157.056 113.259 164.973 102.066 161.391C99.852 160.767 97.8548 159.541 96.2955 157.849ZM141.994 87.6099C141.218 86.7032 140.31 85.9192 139.3 85.2844C136.332 83.4447 133.622 82.9119 131.26 83.7015C126.975 85.0938 124.829 90.3748 124.802 90.4438L124.759 90.6021C124.583 90.9446 107.254 124.893 103.24 133.377L102.558 134.813C99.6912 140.824 95.7448 149.089 97.9014 154.076C98.7321 155.994 100.408 157.351 103.129 158.218C114.12 161.737 118.344 151.522 118.521 151.086L118.546 150.991L139.677 105.314L142.747 106.741L137.417 118.236C141.243 115.919 144.743 113.098 147.821 109.85C147.861 106.894 147.651 94.1559 141.994 87.6099Z" fill="#231916"/>
</g>
</svg>
