<svg width="193" height="40" viewBox="0 0 193 40" fill="none" xmlns="http://www.w3.org/2000/svg">
<path d="M57.954 14.724C57.774 13.95 57.378 12.78 57.018 11.862L55.722 12.204C56.064 13.122 56.442 14.346 56.586 15.12L57.954 14.724ZM64.254 15.336H49.8V16.65H64.254V15.336ZM55.398 25.164C55.074 23.094 54.318 20.034 53.616 17.622L52.284 17.946C52.968 20.304 53.724 23.454 53.976 25.506L55.398 25.164ZM59.178 26.28C60.096 24.012 61.176 20.592 61.914 17.91L60.402 17.622C59.826 20.25 58.71 23.976 57.738 26.28H49.026V27.612H64.974V26.28H59.178ZM75.342 14.094V16.434H71.13V14.094H75.342ZM71.13 20.124V17.64H75.342V20.124H71.13ZM73.506 22.788C73.83 23.346 74.208 23.994 74.55 24.624L71.13 25.74V21.33H76.656V12.888H69.798V25.344C69.798 26.028 69.348 26.334 69.042 26.478C69.258 26.82 69.51 27.468 69.6 27.846C69.978 27.558 70.572 27.306 75.108 25.704C75.45 26.37 75.738 27.018 75.936 27.504L77.142 26.838C76.638 25.65 75.558 23.706 74.64 22.248L73.506 22.788ZM84.198 12.996H78.312V28.386H79.626V14.256H82.884V23.292C82.884 23.544 82.794 23.616 82.542 23.616C82.308 23.634 81.48 23.634 80.544 23.598C80.742 23.976 80.886 24.516 80.94 24.876C82.254 24.894 83.064 24.876 83.55 24.642C84.036 24.426 84.198 24.048 84.198 23.292V12.996ZM96.42 15.318H92.442C92.46 14.292 92.478 13.248 92.478 12.186H91.164C91.164 13.248 91.164 14.292 91.146 15.318H88.626V16.632H91.11C90.966 21.132 90.426 25.11 88.194 27.468C88.518 27.666 89.004 28.098 89.202 28.386C91.632 25.758 92.244 21.456 92.406 16.632H95.124C94.998 23.526 94.836 25.974 94.422 26.478C94.296 26.73 94.116 26.784 93.828 26.766C93.504 26.766 92.73 26.766 91.902 26.694C92.136 27.072 92.262 27.648 92.298 28.044C93.09 28.098 93.918 28.098 94.404 28.026C94.944 27.972 95.268 27.81 95.592 27.342C96.15 26.568 96.276 23.958 96.42 16.002V15.318ZM99.156 25.506V15.462H102.648V25.506H99.156ZM97.896 14.166V28.098H99.156V26.784H102.648V27.972H103.98V14.166H97.896ZM111.54 13.032V14.364H115.968C116.004 15.048 116.076 15.84 116.202 16.668L115.41 16.542C114.312 21.582 112.098 25.2 108.12 27.27C108.48 27.504 109.074 28.062 109.326 28.332C112.908 26.226 115.176 22.95 116.508 18.288C117.318 21.69 119.226 25.632 123.654 28.314C123.888 27.99 124.428 27.414 124.734 27.198C117.678 23.004 117.264 16.218 117.264 13.032H111.54ZM133.212 17.064C133.176 18.81 132.942 20.898 131.952 22.95C131.268 22.356 130.548 21.798 129.864 21.276C130.17 20.106 130.512 18.666 130.8 17.208L133.212 17.064ZM135.516 16.92L135.534 15.696L134.49 15.75V14.508H133.23V15.822L131.034 15.948C131.268 14.616 131.484 13.266 131.628 12.06L130.314 11.988C130.188 13.212 129.99 14.634 129.738 16.002C129.072 16.02 128.46 16.056 127.938 16.074L128.082 17.352L129.504 17.28C129.144 18.954 128.766 20.556 128.406 21.726C129.324 22.428 130.35 23.256 131.304 24.102C130.548 25.29 129.486 26.46 128.01 27.504C128.28 27.702 128.748 28.134 128.946 28.422C130.404 27.36 131.502 26.19 132.294 24.984C133.122 25.758 133.86 26.496 134.364 27.108L135.246 25.992C134.706 25.362 133.878 24.606 132.978 23.814C134.166 21.438 134.436 19.008 134.49 16.992L135.516 16.92ZM144.408 19.53H140.448V17.802C141.708 16.704 142.986 15.192 143.868 13.86L142.95 13.194L142.644 13.266H135.732V14.508H141.726C140.988 15.552 140.016 16.722 139.098 17.478V19.53H134.94V20.808H139.098V26.784C139.098 27.036 138.99 27.126 138.702 27.126C138.432 27.144 137.442 27.144 136.38 27.108C136.578 27.486 136.794 28.008 136.866 28.386C138.27 28.404 139.134 28.368 139.692 28.17C140.25 27.954 140.448 27.576 140.448 26.784V20.808H144.408V19.53ZM160.068 19.89C159.438 21.6 158.43 22.986 157.206 24.12C155.838 22.968 154.794 21.546 154.074 19.89H160.068ZM160.914 18.54L160.698 18.612H153.642C153.84 17.784 153.966 16.974 154.074 16.236H163.74V14.94H154.236C154.398 13.572 154.434 12.492 154.47 11.934H153.084C153.084 12.42 153.048 13.518 152.886 14.94H148.314V16.236H152.724C152.22 19.692 150.96 24.3 147.72 26.892C148.134 27.144 148.602 27.468 148.872 27.81C151.014 25.974 152.328 23.292 153.12 20.646C153.894 22.32 154.92 23.778 156.198 24.93C154.686 26.028 152.94 26.802 151.086 27.27C151.374 27.522 151.68 28.044 151.842 28.386C153.822 27.828 155.658 27 157.26 25.794C158.916 27.018 160.914 27.882 163.344 28.368C163.506 28.008 163.884 27.45 164.19 27.18C161.868 26.748 159.906 26.01 158.286 24.93C159.888 23.454 161.13 21.492 161.832 18.954L160.914 18.54Z" fill="white"/>
<path d="M27.5 10C21.7119 10 17 13.8244 17 18.5246C17 22.7342 20.7362 26.2613 25.7806 26.9317C26.1227 27.0039 26.5883 27.1578 26.7064 27.4483C26.8114 27.7117 26.7755 28.1187 26.7396 28.3935L26.5961 29.2857C26.5567 29.5492 26.3861 30.3231 27.514 29.8501C28.6436 29.3787 33.5655 26.2813 35.7705 23.7464C37.279 22.0942 38 20.4011 38 18.5246C38 13.8244 33.2881 10 27.5 10ZM23.3901 21.3194H21.3024C21.0005 21.3194 20.7511 21.0698 20.7511 20.769V16.5941C20.7511 16.2923 21.0005 16.0428 21.3024 16.0428C21.6069 16.0428 21.8536 16.2923 21.8536 16.5941V20.2176H23.3901C23.6946 20.2176 23.9405 20.4655 23.9405 20.769C23.9405 21.0698 23.6937 21.3194 23.3901 21.3194ZM25.5479 20.769C25.5479 21.0698 25.3011 21.3194 24.9957 21.3194C24.6939 21.3194 24.4471 21.0698 24.4471 20.769V16.5941C24.4471 16.2923 24.6939 16.0428 24.9984 16.0428C25.3011 16.0428 25.5479 16.2923 25.5479 16.5941V20.769ZM30.5712 20.769C30.5712 21.0055 30.419 21.2151 30.1932 21.2907C30.1372 21.309 30.0769 21.3177 30.0191 21.3177C29.8345 21.3177 29.677 21.2385 29.5729 21.0985L27.4352 18.1959V20.7681C27.4352 21.069 27.1911 21.3185 26.8831 21.3185C26.5804 21.3185 26.3354 21.069 26.3354 20.7681V16.5941C26.3354 16.3575 26.4867 16.148 26.7116 16.0732C26.7641 16.0532 26.8306 16.0445 26.8814 16.0445C27.052 16.0445 27.2095 16.1358 27.3145 16.2671L29.4688 19.1811V16.5941C29.4688 16.2923 29.7155 16.0428 30.02 16.0428C30.3219 16.0428 30.5712 16.2923 30.5712 16.5941V20.769ZM33.9444 18.1298C34.2497 18.1298 34.4956 18.3793 34.4956 18.682C34.4956 18.9837 34.2497 19.2333 33.9444 19.2333H32.4088V20.2176H33.9444C34.2497 20.2176 34.4956 20.4655 34.4956 20.769C34.4956 21.0698 34.2497 21.3194 33.9444 21.3194H31.8566C31.5547 21.3194 31.308 21.0698 31.308 20.769V16.5941C31.308 16.2923 31.5548 16.0428 31.8593 16.0428H33.947C34.2498 16.0428 34.4956 16.2923 34.4956 16.5941C34.4956 16.8993 34.2497 17.1454 33.9444 17.1454H32.4088V18.1298H33.9444Z" fill="white"/>
<rect x="1" y="1.5" width="191" height="37" rx="18.5" stroke="white" stroke-width="2"/>
<path d="M172.993 23.5567L174.212 23.8774L176.602 15.7376L177.189 13.7414L175.39 13.2681L174.919 15.2948L172.993 23.5567ZM172.402 28.2404C173.118 28.4288 173.821 28.0348 174.03 27.2418C174.243 26.4294 173.83 25.7209 173.114 25.5326C172.418 25.3494 171.69 25.7576 171.477 26.57C171.268 27.363 171.706 28.0572 172.402 28.2404Z" fill="white"/>
</svg>
