<svg width="41" height="43" viewBox="0 0 41 43" fill="none" xmlns="http://www.w3.org/2000/svg">
<path d="M36.6236 0.130025C34.7272 0.166333 33.2011 1.71496 33.2011 3.62002V14.9845H33.1635C32.9164 13.2987 31.4648 12.0043 29.7104 12.0043C27.9561 12.0043 26.5044 13.2987 26.2573 14.9845H26.1822C25.9351 13.2987 24.4835 12.0043 22.7291 12.0043C20.9748 12.0043 19.5231 13.2987 19.276 14.9845H19.2385V3.68898C19.2385 1.73166 17.6367 0.0925531 15.6797 0.130025C13.7833 0.166333 12.2571 1.71496 12.2571 3.62002L12.2922 23.1499C9.75901 20.6168 6.79037 17.6481 6.79037 17.6481C5.4272 16.285 3.21705 16.285 1.85387 17.6481C0.490687 19.0113 0.490687 21.2215 1.85387 22.5846L6.87363 27.6044C9.78103 30.5118 12.5092 33.6002 14.9312 36.9229C17.4548 40.385 21.5315 42.6422 26.1375 42.6688C33.8622 42.7134 40.1826 36.2998 40.1826 28.5751V3.68898C40.1823 1.73166 38.5805 0.0925531 36.6236 0.130025Z" fill="#FBD6A0"/>
<path d="M38.9777 1.42627C38.1023 0.567422 36.9539 0.105967 35.7468 0.130311C34.5544 0.153076 33.4372 0.634638 32.601 1.4861C31.7636 2.3388 31.3024 3.4666 31.3024 4.66186V11.7956C30.6888 11.485 29.996 11.3087 29.2625 11.3087C27.9698 11.3087 26.8028 11.8535 25.9763 12.7245C25.1498 11.8535 23.9828 11.3087 22.6902 11.3087C21.9566 11.3087 21.2639 11.4849 20.6503 11.7956V4.72675C20.6503 3.49551 20.1439 2.29244 19.2608 1.42619C18.3855 0.567422 17.2394 0.107379 16.03 0.130311C14.8376 0.153076 13.7204 0.634555 12.8842 1.4861C12.0467 2.33872 11.5855 3.4666 11.5855 4.6641L11.6132 20.0332L8.56667 16.9867C6.79945 15.2195 3.92412 15.2196 2.1569 16.9867C0.389676 18.7539 0.389676 21.6293 2.1569 23.3965L6.88254 28.1221C9.79293 31.0325 12.233 33.8539 14.3421 36.7474C15.642 38.5307 17.3602 40.0133 19.3107 41.0347C21.3268 42.0905 23.6024 42.6555 25.8916 42.6688C25.9195 42.6689 25.9471 42.669 25.975 42.669C29.7563 42.6689 33.3334 41.1817 36.055 38.4757C38.8358 35.7111 40.3671 32.0455 40.3671 28.1545V4.72675C40.3671 3.49551 39.8606 2.29244 38.9777 1.42627ZM37.8746 28.1546C37.8746 31.3772 36.6043 34.4148 34.2976 36.7082C32.0299 38.9628 29.0504 40.1936 25.906 40.1764C23.9859 40.1653 22.1558 39.7112 20.467 38.8268C18.8535 37.9819 17.432 36.7552 16.3562 35.2793C14.1701 32.2802 11.6477 29.3626 8.64494 26.3597L3.9193 21.6342C3.12401 20.8388 3.12401 19.5448 3.9193 18.7494C4.71476 17.954 6.00873 17.9541 6.8041 18.7494L14.1164 26.0617L14.078 4.66203C14.078 3.55857 14.975 2.64364 16.0777 2.62253C16.609 2.61198 17.1215 2.81936 17.5153 3.20563C17.9236 3.60618 18.1577 4.16069 18.1577 4.72692V21.484H20.6503V15.8411C20.6503 14.7163 21.5654 13.8013 22.6902 13.8013C23.8149 13.8013 24.73 14.7164 24.73 15.8411V21.484H27.2225V15.8411C27.2225 14.7163 28.1376 13.8013 29.2625 13.8013C30.3873 13.8013 31.3024 14.7164 31.3024 15.8411V21.484H33.7949V4.66186C33.7949 3.55841 34.6919 2.64347 35.7944 2.62237C36.3303 2.61182 36.8384 2.81928 37.2322 3.20554C37.6404 3.6061 37.8746 4.16053 37.8746 4.72683V28.1546Z" fill="black"/>
</svg>
