<svg width="28" height="37" viewBox="0 0 28 37" fill="none" xmlns="http://www.w3.org/2000/svg">
<path d="M12.6927 36.3457C12.8446 36.5492 13.04 36.7141 13.2638 36.8275C13.4875 36.941 13.7336 37 13.983 37C14.2324 37 14.4785 36.941 14.7022 36.8275C14.9259 36.7141 15.1213 36.5492 15.2732 36.3457L25.1111 23.1701C26.7004 21.0366 27.678 18.4881 27.9331 15.8127C28.1882 13.1374 27.7107 10.4419 26.5547 8.03121C25.3987 5.62051 23.6102 3.59074 21.3915 2.17146C19.1728 0.752174 16.6125 0 14 0C11.3875 0 8.82718 0.752174 6.6085 2.17146C4.38981 3.59074 2.60132 5.62051 1.44529 8.03121C0.289257 10.4419 -0.188198 13.1374 0.0669225 15.8127C0.322043 18.4881 1.29956 21.0366 2.88892 23.1701L12.6927 36.3457Z" fill="#36563C"/>
<circle cx="14" cy="14" r="7" fill="white"/>
</svg>
