<svg width="82" height="73" viewBox="0 0 82 73" fill="none" xmlns="http://www.w3.org/2000/svg">
<path d="M16.67 5.888L16.202 6.014H3.71V8.12H14.096C12.908 9.182 11.36 10.334 9.956 11.072V19.046C9.956 19.352 9.812 19.46 9.416 19.46C9.02 19.46 7.544 19.478 6.266 19.424C6.608 20 7.022 20.954 7.13 21.584C8.858 21.602 10.136 21.548 11.036 21.224C11.918 20.9 12.206 20.324 12.206 19.1V12.152C14.456 10.82 16.742 8.912 18.398 7.148L16.67 5.888ZM30.53 10.838C30.872 11.198 31.232 11.702 31.394 12.062C31.52 12.008 31.646 11.936 31.772 11.882C31.556 13.16 31.124 14.456 30.53 15.392V10.838ZM27.758 15.284V13.79H28.784V15.284H27.758ZM25.328 13.79H26.336V15.284H25.31C25.328 14.87 25.328 14.474 25.328 14.096V13.79ZM27.218 8.048C27.056 8.498 26.894 8.966 26.714 9.362H25.166C25.382 8.948 25.58 8.498 25.778 8.048H27.218ZM27.758 10.928H28.784V12.278H27.758V10.928ZM25.328 10.928H26.336V12.278H25.328V10.928ZM39.242 16.688H36.182V15.068H38.882V13.268H36.182V11.648H34.148V13.268H33.266C33.374 12.89 33.446 12.494 33.518 12.116L31.916 11.792C33.752 10.784 34.436 9.29 34.742 7.418H36.83C36.758 8.912 36.668 9.524 36.506 9.722C36.38 9.884 36.236 9.92 36.02 9.92C35.768 9.92 35.282 9.902 34.724 9.848C34.994 10.298 35.174 11.018 35.21 11.576C35.93 11.594 36.632 11.576 37.028 11.522C37.478 11.45 37.82 11.306 38.126 10.928C38.504 10.46 38.666 9.218 38.756 6.356C38.774 6.122 38.792 5.672 38.792 5.672H30.8V7.418H32.816C32.564 8.732 32.024 9.776 30.53 10.46V9.362H28.514C28.892 8.624 29.252 7.796 29.504 7.094L28.28 6.338L28.01 6.428H26.372C26.516 6.014 26.642 5.582 26.75 5.15L24.86 4.754C24.374 6.86 23.42 8.966 22.196 10.28C22.574 10.532 23.24 11.072 23.6 11.432V14.096C23.6 16.112 23.51 18.794 22.304 20.648C22.7 20.828 23.474 21.314 23.78 21.602C24.608 20.306 25.022 18.56 25.202 16.868H28.784V19.46C28.784 19.694 28.694 19.766 28.478 19.766C28.262 19.766 27.56 19.766 26.84 19.73C27.11 20.216 27.398 21.026 27.452 21.548C28.55 21.548 29.288 21.494 29.846 21.188C30.386 20.882 30.53 20.342 30.53 19.496V15.698C30.98 15.896 31.628 16.238 31.934 16.454C32.204 16.058 32.438 15.59 32.654 15.068H34.148V16.688H30.818V18.524H34.148V21.494H36.182V18.524H39.242V16.688ZM49.268 15.932C49.052 16.508 48.746 17.012 48.224 17.498C47.558 17.084 47 16.58 46.478 15.932H49.268ZM46.298 13.016H49.61V13.592C49.61 13.79 49.61 13.988 49.592 14.186H46.298V13.016ZM46.298 10.262H49.61V11.414H46.298V10.262ZM55.244 10.262V11.414H51.86V10.262H55.244ZM55.244 14.186H51.842C51.86 13.988 51.86 13.79 51.86 13.61V13.016H55.244V14.186ZM57.368 15.932V8.534H51.86V7.472H58.484V5.564H42.716V7.472H49.61V8.534H44.282V15.932H46.19L44.552 16.598C45.092 17.39 45.704 18.074 46.406 18.614C45.38 19.046 44.066 19.406 42.338 19.676C42.806 20.18 43.382 21.08 43.634 21.584C45.722 21.17 47.306 20.576 48.512 19.892C51.086 21.026 54.398 21.296 58.304 21.386C58.43 20.648 58.826 19.748 59.222 19.262C55.568 19.28 52.616 19.208 50.276 18.434C50.942 17.696 51.356 16.832 51.59 15.932H57.368ZM75.332 14.402C74.684 15.374 73.856 16.184 72.848 16.85C72.2 16.256 71.12 15.554 70.148 15.014C70.49 14.816 70.796 14.618 71.102 14.402H75.332ZM72.812 7.868C72.128 8.624 71.3 9.308 70.328 9.902C69.734 9.398 68.744 8.804 67.844 8.336C68.078 8.174 68.294 8.03 68.51 7.868H72.812ZM76.88 12.53L76.52 12.62H73.298C73.694 12.242 74.072 11.846 74.414 11.432L72.254 10.928C73.784 9.812 75.08 8.462 75.962 6.806L74.594 6.014L74.234 6.104H70.634C70.94 5.798 71.228 5.492 71.498 5.186L69.176 4.7C67.934 6.176 65.72 7.688 62.534 8.696C63.002 9.056 63.668 9.794 63.974 10.28C64.712 9.992 65.396 9.686 66.044 9.344C66.872 9.794 67.79 10.388 68.456 10.892C66.602 11.738 64.496 12.332 62.39 12.674C62.768 13.142 63.182 13.97 63.38 14.51C66.368 13.916 69.32 12.872 71.732 11.288C70.292 12.854 67.844 14.402 64.388 15.446C64.838 15.806 65.45 16.598 65.702 17.102C66.62 16.778 67.484 16.418 68.276 16.022C69.176 16.562 70.238 17.3 70.922 17.912C68.906 18.812 66.494 19.352 63.902 19.622C64.226 20.126 64.64 20.99 64.802 21.584C70.976 20.738 76.142 18.614 78.32 13.268L76.88 12.53Z" fill="#FFE872"/>
<g clip-path="url(#clip0)">
<path d="M2.523 49.9389C1.99083 50.7245 1.94478 51.6231 2.96306 52.9171C3.92506 54.134 4.59027 54.1597 5.11221 53.7438C5.68019 53.2919 5.71601 52.686 4.7182 50.8221C3.0654 47.7258 3.60269 46.514 4.70796 45.6308C6.35052 44.3266 8.35127 45.1584 9.80962 47.0018C11.9127 49.6616 11.0479 51.541 10.1627 52.3882L8.66852 50.4986C8.9909 50.0621 9.3235 49.3638 8.31545 48.0852C7.6093 47.1918 6.94921 46.9761 6.41192 47.4023C5.94628 47.772 5.95651 48.2855 6.83664 49.9543C8.60712 53.3484 8.03401 54.5602 6.84687 55.505C5.42946 56.6347 3.43894 56.4909 1.38191 53.8824C-0.536968 51.4588 -0.26065 49.4614 1.02372 48.0442L2.523 49.9389Z" fill="#FFE872"/>
<path d="M16.5995 61.688L12.1938 58.3504L10.761 60.2503L15.658 63.9576L14.2099 65.4159L7.61917 60.4249L13.9182 52.0654L20.4731 57.0308L19.2501 58.6585L14.609 55.1463L13.4219 56.7278L17.8276 60.0654L16.5995 61.688Z" fill="#FFE872"/>
<path d="M27.1099 66.5609L22.0133 64.43L21.0974 66.6277L26.7619 68.9948L25.718 70.7715L18.0937 67.5828L22.1157 57.9088L29.6991 61.0821L28.9162 62.9666L23.5484 60.7227L22.7911 62.5507L27.8877 64.6816L27.1099 66.5609Z" fill="#FFE872"/>
<path d="M44.3491 68.9691C44.3542 67.1668 44.3746 65.2772 44.436 64.1168H44.4207C43.9243 66.0526 42.9726 69.1283 41.7906 72.9794L39.6823 72.9743C38.7971 69.5904 37.7532 66.0885 37.2415 64.1065H37.2262C37.2927 65.3132 37.3848 67.3517 37.3797 69.1386L37.3643 72.964L35.1999 72.9589L35.2357 62.4788L38.705 62.489C39.6772 65.7394 40.5829 68.584 40.8695 70.0269H40.8848C41.3096 68.3632 42.2204 65.611 43.1875 62.4993L46.6824 62.5096L46.6466 72.9897L44.3286 72.9845L44.3491 68.9691Z" fill="#FFE872"/>
<path d="M60.1248 63.7934C61.0305 66.5661 60.0992 69.6008 56.681 70.7202C53.4931 71.7677 50.9244 70.0578 49.9726 67.1412C49.0772 64.3941 50.208 61.3441 53.401 60.2966C56.681 59.2234 59.2395 61.0771 60.1248 63.7934ZM52.3674 66.3299C52.9814 68.2093 54.3579 69.4057 56.2 68.7998C58.0831 68.1836 58.2622 66.2427 57.73 64.6149C57.1569 62.8588 55.8418 61.5854 53.9486 62.2067C52.1167 62.8075 51.8148 64.6457 52.3674 66.3299Z" fill="#FFE872"/>
<path d="M65.5744 61.9396L67.831 65.2824L65.8661 66.6174L60.0071 57.9396L64.4589 54.9152C66.3522 53.6264 68.1022 53.878 69.1102 55.3722C69.8676 56.4916 69.6936 57.5648 69.0642 58.3915C69.4991 58.3093 70.6044 58.0629 71.6534 59.6136L71.9451 60.0449C72.3544 60.6508 72.8047 61.3132 73.1834 61.6521L71.1468 63.0333C70.7477 62.7458 70.3895 62.2374 69.7703 61.3235L69.5708 61.0256C68.9823 60.1527 68.4348 59.9987 67.2374 60.81L65.5744 61.9396ZM64.4998 60.3478L66.5466 58.9563C67.5137 58.2991 67.6775 57.6469 67.1914 56.9178C66.7257 56.2297 66.0349 56.1373 65.0934 56.7792L63.0364 58.1758L64.4998 60.3478Z" fill="#FFE872"/>
<path d="M78.4488 49.5596L74.8362 53.7445L76.6322 55.3055L80.6491 50.6482L82 52.1989L76.5913 58.4633L68.6958 51.5981L74.0737 45.3645L75.6088 46.6995L71.8018 51.1103L73.296 52.4094L76.9086 48.2194L78.4488 49.5596Z" fill="#FFE872"/>
</g>
<path d="M54.0673 41.5739L54.1483 41.5002L54.0675 41.4263L53.2124 40.643L53.2124 40.643C53.0611 40.5044 51.2102 38.8212 48.6796 37.1719C46.1534 35.5255 42.9304 33.9 40.039 33.9C36.4834 33.9 33.4004 36.5137 32.7144 40.0414C31.1842 39.4299 30.1757 37.9564 30.1757 36.2782C30.1757 35.6432 29.6673 35.1254 29.0378 35.1254C28.4084 35.1254 27.9 35.6432 27.9 36.2782C27.9 39.1763 29.8788 41.7381 32.6373 42.4518C33.1083 46.2563 36.2523 49.1 40.0348 49.1L40.0349 49.1C42.9284 49.0979 46.1523 47.4713 48.6791 45.8244C51.2102 44.1746 53.0611 42.4914 53.2124 42.3528L54.0673 41.5739ZM40.99 40.4472L40.99 40.3472L40.89 40.3472L34.9686 40.3472C35.495 37.9602 37.6169 36.2056 40.039 36.2056C41.9088 36.2056 44.0598 37.1059 46.0173 38.2341C47.9149 39.3276 49.617 40.6272 50.6832 41.5C49.617 42.3728 47.9149 43.6724 46.0173 44.7659C44.0598 45.8941 41.9088 46.7944 40.039 46.7944C37.6169 46.7944 35.495 45.0398 34.9686 42.6528L40.89 42.6528L40.99 42.6528L40.99 42.5528L40.99 40.4472Z" fill="#FFE872" stroke="#FFE872" stroke-width="0.2"/>
<defs>
<clipPath id="clip0">
<rect width="82" height="28" fill="white" transform="translate(0 45)"/>
</clipPath>
</defs>
</svg>
