<svg width="82" height="74" viewBox="0 0 82 74" fill="none" xmlns="http://www.w3.org/2000/svg">
<path d="M16.6701 6.2586L16.2021 6.38461H3.71012V8.4906H14.0961C12.9081 9.55261 11.3601 10.7046 9.95612 11.4426V19.4166C9.95612 19.7226 9.81212 19.8306 9.41612 19.8306C9.02012 19.8306 7.54412 19.8486 6.26612 19.7946C6.60812 20.3706 7.02212 21.3246 7.13012 21.9546C8.85812 21.9726 10.1361 21.9186 11.0361 21.5946C11.9181 21.2706 12.2061 20.6946 12.2061 19.4706V12.5226C14.4561 11.1906 16.7421 9.2826 18.3981 7.5186L16.6701 6.2586ZM30.5301 11.2086C30.8721 11.5686 31.2321 12.0726 31.3941 12.4326C31.5201 12.3786 31.6461 12.3066 31.7721 12.2526C31.5561 13.5306 31.1241 14.8266 30.5301 15.7626V11.2086ZM27.7581 15.6546V14.1606H28.7841V15.6546H27.7581ZM25.3281 14.1606H26.3361V15.6546H25.3101C25.3281 15.2406 25.3281 14.8446 25.3281 14.4666V14.1606ZM27.2181 8.4186C27.0561 8.8686 26.8941 9.3366 26.7141 9.73261H25.1661C25.3821 9.31861 25.5801 8.8686 25.7781 8.4186H27.2181ZM27.7581 11.2986H28.7841V12.6486H27.7581V11.2986ZM25.3281 11.2986H26.3361V12.6486H25.3281V11.2986ZM39.2421 17.0586H36.1821V15.4386H38.8821V13.6386H36.1821V12.0186H34.1481V13.6386H33.2661C33.3741 13.2606 33.4461 12.8646 33.5181 12.4866L31.9161 12.1626C33.7521 11.1546 34.4361 9.6606 34.7421 7.7886H36.8301C36.7581 9.2826 36.6681 9.89461 36.5061 10.0926C36.3801 10.2546 36.2361 10.2906 36.0201 10.2906C35.7681 10.2906 35.2821 10.2726 34.7241 10.2186C34.9941 10.6686 35.1741 11.3886 35.2101 11.9466C35.9301 11.9646 36.6321 11.9466 37.0281 11.8926C37.4781 11.8206 37.8201 11.6766 38.1261 11.2986C38.5041 10.8306 38.6661 9.5886 38.7561 6.72661C38.7741 6.4926 38.7921 6.0426 38.7921 6.0426H30.8001V7.7886H32.8161C32.5641 9.1026 32.0241 10.1466 30.5301 10.8306V9.73261H28.5141C28.8921 8.9946 29.2521 8.1666 29.5041 7.46461L28.2801 6.7086L28.0101 6.79861H26.3721C26.5161 6.38461 26.6421 5.9526 26.7501 5.5206L24.8601 5.1246C24.3741 7.23061 23.4201 9.3366 22.1961 10.6506C22.5741 10.9026 23.2401 11.4426 23.6001 11.8026V14.4666C23.6001 16.4826 23.5101 19.1646 22.3041 21.0186C22.7001 21.1986 23.4741 21.6846 23.7801 21.9726C24.6081 20.6766 25.0221 18.9306 25.2021 17.2386H28.7841V19.8306C28.7841 20.0646 28.6941 20.1366 28.4781 20.1366C28.2621 20.1366 27.5601 20.1366 26.8401 20.1006C27.1101 20.5866 27.3981 21.3966 27.4521 21.9186C28.5501 21.9186 29.2881 21.8646 29.8461 21.5586C30.3861 21.2526 30.5301 20.7126 30.5301 19.8666V16.0686C30.9801 16.2666 31.6281 16.6086 31.9341 16.8246C32.2041 16.4286 32.4381 15.9606 32.6541 15.4386H34.1481V17.0586H30.8181V18.8946H34.1481V21.8646H36.1821V18.8946H39.2421V17.0586ZM49.2681 16.3026C49.0521 16.8786 48.7461 17.3826 48.2241 17.8686C47.5581 17.4546 47.0001 16.9506 46.4781 16.3026H49.2681ZM46.2981 13.3866H49.6101V13.9626C49.6101 14.1606 49.6101 14.3586 49.5921 14.5566H46.2981V13.3866ZM46.2981 10.6326H49.6101V11.7846H46.2981V10.6326ZM55.2441 10.6326V11.7846H51.8601V10.6326H55.2441ZM55.2441 14.5566H51.8421C51.8601 14.3586 51.8601 14.1606 51.8601 13.9806V13.3866H55.2441V14.5566ZM57.3681 16.3026V8.90461H51.8601V7.8426H58.4841V5.9346H42.7161V7.8426H49.6101V8.90461H44.2821V16.3026H46.1901L44.5521 16.9686C45.0921 17.7606 45.7041 18.4446 46.4061 18.9846C45.3801 19.4166 44.0661 19.7766 42.3381 20.0466C42.8061 20.5506 43.3821 21.4506 43.6341 21.9546C45.7221 21.5406 47.3061 20.9466 48.5121 20.2626C51.0861 21.3966 54.3981 21.6666 58.3041 21.7566C58.4301 21.0186 58.8261 20.1186 59.2221 19.6326C55.5681 19.6506 52.6161 19.5786 50.2761 18.8046C50.9421 18.0666 51.3561 17.2026 51.5901 16.3026H57.3681ZM75.3321 14.7726C74.6841 15.7446 73.8561 16.5546 72.8481 17.2206C72.2001 16.6266 71.1201 15.9246 70.1481 15.3846C70.4901 15.1866 70.7961 14.9886 71.1021 14.7726H75.3321ZM72.8121 8.23861C72.1281 8.9946 71.3001 9.6786 70.3281 10.2726C69.7341 9.7686 68.7441 9.1746 67.8441 8.70661C68.0781 8.54461 68.2941 8.40061 68.5101 8.23861H72.8121ZM76.8801 12.9006L76.5201 12.9906H73.2981C73.6941 12.6126 74.0721 12.2166 74.4141 11.8026L72.2541 11.2986C73.7841 10.1826 75.0801 8.8326 75.9621 7.1766L74.5941 6.38461L74.2341 6.47461H70.6341C70.9401 6.1686 71.2281 5.8626 71.4981 5.55661L69.1761 5.07061C67.9341 6.54661 65.7201 8.05861 62.5341 9.06661C63.0021 9.4266 63.6681 10.1646 63.9741 10.6506C64.7121 10.3626 65.3961 10.0566 66.0441 9.71461C66.8721 10.1646 67.7901 10.7586 68.4561 11.2626C66.6021 12.1086 64.4961 12.7026 62.3901 13.0446C62.7681 13.5126 63.1821 14.3406 63.3801 14.8806C66.3681 14.2866 69.3201 13.2426 71.7321 11.6586C70.2921 13.2246 67.8441 14.7726 64.3881 15.8166C64.8381 16.1766 65.4501 16.9686 65.7021 17.4726C66.6201 17.1486 67.4841 16.7886 68.2761 16.3926C69.1761 16.9326 70.2381 17.6706 70.9221 18.2826C68.9061 19.1826 66.4941 19.7226 63.9021 19.9926C64.2261 20.4966 64.6401 21.3606 64.8021 21.9546C70.9761 21.1086 76.1421 18.9846 78.3201 13.6386L76.8801 12.9006Z" fill="#637C59"/>
<g clip-path="url(#clip0)">
<path d="M2.52313 50.3096C1.99096 51.0952 1.9449 51.9938 2.96319 53.2877C3.92519 54.5047 4.5904 54.5303 5.11233 54.1144C5.68032 53.6626 5.71614 53.0567 4.71832 51.1927C3.06553 48.0965 3.60281 46.8846 4.70809 46.0015C6.35065 44.6972 8.3514 45.5291 9.80974 47.3725C11.9128 50.0323 11.0481 51.9116 10.1628 52.7588L8.66865 50.8692C8.99102 50.4328 9.32363 49.7345 8.31558 48.4559C7.60943 47.5624 6.94934 47.3468 6.41205 47.773C5.9464 48.1427 5.95664 48.6561 6.83676 50.325C8.60725 53.7191 8.03414 54.9309 6.847 55.8757C5.42959 57.0053 3.43907 56.8615 1.38203 54.2531C-0.536842 51.8294 -0.260524 49.832 1.02384 48.4148L2.52313 50.3096Z" fill="#637C59"/>
<path d="M16.5996 62.0587L12.1939 58.7211L10.7611 60.6209L15.6581 64.3282L14.21 65.7865L7.61926 60.7955L13.9183 52.4361L20.4732 57.4014L19.2502 59.0291L14.6091 55.517L13.4219 57.0985L17.8277 60.4361L16.5996 62.0587Z" fill="#637C59"/>
<path d="M27.11 66.9316L22.0134 64.8007L21.0975 66.9984L26.762 69.3655L25.7181 71.1421L18.0938 67.9534L22.1158 58.2795L29.6992 61.4528L28.9163 63.3373L23.5485 61.0934L22.7912 62.9214L27.8878 65.0523L27.11 66.9316Z" fill="#637C59"/>
<path d="M44.3492 69.3398C44.3543 67.5375 44.3747 65.6479 44.4361 64.4875H44.4208C43.9244 66.4233 42.9727 69.499 41.7906 73.3501L39.6824 73.345C38.7972 69.9611 37.7533 66.4592 37.2416 64.4772H37.2263C37.2928 65.6839 37.3849 67.7224 37.3798 69.5093L37.3644 73.3347L35.2 73.3296L35.2358 62.8495L38.7051 62.8597C39.6773 66.1101 40.583 68.9547 40.8696 70.3976H40.8849C41.3097 68.7339 42.2205 65.9817 43.1876 62.87L46.6825 62.8803L46.6467 73.3604L44.3287 73.3552L44.3492 69.3398Z" fill="#637C59"/>
<path d="M60.1249 64.164C61.0306 66.9367 60.0993 69.9714 56.6811 71.0908C53.4932 72.1383 50.9245 70.4284 49.9727 67.5118C49.0773 64.7647 50.2081 61.7147 53.4011 60.6672C56.6811 59.594 59.2396 61.4477 60.1249 64.164ZM52.3675 66.7006C52.9815 68.5799 54.358 69.7763 56.2001 69.1704C58.0832 68.5542 58.2623 66.6133 57.7301 64.9855C57.157 63.2294 55.8419 61.956 53.9487 62.5773C52.1168 63.1781 51.8149 65.0163 52.3675 66.7006Z" fill="#637C59"/>
<path d="M65.5745 62.3103L67.8311 65.653L65.8662 66.9881L60.0072 58.3103L64.459 55.2859C66.3523 53.9971 68.1023 54.2487 69.1103 55.7429C69.8677 56.8623 69.6937 57.9354 69.0643 58.7621C69.4992 58.68 70.6045 58.4335 71.6535 59.9842L71.9452 60.4155C72.3545 61.0215 72.8048 61.6838 73.1835 62.0227L71.1469 63.404C70.7478 63.1164 70.3896 62.6081 69.7704 61.6941L69.5709 61.3963C68.9824 60.5234 68.4349 60.3693 67.2375 61.1806L65.5745 62.3103ZM64.4999 60.7185L66.5467 59.327C67.5138 58.6697 67.6776 58.0176 67.1915 57.2885C66.7258 56.6004 66.035 56.508 65.0935 57.1498L63.0365 58.5465L64.4999 60.7185Z" fill="#637C59"/>
<path d="M78.4489 49.9303L74.8363 54.1152L76.6324 55.6761L80.6492 51.0189L82.0001 52.5696L76.5915 58.834L68.6959 51.9688L74.0739 45.7352L75.609 47.0702L71.8019 51.481L73.2961 52.7801L76.9087 48.5901L78.4489 49.9303Z" fill="#637C59"/>
</g>
<path d="M54.0675 41.9445L54.1484 41.8708L54.0677 41.7969L53.2125 41.0136L53.2125 41.0136C53.0612 40.875 51.2103 39.1918 48.6797 37.5425C46.1535 35.8961 42.9306 34.2706 40.0391 34.2706C36.4835 34.2706 33.4005 36.8843 32.7145 40.412C31.1843 39.8005 30.1758 38.327 30.1758 36.6488C30.1758 36.0138 29.6674 35.496 29.038 35.496C28.4085 35.496 27.9001 36.0138 27.9001 36.6488C27.9001 39.5469 29.8789 42.1087 32.6374 42.8224C33.1085 46.6269 36.2524 49.4706 40.0349 49.4706L40.035 49.4706C42.9285 49.4685 46.1524 47.8419 48.6792 46.195C51.2103 44.5452 53.0612 42.862 53.2125 42.7234L54.0675 41.9445ZM40.9901 40.8178L40.9901 40.7178L40.8901 40.7178L34.9687 40.7178C35.4951 38.3308 37.6171 36.5762 40.0391 36.5762C41.9089 36.5762 44.06 37.4765 46.0174 38.6047C47.915 39.6982 49.6172 40.9978 50.6834 41.8706C49.6172 42.7434 47.915 44.043 46.0174 45.1365C44.06 46.2647 41.9089 47.165 40.0391 47.165C37.6171 47.165 35.4951 45.4104 34.9687 43.0234L40.8901 43.0234L40.9901 43.0234L40.9901 42.9234L40.9901 40.8178Z" fill="#637C59" stroke="#637C59" stroke-width="0.2"/>
<defs>
<clipPath id="clip0">
<rect width="82" height="28" fill="white" transform="translate(0.00012207 45.3706)"/>
</clipPath>
</defs>
</svg>
