<svg width="618" height="252" viewBox="0 0 618 252" fill="none" xmlns="http://www.w3.org/2000/svg">
<path d="M44.07 68.32V64.63H32.28C32.58 61.84 32.61 59.08 32.64 56.62H28.74C28.71 59.08 28.74 61.81 28.44 64.63H17.52V68.32H27.84C26.67 73.48 23.82 78.46 16.95 81.52C18 82.27 19.05 83.56 19.62 84.55C25.98 81.49 29.22 76.81 30.84 71.8C33.18 77.59 36.66 81.97 42.09 84.52C42.66 83.5 43.83 81.91 44.73 81.16C39.12 78.88 35.49 74.17 33.51 68.32H44.07ZM65.61 71.86C65.04 73.45 64.29 74.8 63.33 75.91C61.56 75.25 59.85 74.62 58.17 74.08C58.62 73.36 59.04 72.64 59.49 71.86H65.61ZM75.51 71.86V68.5H70.8C70.92 67.84 71.04 67.18 71.16 66.49H74.94V59.83H64.83C64.41 58.72 63.78 57.37 63.27 56.29L59.25 57.22C59.58 58.03 59.97 58.96 60.3 59.83H49.65V66.49H53.28V63.13H71.13V66.04L66.81 65.77C66.72 66.73 66.63 67.66 66.48 68.5H61.2C61.83 67.18 62.4 65.86 62.88 64.63L58.71 63.85C58.2 65.32 57.54 66.91 56.73 68.5H49.08V71.86H54.93C54.12 73.27 53.28 74.56 52.5 75.64C54.87 76.36 57.54 77.35 60.15 78.43C57.45 79.87 53.85 80.68 49.11 81.1C49.86 82 51 83.74 51.33 84.7C57 83.89 61.23 82.57 64.32 80.2C67.68 81.73 70.71 83.29 72.75 84.67L75.39 81.52C73.29 80.2 70.32 78.79 67.11 77.44C68.28 75.91 69.21 74.05 69.9 71.86H75.51ZM91.92 70.03H95.49V63.64C98.64 65.35 103.83 68.29 106.17 69.85L107.28 66.52C106.08 65.83 101.88 63.85 98.67 62.41H106.35V59.29H95.49V56.56H91.92V59.29H81.09V62.41H88.8C86.46 64.54 83.1 66.28 79.68 67.27C80.43 67.9 81.42 69.19 81.87 70.03C85.68 68.74 89.31 66.46 91.92 63.61V70.03ZM93.33 78.01C92.58 77.47 89.76 75.73 88.56 75.04V74.95H92.82V71.83H88.56V68.92H85.2V71.83H80.58V74.95H84.96C83.64 76.75 81.57 78.55 79.62 79.57C80.13 80.47 80.76 81.91 81.03 82.84C82.53 81.97 83.94 80.56 85.2 79V84.37H88.56V78.16C89.37 78.79 90.12 79.36 90.57 79.75L93.33 78.01ZM107.01 75.04V71.95H101.55V68.92H98.16V71.95H93.87V75.04H97.62C96 77.29 93.27 79.45 90.66 80.53C91.38 81.13 92.37 82.33 92.85 83.08C94.71 82.06 96.6 80.5 98.16 78.7V84.64H101.55V78.7C102.84 80.38 104.28 81.97 105.63 82.99C106.2 82.12 107.34 80.86 108.15 80.17C106.05 79.09 103.59 77.02 102 75.04H107.01ZM124.56 71.77C123.87 70.93 120.9 67.54 120 66.64V66.16H123.93V62.8H120V56.59H116.52V62.8H111.78V66.16H116.01C114.99 69.76 113.04 73.72 110.94 76.09C111.54 77.02 112.35 78.52 112.71 79.54C114.15 77.83 115.44 75.34 116.52 72.58V84.58H120V71.11C120.9 72.43 121.8 73.87 122.34 74.86L124.56 71.77ZM138.66 66.16V62.8H133.38V56.59H129.78V62.8H124.86V66.16H129.21C127.83 70.33 125.4 74.53 122.61 77.2C123.27 78.07 124.2 79.45 124.62 80.47C126.57 78.52 128.37 75.64 129.78 72.43V84.58H133.38V72.55C134.4 75.34 135.6 77.89 136.92 79.69C137.55 78.79 138.75 77.56 139.59 76.93C137.4 74.44 135.36 70.27 134.1 66.16H138.66ZM156.03 57.31V61H160.83C162.51 64.96 165.18 68.98 168.6 71.59C169.2 70.48 170.49 68.77 171.3 67.99C167.64 65.74 164.88 61.51 163.59 57.31H156.03ZM150.63 57.25C148.83 61.6 145.68 65.95 142.5 68.62C143.4 69.34 144.99 70.9 145.68 71.68C148.92 68.56 152.43 63.46 154.62 58.54L150.63 57.25ZM159.54 73.9C160.47 75.22 161.46 76.78 162.42 78.28L151.41 79C154.32 75.76 157.2 71.77 159.51 67.72L155.34 65.95C152.97 70.9 149.22 76.03 147.93 77.32C146.76 78.64 145.98 79.45 144.96 79.72C145.5 80.8 146.19 82.78 146.43 83.56C147.9 82.99 149.94 82.81 164.43 81.67C165.06 82.75 165.6 83.77 165.99 84.61L169.68 82.66C168.21 79.87 165.45 75.61 163.02 72.31L159.54 73.9ZM196.5 65.65H189.75V64.48H195.27V62.56H189.75V61.3H186.51V62.56H181.23V64.48H186.51V65.65H179.82V67.63H196.5V65.65ZM184.32 70H192.06V71.23H184.32V70ZM185.7 77.17V74.62C186.84 74.08 187.89 73.45 188.73 72.76H195.18V68.47H181.35V72.76H184.77C183.09 73.54 181.02 74.17 179.07 74.56C179.58 75.04 180.42 76.06 180.78 76.54C181.53 76.3 182.34 76.03 183.15 75.73V76.81C183.15 77.95 182.61 78.28 182.16 78.49C182.46 78.85 182.85 79.78 182.97 80.32C183.48 80.02 184.35 79.72 189.45 78.46C189.39 77.95 189.36 76.96 189.45 76.3L185.7 77.17ZM194.73 73.09C194.16 73.6 193.26 74.23 192.45 74.8C191.46 74.17 190.5 73.54 189.66 73.03L187.5 74.23C190.02 75.76 193.17 78.04 194.67 79.45L196.95 78.1C196.29 77.5 195.36 76.81 194.31 76.06C195.18 75.58 196.05 75.07 196.83 74.47L194.73 73.09ZM178.8 80.35V60.94H197.55V80.35H178.8ZM175.44 57.73V84.64H178.8V83.56H197.55V84.64H201.03V57.73H175.44ZM17.25 125.53L18.27 124.51C17.46 123.79 16.14 122.89 14.76 122.14H21C20.94 123.49 20.85 124.57 20.79 125.53H17.25ZM12.54 122.14L11.34 123.31C12.54 123.88 13.86 124.72 14.91 125.53H8.34C8.52 124.45 8.67 123.34 8.85 122.14H12.54ZM12.96 115.93L11.73 117.13C12.9 117.64 14.16 118.42 15.21 119.2H9.24C9.39 118.09 9.54 117.01 9.66 115.93H12.96ZM17.55 119.2L18.57 118.18C17.76 117.49 16.47 116.62 15.15 115.93H21.24C21.21 117.13 21.18 118.18 21.12 119.2H17.55ZM28.95 122.26V119.08H24.63C24.69 117.64 24.75 116.11 24.81 114.37C24.81 113.95 24.84 112.81 24.84 112.81H7.08C7.62 112.06 8.13 111.31 8.64 110.5H27.81V107.32H10.5C10.8 106.69 11.1 106.06 11.37 105.46L7.83 104.44C6.3 108.13 3.69 111.91 0.93 114.22C1.8 114.7 3.39 115.72 4.14 116.29C4.86 115.54 5.61 114.7 6.36 113.77C6.18 115.42 5.97 117.28 5.73 119.08H1.14V122.26H5.28C4.92 124.63 4.56 126.88 4.2 128.65H20.34C20.22 129.07 20.1 129.31 19.98 129.49C19.68 129.91 19.44 129.97 18.93 129.97C18.3 130 17.13 129.97 15.78 129.85C16.23 130.63 16.59 131.8 16.62 132.58C18.15 132.67 19.65 132.67 20.64 132.52C21.66 132.37 22.47 132.07 23.13 131.11C23.46 130.66 23.7 129.91 23.91 128.65H27.63V125.53H24.27C24.36 124.57 24.42 123.52 24.51 122.26H28.95ZM41.1 122.8V118.24H46.29V122.8H41.1ZM60.24 122.8H49.98V118.24H57.9V114.91H49.98V111.34H58.59V107.89H41.64C42.03 107.08 42.36 106.27 42.63 105.43L39 104.5C37.71 108.37 35.4 112.21 32.7 114.49C33.57 115 35.1 116.2 35.79 116.8C37.2 115.39 38.64 113.47 39.87 111.34H46.29V114.91H37.53V122.8H32.79V126.22H46.29V132.64H49.98V126.22H60.24V122.8ZM68.52 126.37V120.49H73.29V126.37H68.52ZM73.29 117.4H68.52V112.54H73.29V117.4ZM82.83 109.21C83.28 107.95 83.67 106.69 84 105.4L80.58 104.62C79.71 108.13 78.27 111.76 76.53 114.28V109.42H71.88C72.39 108.13 72.93 106.63 73.44 105.13L69.54 104.59C69.42 106 69.06 107.92 68.67 109.42H65.28V131.71H68.52V129.52H76.53V115.51C77.34 116.05 78.36 116.74 78.84 117.19C79.77 115.9 80.7 114.25 81.48 112.45H87.9C87.57 123.04 87.18 127.54 86.31 128.5C85.92 128.89 85.59 129.01 84.99 129.01C84.21 129.01 82.44 129.01 80.52 128.83C81.15 129.82 81.63 131.32 81.69 132.31C83.46 132.37 85.26 132.4 86.4 132.25C87.6 132.04 88.44 131.71 89.28 130.6C90.51 129.01 90.84 124.24 91.23 110.83C91.26 110.41 91.26 109.21 91.26 109.21H82.83ZM86.28 122.89C85.35 121.15 83.37 118.3 81.87 116.23L79.08 117.82C80.55 120.01 82.41 122.95 83.25 124.75L86.28 122.89ZM122.46 105.49H119.1V109.18H116.28V104.62H113.13V109.18H110.34V105.49H107.16V112.06H122.46V105.49ZM102.78 125.86H100.62V118.33H102.78V125.86ZM105.42 128.98V115.21H100.77C101.46 113.26 101.97 111.22 102.39 109.15H106.08V105.91H95.88V109.15H99.09C98.31 113.11 97.08 116.8 95.22 119.26C95.7 120.31 96.33 122.56 96.45 123.52C96.87 123.01 97.29 122.44 97.68 121.87V131.2H100.62V128.98H105.42ZM114.03 123.37C113.43 122.29 112.2 120.46 111.3 119.08L109.95 119.89V119.32V116.41H123.18V113.44H106.8V119.32C106.8 122.71 106.59 127.48 104.46 130.9C105.21 131.23 106.62 132.13 107.19 132.67C109.08 129.7 109.71 125.35 109.89 121.72C110.61 122.89 111.3 124.12 111.66 124.93L114.03 123.37ZM119.7 124.69C120.75 123.7 122.01 122.14 123.42 120.79L120.78 118.9C120.09 120.19 118.8 122.05 117.84 123.19C117.66 122.77 117.51 122.32 117.36 121.87C117.51 120.55 117.6 119.08 117.66 117.55H114.57C114.36 123.49 113.88 127.63 108.84 130C109.59 130.57 110.49 131.8 110.85 132.61C113.76 131.11 115.44 129.07 116.34 126.46C117.63 129.01 119.37 131.11 121.59 132.43C122.07 131.62 122.97 130.48 123.69 129.91C121.02 128.62 119.1 126.16 117.87 123.28L119.7 124.69ZM133.56 110.23V121.96H131.16V110.23H133.56ZM136.74 125.26V106.93H127.98V127.6H131.16V125.26H136.74ZM147.99 109.42C147.72 111.01 147.39 112.81 147.06 114.46H142.74C142.89 112.75 142.98 111.04 143.04 109.42H147.99ZM150.48 117.7C149.79 120.07 148.83 122.11 147.57 123.82C146.16 122.02 145.02 119.95 144.21 117.7H150.48ZM152.34 114.34L151.71 114.46H150.48C151.02 111.82 151.53 108.91 151.83 106.39L149.34 106.06L148.77 106.21H137.58V109.42H139.56C139.47 116.77 138.81 125.74 133.98 130.3C134.73 130.84 135.96 132.01 136.47 132.64C139.53 129.73 141.15 125.26 142.02 120.43C142.92 122.62 144.03 124.57 145.32 126.31C143.7 127.78 141.81 128.89 139.68 129.67C140.37 130.27 141.48 131.74 141.93 132.58C144.03 131.71 145.95 130.48 147.63 128.92C149.25 130.45 151.11 131.68 153.24 132.61C153.75 131.71 154.74 130.39 155.55 129.7C153.42 128.92 151.56 127.75 149.94 126.34C152.07 123.46 153.63 119.77 154.47 115.15L152.34 114.34ZM181.17 113.53C180.69 116.59 179.94 119.26 178.83 121.54C177.63 119.38 176.67 116.92 175.98 114.34C176.07 114.07 176.19 113.8 176.28 113.53H181.17ZM186.51 113.53V110.14H177.36C177.78 108.55 178.11 106.87 178.41 105.19L174.78 104.59C174.06 109.42 172.65 113.98 170.34 116.89V105.07H166.8V121.51L163.62 122.47V107.83H160.11V122.29C160.11 123.52 159.57 124.09 159 124.42C159.54 125.2 160.14 126.82 160.38 127.69C161.04 127.15 162.03 126.61 166.8 124.93V132.67H170.34V117.61C171.12 118.39 172.08 119.71 172.5 120.4C173.04 119.74 173.58 119.02 174.06 118.24C174.81 120.64 175.77 122.83 176.91 124.78C175.29 126.91 173.28 128.56 170.7 129.82C171.42 130.48 172.56 131.98 172.98 132.73C175.35 131.41 177.33 129.79 178.92 127.81C180.45 129.73 182.22 131.32 184.29 132.52C184.83 131.56 185.94 130.21 186.72 129.58C184.47 128.44 182.58 126.82 180.99 124.81C182.76 121.72 183.93 117.97 184.71 113.53H186.51ZM210.12 108.31H197.67V107.35H210.12V108.31ZM210.12 111.07H197.67V110.08H210.12V111.07ZM213.72 105.49H194.22V112.9H213.72V105.49ZM217.62 113.8H190.47V116.35H217.62V113.8ZM197.04 123.01V121.96H202.26V123.01H197.04ZM197.04 119.14H202.26V120.19H197.04V119.14ZM210.93 120.19H205.68V119.14H210.93V120.19ZM210.93 123.01H205.68V121.96H210.93V123.01ZM205.68 129.28V128.2H214.98V125.89H205.68V124.93H214.41V117.25H193.68V124.93H202.26V125.89H193.08V128.2H202.26V129.28H190.41V131.86H217.68V129.28H205.68Z" fill="#231916"/>
<path d="M607.32 125.89H615.21V122.8H607.32V120.22C607.98 120.7 608.67 121.3 609 121.66C609.99 120.85 610.86 119.83 611.58 118.66C612.87 119.8 614.19 121.03 614.91 121.84L616.92 119.53C615.99 118.57 614.34 117.22 612.81 115.99C613.23 114.91 613.56 113.68 613.77 112.39L610.59 112C610.14 114.85 609.09 117.28 607.32 118.96V111.61H603.87V118.66C603.12 117.82 601.92 116.65 600.78 115.66C601.11 114.64 601.35 113.53 601.53 112.33L598.32 112C597.87 115.24 596.73 118.03 594.51 119.74C594.6 118.21 594.63 116.77 594.63 115.48V110.62H616.65V107.32H607.02C606.54 106.3 605.91 105.19 605.25 104.23L601.83 105.31C602.22 105.91 602.58 106.6 602.91 107.32H591.12V115.45C591.12 119.86 590.94 126.13 588.6 130.39C589.44 130.75 591 131.8 591.63 132.4C593.46 129.01 594.21 124.21 594.48 119.95C595.26 120.46 596.46 121.33 596.97 121.84C598.02 120.97 598.89 119.86 599.61 118.54C600.6 119.53 601.56 120.58 602.1 121.33L603.87 119.17V122.8H596.25V125.89H603.87V128.86H594.36V131.92H616.86V128.86H607.32V125.89Z" fill="#231916"/>
<line x1="334.251" y1="58.7261" x2="258.974" y2="134.003" stroke="#231916" stroke-width="2.75403"/>
<line x1="332.303" y1="134.003" x2="257.026" y2="58.726" stroke="#231916" stroke-width="2.75403"/>
<path d="M380.36 134H428.395V121.155H413.391V54.0137H401.625C396.551 57.252 391.046 59.303 383.058 60.8142V70.6371H397.523V121.155H380.36V134ZM470.047 135.511C485.267 135.511 498.112 126.984 498.112 112.303C498.112 101.833 491.204 95.1403 482.244 92.6576V92.1179C490.664 88.7716 495.521 82.5109 495.521 73.8754C495.521 60.2745 485.051 52.6105 469.615 52.6105C460.224 52.6105 452.56 56.3885 445.651 62.4333L453.747 72.1483C458.497 67.7226 463.138 65.1319 468.859 65.1319C475.66 65.1319 479.546 68.802 479.546 75.0628C479.546 82.187 474.796 87.2604 460.116 87.2604V98.5945C477.495 98.5945 482.136 103.56 482.136 111.332C482.136 118.564 476.631 122.558 468.535 122.558C461.303 122.558 455.474 118.996 450.725 114.354L443.277 124.393C448.89 130.762 457.417 135.511 470.047 135.511ZM514.073 134H567.613V120.615H550.342C546.564 120.615 541.275 121.047 537.281 121.479C551.854 107.23 563.835 91.6861 563.835 77.2216C563.835 62.3254 553.797 52.6105 538.684 52.6105C527.782 52.6105 520.658 56.8203 513.318 64.7002L521.953 73.3357C526.055 68.91 530.805 65.1319 536.634 65.1319C544.298 65.1319 548.615 69.9894 548.615 78.0852C548.615 90.3908 535.77 105.395 514.073 124.825V134Z" fill="#ED783F"/>
<path d="M2.574 218.644V220.45H15.454V218.644H2.574ZM25.716 223.082H29.398V221.64H25.716V220.436C26.024 220.66 26.346 220.94 26.5 221.108C26.962 220.73 27.368 220.254 27.704 219.708C28.306 220.24 28.922 220.814 29.258 221.192L30.196 220.114C29.762 219.666 28.992 219.036 28.278 218.462C28.474 217.958 28.628 217.384 28.726 216.782L27.242 216.6C27.032 217.93 26.542 219.064 25.716 219.848V216.418H24.106V219.708C23.756 219.316 23.196 218.77 22.664 218.308C22.818 217.832 22.93 217.314 23.014 216.754L21.516 216.6C21.306 218.112 20.774 219.414 19.738 220.212C19.78 219.498 19.794 218.826 19.794 218.224V215.956H30.07V214.416H25.576C25.352 213.94 25.058 213.422 24.75 212.974L23.154 213.478C23.336 213.758 23.504 214.08 23.658 214.416H18.156V218.21C18.156 220.268 18.072 223.194 16.98 225.182C17.372 225.35 18.1 225.84 18.394 226.12C19.248 224.538 19.598 222.298 19.724 220.31C20.088 220.548 20.648 220.954 20.886 221.192C21.376 220.786 21.782 220.268 22.118 219.652C22.58 220.114 23.028 220.604 23.28 220.954L24.106 219.946V221.64H20.55V223.082H24.106V224.468H19.668V225.896H30.168V224.468H25.716V223.082ZM44.616 218.616V216.894H39.114C39.254 215.592 39.268 214.304 39.282 213.156H37.462C37.448 214.304 37.462 215.578 37.322 216.894H32.226V218.616H37.042C36.496 221.024 35.166 223.348 31.96 224.776C32.45 225.126 32.94 225.728 33.206 226.19C36.174 224.762 37.686 222.578 38.442 220.24C39.534 222.942 41.158 224.986 43.692 226.176C43.958 225.7 44.504 224.958 44.924 224.608C42.306 223.544 40.612 221.346 39.688 218.616H44.616ZM54.668 220.268C54.402 221.01 54.052 221.64 53.604 222.158C52.778 221.85 51.98 221.556 51.196 221.304C51.406 220.968 51.602 220.632 51.812 220.268H54.668ZM59.288 220.268V218.7H57.09C57.146 218.392 57.202 218.084 57.258 217.762H59.022V214.654H54.304C54.108 214.136 53.814 213.506 53.576 213.002L51.7 213.436C51.854 213.814 52.036 214.248 52.19 214.654H47.22V217.762H48.914V216.194H57.244V217.552L55.228 217.426C55.186 217.874 55.144 218.308 55.074 218.7H52.61C52.904 218.084 53.17 217.468 53.394 216.894L51.448 216.53C51.21 217.216 50.902 217.958 50.524 218.7H46.954V220.268H49.684C49.306 220.926 48.914 221.528 48.55 222.032C49.656 222.368 50.902 222.83 52.12 223.334C50.86 224.006 49.18 224.384 46.968 224.58C47.318 225 47.85 225.812 48.004 226.26C50.65 225.882 52.624 225.266 54.066 224.16C55.634 224.874 57.048 225.602 58 226.246L59.232 224.776C58.252 224.16 56.866 223.502 55.368 222.872C55.914 222.158 56.348 221.29 56.67 220.268H59.288ZM66.946 219.414H68.612V216.432C70.082 217.23 72.504 218.602 73.596 219.33L74.114 217.776C73.554 217.454 71.594 216.53 70.096 215.858H73.68V214.402H68.612V213.128H66.946V214.402H61.892V215.858H65.49C64.398 216.852 62.83 217.664 61.234 218.126C61.584 218.42 62.046 219.022 62.256 219.414C64.034 218.812 65.728 217.748 66.946 216.418V219.414ZM67.604 223.138C67.254 222.886 65.938 222.074 65.378 221.752V221.71H67.366V220.254H65.378V218.896H63.81V220.254H61.654V221.71H63.698C63.082 222.55 62.116 223.39 61.206 223.866C61.444 224.286 61.738 224.958 61.864 225.392C62.564 224.986 63.222 224.328 63.81 223.6V226.106H65.378V223.208C65.756 223.502 66.106 223.768 66.316 223.95L67.604 223.138ZM73.988 221.752V220.31H71.44V218.896H69.858V220.31H67.856V221.752H69.606C68.85 222.802 67.576 223.81 66.358 224.314C66.694 224.594 67.156 225.154 67.38 225.504C68.248 225.028 69.13 224.3 69.858 223.46V226.232H71.44V223.46C72.042 224.244 72.714 224.986 73.344 225.462C73.61 225.056 74.142 224.468 74.52 224.146C73.54 223.642 72.392 222.676 71.65 221.752H73.988ZM82.178 220.226C81.856 219.834 80.47 218.252 80.05 217.832V217.608H81.884V216.04H80.05V213.142H78.426V216.04H76.214V217.608H78.188C77.712 219.288 76.802 221.136 75.822 222.242C76.102 222.676 76.48 223.376 76.648 223.852C77.32 223.054 77.922 221.892 78.426 220.604V226.204H80.05V219.918C80.47 220.534 80.89 221.206 81.142 221.668L82.178 220.226ZM88.758 217.608V216.04H86.294V213.142H84.614V216.04H82.318V217.608H84.348C83.704 219.554 82.57 221.514 81.268 222.76C81.576 223.166 82.01 223.81 82.206 224.286C83.116 223.376 83.956 222.032 84.614 220.534V226.204H86.294V220.59C86.77 221.892 87.33 223.082 87.946 223.922C88.24 223.502 88.8 222.928 89.192 222.634C88.17 221.472 87.218 219.526 86.63 217.608H88.758ZM96.864 213.478V215.2H99.104C99.888 217.048 101.134 218.924 102.73 220.142C103.01 219.624 103.612 218.826 103.99 218.462C102.282 217.412 100.994 215.438 100.392 213.478H96.864ZM94.344 213.45C93.504 215.48 92.034 217.51 90.55 218.756C90.97 219.092 91.712 219.82 92.034 220.184C93.546 218.728 95.184 216.348 96.206 214.052L94.344 213.45ZM98.502 221.22C98.936 221.836 99.398 222.564 99.846 223.264L94.708 223.6C96.066 222.088 97.41 220.226 98.488 218.336L96.542 217.51C95.436 219.82 93.686 222.214 93.084 222.816C92.538 223.432 92.174 223.81 91.698 223.936C91.95 224.44 92.272 225.364 92.384 225.728C93.07 225.462 94.022 225.378 100.784 224.846C101.078 225.35 101.33 225.826 101.512 226.218L103.234 225.308C102.548 224.006 101.26 222.018 100.126 220.478L98.502 221.22ZM115.75 217.37H112.6V216.824H115.176V215.928H112.6V215.34H111.088V215.928H108.624V216.824H111.088V217.37H107.966V218.294H115.75V217.37ZM110.066 219.4H113.678V219.974H110.066V219.4ZM110.71 222.746V221.556C111.242 221.304 111.732 221.01 112.124 220.688H115.134V218.686H108.68V220.688H110.276C109.492 221.052 108.526 221.346 107.616 221.528C107.854 221.752 108.246 222.228 108.414 222.452C108.764 222.34 109.142 222.214 109.52 222.074V222.578C109.52 223.11 109.268 223.264 109.058 223.362C109.198 223.53 109.38 223.964 109.436 224.216C109.674 224.076 110.08 223.936 112.46 223.348C112.432 223.11 112.418 222.648 112.46 222.34L110.71 222.746ZM114.924 220.842C114.658 221.08 114.238 221.374 113.86 221.64C113.398 221.346 112.95 221.052 112.558 220.814L111.55 221.374C112.726 222.088 114.196 223.152 114.896 223.81L115.96 223.18C115.652 222.9 115.218 222.578 114.728 222.228C115.134 222.004 115.54 221.766 115.904 221.486L114.924 220.842ZM107.49 224.23V215.172H116.24V224.23H107.49ZM105.922 213.674V226.232H107.49V225.728H116.24V226.232H117.864V213.674H105.922ZM127.65 222.914L128.126 222.438C127.748 222.102 127.132 221.682 126.488 221.332H129.4C129.372 221.962 129.33 222.466 129.302 222.914H127.65ZM125.452 221.332L124.892 221.878C125.452 222.144 126.068 222.536 126.558 222.914H123.492C123.576 222.41 123.646 221.892 123.73 221.332H125.452ZM125.648 218.434L125.074 218.994C125.62 219.232 126.208 219.596 126.698 219.96H123.912C123.982 219.442 124.052 218.938 124.108 218.434H125.648ZM127.79 219.96L128.266 219.484C127.888 219.162 127.286 218.756 126.67 218.434H129.512C129.498 218.994 129.484 219.484 129.456 219.96H127.79ZM133.11 221.388V219.904H131.094C131.122 219.232 131.15 218.518 131.178 217.706C131.178 217.51 131.192 216.978 131.192 216.978H122.904C123.156 216.628 123.394 216.278 123.632 215.9H132.578V214.416H124.5C124.64 214.122 124.78 213.828 124.906 213.548L123.254 213.072C122.54 214.794 121.322 216.558 120.034 217.636C120.44 217.86 121.182 218.336 121.532 218.602C121.868 218.252 122.218 217.86 122.568 217.426C122.484 218.196 122.386 219.064 122.274 219.904H120.132V221.388H122.064C121.896 222.494 121.728 223.544 121.56 224.37H129.092C129.036 224.566 128.98 224.678 128.924 224.762C128.784 224.958 128.672 224.986 128.434 224.986C128.14 225 127.594 224.986 126.964 224.93C127.174 225.294 127.342 225.84 127.356 226.204C128.07 226.246 128.77 226.246 129.232 226.176C129.708 226.106 130.086 225.966 130.394 225.518C130.548 225.308 130.66 224.958 130.758 224.37H132.494V222.914H130.926C130.968 222.466 130.996 221.976 131.038 221.388H133.11ZM138.78 221.64V219.512H141.202V221.64H138.78ZM147.712 221.64H142.924V219.512H146.62V217.958H142.924V216.292H146.942V214.682H139.032C139.214 214.304 139.368 213.926 139.494 213.534L137.8 213.1C137.198 214.906 136.12 216.698 134.86 217.762C135.266 218 135.98 218.56 136.302 218.84C136.96 218.182 137.632 217.286 138.206 216.292H141.202V217.958H137.114V221.64H134.902V223.236H141.202V226.232H142.924V223.236H147.712V221.64ZM151.576 223.306V220.562H153.802V223.306H151.576ZM153.802 219.12H151.576V216.852H153.802V219.12ZM158.254 215.298C158.464 214.71 158.646 214.122 158.8 213.52L157.204 213.156C156.798 214.794 156.126 216.488 155.314 217.664V215.396H153.144C153.382 214.794 153.634 214.094 153.872 213.394L152.052 213.142C151.996 213.8 151.828 214.696 151.646 215.396H150.064V225.798H151.576V224.776H155.314V218.238C155.692 218.49 156.168 218.812 156.392 219.022C156.826 218.42 157.26 217.65 157.624 216.81H160.62C160.466 221.752 160.284 223.852 159.878 224.3C159.696 224.482 159.542 224.538 159.262 224.538C158.898 224.538 158.072 224.538 157.176 224.454C157.47 224.916 157.694 225.616 157.722 226.078C158.548 226.106 159.388 226.12 159.92 226.05C160.48 225.952 160.872 225.798 161.264 225.28C161.838 224.538 161.992 222.312 162.174 216.054C162.188 215.858 162.188 215.298 162.188 215.298H158.254ZM159.864 221.682C159.43 220.87 158.506 219.54 157.806 218.574L156.504 219.316C157.19 220.338 158.058 221.71 158.45 222.55L159.864 221.682ZM176.748 213.562H175.18V215.284H173.864V213.156H172.394V215.284H171.092V213.562H169.608V216.628H176.748V213.562ZM167.564 223.068H166.556V219.554H167.564V223.068ZM168.796 224.524V218.098H166.626C166.948 217.188 167.186 216.236 167.382 215.27H169.104V213.758H164.344V215.27H165.842C165.478 217.118 164.904 218.84 164.036 219.988C164.26 220.478 164.554 221.528 164.61 221.976C164.806 221.738 165.002 221.472 165.184 221.206V225.56H166.556V224.524H168.796ZM172.814 221.906C172.534 221.402 171.96 220.548 171.54 219.904L170.91 220.282V220.016V218.658H177.084V217.272H169.44V220.016C169.44 221.598 169.342 223.824 168.348 225.42C168.698 225.574 169.356 225.994 169.622 226.246C170.504 224.86 170.798 222.83 170.882 221.136C171.218 221.682 171.54 222.256 171.708 222.634L172.814 221.906ZM175.46 222.522C175.95 222.06 176.538 221.332 177.196 220.702L175.964 219.82C175.642 220.422 175.04 221.29 174.592 221.822C174.508 221.626 174.438 221.416 174.368 221.206C174.438 220.59 174.48 219.904 174.508 219.19H173.066C172.968 221.962 172.744 223.894 170.392 225C170.742 225.266 171.162 225.84 171.33 226.218C172.688 225.518 173.472 224.566 173.892 223.348C174.494 224.538 175.306 225.518 176.342 226.134C176.566 225.756 176.986 225.224 177.322 224.958C176.076 224.356 175.18 223.208 174.606 221.864L175.46 222.522ZM181.928 215.774V221.248H180.808V215.774H181.928ZM183.412 222.788V214.234H179.324V223.88H180.808V222.788H183.412ZM188.662 215.396C188.536 216.138 188.382 216.978 188.228 217.748H186.212C186.282 216.95 186.324 216.152 186.352 215.396H188.662ZM189.824 219.26C189.502 220.366 189.054 221.318 188.466 222.116C187.808 221.276 187.276 220.31 186.898 219.26H189.824ZM190.692 217.692L190.398 217.748H189.824C190.076 216.516 190.314 215.158 190.454 213.982L189.292 213.828L189.026 213.898H183.804V215.396H184.728C184.686 218.826 184.378 223.012 182.124 225.14C182.474 225.392 183.048 225.938 183.286 226.232C184.714 224.874 185.47 222.788 185.876 220.534C186.296 221.556 186.814 222.466 187.416 223.278C186.66 223.964 185.778 224.482 184.784 224.846C185.106 225.126 185.624 225.812 185.834 226.204C186.814 225.798 187.71 225.224 188.494 224.496C189.25 225.21 190.118 225.784 191.112 226.218C191.35 225.798 191.812 225.182 192.19 224.86C191.196 224.496 190.328 223.95 189.572 223.292C190.566 221.948 191.294 220.226 191.686 218.07L190.692 217.692ZM204.146 217.314C203.922 218.742 203.572 219.988 203.054 221.052C202.494 220.044 202.046 218.896 201.724 217.692C201.766 217.566 201.822 217.44 201.864 217.314H204.146ZM206.638 217.314V215.732H202.368C202.564 214.99 202.718 214.206 202.858 213.422L201.164 213.142C200.828 215.396 200.17 217.524 199.092 218.882V213.366H197.44V221.038L195.956 221.486V214.654H194.318V221.402C194.318 221.976 194.066 222.242 193.8 222.396C194.052 222.76 194.332 223.516 194.444 223.922C194.752 223.67 195.214 223.418 197.44 222.634V226.246H199.092V219.218C199.456 219.582 199.904 220.198 200.1 220.52C200.352 220.212 200.604 219.876 200.828 219.512C201.178 220.632 201.626 221.654 202.158 222.564C201.402 223.558 200.464 224.328 199.26 224.916C199.596 225.224 200.128 225.924 200.324 226.274C201.43 225.658 202.354 224.902 203.096 223.978C203.81 224.874 204.636 225.616 205.602 226.176C205.854 225.728 206.372 225.098 206.736 224.804C205.686 224.272 204.804 223.516 204.062 222.578C204.888 221.136 205.434 219.386 205.798 217.314H206.638ZM217.656 214.878H211.846V214.43H217.656V214.878ZM217.656 216.166H211.846V215.704H217.656V216.166ZM219.336 213.562H210.236V217.02H219.336V213.562ZM221.156 217.44H208.486V218.63H221.156V217.44ZM211.552 221.738V221.248H213.988V221.738H211.552ZM211.552 219.932H213.988V220.422H211.552V219.932ZM218.034 220.422H215.584V219.932H218.034V220.422ZM218.034 221.738H215.584V221.248H218.034V221.738ZM215.584 224.664V224.16H219.924V223.082H215.584V222.634H219.658V219.05H209.984V222.634H213.988V223.082H209.704V224.16H213.988V224.664H208.458V225.868H221.184V224.664H215.584ZM234.47 218.588V217.174H224.53V218.588H234.47ZM234.47 220.464H224.53V221.878H234.47V220.464ZM241.036 225.196C243.01 225.196 244.676 224.09 244.676 222.186C244.676 220.828 243.78 219.96 242.618 219.638V219.568C243.71 219.134 244.34 218.322 244.34 217.202C244.34 215.438 242.982 214.444 240.98 214.444C239.762 214.444 238.768 214.934 237.872 215.718L238.922 216.978C239.538 216.404 240.14 216.068 240.882 216.068C241.764 216.068 242.268 216.544 242.268 217.356C242.268 218.28 241.652 218.938 239.748 218.938V220.408C242.002 220.408 242.604 221.052 242.604 222.06C242.604 222.998 241.89 223.516 240.84 223.516C239.902 223.516 239.146 223.054 238.53 222.452L237.564 223.754C238.292 224.58 239.398 225.196 241.036 225.196ZM250.26 225.196C252.36 225.196 253.746 223.992 253.746 222.424C253.746 221.01 252.962 220.17 252.01 219.652V219.582C252.696 219.092 253.34 218.238 253.34 217.216C253.34 215.564 252.164 214.458 250.33 214.458C248.538 214.458 247.208 215.522 247.208 217.188C247.208 218.294 247.782 219.078 248.58 219.652V219.722C247.614 220.226 246.802 221.094 246.802 222.424C246.802 224.048 248.286 225.196 250.26 225.196ZM250.918 219.078C249.826 218.644 249.028 218.168 249.028 217.188C249.028 216.362 249.588 215.9 250.288 215.9C251.156 215.9 251.66 216.502 251.66 217.342C251.66 217.958 251.422 218.546 250.918 219.078ZM250.316 223.74C249.35 223.74 248.58 223.138 248.58 222.2C248.58 221.43 248.972 220.73 249.532 220.282C250.876 220.828 251.828 221.276 251.828 222.354C251.828 223.25 251.198 223.74 250.316 223.74ZM257.538 217.902C257.538 216.628 258.168 215.998 258.938 215.998C259.82 215.998 260.534 216.698 260.716 218.574C260.24 219.372 259.582 219.694 259.008 219.694C258.112 219.694 257.538 219.12 257.538 217.902ZM258.658 225.196C260.716 225.196 262.634 223.502 262.634 219.582C262.634 215.984 260.87 214.444 258.91 214.444C257.132 214.444 255.648 215.774 255.648 217.902C255.648 220.1 256.894 221.164 258.616 221.164C259.316 221.164 260.198 220.744 260.744 220.044C260.646 222.634 259.694 223.516 258.532 223.516C257.916 223.516 257.286 223.194 256.908 222.774L255.816 224.02C256.432 224.65 257.37 225.196 258.658 225.196ZM275.946 218.042H274.294V217.23H275.946V218.042ZM275.946 220.016H274.294V219.176H275.946V220.016ZM275.946 221.976H274.294V221.136H275.946V221.976ZM273.09 216.012V223.194H277.192V216.012H275.638C275.708 215.746 275.792 215.466 275.862 215.186H277.458V213.87H272.754V215.186H274.35C274.322 215.452 274.294 215.746 274.266 216.012H273.09ZM266.748 215.872V221.724H266.034V215.872H266.748ZM267.938 214.43H264.914V224.202H266.034V223.166H267.938V214.43ZM271.074 223.46V221.486H272.642V217.034H271.662V220.17H271.074V216.18H272.6V214.906H271.074V213.156H269.856V214.906H268.232V216.18H269.856V220.17H269.338V217.034H268.4V221.486H269.856V223.432C269.856 224.006 269.478 224.37 269.212 224.524C269.436 224.79 269.744 225.322 269.856 225.63C270.108 225.378 270.542 225.126 272.88 224.104C272.782 223.81 272.67 223.236 272.628 222.844L271.074 223.46ZM273.734 223.334C273.384 224.034 272.67 224.958 271.97 225.462C272.306 225.658 272.782 226.022 273.034 226.26C273.692 225.728 274.504 224.748 274.952 223.936L273.734 223.334ZM275.274 223.852C275.736 224.58 276.226 225.546 276.422 226.176L277.654 225.56C277.444 224.958 276.926 224.006 276.436 223.334L275.274 223.852ZM279.264 218.672H286.446V217.216H279.264V218.672ZM279.264 222.298H286.446V220.828H279.264V222.298ZM291.541 225.196C293.459 225.196 295.167 223.866 295.167 221.556C295.167 219.302 293.711 218.266 291.975 218.266C291.499 218.266 291.149 218.364 290.729 218.56L290.925 216.362H294.691V214.626H289.147L288.867 219.666L289.805 220.282C290.407 219.89 290.743 219.736 291.359 219.736C292.409 219.736 293.109 220.408 293.109 221.612C293.109 222.83 292.353 223.516 291.275 223.516C290.309 223.516 289.581 223.04 288.993 222.466L288.041 223.782C288.811 224.552 289.903 225.196 291.541 225.196ZM297.769 225H303.999V223.334H302.053V214.626H300.527C299.869 215.046 299.155 215.312 298.119 215.508V216.782H299.995V223.334H297.769V225ZM306.741 227.982C308.435 227.422 309.387 226.176 309.387 224.538C309.387 223.264 308.855 222.508 307.903 222.508C307.175 222.508 306.573 222.984 306.573 223.726C306.573 224.51 307.189 224.944 307.861 224.944C307.903 224.944 307.945 224.944 307.987 224.944C308.001 225.728 307.399 226.456 306.307 226.862L306.741 227.982ZM313.114 220.744L314.724 218.168C315.018 217.608 315.298 217.034 315.55 216.474H315.606C315.578 217.09 315.536 218.028 315.536 218.63V220.744H313.114ZM315.536 225H317.454V222.312H318.672V220.744H317.454V214.626H314.976L311.112 220.912V222.312H315.536V225ZM323.878 225.196C325.978 225.196 327.364 223.992 327.364 222.424C327.364 221.01 326.58 220.17 325.628 219.652V219.582C326.314 219.092 326.958 218.238 326.958 217.216C326.958 215.564 325.782 214.458 323.948 214.458C322.156 214.458 320.826 215.522 320.826 217.188C320.826 218.294 321.4 219.078 322.198 219.652V219.722C321.232 220.226 320.42 221.094 320.42 222.424C320.42 224.048 321.904 225.196 323.878 225.196ZM324.536 219.078C323.444 218.644 322.646 218.168 322.646 217.188C322.646 216.362 323.206 215.9 323.906 215.9C324.774 215.9 325.278 216.502 325.278 217.342C325.278 217.958 325.04 218.546 324.536 219.078ZM323.934 223.74C322.968 223.74 322.198 223.138 322.198 222.2C322.198 221.43 322.59 220.73 323.15 220.282C324.494 220.828 325.446 221.276 325.446 222.354C325.446 223.25 324.816 223.74 323.934 223.74ZM332.836 225.196C334.95 225.196 336.336 223.348 336.336 219.778C336.336 216.208 334.95 214.444 332.836 214.444C330.722 214.444 329.322 216.194 329.322 219.778C329.322 223.348 330.722 225.196 332.836 225.196ZM332.836 223.586C331.94 223.586 331.268 222.69 331.268 219.778C331.268 216.88 331.94 216.04 332.836 216.04C333.732 216.04 334.39 216.88 334.39 219.778C334.39 222.69 333.732 223.586 332.836 223.586ZM337.846 227.548H339.218L342.69 213.716H341.332L337.846 227.548ZM347.614 225.196C349.588 225.196 351.254 224.09 351.254 222.186C351.254 220.828 350.358 219.96 349.196 219.638V219.568C350.288 219.134 350.918 218.322 350.918 217.202C350.918 215.438 349.56 214.444 347.558 214.444C346.34 214.444 345.346 214.934 344.45 215.718L345.5 216.978C346.116 216.404 346.718 216.068 347.46 216.068C348.342 216.068 348.846 216.544 348.846 217.356C348.846 218.28 348.23 218.938 346.326 218.938V220.408C348.58 220.408 349.182 221.052 349.182 222.06C349.182 222.998 348.468 223.516 347.418 223.516C346.48 223.516 345.724 223.054 345.108 222.452L344.142 223.754C344.87 224.58 345.976 225.196 347.614 225.196ZM356.838 225.196C358.938 225.196 360.324 223.992 360.324 222.424C360.324 221.01 359.54 220.17 358.588 219.652V219.582C359.274 219.092 359.918 218.238 359.918 217.216C359.918 215.564 358.742 214.458 356.908 214.458C355.116 214.458 353.786 215.522 353.786 217.188C353.786 218.294 354.36 219.078 355.158 219.652V219.722C354.192 220.226 353.38 221.094 353.38 222.424C353.38 224.048 354.864 225.196 356.838 225.196ZM357.496 219.078C356.404 218.644 355.606 218.168 355.606 217.188C355.606 216.362 356.166 215.9 356.866 215.9C357.734 215.9 358.238 216.502 358.238 217.342C358.238 217.958 358 218.546 357.496 219.078ZM356.894 223.74C355.928 223.74 355.158 223.138 355.158 222.2C355.158 221.43 355.55 220.73 356.11 220.282C357.454 220.828 358.406 221.276 358.406 222.354C358.406 223.25 357.776 223.74 356.894 223.74ZM364.116 217.902C364.116 216.628 364.746 215.998 365.516 215.998C366.398 215.998 367.112 216.698 367.294 218.574C366.818 219.372 366.16 219.694 365.586 219.694C364.69 219.694 364.116 219.12 364.116 217.902ZM365.236 225.196C367.294 225.196 369.212 223.502 369.212 219.582C369.212 215.984 367.448 214.444 365.488 214.444C363.71 214.444 362.226 215.774 362.226 217.902C362.226 220.1 363.472 221.164 365.194 221.164C365.894 221.164 366.776 220.744 367.322 220.044C367.224 222.634 366.272 223.516 365.11 223.516C364.494 223.516 363.864 223.194 363.486 222.774L362.394 224.02C363.01 224.65 363.948 225.196 365.236 225.196ZM371.142 218.672H378.324V217.216H371.142V218.672ZM371.142 222.298H378.324V220.828H371.142V222.298ZM380.702 225H386.932V223.334H384.986V214.626H383.46C382.802 215.046 382.088 215.312 381.052 215.508V216.782H382.928V223.334H380.702V225ZM392.334 225.196C394.308 225.196 395.974 224.09 395.974 222.186C395.974 220.828 395.078 219.96 393.916 219.638V219.568C395.008 219.134 395.638 218.322 395.638 217.202C395.638 215.438 394.28 214.444 392.278 214.444C391.06 214.444 390.066 214.934 389.17 215.718L390.22 216.978C390.836 216.404 391.438 216.068 392.18 216.068C393.062 216.068 393.566 216.544 393.566 217.356C393.566 218.28 392.95 218.938 391.046 218.938V220.408C393.3 220.408 393.902 221.052 393.902 222.06C393.902 222.998 393.188 223.516 392.138 223.516C391.2 223.516 390.444 223.054 389.828 222.452L388.862 223.754C389.59 224.58 390.696 225.196 392.334 225.196ZM398.045 225H404.989V223.264H402.749C402.259 223.264 401.573 223.32 401.055 223.376C402.945 221.528 404.499 219.512 404.499 217.636C404.499 215.704 403.197 214.444 401.237 214.444C399.823 214.444 398.899 214.99 397.947 216.012L399.067 217.132C399.599 216.558 400.215 216.068 400.971 216.068C401.965 216.068 402.525 216.698 402.525 217.748C402.525 219.344 400.859 221.29 398.045 223.81V225ZM413.535 227.828L414.823 227.282C413.647 225.238 413.115 222.886 413.115 220.576C413.115 218.294 413.647 215.928 414.823 213.884L413.535 213.338C412.219 215.494 411.449 217.79 411.449 220.576C411.449 223.39 412.219 225.658 413.535 227.828ZM425.266 223.082H428.948V221.64H425.266V220.436C425.574 220.66 425.896 220.94 426.05 221.108C426.512 220.73 426.918 220.254 427.254 219.708C427.856 220.24 428.472 220.814 428.808 221.192L429.746 220.114C429.312 219.666 428.542 219.036 427.828 218.462C428.024 217.958 428.178 217.384 428.276 216.782L426.792 216.6C426.582 217.93 426.092 219.064 425.266 219.848V216.418H423.656V219.708C423.306 219.316 422.746 218.77 422.214 218.308C422.368 217.832 422.48 217.314 422.564 216.754L421.066 216.6C420.856 218.112 420.324 219.414 419.288 220.212C419.33 219.498 419.344 218.826 419.344 218.224V215.956H429.62V214.416H425.126C424.902 213.94 424.608 213.422 424.3 212.974L422.704 213.478C422.886 213.758 423.054 214.08 423.208 214.416H417.706V218.21C417.706 220.268 417.622 223.194 416.53 225.182C416.922 225.35 417.65 225.84 417.944 226.12C418.798 224.538 419.148 222.298 419.274 220.31C419.638 220.548 420.198 220.954 420.436 221.192C420.926 220.786 421.332 220.268 421.668 219.652C422.13 220.114 422.578 220.604 422.83 220.954L423.656 219.946V221.64H420.1V223.082H423.656V224.468H419.218V225.896H429.718V224.468H425.266V223.082ZM432.952 227.828C434.282 225.658 435.052 223.39 435.052 220.576C435.052 217.79 434.282 215.494 432.952 213.338L431.678 213.884C432.854 215.928 433.386 218.294 433.386 220.576C433.386 222.886 432.854 225.238 431.678 227.282L432.952 227.828Z" fill="#808080"/>
</svg>
