<svg width="482" height="482" viewBox="0 0 482 482" fill="none" xmlns="http://www.w3.org/2000/svg">
<path d="M244.07 452.2C365.926 452.2 464.71 422.915 464.71 386.79C464.71 350.665 365.926 321.38 244.07 321.38C122.214 321.38 23.4301 350.665 23.4301 386.79C23.4301 422.915 122.214 452.2 244.07 452.2Z" fill="#73A842"/>
<path d="M438.73 355.98C438.75 357.16 438.69 358.36 438.51 359.57C436.89 370.45 427.25 377.85 417.95 382.32C358.19 411.02 286.8 406.97 222.2 408C207.54 408.23 193.04 407.36 179.36 401.69C174.11 399.52 163.23 395.29 164.12 387.83C164.87 381.57 173.3 377.62 178.19 375.26C187.33 370.85 197.02 367.63 206.63 364.43C214.09 361.95 222.13 359.9 229.13 356.22C225.29 351.98 217.07 351.51 211.93 350.98C203.5 350.11 195.02 349.89 186.57 349.28C179.05 348.73 170.99 348.24 163.89 345.47C159.54 343.77 155.02 340.81 154.73 335.67C154.5 331.63 156.68 328.62 159.63 326.34C79.6799 336.17 23.4399 359.52 23.4399 386.78C23.4399 422.9 122.22 452.19 244.08 452.19C365.93 452.19 464.72 422.91 464.72 386.78C464.71 375.65 455.3 365.16 438.73 355.98Z" fill="#9ACE7D"/>
<path d="M229.23 186.71C227.97 185.45 225.55 185.29 224.3 186.71C218.67 193.13 212.56 200.24 204.57 203.75C200.77 205.42 196.74 205.8 192.72 204.78C189.76 204.03 186.92 203.05 184.01 202.29C188.55 195.3 193.67 188.78 199.31 182.64C204.64 176.84 210.16 171.23 214.93 164.94C220.63 157.42 224.69 148.87 226.46 139.57C226.81 137.72 225.94 135.81 224.03 135.28C222.33 134.81 220.1 135.86 219.74 137.71C218.19 145.84 214.88 153.19 210.05 159.88C205.52 166.16 199.96 171.65 194.72 177.33C193.43 178.73 192.18 180.15 190.94 181.58C190.92 181.57 190.9 181.55 190.88 181.54C181.66 176.86 175.74 168.28 171.49 158.89C166.85 148.66 164.28 137.44 162.24 126.41C161.18 120.7 160.3 114.96 159.42 109.23C159.13 107.37 156.8 106.34 155.13 106.8C153.14 107.35 152.41 109.22 152.7 111.09C154.4 122.12 156.12 133.18 159 143.98C162 155.22 166.22 166.49 173.42 175.76C176.97 180.33 181.34 184.28 186.43 187.06C177.45 198.43 170.03 210.97 164.9 224.59C163.91 227.21 163.02 229.86 162.23 232.55C162.12 231.94 162.03 231.33 161.91 230.72C161.7 229.58 161.45 228.45 161.21 227.31C161.19 227.06 161.13 226.81 161.06 226.57C160.56 224.23 160.01 221.89 159.37 219.59C158.47 216.35 157.58 212.9 156.07 209.89C154.77 207.29 152.94 204.92 151.21 202.6C146.86 196.76 142.42 190.94 138.21 184.98C141.07 180.09 145.14 176.19 148.84 171.8C153.63 166.12 157.15 159.96 157.69 152.42C157.83 150.54 155.99 148.93 154.2 148.93C152.2 148.93 150.85 150.53 150.71 152.42C149.92 163.39 140.16 170.16 133.96 178.79C127.4 168.87 121.73 158.43 118.34 146.81C117.47 143.82 116.77 140.79 116.23 137.72C115.91 135.86 113.63 134.82 111.94 135.29C109.98 135.83 109.18 137.72 109.51 139.58C112.53 156.86 120.87 172.27 130.73 186.58C130.92 187.23 131.31 187.82 131.91 188.26C134.85 192.45 137.89 196.55 140.97 200.57C143.28 203.6 145.65 206.6 147.8 209.74C150.35 213.46 151.4 216.99 152.64 221.44C152.75 221.85 152.85 222.26 152.95 222.67C147.46 221.17 141.93 219.81 136.59 217.86C129.2 215.16 122.78 210.63 117.17 205.06C113.98 201.9 109.05 206.82 112.24 209.99C118.52 216.22 125.64 221.12 133.92 224.28C135.41 224.85 136.91 225.35 138.42 225.83C141.96 230.87 146.68 239.69 148.84 253.08L143.83 377.45H179C179 377.45 170.74 262.03 172.57 236.92C172.57 236.92 175.03 218.87 186.88 210.31C188.86 210.96 190.85 211.59 192.91 211.94C197.98 212.81 202.92 212.03 207.61 209.97C216.32 206.15 223.07 198.65 229.22 191.63C230.47 190.22 230.62 188.1 229.23 186.71Z" fill="#815020" stroke="#010101" stroke-width="2" stroke-miterlimit="10" stroke-linejoin="round"/>
<path d="M215.03 81.6801C213.82 81.6801 212.63 81.8001 211.48 81.9901C213.74 77.7901 215.03 72.9801 215.03 67.8801C215.03 51.4201 201.69 38.0801 185.23 38.0801C173.14 38.0801 162.75 45.3001 158.08 55.6501C153.58 46.1001 143.89 39.4701 132.64 39.4701C117.1 39.4701 104.5 52.0701 104.5 67.6001C104.5 68.8401 104.61 70.0501 104.76 71.2401C101.71 68.9801 97.9699 67.6001 93.8799 67.6001C83.7499 67.6001 75.5299 75.8201 75.5299 85.9501C75.5299 90.6901 77.3699 94.9601 80.3199 98.2201C68.9399 99.4001 60.0699 109.02 60.0699 120.71C60.0699 133.2 70.1899 143.32 82.6799 143.32C84.3999 143.32 86.0699 143.11 87.6799 142.75C89.2999 153.64 98.6699 162.01 110.02 162.01C118.45 162.01 125.79 157.38 129.68 150.54C132.69 159.48 141.13 165.93 151.09 165.93C160.69 165.93 168.87 159.94 172.15 151.5C176.16 157.81 183.2 162 191.23 162C203.72 162 213.84 151.87 213.84 139.39C213.84 134.48 212.25 129.94 209.59 126.23C211.33 126.66 213.15 126.91 215.02 126.91C227.51 126.91 237.63 116.79 237.63 104.3C237.64 91.8001 227.52 81.6801 215.03 81.6801Z" fill="#8FBE80"/>
<path d="M228.43 86.1001C226.23 99.5901 218.88 111.48 205.38 109.59C208.37 132.11 180.12 150.04 165.62 131.02C156.18 150.17 125.9 151.64 120.68 129.94C101.88 148.99 83.43 114.62 100.73 101.84C88.7 96.5701 88.27 79.3001 94.55 67.6401C94.33 67.6301 94.12 67.5801 93.89 67.5801C83.76 67.5801 75.54 75.8001 75.54 85.9301C75.54 90.6701 77.38 94.9401 80.33 98.2001C68.95 99.3801 60.08 109 60.08 120.69C60.08 133.18 70.2 143.3 82.69 143.3C84.41 143.3 86.08 143.09 87.69 142.73C89.31 153.62 98.68 161.99 110.03 161.99C118.46 161.99 125.8 157.36 129.69 150.52C132.7 159.46 141.14 165.91 151.1 165.91C160.7 165.91 168.88 159.92 172.16 151.48C176.17 157.79 183.21 161.98 191.24 161.98C203.73 161.98 213.85 151.85 213.85 139.37C213.85 134.46 212.26 129.92 209.6 126.21C211.34 126.64 213.16 126.89 215.03 126.89C227.52 126.89 237.64 116.77 237.64 104.28C237.64 96.8201 234 90.2201 228.43 86.1001Z" fill="#68AE58"/>
<path d="M215.03 81.6801C213.82 81.6801 212.63 81.8001 211.48 81.9901C213.74 77.7901 215.03 72.9801 215.03 67.8801C215.03 51.4201 201.69 38.0801 185.23 38.0801C173.14 38.0801 162.75 45.3001 158.08 55.6501C153.58 46.1001 143.89 39.4701 132.64 39.4701C117.1 39.4701 104.5 52.0701 104.5 67.6001C104.5 68.8401 104.61 70.0501 104.76 71.2401C101.71 68.9801 97.9699 67.6001 93.8799 67.6001C83.7499 67.6001 75.5299 75.8201 75.5299 85.9501C75.5299 90.6901 77.3699 94.9601 80.3199 98.2201C68.9399 99.4001 60.0699 109.02 60.0699 120.71C60.0699 133.2 70.1899 143.32 82.6799 143.32C84.3999 143.32 86.0699 143.11 87.6799 142.75C89.2999 153.64 98.6699 162.01 110.02 162.01C118.45 162.01 125.79 157.38 129.68 150.54C132.69 159.48 141.13 165.93 151.09 165.93C160.69 165.93 168.87 159.94 172.15 151.5C176.16 157.81 183.2 162 191.23 162C203.72 162 213.84 151.87 213.84 139.39C213.84 134.48 212.25 129.94 209.59 126.23C211.33 126.66 213.15 126.91 215.02 126.91C227.51 126.91 237.63 116.79 237.63 104.3C237.64 91.8001 227.52 81.6801 215.03 81.6801Z" stroke="#010101" stroke-width="2.5" stroke-miterlimit="10" stroke-linejoin="round"/>
<path d="M131.22 176.71C130.48 176.71 129.75 176.79 129.04 176.9C130.43 174.32 131.22 171.38 131.22 168.24C131.22 158.15 123.04 149.97 112.94 149.97C105.52 149.97 99.1501 154.4 96.2901 160.74C93.5301 154.88 87.5901 150.81 80.6901 150.81C71.1601 150.81 63.4301 158.54 63.4301 168.06C63.4301 168.82 63.5001 169.56 63.5901 170.29C61.7201 168.9 59.4301 168.06 56.9201 168.06C50.7001 168.06 45.6601 173.1 45.6601 179.31C45.6601 182.21 46.7901 184.84 48.6001 186.83C41.6201 187.55 36.1801 193.45 36.1801 200.62C36.1801 208.28 42.3901 214.49 50.0501 214.49C51.1101 214.49 52.1301 214.36 53.1201 214.14C54.1201 220.82 59.8601 225.95 66.8201 225.95C71.9901 225.95 76.4901 223.11 78.8801 218.92C80.73 224.4 85.9001 228.36 92.0101 228.36C97.9001 228.36 102.91 224.69 104.93 219.51C107.39 223.38 111.71 225.95 116.63 225.95C124.29 225.95 130.5 219.74 130.5 212.08C130.5 209.07 129.53 206.28 127.89 204.01C128.96 204.27 130.07 204.43 131.22 204.43C138.88 204.43 145.09 198.22 145.09 190.56C145.09 182.92 138.88 176.71 131.22 176.71Z" fill="#68B246"/>
<path d="M139.44 179.42C138.09 187.69 133.58 194.99 125.3 193.83C127.13 207.64 109.81 218.64 100.92 206.97C95.1301 218.71 76.5601 219.61 73.3601 206.31C61.8301 217.99 50.5201 196.91 61.1201 189.08C53.7401 185.85 53.4801 175.26 57.3301 168.11C57.1901 168.1 57.0601 168.07 56.9201 168.07C50.7001 168.07 45.6601 173.11 45.6601 179.32C45.6601 182.22 46.7901 184.85 48.6001 186.84C41.6201 187.56 36.1801 193.46 36.1801 200.63C36.1801 208.29 42.3901 214.5 50.0501 214.5C51.1101 214.5 52.1301 214.37 53.1201 214.15C54.1201 220.83 59.8601 225.96 66.8201 225.96C71.9901 225.96 76.4901 223.12 78.8801 218.93C80.73 224.41 85.9001 228.37 92.0101 228.37C97.9001 228.37 102.91 224.7 104.93 219.52C107.39 223.39 111.71 225.96 116.63 225.96C124.29 225.96 130.5 219.75 130.5 212.09C130.5 209.08 129.53 206.29 127.89 204.02C128.96 204.28 130.07 204.44 131.22 204.44C138.88 204.44 145.09 198.23 145.09 190.57C145.09 186 142.86 181.95 139.44 179.42Z" fill="#62A045"/>
<path d="M131.22 176.71C130.48 176.71 129.75 176.79 129.04 176.9C130.43 174.32 131.22 171.38 131.22 168.24C131.22 158.15 123.04 149.97 112.94 149.97C105.52 149.97 99.1501 154.4 96.2901 160.74C93.5301 154.88 87.5901 150.81 80.6901 150.81C71.1601 150.81 63.4301 158.54 63.4301 168.06C63.4301 168.82 63.5001 169.56 63.5901 170.29C61.7201 168.9 59.4301 168.06 56.9201 168.06C50.7001 168.06 45.6601 173.1 45.6601 179.31C45.6601 182.21 46.7901 184.84 48.6001 186.83C41.6201 187.55 36.1801 193.45 36.1801 200.62C36.1801 208.28 42.3901 214.49 50.0501 214.49C51.1101 214.49 52.1301 214.36 53.1201 214.14C54.1201 220.82 59.8601 225.95 66.8201 225.95C71.9901 225.95 76.4901 223.11 78.8801 218.92C80.7301 224.4 85.9001 228.36 92.0101 228.36C97.9001 228.36 102.91 224.69 104.93 219.51C107.39 223.38 111.71 225.95 116.63 225.95C124.29 225.95 130.5 219.74 130.5 212.08C130.5 209.07 129.53 206.28 127.89 204.01C128.96 204.27 130.07 204.43 131.22 204.43C138.88 204.43 145.09 198.22 145.09 190.56C145.09 182.92 138.88 176.71 131.22 176.71Z" stroke="#010101" stroke-width="2.5" stroke-miterlimit="10" stroke-linejoin="round"/>
<path d="M112.21 106.78C111.47 106.78 110.74 106.86 110.03 106.97C111.42 104.39 112.21 101.45 112.21 98.31C112.21 88.22 104.03 80.04 93.93 80.04C86.51 80.04 80.14 84.47 77.28 90.81C74.52 84.95 68.58 80.88 61.68 80.88C52.15 80.88 44.42 88.61 44.42 98.13C44.42 98.89 44.49 99.63 44.58 100.36C42.71 98.97 40.42 98.13 37.91 98.13C31.69 98.13 26.65 103.17 26.65 109.38C26.65 112.28 27.78 114.91 29.59 116.9C22.61 117.62 17.17 123.52 17.17 130.69C17.17 138.35 23.38 144.56 31.04 144.56C32.1 144.56 33.12 144.43 34.11 144.21C35.11 150.89 40.85 156.02 47.81 156.02C52.98 156.02 57.48 153.18 59.87 148.99C61.72 154.47 66.89 158.43 73 158.43C78.89 158.43 83.9 154.76 85.92 149.58C88.38 153.45 92.7001 156.02 97.62 156.02C105.28 156.02 111.49 149.81 111.49 142.15C111.49 139.14 110.52 136.35 108.88 134.08C109.95 134.34 111.06 134.5 112.21 134.5C119.87 134.5 126.08 128.29 126.08 120.63C126.08 112.98 119.87 106.78 112.21 106.78Z" fill="#8FBE80"/>
<path d="M120.43 109.49C119.08 117.76 114.57 125.06 106.29 123.9C108.12 137.71 90.8 148.71 81.91 137.04C76.12 148.78 57.55 149.68 54.35 136.38C42.82 148.06 31.51 126.98 42.11 119.15C34.73 115.92 34.47 105.33 38.32 98.1799C38.18 98.1699 38.05 98.1399 37.91 98.1399C31.69 98.1399 26.65 103.18 26.65 109.39C26.65 112.29 27.78 114.92 29.59 116.91C22.61 117.63 17.17 123.53 17.17 130.7C17.17 138.36 23.38 144.57 31.04 144.57C32.1 144.57 33.12 144.44 34.11 144.22C35.11 150.9 40.85 156.03 47.81 156.03C52.98 156.03 57.48 153.19 59.87 149C61.72 154.48 66.89 158.44 73 158.44C78.89 158.44 83.9 154.77 85.92 149.59C88.38 153.46 92.7001 156.03 97.62 156.03C105.28 156.03 111.49 149.82 111.49 142.16C111.49 139.15 110.52 136.36 108.88 134.09C109.95 134.35 111.06 134.51 112.21 134.51C119.87 134.51 126.08 128.3 126.08 120.64C126.08 116.06 123.85 112.02 120.43 109.49Z" fill="#68AE58"/>
<path d="M112.21 106.78C111.47 106.78 110.74 106.86 110.03 106.97C111.42 104.39 112.21 101.45 112.21 98.31C112.21 88.22 104.03 80.04 93.93 80.04C86.51 80.04 80.14 84.47 77.28 90.81C74.52 84.95 68.58 80.88 61.68 80.88C52.15 80.88 44.42 88.61 44.42 98.13C44.42 98.89 44.49 99.63 44.58 100.36C42.71 98.97 40.42 98.13 37.91 98.13C31.69 98.13 26.65 103.17 26.65 109.38C26.65 112.28 27.78 114.91 29.59 116.9C22.61 117.62 17.17 123.52 17.17 130.69C17.17 138.35 23.38 144.56 31.04 144.56C32.1 144.56 33.12 144.43 34.11 144.21C35.11 150.89 40.85 156.02 47.81 156.02C52.98 156.02 57.48 153.18 59.87 148.99C61.72 154.47 66.89 158.43 73 158.43C78.89 158.43 83.9 154.76 85.92 149.58C88.38 153.45 92.7 156.02 97.62 156.02C105.28 156.02 111.49 149.81 111.49 142.15C111.49 139.14 110.52 136.35 108.88 134.08C109.95 134.34 111.06 134.5 112.21 134.5C119.87 134.5 126.08 128.29 126.08 120.63C126.08 112.98 119.87 106.78 112.21 106.78Z" stroke="#010101" stroke-width="2.5" stroke-miterlimit="10" stroke-linejoin="round"/>
<path d="M278.22 106.78C277.48 106.78 276.75 106.86 276.04 106.97C277.43 104.39 278.22 101.45 278.22 98.31C278.22 88.22 270.04 80.04 259.94 80.04C252.52 80.04 246.15 84.47 243.29 90.81C240.53 84.95 234.59 80.88 227.69 80.88C218.16 80.88 210.43 88.61 210.43 98.13C210.43 98.89 210.5 99.63 210.59 100.36C208.72 98.97 206.43 98.13 203.92 98.13C197.7 98.13 192.66 103.17 192.66 109.38C192.66 112.28 193.79 114.91 195.6 116.9C188.62 117.62 183.18 123.52 183.18 130.69C183.18 138.35 189.39 144.56 197.05 144.56C198.11 144.56 199.13 144.43 200.12 144.21C201.12 150.89 206.86 156.02 213.82 156.02C218.99 156.02 223.49 153.18 225.88 148.99C227.73 154.47 232.9 158.43 239.01 158.43C244.9 158.43 249.91 154.76 251.93 149.58C254.39 153.45 258.71 156.02 263.63 156.02C271.29 156.02 277.5 149.81 277.5 142.15C277.5 139.14 276.53 136.35 274.89 134.08C275.96 134.34 277.07 134.5 278.22 134.5C285.88 134.5 292.09 130.29 292.09 122.63C292.09 114.98 285.88 106.78 278.22 106.78Z" fill="#68B246"/>
<path d="M286.44 109.49C285.09 117.76 280.58 125.06 272.3 123.9C274.13 137.71 256.81 148.71 247.92 137.04C242.13 148.78 223.56 149.68 220.36 136.38C208.83 148.06 197.52 126.98 208.12 119.15C200.74 115.92 200.48 105.33 204.33 98.1799C204.19 98.1699 204.06 98.1399 203.92 98.1399C197.7 98.1399 192.66 103.18 192.66 109.39C192.66 112.29 193.79 114.92 195.6 116.91C188.62 117.63 183.18 123.53 183.18 130.7C183.18 138.36 189.39 144.57 197.05 144.57C198.11 144.57 199.13 144.44 200.12 144.22C201.12 150.9 206.86 156.03 213.82 156.03C218.99 156.03 223.49 153.19 225.88 149C227.73 154.48 232.9 158.44 239.01 158.44C244.9 158.44 249.91 154.77 251.93 149.59C254.39 153.46 258.71 156.03 263.63 156.03C271.29 156.03 277.5 149.82 277.5 142.16C277.5 139.15 276.53 136.36 274.89 134.09C275.96 134.35 277.07 134.51 278.22 134.51C285.88 134.51 292.09 130.3 292.09 122.64C292.09 118.06 289.86 112.02 286.44 109.49Z" fill="#62A045"/>
<path d="M278.22 106.78C277.48 106.78 276.75 106.86 276.04 106.97C277.43 104.39 278.22 101.45 278.22 98.31C278.22 88.22 270.04 80.04 259.94 80.04C252.52 80.04 246.15 84.47 243.29 90.81C240.53 84.95 234.59 80.88 227.69 80.88C218.16 80.88 210.43 88.61 210.43 98.13C210.43 98.89 210.5 99.63 210.59 100.36C208.72 98.97 206.43 98.13 203.92 98.13C197.7 98.13 192.66 103.17 192.66 109.38C192.66 112.28 193.79 114.91 195.6 116.9C188.62 117.62 183.18 123.52 183.18 130.69C183.18 138.35 189.39 144.56 197.05 144.56C198.11 144.56 199.13 144.43 200.12 144.21C201.12 150.89 206.86 156.02 213.82 156.02C218.99 156.02 223.49 153.18 225.88 148.99C227.73 154.47 232.9 158.43 239.01 158.43C244.9 158.43 249.91 154.76 251.93 149.58C254.39 153.45 258.71 156.02 263.63 156.02C271.29 156.02 277.5 149.81 277.5 142.15C277.5 139.14 276.53 136.35 274.89 134.08C275.96 134.34 277.07 134.5 278.22 134.5C285.88 134.5 292.09 130.29 292.09 122.63C292.09 114.98 285.88 106.78 278.22 106.78Z" stroke="#010101" stroke-width="2.5" stroke-miterlimit="10" stroke-linejoin="round"/>
<path d="M191.05 136.07C190.38 136.07 189.72 136.14 189.07 136.24C190.33 133.9 191.05 131.23 191.05 128.38C191.05 119.22 183.62 111.79 174.46 111.79C167.73 111.79 161.94 115.81 159.34 121.57C156.83 116.25 151.44 112.56 145.18 112.56C136.53 112.56 129.52 119.57 129.52 128.22C129.52 128.91 129.58 129.58 129.67 130.25C127.97 128.99 125.89 128.22 123.61 128.22C117.97 128.22 113.39 132.8 113.39 138.44C113.39 141.08 114.42 143.46 116.06 145.27C109.73 145.93 104.79 151.28 104.79 157.79C104.79 164.74 110.43 170.38 117.38 170.38C118.34 170.38 119.27 170.26 120.16 170.06C121.06 176.13 126.28 180.78 132.59 180.78C137.28 180.78 141.37 178.2 143.54 174.4C145.22 179.38 149.92 182.97 155.46 182.97C160.8 182.97 165.36 179.64 167.19 174.94C169.42 178.45 173.34 180.79 177.81 180.79C184.76 180.79 190.4 175.15 190.4 168.2C190.4 165.46 189.52 162.94 188.03 160.87C189 161.11 190.01 161.25 191.06 161.25C198.01 161.25 203.65 155.61 203.65 148.66C203.64 141.71 198.01 136.07 191.05 136.07Z" fill="#B0D4A0"/>
<path d="M198.51 138.53C197.29 146.04 193.19 152.66 185.68 151.61C187.34 164.15 171.62 174.13 163.55 163.54C158.3 174.2 141.44 175.02 138.53 162.94C128.06 173.54 117.79 154.41 127.42 147.3C120.72 144.37 120.48 134.75 123.98 128.26C123.86 128.25 123.74 128.23 123.61 128.23C117.97 128.23 113.39 132.81 113.39 138.45C113.39 141.09 114.42 143.47 116.06 145.28C109.73 145.94 104.79 151.29 104.79 157.8C104.79 164.75 110.43 170.39 117.38 170.39C118.34 170.39 119.27 170.27 120.16 170.07C121.06 176.14 126.28 180.79 132.59 180.79C137.28 180.79 141.37 178.21 143.54 174.41C145.22 179.39 149.92 182.98 155.46 182.98C160.8 182.98 165.36 179.65 167.19 174.95C169.42 178.46 173.34 180.8 177.81 180.8C184.76 180.8 190.4 175.16 190.4 168.21C190.4 165.47 189.52 162.95 188.03 160.88C189 161.12 190.01 161.26 191.06 161.26C198.01 161.26 203.65 155.62 203.65 148.67C203.64 144.5 201.62 140.83 198.51 138.53Z" fill="#92CC82"/>
<path d="M191.05 136.07C190.38 136.07 189.72 136.14 189.07 136.24C190.33 133.9 191.05 131.23 191.05 128.38C191.05 119.22 183.62 111.79 174.46 111.79C167.73 111.79 161.94 115.81 159.34 121.57C156.83 116.25 151.44 112.56 145.18 112.56C136.53 112.56 129.52 119.57 129.52 128.22C129.52 128.91 129.58 129.58 129.67 130.25C127.97 128.99 125.89 128.22 123.61 128.22C117.97 128.22 113.39 132.8 113.39 138.44C113.39 141.08 114.42 143.46 116.06 145.27C109.73 145.93 104.79 151.28 104.79 157.79C104.79 164.74 110.43 170.38 117.38 170.38C118.34 170.38 119.27 170.26 120.16 170.06C121.06 176.13 126.28 180.78 132.59 180.78C137.28 180.78 141.37 178.2 143.54 174.4C145.22 179.38 149.92 182.97 155.46 182.97C160.8 182.97 165.36 179.64 167.19 174.94C169.42 178.45 173.34 180.79 177.81 180.79C184.76 180.79 190.4 175.15 190.4 168.2C190.4 165.46 189.52 162.94 188.03 160.87C189 161.11 190.01 161.25 191.06 161.25C198.01 161.25 203.65 155.61 203.65 148.66C203.64 141.71 198.01 136.07 191.05 136.07Z" stroke="#010101" stroke-width="2.5" stroke-miterlimit="10" stroke-linejoin="round"/>
<path d="M263.68 176.71C262.94 176.71 262.21 176.79 261.5 176.9C262.89 174.32 263.68 171.38 263.68 168.24C263.68 158.15 255.5 149.97 245.4 149.97C237.98 149.97 231.61 154.4 228.75 160.74C225.99 154.88 220.05 150.81 213.15 150.81C203.62 150.81 195.89 158.54 195.89 168.06C195.89 168.82 195.96 169.56 196.05 170.29C194.18 168.9 191.89 168.06 189.38 168.06C183.16 168.06 178.12 173.1 178.12 179.31C178.12 182.21 179.25 184.84 181.06 186.83C174.08 187.55 168.64 193.45 168.64 200.62C168.64 208.28 174.85 214.49 182.51 214.49C183.57 214.49 184.59 214.36 185.58 214.14C186.58 220.82 192.32 225.95 199.28 225.95C204.45 225.95 208.95 223.11 211.34 218.92C213.19 224.4 218.36 228.36 224.47 228.36C230.36 228.36 235.37 224.69 237.39 219.51C239.85 223.38 244.17 225.95 249.09 225.95C256.75 225.95 262.96 219.74 262.96 212.08C262.96 209.07 261.99 206.28 260.35 204.01C261.42 204.27 262.53 204.43 263.68 204.43C271.34 204.43 277.55 198.22 277.55 190.56C277.55 182.9 271.34 176.71 263.68 176.71Z" fill="#8FBE80"/>
<path d="M271.89 179.43C270.54 187.7 266.03 195 257.75 193.84C259.58 207.65 242.26 218.65 233.37 206.98C227.58 218.72 209.01 219.62 205.81 206.32C194.28 218 182.97 196.92 193.57 189.09C186.19 185.86 185.93 175.27 189.78 168.12C189.64 168.11 189.51 168.08 189.37 168.08C183.15 168.08 178.11 173.12 178.11 179.33C178.11 182.23 179.24 184.86 181.05 186.85C174.07 187.57 168.63 193.47 168.63 200.64C168.63 208.3 174.84 214.51 182.5 214.51C183.56 214.51 184.58 214.38 185.57 214.16C186.57 220.84 192.31 225.97 199.27 225.97C204.44 225.97 208.94 223.13 211.33 218.94C213.18 224.42 218.35 228.38 224.46 228.38C230.35 228.38 235.36 224.71 237.38 219.53C239.84 223.4 244.16 225.97 249.08 225.97C256.74 225.97 262.95 219.76 262.95 212.1C262.95 209.09 261.98 206.3 260.34 204.03C261.41 204.29 262.52 204.45 263.67 204.45C271.33 204.45 277.54 198.24 277.54 190.58C277.54 186 275.32 181.95 271.89 179.43Z" fill="#68AE58"/>
<path d="M263.68 176.71C262.94 176.71 262.21 176.79 261.5 176.9C262.89 174.32 263.68 171.38 263.68 168.24C263.68 158.15 255.5 149.97 245.4 149.97C237.98 149.97 231.61 154.4 228.75 160.74C225.99 154.88 220.05 150.81 213.15 150.81C203.62 150.81 195.89 158.54 195.89 168.06C195.89 168.82 195.96 169.56 196.05 170.29C194.18 168.9 191.89 168.06 189.38 168.06C183.16 168.06 178.12 173.1 178.12 179.31C178.12 182.21 179.25 184.84 181.06 186.83C174.08 187.55 168.64 193.45 168.64 200.62C168.64 208.28 174.85 214.49 182.51 214.49C183.57 214.49 184.59 214.36 185.58 214.14C186.58 220.82 192.32 225.95 199.28 225.95C204.45 225.95 208.95 223.11 211.34 218.92C213.19 224.4 218.36 228.36 224.47 228.36C230.36 228.36 235.37 224.69 237.39 219.51C239.85 223.38 244.17 225.95 249.09 225.95C256.75 225.95 262.96 219.74 262.96 212.08C262.96 209.07 261.99 206.28 260.35 204.01C261.42 204.27 262.53 204.43 263.68 204.43C271.34 204.43 277.55 198.22 277.55 190.56C277.55 182.9 271.34 176.71 263.68 176.71Z" stroke="#010101" stroke-width="2.5" stroke-miterlimit="10" stroke-linejoin="round"/>
<path d="M245.88 319.36C245.19 319.36 244.63 318.8 244.63 318.11V238.52C244.63 237.83 245.19 237.27 245.88 237.27H254.75C255.44 237.27 256 237.83 256 238.52V318.11C256 318.8 255.44 319.36 254.75 319.36H245.88Z" fill="#BE7A5B"/>
<path d="M254.75 238.52V318.11H245.88V238.52H254.75ZM254.75 236.02H245.88C244.5 236.02 243.38 237.14 243.38 238.52V318.11C243.38 319.49 244.5 320.61 245.88 320.61H254.75C256.13 320.61 257.25 319.49 257.25 318.11V238.52C257.25 237.14 256.13 236.02 254.75 236.02Z" fill="#010101"/>
<path d="M364.52 319.36C363.83 319.36 363.27 318.8 363.27 318.11V238.52C363.27 237.83 363.83 237.27 364.52 237.27H373.39C374.08 237.27 374.64 237.83 374.64 238.52V318.11C374.64 318.8 374.08 319.36 373.39 319.36H364.52Z" fill="#BE7A5B"/>
<path d="M373.39 238.52V318.11H364.52V238.52H373.39ZM373.39 236.02H364.52C363.14 236.02 362.02 237.14 362.02 238.52V318.11C362.02 319.49 363.14 320.61 364.52 320.61H373.39C374.77 320.61 375.89 319.49 375.89 318.11V238.52C375.89 237.14 374.77 236.02 373.39 236.02Z" fill="#010101"/>
<path d="M210.95 266.38C210.26 266.38 209.7 265.82 209.7 265.13V246.28C209.7 245.59 210.26 245.03 210.95 245.03H408.32C409.01 245.03 409.57 245.59 409.57 246.28V265.13C409.57 265.82 409.01 266.38 408.32 266.38H210.95Z" fill="#D09368"/>
<path d="M408.32 246.28V265.13H210.95V246.28H408.32ZM408.32 243.78H210.95C209.57 243.78 208.45 244.9 208.45 246.28V265.13C208.45 266.51 209.57 267.63 210.95 267.63H408.32C409.7 267.63 410.82 266.51 410.82 265.13V246.28C410.82 244.9 409.7 243.78 408.32 243.78Z" fill="#010101"/>
<path d="M210.95 296.32C210.26 296.32 209.7 295.76 209.7 295.07V276.22C209.7 275.53 210.26 274.97 210.95 274.97H408.32C409.01 274.97 409.57 275.53 409.57 276.22V295.07C409.57 295.76 409.01 296.32 408.32 296.32H210.95Z" fill="#D09368"/>
<path d="M408.32 276.22V295.07H210.95V276.22H408.32ZM408.32 273.72H210.95C209.57 273.72 208.45 274.84 208.45 276.22V295.07C208.45 296.45 209.57 297.57 210.95 297.57H408.32C409.7 297.57 410.82 296.45 410.82 295.07V276.22C410.82 274.84 409.7 273.72 408.32 273.72Z" fill="#010101"/>
<path d="M200.6 332.55C200.11 332.55 199.66 332.26 199.46 331.82C199.26 331.37 199.34 330.85 199.66 330.48L211.24 317.3C211.48 317.03 211.82 316.88 212.18 316.88H407.09C407.45 316.88 407.79 317.04 408.03 317.3L419.61 330.48C419.93 330.85 420.01 331.37 419.81 331.82C419.61 332.27 419.16 332.55 418.67 332.55H200.6Z" fill="#D09368"/>
<path d="M407.09 318.11L418.67 331.29H200.6L212.18 318.11H407.09ZM407.09 315.61H212.18C211.46 315.61 210.78 315.92 210.3 316.46L198.72 329.64C198.07 330.38 197.92 331.43 198.32 332.32C198.73 333.21 199.62 333.79 200.6 333.79H418.67C419.65 333.79 420.54 333.22 420.95 332.32C421.35 331.43 421.2 330.38 420.55 329.64L408.97 316.46C408.5 315.92 407.81 315.61 407.09 315.61Z" fill="#010101"/>
<path d="M226.75 373.58C226.06 373.58 225.5 373.02 225.5 372.33V331.3C225.5 330.61 226.06 330.05 226.75 330.05H234.51C235.2 330.05 235.76 330.61 235.76 331.3V372.33C235.76 373.02 235.2 373.58 234.51 373.58H226.75Z" fill="#BE7A5B"/>
<path d="M234.51 331.3V372.33H226.75V331.3H234.51ZM234.51 328.8H226.75C225.37 328.8 224.25 329.92 224.25 331.3V372.33C224.25 373.71 225.37 374.83 226.75 374.83H234.51C235.89 374.83 237.01 373.71 237.01 372.33V331.3C237.01 329.92 235.89 328.8 234.51 328.8Z" fill="#010101"/>
<path d="M384.76 373.58C384.07 373.58 383.51 373.02 383.51 372.33V331.3C383.51 330.61 384.07 330.05 384.76 330.05H392.52C393.21 330.05 393.77 330.61 393.77 331.3V372.33C393.77 373.02 393.21 373.58 392.52 373.58H384.76Z" fill="#BE7A5B"/>
<path d="M392.52 331.3V372.33H384.76V331.3H392.52ZM392.52 328.8H384.76C383.38 328.8 382.26 329.92 382.26 331.3V372.33C382.26 373.71 383.38 374.83 384.76 374.83H392.52C393.9 374.83 395.02 373.71 395.02 372.33V331.3C395.02 329.92 393.9 328.8 392.52 328.8Z" fill="#010101"/>
<path d="M200.6 337.62C199.91 337.62 199.35 337.06 199.35 336.37V331.3C199.35 330.61 199.91 330.05 200.6 330.05H418.95C419.64 330.05 420.2 330.61 420.2 331.3V336.37C420.2 337.06 419.64 337.62 418.95 337.62H200.6Z" fill="#BE7A5B"/>
<path d="M418.95 331.3V336.37H200.6V331.3H418.95ZM418.95 328.8H200.6C199.22 328.8 198.1 329.92 198.1 331.3V336.37C198.1 337.75 199.22 338.87 200.6 338.87H418.95C420.33 338.87 421.45 337.75 421.45 336.37V331.3C421.45 329.92 420.33 328.8 418.95 328.8Z" fill="#010101"/>
<path d="M78.8499 357.5C80.1899 357.5 81.4899 357.69 82.7299 358.03C81.4399 355.46 80.6899 352.57 80.6899 349.5C80.6899 338.98 89.2199 330.45 99.7399 330.45C108.42 330.45 115.73 336.26 118.03 344.19C120.76 340.86 124.91 338.73 129.56 338.73C137.79 338.73 144.47 345.4 144.47 353.64C144.47 355.18 144.24 356.66 143.8 358.06C145.07 357.71 146.4 357.51 147.78 357.51C156.01 357.51 162.69 364.18 162.69 372.42C162.69 380.65 156.02 387.33 147.78 387.33H78.8499C70.6199 387.33 63.9399 380.66 63.9399 372.42C63.9499 364.17 70.6199 357.5 78.8499 357.5Z" fill="#62B846" stroke="#010101" stroke-width="2.5" stroke-miterlimit="10" stroke-linejoin="round"/>
<path d="M253.47 240.51C253.47 240.51 249.65 220.18 233.85 221.25C218.05 222.32 208.95 231.96 209.93 246.86C210.92 261.76 207.89 275.24 214.82 293.82C217.72 301.6 235.26 331.98 246.2 337.25C246.54 337.41 269.2 341.62 260.39 306.72C251.58 271.82 251.69 279.37 252.58 268.76C253.48 258.16 257.76 255.88 253.47 240.51Z" fill="#8EC23F"/>
<path d="M249.88 338.58C247.63 338.72 245.94 338.39 245.71 338.28C234.11 332.68 216.37 301.21 213.76 294.22C208.75 280.78 208.87 269.95 208.99 259.48C209.04 255.2 209.08 251.16 208.8 246.93C207.78 231.5 217.35 221.22 233.77 220.11C233.8 220.11 233.83 220.11 233.86 220.1C240.74 219.67 246.51 223.05 250.56 229.89C253.43 234.74 254.46 239.65 254.57 240.24C257.57 251.02 256.45 255.55 255.16 260.8C254.58 263.16 253.98 265.59 253.7 268.85C253.64 269.51 253.59 270.09 253.54 270.63C253.1 275.55 253.1 275.55 255.23 283.08C256.52 287.63 258.46 294.5 261.47 306.44C265.13 320.91 263.96 330.71 258 335.57C255.4 337.72 252.31 338.43 249.88 338.58ZM246.59 336.18C247.27 336.3 253.24 337.23 257.35 333.13C261.81 328.67 262.47 319.64 259.28 307.01C256.27 295.1 254.33 288.25 253.05 283.71C250.85 275.92 250.81 275.78 251.28 270.44C251.33 269.91 251.38 269.33 251.43 268.67C251.72 265.23 252.37 262.59 252.94 260.27C254.16 255.33 255.21 251.06 252.35 240.82L252.33 240.72C252.32 240.67 251.36 235.73 248.56 231.01C244.93 224.9 240.03 222 233.99 222.38C233.96 222.38 233.94 222.38 233.91 222.39C218.65 223.42 210.11 232.54 211.05 246.79C211.34 251.11 211.29 255.38 211.24 259.51C211.12 269.77 211 280.38 215.87 293.43C218.86 301.38 236.19 331.02 246.59 336.18Z" fill="#231916"/>
<path d="M237.08 305.46C236.63 305.14 226.33 283.55 224.83 279.87C223.33 276.19 216.46 258.88 207.18 261.92C197.9 264.96 199.4 275.53 204.4 286.82C209.4 298.12 216.97 301.55 218.98 309.14C220.99 316.73 229.55 329.97 235.27 331.97C240.99 333.98 252.8 350.4 252.8 350.4C252.8 350.4 255.84 344.77 250.99 333.64C246.13 322.52 245.7 311.64 237.08 305.46Z" fill="#5EB446"/>
<path d="M252.94 352.54L251.88 351.06C248.65 346.57 239.31 334.59 234.89 333.04C231.01 331.68 226.9 326.35 224.79 323.29C221.54 318.57 218.89 313.26 217.87 309.42C216.94 305.92 214.67 303.27 212.03 300.21C209.18 296.89 205.94 293.14 203.35 287.27C199.28 278.06 198.26 271.04 200.33 266.4C201.52 263.73 203.7 261.86 206.82 260.83C215.19 258.09 221.75 269.31 225.79 279.21L225.88 279.42C227.29 282.88 236.73 302.66 237.9 304.63C244.03 309.12 246.18 315.93 248.46 323.13C249.49 326.39 250.55 329.77 252.04 333.17C257.06 344.67 253.95 350.67 253.81 350.92L252.94 352.54ZM208.98 262.73C208.47 262.76 207.98 262.86 207.53 263.01C205.01 263.84 203.34 265.25 202.41 267.34C200.62 271.37 201.63 277.77 205.44 286.37C207.9 291.93 211.01 295.55 213.76 298.74C216.58 302.02 219.02 304.85 220.08 308.86C222.41 317.69 231.21 329.35 235.65 330.91C238.22 331.81 242.05 335.28 247.06 341.22C249.23 343.79 251.16 346.3 252.38 347.92C252.48 347.38 252.56 346.73 252.6 345.96C252.71 343.56 252.33 339.55 249.96 334.11C248.43 330.6 247.35 327.17 246.3 323.85C244.03 316.65 242.07 310.44 236.43 306.4C236.14 306.19 235.86 305.99 230.34 294.43C227.75 289.01 224.59 282.28 223.79 280.32L223.7 280.1C217.84 265.77 212.66 262.5 208.98 262.73Z" fill="#231916"/>
<path d="M276.43 389.23C276.43 389.23 272.87 394.14 267.68 390.17C262.49 386.2 256.32 376.87 255.29 366.56C254.26 356.25 251.03 351.06 247.37 343.38C243.71 335.7 217.29 301.16 214.83 293.82C212.74 287.6 247.75 328.45 253.3 342.29C258.84 356.13 275.77 367.5 276.43 389.23Z" fill="#DFEED7"/>
<path d="M272.1 392.84C270.39 392.95 268.67 392.35 266.99 391.07C261.4 386.8 255.2 377.05 254.16 366.67C253.3 358.05 250.91 353.2 247.9 347.06C247.39 346.03 246.88 344.98 246.35 343.87C244.76 340.53 238.63 331.81 232.14 322.57C223.8 310.69 215.17 298.41 213.75 294.19C213.24 292.66 214.24 292.21 214.45 292.13C215.2 291.85 215.91 291.59 221.81 297.95C225.23 301.64 229.47 306.58 233.76 311.87C237.74 316.78 250.97 333.43 254.35 341.87C256.27 346.66 259.64 351.21 263.2 356.03C269.73 364.85 277.13 374.84 277.56 389.19L277.57 389.58L277.34 389.89C277.27 389.99 275.52 392.35 272.61 392.78C272.44 392.81 272.27 392.83 272.1 392.84ZM217.55 296.8C220.76 302.41 227.71 312.31 234 321.26C240.55 330.58 246.73 339.38 248.4 342.89C248.92 343.99 249.44 345.04 249.94 346.06C252.94 352.15 255.52 357.42 256.43 366.45C257.4 376.18 263.18 385.29 268.37 389.26C269.72 390.29 271.03 390.71 272.29 390.53C273.75 390.32 274.83 389.32 275.28 388.83C274.74 375.43 267.95 366.25 261.38 357.38C257.72 352.44 254.27 347.77 252.24 342.71C250.11 337.4 242.85 326.79 232.82 314.32C226.17 306.07 220.73 299.99 217.55 296.8Z" fill="#231916"/>
<path d="M291.88 305.65C291.88 305.65 302.92 291.44 298.73 281.56C294.54 271.68 294.89 268.3 290.61 262.76C286.33 257.22 288.17 251.74 286.94 246.15C285.71 240.56 287.1 228.14 263.83 226.77C240.56 225.39 236.74 259.8 237.53 277.63C238.33 295.46 259.64 343.88 274.51 344.04C290.3 344.21 290.19 331.78 290.18 325.36C290.19 318.95 289.81 313.05 291.88 305.65Z" fill="#5EB446"/>
<path d="M276.58 345.13C275.91 345.17 275.22 345.19 274.51 345.18C270.39 345.13 261.7 341.54 249.73 317.98C242.28 303.31 236.8 286.74 236.4 277.69C236.04 269.71 236.69 260.92 238.16 253.59C240.18 243.57 243.63 236.1 248.42 231.38C252.64 227.22 257.85 225.29 263.9 225.65C285.3 226.92 286.8 237.44 287.69 243.73C287.8 244.54 287.91 245.3 288.05 245.93C288.48 247.89 288.55 249.83 288.62 251.69C288.75 255.28 288.88 258.68 291.51 262.08C294.29 265.68 295.22 268.46 296.5 272.32C297.26 274.6 298.2 277.43 299.77 281.13C301.64 285.54 301.01 291.15 297.9 297.81C295.9 302.1 293.51 305.38 292.91 306.18C291.22 312.34 291.26 317.44 291.31 322.83C291.32 323.67 291.32 324.51 291.33 325.37V325.49C291.33 329.66 291.34 336.65 286.85 341.09C284.43 343.49 280.97 344.85 276.58 345.13ZM261.27 227.91C256.95 228.18 253.17 229.89 250.02 232.99C240.59 242.28 238.02 262.82 238.67 277.58C239.05 286.21 244.56 302.76 251.76 316.94C259.98 333.13 268.49 342.83 274.53 342.9C279.3 342.95 282.9 341.8 285.25 339.47C289.06 335.7 289.06 329.55 289.05 325.49V325.37C289.05 324.52 289.04 323.68 289.03 322.85C288.98 317.23 288.93 311.92 290.77 305.36L290.83 305.15L290.97 304.97C291.08 304.83 301.55 291.17 297.67 282.02C296.07 278.24 295.1 275.36 294.33 273.04C293.07 269.26 292.24 266.76 289.7 263.47C286.63 259.49 286.48 255.57 286.34 251.77C286.27 249.92 286.21 248.17 285.82 246.41C285.66 245.7 285.55 244.89 285.43 244.04C284.58 238.08 283.3 229.07 263.76 227.91C262.92 227.85 262.08 227.85 261.27 227.91Z" fill="#231916"/>
<path d="M296.7 386.1C297.14 386.08 299.42 392.64 296.12 393.38C292.82 394.12 281.41 396.38 277.87 396.39C274.33 396.4 272.84 396.76 271.9 394.21C270.97 391.66 270.95 388.77 279.71 386.92C288.47 385.07 296.7 386.1 296.7 386.1Z" fill="#FCEAD1"/>
<path d="M278.71 397.5C278.39 397.52 278.11 397.53 277.86 397.53C277.45 397.53 277.06 397.54 276.7 397.54C273.93 397.58 271.92 397.61 270.82 394.6C270.41 393.49 269.97 391.81 270.88 390.18C271.98 388.2 274.7 386.81 279.46 385.8C288.31 383.92 296.49 384.93 296.83 384.97C298.26 385.16 298.78 388.22 298.91 389.18C299.47 393.33 297.31 394.27 296.35 394.48C293.58 395.12 283.17 397.22 278.71 397.5ZM287.16 387.07C284.92 387.21 282.45 387.5 279.94 388.03C275.01 389.07 273.38 390.38 272.88 391.29C272.52 391.94 272.55 392.67 272.97 393.82C273.5 395.26 273.87 395.31 276.68 395.26C277.05 395.25 277.44 395.25 277.87 395.25C281.15 395.24 292.22 393.09 295.88 392.27C296.22 392.19 296.42 392.01 296.56 391.65C297.04 390.43 296.47 388.1 296.07 387.18C294.83 387.06 291.41 386.8 287.16 387.07Z" fill="#231916"/>
<path d="M297.29 372.5C297.29 372.5 295.85 360.08 290.53 348.6C285.21 337.12 280.91 323.81 278.34 313.61C275.77 303.41 265.98 253.64 265.98 253.64C265.98 253.64 270.91 307.99 271.29 320.41C271.67 332.83 277.4 341.51 276.88 345.86C276.35 350.21 276.1 362.97 279.3 371.61C282.48 380.24 297.18 393.59 297.29 372.5Z" fill="#DFEED7"/>
<path d="M292.3 384.91C286.99 385.24 280.3 377.63 278.22 372C275 363.29 275.16 350.54 275.74 345.72C275.93 344.15 275.08 341.66 274.01 338.51C272.48 334 270.37 327.82 270.15 320.44C269.77 308.2 264.89 254.28 264.84 253.74L267.09 253.42C267.19 253.92 276.91 303.28 279.44 313.33C282.43 325.18 286.96 338.18 291.56 348.12C296.89 359.64 298.36 371.85 298.42 372.37L298.43 372.44V372.51C298.39 380.05 296.52 384.2 292.87 384.85C292.68 384.87 292.49 384.9 292.3 384.91ZM268.95 274.42C270.4 291.19 272.2 313.09 272.42 320.38C272.64 327.42 274.59 333.17 276.16 337.78C277.33 341.21 278.25 343.92 278 346C277.46 350.45 277.31 362.98 280.35 371.21C282.36 376.64 288.72 383.27 292.46 382.6C294.79 382.19 296.1 378.63 296.14 372.57C296.02 371.58 294.46 359.83 289.49 349.08C282.78 334.58 278.68 319.64 277.23 313.89C275.78 308.1 271.96 289.42 268.95 274.42Z" fill="#231916"/>
<path d="M264.74 336.48C264.74 336.48 289.69 319.14 288.28 301.9C286.87 284.66 285.37 279.22 285 273.69C284.63 268.17 279.99 241.54 258.33 241.15C236.67 240.76 233.36 265.58 230.58 275.38C227.81 285.18 229.37 304.34 231.67 309.43C233.97 314.51 249.02 349.48 264.74 336.48Z" fill="#8EC23F"/>
<path d="M258.21 340.47C257.14 340.54 256.05 340.44 254.94 340.19C249.48 338.92 240.87 332.71 230.86 310.4L230.63 309.89C228.2 304.53 226.69 284.91 229.48 275.06C229.79 273.96 230.12 272.63 230.46 271.22C233.18 260.18 238.24 239.64 258.34 240C267.84 240.17 275.56 245.34 280.64 254.95C284.47 262.19 285.9 270.32 286.12 273.6C286.26 275.68 286.56 277.72 286.97 280.54C287.63 285.02 288.53 291.16 289.4 301.8C290.84 319.31 266.92 336.34 265.42 337.38C263.12 339.28 260.7 340.32 258.21 340.47ZM256.27 242.33C239.68 243.38 235.33 261.05 232.69 271.78C232.34 273.21 232.01 274.56 231.68 275.69C229.06 284.96 230.46 303.99 232.71 308.96L232.94 309.47C242.57 330.93 250.5 336.81 255.46 337.97C258.45 338.67 261.25 337.89 264.02 335.6L264.1 335.54C264.34 335.37 288.49 318.37 287.15 301.99C286.28 291.42 285.39 285.33 284.74 280.88C284.34 278.12 284.02 275.94 283.87 273.77C283.85 273.46 281.14 242.7 258.32 242.29C257.61 242.27 256.93 242.28 256.27 242.33Z" fill="#231916"/>
<path d="M295.36 343.04C295.36 343.04 300.48 333.03 298.56 322.68C296.64 312.33 296.85 308.22 300.76 294.78C304.67 281.34 305.98 285.23 306.01 275.06C306.03 264.9 301.82 263.03 302.39 253.58C302.96 244.12 301.14 239.12 298.1 239.17C295.06 239.22 294.19 257.22 292.97 260.63C291.75 264.04 290.64 275.11 289.89 280.39C289.14 285.67 283.97 296.51 283.06 304.91C282.15 313.33 285.52 341.76 295.36 343.04Z" fill="#8EC23F"/>
<path d="M296.01 344.27L295.21 344.17C289.17 343.38 285.82 334.35 284.07 326.91C282.05 318.34 281.46 309.13 281.93 304.8C282.47 299.82 284.42 294.13 286.15 289.1C287.34 285.63 288.46 282.36 288.77 280.24C288.96 278.91 289.18 277.17 289.41 275.33C290.13 269.52 290.96 262.92 291.91 260.26C292.28 259.23 292.66 256.38 293.06 253.37C294.42 243.12 295.37 238.21 297.99 238.05C298.02 238.05 298.06 238.05 298.09 238.05C299.17 238.03 300.17 238.47 300.98 239.31C303.64 242.09 303.84 248.65 303.54 253.66C303.26 258.27 304.18 261 305.15 263.89C306.14 266.85 307.17 269.91 307.16 275.07C307.15 281.37 306.62 282.54 305.37 285.38C304.55 287.23 303.43 289.75 301.87 295.1C298.1 308.05 297.78 312.14 299.7 322.47C301.67 333.08 296.61 343.13 296.39 343.55L296.01 344.27ZM298.21 240.32C296.94 241.32 295.84 249.64 295.3 253.67C294.85 257.08 294.49 259.77 294.04 261.03C293.17 263.45 292.33 270.19 291.66 275.61C291.43 277.46 291.21 279.21 291.02 280.56C290.69 282.9 289.58 286.12 288.3 289.84C286.61 294.75 284.7 300.32 284.19 305.04C283.74 309.23 284.4 318.37 286.29 326.38C288.34 335.08 291.38 340.58 294.72 341.72C295.83 339.2 298.97 331.09 297.45 322.89C295.45 312.1 295.78 307.85 299.68 294.46C301.28 288.96 302.44 286.35 303.28 284.45C304.43 281.85 304.86 280.88 304.88 275.06C304.89 270.27 303.92 267.39 302.99 264.61C301.99 261.64 300.96 258.57 301.27 253.51C301.65 247.25 300.92 242.53 299.34 240.87C298.98 240.52 298.62 240.34 298.21 240.32Z" fill="#231916"/>
<path d="M285.27 389.7C288.48 387.22 292.84 381.25 287.8 373.71C282.75 366.18 277.32 356.8 271.21 337.98C265.45 320.21 266.57 312.76 265.45 299.35C264.55 288.59 265.97 253.64 259.5 252.51C252.57 251.3 245.76 295.65 245.48 311.01C245.12 331.52 258.25 370.75 264.35 381.1C270.45 391.44 274.77 391.26 274.77 391.26C274.77 391.26 282.06 392.18 285.27 389.7Z" fill="#DFEED7"/>
<path d="M279.53 392.51C277.18 392.66 275.14 392.44 274.7 392.39C273.79 392.37 269.29 391.71 263.37 381.67C256.89 370.68 243.98 331.02 244.34 310.99C244.59 296.79 250.36 257.76 257.1 252.2C258.14 251.34 259.08 251.29 259.69 251.4C264.6 252.26 265.73 264.35 266.19 287.87C266.28 292.58 266.36 296.65 266.58 299.27C266.84 302.43 266.98 305.24 267.12 307.96C267.55 316.67 267.92 324.19 272.29 337.65C278.31 356.21 283.76 365.66 288.74 373.1C293.75 380.58 290.37 387.21 285.96 390.62C284.31 391.89 281.78 392.36 279.53 392.51ZM259.2 253.62C259.02 253.63 258.8 253.74 258.56 253.94C256.07 256 253.06 265.33 250.51 278.9C248.36 290.36 246.76 303.57 246.63 311.02C246.28 330.71 258.97 369.7 265.34 380.51C270.87 389.89 274.73 390.1 274.77 390.11L274.93 390.12C276.83 390.36 282.26 390.6 284.58 388.8C285.9 387.78 292.19 382.31 286.86 374.35C281.78 366.77 276.24 357.16 270.14 338.33C265.68 324.58 265.3 316.92 264.86 308.05C264.73 305.35 264.59 302.56 264.33 299.44C264.11 296.76 264.03 292.65 263.93 287.9C263.79 280.86 263.62 272.1 262.88 265.22C261.77 254.85 259.87 253.73 259.31 253.63C259.27 253.62 259.24 253.62 259.2 253.62Z" fill="#231916"/>
<path d="M286.59 388.74C286.59 388.74 296.27 392.9 300.88 384.98C305.49 377.06 304.81 363.89 302.68 357.52C300.55 351.16 295.7 344.76 295.57 336.07C295.44 327.38 293.27 312.45 296.45 302.01C299.63 291.56 299.86 269.03 299.86 269.03C299.86 269.03 293.53 294.43 291.87 305.66C290.22 316.89 291.77 336 292.73 344.85C293.69 353.69 295.95 371.73 288.43 379.72C284.43 383.98 286.59 388.74 286.59 388.74Z" fill="#DFEED7"/>
<path d="M292.99 390.95C290.33 391.12 287.79 390.49 286.14 389.78L285.73 389.61L285.55 389.21C285.45 388.99 283.13 383.7 287.61 378.93C294.52 371.59 292.69 354.85 291.7 345.86L291.6 344.96C291.13 340.61 288.86 318.25 290.74 305.48C292.38 294.32 298.69 269 298.75 268.74L301.09 259.36L300.99 269.03C300.98 269.96 300.72 291.85 297.53 302.33C295.19 310.01 295.83 320.33 296.34 328.62C296.51 331.33 296.67 333.89 296.7 336.05C296.79 341.73 298.97 346.38 301.08 350.88C302.09 353.04 303.05 355.07 303.75 357.16C305.99 363.85 306.57 377.44 301.85 385.55C299.64 389.37 296.23 390.75 292.99 390.95ZM287.48 387.86C289.32 388.52 296.33 390.53 299.9 384.41C304.28 376.88 303.71 364.17 301.61 357.89C300.95 355.93 300.02 353.95 299.04 351.85C296.93 347.35 294.53 342.26 294.44 336.09C294.41 333.98 294.25 331.45 294.09 328.77C293.57 320.3 292.92 309.76 295.38 301.68C297.02 296.31 297.86 287.57 298.29 280.47C296.36 288.71 293.94 299.55 293.01 305.82C291.17 318.31 293.41 340.41 293.88 344.72L293.98 345.62C295.01 354.97 296.91 372.38 289.28 380.49C286.45 383.49 287.12 386.73 287.48 387.86Z" fill="#231916"/>
<path d="M255.88 312.09L254.66 310.17L255.91 309.38L254.8 307.64L256.72 306.41L259.06 310.07L255.88 312.09Z" fill="#231916"/>
<path d="M256.18 316.11C255.7 316.14 255.2 316.13 254.69 316.07C250.22 315.54 248.05 311.64 247.96 311.47L249.96 310.38C249.97 310.41 251.68 313.42 254.96 313.8C258.25 314.19 260.65 311.66 260.67 311.63L262.34 313.17C262.23 313.3 259.82 315.88 256.18 316.11Z" fill="#231916"/>
<path d="M260.82 306.77C260.6 306.78 260.38 306.78 260.15 306.75C259.37 306.66 258.24 306.28 257.23 304.96L259.04 303.58C259.46 304.13 259.9 304.43 260.39 304.49C261.24 304.59 262.04 303.95 262.05 303.95L263.51 305.7C263.37 305.81 262.29 306.68 260.82 306.77Z" fill="#231916"/>
<path d="M252.55 305.79C252.33 305.8 252.11 305.8 251.88 305.77C251.1 305.68 249.97 305.3 248.96 303.98L250.77 302.6C251.19 303.15 251.63 303.45 252.12 303.51C252.97 303.61 253.77 302.97 253.78 302.97L255.24 304.72C255.1 304.83 254.02 305.7 252.55 305.79Z" fill="#231916"/>
<path d="M345.8 379.42C345.8 379.42 341.23 389.27 346.99 395.21C352.76 401.15 362.23 402.61 362.23 402.61C362.23 402.61 370.49 400.3 361.93 396.83C353.38 393.35 352.32 393.92 350.98 390.5C349.63 387.08 353.29 378 353.29 378C353.29 378 352.5 371.85 345.8 379.42Z" fill="#FCD140"/>
<path d="M362.3 403.8L362.05 403.76C361.65 403.7 352.13 402.17 346.16 396.02C343.55 393.33 342.48 389.5 343.08 384.94C343.52 381.6 344.69 379.04 344.74 378.93L344.81 378.78L344.92 378.65C347.84 375.35 350.17 374.02 352.05 374.61C354.04 375.22 354.4 377.58 354.43 377.85L354.47 378.15L354.36 378.43C353.02 381.78 351.2 387.89 352.06 390.07C352.88 392.16 353.29 392.31 357.24 393.77C358.57 394.26 360.23 394.88 362.37 395.75C364.4 396.58 367.09 397.92 366.97 400.07C366.84 402.42 363.26 403.54 362.54 403.74L362.3 403.8ZM346.79 380.06C346.28 381.26 343.05 389.49 347.83 394.4C352.74 399.46 360.66 401.13 362.16 401.41C363.45 401 364.63 400.25 364.65 399.93C364.65 399.92 364.5 399.12 361.5 397.9C359.4 397.04 357.76 396.44 356.44 395.95C352.34 394.44 351.11 393.98 349.9 390.92C348.53 387.45 351.35 379.76 352.08 377.89C351.97 377.5 351.73 376.94 351.37 376.83C351.14 376.77 349.88 376.61 346.79 380.06Z" fill="#231916"/>
<path d="M345.56 354.78C345.56 354.78 350.11 357.09 356.91 355.62C364.28 354.03 371.46 342.39 371.46 342.39C371.46 342.39 369.6 333.14 365.04 340.07C359.61 348.32 356.54 351.32 352.51 351.55C348.05 351.81 345.69 347.99 345.69 347.99C345.69 347.99 338.42 348.45 345.56 354.78Z" fill="#FCD140"/>
<path d="M349.99 357.14C346.98 356.79 345.15 355.88 345.03 355.82L344.9 355.75L344.79 355.65C341.92 353.11 340.82 351.03 341.41 349.31C342.17 347.11 345.28 346.86 345.63 346.84L346.32 346.8L346.69 347.39C346.77 347.52 348.76 350.61 352.45 350.4C355.92 350.2 358.75 347.53 364.07 339.44C364.64 338.57 366.38 335.92 368.71 336.39C371.42 336.91 372.43 341.3 372.6 342.17L372.69 342.62L372.45 343.01C372.15 343.5 364.91 355.09 357.15 356.76C354.36 357.37 351.93 357.37 349.99 357.14ZM346.21 353.8C346.95 354.13 350.99 355.72 356.67 354.49C362.73 353.18 368.92 344.18 370.23 342.18C369.82 340.55 368.98 338.81 368.28 338.68C367.9 338.6 367.1 339.1 366.03 340.72C360.94 348.46 357.46 352.44 352.6 352.72C348.65 352.95 346.16 350.46 345.19 349.25C344.5 349.39 343.76 349.69 343.63 350.07C343.57 350.18 343.33 351.21 346.21 353.8Z" fill="#231916"/>
<path d="M367.88 308.05C367.88 308.05 367.69 299.13 365.34 296.41C362.99 293.69 360.01 294.35 360.01 294.35C360.01 294.35 357.01 289.79 363.24 288.34C369.47 286.89 371.6 287.25 371 289.97C370.4 292.69 373.93 307.66 373.93 307.66L367.88 308.05Z" fill="#815020"/>
<path d="M366.75 309.28L366.72 308.06C366.65 304.77 365.97 298.9 364.46 297.15C362.62 295.02 360.35 295.45 360.25 295.47L359.48 295.63L359.04 294.98C358.98 294.89 357.52 292.63 358.42 290.39C359.04 288.83 360.58 287.75 362.98 287.19C367.99 286.02 370.31 286.03 371.52 287.22C372.22 287.91 372.43 288.91 372.15 290.2C371.76 291.99 373.74 301.69 375.08 307.38L375.4 308.72L366.75 309.28ZM361.66 293.16C362.96 293.31 364.71 293.88 366.23 295.64C368.31 298.05 368.86 304.13 369.01 306.81L372.5 306.59C371.55 302.43 369.33 292.21 369.88 289.72C370 289.18 369.94 288.94 369.89 288.89C369.67 288.67 368.6 288.28 363.52 289.47C362.41 289.73 361.01 290.25 360.6 291.25C360.34 291.89 360.52 292.62 360.71 293.11C360.97 293.11 361.29 293.12 361.66 293.16Z" fill="#231916"/>
<path d="M347.82 389.47C347.82 389.47 374.92 390.39 386.71 355.69C398.5 320.99 377.74 300.73 370.45 303.14C363.17 305.55 362.93 320.88 362.93 327.92C362.94 334.96 361.3 348.62 354.25 360.42C347.22 372.22 333.04 386.03 347.82 389.47Z" fill="#FCD140"/>
<path d="M347.67 390.63L347.56 390.6C343.78 389.72 341.5 388.15 340.6 385.79C338.75 380.97 343.39 374.32 348.3 367.29C350.03 364.81 351.82 362.25 353.27 359.82C359.56 349.28 361.79 336.43 361.78 327.92C361.77 317.99 362.62 304.51 370.09 302.03C372.96 301.08 377.12 302.88 380.93 306.72C389.45 315.31 395.73 332.78 387.81 356.06C381.59 374.36 371.08 382.78 363.36 386.63C354.94 390.82 348.07 390.64 347.78 390.63H347.67ZM372.24 304.14C371.69 304.08 371.21 304.11 370.82 304.24C364.08 306.47 364.1 322.61 364.1 327.91C364.11 336.73 361.79 350.06 355.26 361.01C353.77 363.51 351.95 366.1 350.2 368.62C345.85 374.85 341.36 381.28 342.77 384.95C343.37 386.51 345.07 387.61 347.97 388.3C348.85 388.3 355.08 388.18 362.44 384.49C369.73 380.83 379.67 372.8 385.61 355.31C395.39 326.55 382.05 311.16 379.28 308.36C376.56 305.62 374.02 304.35 372.24 304.14Z" fill="#231916"/>
<path d="M340.75 381.6C340.75 381.6 349.37 383.29 348.92 387.47C348.47 391.66 340.43 390.32 339.93 388.54C339.44 386.77 336.16 385.28 340.75 381.6Z" fill="#6A3B17"/>
<path d="M343.32 391.34C341.3 391.1 339.22 390.31 338.82 388.86C338.75 388.62 338.52 388.28 338.28 387.93C337.03 386.1 336.03 383.89 340.03 380.69L340.45 380.35L340.98 380.45C341.07 380.47 343.29 380.91 345.49 381.9C349.6 383.75 350.26 386.02 350.09 387.59C349.86 389.73 348.1 391.15 345.39 391.37C344.75 391.44 344.04 391.42 343.32 391.34ZM341.04 388.17C341.47 388.66 344.1 389.46 346.15 388.9C347.64 388.5 347.73 387.67 347.76 387.35C348 385.15 343.64 383.47 341.05 382.86C338.89 384.71 339.39 385.44 340.19 386.62C340.52 387.09 340.86 387.58 341.04 388.17Z" fill="#231916"/>
<path d="M347.63 382.5C347.63 382.5 370.71 369.2 376.35 357.13C392.42 322.72 369.45 305.81 369.45 305.81C369.45 305.81 368.06 317.1 364.61 346.15C362.23 366.15 347.63 382.5 347.63 382.5Z" fill="#F8BE3D"/>
<path d="M373.02 340.23C371.79 340.09 370.57 339.86 369.38 339.56L369.95 337.28C371.69 337.72 373.48 337.97 375.27 338.05L375.17 340.4C374.45 340.38 373.73 340.32 373.02 340.23Z" fill="#231916"/>
<path d="M370.98 347.8C367.27 347.36 366.03 345.82 364.61 344.05C364.45 343.86 364.29 343.66 364.12 343.45L365.93 341.95C366.11 342.16 366.27 342.37 366.44 342.58C367.76 344.22 368.54 345.21 371.53 345.5C374.53 345.79 376.26 345.18 378.1 344.53C378.99 344.22 379.9 343.89 380.98 343.66L381.48 345.96C380.55 346.16 379.74 346.45 378.88 346.75C376.88 347.45 374.82 348.18 371.31 347.84C371.19 347.82 371.08 347.81 370.98 347.8Z" fill="#231916"/>
<path d="M365.81 334.34C366.04 335.33 367.02 335.95 368.01 335.72C369 335.49 369.62 334.51 369.39 333.52C369.16 332.53 368.18 331.91 367.19 332.14C366.21 332.37 365.59 333.36 365.81 334.34Z" fill="#231916"/>
<path d="M377.16 335.23C377.39 336.22 378.37 336.84 379.36 336.61C380.35 336.38 380.97 335.4 380.74 334.41C380.51 333.42 379.53 332.8 378.54 333.03C377.55 333.25 376.93 334.24 377.16 335.23Z" fill="#231916"/>
<path d="M361.02 366.28C361.02 366.28 365.57 368.59 372.37 367.12C379.74 365.53 386.92 353.89 386.92 353.89C386.92 353.89 385.06 344.64 380.5 351.57C375.07 359.82 372 362.82 367.97 363.05C363.51 363.31 361.15 359.49 361.15 359.49C361.15 359.49 353.87 359.94 361.02 366.28Z" fill="#FCD140"/>
<path d="M365.45 368.63C362.44 368.28 360.61 367.37 360.49 367.31L360.36 367.24L360.25 367.14C357.38 364.6 356.28 362.52 356.87 360.8C357.63 358.6 360.74 358.35 361.09 358.33L361.78 358.29L362.15 358.88C362.23 359.01 364.23 362.1 367.91 361.89C371.38 361.69 374.21 359.02 379.53 350.93C380.1 350.06 381.82 347.41 384.17 347.88C386.88 348.4 387.89 352.79 388.06 353.66L388.15 354.11L387.91 354.5C387.61 354.99 380.37 366.58 372.61 368.25C369.82 368.86 367.39 368.86 365.45 368.63ZM361.66 365.29C362.4 365.62 366.44 367.21 372.12 365.98C378.19 364.67 384.37 355.67 385.68 353.67C385.27 352.03 384.43 350.3 383.73 350.16C383.72 350.16 383.71 350.16 383.7 350.16C383.32 350.12 382.52 350.62 381.47 352.21C376.38 359.95 372.9 363.93 368.04 364.22C364.09 364.45 361.6 361.96 360.63 360.75C359.94 360.89 359.2 361.19 359.07 361.57C359.03 361.68 358.79 362.71 361.66 365.29Z" fill="#231916"/>
<path d="M361.48 384.37C361.48 384.37 359.94 395.12 367.17 399.15C374.4 403.17 383.89 401.84 383.89 401.84C383.89 401.84 391.13 397.25 381.94 396.39C372.75 395.52 371.9 396.38 369.63 393.49C367.36 390.6 368.24 380.86 368.24 380.86C368.24 380.86 365.72 375.18 361.48 384.37Z" fill="#FCD140"/>
<path d="M375.94 402.98C372.98 402.63 369.63 401.84 366.61 400.16C363.33 398.34 361.21 394.97 360.47 390.43C359.93 387.1 360.32 384.32 360.33 384.2L360.35 384.03L360.42 383.88C362.26 379.88 364.12 377.94 366.08 377.96C368.17 377.98 369.19 380.13 369.3 380.38L369.42 380.66L369.39 380.96C369.07 384.55 369.09 390.93 370.54 392.77C371.93 394.53 372.37 394.56 376.56 394.82C377.98 394.91 379.75 395.02 382.04 395.23C384.23 395.43 387.19 395.95 387.69 398.04C388.24 400.33 385.13 402.43 384.5 402.83L384.29 402.96L384.04 402.99C383.82 403.02 380.31 403.49 375.94 402.98ZM362.62 384.69C362.48 385.99 361.76 394.8 367.74 398.13C373.92 401.57 381.97 400.88 383.48 400.72C384.6 399.95 385.51 398.9 385.44 398.58C385.44 398.57 385.06 397.85 381.84 397.55C379.58 397.34 377.84 397.23 376.43 397.14C372.07 396.87 370.75 396.79 368.72 394.21C366.41 391.28 366.89 383.1 367.05 381.1C366.83 380.75 366.44 380.3 366.07 380.29C365.84 380.28 364.58 380.5 362.62 384.69Z" fill="#231916"/>
<path d="M278.29 371.04C278.29 371.04 279.13 395.59 283.02 396.75C286.91 397.91 319.09 410.44 322.83 408.42C326.57 406.41 339.64 400.23 340.15 396.26C340.66 392.29 342.94 371.78 342.91 372.36C342.88 372.93 278.29 371.04 278.29 371.04Z" fill="#956236"/>
<path d="M320.1 409.32C314.75 408.69 303.76 405.02 288.57 399.54C285.8 398.54 283.6 397.75 282.79 397.51C281.42 397.1 279.68 395.15 278.4 383.55C277.71 377.31 277.49 371.13 277.49 371.07L277.46 370.22L278.31 370.24C302.66 370.95 339.28 371.89 342.52 371.62C342.64 371.56 342.79 371.53 342.98 371.55L343.75 371.62L343.71 372.41C343.7 372.54 343.7 372.65 343.67 372.74C343.56 373.66 343.2 376.84 342.82 380.17C342.12 386.36 341.24 394.06 340.95 396.36C340.49 399.92 332.54 404.3 325.12 408.13C324.36 408.52 323.71 408.86 323.22 409.12C322.62 409.43 321.57 409.49 320.1 409.32ZM279.12 371.86C279.57 383.16 281.23 395.38 283.25 395.98C284.1 396.23 286.21 396.99 289.11 398.04C297.51 401.07 319.83 409.13 322.45 407.71C322.95 407.44 323.61 407.1 324.38 406.7C328.75 404.45 338.97 399.17 339.36 396.14C339.66 393.85 340.53 386.16 341.23 379.97C341.47 377.82 341.69 375.88 341.85 374.49C341.91 374 341.96 373.57 342 373.22C340.55 373.29 337.85 373.25 332.79 373.17C327.43 373.09 319.95 372.92 310.57 372.69C296.69 372.37 282.66 371.96 279.12 371.86ZM342.26 371.9C342.18 372.01 342.13 372.15 342.12 372.31H342.13C342.16 372.16 342.2 372.02 342.26 371.9Z" fill="#231916"/>
<path d="M298.54 356.08C298.54 356.08 273.88 366.39 278.29 371.04C282.7 375.69 322.68 385.8 322.68 385.8C322.68 385.8 347.59 375.19 341.87 370.41C336.15 365.62 298.54 356.08 298.54 356.08Z" fill="#B28147"/>
<path d="M322.74 386.63L322.48 386.56C322.38 386.53 312.35 383.99 301.91 380.92C280.61 374.64 278.43 372.34 277.71 371.58C277.07 370.91 276.84 370.09 277.03 369.2C278.16 363.87 296.18 356.19 298.24 355.34L298.49 355.24L298.75 355.31C300.29 355.7 336.6 364.95 342.39 369.8C343.5 370.73 343.6 371.78 343.49 372.49C342.67 378.01 325.01 385.68 322.99 386.54L322.74 386.63ZM298.6 356.92C291.13 360.07 279.29 366.18 278.58 369.54C278.5 369.91 278.59 370.21 278.86 370.5C282.32 374.15 311.35 382.11 322.6 384.97C329.9 381.83 341.39 375.71 341.9 372.26C341.95 371.94 341.93 371.51 341.35 371.02C336.09 366.6 301.93 357.77 298.6 356.92Z" fill="#231916"/>
<path d="M285.626 374.33L284.049 374.535L287.18 398.562L288.756 398.356L285.626 374.33Z" fill="#231916"/>
<path d="M294.11 377.358L292.531 377.545L295.375 401.516L296.954 401.329L294.11 377.358Z" fill="#231916"/>
<path d="M302.126 379.829L300.538 380.026L303.552 404.33L305.14 404.133L302.126 379.829Z" fill="#231916"/>
<path d="M309.229 381.898L307.648 382.068L310.279 406.446L311.86 406.276L309.229 381.898Z" fill="#231916"/>
<path d="M316.039 383.777L314.457 383.933L316.86 408.335L318.442 408.179L316.039 383.777Z" fill="#231916"/>
<path d="M323.471 385.794L321.881 385.805L322.034 408.425L323.624 408.414L323.471 385.794Z" fill="#231916"/>
<path d="M336.591 379.059L334.991 379.064L335.051 401.034L336.651 401.029L336.591 379.059Z" fill="#231916"/>
<path d="M329.812 382.811L328.222 382.863L328.939 404.822L330.528 404.77L329.812 382.811Z" fill="#231916"/>
<path d="M279.055 379.07L278.608 380.596L322.49 393.464L322.937 391.938L279.055 379.07Z" fill="#231916"/>
<path d="M280.103 387.846L279.661 389.374L322.552 401.778L322.994 400.25L280.103 387.846Z" fill="#231916"/>
<path d="M341.414 380.977L322.295 392.02L323.09 393.396L342.209 382.354L341.414 380.977Z" fill="#231916"/>
<path d="M340.421 390.271L322.418 400.287L323.191 401.676L341.194 391.66L340.421 390.271Z" fill="#231916"/>
<path d="M298.5 357.03L297.65 377.85L322.6 384.84C322.6 384.84 329.5 381.51 333.2 379.38C336.9 377.25 340.78 373.9 340.78 373.9L341.87 370.4L323.35 364.09L302.33 358L298.5 357.03Z" fill="#C89F62"/>
<path d="M290.1 358.18C291.62 355.96 293.67 353.48 296.2 353.82C297.76 354.03 299.03 355.34 299.7 356.85C300.37 358.36 300.56 360.07 300.73 361.74C300.64 357.49 304.06 353.44 308.04 353.09C308.57 353.04 309.11 353.06 309.61 353.24C310.25 353.47 310.77 353.97 311.19 354.53C313.19 357.18 312.91 361.47 310.59 363.87C311.69 361.84 313.88 360.83 315.96 360.09C317.93 359.39 320.16 358.84 322.01 359.8C324.06 360.86 325 363.64 324.48 366.03C323.95 368.42 322.19 370.37 320.14 371.49C318.09 372.61 315.76 373 313.47 373.15C314.35 374.18 314.91 375.52 315.03 376.92C315.08 377.43 315.05 377.99 314.76 378.39C314.41 378.87 313.8 379.01 313.23 379.09C308.57 379.76 303.81 378.77 299.5 376.86C297.87 376.14 296.27 375.28 294.87 374.13C293.49 373.01 292.33 371.61 291.15 370.25C290.5 369.49 289.83 368.72 289.43 367.77C288.97 366.7 288.81 365.48 288.63 364.32C288.46 363.21 288.32 362.06 288.61 360.96C288.9 359.93 289.51 359.04 290.1 358.18Z" fill="#8EC23F"/>
<path d="M298.1 359.12C299.62 356.9 301.67 354.42 304.2 354.76C305.76 354.97 307.03 356.28 307.7 357.79C308.37 359.3 308.56 361.01 308.73 362.68C308.64 358.43 312.06 354.38 316.04 354.03C316.57 353.98 317.11 354 317.61 354.18C318.25 354.41 318.77 354.91 319.19 355.47C321.19 358.12 320.91 362.41 318.59 364.81C319.69 362.78 321.88 361.77 323.96 361.03C325.93 360.33 328.16 359.78 330.01 360.74C332.06 361.8 333 364.58 332.48 366.97C331.95 369.36 330.19 371.31 328.14 372.43C326.09 373.55 323.76 373.94 321.47 374.09C322.35 375.12 322.91 376.46 323.03 377.86C323.08 378.37 323.05 378.93 322.76 379.33C322.41 379.81 321.8 379.95 321.23 380.03C316.57 380.7 311.81 379.71 307.5 377.8C305.87 377.08 304.27 376.22 302.87 375.07C301.49 373.95 300.33 372.55 299.15 371.19C298.5 370.43 297.83 369.66 297.43 368.71C296.97 367.64 296.81 366.42 296.63 365.26C296.46 364.15 296.32 363 296.61 361.9C296.9 360.87 297.51 359.98 298.1 359.12Z" fill="#27AA4A"/>
<path d="M281.33 361.13C281.46 358.51 282.58 355.52 284.92 354.87C284.77 355.66 284.38 356.41 283.84 356.96C284.71 356.9 285.59 356.84 286.46 356.78C286.7 356.76 286.96 356.75 287.16 356.89C287.54 357.16 287.48 357.78 287.35 358.26C287.07 359.21 286.64 360.12 286.07 360.91C286.69 361.73 288.24 360.51 288.84 361.35C289.03 361.61 289.02 361.98 289.14 362.28C289.54 363.34 291.05 363.25 291.68 364.16C292.45 365.3 291.33 367 291.74 368.35C293.21 368.26 294.67 368.16 296.14 368.07C296.54 368.04 296.97 368.02 297.33 368.21C298.19 368.66 298.21 369.98 298.05 371.01C297.88 372.05 297.71 373.28 298.41 373.98C298.64 374.21 298.94 374.35 299.13 374.61C299.76 375.49 298.73 376.69 297.78 377.15C296.05 378 294.15 378.38 292.28 378.3C291.35 378.26 290.43 378.1 289.54 377.83C288.82 377.61 287.93 377.38 287.41 376.76C286.99 376.26 286.72 375.6 286.31 375.08C285.72 374.32 285.17 373.54 284.66 372.72C283.66 371.11 282.82 369.37 282.23 367.53C281.56 365.5 281.22 363.32 281.33 361.13Z" fill="#099146"/>
<path d="M291.38 364.33C291.5 361.64 292.71 358.58 295.31 357.94C295.15 358.75 294.73 359.51 294.12 360.08C295.09 360.03 296.06 359.97 297.03 359.92C297.3 359.91 297.59 359.9 297.82 360.05C298.24 360.33 298.19 360.97 298.04 361.46C297.74 362.44 297.26 363.36 296.64 364.17C297.34 365.02 299.06 363.78 299.73 364.65C299.94 364.92 299.94 365.3 300.07 365.61C300.53 366.7 302.21 366.62 302.91 367.57C303.78 368.75 302.55 370.48 303.02 371.87C304.65 371.79 306.29 371.71 307.92 371.63C308.37 371.61 308.84 371.59 309.24 371.79C310.2 372.26 310.24 373.61 310.07 374.68C309.9 375.74 309.71 377.01 310.5 377.74C310.76 377.97 311.09 378.12 311.3 378.39C312.01 379.3 310.87 380.52 309.82 380.99C307.91 381.85 305.79 382.22 303.7 382.11C302.67 382.06 301.64 381.89 300.64 381.6C299.84 381.37 298.84 381.12 298.26 380.48C297.78 379.96 297.48 379.28 297.02 378.74C296.36 377.96 295.74 377.14 295.16 376.3C294.03 374.64 293.08 372.84 292.4 370.94C291.68 368.82 291.28 366.58 291.38 364.33Z" fill="#099146"/>
<path d="M340.17 367.46C340.62 365.1 340.19 362.2 338.06 361.1C338.03 361.84 338.24 362.58 338.65 363.2C337.81 362.95 336.98 362.71 336.14 362.46C335.91 362.39 335.66 362.32 335.43 362.41C335 362.57 334.92 363.13 334.95 363.58C335.01 364.49 335.23 365.39 335.61 366.22C334.82 366.82 333.58 365.38 332.81 366C332.57 366.19 332.49 366.52 332.31 366.77C331.69 367.62 330.23 367.21 329.42 367.88C328.41 368.72 329.13 370.48 328.43 371.59C327.02 371.18 325.61 370.77 324.21 370.37C323.82 370.26 323.42 370.15 323.02 370.23C322.08 370.44 321.77 371.61 321.7 372.56C321.63 373.52 321.53 374.66 320.69 375.13C320.42 375.28 320.1 375.34 319.85 375.53C319.04 376.17 319.78 377.47 320.6 378.09C322.09 379.23 323.86 379.99 325.71 380.33C326.62 380.5 327.48 382.23 328.41 382.18C329.16 382.15 329.98 381.98 330.62 381.55C331.14 381.2 332.52 381.06 333.03 380.68C333.77 380.14 335.31 378.95 335.98 378.33C337.31 377.12 336.89 374.48 337.87 372.97C338.98 371.3 339.79 369.43 340.17 367.46Z" fill="#099146"/>
<path d="M332.95 371.11C332.89 368.71 331.85 365.96 329.53 365.35C329.66 366.08 330.03 366.76 330.56 367.28C329.69 367.22 328.82 367.15 327.95 367.09C327.71 367.07 327.45 367.06 327.24 367.19C326.86 367.43 326.89 368 327.02 368.44C327.27 369.32 327.68 370.15 328.23 370.88C327.59 371.63 326.07 370.49 325.45 371.26C325.26 371.5 325.25 371.83 325.13 372.11C324.7 373.08 323.19 372.98 322.55 373.81C321.75 374.85 322.82 376.41 322.38 377.65C320.92 377.55 319.45 377.45 317.99 377.35C317.59 377.32 317.17 377.3 316.8 377.47C315.93 377.88 315.87 379.08 316.01 380.03C316.15 380.98 316.29 382.12 315.57 382.75C315.34 382.96 315.03 383.08 314.84 383.32C314.19 384.12 315.19 385.23 316.12 385.66C317.82 386.45 319.71 386.82 321.59 386.76C322.52 386.73 323.44 386.6 324.34 386.36C325.06 386.17 325.96 385.96 326.49 385.4C326.93 384.95 327.21 384.35 327.63 383.87C328.24 383.18 328.81 382.47 329.34 381.72C330.38 380.25 331.27 378.67 331.91 376.98C332.61 375.11 333 373.12 332.95 371.11Z" fill="#62994B"/>
<path d="M325.97 368.44C325.91 366.04 324.87 363.29 322.55 362.68C322.68 363.41 323.05 364.09 323.58 364.61C322.71 364.55 321.84 364.48 320.97 364.42C320.73 364.4 320.47 364.39 320.26 364.52C319.88 364.76 319.91 365.33 320.04 365.77C320.29 366.65 320.7 367.48 321.25 368.21C320.61 368.96 319.09 367.82 318.47 368.59C318.28 368.83 318.27 369.16 318.15 369.44C317.72 370.41 316.21 370.31 315.57 371.14C314.77 372.18 315.84 373.74 315.4 374.98C313.94 374.88 312.47 374.78 311.01 374.68C310.61 374.65 310.19 374.63 309.82 374.8C308.95 375.21 308.89 376.41 309.03 377.36C309.17 378.31 309.31 379.45 308.59 380.08C308.36 380.29 308.05 380.41 307.86 380.65C307.21 381.45 308.21 382.56 309.14 382.99C310.84 383.78 312.73 384.15 314.61 384.09C315.54 384.06 316.46 383.93 317.36 383.69C318.08 383.5 318.98 383.29 319.51 382.73C319.95 382.28 320.23 381.68 320.65 381.2C321.26 380.51 321.83 379.8 322.36 379.05C323.4 377.58 324.29 376 324.93 374.31C325.63 372.44 326.02 370.45 325.97 368.44Z" fill="#D9DF21"/>
<path d="M278.71 369.16L277.22 368.59C277.62 367.54 287.21 342.9 296.86 339.36C298.97 338.59 300.5 338.72 301.41 339.75C304.1 342.79 299.24 352.69 298.24 354.65L296.82 353.92C299.1 349.46 301.66 342.44 300.21 340.81C299.67 340.2 298.39 340.5 297.4 340.86C293.74 342.2 289.35 347.49 284.72 356.15C281.17 362.79 278.73 369.1 278.71 369.16Z" fill="#231916"/>
<path d="M323.36 385.19C323.17 381.84 321.79 352.44 330.84 350.09C332.3 349.71 333.68 349.97 334.95 350.88C340.99 355.17 342.56 373.35 342.62 374.13L341.03 374.26C341.03 374.21 340.64 369.6 339.55 364.56C338.14 358.03 336.23 353.75 334.02 352.18C333.14 351.56 332.23 351.38 331.23 351.64C324.63 353.35 324.46 376.38 324.95 385.11L323.36 385.19Z" fill="#231916"/>
<path d="M267.72 374.05C267.72 374.05 261.92 389.13 275.13 392.16C284.83 394.38 290.35 387.91 290.35 387.91C290.35 387.91 292.66 384.56 294.67 384.04C296.68 383.52 293.97 374.81 288.71 379.2C286.91 380.7 286.67 384.85 286.67 384.85C286.67 384.85 280.56 387.47 277.19 385.14C273.82 382.81 276.13 374.97 276.13 374.97C276.13 374.97 277.94 366.58 267.72 374.05Z" fill="#DC3827"/>
<path d="M277.02 393.67C276.33 393.59 275.61 393.47 274.87 393.3C271.02 392.42 268.29 390.49 266.73 387.57C263.6 381.69 266.51 373.96 266.63 373.64L266.75 373.32L267.03 373.12C271.29 370.01 274.11 369.11 275.92 370.29C277.97 371.62 277.34 374.86 277.26 375.23L277.24 375.31C276.7 377.14 275.67 382.69 277.85 384.2C279.91 385.62 283.68 384.72 285.58 384.04C285.75 382.63 286.3 379.72 287.97 378.32C290.5 376.21 292.52 376.79 293.49 377.32C295.54 378.44 296.7 381.32 296.47 383.22C296.29 384.69 295.35 385.09 294.96 385.19C293.81 385.49 292.11 387.43 291.31 388.59L291.24 388.68C291.01 388.94 285.96 394.72 277.02 393.67ZM268.7 374.78C268.23 376.2 266.48 382.14 268.79 386.48C270.01 388.77 272.23 390.3 275.39 391.02C283.94 392.98 288.99 387.68 289.43 387.19C289.83 386.63 291.96 383.7 294.15 382.98C294.29 382.35 293.86 380.49 292.69 379.56C292.36 379.3 291.35 378.5 289.45 380.09C288.43 380.94 287.91 383.5 287.82 384.92L287.78 385.64L287.12 385.92C286.85 386.04 280.38 388.76 276.52 386.1C272.63 383.41 274.67 375.77 274.99 374.69C275.15 373.87 275.13 372.54 274.65 372.23C274.52 372.14 273.26 371.51 268.7 374.78Z" fill="#231916"/>
<path d="M257.52 398.82C257.52 398.82 262.12 396.04 269.98 396.54C278.5 397.08 288.83 407.15 288.83 407.15C288.83 407.15 288.61 416.14 282.15 410.18C274.46 403.09 270.44 400.65 265.91 400.96C260.89 401.3 259.04 405.22 259.04 405.22C259.04 405.22 250.83 405.75 257.52 398.82Z" fill="#DC3827"/>
<path d="M285.49 413.35C284.26 413.21 282.87 412.43 281.35 411.03C273.74 404.01 270 401.84 265.98 402.11C261.75 402.4 260.14 405.57 260.08 405.71L259.78 406.32L259.1 406.37C258.42 406.41 255 406.52 253.98 404.33C253.24 402.73 254.12 400.66 256.68 398L256.79 397.89L256.92 397.81C257.12 397.69 261.93 394.84 270.06 395.36C278.91 395.92 289.21 405.87 289.65 406.29L290.01 406.64L290 407.15C289.99 407.64 289.81 411.99 287.17 413.11C286.64 413.35 286.08 413.42 285.49 413.35ZM268 399.84C271.98 400.31 276.02 402.94 282.93 409.32C284.38 410.66 285.59 411.27 286.24 410.99C287.04 410.65 287.5 408.94 287.62 407.62C285.71 405.85 276.98 398.14 269.89 397.7C263.21 397.27 258.98 399.35 258.22 399.75C256.2 401.88 255.92 403.01 256.08 403.36C256.27 403.76 257.32 404.03 258.34 404.06C259.17 402.79 261.43 400.09 265.81 399.8C266.56 399.74 267.28 399.76 268 399.84Z" fill="#231916"/>
<path d="M223.19 369.05C221.18 370.43 219.46 372.2 218.06 374.2C214.34 379.52 212.64 386.26 213.67 392.66C214.7 399.06 218.52 405.02 224.06 408.39C226.66 409.97 229.57 410.97 232.52 411.69C243.04 414.25 254.41 413.19 264.27 408.71C266.38 407.75 268.43 406.64 270.19 405.14C273.63 402.21 275.74 398.02 277.28 393.78C278.15 391.39 278.86 388.93 279.23 386.42C279.5 384.53 279.58 382.62 279.46 380.71C278.96 372.53 273.95 364.91 266.55 361.39C258.99 357.8 239.14 358.09 223.19 369.05Z" fill="#DC3827"/>
<path d="M238.2 413.89C236.2 413.66 234.21 413.3 232.24 412.82C228.73 411.96 225.85 410.84 223.45 409.38C217.7 405.89 213.61 399.7 212.51 392.84C211.45 386.25 213.12 379.21 217.1 373.52C218.63 371.34 220.45 369.51 222.52 368.08C231.79 361.71 241.42 359.41 247.86 358.6C255.44 357.65 262.79 358.31 267.04 360.34C274.76 364.01 280.09 371.98 280.62 380.64C280.74 382.63 280.66 384.63 280.38 386.58C280.04 388.89 279.39 391.37 278.37 394.17C276.39 399.63 274.03 403.4 270.94 406.02C269.34 407.38 267.37 408.57 264.74 409.76C256.45 413.54 247.21 414.95 238.2 413.89ZM259.38 360.73C250.04 359.64 235.72 361.84 223.85 370.01C222.01 371.28 220.38 372.91 219.02 374.86C215.39 380.05 213.86 386.47 214.82 392.47C215.82 398.67 219.5 404.25 224.67 407.39C226.86 408.72 229.52 409.76 232.8 410.56C243.12 413.07 254.12 412.04 263.79 407.65C266.21 406.55 268.01 405.47 269.44 404.25C272.21 401.89 274.36 398.44 276.19 393.38C277.16 390.69 277.76 388.43 278.08 386.25C278.34 384.46 278.42 382.62 278.3 380.78C277.82 372.95 273.01 365.75 266.05 362.44C264.36 361.64 262.08 361.05 259.38 360.73Z" fill="#231916"/>
<path d="M257.55 354.38C250.56 352.15 245.92 357.12 240.57 360.28C240.41 359.23 240.4 358.11 240.49 356.97C241.84 356.56 242.98 355.34 242.76 353.76C242.72 353.45 242.65 353.14 242.56 352.84C242.54 352.79 242.51 352.75 242.49 352.7C242.48 352.66 242.47 352.62 242.46 352.57C242.24 352.06 241.93 351.62 241.53 351.28C241.87 349.94 242.23 348.69 242.52 347.6C242.71 346.88 241.75 346.58 241.31 347.04C240.23 348.19 239.39 349.45 238.74 350.8C237.93 351.06 237.24 351.64 236.86 352.45C236.32 353.6 236.52 354.79 237.17 355.83C237.19 355.86 237.2 355.88 237.22 355.9C236.98 357.51 236.92 359.15 236.99 360.79C235.91 360.26 234.8 359.77 233.66 359.36C231.36 358.53 229.09 356.58 229.27 353.93C229.36 352.63 227.66 352.33 227.29 353.57C225.94 358.12 228.58 360.86 231.68 363.32C230.92 363.66 230.17 364.01 229.45 364.31C227.19 365.24 224.33 365.11 221.93 365.65C220.37 366 219.06 366.76 217.7 367.56C217.45 367.71 217.61 368.16 217.9 368.11C220.11 367.7 222.2 367.57 224.44 367.9C226.54 368.21 228.38 369.13 230.55 369.15C231.58 369.16 232.75 369.16 233.93 369.06C232.86 371.54 230.21 373.93 228.06 374.59C227.12 374.88 227.53 376.23 228.43 376.2C230.6 376.13 232.53 375.11 234.35 373.99C235.34 373.38 236.25 372.63 237.11 371.85C237.97 371.07 238.71 369.93 239.64 369.3C239.88 369.14 240.09 368.95 240.27 368.74C241.46 368.74 242.63 368.81 243.8 368.86C245.16 369.15 246.6 369.08 247.98 368.73C248.77 368.62 249.58 368.43 250.39 368.15C253.5 367.07 255.89 364.57 256.51 361.36C256.67 360.55 255.65 360.15 255.13 360.71C252.19 363.86 248.06 365.26 243.81 364.54C243.57 364.5 243.29 364.44 242.99 364.37C244.44 363.25 245.82 362.05 247.26 360.83C248.04 360.31 248.81 359.79 249.62 359.31C249.81 359.2 250 359.1 250.19 359C252.62 357.9 255.22 357.46 257.69 356.18C258.55 355.71 258.44 354.67 257.55 354.38Z" fill="#27AA4A"/>
<path d="M228.19 377.33C227.3 377.23 226.56 376.53 226.41 375.6C226.25 374.63 226.8 373.75 227.74 373.46C228.99 373.08 230.66 371.84 231.84 370.31C231.39 370.31 230.96 370.31 230.56 370.31C229.12 370.3 227.85 369.94 226.62 369.6C225.82 369.38 225.07 369.17 224.29 369.05C222.36 368.77 220.4 368.83 218.13 369.25C217.45 369.38 216.77 368.99 216.52 368.32C216.27 367.65 216.52 366.91 217.12 366.56C218.42 365.79 219.9 364.92 221.68 364.52C222.68 364.29 223.74 364.18 224.77 364.07C226.32 363.9 227.79 363.74 229.01 363.24C229.17 363.17 229.34 363.1 229.51 363.03C226.81 360.59 224.87 357.63 226.17 353.25C226.5 352.13 227.56 351.46 228.66 351.66C229.77 351.86 230.51 352.85 230.43 354.02C230.28 356.14 232.29 357.64 234.05 358.28C234.63 358.49 235.21 358.72 235.8 358.97C235.82 358 235.89 357.06 236.01 356.16C235.25 354.76 235.18 353.29 235.8 351.96C236.23 351.04 236.98 350.31 237.89 349.89C238.58 348.55 239.44 347.33 240.46 346.25C241.05 345.63 242.03 345.49 242.8 345.91C243.52 346.31 243.85 347.11 243.64 347.91C243.54 348.3 243.42 348.7 243.31 349.13C243.15 349.71 242.98 350.32 242.82 350.95C243.1 351.29 243.33 351.67 243.52 352.11L243.67 352.5C243.78 352.87 243.87 353.24 243.91 353.62C244.15 355.36 243.22 356.97 241.6 357.78C241.59 357.94 241.59 358.11 241.59 358.27C242.11 357.92 242.64 357.57 243.15 357.22C247.41 354.33 251.81 351.34 257.9 353.28C258.78 353.56 259.36 354.27 259.44 355.13C259.51 355.98 259.05 356.77 258.24 357.19C256.79 357.94 255.32 358.41 253.9 358.87C252.79 359.23 251.73 359.57 250.72 360.02L250.67 360.05C250.52 360.13 250.37 360.21 250.23 360.3C249.52 360.72 248.82 361.19 248.13 361.65L247.97 361.75L247.12 362.47C246.69 362.84 246.26 363.2 245.84 363.55C249.03 363.6 252.04 362.32 254.28 359.91C254.88 359.26 255.86 359.09 256.65 359.5C257.43 359.9 257.82 360.71 257.66 361.57C256.98 365.11 254.41 367.98 250.78 369.24C249.96 369.53 249.12 369.73 248.21 369.87C246.67 370.26 245.1 370.31 243.65 370.02C243.37 370.01 243.09 370 242.81 369.98C242.13 369.95 241.43 369.92 240.74 369.91C240.59 370.04 240.44 370.16 240.27 370.27C239.84 370.56 239.42 371.04 238.97 371.56C238.63 371.95 238.27 372.36 237.88 372.72C236.79 373.7 235.86 374.42 234.95 374.99C233.01 376.18 230.89 377.29 228.46 377.37C228.39 377.35 228.29 377.34 228.19 377.33ZM235.79 367.72L235.02 369.51C234.19 371.43 232.54 373.32 230.74 374.54C231.71 374.18 232.7 373.64 233.77 372.99C234.56 372.5 235.38 371.87 236.36 370.98C236.66 370.71 236.95 370.37 237.27 370.01C237.8 369.41 238.35 368.78 239.03 368.32C239.17 368.22 239.3 368.11 239.42 367.97L239.77 367.56H240.3C241.2 367.56 242.1 367.6 242.96 367.64C243.27 367.65 243.57 367.67 243.88 367.68H243.98L244.08 367.7C245.22 367.94 246.48 367.9 247.73 367.58L247.86 367.55C248.64 367.44 249.36 367.27 250.06 367.02C252.41 366.2 254.18 364.54 255.02 362.45C251.91 365.2 247.85 366.36 243.66 365.65C243.4 365.61 243.1 365.54 242.77 365.47L240.37 364.92L242.31 363.41C243.43 362.54 244.5 361.63 245.64 360.66L246.65 359.81L246.86 359.67C247.57 359.2 248.3 358.71 249.06 358.26C249.24 358.16 249.41 358.06 249.59 357.97L249.74 357.89C250.89 357.37 252.07 356.99 253.21 356.62C254.43 356.23 255.59 355.86 256.72 355.32C251.96 354.04 248.32 356.5 244.48 359.11C243.41 359.83 242.31 360.58 241.17 361.25L239.68 362.13L239.43 360.42C239.27 359.35 239.24 358.15 239.35 356.84L239.41 356.05L240.17 355.82C240.96 355.58 241.76 354.87 241.62 353.88C241.59 353.66 241.55 353.45 241.49 353.25L241.4 353.09L241.36 352.92C241.2 352.59 241.01 352.33 240.78 352.13L240.22 351.66L240.4 350.95C240.52 350.47 240.65 349.99 240.77 349.54C240.41 350.08 240.08 350.66 239.79 351.26L239.57 351.71L239.09 351.86C238.56 352.03 238.14 352.4 237.91 352.9C237.58 353.61 237.66 354.37 238.16 355.17L238.44 355.59L238.37 356.03C238.16 357.47 238.08 359.04 238.15 360.7L238.23 362.66L236.47 361.8C235.34 361.25 234.29 360.79 233.26 360.42C231.05 359.62 228.57 357.77 228.15 355.02C227.74 358 229.43 360.02 232.4 362.37L233.91 363.56L232.15 364.34C231.91 364.45 231.67 364.55 231.44 364.66C230.91 364.9 230.4 365.13 229.9 365.34C228.37 365.97 226.67 366.16 225.02 366.33C224.41 366.4 223.82 366.46 223.25 366.54C223.71 366.57 224.16 366.62 224.62 366.69C225.54 366.83 226.4 367.07 227.23 367.3C228.36 367.62 229.44 367.91 230.57 367.93C231.56 367.94 232.7 367.94 233.83 367.84L235.79 367.72Z" fill="#231916"/>
<path d="M219.86 389.2C219.86 389.2 205.62 396.83 213.65 407.75C219.55 415.77 227.95 414.48 227.95 414.48C227.95 414.48 231.89 413.45 233.75 414.37C235.61 415.29 239.25 406.92 232.4 406.81C230.06 406.77 227.16 409.75 227.16 409.75C227.16 409.75 220.82 407.74 219.79 403.78C218.76 399.81 225.63 395.38 225.63 395.38C225.63 395.38 232.49 390.22 219.86 389.2Z" fill="#DC3827"/>
<path d="M224.68 415.61C221.46 415.23 216.59 413.72 212.71 408.44C210.37 405.26 209.56 402.01 210.29 398.79C211.76 392.29 219.01 388.34 219.32 388.17L219.62 388.01L219.96 388.04C225.22 388.46 227.94 389.63 228.55 391.7C229.23 394.05 226.64 396.09 226.34 396.31L226.27 396.36C224.67 397.39 220.26 400.92 220.93 403.49C221.56 405.92 225 407.7 226.88 408.42C227.93 407.46 230.25 405.61 232.42 405.65C235.72 405.7 236.86 407.46 237.26 408.5C238.08 410.68 237.08 413.63 235.66 414.91C234.56 415.91 233.6 415.59 233.23 415.42C232.16 414.89 229.6 415.26 228.24 415.61L228.12 415.63C227.98 415.65 226.64 415.84 224.68 415.61ZM220.13 390.39C218.84 391.15 213.64 394.51 212.56 399.31C211.99 401.84 212.67 404.45 214.59 407.06C219.8 414.15 226.99 413.43 227.73 413.33C228.39 413.16 231.92 412.34 234.06 413.23C234.58 412.85 235.47 411.15 235.19 409.69C235.11 409.28 234.86 408.01 232.39 407.98C230.89 407.96 228.67 409.89 228.01 410.57L227.51 411.08L226.82 410.86C226.54 410.77 219.86 408.61 218.68 404.07C217.49 399.49 224.03 395.04 224.97 394.43C225.65 393.9 226.48 392.9 226.32 392.35C226.26 392.2 225.72 390.9 220.13 390.39Z" fill="#231916"/>
<path d="M259.885 373.735L257.724 374.607L260.742 382.091L262.903 381.219L259.885 373.735Z" fill="#231916"/>
<path d="M255.89 392.08C251.43 391.56 248.23 389.39 248.04 389.25L249.37 387.34L248.71 388.3L249.37 387.34C249.43 387.38 255.51 391.47 262.13 389.13C268.74 386.79 270.82 379.81 270.84 379.74L273.08 380.38C272.99 380.71 270.68 388.57 262.91 391.32C260.4 392.2 258 392.32 255.89 392.08Z" fill="#231916"/>
<path d="M244.37 377.58L242.2 376.74C242.25 376.61 243.46 373.57 246.36 372.37C248.13 371.64 250.1 371.74 252.21 372.68L251.26 374.81C249.75 374.14 248.4 374.04 247.24 374.52C245.28 375.33 244.37 377.56 244.37 377.58Z" fill="#231916"/>
<path d="M263.93 372.03L261.76 371.18C261.81 371.05 263.02 368.01 265.92 366.81C267.69 366.08 269.66 366.18 271.77 367.12L270.82 369.25C269.32 368.58 267.97 368.48 266.81 368.95C264.85 369.77 263.94 372.01 263.93 372.03Z" fill="#231916"/>
<path d="M249.4 406.66C249.4 406.66 259.21 403.39 264.21 409.48C269.21 415.57 269.58 424.69 269.58 424.69C269.58 424.69 266.52 432.26 264.14 423.79C261.76 415.33 262.42 414.39 259.32 412.75C256.23 411.11 247.25 413.59 247.25 413.59C247.25 413.59 241.51 412.19 249.4 406.66Z" fill="#DC3827"/>
<path d="M266.51 428.94C264.53 428.71 263.57 426.08 263.01 424.1C262.42 421.98 262.01 420.35 261.69 419.03C260.71 415.06 260.59 414.74 258.77 413.77C256.82 412.73 250.85 413.8 247.55 414.71L247.26 414.79L246.97 414.72C246.72 414.66 244.49 414.06 244.12 412.07C243.77 410.21 245.28 408.12 248.73 405.7L248.87 405.6L249.03 405.55C249.46 405.41 259.67 402.1 265.11 408.73C270.3 415.05 270.73 424.24 270.74 424.63L270.75 424.88L270.66 425.11C270.28 426.04 268.88 429.07 266.66 428.94C266.61 428.95 266.56 428.95 266.51 428.94ZM257.68 411.11C258.52 411.21 259.27 411.4 259.86 411.71C262.65 413.19 262.95 414.41 263.95 418.47C264.27 419.77 264.67 421.39 265.25 423.47C266.07 426.38 266.78 426.63 266.79 426.63C267.1 426.6 267.88 425.63 268.39 424.48C268.28 423 267.54 415.38 263.3 410.22C259.19 405.22 251.12 407.36 249.91 407.72C246.28 410.3 246.38 411.51 246.4 411.64C246.46 411.97 246.92 412.23 247.27 412.37C248.81 411.97 254.07 410.69 257.68 411.11Z" fill="#231916"/>
</svg>
