<svg width="241" height="39" viewBox="0 0 241 39" fill="none" xmlns="http://www.w3.org/2000/svg">
<path d="M5.94763 6.33063C6.96532 6.23827 7.74944 6.19629 8.28331 6.19629C8.90893 6.19629 9.31768 6.27185 9.51788 6.42298C9.71808 6.57411 9.81818 6.85958 9.81818 7.27939C9.81818 7.76636 9.7014 8.27013 9.45949 8.81588C9.21758 9.36163 8.95898 9.72266 8.67537 9.89898C8.41677 10.0501 8.08311 10.1844 7.65768 10.302C7.17386 10.3944 6.63165 10.6462 6.02271 11.0744C5.41376 11.4942 4.96331 11.9141 4.68803 12.3423C4.28763 12.9132 3.9206 14.4077 3.58693 16.8174C3.4201 18.0852 3.32834 18.9584 3.32834 19.437C3.32834 19.9491 3.38673 20.5033 3.49517 21.1078C3.63698 21.7711 3.85386 22.2161 4.15417 22.4428C4.45447 22.6695 4.95497 22.7786 5.66401 22.7786C6.28964 22.7786 6.74009 22.9466 7.02371 23.274C7.30733 23.5763 7.44914 23.8449 7.44914 24.0884C7.44914 24.5082 7.06542 25.0372 6.29798 25.6669C5.4221 26.389 4.79648 26.75 4.42944 26.75C4.31266 26.75 4.17085 26.7164 4.00402 26.6576C2.90291 26.2378 1.86854 25.1799 0.900903 23.4923C0.300301 22.4428 0 21.4688 0 20.5621C0 20.1423 0.1001 18.9836 0.300301 17.0861C0.44211 15.6083 0.608944 14.542 0.809145 13.8787C1.00935 13.2155 1.40141 12.3255 2.00201 11.2088C2.51085 10.302 2.93628 9.38682 3.27829 8.45485C3.58693 7.64042 3.89557 7.09467 4.20422 6.826C4.5212 6.54893 5.09678 6.3894 5.94763 6.33063Z" fill="#345D2F"/>
<path d="M13.3801 9.31127C13.4635 9.27768 13.5803 9.26929 13.7221 9.26929C14.2643 9.26929 14.6814 9.899 14.9984 11.1668C15.257 12.1576 15.3821 12.8712 15.3821 13.291C15.3821 13.7444 15.2403 14.2062 14.9567 14.6932C14.6981 15.1466 14.573 15.5664 14.573 15.961C14.573 16.2045 14.5897 16.3976 14.6147 16.5487C14.6397 16.6663 14.6564 16.851 14.6564 17.0945C14.6564 17.6402 14.573 18.1944 14.3978 18.7653C14.231 19.4622 14.1392 19.9827 14.1392 20.3438C14.1392 20.8559 14.2643 21.1162 14.5229 21.1162C14.8065 21.1162 15.1485 20.8643 15.5406 20.3438C15.9076 19.8652 16.6417 19.2943 17.7512 18.6478C18.8523 18.0013 19.603 17.6738 20.0034 17.6738C20.5373 17.6738 21.1546 17.9341 21.8303 18.463C22.5059 18.992 22.8479 19.4622 22.8479 19.8904C22.8479 20.285 22.5476 21.2506 21.9554 22.787C21.3297 24.3823 21.0211 25.2387 21.0211 25.3647C21.0211 25.541 20.6958 25.9524 20.0451 26.5821C19.4195 27.2118 18.894 27.5309 18.4769 27.5309C18.2183 27.5309 17.9847 27.4133 17.7512 27.1698C17.5259 26.9263 17.4092 26.6745 17.4092 26.3974C17.4092 26.0951 17.7595 25.1883 18.4685 23.6854C19.2026 22.0902 19.5696 21.1834 19.5696 20.9735C19.5696 20.7636 19.5113 20.6544 19.4028 20.6544C19.236 20.6544 18.4352 21.3597 17.0254 22.7787C15.6073 24.1976 14.6731 25.2051 14.2226 25.8097C13.6304 26.5905 13.0047 26.9851 12.3541 26.9851C11.9537 26.9851 11.6284 26.8676 11.3781 26.6241C11.2113 26.4729 11.1028 26.305 11.0611 26.1287C11.0194 25.944 10.9944 25.4822 10.9944 24.7266V22.787C11.0194 20.4361 11.1529 18.9584 11.3781 18.3539C11.6367 17.6318 11.7618 16.5655 11.7618 15.1466C11.7702 11.553 12.304 9.61353 13.3801 9.31127Z" fill="#345D2F"/>
<path d="M26.9353 13.7362C27.1021 13.6774 27.2606 13.6438 27.4024 13.6438C27.9947 13.6438 28.5369 13.8285 29.0207 14.1895C29.4461 14.4918 30.0134 14.6849 30.7224 14.7773C31.4899 14.8696 32.1155 15.0879 32.616 15.4322C33.1081 15.7764 33.5586 16.3474 33.9507 17.1282C34.8599 18.8746 35.3104 20.3187 35.3104 21.469C35.3104 21.9812 35.2269 22.4177 35.0518 22.7788C34.7932 23.3497 34.3594 23.9962 33.7338 24.7183C33.1081 25.4404 32.5743 25.9357 32.1155 26.2128C31.3481 26.6662 30.6724 26.8929 30.0801 26.8929C28.662 26.8929 27.8696 25.6419 27.7027 23.1398C27.7027 23.0475 27.6944 22.9215 27.6777 22.7536C27.661 22.5857 27.6527 22.4765 27.6527 22.4178C27.6527 20.9148 28.1615 19.9325 29.1792 19.4791C29.7464 19.1768 30.1302 19.0257 30.3304 19.0257C30.4722 19.0257 30.614 18.9166 30.7558 18.7067C30.8142 18.5891 30.8392 18.5136 30.8392 18.48C30.8392 18.3288 30.5973 18.0098 30.1135 17.5312C29.5713 16.9855 29.1041 16.7168 28.7121 16.7168C28.3701 16.7168 27.661 16.8091 26.5849 16.9855L25.8175 17.1198V15.852C25.8342 14.7437 26.2012 14.0384 26.9353 13.7362ZM31.6567 21.9644C31.4899 21.6369 31.2897 21.469 31.0644 21.469C30.6974 21.469 30.4388 21.7712 30.297 22.3758C30.2136 22.7116 30.322 22.9467 30.639 23.0978C30.8058 23.1902 30.9643 23.2322 31.1061 23.2322C31.5566 23.2322 31.7902 22.9887 31.7902 22.5101C31.7818 22.3254 31.7401 22.1407 31.6567 21.9644Z" fill="#345D2F"/>
<path d="M44.8282 14.9618C45.1369 14.8443 45.4789 14.7771 45.8459 14.7771C46.2964 14.7771 46.6801 14.8779 46.9971 15.071C47.3057 15.2641 47.4642 15.5328 47.4642 15.8602C47.4642 16.1625 47.3307 16.4815 47.0638 16.809C46.7969 17.1448 46.2463 17.6654 45.4288 18.3874C44.3527 19.2942 43.4852 21.1162 42.8346 23.8533C42.4925 25.1799 42.284 25.9356 42.2006 26.1119C41.7752 26.9851 41.2496 27.4217 40.6323 27.4217C40.0067 27.4217 39.5146 27.0019 39.1475 26.1538C39.0307 25.9104 38.8472 25.1127 38.597 23.761C38.3467 22.4092 38.2133 21.5444 38.2133 21.1833C38.2133 20.9986 38.255 20.73 38.3384 20.3689C38.3968 20.159 38.597 19.9575 38.9306 19.756C39.2727 19.5629 39.5813 19.4621 39.8649 19.4621C40.1736 19.4621 40.4905 19.3278 40.8242 19.0591C41.1579 18.7904 41.6417 18.2447 42.2923 17.4303C43.1432 16.3472 43.6771 15.7007 43.9106 15.4908C44.1192 15.2893 44.4278 15.1129 44.8282 14.9618Z" fill="#345D2F"/>
<path d="M55.8727 13.3332C56.9488 12.8798 57.6828 12.6531 58.0832 12.6531C58.1416 12.6531 58.2501 12.6615 58.4002 12.6783C58.5587 12.6951 58.6755 12.7035 58.7589 12.7035C59.7182 12.7622 60.5357 13.0309 61.203 13.4927C61.8704 13.9629 62.204 14.475 62.204 15.0544C62.204 15.6337 61.8954 16.1375 61.2698 16.5909C61.0112 16.7672 60.7276 16.8595 60.4189 16.8595C60.0769 16.8595 59.6682 16.7672 59.1843 16.5909C58.6755 16.4061 58.2251 16.3222 57.8247 16.3222C56.7235 16.3222 55.4556 17.1198 54.0459 18.7151L52.6445 20.2936V21.7377C52.6445 21.9812 52.6528 22.2247 52.6695 22.4849C52.6862 22.7452 52.6945 22.9551 52.6945 23.1146C52.6945 23.2742 52.6945 23.3749 52.6945 23.4085C52.6945 23.5596 52.9197 23.7108 53.3702 23.8619C53.6288 23.9543 53.8123 23.9962 53.9207 23.9962C54.0876 23.9962 54.3628 23.8871 54.7299 23.6772C55.1553 23.4085 55.5223 23.2742 55.831 23.2742C56.3148 23.2742 56.7235 23.61 57.0656 24.2649C57.3242 24.7435 57.4493 25.1213 57.4493 25.3984C57.4493 25.432 57.4409 25.474 57.4242 25.5327C57.4076 25.5915 57.3992 25.6419 57.3992 25.6671C57.3408 25.877 57.1907 26.0533 56.9488 26.1876C56.7069 26.322 56.1313 26.5571 55.2304 26.8845C53.9541 27.3043 53.0365 27.5142 52.4693 27.5142C51.8186 27.5142 51.2514 27.2455 50.7676 26.6998C49.9751 25.7678 49.5747 24.0382 49.5747 21.5026C49.5747 20.5958 49.6581 19.8318 49.8333 19.1937C50.0585 18.3792 50.3672 17.7411 50.7676 17.2709C51.1596 16.8008 52.1022 15.9192 53.5704 14.6262C54.0876 14.2232 54.855 13.7866 55.8727 13.3332Z" fill="#345D2F"/>
<path d="M67.0923 17.8502C67.5177 17.6991 68.0682 17.6235 68.7523 17.6235H69.1777C70.7626 17.7159 71.872 18.2868 72.4893 19.3363C72.6895 19.6386 72.7896 19.9828 72.7896 20.3775C72.7896 21.2507 72.0389 22.6528 70.5374 24.5839C69.7449 25.6082 69.1193 26.2799 68.6688 26.599C68.2184 26.918 67.5761 27.1447 66.7586 27.2959C66.1914 27.3546 65.8493 27.3882 65.7409 27.3882C65.2904 27.3882 64.9651 27.2455 64.7649 26.96C64.5647 26.6746 64.3228 26.0784 64.0392 25.1716C63.7556 24.2649 63.6138 23.5176 63.6138 22.9131C63.6138 22.2834 63.8724 21.5529 64.3812 20.7469C65.4489 19.118 66.3498 18.1525 67.0923 17.8502ZM69.5531 21.0575C69.5531 20.7553 69.5197 20.579 69.4446 20.537C69.3695 20.495 69.186 20.4698 68.869 20.4698C68.135 20.4698 67.3926 20.9232 66.6585 21.8216C66.3165 22.2162 66.1496 22.594 66.1496 22.9551C66.1496 23.2237 66.2497 23.4504 66.4499 23.6352C66.6501 23.7863 66.817 23.8619 66.9588 23.8619C67.2674 23.8619 67.793 23.484 68.527 22.7284C69.211 22.0399 69.5531 21.4774 69.5531 21.0575Z" fill="#345D2F"/>
<path d="M83.4921 14.1894C83.6339 13.9207 83.9175 13.7864 84.3429 13.7864C84.7433 13.7864 85.444 14.0383 86.4701 14.5336C87.4961 15.029 88.0717 15.3984 88.2135 15.6419C88.2969 15.8854 88.397 16.5655 88.5138 17.6738C88.5388 18.0012 88.5555 18.3958 88.5555 18.8492C88.5555 19.3614 88.4888 19.798 88.3469 20.159C88.3219 20.2766 88.2135 20.6124 88.03 21.1498C87.8464 21.6955 87.713 22.0985 87.6296 22.3672L87.2041 23.635L87.7547 24.3571C88.0967 24.8105 88.2635 25.096 88.2635 25.2135C88.2635 25.3059 87.9215 25.5158 87.2458 25.8432C86.6202 26.1455 85.6526 26.4141 84.3346 26.6576C83.0166 26.9011 81.8321 27.0187 80.7894 27.0187C80.4474 27.0187 80.0553 26.9851 79.5965 26.9263C78.804 26.7752 78.0283 26.5065 77.2775 26.1119C76.5268 25.7173 76.068 25.331 75.8928 24.9364C75.776 24.7265 75.726 24.4998 75.726 24.2563C75.726 23.7442 76.2932 22.8878 77.4277 21.6787C78.2451 20.8055 78.804 20.2682 79.0877 20.0751C79.3713 19.882 79.755 19.7812 80.2388 19.7812C80.6893 19.7812 81.1481 19.6469 81.5985 19.3782C81.9906 19.1683 82.2492 19.0591 82.3659 19.0591C82.5078 19.0591 82.8748 19.1515 83.467 19.3278C84.0343 19.4789 84.3763 19.5545 84.4847 19.5545C84.6516 19.5545 84.8267 19.4622 84.9936 19.2858C85.2188 19.0423 85.3356 18.8073 85.3356 18.5638C85.3356 18.1692 85.0353 17.5982 84.443 16.851C83.734 15.919 83.3836 15.2053 83.3836 14.7267C83.3669 14.5504 83.4087 14.3741 83.4921 14.1894ZM83.8758 23.3664C83.6506 23.1229 82.783 23.0053 81.2815 23.0053C80.9145 23.0053 80.6893 23.0221 80.5975 23.0473C80.2305 23.1648 80.047 23.3831 80.047 23.677C80.047 23.9793 80.6392 24.1304 81.8321 24.1304C83.2502 24.1304 83.9592 23.9457 83.9592 23.5847C83.9592 23.5007 83.9342 23.4251 83.8758 23.3664Z" fill="#345D2F"/>
<path d="M92.5845 9.76466C92.8097 9.43721 93.1183 9.26929 93.5187 9.26929C93.7773 9.26929 94.0109 9.32806 94.2445 9.454C94.8367 9.78985 95.137 10.5959 95.137 11.8973C95.137 13.2826 94.8117 14.6428 94.161 15.961C94.0192 16.2297 93.9525 16.6999 93.9525 17.3632C93.9525 18.0264 93.9692 18.6142 93.9942 19.1263C94.0526 20.3606 94.111 21.1246 94.1861 21.4101C94.2528 21.6956 94.4363 22.023 94.7199 22.384C95.4874 23.2908 95.8711 24.1304 95.8711 24.9113C95.8711 24.9449 95.8628 25.012 95.8461 25.1128C95.8294 25.2219 95.821 25.2975 95.821 25.3647C95.6792 26.4478 95.2955 26.9935 94.6699 26.9935C94.6449 26.9935 94.5948 26.9851 94.5197 26.9683C94.453 26.9515 94.3946 26.9431 94.3696 26.9431C93.1517 26.6996 92.4427 25.6753 92.2425 23.8701C92.159 23.0305 91.9755 22.1825 91.6919 21.3429C91.4917 20.7384 91.3916 20.2094 91.3916 19.7644C91.3916 19.6721 91.4166 19.2103 91.475 18.3623C91.5334 17.3967 91.5584 16.7838 91.5584 16.5067V16.2381C91.5 15.7595 91.475 15.3649 91.475 15.0626C91.475 12.8796 91.8421 11.1164 92.5845 9.76466Z" fill="#345D2F"/>
<path d="M118.419 4.5675C119.044 4.38279 119.904 4.29883 121.013 4.29883C122.256 4.29883 123.374 4.47515 124.366 4.84458C125.384 5.20561 126.268 5.39032 127.002 5.39032C127.77 5.39032 128.662 5.54985 129.68 5.86051C130.698 6.17956 131.206 6.55739 131.206 7.01078C131.206 7.16191 131.09 7.35502 130.864 7.59851C130.464 7.99312 129.405 8.32057 127.678 8.58925C125.751 8.85792 123.966 9.47924 122.323 10.4448C120.846 11.2844 119.845 12.1492 119.303 13.0224C118.961 13.5346 118.494 14.0887 117.901 14.6932C117.276 15.3229 116.967 15.7931 116.967 16.0954C116.967 16.4228 116.992 16.6243 117.051 16.6831C117.109 16.7167 117.192 16.7251 117.309 16.7251C117.618 16.7251 118.018 16.6831 118.502 16.5908C119.52 16.4732 120.554 16.406 121.605 16.406C122.656 16.406 123.307 16.49 123.557 16.6579C123.807 16.8258 123.941 17.254 123.941 17.9425V18.8493L122.414 18.9837C121.338 19.076 120.304 19.3447 119.311 19.7981C118.377 20.1927 117.751 20.3858 117.443 20.3858H117.359C117.101 20.2934 116.767 20.2515 116.342 20.2515C115.799 20.2515 115.466 20.327 115.324 20.4782C115.124 20.6881 114.548 21.8215 113.58 23.8702C112.755 25.5914 112.187 26.6325 111.862 27.0103C111.537 27.3882 110.978 27.6233 110.185 27.7072C110.044 27.7408 109.877 27.7492 109.677 27.7492C109.368 27.7492 109.143 27.6652 109.018 27.4973C108.892 27.3294 108.801 27.0187 108.742 26.5737C108.742 26.515 108.734 26.4394 108.717 26.347C108.701 26.2547 108.692 26.1959 108.692 26.1623C108.692 25.4403 109.143 24.4495 110.052 23.1817C110.477 22.552 110.686 22.1574 110.686 22.0063C110.686 21.5277 109.994 21.0995 108.601 20.7384C108.342 20.6797 108.2 20.6041 108.158 20.5117C108.117 20.4194 108.125 20.1675 108.183 19.7393C108.242 19.0424 108.45 18.5471 108.817 18.2448C109.184 17.9425 109.81 17.7662 110.686 17.699C111.679 17.6067 112.346 17.4472 112.68 17.2037C112.963 17.0274 113.397 16.49 113.973 15.6C114.556 14.71 114.84 14.1475 114.84 13.904C114.84 13.3918 115.424 12.4767 116.583 11.1501C117.318 10.2433 117.818 9.57159 118.068 9.1182C118.177 8.87472 118.235 8.6816 118.235 8.53047C118.235 8.37934 118.135 8.11067 117.935 7.71605C117.484 6.84285 117.259 6.19635 117.259 5.77655C117.268 5.18042 117.651 4.77741 118.419 4.5675Z" fill="#345D2F"/>
<path d="M127.553 17.8502C127.978 17.6991 128.529 17.6235 129.213 17.6235H129.638C131.223 17.7159 132.333 18.2868 132.95 19.3363C133.15 19.6386 133.25 19.9828 133.25 20.3775C133.25 21.2507 132.5 22.6528 130.998 24.5839C130.206 25.6082 129.58 26.2799 129.13 26.599C128.679 26.918 128.037 27.1447 127.219 27.2959C126.652 27.3546 126.31 27.3882 126.202 27.3882C125.751 27.3882 125.426 27.2455 125.226 26.96C125.025 26.6746 124.784 26.0784 124.5 25.1716C124.216 24.2649 124.074 23.5176 124.074 22.9131C124.074 22.2834 124.333 21.5529 124.842 20.7469C125.91 19.118 126.811 18.1525 127.553 17.8502ZM130.014 21.0575C130.014 20.7553 129.98 20.579 129.905 20.537C129.83 20.495 129.647 20.4698 129.33 20.4698C128.596 20.4698 127.853 20.9232 127.119 21.8216C126.777 22.2162 126.61 22.594 126.61 22.9551C126.61 23.2237 126.71 23.4504 126.911 23.6352C127.111 23.7863 127.278 23.8619 127.419 23.8619C127.728 23.8619 128.254 23.484 128.988 22.7284C129.68 22.0399 130.014 21.4774 130.014 21.0575Z" fill="#345D2F"/>
<path d="M139.79 17.6655C140.324 17.4556 140.85 17.3464 141.358 17.3464H142.334L143.652 18.7906C144.67 19.966 145.179 20.8896 145.179 21.5445C145.179 21.6956 145.146 21.9475 145.095 22.3169C144.979 22.9802 144.762 23.5092 144.436 23.8954C144.111 24.29 143.394 24.9029 142.293 25.751C140.533 27.0775 139.498 27.7408 139.19 27.7408C139.073 27.7408 138.989 27.724 138.931 27.6989C138.672 27.6401 138.164 27.1531 137.404 26.2547C136.637 25.3479 136.228 24.735 136.17 24.3992C136.145 24.3068 136.128 24.1557 136.128 23.9458C136.128 23.5512 136.27 22.9383 136.554 22.0902C137.263 19.8401 138.347 18.3624 139.79 17.6655ZM142.126 20.7385C142.009 20.4362 141.826 20.2851 141.575 20.2851C141.008 20.2851 140.399 20.8896 139.748 22.0902C139.44 22.7535 139.281 23.1901 139.281 23.4C139.281 23.5848 139.431 23.7695 139.732 23.9626C140.032 24.1557 140.266 24.2564 140.432 24.2564L140.474 24.2145C140.499 24.2145 140.533 24.2145 140.558 24.2145C140.699 24.1809 141.041 23.6603 141.575 22.636C142.001 21.8552 142.209 21.343 142.209 21.0995C142.209 21.0407 142.184 20.9232 142.126 20.7385Z" fill="#345D2F"/>
<path d="M160.394 9.94105C160.619 9.78992 160.786 9.71436 160.903 9.71436C161.045 9.71436 161.287 9.89067 161.629 10.2601C161.971 10.6211 162.138 11.0745 162.138 11.6119C162.138 12.124 162.012 13.0728 161.754 14.4582C161.495 15.9023 161.345 17.4724 161.287 19.16L161.203 21.6872L161.837 22.4093C162.121 22.7116 162.346 22.8963 162.521 22.9718C162.688 23.0474 163.013 23.081 163.497 23.081C164.181 23.081 164.515 23.1565 164.515 23.3077C164.515 23.5512 164.331 24.0297 163.964 24.7518C163.397 25.9273 162.621 26.515 161.629 26.515H161.287C160.72 26.4814 160.319 26.2799 160.077 25.9021C159.835 25.5243 159.543 24.6427 159.21 23.2573C158.843 21.7208 158.617 20.8896 158.534 20.772L158.492 20.7301C158.375 20.7301 158.084 21.1835 157.6 22.0902C157.057 23.1482 156.524 23.9458 155.981 24.4831L154.28 26.2883C153.454 27.2203 152.611 27.6905 151.727 27.6905C150.593 27.6905 149.575 26.9516 148.666 25.4739C148.265 24.8694 148.073 24.2732 148.073 23.6687C148.073 23.1901 148.232 22.6108 148.541 21.9475C148.766 21.5277 148.983 20.982 149.175 20.3187C149.458 19.4119 150.267 18.5723 151.594 17.7914C152.078 17.5228 152.711 17.3884 153.504 17.3884H154.355C155.598 17.3884 156.449 17.506 156.907 17.7494C157.274 17.9593 157.541 17.9426 157.716 17.7075C157.883 17.464 157.975 17.0778 157.975 16.532C157.975 16.0786 158.075 15.5581 158.275 14.9703C158.476 14.3826 158.584 13.8788 158.617 13.459C158.642 12.8545 158.734 12.3591 158.876 11.9645C159.018 11.6371 159.251 11.2425 159.577 10.7891C159.894 10.3525 160.169 10.0586 160.394 9.94105ZM155.464 20.1088C155.406 19.7813 155.306 19.6134 155.164 19.6134C155.022 19.6134 154.43 19.9072 153.379 20.495C152.328 21.0827 151.71 21.4857 151.51 21.6956C151.31 21.8468 151.21 22.0567 151.21 22.3253C151.21 22.594 151.377 22.9215 151.719 23.2993C152.061 23.6771 152.344 23.8618 152.57 23.8618C153.079 23.8618 153.696 23.4252 154.422 22.552C155.147 21.6788 155.506 20.94 155.506 20.3355C155.506 20.3019 155.506 20.2599 155.506 20.2011L155.464 20.1088Z" fill="#345D2F"/>
<path d="M182.233 0.722067C182.541 0.394618 182.783 0.184715 182.958 0.10915C183.125 0.0335845 183.401 0 183.768 0C184.31 0 184.677 0.10915 184.877 0.319053C185.077 0.495371 185.177 0.873197 185.177 1.45253C185.177 2.11582 185.052 2.80431 184.794 3.53477C184.735 3.71109 184.677 3.9042 184.627 4.09731C184.568 4.29042 184.527 4.44155 184.502 4.5507C184.477 4.65985 184.477 4.71023 184.502 4.71023C185.01 5.13003 186.17 5.58342 187.988 6.062C188.672 6.21313 189.323 6.46502 189.94 6.80926C190.566 7.1535 190.958 7.46416 191.133 7.73283C191.275 7.94273 191.717 9.23574 192.451 11.6202C192.985 13.3079 193.31 14.4245 193.411 14.9619C193.511 15.5076 193.569 16.3137 193.602 17.4052L193.644 19.6637L192.668 21.6956C191.984 23.1145 191.534 23.9122 191.308 24.0885C191.083 24.2984 190.316 24.4075 189.014 24.4075C187.797 24.4075 186.962 24.5251 186.512 24.7686C186.087 25.0121 185.736 25.054 185.453 24.9029C185.194 24.7854 184.969 24.7518 184.769 24.8105C184.226 25.054 183.959 25.667 183.959 26.6661C183.959 27.2706 184.076 27.7492 184.301 28.1102C184.527 28.4461 184.643 28.7567 184.643 29.059C184.643 29.3948 184.527 29.7559 184.301 30.1421C184.076 30.6207 183.959 31.4351 183.959 32.5854V34.0295L184.001 37.1445L182.767 38.0512C181.891 38.6809 181.424 39 181.365 39C181.282 39 181.082 38.5718 180.773 37.7154C180.464 36.859 180.306 36.3216 180.306 36.1117C180.306 35.8431 180.464 35.3729 180.773 34.7096C181.115 33.9539 181.307 32.6777 181.365 30.8642V29.5963C181.365 27.9423 181.207 26.7249 180.898 25.9608C180.589 25.1884 179.989 24.4663 179.113 23.7694C178.404 23.2237 178.053 22.636 178.053 22.0062C178.053 21.704 178.07 21.4605 178.095 21.2842L178.22 20.5621H179.413C180.231 20.5621 180.748 20.453 180.94 20.2431C181.082 20.0919 181.24 19.395 181.407 18.144C181.574 16.893 181.657 15.8603 181.657 15.0459C181.657 14.7184 181.632 14.4581 181.574 14.2734C181.515 14.0971 181.49 13.9124 181.49 13.7277C181.49 13.3666 181.574 12.7033 181.749 11.7378C181.891 10.831 181.957 10.2181 181.957 9.88224C181.957 9.67234 181.932 9.538 181.874 9.47923C181.791 9.36168 181.532 9.23574 181.107 9.11819C181.048 9.11819 180.99 9.1098 180.94 9.093C180.881 9.07621 180.84 9.06781 180.815 9.06781C180.506 9.06781 180.106 9.24413 179.622 9.61356C179.08 10.0082 178.612 10.2013 178.22 10.2013C177.962 10.2013 177.737 10.1425 177.536 10.0166C177.253 9.86545 177.169 9.54639 177.278 9.06781C177.536 7.49774 178.562 6.43143 180.381 5.8605C181.54 5.46588 182.124 5.02088 182.124 4.50032C182.124 4.46674 182.024 4.13929 181.824 3.50958C181.624 2.96383 181.524 2.56082 181.524 2.29214C181.515 1.76319 181.749 1.23423 182.233 0.722067ZM186.862 8.36254C186.412 8.18622 185.97 8.09386 185.544 8.09386C185.236 8.09386 185.027 8.12745 184.927 8.18622C184.827 8.24499 184.76 8.42971 184.735 8.73197C184.735 8.76555 184.727 8.8831 184.71 9.093C184.693 9.30291 184.685 9.47083 184.685 9.58838C184.685 9.70592 184.693 9.89903 184.71 10.1509C184.727 10.4112 184.735 10.5959 184.735 10.7135V11.3432C184.735 12.0988 184.677 12.7705 184.568 13.375C184.368 14.3658 184.268 15.0207 184.268 15.3145C184.268 15.8267 184.393 16.2633 184.652 16.6243C184.852 16.893 184.952 17.0861 184.952 17.1869C184.952 17.296 184.885 17.4639 184.744 17.7074C184.118 18.7653 183.809 19.5462 183.809 20.0583C183.809 20.327 183.826 20.5537 183.851 20.7384C183.909 21.2506 184.001 21.5864 184.126 21.7544C184.251 21.9223 184.527 22.0062 184.952 22.0062C185.094 22.0062 185.503 21.9727 186.187 21.9139C187.546 21.7963 188.597 21.4017 189.331 20.7384C190.149 19.9828 190.616 18.631 190.733 16.6747L190.858 14.7772L189.84 12.5186C188.789 10.2013 187.797 8.81593 186.862 8.36254Z" fill="#345D2F"/>
<path d="M192.643 13.7362C192.81 13.6774 192.969 13.6438 193.11 13.6438C193.703 13.6438 194.245 13.8285 194.729 14.1895C195.154 14.4918 195.721 14.6849 196.43 14.7773C197.198 14.8696 197.823 15.0879 198.324 15.4322C198.816 15.7764 199.266 16.3474 199.659 17.1282C200.568 18.8746 201.018 20.3187 201.018 21.469C201.018 21.9812 200.935 22.4177 200.76 22.7788C200.501 23.3497 200.067 23.9962 199.442 24.7183C198.816 25.4404 198.282 25.9357 197.823 26.2128C197.056 26.6662 196.38 26.8929 195.788 26.8929C194.37 26.8929 193.577 25.6419 193.411 23.1398C193.411 23.0475 193.402 22.9215 193.386 22.7536C193.369 22.5857 193.361 22.4765 193.361 22.4178C193.361 20.9148 193.869 19.9325 194.887 19.4791C195.454 19.1768 195.838 19.0257 196.038 19.0257C196.18 19.0257 196.322 18.9166 196.464 18.7067C196.522 18.5891 196.547 18.5136 196.547 18.48C196.547 18.3288 196.305 18.0098 195.821 17.5312C195.279 16.9855 194.812 16.7168 194.42 16.7168C194.078 16.7168 193.369 16.8091 192.293 16.9855L191.525 17.1198V15.852C191.542 14.7437 191.909 14.0384 192.643 13.7362ZM197.365 21.9644C197.198 21.6369 196.998 21.469 196.772 21.469C196.405 21.469 196.147 21.7712 196.005 22.3758C195.921 22.7116 196.03 22.9467 196.347 23.0978C196.514 23.1902 196.672 23.2322 196.814 23.2322C197.264 23.2322 197.498 22.9887 197.498 22.5101C197.49 22.3254 197.448 22.1407 197.365 21.9644Z" fill="#345D2F"/>
<path d="M209.085 17.9425C209.535 17.5814 209.919 17.3967 210.236 17.3967C210.261 17.3967 210.336 17.4051 210.444 17.4219C210.561 17.4387 210.645 17.4471 210.703 17.4471C211.662 17.5647 212.146 18.0684 212.146 18.9416C212.146 18.9752 212.138 19.034 212.121 19.1179C212.104 19.2019 212.096 19.2691 212.096 19.3026C211.954 20.4193 211.42 20.9735 210.478 20.9735H210.177H209.877C209.427 20.9735 209.035 21.175 208.709 21.5864C208.384 21.9894 207.975 22.8122 207.5 24.0465C207.016 25.2555 206.616 26.0531 206.29 26.4645C205.965 26.8676 205.573 27.0775 205.122 27.0775H205.039C204.305 27.0775 203.938 26.6744 203.938 25.86C203.938 25.4402 204.155 24.2564 204.597 22.3169C205.039 20.3774 205.314 19.3446 205.423 19.2187C205.539 19.1011 206.048 18.9668 206.949 18.8157C207.758 18.6813 208.467 18.3959 209.085 17.9425Z" fill="#345D2F"/>
<path d="M222.723 8.04352C222.982 7.95116 223.249 7.90918 223.532 7.90918C224.35 7.90918 224.767 8.58927 224.767 9.94104C224.767 11.0577 224.425 12.1408 223.749 13.1987C223.24 13.9796 222.982 14.7184 222.982 15.4153C222.982 16.1374 223.24 16.7671 223.749 17.3128C224.15 17.7326 224.567 17.9425 225.026 17.9425C225.251 17.9425 225.534 17.867 225.876 17.7159C226.043 17.6235 226.218 17.5815 226.385 17.5815C226.694 17.5815 226.961 17.7159 227.169 17.9845C227.378 18.2532 227.486 18.5723 227.486 18.9333C227.486 19.3867 227.328 19.7309 227.019 19.9744C226.736 20.1843 226.193 20.3942 225.401 20.6041C224.609 20.814 223.924 20.9232 223.366 20.9232C223.107 20.9232 222.94 20.9064 222.857 20.8812C222.573 20.8224 222.39 20.7888 222.306 20.7888C221.881 20.7888 221.555 20.9819 221.33 21.3766C221.105 21.7712 220.905 22.4429 220.738 23.4084C220.621 24.0381 220.388 24.7266 220.012 25.4655C219.645 26.2043 219.303 26.6745 218.995 26.8928C218.594 27.1615 218.319 27.2958 218.144 27.2958C217.944 27.2958 217.777 27.1111 217.635 26.7501C217.576 26.599 217.551 26.3723 217.551 26.07C217.551 25.709 217.61 25.2136 217.718 24.5755C217.885 23.6687 217.977 22.997 217.977 22.5436C217.977 21.9979 217.852 21.6452 217.593 21.4857C217.335 21.3262 216.859 21.2338 216.15 21.2338C214.624 21.2338 213.856 20.9148 213.856 20.2851C213.856 20.0752 213.914 19.8485 214.023 19.605C214.365 18.8241 215.383 18.3708 217.084 18.2448C218.219 18.1273 218.978 17.9006 219.378 17.5647C219.77 17.2373 219.971 16.6579 219.971 15.8519C219.971 15.4909 220.071 14.9955 220.271 14.3574C220.388 14.0887 220.713 13.1232 221.247 11.4691C221.923 9.31133 222.415 8.16106 222.723 8.04352Z" fill="#345D2F"/>
<path d="M238.873 17.8921C239.382 17.0189 239.749 16.5823 239.974 16.5823C240.658 16.5823 240.992 17.1364 240.992 18.2531C240.992 19.1599 240.766 20.0919 240.316 21.0574C239.916 21.897 239.649 22.8794 239.507 23.9961C239.423 24.8357 239.298 25.4486 239.148 25.8264C238.99 26.2042 238.648 26.6912 238.105 27.2957C237.28 28.2613 236.404 30.0413 235.469 32.6273C235.186 33.3829 234.769 34.0546 234.218 34.6423C233.668 35.2301 233.15 35.5239 232.667 35.5239C232.408 35.5239 232.225 35.482 232.116 35.4148C231.999 35.3392 231.891 35.1545 231.774 34.8522C231.607 34.4912 231.515 34.147 231.515 33.8111C231.515 33.2402 231.799 32.6021 232.366 31.9136C233.134 31.0068 233.517 30.1504 233.517 29.336C233.517 29.1261 233.601 28.933 233.776 28.7483C234.001 28.5048 234.218 28.2193 234.41 27.8919C234.577 27.5896 234.669 27.3797 234.685 27.2621C234.702 27.1446 234.635 26.9767 234.493 26.7668C234.377 26.5821 233.885 26.179 233.009 25.5493C232.133 24.9196 231.691 24.4327 231.691 24.1052C231.691 23.9205 231.39 23.5175 230.798 22.8878C230.006 22.0146 229.605 21.1834 229.605 20.4025C229.605 20.159 229.647 19.9071 229.73 19.6385C229.839 19.1599 230.072 18.7317 230.406 18.3539C230.748 17.976 231.073 17.7913 231.382 17.7913C231.724 17.7913 232.016 17.976 232.275 18.3539C232.533 18.7317 232.9 19.5041 233.384 20.6796C234.01 22.2497 234.477 23.1229 234.785 23.2992C234.869 23.3579 234.952 23.3915 235.044 23.3915C235.386 23.3915 235.72 23.0137 236.062 22.2581C236.262 21.7795 236.512 21.3261 236.829 20.9063C237.029 20.6964 237.129 20.5117 237.129 20.3605C237.129 20.243 237.288 20.0163 237.597 19.6804C238.022 19.2019 238.447 18.6141 238.873 17.8921Z" fill="#345D2F"/>
</svg>
