<svg width="175" height="175" viewBox="0 0 175 175" fill="none" xmlns="http://www.w3.org/2000/svg">
<mask id="path-1-inside-1" fill="white">
<path fill-rule="evenodd" clip-rule="evenodd" d="M16.9823 11.6158C11.4692 11.9439 7.26602 16.6792 7.59417 22.1923L15.6155 156.954C15.9436 162.467 20.6789 166.67 26.192 166.342L160.953 158.321C166.467 157.992 170.67 153.257 170.342 147.744L162.32 12.9826C161.992 7.46954 157.257 3.26632 151.744 3.59447L16.9823 11.6158ZM146.883 22.9174L24.1007 30.2257L29.8641 127.054L152.647 119.746L146.883 22.9174Z"/>
</mask>
<path fill-rule="evenodd" clip-rule="evenodd" d="M16.9823 11.6158C11.4692 11.9439 7.26602 16.6792 7.59417 22.1923L15.6155 156.954C15.9436 162.467 20.6789 166.67 26.192 166.342L160.953 158.321C166.467 157.992 170.67 153.257 170.342 147.744L162.32 12.9826C161.992 7.46954 157.257 3.26632 151.744 3.59447L16.9823 11.6158ZM146.883 22.9174L24.1007 30.2257L29.8641 127.054L152.647 119.746L146.883 22.9174Z" fill="white"/>
<path d="M7.59417 22.1923L9.59064 22.0735L7.59417 22.1923ZM16.9823 11.6158L17.1012 13.6123L16.9823 11.6158ZM15.6155 156.954L13.619 157.073L15.6155 156.954ZM26.192 166.342L26.0732 164.345L26.192 166.342ZM160.953 158.321L161.072 160.317L160.953 158.321ZM170.342 147.744L172.338 147.625L170.342 147.744ZM162.32 12.9826L160.324 13.1015L162.32 12.9826ZM151.744 3.59447L151.625 1.59801L151.744 3.59447ZM24.1007 30.2257L23.9818 28.2293L21.9854 28.3481L22.1042 30.3446L24.1007 30.2257ZM146.883 22.9174L148.88 22.7986L148.761 20.8021L146.765 20.9209L146.883 22.9174ZM29.8641 127.054L27.8677 127.173L27.9865 129.17L29.983 129.051L29.8641 127.054ZM152.647 119.746L152.766 121.743L154.762 121.624L154.643 119.627L152.647 119.746ZM9.59064 22.0735C9.32812 17.663 12.6907 13.8748 17.1012 13.6123L16.8635 9.61932C10.2478 10.0131 5.20392 15.6954 5.59771 22.3111L9.59064 22.0735ZM17.612 156.835L9.59064 22.0735L5.59771 22.3111L13.619 157.073L17.612 156.835ZM26.0732 164.345C21.6627 164.608 17.8745 161.245 17.612 156.835L13.619 157.073C14.0128 163.688 19.6951 168.732 26.3108 168.338L26.0732 164.345ZM160.835 156.324L26.0732 164.345L26.3108 168.338L161.072 160.317L160.835 156.324ZM168.345 147.863C168.608 152.273 165.245 156.062 160.835 156.324L161.072 160.317C167.688 159.923 172.732 154.241 172.338 147.625L168.345 147.863ZM160.324 13.1015L168.345 147.863L172.338 147.625L164.317 12.8638L160.324 13.1015ZM151.863 5.59094C156.273 5.32842 160.061 8.691 160.324 13.1015L164.317 12.8638C163.923 6.24809 158.241 1.20423 151.625 1.59801L151.863 5.59094ZM17.1012 13.6123L151.863 5.59094L151.625 1.59801L16.8635 9.61932L17.1012 13.6123ZM24.2195 32.2222L147.002 24.9139L146.765 20.9209L23.9818 28.2293L24.2195 32.2222ZM31.8606 126.936L26.0971 30.1069L22.1042 30.3446L27.8677 127.173L31.8606 126.936ZM152.528 117.75L29.7453 125.058L29.983 129.051L152.766 121.743L152.528 117.75ZM144.887 23.0362L150.65 119.865L154.643 119.627L148.88 22.7986L144.887 23.0362Z" fill="black" mask="url(#path-1-inside-1)"/>
<mask id="mask0" style="mask-type:alpha" maskUnits="userSpaceOnUse" x="8" y="9" width="158" height="153">
<rect x="26.1858" y="9.84424" width="141" height="134" transform="rotate(7.57521 26.1858 9.84424)" fill="#C4C4C4"/>
</mask>
<g mask="url(#mask0)">
<path d="M112.393 41.8503C106.065 38.3758 104.239 43.2483 104.153 46.6802C104.066 50.1121 103.938 57.9344 103.116 68.1203C102.295 78.3062 97.2958 83.3509 97.2958 83.3509C97.2958 83.3509 85.1597 80.0784 75.2671 78.6412C75.5057 73.2939 68.0031 45.4919 64.5344 39.3126C62.1515 35.0583 61.1337 33.4471 57.3225 34.5882C53.5114 35.7293 53.0903 40.3049 54.052 42.7612C55.0137 45.2175 57.3521 53.0368 58.8288 60.5132C60.3055 67.9895 62.6261 79.6877 62.7731 83.1402C62.7048 87.4042 61.9095 89.8648 61.9095 89.8648L49.2838 87.4021C49.2838 87.4021 44.1303 84.0697 36.0986 85.0134C26.4975 86.1493 24.9707 97.2192 29.1358 96.5957C33.3009 95.9722 39.2456 98.5177 39.2456 98.5177C39.2456 98.5177 55.3667 108.545 58.1907 110.352C61.0147 112.159 62.0727 116.04 66.5101 120.998C69.2771 124.152 72.2171 127.15 75.3164 129.978C78.2833 132.782 79.67 139.266 79.67 139.266L83.3841 185.831C112.241 197.477 126.631 171.262 126.631 171.262C126.631 171.262 116.751 143.447 115.674 132.557C114.596 121.668 115.738 119.566 117.082 114.953C118.427 110.34 118.533 100.072 118.39 94.4152C118.247 88.758 115.374 74.4356 115.752 68.8658C116.129 63.296 117.855 44.8469 112.393 41.8503Z" fill="#FBD6A0"/>
<path d="M59.3757 34.2339C57.0873 34.4253 55.3071 37.0516 55.881 39.6393C56.4549 42.2269 61.8912 54.4873 63.8157 64.2759C65.7402 74.0645 69.0489 111.688 69.0489 111.688L77.9134 112.297C77.9134 112.297 74.2466 82.5181 74.0046 75.9107C73.7397 68.6065 72.5545 64.1611 70.5732 56.6547C68.5919 49.1484 63.341 33.8977 59.3757 34.2339Z" fill="#F8C27B"/>
<path d="M27.6876 92.4877C27.6876 92.4877 26.7911 95.5629 30.7522 95.1425C34.7133 94.7221 36.3942 92.6333 45.0451 97.3782C53.696 102.123 68.1778 114.894 68.1778 114.894C68.1778 114.894 73.8357 98.2638 66.7854 93.7342C59.7352 89.2046 49.2337 87.87 49.2337 87.87C49.2337 87.87 42.2143 83.7385 34.9845 85.5665C27.7547 87.3944 27.6876 92.4877 27.6876 92.4877Z" fill="#F8C27B"/>
<path d="M109.703 40.7894C109.703 40.7894 106.882 42.4811 106.911 49.2095C106.939 55.9379 102.959 85.2237 107.291 95.3218C107.878 96.6837 111.151 107.144 115.044 103.009C118.938 98.8731 116.381 80.9594 115.918 77.6516C115.455 74.3439 114.673 68.7438 114.945 64.8621C115.216 60.9804 116.546 53.3627 115.526 48.1794C114.784 44.4011 114.565 42.7344 109.703 40.7894Z" fill="#F8C27B"/>
<path d="M82.4706 186.531L78.7128 139.421C78.567 138.784 77.2246 133.125 74.6593 130.699L73.7345 129.834C70.9421 127.255 68.2902 124.528 65.7902 121.665C64.0879 119.722 62.553 117.638 61.2021 115.437C59.9361 113.473 59.0271 112.052 57.6898 111.197C54.99 109.472 39.9646 100.12 38.8202 99.4101C38.1794 99.1278 32.9128 97.0504 29.3025 97.5796C28.8314 97.6679 28.345 97.6243 27.8969 97.4536C27.4489 97.2828 27.0568 96.9917 26.7638 96.6123C25.7779 95.3447 25.7556 93.0551 26.7065 90.7821C28.2571 87.0749 31.7364 84.5652 36.0105 84.0584C43.5792 83.1671 48.6752 85.9019 49.6672 86.49L61.218 88.7401C61.6087 86.9105 61.8158 85.0464 61.8363 83.1755C61.665 79.8405 59.464 68.7032 58.0089 61.3233L57.8914 60.7268C56.3761 53.0778 54.025 45.3811 53.1565 43.1398C52.4075 41.0597 52.5019 38.7699 53.4194 36.7595C53.7751 36.0153 54.2846 35.355 54.9143 34.822C55.5441 34.289 56.2797 33.8955 57.0728 33.6673C61.7239 32.2735 63.1165 34.7503 65.4166 38.8491C68.7487 44.808 75.8586 70.5784 76.2608 77.8103C84.6897 79.1063 94.513 81.6162 96.9893 82.2676C98.1125 80.9037 101.521 76.1424 102.168 68.068C102.906 58.9349 103.079 51.7277 103.172 47.8546L103.197 46.6846C103.227 45.5762 103.528 41.845 106.19 40.3167C107.943 39.3126 110.195 39.549 112.886 41.023C117.883 43.7644 117.704 56.0919 116.836 67.7772L116.769 68.9699C116.56 72.055 117.422 78.2215 118.183 83.6612C118.781 87.9212 119.341 91.9541 119.399 94.4241C119.575 101.305 119.332 110.875 118.053 115.256C117.918 115.719 117.788 116.16 117.658 116.579C116.513 120.364 115.755 122.864 116.701 132.492C117.747 143.162 127.5 170.714 127.598 170.991L127.742 171.402L127.539 171.771C124.713 176.489 120.935 180.569 116.446 183.75C109.668 188.546 98.3866 192.957 83.0721 186.778L82.4706 186.531ZM39.7177 97.6538L39.7829 97.6826C39.9438 97.7855 55.9373 107.738 58.7378 109.526C60.4319 110.611 61.495 112.265 62.8423 114.355C64.1413 116.473 65.6182 118.476 67.2571 120.343C69.722 123.157 72.3365 125.837 75.0893 128.371L76.018 129.238C79.1698 132.215 80.5967 138.754 80.6535 139.03L80.671 139.157L84.3403 185.116C95.7356 189.55 106.128 188.543 115.237 182.127C119.371 179.167 122.886 175.428 125.584 171.12C124.288 167.436 115.744 142.883 114.733 132.591C113.753 122.573 114.598 119.782 115.767 115.92C115.89 115.517 116.024 115.077 116.157 114.618C117.369 110.464 117.597 101.115 117.425 94.3788C117.367 92.0139 116.808 88.041 116.22 83.8312C115.408 78.03 114.549 72.0209 114.794 68.7409C114.814 68.3928 114.845 67.9898 114.864 67.5404C115.27 62.0012 116.484 45.1397 111.925 42.6416C109.874 41.5138 108.263 41.2709 107.14 41.9068C105.728 42.718 105.174 44.8817 105.13 46.6343L105.101 47.8026C105.009 51.6945 104.834 58.9374 104.089 68.1271C103.248 78.5467 98.2071 83.7472 97.9925 83.9639L97.5938 84.3697L97.0457 84.2198C96.9344 84.1708 84.8513 80.9446 75.1308 79.5328L74.267 79.4132L74.3131 78.5179C74.5522 73.18 67.0181 45.6159 63.7037 39.7106C61.2904 35.4108 60.6746 34.5307 57.6237 35.4436C57.0895 35.5963 56.5943 35.8618 56.1715 36.222C55.7488 36.5823 55.4084 37.029 55.1732 37.5321C54.4634 39.0731 54.3847 40.8309 54.9539 42.43C56.0282 45.1923 58.3638 53.1844 59.7781 60.3448L59.8956 60.9414C61.3714 68.399 63.5976 79.6664 63.7629 83.1087L63.764 83.1686C63.6793 87.5216 62.8827 90.0686 62.8503 90.1733L62.5931 90.9756L48.9326 88.3135L48.7756 88.2122C48.7257 88.1902 43.7829 85.0972 36.2341 85.9744C30.9502 86.5995 28.9805 90.3738 28.5014 91.5133C27.7624 93.2845 27.839 94.8061 28.2997 95.3935C28.38 95.5004 28.4909 95.5806 28.6176 95.6233C28.7444 95.6661 28.8811 95.6695 29.0098 95.6332C33.3915 94.986 39.3936 97.5157 39.6486 97.6234L39.7177 97.6538Z" fill="#231916"/>
<path d="M97.6114 122.641L90.5671 156.793L91.768 186.553C91.768 186.553 100.384 189.255 109.74 184.243C118.373 179.627 125.566 172.015 125.125 170.905L112.032 127.812L97.6114 122.641Z" fill="#F8C27B"/>
<path d="M92.1243 119.858C94.1047 113.282 89.2501 108.085 89.1971 108.039L90.4503 106.838C90.682 107.082 96.0694 112.806 93.7843 120.365L92.1243 119.858Z" fill="#231916"/>
<path d="M83.3029 139.081C83.3227 139.049 83.3381 139.014 83.3485 138.978L81.8333 138.132C82.2059 137.463 87.1145 133.134 96.387 134.595L96.0952 136.298C87.3275 134.908 83.3385 139.042 83.3029 139.081Z" fill="#231916"/>
<path d="M42.7722 93.6849C42.8246 93.4516 44.0805 87.9482 49.0667 86.5739L49.5317 88.2437C45.5624 89.3381 44.4797 94.0114 44.4671 94.0607L42.7722 93.6849Z" fill="#231916"/>
<path d="M92.3675 133.942L92.0361 132.239C92.3113 132.186 98.8022 130.985 105.111 133.764L104.414 135.348C98.6326 132.806 92.4271 133.931 92.3675 133.942Z" fill="#231916"/>
<path d="M101.982 111.565C99.5693 110.512 97.6104 108.634 96.456 106.27L98.0487 105.598C99.0708 107.606 100.773 109.187 102.852 110.058L102.185 111.655L101.982 111.565Z" fill="#231916"/>
<path d="M102.937 106.9C100.773 105.984 98.9081 104.48 97.5542 102.56L99.0282 101.648L98.2903 102.106L99.026 101.642C100.499 103.648 102.59 105.114 104.977 105.816L104.464 107.471C103.944 107.312 103.434 107.121 102.937 106.9Z" fill="#231916"/>
<path d="M67.545 107.134L66.2742 105.952C73.0262 98.7174 70.7031 94.0362 70.6015 93.8403L72.1269 93.0199C72.2567 93.2556 75.2118 98.9157 67.545 107.134Z" fill="#231916"/>
<path d="M107.653 61.1508C106.921 60.8279 106.252 60.3781 105.677 59.8223L106.891 58.5854C107.007 58.6961 109.801 61.3414 112.774 58.9613L113.853 60.3201C113.008 61.0377 111.975 61.4976 110.876 61.6449C109.776 61.7921 108.658 61.6206 107.653 61.1508Z" fill="#231916"/>
<path d="M58.5218 51.8172L58.4374 51.78L59.1618 50.2084C59.3077 50.2726 62.8114 51.8161 64.8189 48.5803L66.296 49.492C64.0744 53.0684 60.291 52.5965 58.5218 51.8172Z" fill="#231916"/>
<path d="M58.5955 42.5793C58.6586 42.7339 58.6742 42.9038 58.6401 43.0673C58.606 43.2307 58.5238 43.3802 58.4041 43.4966C58.2844 43.6129 58.1326 43.6909 57.9682 43.7205C57.8038 43.75 57.6343 43.7298 57.4813 43.6625C57.3284 43.5951 57.1991 43.4836 57.11 43.3424C57.0208 43.2011 56.9759 43.0365 56.981 42.8696C56.986 42.7027 57.0409 42.5412 57.1384 42.4058C57.236 42.2703 57.3719 42.1671 57.5286 42.1093C57.7326 42.0342 57.9579 42.0412 58.1569 42.1289C58.356 42.2166 58.5132 42.3781 58.5955 42.5793Z" fill="#231916"/>
<path d="M61.862 41.3538C61.9252 41.5084 61.9407 41.6783 61.9067 41.8417C61.8726 42.0051 61.7904 42.1546 61.6707 42.271C61.551 42.3874 61.3992 42.4653 61.2348 42.4949C61.0704 42.5244 60.9009 42.5043 60.7479 42.4369C60.595 42.3695 60.4657 42.2581 60.3766 42.1168C60.2874 41.9755 60.2425 41.8109 60.2476 41.644C60.2526 41.4772 60.3075 41.3157 60.405 41.1802C60.5026 41.0448 60.6385 40.9415 60.7952 40.8838C60.9992 40.8086 61.2245 40.8156 61.4235 40.9033C61.6226 40.991 61.7798 41.1525 61.862 41.3538Z" fill="#231916"/>
<path d="M61.2835 46.89C61.9008 46.6527 62.3997 46.1819 62.6719 45.5795C62.9441 44.9771 62.9679 44.2916 62.738 43.6715L58.0636 45.4303C58.3007 46.0478 58.7716 46.5471 59.3742 46.8203C59.9769 47.0935 60.6628 47.1186 61.2835 46.89Z" fill="#231916"/>
<path d="M33.157 89.7564C33.6066 89.7759 33.8171 90.1616 33.6139 90.6124C33.5074 90.8375 33.3401 91.0284 33.1308 91.1635C32.9215 91.2986 32.6786 91.3725 32.4294 91.3769C31.9797 91.3574 31.7693 90.9717 31.9707 90.5248C32.078 90.2996 32.2456 90.1086 32.455 89.9729C32.6644 89.8372 32.9074 89.7623 33.157 89.7564Z" fill="#231916"/>
<path d="M34.7023 86.3211C35.1503 86.3445 35.3624 86.7263 35.1631 87.1787C35.0557 87.4038 34.8876 87.5945 34.6776 87.7293C34.4677 87.864 34.2243 87.9375 33.9747 87.9416C33.5251 87.9221 33.3146 87.5364 33.5161 87.0895C33.6233 86.8643 33.7909 86.6732 34.0004 86.5376C34.2098 86.4019 34.4528 86.327 34.7023 86.3211Z" fill="#231916"/>
<path d="M38.57 89.0459C39.1696 87.6848 38.557 86.5269 37.1812 86.4564L34.9709 91.37C36.3399 91.4558 37.9589 90.4019 38.57 89.0459Z" fill="#231916"/>
<path d="M106.918 49.2126C106.93 49.3791 106.892 49.5453 106.808 49.6899C106.724 49.8344 106.6 49.9506 106.449 50.0237C106.299 50.0968 106.131 50.1233 105.965 50.1C105.8 50.0766 105.645 50.0044 105.521 49.8926C105.397 49.7808 105.309 49.6346 105.268 49.4725C105.228 49.3105 105.237 49.1401 105.294 48.9832C105.351 48.8264 105.454 48.6901 105.589 48.592C105.724 48.4939 105.885 48.4384 106.052 48.4327C106.269 48.4251 106.481 48.5023 106.643 48.6478C106.804 48.7933 106.903 48.9958 106.918 49.2126Z" fill="#231916"/>
<path d="M109.901 47.9353C109.912 48.1019 109.874 48.2681 109.79 48.4126C109.707 48.5571 109.582 48.6734 109.432 48.7465C109.281 48.8196 109.113 48.8461 108.947 48.8228C108.782 48.7994 108.627 48.7272 108.503 48.6154C108.379 48.5036 108.291 48.3573 108.25 48.1953C108.21 48.0333 108.219 47.8629 108.276 47.706C108.333 47.5491 108.436 47.4129 108.571 47.3148C108.706 47.2168 108.867 47.1612 109.034 47.1555C109.252 47.1479 109.463 47.225 109.625 47.3705C109.787 47.516 109.885 47.7185 109.901 47.9353Z" fill="#231916"/>
<path d="M109.376 52.955C109.961 52.6489 110.403 52.1246 110.604 51.4955C110.806 50.8664 110.752 50.1831 110.453 49.5934L106.011 51.8757C106.318 52.4612 106.843 52.9028 107.472 53.1048C108.102 53.3067 108.786 53.2529 109.376 52.955Z" fill="#231916"/>
<path d="M79.4614 132.5L79.5999 130.771L79.5231 131.653L79.5961 130.769C79.7843 130.779 84.2119 131.026 87.1532 125.858L88.6595 126.714C85.1552 132.879 79.6919 132.528 79.4614 132.5Z" fill="#231916"/>
<path d="M152.195 95.9028C152.195 95.9028 165.494 90.9165 162.896 80.3593C160.297 69.8022 152.686 64.7875 142.726 67.2166C132.766 69.6456 123.288 69.1827 111.534 76.0773C106.607 78.9422 88.1522 94.4122 85.8803 102.43C85.8135 102.675 85.6714 118.507 108.219 108.412C130.767 98.3159 125.692 99.2893 132.974 98.6426C140.256 97.996 142.302 100.623 152.195 95.9028Z" fill="#8DC220"/>
<path d="M90.588 111.819C89.756 111.449 88.9848 110.955 88.3008 110.354C84.7917 107.325 84.8319 102.563 84.9504 102.148C87.369 93.6 106.617 77.8159 111.046 75.2209C119.58 70.223 126.937 69.023 134.051 67.8629C136.945 67.389 139.679 66.9454 142.503 66.2573C152.937 63.7078 161.115 69.0177 163.847 80.1144C166.541 91.0571 153.454 96.4253 152.591 96.7822C145.621 100.121 142.39 99.8833 138.656 99.6304C136.798 99.4595 134.928 99.4476 133.068 99.5948C132.618 99.6391 132.212 99.6756 131.847 99.7026C128.514 99.9876 128.514 99.9876 123.694 102.296C120.78 103.709 116.353 105.833 108.627 109.287C100.785 112.805 94.7365 113.647 90.588 111.819ZM86.861 102.596C86.8629 103.133 87.0023 107.154 90.1491 109.342C93.6377 111.762 99.7552 111.138 107.838 107.52C115.536 104.077 119.939 101.956 122.854 100.552C127.893 98.1302 127.987 98.0844 131.69 97.7703L132.904 97.6684C134.866 97.5118 136.837 97.5213 138.798 97.6968C142.405 97.9445 145.251 98.1408 151.787 95.0181L151.864 94.9881C152.375 94.7965 164.32 90.1701 161.961 80.5883C159.48 70.5133 152.384 65.8676 142.974 68.1632C140.078 68.8698 137.18 69.342 134.375 69.8003C127.434 70.9314 120.26 72.1019 112.05 76.904C107.021 79.8526 89.1246 94.9822 86.8495 102.591L86.861 102.596Z" fill="#231916"/>
<path d="M106.299 92.5179C106.451 92.1729 119.844 82.6586 122.162 81.1939C124.48 79.7291 135.371 73.0544 132.206 67.1418C129.041 61.2292 122.075 63.4891 115.026 68.2032C107.978 72.9173 106.546 78.4349 101.661 80.6917C96.7768 82.9485 88.8293 90.3064 88.1473 94.4237C87.4654 98.5411 77.7625 108.458 77.7625 108.458C77.7625 108.458 81.9379 109.84 88.8873 105.247C95.8368 100.654 103.151 99.0603 106.299 92.5179Z" fill="#5CB431"/>
<path d="M75.9827 108.878L77.0693 107.764C79.7113 105.064 86.6954 97.3547 87.1886 94.2484C87.9681 89.556 96.3779 82.0537 101.254 79.8067C103.471 78.7877 104.979 76.9475 106.723 74.8182C108.634 72.4875 110.802 69.8442 114.485 67.3829C120.272 63.5234 124.961 61.9815 128.4 62.8415C130.401 63.3433 131.97 64.6295 133.059 66.6706C135.978 72.1316 129.098 77.982 122.811 81.9238L122.673 82.0094C120.455 83.4036 108.454 91.9425 107.102 93.0773C104.765 97.7887 100.394 100.056 95.7712 102.456C93.5893 103.544 91.4677 104.749 89.4155 106.065C82.1557 110.874 77.6366 109.451 77.4494 109.387L75.9827 108.878ZM128.756 65.0175C128.498 64.9053 128.231 64.8153 127.958 64.7484C125.115 64.036 120.843 65.5145 115.601 69.0193C112.159 71.3208 110.09 73.843 108.266 76.07C106.367 78.3832 104.725 80.3838 102.102 81.595C97.3748 83.7748 89.7375 90.9901 89.1427 94.5873C88.582 98.0027 82.7171 104.648 79.9013 107.67C81.6299 107.585 84.5528 106.972 88.3802 104.442C90.4817 103.089 92.655 101.85 94.8905 100.731C99.458 98.3624 103.403 96.3142 105.442 92.0806C105.565 91.8007 105.655 91.5975 112.877 86.4698C116.224 84.0716 120.419 81.1446 121.655 80.3663L121.79 80.2791C129.685 75.3289 133.085 70.825 131.359 67.597C130.812 66.4579 129.887 65.5436 128.741 65.0107L128.756 65.0175Z" fill="#231916"/>
<path d="M54.3146 129.012C54.3146 129.012 50.5719 127.19 52.6383 123.206C54.7048 119.222 60.2827 113.957 67.1345 112.04C73.9864 110.123 77.1138 107.33 81.8773 103.944C86.6408 100.558 106.864 78.6072 111.535 76.0775C115.495 73.931 92.0232 102.435 83.318 107.82C74.6127 113.206 68.9298 126.002 54.3146 129.012Z" fill="#E0EED7"/>
<path d="M54.1848 130.035L53.8816 129.902C52.672 129.264 51.7411 128.202 51.2683 126.92C50.8387 125.627 51.0103 124.228 51.7717 122.76C54.0149 118.438 59.9227 113.047 66.8745 111.101C72.5776 109.494 75.5558 107.331 79.3347 104.578C79.9707 104.112 80.625 103.635 81.3075 103.158C83.361 101.7 88.5305 96.5291 94.0041 91.0525C101.056 84.0006 108.35 76.7024 111.061 75.2186C112.215 74.5962 112.738 75.4265 112.795 75.525C113.132 76.1035 113.398 76.5596 109.72 81.4035C107.632 84.146 104.785 87.612 101.71 91.1509C98.8555 94.4258 89.1428 105.364 83.8137 108.661C80.8258 110.513 78.1553 113.319 75.3295 116.291C70.1134 121.776 64.2214 127.984 54.489 130L54.1848 130.035ZM108.721 79.4893C105.255 82.5405 100.093 87.715 95.3893 92.4227C89.8545 97.9548 84.6294 103.179 82.4401 104.737C81.7675 105.224 81.1051 105.687 80.4788 106.162C76.6965 108.923 73.4322 111.298 67.3897 112.99C60.9767 114.784 55.5441 119.72 53.4945 123.666C53.255 124.056 53.0972 124.491 53.0307 124.944C52.9642 125.397 52.9904 125.859 53.1077 126.302C53.3679 126.997 53.8462 127.59 54.4711 127.992C63.3709 126.034 68.7316 120.398 73.9193 114.946C76.8341 111.877 79.5887 108.984 82.7953 107C86.1021 104.954 92.3674 98.8557 99.574 90.6312C103.647 85.9934 106.762 82.1055 108.721 79.4893Z" fill="#231916"/>
<path d="M112.689 129.576C112.689 129.576 123.612 135.363 129.798 131.359C135.984 127.354 138.315 127.191 141.554 123.646C144.793 120.101 148.721 120.692 152.355 119.203C155.99 117.714 164.556 117.179 162.724 101.283C160.892 85.3869 137.157 86.8704 125.189 89.5184C113.222 92.1664 82.999 112.299 84.6581 122.378C86.4151 133.077 94.8287 131.537 99.1538 130.769C103.479 130.001 107.439 129.054 112.689 129.576Z" fill="#5CB431"/>
<path d="M89.5314 131.392C88.9961 131.157 88.4863 130.868 88.0098 130.529C85.7536 128.931 84.3036 126.241 83.6937 122.539C83.257 119.879 84.6589 116.583 87.8587 112.741C90.5266 109.535 94.46 105.953 99.2275 102.381C108.284 95.5944 118.875 89.9136 124.984 88.5488C130.421 87.3543 135.978 86.796 141.545 86.8851C148.605 87.0653 154.11 88.5289 157.899 91.2331C159.532 92.3642 160.897 93.8389 161.899 95.5535C162.9 97.268 163.513 99.1808 163.696 101.157C165.403 115.932 158.365 118.22 154.161 119.586C153.627 119.758 153.134 119.921 152.731 120.087C151.48 120.563 150.187 120.924 148.87 121.165C146.483 121.674 144.231 122.156 142.284 124.288C140.155 126.614 138.361 127.596 135.893 128.912C134.372 129.734 132.639 130.683 130.337 132.164C124.118 136.19 113.933 131.287 112.418 130.514C108.091 130.11 104.67 130.741 101.032 131.395L99.3183 131.707L99.2344 131.72C96.7788 132.177 92.874 132.864 89.5314 131.392ZM153.852 91.2036C146.089 87.7835 134.091 88.5456 125.399 90.4668C112.808 93.2519 84.171 113.415 85.6211 122.221C86.143 125.394 87.3241 127.654 89.1368 128.938C92.0776 131.021 96.1854 130.299 98.9027 129.821L98.9865 129.807L100.689 129.5C104.498 128.802 108.094 128.138 112.782 128.605L112.974 128.626L113.147 128.702C113.255 128.75 123.642 134.172 129.271 130.527C131.647 128.992 133.487 127.998 134.965 127.203C137.365 125.916 138.939 125.057 140.84 122.979C143.207 120.382 145.877 119.814 148.438 119.253C149.643 119.035 150.825 118.709 151.97 118.277C152.439 118.086 152.974 117.914 153.537 117.727C157.408 116.47 163.26 114.566 161.739 101.376C161.582 99.6717 161.054 98.0224 160.192 96.5434C159.33 95.0644 158.155 93.7916 156.749 92.814C155.84 92.1812 154.87 91.6417 153.852 91.2036Z" fill="#231916"/>
<path d="M58.8332 142.347C58.9002 142.642 54.7319 144.958 53.842 142.817C52.9521 140.676 50.0629 133.223 49.6375 130.829C49.212 128.435 48.7892 127.471 50.401 126.537C52.0128 125.604 53.9647 125.251 56.2494 130.945C57.6753 134.596 58.5462 138.439 58.8332 142.347Z" fill="#FDEBD1"/>
<path d="M54.1723 144.46C53.6126 144.212 53.171 143.756 52.9403 143.189C52.1355 141.251 49.1344 133.584 48.6848 131.005L48.5393 130.222C48.1826 128.348 47.8958 126.867 49.9184 125.698C50.6576 125.268 51.7907 124.755 53.0759 125.198C54.607 125.717 55.9062 127.438 57.1782 130.594C58.6416 134.337 59.5314 138.279 59.8176 142.286C59.8356 142.807 59.4261 143.643 57.0631 144.378C55.7335 144.827 54.8093 144.741 54.1723 144.46ZM52.5395 127.081L52.4359 127.036C52.0156 126.887 51.5681 126.988 50.908 127.383C50.1284 127.832 50.1034 127.972 50.4644 129.857C50.5143 130.108 50.568 130.36 50.6129 130.664C51.0143 132.874 53.7941 140.086 54.7567 142.447C54.7842 142.518 54.8306 142.58 54.8907 142.626C54.9509 142.673 55.0226 142.703 55.0983 142.712C55.8746 142.884 57.2246 142.316 57.8371 141.945C57.5159 138.305 56.6855 134.728 55.3702 131.318C54.1636 128.346 53.1804 127.364 52.5395 127.081Z" fill="#231916"/>
<path d="M68.101 141.156C68.101 141.156 76.334 138.694 83.4759 133.737C90.5057 128.966 97.943 124.823 105.701 121.357C112.294 118.415 144.801 105.904 144.801 105.904C144.801 105.904 108.617 115.665 100.255 117.41C91.8927 119.156 86.7051 124.035 83.7018 124.196C80.6984 124.356 72.0424 125.697 66.5685 128.876C61.0946 132.054 53.8242 143.565 68.101 141.156Z" fill="#E0EED7"/>
<path d="M61.1569 141.846C60.6727 141.653 60.2348 141.36 59.8721 140.985C59.5094 140.611 59.2302 140.164 59.0528 139.674C57.7373 136.055 62.3365 130.202 66.0834 128.021C71.6283 124.796 80.3092 123.388 83.6551 123.209C84.6907 123.157 86.3358 122.252 88.2427 121.21C91.1238 119.632 95.0671 117.473 100.063 116.442C108.292 114.738 144.185 105.065 144.529 104.96L145.135 106.811C144.809 106.937 112.577 119.345 106.081 122.243C98.38 125.688 90.9963 129.8 84.0143 134.533C76.8325 139.518 68.7046 141.98 68.3691 142.066L68.2559 142.094C65.1267 142.634 62.7457 142.546 61.1569 141.846ZM127.841 111.438C117.253 114.232 104.895 117.435 100.459 118.351C95.7494 119.326 92.1078 121.32 89.1808 122.919C86.9761 124.127 85.2375 125.078 83.7584 125.159C80.6951 125.32 72.2469 126.689 67.0636 129.707C63.764 131.632 60.0321 136.681 60.8827 139.015C61.4034 140.444 63.8869 140.861 67.8807 140.189C68.6003 139.97 76.294 137.536 82.9148 132.941C91.9412 126.681 101.578 122.136 105.297 120.474C108.648 118.974 118.744 114.989 127.841 111.438Z" fill="#231916"/>
<path d="M88.6092 114.876C88.6092 114.876 103.304 129.69 114.8 126.697C126.296 123.704 129.804 122.045 133.493 121.139C137.183 120.232 154.652 113.947 152.342 99.2594C150.033 84.572 132.846 85.2642 125.886 84.5463C118.925 83.8285 106.146 87.1536 102.978 89.3105C99.8102 91.4674 77.9497 105.776 88.6092 114.876Z" fill="#8DC220"/>
<path d="M102.735 125.969C95.0325 122.576 88.5661 116.212 87.9461 115.591C85.6725 113.637 84.5933 111.312 84.7345 108.682C85.0482 103.029 90.8966 96.317 102.107 88.73L102.427 88.5138C105.871 86.1672 118.811 82.8493 125.983 83.5869C126.759 83.6676 127.699 83.7291 128.689 83.7994C136.533 84.3338 151.137 85.3332 153.304 99.1156C155.56 113.477 139.933 120.574 133.729 122.081C132.347 122.419 131.008 122.859 129.157 123.472C126.198 124.458 122.154 125.785 115.053 127.633C111.038 128.684 106.718 127.724 102.735 125.969ZM142.739 88.4277C138.134 86.399 132.632 86.0215 128.558 85.7419C127.548 85.6726 126.595 85.6098 125.784 85.5271C119.238 84.8548 106.599 88.0306 103.527 90.1247L103.206 90.3448C89.8966 99.3465 86.874 105.344 86.6847 108.791C86.5708 110.828 87.4077 112.579 89.2397 114.142L89.2987 114.195C89.441 114.34 103.734 128.58 114.547 125.775C121.586 123.942 125.601 122.62 128.531 121.649C130.352 121.051 131.795 120.574 133.253 120.218C137.34 119.076 141.175 117.179 144.561 114.624C149.999 110.405 152.288 105.292 151.367 99.4344C150.447 93.5765 146.972 90.2924 142.739 88.4277Z" fill="#231916"/>
<path d="M87.8056 136.35C87.8056 136.35 95.1865 138.63 101.958 136.106C108.729 133.582 111.542 133.241 121.087 134.292C130.632 135.343 128.171 136.694 135.05 135.508C141.928 134.322 142.688 131.255 149.161 130.522C155.633 129.789 158.791 127.966 158.392 125.918C157.993 123.87 145.716 125.411 143.264 124.985C140.812 124.56 133.19 125.125 129.533 125.24C125.876 125.355 117.92 123.141 112.129 123.524C106.337 123.908 87.5021 129.559 87.8056 136.35Z" fill="#8DC220"/>
<path d="M86.8682 137.063L86.8402 136.378C86.4821 128.286 107.151 122.861 112.073 122.539C115.523 122.31 119.623 122.958 123.241 123.535C125.718 123.926 128.061 124.285 129.511 124.251C130.447 124.206 131.635 124.161 132.909 124.1C136.937 123.901 141.503 123.679 143.44 124.015C144.161 124.135 146.121 124.056 148.197 123.972C155.5 123.673 158.98 123.751 159.345 125.711C159.422 126.104 159.414 126.509 159.321 126.898C159.228 127.288 159.054 127.653 158.808 127.969C157.205 130.152 152.736 131.081 149.273 131.473C146.157 131.827 144.513 132.719 142.61 133.752C140.333 135.092 137.831 136.006 135.226 136.451C131.13 137.155 130.158 137.002 127.957 136.453C125.668 135.872 123.339 135.467 120.989 135.242C111.719 134.222 109.099 134.468 102.302 137C95.2966 139.609 87.8344 137.356 87.5237 137.26L86.8682 137.063ZM157.351 126.169C156.062 125.601 150.857 125.817 148.293 125.928C145.923 126.024 144.047 126.1 143.123 125.94C141.4 125.638 136.556 125.88 133.018 126.066C131.736 126.128 130.526 126.19 129.583 126.219C127.943 126.27 125.629 125.906 122.944 125.478C119.432 124.92 115.45 124.287 112.212 124.5C105.949 124.914 89.9679 130.266 88.8566 135.618C90.8452 136.086 96.4669 137.139 101.635 135.195C108.731 132.557 111.656 132.285 121.218 133.329C123.658 133.563 126.077 133.984 128.453 134.589C130.372 135.068 131.017 135.229 134.915 134.556C137.314 134.148 139.617 133.3 141.708 132.055C143.617 131.019 145.586 129.95 149.079 129.552C155.348 128.844 156.945 127.3 157.266 126.832C157.404 126.666 157.481 126.458 157.485 126.242L157.351 126.169Z" fill="#231916"/>
<path d="M55.0294 135.045C57.0891 136.923 61.6465 139.164 66.1453 134.861C70.644 130.557 76.3377 125.777 88.3498 119.418C99.6949 113.428 104.861 113.3 113.803 110.945C120.976 109.069 144.789 105.89 144.785 101.383C144.781 96.5561 113.97 97.1885 103.545 98.822C89.6265 101 64.6469 114.524 58.3729 119.873C52.0989 125.221 52.7424 128.118 52.7424 128.118C52.7424 128.118 52.9813 133.173 55.0294 135.045Z" fill="#E0EED7"/>
<path d="M57.1281 137.563C56.1222 137.115 55.1948 136.509 54.3816 135.767C52.1511 133.736 51.8172 129.001 51.7841 128.213C51.69 127.522 51.6661 124.32 57.7525 119.127C63.8389 113.934 88.755 100.148 103.407 97.8544C111.716 96.5521 140.016 95.4409 144.854 99.5727C145.134 99.7857 145.362 100.059 145.521 100.372C145.681 100.684 145.768 101.029 145.777 101.38C145.781 105.282 135.809 107.518 121.699 110.266C118.525 110.887 115.783 111.423 114.048 111.876C111.939 112.43 110.049 112.861 108.229 113.268C102.401 114.588 97.369 115.722 88.7974 120.273C76.9841 126.514 71.25 131.313 66.8141 135.558C63.5021 138.759 59.9372 138.8 57.1281 137.563ZM53.7104 127.949L53.7452 128.047L53.7249 128.093C53.7845 129.383 54.2596 133.016 55.7021 134.329C56.5218 135.08 60.8582 138.592 65.4859 134.162C70.0185 129.823 75.8758 124.932 87.9061 118.562C96.7017 113.908 101.848 112.742 107.812 111.396C109.619 110.987 111.49 110.567 113.564 110.02C115.362 109.548 118.133 109.011 121.338 108.381C126.08 107.458 131.98 106.308 136.536 105.005C143.613 102.972 143.816 101.565 143.816 101.409C143.774 101.278 143.691 101.164 143.579 101.085C139.738 97.7995 113.837 98.2282 103.703 99.8157C90.371 101.899 65.5574 115.058 59.0135 120.644C53.7211 125.148 53.6881 127.688 53.7104 127.949Z" fill="#231916"/>
<path d="M55.849 135.827C55.849 135.827 54.1789 142.874 60.1005 145.025C66.022 147.175 74.8379 145.19 78.8867 143C82.9354 140.81 86.6752 136.762 92.5568 135.654C98.4384 134.546 108.261 131.306 115.706 132.224C123.152 133.141 138.408 130.619 138.408 130.619C138.408 130.619 120.474 129.338 112.682 129.55C104.89 129.762 92.1408 133.072 86.2712 134.767C80.4015 136.462 68.4711 140.128 62.1703 135.989C61.2435 135.357 60.1541 135.005 59.0328 134.977C57.9116 134.948 56.8061 135.243 55.849 135.827Z" fill="#E0EED7"/>
<path d="M59.2504 145.758C54.4264 143.633 54.2779 138.239 54.8992 135.601L54.9881 135.233L55.3007 135.023C56.4187 134.326 57.7162 133.972 59.0335 134.004C60.3509 134.035 61.6306 134.45 62.7153 135.199C68.4324 138.958 79.4767 135.752 85.4127 134.032L86.0153 133.84C88.9085 133.004 103.803 128.829 112.668 128.583C120.422 128.373 138.321 129.643 138.494 129.655L146.759 130.242L138.57 131.606C137.942 131.71 123.074 134.128 115.574 133.21C110.133 132.538 103.232 134.182 97.7177 135.506C95.9048 135.939 94.1885 136.351 92.7267 136.631C88.9362 137.351 86.0652 139.364 83.2906 141.315C82.0252 142.244 80.7062 143.098 79.3406 143.873C75.2133 146.106 66.1304 148.313 59.7483 145.959C59.5799 145.894 59.4116 145.829 59.2504 145.758ZM56.7244 136.451C56.4954 137.865 56.1049 142.528 60.4301 144.131C65.992 146.183 74.4489 144.305 78.4136 142.16C79.7162 141.413 80.9747 140.592 82.1825 139.7C84.9881 137.732 88.1597 135.494 92.3744 134.695C93.7899 134.426 95.484 134.023 97.2782 133.591C102.958 132.234 110.031 130.543 115.83 131.235C119.034 131.63 123.774 131.365 128.077 130.948C122.705 130.66 116.491 130.422 112.731 130.51C104.09 130.746 89.4206 134.868 86.5682 135.695L85.9758 135.864C80.1989 137.535 69.8358 140.547 63.2043 137.625C62.6715 137.392 62.1593 137.114 61.673 136.795C60.9553 136.298 60.1166 136.003 59.2456 135.942C58.3745 135.882 57.5035 136.058 56.7244 136.451Z" fill="#231916"/>
<path d="M105.799 107.872L104.07 105.984L105.189 104.962L105.895 105.731L106.951 104.758L107.98 105.876L105.799 107.872Z" fill="#231916"/>
<path d="M104.099 110.474C103.98 110.421 101.418 108.725 101.247 105.661C101.076 102.596 103.443 100.676 103.549 100.581L104.493 101.766C104.493 101.766 102.635 103.301 102.758 105.58C102.881 107.859 104.894 109.19 104.915 109.204L104.099 110.474Z" fill="#231916"/>
<path d="M109.303 110.372C108.677 109.832 108.28 109.072 108.195 108.25C108.176 107.85 108.241 107.451 108.385 107.078C108.529 106.705 108.749 106.366 109.03 106.082L110.149 107.11C110.005 107.242 109.89 107.403 109.811 107.582C109.733 107.761 109.692 107.954 109.691 108.149C109.749 108.564 109.953 108.945 110.268 109.223L109.303 110.372Z" fill="#231916"/>
<path d="M108.977 104.685C108.349 104.144 107.951 103.384 107.864 102.56C107.849 102.158 107.918 101.758 108.066 101.384C108.214 101.01 108.438 100.671 108.725 100.389L109.839 101.416C109.693 101.548 109.576 101.71 109.497 101.89C109.417 102.07 109.377 102.265 109.378 102.463C109.441 102.869 109.64 103.243 109.943 103.522L108.977 104.685Z" fill="#231916"/>
<path d="M86.589 68.7002C86.589 68.7002 83.0077 65.0442 78.1313 65.597C72.1813 66.2674 73.2493 72.6847 73.2493 72.6847L75.8091 100.452C75.8091 100.452 76.0036 108.155 81.9439 107.632C87.8843 107.108 87.1884 100.356 87.1517 98.2336C87.1151 96.1116 86.589 68.7002 86.589 68.7002Z" fill="#FBD6A0"/>
<path d="M97.2959 83.3511C100.273 80.5149 101.876 74.7433 101.876 74.7433C101.876 74.7433 97.6162 65.2215 91.4842 64.6718C84.4084 64.0177 84.2515 71.3328 84.2515 71.3328C84.2515 71.3328 84.72 91.0735 84.9884 95.811C85.2567 100.548 84.8731 109.096 91.6289 108.053C98.3848 107.009 97.7773 100.337 97.7773 100.337L97.0248 74.5839" fill="#FBD6A0"/>
<path d="M97.5138 68.1474C97.5138 68.1474 90.7657 64.9915 88.5957 67.785C86.4257 70.5784 88.3941 87.6425 88.3941 87.6425L89.4967 108.024C89.4967 108.024 94.1903 108.261 96.1991 105.625C98.2078 102.99 97.5657 92.2872 97.3672 85.5708C97.2615 81.8893 98.767 81.4675 98.767 81.4675C98.767 81.4675 101.775 77.157 101.485 73.9666C101.444 73.477 99.2993 70.4813 97.5138 68.1474Z" fill="#F8C27B"/>
<path d="M88.6965 104.307L94.5515 103.499C94.5704 102.781 94.5408 102.063 94.4628 101.349C94.3304 99.8395 94.3161 99.2792 93.9425 98.286C93.5689 97.2928 92.6187 95.8716 90.3629 96.8418C88.7023 97.5844 88.1757 100.049 88.6965 104.307Z" fill="white"/>
<path d="M88.1301 105.042L88.0528 104.385C87.4789 99.696 88.1417 97.0992 90.1183 96.2532C90.5354 96.0368 90.9931 95.9096 91.4623 95.8798C91.9314 95.85 92.4017 95.9183 92.8431 96.0802C93.2518 96.274 93.616 96.5501 93.9129 96.8912C94.2097 97.2324 94.4328 97.6311 94.5681 98.0624C94.8894 98.9533 95.0647 99.89 95.0874 100.837L95.1219 101.31C95.2028 102.057 95.2329 102.809 95.2118 103.56L95.1758 104.089L88.1301 105.042ZM92.3486 97.2861C92.0689 97.1991 91.7746 97.1691 91.4832 97.1981C91.1917 97.227 90.9092 97.3141 90.6522 97.4544C89.3894 98.0014 88.9311 100.061 89.2862 103.582L93.9332 102.947C93.9282 102.615 93.9055 102.115 93.8434 101.424L93.8089 100.951C93.7934 100.125 93.6448 99.3065 93.3688 98.5275C93.2043 97.9963 92.838 97.5507 92.3486 97.2861Z" fill="#231916"/>
<path d="M85.0643 69.1135C83.9488 66.1637 78.1984 66.1209 76.959 68.7887C75.7197 71.4564 78.036 88.9164 78.036 88.9164L80.0013 107.485C80.8332 107.813 81.7412 107.896 82.6184 107.725C83.4957 107.555 84.3058 107.137 84.9532 106.522C86.4286 105.18 85.2731 101.531 85.0208 96.2784C84.7102 89.8789 85.0122 81.735 85.0122 81.735L85.0643 69.1135Z" fill="#F8C27B"/>
<path d="M78.62 104.899L83.6636 103.852C83.6636 103.852 83.6099 103.371 83.4427 101.993C83.3002 100.849 83.1385 100.156 82.9694 99.1975C82.8221 98.3773 81.7492 96.8288 79.7002 97.8809C78.2299 98.6387 78.1457 101.014 78.62 104.899Z" fill="white"/>
<path d="M78.0499 105.674L77.9647 104.972C77.4545 100.93 77.5406 98.2482 79.4069 97.2987C80.6507 96.6701 81.5753 96.8805 82.1471 97.1324C82.5202 97.326 82.8458 97.6 83.1002 97.9345C83.3546 98.2691 83.5315 98.6558 83.6182 99.0669C83.6651 99.3348 83.7179 99.5687 83.7435 99.8226C83.8646 100.453 83.9766 101.051 84.0797 101.889C84.2507 103.269 84.3066 103.756 84.3066 103.756L84.3691 104.342L78.0499 105.674ZM81.5093 98.2889C81.2602 98.2023 80.9947 98.1726 80.7327 98.2022C80.4706 98.2318 80.2186 98.3198 79.9952 98.4597C79.0395 98.9543 78.7956 100.6 79.1728 104.113L82.9513 103.337C82.9144 103.046 82.8678 102.632 82.7972 102.075C82.6921 101.273 82.587 100.7 82.4674 100.098L82.324 99.3209C82.274 99.1094 82.1794 98.911 82.0467 98.7388C81.9139 98.5667 81.746 98.4247 81.5541 98.3224L81.5093 98.2889Z" fill="#231916"/>
<path d="M76.9153 92.1675L76.296 91.0249C76.4715 90.9282 80.6504 88.7131 83.8014 90.1836L83.251 91.3603L83.1742 91.3265C80.626 90.2039 76.9519 92.147 76.9153 92.1675Z" fill="#231916"/>
<path d="M87.7609 91.2958L87.1433 90.1493C87.3392 90.0479 91.9209 87.6257 95.3979 89.1573L95.513 89.2081L94.9587 90.3831C92.0613 88.9922 87.803 91.2731 87.7609 91.2958Z" fill="#231916"/>
<path d="M79.0265 108.054C78.5113 107.827 78.036 107.519 77.6187 107.141C75.1667 104.957 74.9597 100.934 74.9424 100.505L72.3755 72.7851C72.3209 72.3994 71.9214 69.3118 73.6399 67.0336C74.6304 65.7212 76.1036 64.9464 78.019 64.7281C83.3567 64.1267 85.6718 67.4218 85.769 67.5653L85.9188 67.787L85.9206 68.0533C85.917 68.3631 85.8811 99.2762 85.9087 101.367C85.9531 101.851 86.0496 102.33 86.1966 102.794C86.5267 104.01 86.9371 105.523 86.0722 106.758C85.3882 107.739 84.0586 108.302 81.9988 108.484C80.9877 108.594 79.9651 108.446 79.0265 108.054ZM82.2636 66.9825C80.9914 66.4493 79.5994 66.2678 78.2335 66.4569C76.7917 66.6092 75.7273 67.1841 75.0414 68.0859C73.6877 69.8793 74.1064 72.5175 74.1094 72.5418L74.1182 72.6052L76.6906 100.437C76.6771 100.468 76.8163 104.105 78.7929 105.859C79.2144 106.221 79.7084 106.49 80.2418 106.646C80.7753 106.802 81.3359 106.842 81.8861 106.764C83.3607 106.631 84.3314 106.289 84.6927 105.771C85.0925 105.196 84.8262 104.209 84.5652 103.252C84.3755 102.65 84.2573 102.028 84.2132 101.398C84.1854 99.3807 84.2141 71.7605 84.2175 68.3514C83.6721 67.7602 83.0056 67.2933 82.2636 66.9825Z" fill="#231916"/>
<path d="M88.2116 108.539C87.785 108.352 87.3877 108.105 87.0322 107.804C84.3005 105.507 84.2124 100.578 84.1401 96.6232L84.1249 95.8153C84.0221 91.0868 84.19 72.2628 84.1967 71.2906C84.1699 70.821 84.023 67.5241 86.1175 65.4116C87.4134 64.1239 89.2455 63.585 91.5686 63.7935C98.1273 64.3939 102.482 73.9805 102.664 74.3901L102.796 74.6727L102.709 74.9733C102.646 75.2109 101.112 80.679 98.1727 83.701L98.6604 100.278C98.8912 102.874 97.7245 107.977 91.7698 108.898C90.5742 109.123 89.3386 108.998 88.2116 108.539ZM93.3153 66.028C92.713 65.7565 92.0705 65.5848 91.4131 65.5196C89.65 65.3609 88.2639 65.73 87.3472 66.6355C85.7099 68.2718 85.9268 71.16 85.9282 71.1881L85.9324 71.2723C85.9288 71.4676 85.7531 90.9749 85.8596 95.7784L85.877 96.5918C85.9341 100.009 86.0175 104.688 88.1518 106.48C88.9726 107.176 90.0688 107.402 91.5073 107.184C97.3578 106.282 96.9567 100.639 96.9269 100.416L96.9263 100.365L96.1721 74.6158L97.908 74.5657L98.0955 81.0574C99.3208 79.1199 100.28 77.0265 100.947 74.8333C100.299 73.4764 97.3449 67.8031 93.3153 66.028Z" fill="#231916"/>
</g>
<mask id="path-65-inside-2" fill="white">
<path fill-rule="evenodd" clip-rule="evenodd" d="M30.3461 1.31828C24.8714 0.590212 19.8431 4.43808 19.1151 9.91273L1.31836 143.735C0.590299 149.209 4.43817 154.237 9.91281 154.966L143.735 172.762C149.209 173.49 154.238 169.642 154.966 164.168L172.762 30.346C173.49 24.8713 169.643 19.8431 164.168 19.115L30.3461 1.31828ZM155.716 37.1582L33.789 20.9434L21.0017 117.097L142.928 133.312L155.716 37.1582Z"/>
</mask>
<path fill-rule="evenodd" clip-rule="evenodd" d="M30.3461 1.31828C24.8714 0.590212 19.8431 4.43808 19.1151 9.91273L1.31836 143.735C0.590299 149.209 4.43817 154.237 9.91281 154.966L143.735 172.762C149.209 173.49 154.238 169.642 154.966 164.168L172.762 30.346C173.49 24.8713 169.643 19.8431 164.168 19.115L30.3461 1.31828ZM155.716 37.1582L33.789 20.9434L21.0017 117.097L142.928 133.312L155.716 37.1582Z" fill="white"/>
<path d="M30.3461 1.31828L30.6097 -0.66427L30.3461 1.31828ZM164.168 19.115L163.904 21.0975L164.168 19.115ZM33.789 20.9434L34.0526 18.9609L32.0701 18.6972L31.8064 20.6798L33.789 20.9434ZM155.716 37.1582L157.698 37.4219L157.962 35.4393L155.979 35.1757L155.716 37.1582ZM21.0017 117.097L19.0192 116.833L18.7555 118.816L20.7381 119.079L21.0017 117.097ZM142.928 133.312L142.665 135.294L144.647 135.558L144.911 133.575L142.928 133.312ZM21.0976 10.1764C21.6801 5.79666 25.7027 2.71837 30.0824 3.30082L30.6097 -0.66427C24.0402 -1.53795 18.0062 3.07949 17.1325 9.64907L21.0976 10.1764ZM3.30091 143.998L21.0976 10.1764L17.1325 9.64907L-0.664184 143.471L3.30091 143.998ZM10.1765 152.983C5.79675 152.401 2.71846 148.378 3.30091 143.998L-0.664184 143.471C-1.53786 150.04 3.07958 156.074 9.64916 156.948L10.1765 152.983ZM143.998 170.78L10.1765 152.983L9.64916 156.948L143.471 174.745L143.998 170.78ZM152.983 163.904C152.401 168.284 148.378 171.362 143.998 170.78L143.471 174.745C150.041 175.618 156.074 171.001 156.948 164.431L152.983 163.904ZM170.78 30.0823L152.983 163.904L156.948 164.431L174.745 30.6096L170.78 30.0823ZM163.904 21.0975C168.284 21.68 171.362 25.7026 170.78 30.0823L174.745 30.6096C175.619 24.0401 171.001 18.0061 164.432 17.1324L163.904 21.0975ZM30.0824 3.30082L163.904 21.0975L164.432 17.1324L30.6097 -0.66427L30.0824 3.30082ZM33.5253 22.926L155.452 39.1407L155.979 35.1757L34.0526 18.9609L33.5253 22.926ZM22.9843 117.361L35.7715 21.2071L31.8064 20.6798L19.0192 116.833L22.9843 117.361ZM143.192 131.329L21.2654 115.114L20.7381 119.079L142.665 135.294L143.192 131.329ZM153.733 36.8945L140.946 133.048L144.911 133.575L157.698 37.4219L153.733 36.8945Z" fill="black" mask="url(#path-65-inside-2)"/>
</svg>
