<svg width="179" height="181" viewBox="0 0 179 181" fill="none" xmlns="http://www.w3.org/2000/svg">
<path d="M44.4929 16.1565C44.4929 16.1565 39.0456 -1.31568 25.2714 1.24778C11.4972 3.81123 4.48664 13.2293 6.88988 26.2198C9.29312 39.2103 8.01998 51.3737 16.0178 66.9926C19.3693 73.5312 37.9111 98.4209 48.061 101.933C48.3728 102.041 68.7245 103.405 57.3838 73.6394C46.0431 43.8739 46.9179 50.4947 46.6104 41.0809C46.303 31.6672 49.8493 29.2249 44.4929 16.1565Z" fill="#8DC220"/>
<path d="M51.434 102.725C50.2198 102.98 48.972 103.034 47.7403 102.885C36.9669 99.1614 18.1308 73.3276 15.1213 67.4516C9.33188 56.1498 8.32721 46.6235 7.35292 37.4132C6.95454 33.6503 6.58221 30.0953 5.89804 26.4017C3.4082 12.9435 10.7608 2.92353 25.085 0.256154H25.1629C31.1645 -0.830717 36.5859 1.55522 40.8511 7.14546C42.8226 9.77568 44.3713 12.6977 45.4411 15.8058C49.191 24.9684 48.6757 29.0647 48.0781 33.8149C47.728 36.2057 47.5832 38.6221 47.6451 41.0376C47.6451 41.6222 47.6798 42.1418 47.6928 42.6181C47.814 46.9829 47.814 46.9829 50.4597 53.3829C52.0575 57.2497 54.4694 63.0868 58.3492 73.2713C63.0561 85.6166 63.0389 94.3506 58.3017 99.2523C56.4304 101.097 54.0292 102.312 51.434 102.725ZM48.2989 100.945C48.9052 100.984 54.2573 101.188 57.44 97.1522C60.9041 92.7787 60.5533 84.7723 56.4527 73.9988C52.5815 63.8403 50.174 58.0162 48.5805 54.1623C45.8438 47.5458 45.7919 47.4203 45.6619 42.6831C45.6619 42.2111 45.6316 41.6915 45.6143 41.1112C45.5568 38.5883 45.7118 36.065 46.0776 33.5681C46.6405 29.0993 47.1255 25.2368 43.5618 16.5419L43.5314 16.4596C42.5184 13.5355 41.0576 10.7863 39.2013 8.31024C35.3821 3.31757 30.7748 1.2694 25.5094 2.24802H25.44C12.1378 4.72487 5.56897 13.619 7.86829 26.0639C8.56544 29.8355 8.95945 33.5941 9.34484 37.2314C10.2975 46.2598 11.2847 55.5956 16.9009 66.5639C20.3391 73.2194 38.6254 97.4813 48.2989 100.945Z" fill="#231916"/>
<path d="M36.7721 74.9342C36.3391 74.6961 25.0807 56.7822 23.3486 53.7165C21.6166 50.6507 13.8223 36.1317 5.99332 39.7604C-1.83561 43.389 0.554651 52.517 6.11025 61.9308C11.6658 71.3445 18.6677 73.5833 21.2268 80.0439C23.7859 86.5045 32.6584 97.2606 37.8936 98.434C43.1288 99.6075 55.2142 112.823 55.2142 112.823C55.2142 112.823 57.3101 107.562 51.8974 98.2825C46.4847 89.003 44.9865 79.4939 36.7721 74.9342Z" fill="#5CB431"/>
<path d="M55.5608 114.681L54.4782 113.49C51.1786 109.883 41.7302 100.313 37.6902 99.4039C34.1438 98.6072 29.9781 94.3463 27.813 91.8738C24.4658 88.0589 21.5907 83.6465 20.3046 80.3988C19.1311 77.4197 16.8405 75.3283 14.2207 72.9077C11.3715 70.3096 8.15852 67.3174 5.26164 62.4287C0.732293 54.7556 -0.8829 48.6891 0.45512 44.3979C1.22156 41.9254 2.94934 40.0677 5.5864 38.8336C12.6576 35.56 19.5814 44.753 24.1497 53.0366L24.2493 53.2184C25.8472 56.111 36.1833 72.5223 37.4131 74.1375C43.2675 77.4457 45.8568 83.2091 48.5935 89.293C49.8338 92.1834 51.2287 95.005 52.7722 97.7455C58.3667 107.337 56.2363 112.936 56.1584 113.17L55.5608 114.681ZM7.6778 40.2669C7.24803 40.3431 6.83024 40.4756 6.4351 40.6609C4.30466 41.6482 2.97092 43.0642 2.37769 44.9911C1.2172 48.7194 2.7718 54.2403 6.99804 61.4024C9.72604 66.0314 12.8394 68.8936 15.5847 71.4181C18.4036 74.0162 20.8372 76.2462 22.1795 79.6454C25.1413 87.1626 34.0745 96.5114 38.1319 97.3991C40.4831 97.9273 44.1941 100.582 49.2171 105.284C51.3822 107.324 53.348 109.324 54.5865 110.628C54.6266 110.051 54.6266 109.472 54.5865 108.896C54.4306 106.774 53.6902 103.292 51.0444 98.7501C49.4633 95.9432 48.0365 93.0521 46.7705 90.0898C44.0338 83.9972 41.6696 78.7361 36.2959 75.7656C36.0187 75.614 35.7589 75.4668 29.7097 65.8755C26.8735 61.3765 23.4094 55.7905 22.5 54.1451L22.4003 53.9632C15.7795 42.0293 10.8864 39.6824 7.6778 40.2669Z" fill="#231916"/>
<path d="M79.9828 144.498C79.9828 144.498 77.3847 149.179 72.3877 146.23C67.3907 143.281 61.0383 135.712 59.0724 126.745C57.1065 117.777 53.7333 113.572 49.7279 107.207C45.7225 100.842 18.9448 73.1935 16.0219 67.0013C13.5494 61.7532 48.5241 94.0432 54.8245 105.639C61.1249 117.236 77.1725 125.476 79.9828 144.498Z" fill="#E0EED7"/>
<path d="M76.549 148.123C75.0551 148.395 73.4876 148.049 71.8768 147.092C66.5247 143.914 60.0685 135.985 58.0896 126.97C56.4442 119.479 53.8503 115.465 50.5637 110.377C50.0138 109.511 49.4509 108.645 48.8707 107.731C47.1386 104.964 40.8426 97.9274 34.1871 90.4752C25.6351 80.8969 16.7885 70.9895 15.1084 67.4215C14.4979 66.1224 15.3379 65.6288 15.5111 65.5378C16.1433 65.2174 16.7409 64.9143 22.578 69.8983C25.9641 72.7865 30.2034 76.6967 34.5162 80.9013C38.5173 84.7984 51.8672 98.0833 55.7037 105.15C57.8688 109.16 61.3328 112.815 64.9442 116.681C71.591 123.761 79.1255 131.785 80.9658 144.351L81.0135 144.693L80.8446 144.992C79.9743 146.444 78.5989 147.523 76.9821 148.023C76.8522 148.062 76.7006 148.097 76.549 148.123ZM18.7154 69.3137C22.1146 73.9167 29.2464 81.9015 35.694 89.1199C42.4058 96.6371 48.7451 103.734 50.5767 106.648C51.1483 107.558 51.7113 108.428 52.2569 109.272C55.5175 114.321 58.3191 118.682 60.0512 126.524C61.9088 134.976 67.9234 142.394 72.8988 145.347C74.1978 146.113 75.3886 146.347 76.4755 146.062C77.4696 145.747 78.3314 145.112 78.9263 144.256C77.0687 132.534 70.1577 125.169 63.472 118.05C59.748 114.083 56.2319 110.338 53.9456 106.098C51.5294 101.651 44.0556 93.0733 33.9533 83.1486C27.2502 76.5884 21.8374 71.8036 18.7154 69.3267V69.3137Z" fill="#231916"/>
<path d="M84.9582 69.4566C84.9582 69.4566 93.1855 55.834 88.4959 47.5807C83.8064 39.3274 83.7328 36.3223 79.4286 31.8882C75.1244 27.4541 76.1463 22.4528 74.4922 17.6679C72.838 12.8831 72.7601 1.82821 52.1875 3.01034C31.6149 4.19248 31.7751 34.837 34.3126 50.4213C36.8501 66.0055 60.5621 106.371 73.6565 104.981C87.5563 103.505 86.1749 92.5884 85.5081 86.9505C84.8412 81.3126 83.9017 76.1684 84.9582 69.4566Z" fill="#5CB431"/>
<path d="M75.5748 105.726C74.9903 105.83 74.3884 105.917 73.7605 105.982C70.1362 106.367 62.1254 104.102 49.1869 84.6252C41.1284 72.5008 34.6029 58.5014 33.3169 50.5858C32.1773 43.5246 31.8648 36.3545 32.3858 29.2208C33.1263 20.2055 35.3866 13.2815 39.1106 8.63958C42.3972 4.54758 46.775 2.31324 52.1271 2.0058C71.0629 0.914597 73.466 10.0123 74.8993 15.4293C75.0855 16.1265 75.2587 16.7846 75.4449 17.3216C75.9614 18.9548 76.3281 20.6318 76.5405 22.3315C77.0298 25.4752 77.4888 28.4457 80.1475 31.1694C82.9578 34.0403 84.0447 36.3959 85.5906 39.6565C86.4912 41.5791 87.6127 43.9867 89.3751 47.0654C91.4709 50.7461 91.4969 55.7258 89.4487 61.9136C88.5314 64.6456 87.351 67.282 85.924 69.7858C85.058 75.376 85.6382 79.8491 86.2358 84.5863C86.3267 85.3224 86.4219 86.0672 86.5085 86.8163V86.9202C86.9415 90.5879 87.669 96.7281 84.1833 101.097C82.304 103.483 79.4114 105.042 75.5748 105.726ZM50.0269 4.2748C46.315 4.92222 42.9775 6.9291 40.6651 9.90401C33.3342 19.0406 33.1869 37.3572 35.2827 50.2654C36.5124 57.8086 43.0554 71.7907 50.841 83.5167C59.7308 96.8969 68.2136 104.548 73.5267 103.985C77.7226 103.552 80.771 102.154 82.5984 99.8631C85.5602 96.1522 84.9194 90.7698 84.4994 87.18V87.0718C84.4128 86.327 84.3174 85.5909 84.2265 84.8591C83.603 79.927 83.0184 75.2678 83.9538 69.3051L83.9841 69.1103L84.088 68.9414C84.166 68.8072 91.9689 55.7214 87.6127 48.083C85.8157 44.9263 84.6726 42.4885 83.7546 40.5356C82.2563 37.3399 81.269 35.2267 78.6969 32.5983C75.5878 29.4157 75.0553 25.9819 74.54 22.639C74.3472 21.0679 74.0139 19.5173 73.544 18.0057C73.3318 17.3908 73.1499 16.7067 72.9551 15.9662C71.5954 10.8133 69.5387 3.02768 52.2483 4.02361C51.5108 4.06402 50.7762 4.14791 50.0486 4.2748H50.0269Z" fill="#231916"/>
<path d="M97.4766 139.683C97.862 139.622 100.538 145.152 97.7148 146.139C94.8915 147.127 85.0967 150.292 81.9833 150.664C78.8699 151.037 77.5969 151.53 76.5143 149.365C75.4318 147.2 75.1156 144.684 82.6241 142.151C87.4245 140.594 92.4305 139.762 97.4766 139.683Z" fill="#FDEBD1"/>
<path d="M82.8449 151.535C82.5721 151.582 82.321 151.621 82.1002 151.647L81.0825 151.777C78.649 152.098 76.891 152.332 75.6136 149.803C75.1416 148.863 74.583 147.438 75.2109 145.906C75.9687 144.057 78.242 142.55 82.3037 141.173C87.2085 139.574 92.3268 138.726 97.4852 138.657C98.7583 138.657 99.5334 141.311 99.7499 142.147C100.668 145.732 98.8839 146.785 98.0482 147.07C95.6666 147.91 86.7334 150.829 82.8449 151.535ZM89.1886 141.502C87.0719 141.88 84.9852 142.409 82.9445 143.087C78.7226 144.511 77.4235 145.823 77.0728 146.676C76.826 147.283 76.9213 147.923 77.4106 148.893C78.0211 150.101 78.3589 150.106 80.8184 149.759C81.1432 149.716 81.4896 149.668 81.862 149.625C84.7459 149.274 94.2549 146.248 97.3813 145.152C97.5179 145.109 97.64 145.029 97.7346 144.921C97.8292 144.814 97.8927 144.682 97.9183 144.542C98.217 143.42 97.4852 141.432 97.0305 140.644C94.3985 140.729 91.7768 141.016 89.1886 141.502Z" fill="#231916"/>
<path d="M96.5933 127.65C96.5933 127.65 94.0472 116.885 88.1885 107.341C82.3298 97.7975 77.1855 86.5564 73.8773 77.8398C70.5691 69.1232 56.8337 26.4061 56.8337 26.4061C56.8337 26.4061 66.7629 73.6698 68.378 84.5429C69.9932 95.4159 75.9211 102.461 75.9081 106.337C75.8951 110.212 76.9863 121.458 80.6713 128.715C84.3563 135.972 98.6588 146.178 96.5933 127.65Z" fill="#E0EED7"/>
<path d="M93.4887 139.068C88.8597 139.908 82.1955 133.906 79.7836 129.174C76.0554 121.851 74.8862 110.623 74.8992 106.332C74.8992 104.938 73.9033 102.833 72.6389 100.174C70.8245 96.3683 68.3434 91.1548 67.3821 84.6898C65.7886 73.9727 55.9461 27.0987 55.8508 26.6137L57.7951 26.0984C57.9293 26.5314 71.5563 68.9064 74.817 77.4801C78.6621 87.5867 83.984 98.5507 89.0503 106.813C94.922 116.387 97.4681 126.97 97.572 127.416V127.476V127.537C98.3168 134.171 97.0999 138.011 93.9563 138.951C93.8025 138.998 93.6464 139.037 93.4887 139.068ZM61.5883 44.363C64.5848 58.9513 68.4256 78.0127 69.3826 84.3954C70.3006 90.5615 72.6086 95.4113 74.4662 99.3085C75.8432 102.201 76.9301 104.505 76.9258 106.341C76.9258 110.307 78.0646 121.336 81.5894 128.26C83.9147 132.82 90.189 137.994 93.4106 137.02C95.4155 136.422 96.195 133.153 95.6061 127.823C95.3982 126.957 92.8218 116.802 87.3399 107.865C79.9483 95.814 74.8084 83.105 72.9421 78.1989C71.0758 73.2929 65.7799 57.2366 61.5883 44.363Z" fill="#231916"/>
<path d="M64.2817 99.3433C64.2817 99.3433 84.4256 81.5334 81.4074 66.525C78.3893 51.5167 76.5144 46.8877 75.6181 42.0726C74.7217 37.2574 67.9017 14.3292 48.8273 16.2129C29.7529 18.0965 29.3936 40.2582 27.9646 49.1567C26.5357 58.0552 29.8829 74.7394 32.429 78.9743C34.9752 83.2092 51.7979 112.403 64.2817 99.3433Z" fill="#8DC220"/>
<path d="M58.9469 103.526C57.9909 103.699 57.0147 103.728 56.0501 103.613C51.118 103.059 42.9123 98.4946 31.8227 79.9139L31.5673 79.4809C28.8826 75.0165 25.5354 57.9341 26.973 48.9836C27.1332 47.9877 27.2848 46.7839 27.4407 45.5195C28.6964 35.5601 31.0303 16.9664 48.7277 15.2083C57.0979 14.3813 64.4073 18.1312 69.8676 26.0338C73.0828 30.8419 75.3682 36.2102 76.6053 41.8605C76.9431 43.6748 77.4194 45.4328 78.0689 47.8664C79.1081 51.7376 80.5327 57.0377 82.399 66.2999C85.4648 81.5464 66.1956 98.971 64.9875 100.045C63.1515 101.976 61.1293 103.132 58.9469 103.526ZM47.1299 17.4643C32.6585 20.0928 30.6536 36.084 29.4368 45.7749C29.2766 47.074 29.1208 48.2865 28.9562 49.317C27.6052 57.7305 30.8052 74.3194 33.2864 78.4547L33.5419 78.8877C44.2114 96.7539 51.7892 101.11 56.2666 101.617C58.9643 101.92 61.3458 100.95 63.5455 98.6505L63.6062 98.5899C63.8054 98.4167 83.2781 80.9921 80.4116 66.7286C78.5626 57.5313 77.1466 52.2659 76.116 48.4207C75.4751 46.0347 74.9685 44.1511 74.6178 42.2589C74.5658 41.9904 69.0145 15.2343 48.9182 17.2218C48.3033 17.2796 47.7073 17.3604 47.1299 17.4643Z" fill="#231916"/>
<path d="M91.8649 101.959C91.8649 101.959 95.329 92.6358 92.5836 83.7373C89.8383 74.8388 89.5915 71.1798 91.644 58.9904C93.6965 46.801 95.2511 50.0573 94.2421 41.1199C93.2332 32.1824 89.3274 30.983 88.8511 22.6127C88.3748 14.2425 86.2529 10.0293 83.5942 10.393C80.9355 10.7568 82.0223 26.6614 81.2949 29.7835C80.5674 32.9055 80.7407 42.774 80.6238 47.4679C80.5069 52.1618 77.0774 62.2467 77.1597 69.7249C77.2419 77.2031 83.0703 101.842 91.8649 101.959Z" fill="#8DC220"/>
<path d="M92.562 102.976H91.8519C86.4652 102.903 82.5897 95.312 80.2861 88.9553C77.6274 81.633 76.1594 73.5919 76.1247 69.7424C76.0814 65.3127 77.2116 60.1035 78.2119 55.5092C78.9004 52.3395 79.5542 49.3474 79.5975 47.4507C79.6279 46.26 79.6409 44.7098 79.6496 43.0686C79.6885 37.8724 79.7318 32.005 80.2991 29.5672C80.5156 28.6232 80.5545 26.103 80.5978 23.3923C80.7407 14.2384 81.0654 9.83465 83.3561 9.41462H83.4428C83.9171 9.35263 84.3991 9.39154 84.8573 9.52885C85.3155 9.66616 85.7394 9.89875 86.1015 10.2114C88.7299 12.3764 89.5656 18.1226 89.8298 22.5567C90.0636 26.64 91.1288 28.9437 92.3023 31.3902C93.4757 33.8367 94.6968 36.4738 95.2165 41.0118C95.853 46.5501 95.5153 47.6326 94.7012 50.2567C93.7846 53.1673 93.0912 56.1435 92.627 59.1595C90.6525 70.9289 90.791 74.5619 93.5363 83.4431C96.3596 92.5667 92.9474 101.92 92.8002 102.314L92.562 102.976ZM83.7978 11.3805C82.7845 12.3937 82.6719 19.8243 82.6156 23.414C82.568 26.4451 82.529 28.8614 82.2605 30.0132C81.7453 32.2346 81.702 38.2405 81.6674 43.073C81.6674 44.7228 81.6413 46.2816 81.611 47.4897C81.5634 49.5812 80.9226 52.5214 80.1822 55.9292C79.2035 60.4196 78.0994 65.5119 78.1383 69.7165C78.173 73.4491 79.6928 81.4079 82.1783 88.2582C84.876 95.6974 88.1106 100.214 91.1634 100.868C91.8822 98.538 93.8005 91.0858 91.6224 84.0363C88.7515 74.7611 88.5913 70.9938 90.6525 58.8218C91.1281 55.7145 91.8418 52.6484 92.7872 49.6505C93.532 47.2515 93.8134 46.3509 93.2202 41.237C92.7352 37.0281 91.5921 34.5945 90.4836 32.2432C89.3015 29.7361 88.076 27.138 87.8248 22.6692C87.5087 17.1266 86.3873 13.0476 84.8241 11.7572C84.6867 11.6293 84.5251 11.5302 84.3489 11.4655C84.1727 11.4008 83.9853 11.3719 83.7978 11.3805Z" fill="#231916"/>
<path d="M87.8074 144.013C90.3752 141.497 93.5925 135.786 88.3833 129.724C83.1741 123.661 77.4281 115.941 70.1231 100.023C63.2251 85.0061 63.4502 78.3333 61.086 66.6809C59.1894 57.3191 56.8338 26.4537 51.0314 26.1289C44.8176 25.7782 43.3929 65.4554 44.7353 78.9828C46.528 97.0439 62.1122 130.174 68.5512 138.635C74.9901 147.096 78.7574 146.49 78.7574 146.49C78.7574 146.49 85.2353 146.52 87.8074 144.013Z" fill="#E0EED7"/>
<path d="M83.0703 147.044C81.6649 147.294 80.241 147.424 78.8137 147.434C78.0126 147.508 73.9899 147.395 67.7545 139.181C60.9215 130.187 45.4975 96.6586 43.7481 79.0175C42.5096 66.5077 43.5533 31.6153 48.9054 26.0294C49.1758 25.7128 49.5139 25.461 49.8945 25.2924C50.2752 25.1237 50.6888 25.0427 51.105 25.0551C55.5044 25.3062 57.7475 35.8198 60.5751 56.4401C61.138 60.5754 61.6317 64.1434 62.0907 66.3994C62.6449 69.1491 63.0563 71.5956 63.4546 73.9772C64.7277 81.5853 65.8319 88.1585 71.0541 99.5252C78.2638 115.222 84.0186 122.964 89.1629 128.992C94.3071 135.02 92.0554 141.225 88.5307 144.676C87.184 146.027 85.0102 146.707 83.0703 147.044ZM50.8755 27.0989C50.6676 27.1616 50.4826 27.2835 50.3429 27.4497C48.364 29.5151 46.6796 38.0282 45.8396 50.2133C45.1294 60.5104 45.0861 72.2971 45.7356 78.8443C47.4677 96.165 62.6233 129.143 69.3394 137.99C75.1721 145.667 78.5842 145.455 78.6189 145.451H78.7531C80.4462 145.451 85.2484 145.117 87.1017 143.286C88.1539 142.255 93.1206 136.791 87.617 130.347C82.3731 124.207 76.5144 116.335 69.2051 100.413C63.8703 88.7907 62.7489 82.0963 61.4498 74.3453C61.0558 71.9897 60.6487 69.5475 60.0988 66.8325C59.6224 64.4985 59.1331 60.9001 58.5572 56.7345C57.7128 50.5597 56.6607 42.878 55.301 36.9067C53.2572 27.9043 51.4731 27.1119 50.9709 27.0859C50.9387 27.0863 50.9066 27.0907 50.8755 27.0989Z" fill="#231916"/>
<path d="M88.8642 143.026C88.8642 143.026 97.8017 145.689 101.041 138.263C104.28 130.837 102.34 119.319 99.7979 113.945C97.2561 108.571 92.3501 103.448 91.3412 95.8274C90.3322 88.2063 86.8854 75.3024 88.6088 65.7977C90.3322 56.293 88.2061 36.4565 88.2061 36.4565C88.2061 36.4565 85.253 59.428 84.9585 69.4697C84.6641 79.5113 87.9896 96.1478 89.7519 103.821C91.5143 111.494 95.3509 127.117 89.5658 134.911C88.681 136.053 88.1444 137.426 88.02 138.865C87.8956 140.305 88.1886 141.749 88.8642 143.026Z" fill="#E0EED7"/>
<path d="M94.7184 144.312C92.6735 144.666 90.5752 144.557 88.5783 143.992L88.2059 143.879L88.0023 143.546C87.2138 142.098 86.8655 140.451 87.0001 138.808C87.1348 137.165 87.7464 135.597 88.7601 134.297C94.0775 127.13 90.7434 112.615 88.9507 104.817L88.7688 104.033C87.9027 100.257 83.6159 80.8406 83.9494 69.4263C84.2438 59.4669 87.1797 36.5431 87.2056 36.3136L88.2969 27.8221L89.2061 36.3352C89.2971 37.1493 91.3236 56.4228 89.6002 65.9622C88.3358 72.9554 89.9552 81.9535 91.2586 89.1848C91.6916 91.5491 92.0857 93.7835 92.3368 95.6801C92.9993 100.664 95.3983 104.522 97.715 108.238C98.8128 109.926 99.8118 111.677 100.707 113.481C103.361 119.111 105.275 131.014 101.963 138.631C101.347 140.122 100.357 141.429 99.0876 142.424C97.8183 143.419 96.3132 144.07 94.7184 144.312ZM89.5569 142.147C91.2457 142.537 97.611 143.585 100.114 137.817C103.188 130.746 101.378 119.63 98.8841 114.33C98.0207 112.597 97.0593 110.914 96.0046 109.29C93.6879 105.557 91.0552 101.327 90.3407 95.9139C90.0939 94.065 89.6955 91.8522 89.2755 89.5139C87.9418 82.1224 86.2876 72.9251 87.617 65.5725C88.483 60.6837 88.3402 52.9111 87.9938 46.6367C87.1277 54.0802 86.1317 63.8534 85.9672 69.4566C85.6381 80.6241 89.8643 99.8197 90.7303 103.552L90.9079 104.332C92.7742 112.451 96.2427 127.554 90.371 135.47C89.6369 136.405 89.1736 137.524 89.0316 138.704C88.8896 139.885 89.0742 141.082 89.5656 142.164L89.5569 142.147Z" fill="#231916"/>
<path d="M53.9888 78.8226L52.7114 77.2638L53.729 76.4324L52.5771 75.0207L54.136 73.7477L56.5652 76.7182L53.9888 78.8226Z" fill="#231916"/>
<path d="M54.6601 82.3215C54.2313 82.3978 53.7966 82.4369 53.361 82.4384C49.3773 82.4384 47.065 79.2297 46.9697 79.0911L48.6152 77.9307C48.6152 77.9307 50.4425 80.4205 53.3784 80.4248C56.3142 80.4292 58.1416 77.9566 58.1762 77.9307L59.8087 79.1128C58.5297 80.7617 56.7038 81.8996 54.6601 82.3215Z" fill="#231916"/>
<path d="M57.7778 73.6352C57.5822 73.6717 57.3836 73.6905 57.1845 73.6915C56.6614 73.6831 56.1459 73.5656 55.6709 73.3464C55.1959 73.1272 54.772 72.8111 54.4263 72.4184L55.8768 71.0198C56.036 71.2135 56.2336 71.3719 56.4572 71.4852C56.6808 71.5985 56.9256 71.6641 57.1759 71.6779C57.703 71.6292 58.1972 71.3997 58.5745 71.0284L60.0381 72.4141C59.4234 73.0376 58.6362 73.4628 57.7778 73.6352Z" fill="#231916"/>
<path d="M50.4079 73.6264C50.2123 73.6629 50.0137 73.6817 49.8147 73.6827C49.2916 73.6744 48.776 73.5568 48.301 73.3376C47.826 73.1184 47.4021 72.8023 47.0564 72.4096L48.5069 71.011C48.6661 71.2047 48.8638 71.3632 49.0874 71.4765C49.311 71.5898 49.5557 71.6554 49.806 71.6692C50.3334 71.6212 50.8277 71.3916 51.2046 71.0197L52.6683 72.4053C52.0536 73.0288 51.2664 73.454 50.4079 73.6264Z" fill="#231916"/>
<path d="M139.943 128.741C139.943 128.741 136.938 137.869 142.614 142.493C148.291 147.118 156.77 147.425 156.77 147.425C156.77 147.425 163.789 144.546 155.904 142.372C148.018 140.198 147.161 140.805 145.628 137.938C144.095 135.071 146.364 126.714 146.364 126.714C146.364 126.714 145.052 121.392 139.943 128.741Z" fill="#FCD13F"/>
<path d="M156.952 148.46H156.731C156.371 148.46 147.845 148.084 141.965 143.294C139.393 141.199 138.068 137.942 138.12 133.872C138.148 132.025 138.433 130.19 138.964 128.42L139.012 128.277L139.098 128.156C141.324 124.956 143.238 123.549 144.944 123.869C146.758 124.203 147.317 126.238 147.373 126.467L147.438 126.727L147.369 126.987C146.533 130.066 145.568 135.647 146.542 137.453C147.482 139.185 147.841 139.293 151.474 140.168C152.699 140.467 154.219 140.835 156.189 141.376C158.06 141.896 160.563 142.805 160.675 144.697C160.801 146.776 157.77 148.127 157.159 148.378L156.952 148.46ZM140.882 129.195C140.558 130.304 138.566 137.856 143.268 141.692C148.105 145.633 155.237 146.291 156.584 146.382C157.679 145.888 158.636 145.113 158.619 144.823C158.619 144.823 158.407 144.13 155.64 143.364C153.704 142.827 152.175 142.463 150.989 142.173C147.235 141.264 146.1 140.986 144.727 138.423C143.169 135.513 144.853 128.464 145.299 126.732C145.165 126.398 144.896 125.935 144.572 125.866C144.364 125.857 143.26 125.848 140.882 129.195Z" fill="#231916"/>
<path d="M137.197 107.107C137.197 107.107 141.432 108.675 147.256 106.674C153.565 104.509 158.688 93.5495 158.688 93.5495C158.688 93.5495 156.09 85.6123 152.803 92.1725C148.885 99.9668 146.494 102.933 142.978 103.557C139.081 104.245 136.621 101.132 136.621 101.132C136.621 101.132 130.269 102.275 137.197 107.107Z" fill="#FCD13F"/>
<path d="M141.333 108.727C139.809 108.757 138.29 108.537 136.838 108.073L136.717 108.03L136.609 107.952C133.824 106.012 132.642 104.306 132.984 102.729C133.417 100.716 136.132 100.179 136.448 100.131L137.055 100.023L137.436 100.504C137.522 100.608 139.601 103.102 142.805 102.556C145.836 102.019 148.045 99.3865 151.898 91.7308C152.31 90.9081 153.565 88.4009 155.661 88.5698C158.095 88.7516 159.433 92.5016 159.68 93.2507L159.805 93.6361L159.632 94.0042C159.416 94.4675 154.25 105.392 147.603 107.666C145.586 108.364 143.467 108.722 141.333 108.727ZM137.665 106.176C138.349 106.388 142.06 107.367 146.923 105.704C152.119 103.929 156.627 95.3855 157.571 93.4932C157.043 92.0945 156.125 90.657 155.492 90.6137C155.15 90.5833 154.496 91.1029 153.726 92.6401C150.045 99.9668 147.404 103.825 143.156 104.574C139.692 105.185 137.262 103.253 136.284 102.288C135.695 102.483 135.076 102.82 134.985 103.154C134.976 103.271 134.868 104.202 137.665 106.176Z" fill="#231916"/>
<path d="M152.002 63.732C152.002 63.732 150.92 55.9117 148.573 53.7726C147.936 53.1539 147.149 52.7122 146.289 52.4912C145.429 52.2702 144.527 52.2775 143.671 52.5125C143.671 52.5125 140.562 48.8146 145.888 46.8833C151.214 44.9521 153.124 45.069 152.881 47.5199C152.639 49.9708 157.28 62.7664 157.28 62.7664L152.002 63.732Z" fill="#804F21"/>
<path d="M151.132 64.9403L150.985 63.8751C150.582 60.9912 149.382 55.9032 147.876 54.5219C147.376 54.0276 146.757 53.6715 146.078 53.4886C145.399 53.3056 144.685 53.3021 144.004 53.4784L143.342 53.6949L142.883 53.1666C142.818 53.0886 141.307 51.257 141.865 49.1958C142.251 47.7582 143.489 46.654 145.542 45.9135C149.829 44.3677 151.859 44.1425 153.046 45.0475C153.734 45.5801 154.024 46.4418 153.912 47.6023C153.752 49.2175 156.488 57.5357 158.242 62.3985L158.675 63.5417L151.132 64.9403ZM144.992 51.2873C146.583 51.2968 148.11 51.9168 149.257 53.0193C151.335 54.9203 152.448 60.2074 152.847 62.5457L155.878 61.9871C154.613 58.4277 151.613 49.6808 151.833 47.4334C151.885 46.9441 151.807 46.745 151.76 46.706C151.539 46.5371 150.56 46.3076 146.217 47.8708C145.273 48.2085 144.091 48.8104 143.831 49.7371C143.724 50.297 143.827 50.8769 144.121 51.3652C144.409 51.3184 144.7 51.2923 144.992 51.2873Z" fill="#231916"/>
<path d="M142.757 137.358C142.757 137.358 166.664 135.379 173.458 103.669C180.252 71.9594 159.913 56.2886 153.76 59.1552C147.607 62.0217 148.975 75.5231 149.707 81.7066C150.439 87.8901 150.404 100.066 145.425 111.152C140.445 122.237 129.403 135.864 142.757 137.358Z" fill="#FCD13F"/>
<path d="M142.74 138.384H142.64C139.233 137.999 137.068 136.851 136.028 134.868C133.902 130.819 137.297 124.502 140.887 117.816C142.155 115.46 143.463 113.022 144.485 110.74C148.932 100.833 149.569 89.3104 148.685 81.8279C147.65 73.1026 147.01 61.1643 153.323 58.2198C155.752 57.0896 159.589 58.2415 163.339 61.2509C171.709 67.9194 179.027 82.6289 174.467 103.903C170.882 120.63 162.516 129.113 156.125 133.287C149.157 137.838 143.095 138.384 142.84 138.406L142.74 138.384ZM155.436 59.8436C155.009 59.8312 154.585 59.9125 154.193 60.0818C148.499 62.7362 150.179 76.9175 150.729 81.5767C151.647 89.332 150.985 101.283 146.364 111.576C145.312 113.923 143.987 116.396 142.701 118.781C139.523 124.701 136.236 130.824 137.851 133.902C138.54 135.201 140.146 136.002 142.762 136.314C143.532 136.223 149.001 135.479 155.09 131.473C161.178 127.468 169.028 119.422 172.454 103.444C178.083 77.1643 164.781 65.0008 162.061 62.8314C159.342 60.662 157.017 59.8523 155.436 59.8523V59.8436Z" fill="#231916"/>
<path d="M135.734 131.178C135.734 131.178 143.48 131.772 143.528 135.509C143.576 139.246 136.362 138.886 135.734 137.375C135.106 135.864 132.075 134.876 135.734 131.178Z" fill="#6A3907"/>
<path d="M138.99 139.466C137.189 139.466 135.279 138.982 134.777 137.734C134.624 137.456 134.433 137.199 134.21 136.972C132.91 135.496 131.819 133.651 134.998 130.429L135.335 130.092L135.812 130.126C137.205 130.258 138.582 130.529 139.921 130.936C143.723 132.14 144.537 134.062 144.55 135.465C144.55 137.375 143.164 138.8 140.804 139.276C140.207 139.398 139.599 139.461 138.99 139.466ZM136.66 136.916C137.093 137.306 139.484 137.73 141.229 137.033C142.497 136.531 142.489 135.786 142.489 135.509C142.489 133.551 138.47 132.521 136.132 132.252C134.422 134.101 134.941 134.695 135.764 135.643C136.127 136.019 136.429 136.448 136.66 136.916Z" fill="#231916"/>
<path d="M141.87 131.257C141.87 131.257 160.788 117.197 164.499 106.003C175.078 74.1028 153.145 61.6102 153.145 61.6102C153.145 61.6102 153.089 71.6779 153.05 97.5506C153.02 115.382 141.87 131.257 141.87 131.257Z" fill="#F9BF3E"/>
<path d="M159.831 91.4929C158.738 91.4931 157.646 91.4237 156.562 91.285L156.83 89.2239C158.41 89.4287 160.006 89.4708 161.593 89.3495L161.749 91.4236C161.108 91.4713 160.468 91.4929 159.831 91.4929Z" fill="#231916"/>
<path d="M158.818 98.3516C155.51 98.3516 154.262 97.1262 152.829 95.7145L152.34 95.2339L153.777 93.7357L154.288 94.2337C155.613 95.5327 156.406 96.3251 159.052 96.2731C161.697 96.2212 163.178 95.5024 164.724 94.7446C165.513 94.3385 166.327 93.9842 167.162 93.6837L167.842 95.6453C167.088 95.9206 166.351 96.2431 165.638 96.6109C163.958 97.4336 162.217 98.2867 159.095 98.343L158.818 98.3516Z" fill="#231916"/>
<path d="M152.89 87.0587C152.997 87.3612 153.192 87.6252 153.45 87.817C153.707 88.0089 154.016 88.1201 154.337 88.1366C154.657 88.1531 154.976 88.0742 155.251 87.9097C155.527 87.7453 155.748 87.5028 155.886 87.2128C156.024 86.9229 156.073 86.5985 156.027 86.2807C155.981 85.963 155.841 85.6661 155.626 85.4276C155.411 85.1891 155.13 85.0197 154.819 84.9408C154.508 84.862 154.18 84.8772 153.877 84.9845C153.472 85.1295 153.14 85.4291 152.955 85.8178C152.77 86.2065 152.747 86.6526 152.89 87.0587Z" fill="#231916"/>
<path d="M162.953 86.6647C163.06 86.9663 163.254 87.2294 163.511 87.4207C163.768 87.612 164.075 87.7229 164.395 87.7395C164.715 87.756 165.032 87.6774 165.307 87.5137C165.582 87.3499 165.803 87.1083 165.941 86.8194C166.078 86.5304 166.128 86.2071 166.082 85.8903C166.036 85.5734 165.897 85.2773 165.683 85.0393C165.469 84.8013 165.189 84.632 164.879 84.5529C164.569 84.4738 164.242 84.4884 163.94 84.5949C163.739 84.6657 163.554 84.7755 163.396 84.9179C163.238 85.0604 163.109 85.2326 163.017 85.4249C162.925 85.6172 162.873 85.8256 162.862 86.0384C162.851 86.2511 162.882 86.464 162.953 86.6647Z" fill="#231916"/>
<path d="M151.963 115.616C151.963 115.616 156.198 117.183 162.026 115.183C168.335 113.018 173.454 102.058 173.454 102.058C173.454 102.058 170.855 94.121 167.573 100.681C163.65 108.476 161.26 111.442 157.744 112.065C153.847 112.754 151.387 109.64 151.387 109.64C151.387 109.64 145.035 110.783 151.963 115.616Z" fill="#FCD13F"/>
<path d="M156.103 117.231C154.579 117.262 153.06 117.043 151.608 116.582L151.482 116.538L151.374 116.46C148.594 114.52 147.408 112.81 147.754 111.238C148.187 109.225 150.902 108.688 151.218 108.64L151.824 108.532L152.205 109.012C152.288 109.116 154.37 111.61 157.575 111.065C160.606 110.528 162.814 107.895 166.668 100.239C167.08 99.4168 168.322 96.9096 170.435 97.0784C172.865 97.2603 174.207 101.01 174.449 101.759L174.579 102.145L174.406 102.513C174.19 102.976 169.024 113.901 162.377 116.174C160.358 116.872 158.238 117.229 156.103 117.231ZM152.431 114.685C153.115 114.897 156.826 115.88 161.693 114.213C166.889 112.433 171.397 103.894 172.341 102.002C171.812 100.608 170.894 99.1656 170.262 99.1223H170.236C169.898 99.1223 169.249 99.6506 168.504 101.153C164.828 108.48 162.182 112.338 157.938 113.087C154.474 113.698 152.041 111.788 151.062 110.801C150.473 110.996 149.854 111.333 149.763 111.667C149.755 111.779 149.638 112.71 152.431 114.685Z" fill="#231916"/>
<path d="M154.241 131.456C154.241 131.456 153.994 141.064 160.762 143.857C167.53 146.65 175.736 144.502 175.736 144.502C175.736 144.502 181.629 139.739 173.458 139.908C165.287 140.077 164.638 140.93 162.343 138.609C160.048 136.288 159.814 127.645 159.814 127.645C159.814 127.645 157.017 122.964 154.241 131.456Z" fill="#FCD13F"/>
<path d="M168.855 146.338C165.955 146.384 163.073 145.869 160.368 144.823C157.298 143.554 155.085 140.817 153.972 136.903C153.472 135.131 153.218 133.297 153.219 131.456V131.304L153.262 131.161C154.475 127.459 155.899 125.562 157.631 125.372C159.467 125.177 160.585 126.961 160.706 127.164L160.84 127.394V127.662C160.927 130.854 161.607 136.457 163.066 137.925C164.469 139.328 164.854 139.306 168.574 139.103C169.829 139.033 171.393 138.951 173.432 138.904C175.376 138.86 178.031 139.008 178.689 140.792C179.404 142.744 176.892 144.914 176.381 145.325L176.208 145.468L175.991 145.524C173.652 146.071 171.257 146.345 168.855 146.338ZM155.267 131.638C155.267 132.789 155.553 140.605 161.156 142.896C166.937 145.278 173.943 143.849 175.259 143.546C176.16 142.757 176.857 141.74 176.758 141.467C176.758 141.467 176.325 140.861 173.484 140.93C171.475 140.973 169.929 141.06 168.691 141.125C164.828 141.337 163.663 141.402 161.611 139.341C159.281 137.003 158.861 129.771 158.796 127.996C158.571 127.71 158.173 127.355 157.848 127.385C157.644 127.433 156.562 127.749 155.267 131.638Z" fill="#231916"/>
<path d="M79.7446 128.321C79.7446 128.321 83.0052 149.811 86.5516 150.404C90.098 150.998 119.66 158.723 122.739 156.566C125.818 154.41 136.673 147.633 136.712 144.091C136.751 140.549 136.647 122.289 136.678 122.8C136.708 123.311 79.7446 128.321 79.7446 128.321Z" fill="#946135"/>
<path d="M120.435 157.662C115.672 157.662 105.63 155.57 91.7175 152.314C89.1757 151.721 87.1665 151.249 86.4303 151.123C85.1833 150.907 83.4555 149.365 81.1302 139.302C79.8831 133.889 79.0561 128.476 79.0474 128.429L78.9348 127.684L79.6839 127.619C101.162 125.74 133.439 122.795 136.262 122.219C136.379 122.143 136.516 122.103 136.656 122.107L137.34 122.085L137.383 122.778C137.397 122.877 137.397 122.978 137.383 123.077C137.383 123.895 137.383 126.727 137.383 129.697C137.405 135.21 137.431 142.069 137.405 144.121C137.37 147.3 130.827 151.968 124.705 156.099C124.072 156.532 123.536 156.882 123.133 157.164C122.665 157.501 121.751 157.662 120.435 157.662ZM80.5586 128.957C82.1132 138.847 84.8369 149.413 86.6685 149.742C87.448 149.876 89.3705 150.326 92.0379 150.95C99.7326 152.751 120.184 157.532 122.349 156.016C122.756 155.73 123.302 155.367 123.942 154.934C127.545 152.504 135.989 146.819 136.019 144.108C136.045 142.069 136.019 135.214 135.998 129.706C135.998 127.792 135.998 126.069 135.998 124.826C135.998 124.393 135.998 124.008 135.998 123.7C134.729 123.912 132.352 124.155 127.896 124.605C123.176 125.082 116.586 125.709 108.319 126.472C96.0606 127.593 83.685 128.684 80.5586 128.957ZM136.058 122.492C135.996 122.606 135.968 122.735 135.976 122.865C135.986 122.737 136.013 122.612 136.058 122.492Z" fill="#231916"/>
<path d="M96.0046 113.087C96.0046 113.087 75.3887 124.688 79.7449 128.321C84.101 131.954 120.275 136.721 120.275 136.721C120.275 136.721 141.06 124.831 135.561 121.215C130.061 117.599 96.0046 113.087 96.0046 113.087Z" fill="#B28147"/>
<path d="M120.422 137.453L120.184 137.418C120.093 137.418 111.017 136.21 101.526 134.582C82.1611 131.257 80.0046 129.455 79.2944 128.862C78.9905 128.626 78.7515 128.317 78.6 127.963C78.4485 127.609 78.3894 127.223 78.4284 126.84C78.8614 122.042 93.9261 113.438 95.6408 112.472L95.8443 112.355L96.0782 112.386C97.4768 112.572 130.343 116.963 135.916 120.613C136.308 120.841 136.631 121.17 136.85 121.567C137.07 121.963 137.178 122.412 137.163 122.865C137.015 127.797 122.276 136.362 120.595 137.319L120.422 137.453ZM96.1431 113.819C89.9033 117.352 80.1215 123.943 79.8531 126.97C79.8331 127.123 79.8547 127.28 79.9156 127.422C79.9766 127.564 80.0746 127.688 80.1995 127.78C83.616 130.633 109.948 134.638 120.132 136.007C126.225 132.499 135.69 125.935 135.786 122.852C135.792 122.639 135.737 122.429 135.628 122.247C135.519 122.064 135.361 121.917 135.171 121.821C130.087 118.465 99.1569 114.226 96.1431 113.819Z" fill="#231916"/>
<path d="M86.5136 130.58L85.1445 130.924L90.3673 151.717L91.7364 151.373L86.5136 130.58Z" fill="#231916"/>
<path d="M94.3302 132.243L92.9573 132.571L97.9257 153.346L99.2986 153.018L94.3302 132.243Z" fill="#231916"/>
<path d="M101.574 133.7L100.203 134.035L105.353 155.082L106.724 154.747L101.574 133.7Z" fill="#231916"/>
<path d="M108.054 134.791L106.678 135.105L111.5 156.261L112.876 155.947L108.054 134.791Z" fill="#231916"/>
<path d="M114.263 135.538L112.884 135.839L117.509 157.034L118.889 156.733L114.263 135.538Z" fill="#231916"/>
<path d="M120.979 136.636L119.578 136.81L122.042 156.676L123.443 156.502L120.979 136.636Z" fill="#231916"/>
<path d="M131.808 129.356L130.406 129.524L132.721 148.824L134.123 148.656L131.808 129.356Z" fill="#231916"/>
<path d="M128.642 132.304L127.245 132.516L130.161 151.764L131.559 151.552L128.642 132.304Z" fill="#231916"/>
<path d="M81.1954 135.266L80.9585 136.658L120.854 143.448L121.091 142.057L81.1954 135.266Z" fill="#231916"/>
<path d="M82.9918 142.823L82.7603 144.215L121.734 150.695L121.965 149.303L82.9918 142.823Z" fill="#231916"/>
<path d="M136.288 130.595L120.621 142.268L121.465 143.4L137.131 131.727L136.288 130.595Z" fill="#231916"/>
<path d="M136.317 138.863L121.525 149.519L122.351 150.664L137.142 140.008L136.317 138.863Z" fill="#231916"/>
<path d="M96.0605 113.932L97.4548 132.317L120.102 135.886C120.102 135.886 125.817 132.248 128.857 129.997C131.036 128.299 133.073 126.428 134.95 124.402L135.552 121.215L118.625 117.573L99.529 114.391L96.0605 113.932Z" fill="#C89F63"/>
<path d="M88.8036 115.802C89.9122 113.698 91.4537 111.308 93.7141 111.342C95.1127 111.342 96.3597 112.381 97.1089 113.642C97.858 114.902 98.1914 116.383 98.5205 117.833C98.0052 114.109 100.595 110.199 104.054 109.48C104.58 109.33 105.138 109.339 105.658 109.507C106.177 109.676 106.635 109.995 106.973 110.424C108.999 112.542 109.199 116.348 107.406 118.695C108.168 116.803 110.004 115.664 111.736 114.824C113.399 114.005 115.296 113.291 117.023 113.958C118.933 114.676 120.054 117.023 119.829 119.18C119.686 120.233 119.322 121.245 118.762 122.148C118.202 123.052 117.457 123.827 116.577 124.424C114.888 125.623 112.884 126.203 110.887 126.589C111.786 127.432 112.402 128.533 112.65 129.741C112.779 130.179 112.748 130.649 112.563 131.066C112.415 131.274 112.226 131.45 112.008 131.583C111.79 131.716 111.547 131.804 111.294 131.841C107.267 132.906 102.985 132.53 98.9969 131.291C97.4668 130.848 96.0031 130.201 94.645 129.369C93.3381 128.467 92.1124 127.453 90.9817 126.338C90.2908 125.767 89.6932 125.092 89.2106 124.337C88.7378 123.402 88.3829 122.411 88.1541 121.388C87.8329 120.44 87.709 119.437 87.7903 118.439C87.9735 117.508 88.3164 116.616 88.8036 115.802Z" fill="#8DC220"/>
<path d="M95.9311 115.802C97.0396 113.698 98.5812 111.308 100.842 111.342C102.236 111.342 103.487 112.381 104.232 113.642C104.977 114.902 105.319 116.383 105.644 117.833C105.133 114.109 107.722 110.199 111.178 109.48C111.703 109.33 112.262 109.34 112.783 109.508C113.303 109.676 113.762 109.995 114.1 110.424C116.127 112.542 116.326 116.348 114.533 118.695C115.291 116.803 117.132 115.664 118.864 114.824C120.526 114.005 122.427 113.291 124.151 113.958C126.065 114.676 127.182 117.023 126.961 119.18C126.818 120.233 126.454 121.245 125.894 122.148C125.333 123.052 124.589 123.827 123.709 124.424C122.02 125.623 120.015 126.203 118.019 126.589C118.918 127.432 119.534 128.533 119.782 129.741C119.909 130.179 119.878 130.648 119.695 131.066C119.547 131.274 119.358 131.45 119.14 131.583C118.922 131.716 118.679 131.804 118.426 131.841C114.395 132.906 110.117 132.53 106.129 131.291C104.598 130.849 103.135 130.202 101.777 129.369C100.468 128.468 99.2404 127.454 98.1092 126.338C97.4194 125.766 96.822 125.091 96.3381 124.337C95.8666 123.401 95.5132 122.411 95.2859 121.388C94.9612 120.441 94.836 119.437 94.9179 118.439C95.0992 117.508 95.4421 116.615 95.9311 115.802Z" fill="#1FAA39"/>
<path d="M81.3989 119.301C81.243 116.989 81.9229 114.248 83.9104 113.434C83.86 114.141 83.6042 114.818 83.1743 115.382L85.4563 114.949C85.6636 114.884 85.8872 114.893 86.0885 114.975C86.4479 115.174 86.4609 115.724 86.3916 116.157C86.2443 117.02 85.9514 117.852 85.5255 118.617C86.1577 119.275 87.3962 118.037 88.0067 118.716C88.1584 118.965 88.2791 119.231 88.3661 119.509C88.8251 120.375 90.1502 120.163 90.7911 120.903C91.5878 121.821 90.791 123.428 91.276 124.575L95.1126 123.874C95.4583 123.778 95.8234 123.778 96.1691 123.874C96.9745 124.181 97.1304 125.337 97.0914 126.264C97.0524 127.191 97.0265 128.299 97.715 128.862C97.9593 129.002 98.191 129.163 98.4078 129.343C99.053 130.048 98.2693 131.209 97.4855 131.72C95.3589 133.087 92.7959 133.603 90.3061 133.166C89.6565 133.049 88.8468 132.932 88.3271 132.443C87.8941 132.049 87.5997 131.499 87.1884 131.079C86.5939 130.473 86.0303 129.837 85.4996 129.174C84.4339 127.846 83.5365 126.392 82.8279 124.844C82.0234 123.097 81.5394 121.219 81.3989 119.301Z" fill="#00913A"/>
<path d="M90.5617 121.063C90.3885 118.691 91.1419 115.867 93.359 115.045C93.3013 115.78 93.0152 116.48 92.5406 117.045L95.0824 116.612C95.3143 116.544 95.562 116.553 95.7882 116.638C96.1909 116.842 96.2212 117.409 96.1259 117.85C95.9649 118.743 95.6421 119.599 95.1733 120.375C95.8748 121.051 97.2561 119.782 97.9403 120.479C98.1525 120.695 98.1914 121.025 98.3387 121.289C98.8539 122.202 100.326 121.96 101.041 122.722C101.933 123.666 101.041 125.32 101.582 126.489L105.864 125.77C106.251 125.671 106.656 125.671 107.042 125.77C107.934 126.086 108.112 127.269 108.069 128.221C108.025 129.174 107.995 130.308 108.761 130.867C109.033 131.01 109.292 131.175 109.536 131.361C110.255 132.084 109.381 133.275 108.506 133.799C106.901 134.741 105.098 135.294 103.24 135.414C102.326 135.474 101.408 135.431 100.504 135.284C99.7763 135.162 98.8756 135.041 98.2953 134.543C97.8233 134.136 97.4856 133.573 97.0266 133.14C96.3661 132.522 95.7374 131.87 95.1429 131.187C93.9661 129.845 92.9651 128.358 92.1638 126.762C91.2707 124.982 90.7269 123.048 90.5617 121.063Z" fill="#00913A"/>
<path d="M133.764 118.803C133.919 116.69 133.244 114.178 131.256 113.434C131.309 114.091 131.567 114.715 131.992 115.218L129.71 114.828C129.502 114.769 129.281 114.778 129.078 114.854C128.719 115.031 128.702 115.538 128.775 115.936C128.923 116.733 129.217 117.494 129.641 118.184C129.005 118.79 127.771 117.655 127.156 118.279C126.965 118.47 126.93 118.764 126.796 119.002C126.337 119.816 125.017 119.6 124.376 120.275C123.575 121.141 124.376 122.592 123.891 123.64L120.05 122.999C119.704 122.908 119.34 122.908 118.993 122.999C118.192 123.28 118.032 124.337 118.071 125.164C118.11 125.991 118.14 127.026 117.447 127.524C117.205 127.65 116.974 127.795 116.755 127.957C116.109 128.606 116.893 129.689 117.681 130.122C119.119 130.967 120.736 131.461 122.401 131.564C123.22 131.616 124.133 133.045 124.965 132.915C125.649 132.825 126.298 132.554 126.844 132.131C127.277 131.768 128.463 131.503 128.875 131.118C129.464 130.564 130.693 129.36 131.226 128.749C132.274 127.546 131.629 125.285 132.335 123.848C133.13 122.273 133.615 120.561 133.764 118.803Z" fill="#00913A"/>
<path d="M127.797 122.757C127.498 120.656 126.303 118.348 124.198 118.045C124.391 118.676 124.775 119.232 125.298 119.634L122.986 119.738C122.771 119.725 122.557 119.78 122.375 119.894C122.064 120.15 122.155 120.643 122.31 121.016C122.617 121.762 123.057 122.446 123.609 123.034C123.12 123.757 121.67 122.912 121.202 123.653C121.103 123.904 121.038 124.168 121.007 124.437C120.73 125.329 119.392 125.402 118.911 126.199C118.309 127.195 119.418 128.459 119.154 129.589L115.257 129.78C114.899 129.77 114.545 129.849 114.226 130.01C113.503 130.443 113.572 131.521 113.793 132.343C114.014 133.166 114.252 134.149 113.685 134.781C113.474 134.957 113.279 135.149 113.1 135.357C112.611 136.128 113.602 136.998 114.468 137.284C116.054 137.802 117.739 137.94 119.388 137.687C120.2 137.563 120.995 137.349 121.76 137.05C122.375 136.808 123.142 136.531 123.557 135.981C123.891 135.548 124.081 134.981 124.423 134.517C124.891 133.853 125.325 133.165 125.723 132.456C126.495 131.061 127.089 129.574 127.489 128.031C127.931 126.309 128.035 124.518 127.797 122.757Z" fill="#61994C"/>
<path d="M121.384 121.133C121.085 119.028 119.89 116.72 117.79 116.417C117.982 117.048 118.367 117.604 118.889 118.006L116.577 118.11C116.362 118.097 116.148 118.153 115.967 118.27C115.65 118.522 115.741 119.02 115.897 119.392C116.206 120.136 116.646 120.818 117.196 121.405C116.707 122.133 115.256 121.289 114.789 122.029C114.692 122.28 114.627 122.542 114.594 122.808C114.321 123.705 112.983 123.774 112.498 124.575C111.901 125.567 113.005 126.831 112.741 127.961L108.844 128.152C108.485 128.143 108.13 128.222 107.809 128.381C107.085 128.814 107.159 129.893 107.376 130.715C107.592 131.538 107.839 132.521 107.272 133.153C107.061 133.328 106.866 133.521 106.687 133.729C106.193 134.5 107.185 135.37 108.051 135.656C109.637 136.174 111.322 136.312 112.97 136.059C113.784 135.936 114.581 135.723 115.347 135.422C115.962 135.18 116.729 134.903 117.14 134.357C117.478 133.924 117.664 133.357 117.984 132.893C118.454 132.228 118.887 131.539 119.283 130.828C120.06 129.435 120.654 127.947 121.05 126.402C121.502 124.684 121.616 122.894 121.384 121.133Z" fill="#DADF00"/>
<path d="M79.9222 126.628L78.554 126.277C78.8008 125.316 84.6898 102.664 92.8001 98.5638C94.5755 97.6675 95.9309 97.6285 96.8402 98.4382C99.5163 100.833 96.2729 110.039 95.5931 111.862L94.2681 111.372C95.814 107.215 97.3424 100.785 95.9005 99.4947C95.3636 99.0141 94.2637 99.4125 93.441 99.8282C90.3579 101.387 87.0497 106.484 83.8714 114.577C82.3368 118.519 81.0184 122.542 79.9222 126.628Z" fill="#231916"/>
<path d="M120.812 136.115C120.305 133.192 116.049 107.488 123.769 104.505C124.365 104.264 125.007 104.163 125.647 104.21C126.288 104.257 126.909 104.449 127.463 104.773C133.213 107.917 136.465 123.739 136.6 124.415L135.218 124.692C134.61 121.859 133.843 119.064 132.919 116.318C131.005 110.723 128.888 107.159 126.783 106.012C126.409 105.789 125.988 105.655 125.554 105.622C125.12 105.589 124.684 105.657 124.28 105.821C118.651 107.986 120.877 128.264 122.202 135.886L120.812 136.115Z" fill="#231916"/>
<path d="M70.7641 132.062C70.7641 132.062 67.222 145.918 79.1429 147.217C87.9029 148.17 92.0858 141.917 92.0858 141.917C92.0858 141.917 93.7702 138.735 95.485 138.072C97.1997 137.41 93.9174 130.031 89.7475 134.43C88.3229 135.933 88.5351 139.627 88.5351 139.627C88.5351 139.627 83.4341 142.558 80.2298 140.856C77.0255 139.155 78.2467 132.027 78.2467 132.027C78.2467 132.027 78.9828 124.436 70.7641 132.062Z" fill="#DC341C"/>
<path d="M80.9614 148.343C80.3162 148.343 79.6715 148.306 79.0302 148.235C75.5661 147.858 72.968 146.447 71.2879 144.043C67.932 139.194 69.6901 132.105 69.768 131.806L69.8416 131.512L70.0668 131.304C73.4876 128.134 75.8779 127.052 77.5883 127.901C79.5282 128.862 79.3203 131.772 79.2727 132.101V132.175C78.9912 133.833 78.6535 138.821 80.7233 139.921C82.6806 140.96 85.9195 139.783 87.5043 138.99C87.5043 137.73 87.6905 135.093 89.0112 133.716C91.0204 131.603 92.8521 131.902 93.7744 132.27C95.6883 133.041 97.009 135.457 97.0004 137.146C97.0004 138.445 96.2123 138.878 95.8746 139.029C94.896 139.41 93.6012 141.298 93.0166 142.398L92.9604 142.485C91.5658 144.34 89.7511 145.838 87.6654 146.857C85.5796 147.875 83.2821 148.385 80.9614 148.343ZM71.6993 132.603C71.4308 133.902 70.5041 139.298 72.9983 142.874C74.2974 144.762 76.4148 145.879 79.264 146.187C86.9804 147.053 90.8732 141.857 91.211 141.376C91.5011 140.839 93.0772 138.051 94.9305 137.189C94.8851 136.622 94.7153 136.073 94.4331 135.58C94.151 135.086 93.7634 134.662 93.2982 134.335C92.9777 134.14 91.999 133.543 90.5051 135.136C89.6954 136.002 89.5006 138.293 89.5698 139.544L89.6045 140.177L89.0546 140.497C88.8294 140.627 83.4254 143.688 79.7534 141.744C76.0814 139.8 77.0687 132.854 77.2332 131.867C77.2938 131.131 77.1336 129.966 76.6833 129.745C76.549 129.685 75.3756 129.256 71.6993 132.603Z" fill="#231916"/>
<path d="M64.3509 154.873C64.3509 154.873 68.1052 151.955 75.0681 151.587C82.6112 151.184 92.7265 158.948 92.7265 158.948C92.7265 158.948 93.4582 166.876 87.1622 162.304C79.671 156.861 75.9038 155.137 71.9417 155.874C70.702 156.073 69.534 156.587 68.5487 157.365C67.5634 158.143 66.7936 159.161 66.3125 160.321C66.3125 160.321 59.1894 161.654 64.3509 154.873Z" fill="#DC341C"/>
<path d="M90.4316 164.772C89.3317 164.772 88.0327 164.231 86.5344 163.157C79.1212 157.77 75.6137 156.228 72.1063 156.904C71.0484 157.07 70.0505 157.504 69.2071 158.164C68.3637 158.824 67.7028 159.689 67.2869 160.676L67.092 161.238L66.4988 161.351C65.9099 161.459 62.9091 161.91 61.7876 160.087C60.9692 158.757 61.5321 156.848 63.5197 154.25L63.6019 154.146L63.7102 154.063C63.8704 153.933 67.8022 150.937 75.0033 150.556C82.8365 150.123 92.9171 157.822 93.3458 158.151L93.7009 158.424L93.7398 158.857C93.7831 159.29 94.0689 163.131 91.8649 164.386C91.4295 164.639 90.935 164.772 90.4316 164.772ZM73.6695 154.696C77.2116 154.696 81.0308 156.597 87.7642 161.49C89.1759 162.516 90.3017 162.923 90.8473 162.611C91.5141 162.234 91.7436 160.68 91.7133 159.506C89.847 158.147 81.3858 152.275 75.1157 152.613C69.1964 152.929 65.689 155.185 65.0698 155.618C63.5153 157.696 63.3854 158.727 63.5586 159.008C63.7318 159.29 64.7147 159.467 65.6197 159.394C66.2129 158.212 67.0766 157.187 68.1405 156.403C69.2045 155.618 70.4387 155.095 71.7426 154.877C72.3792 154.756 73.0258 154.695 73.6739 154.696H73.6695Z" fill="#231916"/>
<path d="M31.1082 132.248C29.4898 133.681 28.142 135.392 27.1288 137.302C24.3615 142.405 23.6608 148.376 25.1716 153.981C25.9511 156.751 27.3137 159.321 29.1681 161.52C31.0224 163.72 33.3258 165.497 35.9234 166.734C38.4016 167.808 41.0305 168.495 43.7177 168.769C53.3148 169.917 63.0214 167.846 71.3138 162.88C73.0938 161.863 74.7232 160.602 76.1549 159.134C78.8785 156.207 80.2988 152.306 81.2168 148.413C81.7606 146.228 82.0797 143.994 82.1694 141.744C82.2159 140.056 82.0883 138.367 81.7884 136.704C81.1376 133.153 79.5614 129.836 77.219 127.088C74.8766 124.34 71.8509 122.259 68.4472 121.055C61.4193 118.673 44.0034 120.973 31.1082 132.248Z" fill="#DC341C"/>
<path d="M48.9268 170.115C47.1407 170.115 45.3563 170.007 43.5834 169.791C40.7971 169.505 38.0715 168.791 35.5033 167.673C32.7672 166.375 30.3414 164.505 28.3896 162.189C26.4377 159.873 25.0052 157.166 24.1886 154.25C22.5984 148.387 23.3305 142.136 26.2324 136.799C27.3017 134.781 28.726 132.973 30.437 131.46C36.5682 126.177 43.8673 122.426 51.7327 120.518C58.2972 118.898 64.8271 118.725 68.7719 120.085C75.9297 122.514 81.4334 128.97 82.793 136.539C83.1045 138.271 83.2379 140.029 83.1914 141.787C83.1001 144.109 82.7707 146.414 82.2084 148.668C81.035 153.669 79.3462 157.224 76.8996 159.853C75.406 161.394 73.7018 162.717 71.8377 163.78C64.9161 167.93 56.9967 170.119 48.9268 170.115ZM62.0688 121.215C53.7463 121.215 41.388 124.627 31.7924 133.023C30.2693 134.374 29.0007 135.988 28.0467 137.786C25.3963 142.652 24.7247 148.352 26.1718 153.7C26.9067 156.328 28.1969 158.768 29.9553 160.855C31.7138 162.942 33.8995 164.628 36.365 165.798C38.7396 166.828 41.2592 167.484 43.8345 167.742C53.2026 168.881 62.6828 166.86 70.7725 162.001C72.4714 161.033 74.0265 159.832 75.3928 158.433C77.5838 156.077 79.1123 152.803 80.2035 148.179C80.7346 146.061 81.0466 143.895 81.1346 141.714C81.1759 140.096 81.0526 138.478 80.7665 136.886C80.1296 132.428 77.8687 128.363 74.4177 125.471C70.9668 122.579 66.569 121.063 62.0688 121.215Z" fill="#231916"/>
<path d="M59.7999 115.82C53.4302 114.581 49.8405 119.422 45.48 122.748C45.2351 121.798 45.0985 120.823 45.073 119.842C45.6727 119.619 46.1716 119.187 46.4779 118.625C46.7842 118.064 46.8774 117.41 46.7402 116.785C46.6727 116.516 46.5813 116.254 46.4673 116.002L46.3894 115.885C46.3894 115.85 46.359 115.811 46.3461 115.772C46.1127 115.359 45.7884 115.006 45.3978 114.737C45.558 113.525 45.7485 112.386 45.8914 111.403C45.9866 110.753 45.1033 110.584 44.7699 111.03C43.9663 112.116 43.3353 113.32 42.8993 114.599C42.5529 114.756 42.2426 114.982 41.9878 115.265C41.733 115.547 41.5392 115.879 41.4184 116.24C41.2577 116.742 41.2307 117.277 41.34 117.792C41.4494 118.308 41.6913 118.786 42.0419 119.18L42.0939 119.24C42.0583 120.69 42.1598 122.14 42.397 123.571C41.3891 123.212 40.3628 122.907 39.3225 122.657C37.2094 122.163 35.0184 120.687 34.9058 118.327C34.9021 118.102 34.8137 117.887 34.6584 117.725C34.5032 117.563 34.2924 117.465 34.0682 117.451C33.844 117.438 33.6229 117.509 33.449 117.651C33.2752 117.794 33.1614 117.996 33.1304 118.219C32.4116 122.354 35.014 124.497 37.9975 126.333C37.361 126.71 36.7418 127.095 36.1399 127.429C34.2477 128.481 31.7188 128.659 29.6706 129.386C28.3932 129.899 27.2051 130.611 26.1502 131.495C26.1081 131.535 26.08 131.587 26.0701 131.644C26.0602 131.701 26.069 131.76 26.0954 131.812C26.1217 131.863 26.1641 131.905 26.2161 131.931C26.2681 131.956 26.3271 131.965 26.3841 131.954C28.2307 131.342 30.168 131.049 32.1129 131.088C33.9878 131.144 35.7069 131.763 37.6122 131.555C38.5215 131.456 39.5478 131.335 40.5697 131.122C39.8812 133.413 37.8027 135.782 35.9797 136.583C35.1829 136.929 35.6852 138.077 36.4689 137.96C38.3742 137.674 39.9635 136.578 41.4444 135.409C42.2454 134.757 42.9846 134.032 43.6527 133.244C44.3239 132.478 44.8608 131.391 45.6186 130.746C45.8081 130.583 45.9742 130.395 46.1122 130.187C47.1558 130.066 48.1908 130.01 49.2257 129.932C50.473 130.036 51.7274 129.848 52.889 129.382C53.599 129.196 54.2893 128.943 54.9501 128.624C56.2416 128.031 57.3542 127.109 58.176 125.95C58.9977 124.791 59.4996 123.435 59.6311 122.02C59.6431 121.864 59.6023 121.707 59.5152 121.576C59.4281 121.445 59.2998 121.347 59.1505 121.297C59.0012 121.247 58.8395 121.249 58.6912 121.301C58.543 121.354 58.4166 121.455 58.332 121.587C57.2506 123.086 55.8079 124.288 54.1378 125.079C52.4678 125.871 50.6246 126.228 48.7797 126.117C48.5632 126.117 48.312 126.082 48.0392 126.052C49.1954 124.917 50.2865 123.718 51.4253 122.497C52.0575 121.96 52.6855 121.419 53.3437 120.916C53.4996 120.799 53.6554 120.691 53.8113 120.583C55.8291 119.366 58.0722 118.712 60.1117 117.331C60.2542 117.242 60.3661 117.111 60.4323 116.957C60.4985 116.802 60.5156 116.631 60.4817 116.467C60.4477 116.302 60.3642 116.152 60.2423 116.036C60.1204 115.921 59.966 115.845 59.7999 115.82Z" fill="#1FAA39"/>
<path d="M36.3652 139.012C35.9719 139.004 35.5914 138.87 35.2797 138.63C34.968 138.39 34.7414 138.056 34.6331 137.678C34.5122 137.283 34.5429 136.857 34.719 136.483C34.8951 136.109 35.2042 135.814 35.5859 135.656C36.6424 135.193 37.9804 133.924 38.8637 132.46C38.474 132.512 38.093 132.556 37.7379 132.59C36.5543 132.678 35.3642 132.605 34.2001 132.374C33.5058 132.25 32.8044 132.169 32.1001 132.131C30.2701 132.093 28.447 132.367 26.709 132.941C26.4215 133.02 26.1154 132.998 25.8422 132.879C25.5691 132.759 25.3454 132.549 25.2088 132.284C25.0722 132.019 25.0309 131.715 25.092 131.423C25.1531 131.131 25.3127 130.869 25.5441 130.681C26.6837 129.729 27.967 128.965 29.346 128.416C30.2208 128.127 31.1115 127.889 32.0135 127.701C33.2765 127.48 34.5033 127.087 35.6594 126.532L36.0924 126.294C33.464 124.432 31.4548 122.029 32.152 118.067C32.2168 117.586 32.4613 117.148 32.8362 116.84C33.211 116.533 33.6884 116.379 34.1724 116.409C34.6564 116.439 35.111 116.651 35.4447 117.003C35.7785 117.355 35.9665 117.82 35.9712 118.305C36.0578 120.184 37.9761 121.293 39.5913 121.674C40.1195 121.795 40.6521 121.938 41.2021 122.107C41.1183 121.278 41.0807 120.446 41.0895 119.613C40.6987 119.096 40.4388 118.493 40.3317 117.854C40.2246 117.216 40.2736 116.561 40.4745 115.945C40.761 115.098 41.3356 114.377 42.0983 113.91C42.5583 112.671 43.1926 111.505 43.982 110.446C44.2141 110.149 44.5367 109.936 44.9009 109.839C45.265 109.742 45.6508 109.767 45.9998 109.909C46.3235 110.039 46.5932 110.275 46.7648 110.579C46.9363 110.883 46.9995 111.236 46.9439 111.58C46.8962 111.931 46.8356 112.299 46.7793 112.684C46.697 113.208 46.6148 113.763 46.5325 114.334C46.8201 114.615 47.0678 114.934 47.2686 115.283L47.4461 115.612C47.5815 115.921 47.6916 116.241 47.7752 116.569C47.9558 117.304 47.8979 118.078 47.6099 118.779C47.3219 119.479 46.8188 120.07 46.1731 120.466C46.1731 120.613 46.199 120.756 46.2163 120.899C46.6493 120.544 47.0824 120.18 47.4765 119.821C50.9406 116.841 54.487 113.758 60.0339 114.841C60.4082 114.897 60.7561 115.067 61.0309 115.327C61.3057 115.587 61.4941 115.925 61.5706 116.296C61.6471 116.666 61.608 117.051 61.4587 117.399C61.3093 117.747 61.0568 118.04 60.7354 118.24C59.5802 118.984 58.3633 119.627 57.0981 120.163C56.1802 120.559 55.2853 121.008 54.4177 121.505L54.3787 121.531L54.0149 121.791C53.439 122.224 52.8675 122.722 52.3132 123.189L52.1876 123.298L51.5164 124.021L50.5032 125.103C51.8991 124.963 53.2491 124.528 54.4638 123.826C55.6785 123.124 56.7299 122.172 57.5484 121.033C57.778 120.725 58.1011 120.499 58.4695 120.39C58.8379 120.281 59.2318 120.294 59.5922 120.427C59.9433 120.55 60.2427 120.788 60.4422 121.102C60.6417 121.416 60.7297 121.789 60.6921 122.159C60.5539 123.756 59.9945 125.287 59.071 126.597C58.1474 127.907 56.8928 128.949 55.4352 129.615C54.7318 129.954 53.9983 130.227 53.2443 130.429C51.9755 130.921 50.6133 131.125 49.2561 131.027L48.5157 131.083C47.9181 131.122 47.2989 131.166 46.6927 131.23C46.5762 131.359 46.4517 131.481 46.3202 131.594C45.9325 131.973 45.5923 132.398 45.307 132.859C45.0487 133.252 44.7668 133.63 44.4627 133.989C43.7548 134.825 42.9705 135.593 42.12 136.284C40.5395 137.527 38.7858 138.722 36.6597 139.042C36.5609 139.04 36.4623 139.03 36.3652 139.012ZM42.0508 129.78L41.5528 131.434C40.9313 133.318 39.8103 134.999 38.3094 136.297C40.0474 135.351 41.5961 134.093 42.8778 132.586C43.1283 132.285 43.3611 131.97 43.575 131.642C43.9594 131.03 44.4223 130.471 44.9519 129.979C45.0673 129.877 45.1691 129.761 45.255 129.633L45.5192 129.239L45.9912 129.182C46.7837 129.087 47.5717 129.031 48.3382 128.979L49.1478 128.918H49.2345H49.3254C50.4124 129.005 51.5047 128.839 52.5167 128.433L52.625 128.399C53.2711 128.231 53.8992 128.001 54.5 127.71C55.4366 127.28 56.2695 126.653 56.942 125.873C57.6145 125.092 58.1108 124.175 58.3971 123.185C57.1952 124.537 55.7017 125.597 54.0295 126.287C52.3574 126.976 50.5504 127.276 48.7452 127.164C48.5113 127.164 48.2385 127.13 47.944 127.095L45.779 126.861L47.3292 125.337C48.2299 124.471 49.0613 123.544 49.975 122.579L50.7717 121.713L50.9449 121.566C51.5165 121.076 52.1097 120.574 52.7332 120.098L53.1662 119.782L53.2918 119.699C54.2341 119.154 55.2072 118.664 56.206 118.231C57.2219 117.795 58.2084 117.293 59.1592 116.729C54.8291 116.092 51.8975 118.634 48.7668 121.323C47.9008 122.068 47.0088 122.843 46.0822 123.549L44.8654 124.471L44.467 122.995C44.2048 121.969 44.0595 120.917 44.034 119.859L44.008 119.154L44.6575 118.877C45.0286 118.746 45.3408 118.487 45.5377 118.146C45.7346 117.806 45.8033 117.406 45.7314 117.019C45.6859 116.836 45.6266 116.656 45.5539 116.482L45.4629 116.348L45.4066 116.205C45.2581 115.956 45.059 115.74 44.822 115.573L44.2851 115.218L44.3674 114.577C44.4281 114.144 44.4886 113.711 44.5493 113.299C44.284 113.819 44.0567 114.357 43.8694 114.91L43.7221 115.343L43.3195 115.529C43.1008 115.627 42.9047 115.769 42.7437 115.947C42.5827 116.124 42.4603 116.333 42.3842 116.56C42.2808 116.899 42.2685 117.26 42.3482 117.606C42.428 117.952 42.5972 118.27 42.8389 118.53L43.129 118.872V119.262C43.0938 120.643 43.1894 122.025 43.4147 123.389L43.6919 125.121L42.0551 124.54C41.0842 124.198 40.0954 123.909 39.0932 123.674C37.0624 123.198 34.6981 121.825 34.0486 119.457C33.9923 122.116 35.6897 123.722 38.5389 125.476L39.9939 126.368L38.5259 127.234L37.9328 127.589C37.4998 127.853 37.0667 128.113 36.6337 128.347C35.3084 128.997 33.8992 129.461 32.4465 129.724C31.9182 129.845 31.4029 129.962 30.9179 130.092C31.3206 130.092 31.7277 130.092 32.1347 130.092C32.9264 130.13 33.7147 130.22 34.4946 130.36C35.4801 130.56 36.4877 130.629 37.4911 130.564C38.3571 130.473 39.3661 130.356 40.349 130.131L42.0508 129.78Z" fill="#231916"/>
<path d="M30.2683 150.301C30.2683 150.301 18.5336 158.476 26.7133 167.245C32.7236 173.684 39.9765 171.683 39.9765 171.683C39.9765 171.683 43.3281 170.384 45.0601 170.99C46.7922 171.596 49.1261 163.88 43.0942 164.495C41.0374 164.703 38.7944 167.617 38.7944 167.617C38.7944 167.617 33.0222 166.508 31.7059 163.127C30.3895 159.745 35.9711 155.142 35.9711 155.142C35.9711 155.142 41.4661 149.894 30.2683 150.301Z" fill="#DC341C"/>
<path d="M37.2227 173.026C34.3518 173.026 29.9177 172.194 25.9643 167.955C23.5827 165.4 22.5347 162.633 22.8421 159.728C23.4657 153.86 29.4283 149.643 29.6838 149.465L29.9307 149.292H30.2337C34.8973 149.123 37.4132 149.863 38.158 151.626C38.998 153.622 36.9238 155.679 36.6856 155.904L36.6294 155.956C35.3304 157.03 31.8186 160.585 32.6673 162.772C33.4771 164.841 36.6814 166.05 38.4091 166.491C39.2362 165.543 41.0808 163.677 42.9947 163.486C45.9003 163.192 47.091 164.616 47.5414 165.491C48.4854 167.327 47.9095 170.02 46.8009 171.289C45.9349 172.276 45.0689 172.103 44.7181 171.986C43.7265 171.631 41.5139 172.216 40.3534 172.666L40.2538 172.696C39.2613 172.933 38.2429 173.044 37.2227 173.026ZM30.6192 151.327C29.5713 152.132 25.3406 155.618 24.886 159.948C24.6478 162.235 25.5138 164.456 27.484 166.548C32.7972 172.242 39.037 170.878 39.6779 170.709C40.2451 170.492 43.2589 169.41 45.2248 169.968C45.6578 169.579 46.2467 167.994 45.8527 166.742C45.7401 166.383 45.3936 165.301 43.2156 165.521C41.8949 165.656 40.1411 167.582 39.6302 168.249L39.2448 168.756L38.617 168.635C38.3615 168.583 32.2689 167.37 30.762 163.503C29.2551 159.637 34.5292 155.021 35.3 154.38C35.8413 153.847 36.4691 152.882 36.27 152.414C36.1963 152.275 35.5902 151.188 30.6192 151.318V151.327Z" fill="#231916"/>
<path d="M63.8632 132.535L62.0544 133.523L65.4801 139.793L67.2889 138.805L63.8632 132.535Z" fill="#231916"/>
<path d="M62.2249 149.118C59.732 149.108 57.2735 148.535 55.0325 147.443L55.9981 145.624L55.5132 146.533L55.9981 145.624C56.0544 145.654 61.8179 148.625 67.3951 145.884C72.9724 143.143 74.0765 136.79 74.0852 136.734L76.1203 137.063C76.0684 137.366 74.8473 144.511 68.326 147.733C66.4263 148.658 64.3382 149.133 62.2249 149.118Z" fill="#231916"/>
<path d="M50.5942 137.566L48.5979 137.05C48.6282 136.929 49.3731 134.136 51.8066 132.781C53.2832 131.958 55.0283 131.846 57.0028 132.452L56.3922 134.422C54.9979 133.989 53.7941 134.041 52.8285 134.582C51.1787 135.496 50.5942 137.544 50.5942 137.566Z" fill="#231916"/>
<path d="M67.2306 130.672L65.2388 130.152C65.2691 130.031 66.0138 127.238 68.443 125.883C69.924 125.06 71.669 124.947 73.6392 125.558L73.0287 127.524C71.6387 127.091 70.4306 127.143 69.478 127.675C67.8022 128.589 67.2349 130.65 67.2306 130.672Z" fill="#231916"/>
<path d="M58.0201 162.603C58.0201 162.603 66.3081 158.706 71.3311 163.555C76.354 168.405 77.6141 176.368 77.6141 176.368C77.6141 176.368 75.7002 183.331 72.7384 176.139C69.7765 168.946 70.2572 168.054 67.369 166.933C64.4808 165.811 56.8467 168.916 56.8467 168.916C56.8467 168.916 51.6635 168.262 58.0201 162.603Z" fill="#DC341C"/>
<path d="M75.3581 180.426C73.5957 180.426 72.4786 178.213 71.7857 176.528C71.0453 174.731 70.5214 173.337 70.1014 172.198C68.8326 168.812 68.6983 168.539 66.9966 167.868C65.1736 167.158 60.0424 168.708 57.2321 169.851L56.9853 169.951L56.7168 169.916C56.4916 169.89 54.4738 169.592 53.9412 167.885C53.4389 166.283 54.5518 164.3 57.336 161.823L57.4486 161.724L57.5828 161.659C57.9465 161.485 66.5766 157.532 72.0456 162.802C77.2418 167.821 78.5798 175.853 78.6318 176.195L78.6664 176.412L78.6057 176.628C78.3719 177.494 77.4496 180.291 75.488 180.408L75.3581 180.426ZM65.7495 165.664C66.4224 165.644 67.0932 165.749 67.7284 165.972C70.3265 166.98 70.7249 168.028 72.0196 171.488C72.4526 172.597 72.9506 173.978 73.6781 175.745C74.6957 178.217 75.3495 178.343 75.3538 178.343C75.6309 178.287 76.2198 177.351 76.5446 176.29C76.2978 174.991 74.8558 168.375 70.6036 164.274C66.477 160.299 59.6007 163.018 58.5744 163.46C55.6472 166.101 55.8594 167.158 55.8941 167.271C55.9763 167.548 56.4137 167.738 56.7341 167.825C58.0505 167.336 62.5452 165.664 65.7495 165.664Z" fill="#231916"/>
</svg>
