<svg width="270" height="239" viewBox="0 0 270 239" fill="none" xmlns="http://www.w3.org/2000/svg">
<rect x="4.31507" y="75.6371" width="94" height="127" rx="9" transform="rotate(-22.9132 4.31507 75.6371)" fill="white" stroke="black" stroke-width="2"/>
<rect x="18.198" y="82.7969" width="75" height="103" transform="rotate(-22.9132 18.198 82.7969)" fill="#A9CE53"/>
<path d="M62.9223 102.379C63.256 98.36 67.9656 96.3693 71.0807 98.9305L74.4652 101.713C75.6702 102.704 77.2685 103.076 78.787 102.718L83.0519 101.713C86.9772 100.789 90.3258 104.653 88.8526 108.407L87.2519 112.486C86.682 113.938 86.8225 115.573 87.6319 116.906L89.9052 120.652C91.9975 124.1 89.3574 128.478 85.3319 128.237L80.9581 127.975C79.4009 127.882 77.8894 128.521 76.8712 129.703L74.0113 133.022C71.379 136.078 66.3988 134.92 65.3841 131.017L64.2816 126.776C63.8891 125.266 62.8144 124.026 61.3758 123.423L57.3349 121.729C53.6158 120.17 53.1779 115.075 56.5763 112.904L60.2688 110.545C61.5834 109.705 62.4307 108.3 62.5598 106.746L62.9223 102.379Z" fill="white"/>
<rect x="73.4048" y="50.2731" width="94" height="127" rx="9" transform="rotate(-4.95158 73.4048 50.2731)" fill="white" stroke="black" stroke-width="2"/>
<rect x="84.4033" y="61.3652" width="75" height="103" transform="rotate(-4.95158 84.4033 61.3652)" fill="#A9CE53"/>
<path d="M119.097 72.8633C120.653 69.1431 125.747 68.7018 127.921 72.0988L130.282 75.7896C131.123 77.1037 132.529 77.95 134.083 78.0781L138.45 78.4377C142.469 78.7687 144.463 83.477 141.904 86.5937L139.124 89.9801C138.134 91.1858 137.763 92.7844 138.122 94.3026L139.129 98.5668C140.056 102.491 136.195 105.843 132.44 104.372L128.36 102.774C126.907 102.205 125.273 102.347 123.939 103.157L120.195 105.433C116.749 107.527 112.369 104.89 112.607 100.865L112.866 96.4907C112.958 94.9334 112.318 93.4223 111.136 92.4049L107.814 89.5472C104.757 86.917 105.912 81.936 109.814 80.9187L114.054 79.8134C115.563 79.4198 116.803 78.3443 117.405 76.9052L119.097 72.8633Z" fill="white"/>
<path d="M122.981 117.695C124.538 113.975 129.632 113.534 131.805 116.931L134.166 120.622C135.007 121.936 136.413 122.782 137.968 122.91L142.335 123.27C146.354 123.601 148.348 128.309 145.788 131.426L143.008 134.812C142.018 136.018 141.648 137.616 142.006 139.135L143.014 143.399C143.941 147.324 140.079 150.675 136.324 149.204L132.244 147.606C130.792 147.037 129.157 147.179 127.824 147.989L124.079 150.265C120.633 152.359 116.253 149.722 116.491 145.697L116.75 141.323C116.842 139.765 116.203 138.254 115.02 137.237L111.699 134.379C108.642 131.749 109.796 126.768 113.698 125.751L117.938 124.645C119.448 124.252 120.687 123.176 121.289 121.737L122.981 117.695Z" fill="white"/>
<rect x="142.224" y="47.873" width="94" height="127" rx="9" transform="rotate(9.09449 142.224 47.873)" fill="white" stroke="black" stroke-width="2"/>
<rect x="150.202" y="61.3029" width="75" height="103" transform="rotate(9.09449 150.202 61.3029)" fill="#A9CE53"/>
<path d="M149.258 127.416C146.97 124.096 149.352 119.571 153.385 119.579L153.831 119.58C155.391 119.583 156.863 118.858 157.812 117.619L158.083 117.265C160.534 114.063 165.573 114.931 166.812 118.768L166.949 119.193C167.428 120.678 168.572 121.854 170.044 122.373L170.464 122.521C174.267 123.863 174.999 128.923 171.732 131.287L171.37 131.549C170.106 132.463 169.342 133.915 169.303 135.475L169.292 135.921C169.191 139.952 164.604 142.212 161.346 139.835L160.986 139.572C159.726 138.653 158.108 138.374 156.613 138.819L156.185 138.946C152.32 140.096 148.754 136.432 150.007 132.599L150.146 132.175C150.631 130.692 150.396 129.068 149.511 127.784L149.258 127.416Z" fill="white"/>
<path d="M182.83 132.797C180.54 129.478 182.92 124.952 186.952 124.958L187.399 124.958C188.959 124.961 190.43 124.234 191.378 122.995L191.649 122.641C194.098 119.437 199.137 120.302 200.378 124.139L200.516 124.563C200.996 126.048 202.141 127.223 203.612 127.741L204.033 127.889C207.837 129.229 208.572 134.289 205.306 136.655L204.945 136.916C203.681 137.832 202.918 139.284 202.879 140.844L202.869 141.29C202.77 145.321 198.185 147.584 194.926 145.209L194.565 144.946C193.304 144.027 191.687 143.75 190.192 144.195L189.764 144.323C185.899 145.475 182.331 141.813 183.582 137.98L183.721 137.556C184.205 136.073 183.969 134.449 183.083 133.165L182.83 132.797Z" fill="white"/>
<path d="M170.781 100.536C168.477 97.2266 170.838 92.6909 174.87 92.6791L175.317 92.6778C176.877 92.6733 178.345 91.9409 179.287 90.6975L179.557 90.3418C181.992 87.1276 187.035 87.9708 188.293 91.8025L188.432 92.2266C188.918 93.7088 190.069 94.8791 191.542 95.3909L191.964 95.5374C195.773 96.8604 196.53 101.917 193.274 104.297L192.914 104.56C191.654 105.481 190.897 106.937 190.865 108.496L190.857 108.943C190.775 112.975 186.2 115.257 182.93 112.896L182.569 112.634C181.304 111.721 179.685 111.451 178.192 111.903L177.765 112.032C173.905 113.201 170.321 109.554 171.556 105.715L171.693 105.291C172.171 103.806 171.928 102.183 171.036 100.902L170.781 100.536Z" fill="white"/>
</svg>
